G04 #@! TF.GenerationSoftware,KiCad,Pcbnew,(5.0.2)-1*
G04 #@! TF.CreationDate,2019-11-02T01:01:46-04:00*
G04 #@! TF.ProjectId,gamepad,67616d65-7061-4642-9e6b-696361645f70,rev?*
G04 #@! TF.SameCoordinates,Original*
G04 #@! TF.FileFunction,Legend,Bot*
G04 #@! TF.FilePolarity,Positive*
%FSLAX46Y46*%
G04 Gerber Fmt 4.6, Leading zero omitted, Abs format (unit mm)*
G04 Created by KiCad (PCBNEW (5.0.2)-1) date 11/2/2019 1:01:46 AM*
%MOMM*%
%LPD*%
G01*
G04 APERTURE LIST*
%ADD10C,0.300000*%
%ADD11C,0.150000*%
%ADD12C,0.120000*%
G04 APERTURE END LIST*
D10*
X140742857Y-89357142D02*
X141742857Y-87928571D01*
X142457142Y-89357142D02*
X142457142Y-86357142D01*
X141314285Y-86357142D01*
X141028571Y-86500000D01*
X140885714Y-86642857D01*
X140742857Y-86928571D01*
X140742857Y-87357142D01*
X140885714Y-87642857D01*
X141028571Y-87785714D01*
X141314285Y-87928571D01*
X142457142Y-87928571D01*
X138314285Y-89214285D02*
X138600000Y-89357142D01*
X139171428Y-89357142D01*
X139457142Y-89214285D01*
X139600000Y-88928571D01*
X139600000Y-87785714D01*
X139457142Y-87500000D01*
X139171428Y-87357142D01*
X138600000Y-87357142D01*
X138314285Y-87500000D01*
X138171428Y-87785714D01*
X138171428Y-88071428D01*
X139600000Y-88357142D01*
X137171428Y-87357142D02*
X136457142Y-89357142D01*
X135742857Y-87357142D01*
X131314285Y-87785714D02*
X130885714Y-87928571D01*
X130742857Y-88071428D01*
X130600000Y-88357142D01*
X130600000Y-88785714D01*
X130742857Y-89071428D01*
X130885714Y-89214285D01*
X131171428Y-89357142D01*
X132314285Y-89357142D01*
X132314285Y-86357142D01*
X131314285Y-86357142D01*
X131028571Y-86500000D01*
X130885714Y-86642857D01*
X130742857Y-86928571D01*
X130742857Y-87214285D01*
X130885714Y-87500000D01*
X131028571Y-87642857D01*
X131314285Y-87785714D01*
X132314285Y-87785714D01*
X153671428Y-85014285D02*
X153242857Y-85157142D01*
X152528571Y-85157142D01*
X152242857Y-85014285D01*
X152100000Y-84871428D01*
X151957142Y-84585714D01*
X151957142Y-84300000D01*
X152100000Y-84014285D01*
X152242857Y-83871428D01*
X152528571Y-83728571D01*
X153100000Y-83585714D01*
X153385714Y-83442857D01*
X153528571Y-83300000D01*
X153671428Y-83014285D01*
X153671428Y-82728571D01*
X153528571Y-82442857D01*
X153385714Y-82300000D01*
X153100000Y-82157142D01*
X152385714Y-82157142D01*
X151957142Y-82300000D01*
X150671428Y-83157142D02*
X150671428Y-86157142D01*
X150671428Y-83300000D02*
X150385714Y-83157142D01*
X149814285Y-83157142D01*
X149528571Y-83300000D01*
X149385714Y-83442857D01*
X149242857Y-83728571D01*
X149242857Y-84585714D01*
X149385714Y-84871428D01*
X149528571Y-85014285D01*
X149814285Y-85157142D01*
X150385714Y-85157142D01*
X150671428Y-85014285D01*
X146671428Y-85157142D02*
X146671428Y-83585714D01*
X146814285Y-83300000D01*
X147100000Y-83157142D01*
X147671428Y-83157142D01*
X147957142Y-83300000D01*
X146671428Y-85014285D02*
X146957142Y-85157142D01*
X147671428Y-85157142D01*
X147957142Y-85014285D01*
X148100000Y-84728571D01*
X148100000Y-84442857D01*
X147957142Y-84157142D01*
X147671428Y-84014285D01*
X146957142Y-84014285D01*
X146671428Y-83871428D01*
X145242857Y-85157142D02*
X145242857Y-83157142D01*
X145242857Y-83728571D02*
X145100000Y-83442857D01*
X144957142Y-83300000D01*
X144671428Y-83157142D01*
X144385714Y-83157142D01*
X143385714Y-85157142D02*
X143385714Y-82157142D01*
X143100000Y-84014285D02*
X142242857Y-85157142D01*
X142242857Y-83157142D02*
X143385714Y-84300000D01*
X137100000Y-82300000D02*
X137385714Y-82157142D01*
X137814285Y-82157142D01*
X138242857Y-82300000D01*
X138528571Y-82585714D01*
X138671428Y-82871428D01*
X138814285Y-83442857D01*
X138814285Y-83871428D01*
X138671428Y-84442857D01*
X138528571Y-84728571D01*
X138242857Y-85014285D01*
X137814285Y-85157142D01*
X137528571Y-85157142D01*
X137100000Y-85014285D01*
X136957142Y-84871428D01*
X136957142Y-83871428D01*
X137528571Y-83871428D01*
X134385714Y-85157142D02*
X134385714Y-83585714D01*
X134528571Y-83300000D01*
X134814285Y-83157142D01*
X135385714Y-83157142D01*
X135671428Y-83300000D01*
X134385714Y-85014285D02*
X134671428Y-85157142D01*
X135385714Y-85157142D01*
X135671428Y-85014285D01*
X135814285Y-84728571D01*
X135814285Y-84442857D01*
X135671428Y-84157142D01*
X135385714Y-84014285D01*
X134671428Y-84014285D01*
X134385714Y-83871428D01*
X132957142Y-85157142D02*
X132957142Y-83157142D01*
X132957142Y-83442857D02*
X132814285Y-83300000D01*
X132528571Y-83157142D01*
X132100000Y-83157142D01*
X131814285Y-83300000D01*
X131671428Y-83585714D01*
X131671428Y-85157142D01*
X131671428Y-83585714D02*
X131528571Y-83300000D01*
X131242857Y-83157142D01*
X130814285Y-83157142D01*
X130528571Y-83300000D01*
X130385714Y-83585714D01*
X130385714Y-85157142D01*
X127814285Y-85014285D02*
X128100000Y-85157142D01*
X128671428Y-85157142D01*
X128957142Y-85014285D01*
X129100000Y-84728571D01*
X129100000Y-83585714D01*
X128957142Y-83300000D01*
X128671428Y-83157142D01*
X128100000Y-83157142D01*
X127814285Y-83300000D01*
X127671428Y-83585714D01*
X127671428Y-83871428D01*
X129100000Y-84157142D01*
X126385714Y-83157142D02*
X126385714Y-86157142D01*
X126385714Y-83300000D02*
X126100000Y-83157142D01*
X125528571Y-83157142D01*
X125242857Y-83300000D01*
X125100000Y-83442857D01*
X124957142Y-83728571D01*
X124957142Y-84585714D01*
X125100000Y-84871428D01*
X125242857Y-85014285D01*
X125528571Y-85157142D01*
X126100000Y-85157142D01*
X126385714Y-85014285D01*
X122385714Y-85157142D02*
X122385714Y-83585714D01*
X122528571Y-83300000D01*
X122814285Y-83157142D01*
X123385714Y-83157142D01*
X123671428Y-83300000D01*
X122385714Y-85014285D02*
X122671428Y-85157142D01*
X123385714Y-85157142D01*
X123671428Y-85014285D01*
X123814285Y-84728571D01*
X123814285Y-84442857D01*
X123671428Y-84157142D01*
X123385714Y-84014285D01*
X122671428Y-84014285D01*
X122385714Y-83871428D01*
X119671428Y-85157142D02*
X119671428Y-82157142D01*
X119671428Y-85014285D02*
X119957142Y-85157142D01*
X120528571Y-85157142D01*
X120814285Y-85014285D01*
X120957142Y-84871428D01*
X121100000Y-84585714D01*
X121100000Y-83728571D01*
X120957142Y-83442857D01*
X120814285Y-83300000D01*
X120528571Y-83157142D01*
X119957142Y-83157142D01*
X119671428Y-83300000D01*
D11*
G04 #@! TO.C,SW11*
X93750000Y-67300000D02*
X93750000Y-67400000D01*
X99750000Y-67300000D02*
X99750000Y-67400000D01*
X93750000Y-67300000D02*
X99750000Y-67300000D01*
X100450000Y-63900000D02*
X100450000Y-67400000D01*
X93050000Y-63900000D02*
X93050000Y-67400000D01*
X93050000Y-63900000D02*
X100450000Y-63900000D01*
G04 #@! TO.C,SW12*
X172000000Y-67300000D02*
X172000000Y-67400000D01*
X178000000Y-67300000D02*
X178000000Y-67400000D01*
X172000000Y-67300000D02*
X178000000Y-67300000D01*
X178700000Y-63900000D02*
X178700000Y-67400000D01*
X171300000Y-63900000D02*
X171300000Y-67400000D01*
X171300000Y-63900000D02*
X178700000Y-63900000D01*
D12*
G04 #@! TO.C,JP2*
X171430000Y-120700000D02*
X171430000Y-119370000D01*
X171430000Y-119370000D02*
X170100000Y-119370000D01*
X171430000Y-121970000D02*
X168830000Y-121970000D01*
X168830000Y-121970000D02*
X168830000Y-119370000D01*
X168830000Y-119370000D02*
X120510000Y-119370000D01*
X120510000Y-124570000D02*
X120510000Y-119370000D01*
X171430000Y-124570000D02*
X120510000Y-124570000D01*
X171430000Y-124570000D02*
X171430000Y-121970000D01*
G04 #@! TD*
M02*
