G04 #@! TF.GenerationSoftware,KiCad,Pcbnew,(5.0.2)-1*
G04 #@! TF.CreationDate,2019-11-02T01:01:46-04:00*
G04 #@! TF.ProjectId,gamepad,67616d65-7061-4642-9e6b-696361645f70,rev?*
G04 #@! TF.SameCoordinates,Original*
G04 #@! TF.FileFunction,Soldermask,Bot*
G04 #@! TF.FilePolarity,Negative*
%FSLAX46Y46*%
G04 Gerber Fmt 4.6, Leading zero omitted, Abs format (unit mm)*
G04 Created by KiCad (PCBNEW (5.0.2)-1) date 11/2/2019 1:01:46 AM*
%MOMM*%
%LPD*%
G01*
G04 APERTURE LIST*
%ADD10C,0.100000*%
G04 APERTURE END LIST*
D10*
G36*
X170210442Y-122345518D02*
X170276627Y-122352037D01*
X170389853Y-122386384D01*
X170446467Y-122403557D01*
X170585087Y-122477652D01*
X170602991Y-122487222D01*
X170638729Y-122516552D01*
X170740186Y-122599814D01*
X170823448Y-122701271D01*
X170852778Y-122737009D01*
X170852779Y-122737011D01*
X170936443Y-122893533D01*
X170936443Y-122893534D01*
X170987963Y-123063373D01*
X171005359Y-123240000D01*
X170987963Y-123416627D01*
X170953616Y-123529853D01*
X170936443Y-123586467D01*
X170862348Y-123725087D01*
X170852778Y-123742991D01*
X170823448Y-123778729D01*
X170740186Y-123880186D01*
X170638729Y-123963448D01*
X170602991Y-123992778D01*
X170602989Y-123992779D01*
X170446467Y-124076443D01*
X170389853Y-124093616D01*
X170276627Y-124127963D01*
X170210443Y-124134481D01*
X170144260Y-124141000D01*
X170055740Y-124141000D01*
X169989557Y-124134481D01*
X169923373Y-124127963D01*
X169810147Y-124093616D01*
X169753533Y-124076443D01*
X169597011Y-123992779D01*
X169597009Y-123992778D01*
X169561271Y-123963448D01*
X169459814Y-123880186D01*
X169376552Y-123778729D01*
X169347222Y-123742991D01*
X169337652Y-123725087D01*
X169263557Y-123586467D01*
X169246384Y-123529853D01*
X169212037Y-123416627D01*
X169194641Y-123240000D01*
X169212037Y-123063373D01*
X169263557Y-122893534D01*
X169263557Y-122893533D01*
X169347221Y-122737011D01*
X169347222Y-122737009D01*
X169376552Y-122701271D01*
X169459814Y-122599814D01*
X169561271Y-122516552D01*
X169597009Y-122487222D01*
X169614913Y-122477652D01*
X169753533Y-122403557D01*
X169810147Y-122386384D01*
X169923373Y-122352037D01*
X169989558Y-122345518D01*
X170055740Y-122339000D01*
X170144260Y-122339000D01*
X170210442Y-122345518D01*
X170210442Y-122345518D01*
G37*
G36*
X144810442Y-122345518D02*
X144876627Y-122352037D01*
X144989853Y-122386384D01*
X145046467Y-122403557D01*
X145185087Y-122477652D01*
X145202991Y-122487222D01*
X145238729Y-122516552D01*
X145340186Y-122599814D01*
X145423448Y-122701271D01*
X145452778Y-122737009D01*
X145452779Y-122737011D01*
X145536443Y-122893533D01*
X145536443Y-122893534D01*
X145587963Y-123063373D01*
X145605359Y-123240000D01*
X145587963Y-123416627D01*
X145553616Y-123529853D01*
X145536443Y-123586467D01*
X145462348Y-123725087D01*
X145452778Y-123742991D01*
X145423448Y-123778729D01*
X145340186Y-123880186D01*
X145238729Y-123963448D01*
X145202991Y-123992778D01*
X145202989Y-123992779D01*
X145046467Y-124076443D01*
X144989853Y-124093616D01*
X144876627Y-124127963D01*
X144810443Y-124134481D01*
X144744260Y-124141000D01*
X144655740Y-124141000D01*
X144589557Y-124134481D01*
X144523373Y-124127963D01*
X144410147Y-124093616D01*
X144353533Y-124076443D01*
X144197011Y-123992779D01*
X144197009Y-123992778D01*
X144161271Y-123963448D01*
X144059814Y-123880186D01*
X143976552Y-123778729D01*
X143947222Y-123742991D01*
X143937652Y-123725087D01*
X143863557Y-123586467D01*
X143846384Y-123529853D01*
X143812037Y-123416627D01*
X143794641Y-123240000D01*
X143812037Y-123063373D01*
X143863557Y-122893534D01*
X143863557Y-122893533D01*
X143947221Y-122737011D01*
X143947222Y-122737009D01*
X143976552Y-122701271D01*
X144059814Y-122599814D01*
X144161271Y-122516552D01*
X144197009Y-122487222D01*
X144214913Y-122477652D01*
X144353533Y-122403557D01*
X144410147Y-122386384D01*
X144523373Y-122352037D01*
X144589558Y-122345518D01*
X144655740Y-122339000D01*
X144744260Y-122339000D01*
X144810442Y-122345518D01*
X144810442Y-122345518D01*
G37*
G36*
X121950442Y-122345518D02*
X122016627Y-122352037D01*
X122129853Y-122386384D01*
X122186467Y-122403557D01*
X122325087Y-122477652D01*
X122342991Y-122487222D01*
X122378729Y-122516552D01*
X122480186Y-122599814D01*
X122563448Y-122701271D01*
X122592778Y-122737009D01*
X122592779Y-122737011D01*
X122676443Y-122893533D01*
X122676443Y-122893534D01*
X122727963Y-123063373D01*
X122745359Y-123240000D01*
X122727963Y-123416627D01*
X122693616Y-123529853D01*
X122676443Y-123586467D01*
X122602348Y-123725087D01*
X122592778Y-123742991D01*
X122563448Y-123778729D01*
X122480186Y-123880186D01*
X122378729Y-123963448D01*
X122342991Y-123992778D01*
X122342989Y-123992779D01*
X122186467Y-124076443D01*
X122129853Y-124093616D01*
X122016627Y-124127963D01*
X121950443Y-124134481D01*
X121884260Y-124141000D01*
X121795740Y-124141000D01*
X121729557Y-124134481D01*
X121663373Y-124127963D01*
X121550147Y-124093616D01*
X121493533Y-124076443D01*
X121337011Y-123992779D01*
X121337009Y-123992778D01*
X121301271Y-123963448D01*
X121199814Y-123880186D01*
X121116552Y-123778729D01*
X121087222Y-123742991D01*
X121077652Y-123725087D01*
X121003557Y-123586467D01*
X120986384Y-123529853D01*
X120952037Y-123416627D01*
X120934641Y-123240000D01*
X120952037Y-123063373D01*
X121003557Y-122893534D01*
X121003557Y-122893533D01*
X121087221Y-122737011D01*
X121087222Y-122737009D01*
X121116552Y-122701271D01*
X121199814Y-122599814D01*
X121301271Y-122516552D01*
X121337009Y-122487222D01*
X121354913Y-122477652D01*
X121493533Y-122403557D01*
X121550147Y-122386384D01*
X121663373Y-122352037D01*
X121729558Y-122345518D01*
X121795740Y-122339000D01*
X121884260Y-122339000D01*
X121950442Y-122345518D01*
X121950442Y-122345518D01*
G37*
G36*
X124490442Y-122345518D02*
X124556627Y-122352037D01*
X124669853Y-122386384D01*
X124726467Y-122403557D01*
X124865087Y-122477652D01*
X124882991Y-122487222D01*
X124918729Y-122516552D01*
X125020186Y-122599814D01*
X125103448Y-122701271D01*
X125132778Y-122737009D01*
X125132779Y-122737011D01*
X125216443Y-122893533D01*
X125216443Y-122893534D01*
X125267963Y-123063373D01*
X125285359Y-123240000D01*
X125267963Y-123416627D01*
X125233616Y-123529853D01*
X125216443Y-123586467D01*
X125142348Y-123725087D01*
X125132778Y-123742991D01*
X125103448Y-123778729D01*
X125020186Y-123880186D01*
X124918729Y-123963448D01*
X124882991Y-123992778D01*
X124882989Y-123992779D01*
X124726467Y-124076443D01*
X124669853Y-124093616D01*
X124556627Y-124127963D01*
X124490443Y-124134481D01*
X124424260Y-124141000D01*
X124335740Y-124141000D01*
X124269557Y-124134481D01*
X124203373Y-124127963D01*
X124090147Y-124093616D01*
X124033533Y-124076443D01*
X123877011Y-123992779D01*
X123877009Y-123992778D01*
X123841271Y-123963448D01*
X123739814Y-123880186D01*
X123656552Y-123778729D01*
X123627222Y-123742991D01*
X123617652Y-123725087D01*
X123543557Y-123586467D01*
X123526384Y-123529853D01*
X123492037Y-123416627D01*
X123474641Y-123240000D01*
X123492037Y-123063373D01*
X123543557Y-122893534D01*
X123543557Y-122893533D01*
X123627221Y-122737011D01*
X123627222Y-122737009D01*
X123656552Y-122701271D01*
X123739814Y-122599814D01*
X123841271Y-122516552D01*
X123877009Y-122487222D01*
X123894913Y-122477652D01*
X124033533Y-122403557D01*
X124090147Y-122386384D01*
X124203373Y-122352037D01*
X124269558Y-122345518D01*
X124335740Y-122339000D01*
X124424260Y-122339000D01*
X124490442Y-122345518D01*
X124490442Y-122345518D01*
G37*
G36*
X127030442Y-122345518D02*
X127096627Y-122352037D01*
X127209853Y-122386384D01*
X127266467Y-122403557D01*
X127405087Y-122477652D01*
X127422991Y-122487222D01*
X127458729Y-122516552D01*
X127560186Y-122599814D01*
X127643448Y-122701271D01*
X127672778Y-122737009D01*
X127672779Y-122737011D01*
X127756443Y-122893533D01*
X127756443Y-122893534D01*
X127807963Y-123063373D01*
X127825359Y-123240000D01*
X127807963Y-123416627D01*
X127773616Y-123529853D01*
X127756443Y-123586467D01*
X127682348Y-123725087D01*
X127672778Y-123742991D01*
X127643448Y-123778729D01*
X127560186Y-123880186D01*
X127458729Y-123963448D01*
X127422991Y-123992778D01*
X127422989Y-123992779D01*
X127266467Y-124076443D01*
X127209853Y-124093616D01*
X127096627Y-124127963D01*
X127030443Y-124134481D01*
X126964260Y-124141000D01*
X126875740Y-124141000D01*
X126809557Y-124134481D01*
X126743373Y-124127963D01*
X126630147Y-124093616D01*
X126573533Y-124076443D01*
X126417011Y-123992779D01*
X126417009Y-123992778D01*
X126381271Y-123963448D01*
X126279814Y-123880186D01*
X126196552Y-123778729D01*
X126167222Y-123742991D01*
X126157652Y-123725087D01*
X126083557Y-123586467D01*
X126066384Y-123529853D01*
X126032037Y-123416627D01*
X126014641Y-123240000D01*
X126032037Y-123063373D01*
X126083557Y-122893534D01*
X126083557Y-122893533D01*
X126167221Y-122737011D01*
X126167222Y-122737009D01*
X126196552Y-122701271D01*
X126279814Y-122599814D01*
X126381271Y-122516552D01*
X126417009Y-122487222D01*
X126434913Y-122477652D01*
X126573533Y-122403557D01*
X126630147Y-122386384D01*
X126743373Y-122352037D01*
X126809558Y-122345518D01*
X126875740Y-122339000D01*
X126964260Y-122339000D01*
X127030442Y-122345518D01*
X127030442Y-122345518D01*
G37*
G36*
X129570442Y-122345518D02*
X129636627Y-122352037D01*
X129749853Y-122386384D01*
X129806467Y-122403557D01*
X129945087Y-122477652D01*
X129962991Y-122487222D01*
X129998729Y-122516552D01*
X130100186Y-122599814D01*
X130183448Y-122701271D01*
X130212778Y-122737009D01*
X130212779Y-122737011D01*
X130296443Y-122893533D01*
X130296443Y-122893534D01*
X130347963Y-123063373D01*
X130365359Y-123240000D01*
X130347963Y-123416627D01*
X130313616Y-123529853D01*
X130296443Y-123586467D01*
X130222348Y-123725087D01*
X130212778Y-123742991D01*
X130183448Y-123778729D01*
X130100186Y-123880186D01*
X129998729Y-123963448D01*
X129962991Y-123992778D01*
X129962989Y-123992779D01*
X129806467Y-124076443D01*
X129749853Y-124093616D01*
X129636627Y-124127963D01*
X129570443Y-124134481D01*
X129504260Y-124141000D01*
X129415740Y-124141000D01*
X129349557Y-124134481D01*
X129283373Y-124127963D01*
X129170147Y-124093616D01*
X129113533Y-124076443D01*
X128957011Y-123992779D01*
X128957009Y-123992778D01*
X128921271Y-123963448D01*
X128819814Y-123880186D01*
X128736552Y-123778729D01*
X128707222Y-123742991D01*
X128697652Y-123725087D01*
X128623557Y-123586467D01*
X128606384Y-123529853D01*
X128572037Y-123416627D01*
X128554641Y-123240000D01*
X128572037Y-123063373D01*
X128623557Y-122893534D01*
X128623557Y-122893533D01*
X128707221Y-122737011D01*
X128707222Y-122737009D01*
X128736552Y-122701271D01*
X128819814Y-122599814D01*
X128921271Y-122516552D01*
X128957009Y-122487222D01*
X128974913Y-122477652D01*
X129113533Y-122403557D01*
X129170147Y-122386384D01*
X129283373Y-122352037D01*
X129349558Y-122345518D01*
X129415740Y-122339000D01*
X129504260Y-122339000D01*
X129570442Y-122345518D01*
X129570442Y-122345518D01*
G37*
G36*
X132110442Y-122345518D02*
X132176627Y-122352037D01*
X132289853Y-122386384D01*
X132346467Y-122403557D01*
X132485087Y-122477652D01*
X132502991Y-122487222D01*
X132538729Y-122516552D01*
X132640186Y-122599814D01*
X132723448Y-122701271D01*
X132752778Y-122737009D01*
X132752779Y-122737011D01*
X132836443Y-122893533D01*
X132836443Y-122893534D01*
X132887963Y-123063373D01*
X132905359Y-123240000D01*
X132887963Y-123416627D01*
X132853616Y-123529853D01*
X132836443Y-123586467D01*
X132762348Y-123725087D01*
X132752778Y-123742991D01*
X132723448Y-123778729D01*
X132640186Y-123880186D01*
X132538729Y-123963448D01*
X132502991Y-123992778D01*
X132502989Y-123992779D01*
X132346467Y-124076443D01*
X132289853Y-124093616D01*
X132176627Y-124127963D01*
X132110443Y-124134481D01*
X132044260Y-124141000D01*
X131955740Y-124141000D01*
X131889557Y-124134481D01*
X131823373Y-124127963D01*
X131710147Y-124093616D01*
X131653533Y-124076443D01*
X131497011Y-123992779D01*
X131497009Y-123992778D01*
X131461271Y-123963448D01*
X131359814Y-123880186D01*
X131276552Y-123778729D01*
X131247222Y-123742991D01*
X131237652Y-123725087D01*
X131163557Y-123586467D01*
X131146384Y-123529853D01*
X131112037Y-123416627D01*
X131094641Y-123240000D01*
X131112037Y-123063373D01*
X131163557Y-122893534D01*
X131163557Y-122893533D01*
X131247221Y-122737011D01*
X131247222Y-122737009D01*
X131276552Y-122701271D01*
X131359814Y-122599814D01*
X131461271Y-122516552D01*
X131497009Y-122487222D01*
X131514913Y-122477652D01*
X131653533Y-122403557D01*
X131710147Y-122386384D01*
X131823373Y-122352037D01*
X131889558Y-122345518D01*
X131955740Y-122339000D01*
X132044260Y-122339000D01*
X132110442Y-122345518D01*
X132110442Y-122345518D01*
G37*
G36*
X134650442Y-122345518D02*
X134716627Y-122352037D01*
X134829853Y-122386384D01*
X134886467Y-122403557D01*
X135025087Y-122477652D01*
X135042991Y-122487222D01*
X135078729Y-122516552D01*
X135180186Y-122599814D01*
X135263448Y-122701271D01*
X135292778Y-122737009D01*
X135292779Y-122737011D01*
X135376443Y-122893533D01*
X135376443Y-122893534D01*
X135427963Y-123063373D01*
X135445359Y-123240000D01*
X135427963Y-123416627D01*
X135393616Y-123529853D01*
X135376443Y-123586467D01*
X135302348Y-123725087D01*
X135292778Y-123742991D01*
X135263448Y-123778729D01*
X135180186Y-123880186D01*
X135078729Y-123963448D01*
X135042991Y-123992778D01*
X135042989Y-123992779D01*
X134886467Y-124076443D01*
X134829853Y-124093616D01*
X134716627Y-124127963D01*
X134650443Y-124134481D01*
X134584260Y-124141000D01*
X134495740Y-124141000D01*
X134429557Y-124134481D01*
X134363373Y-124127963D01*
X134250147Y-124093616D01*
X134193533Y-124076443D01*
X134037011Y-123992779D01*
X134037009Y-123992778D01*
X134001271Y-123963448D01*
X133899814Y-123880186D01*
X133816552Y-123778729D01*
X133787222Y-123742991D01*
X133777652Y-123725087D01*
X133703557Y-123586467D01*
X133686384Y-123529853D01*
X133652037Y-123416627D01*
X133634641Y-123240000D01*
X133652037Y-123063373D01*
X133703557Y-122893534D01*
X133703557Y-122893533D01*
X133787221Y-122737011D01*
X133787222Y-122737009D01*
X133816552Y-122701271D01*
X133899814Y-122599814D01*
X134001271Y-122516552D01*
X134037009Y-122487222D01*
X134054913Y-122477652D01*
X134193533Y-122403557D01*
X134250147Y-122386384D01*
X134363373Y-122352037D01*
X134429558Y-122345518D01*
X134495740Y-122339000D01*
X134584260Y-122339000D01*
X134650442Y-122345518D01*
X134650442Y-122345518D01*
G37*
G36*
X137190442Y-122345518D02*
X137256627Y-122352037D01*
X137369853Y-122386384D01*
X137426467Y-122403557D01*
X137565087Y-122477652D01*
X137582991Y-122487222D01*
X137618729Y-122516552D01*
X137720186Y-122599814D01*
X137803448Y-122701271D01*
X137832778Y-122737009D01*
X137832779Y-122737011D01*
X137916443Y-122893533D01*
X137916443Y-122893534D01*
X137967963Y-123063373D01*
X137985359Y-123240000D01*
X137967963Y-123416627D01*
X137933616Y-123529853D01*
X137916443Y-123586467D01*
X137842348Y-123725087D01*
X137832778Y-123742991D01*
X137803448Y-123778729D01*
X137720186Y-123880186D01*
X137618729Y-123963448D01*
X137582991Y-123992778D01*
X137582989Y-123992779D01*
X137426467Y-124076443D01*
X137369853Y-124093616D01*
X137256627Y-124127963D01*
X137190443Y-124134481D01*
X137124260Y-124141000D01*
X137035740Y-124141000D01*
X136969557Y-124134481D01*
X136903373Y-124127963D01*
X136790147Y-124093616D01*
X136733533Y-124076443D01*
X136577011Y-123992779D01*
X136577009Y-123992778D01*
X136541271Y-123963448D01*
X136439814Y-123880186D01*
X136356552Y-123778729D01*
X136327222Y-123742991D01*
X136317652Y-123725087D01*
X136243557Y-123586467D01*
X136226384Y-123529853D01*
X136192037Y-123416627D01*
X136174641Y-123240000D01*
X136192037Y-123063373D01*
X136243557Y-122893534D01*
X136243557Y-122893533D01*
X136327221Y-122737011D01*
X136327222Y-122737009D01*
X136356552Y-122701271D01*
X136439814Y-122599814D01*
X136541271Y-122516552D01*
X136577009Y-122487222D01*
X136594913Y-122477652D01*
X136733533Y-122403557D01*
X136790147Y-122386384D01*
X136903373Y-122352037D01*
X136969558Y-122345518D01*
X137035740Y-122339000D01*
X137124260Y-122339000D01*
X137190442Y-122345518D01*
X137190442Y-122345518D01*
G37*
G36*
X139730442Y-122345518D02*
X139796627Y-122352037D01*
X139909853Y-122386384D01*
X139966467Y-122403557D01*
X140105087Y-122477652D01*
X140122991Y-122487222D01*
X140158729Y-122516552D01*
X140260186Y-122599814D01*
X140343448Y-122701271D01*
X140372778Y-122737009D01*
X140372779Y-122737011D01*
X140456443Y-122893533D01*
X140456443Y-122893534D01*
X140507963Y-123063373D01*
X140525359Y-123240000D01*
X140507963Y-123416627D01*
X140473616Y-123529853D01*
X140456443Y-123586467D01*
X140382348Y-123725087D01*
X140372778Y-123742991D01*
X140343448Y-123778729D01*
X140260186Y-123880186D01*
X140158729Y-123963448D01*
X140122991Y-123992778D01*
X140122989Y-123992779D01*
X139966467Y-124076443D01*
X139909853Y-124093616D01*
X139796627Y-124127963D01*
X139730443Y-124134481D01*
X139664260Y-124141000D01*
X139575740Y-124141000D01*
X139509557Y-124134481D01*
X139443373Y-124127963D01*
X139330147Y-124093616D01*
X139273533Y-124076443D01*
X139117011Y-123992779D01*
X139117009Y-123992778D01*
X139081271Y-123963448D01*
X138979814Y-123880186D01*
X138896552Y-123778729D01*
X138867222Y-123742991D01*
X138857652Y-123725087D01*
X138783557Y-123586467D01*
X138766384Y-123529853D01*
X138732037Y-123416627D01*
X138714641Y-123240000D01*
X138732037Y-123063373D01*
X138783557Y-122893534D01*
X138783557Y-122893533D01*
X138867221Y-122737011D01*
X138867222Y-122737009D01*
X138896552Y-122701271D01*
X138979814Y-122599814D01*
X139081271Y-122516552D01*
X139117009Y-122487222D01*
X139134913Y-122477652D01*
X139273533Y-122403557D01*
X139330147Y-122386384D01*
X139443373Y-122352037D01*
X139509558Y-122345518D01*
X139575740Y-122339000D01*
X139664260Y-122339000D01*
X139730442Y-122345518D01*
X139730442Y-122345518D01*
G37*
G36*
X142270442Y-122345518D02*
X142336627Y-122352037D01*
X142449853Y-122386384D01*
X142506467Y-122403557D01*
X142645087Y-122477652D01*
X142662991Y-122487222D01*
X142698729Y-122516552D01*
X142800186Y-122599814D01*
X142883448Y-122701271D01*
X142912778Y-122737009D01*
X142912779Y-122737011D01*
X142996443Y-122893533D01*
X142996443Y-122893534D01*
X143047963Y-123063373D01*
X143065359Y-123240000D01*
X143047963Y-123416627D01*
X143013616Y-123529853D01*
X142996443Y-123586467D01*
X142922348Y-123725087D01*
X142912778Y-123742991D01*
X142883448Y-123778729D01*
X142800186Y-123880186D01*
X142698729Y-123963448D01*
X142662991Y-123992778D01*
X142662989Y-123992779D01*
X142506467Y-124076443D01*
X142449853Y-124093616D01*
X142336627Y-124127963D01*
X142270443Y-124134481D01*
X142204260Y-124141000D01*
X142115740Y-124141000D01*
X142049557Y-124134481D01*
X141983373Y-124127963D01*
X141870147Y-124093616D01*
X141813533Y-124076443D01*
X141657011Y-123992779D01*
X141657009Y-123992778D01*
X141621271Y-123963448D01*
X141519814Y-123880186D01*
X141436552Y-123778729D01*
X141407222Y-123742991D01*
X141397652Y-123725087D01*
X141323557Y-123586467D01*
X141306384Y-123529853D01*
X141272037Y-123416627D01*
X141254641Y-123240000D01*
X141272037Y-123063373D01*
X141323557Y-122893534D01*
X141323557Y-122893533D01*
X141407221Y-122737011D01*
X141407222Y-122737009D01*
X141436552Y-122701271D01*
X141519814Y-122599814D01*
X141621271Y-122516552D01*
X141657009Y-122487222D01*
X141674913Y-122477652D01*
X141813533Y-122403557D01*
X141870147Y-122386384D01*
X141983373Y-122352037D01*
X142049558Y-122345518D01*
X142115740Y-122339000D01*
X142204260Y-122339000D01*
X142270442Y-122345518D01*
X142270442Y-122345518D01*
G37*
G36*
X149890442Y-122345518D02*
X149956627Y-122352037D01*
X150069853Y-122386384D01*
X150126467Y-122403557D01*
X150265087Y-122477652D01*
X150282991Y-122487222D01*
X150318729Y-122516552D01*
X150420186Y-122599814D01*
X150503448Y-122701271D01*
X150532778Y-122737009D01*
X150532779Y-122737011D01*
X150616443Y-122893533D01*
X150616443Y-122893534D01*
X150667963Y-123063373D01*
X150685359Y-123240000D01*
X150667963Y-123416627D01*
X150633616Y-123529853D01*
X150616443Y-123586467D01*
X150542348Y-123725087D01*
X150532778Y-123742991D01*
X150503448Y-123778729D01*
X150420186Y-123880186D01*
X150318729Y-123963448D01*
X150282991Y-123992778D01*
X150282989Y-123992779D01*
X150126467Y-124076443D01*
X150069853Y-124093616D01*
X149956627Y-124127963D01*
X149890443Y-124134481D01*
X149824260Y-124141000D01*
X149735740Y-124141000D01*
X149669557Y-124134481D01*
X149603373Y-124127963D01*
X149490147Y-124093616D01*
X149433533Y-124076443D01*
X149277011Y-123992779D01*
X149277009Y-123992778D01*
X149241271Y-123963448D01*
X149139814Y-123880186D01*
X149056552Y-123778729D01*
X149027222Y-123742991D01*
X149017652Y-123725087D01*
X148943557Y-123586467D01*
X148926384Y-123529853D01*
X148892037Y-123416627D01*
X148874641Y-123240000D01*
X148892037Y-123063373D01*
X148943557Y-122893534D01*
X148943557Y-122893533D01*
X149027221Y-122737011D01*
X149027222Y-122737009D01*
X149056552Y-122701271D01*
X149139814Y-122599814D01*
X149241271Y-122516552D01*
X149277009Y-122487222D01*
X149294913Y-122477652D01*
X149433533Y-122403557D01*
X149490147Y-122386384D01*
X149603373Y-122352037D01*
X149669558Y-122345518D01*
X149735740Y-122339000D01*
X149824260Y-122339000D01*
X149890442Y-122345518D01*
X149890442Y-122345518D01*
G37*
G36*
X152430442Y-122345518D02*
X152496627Y-122352037D01*
X152609853Y-122386384D01*
X152666467Y-122403557D01*
X152805087Y-122477652D01*
X152822991Y-122487222D01*
X152858729Y-122516552D01*
X152960186Y-122599814D01*
X153043448Y-122701271D01*
X153072778Y-122737009D01*
X153072779Y-122737011D01*
X153156443Y-122893533D01*
X153156443Y-122893534D01*
X153207963Y-123063373D01*
X153225359Y-123240000D01*
X153207963Y-123416627D01*
X153173616Y-123529853D01*
X153156443Y-123586467D01*
X153082348Y-123725087D01*
X153072778Y-123742991D01*
X153043448Y-123778729D01*
X152960186Y-123880186D01*
X152858729Y-123963448D01*
X152822991Y-123992778D01*
X152822989Y-123992779D01*
X152666467Y-124076443D01*
X152609853Y-124093616D01*
X152496627Y-124127963D01*
X152430443Y-124134481D01*
X152364260Y-124141000D01*
X152275740Y-124141000D01*
X152209557Y-124134481D01*
X152143373Y-124127963D01*
X152030147Y-124093616D01*
X151973533Y-124076443D01*
X151817011Y-123992779D01*
X151817009Y-123992778D01*
X151781271Y-123963448D01*
X151679814Y-123880186D01*
X151596552Y-123778729D01*
X151567222Y-123742991D01*
X151557652Y-123725087D01*
X151483557Y-123586467D01*
X151466384Y-123529853D01*
X151432037Y-123416627D01*
X151414641Y-123240000D01*
X151432037Y-123063373D01*
X151483557Y-122893534D01*
X151483557Y-122893533D01*
X151567221Y-122737011D01*
X151567222Y-122737009D01*
X151596552Y-122701271D01*
X151679814Y-122599814D01*
X151781271Y-122516552D01*
X151817009Y-122487222D01*
X151834913Y-122477652D01*
X151973533Y-122403557D01*
X152030147Y-122386384D01*
X152143373Y-122352037D01*
X152209558Y-122345518D01*
X152275740Y-122339000D01*
X152364260Y-122339000D01*
X152430442Y-122345518D01*
X152430442Y-122345518D01*
G37*
G36*
X154970442Y-122345518D02*
X155036627Y-122352037D01*
X155149853Y-122386384D01*
X155206467Y-122403557D01*
X155345087Y-122477652D01*
X155362991Y-122487222D01*
X155398729Y-122516552D01*
X155500186Y-122599814D01*
X155583448Y-122701271D01*
X155612778Y-122737009D01*
X155612779Y-122737011D01*
X155696443Y-122893533D01*
X155696443Y-122893534D01*
X155747963Y-123063373D01*
X155765359Y-123240000D01*
X155747963Y-123416627D01*
X155713616Y-123529853D01*
X155696443Y-123586467D01*
X155622348Y-123725087D01*
X155612778Y-123742991D01*
X155583448Y-123778729D01*
X155500186Y-123880186D01*
X155398729Y-123963448D01*
X155362991Y-123992778D01*
X155362989Y-123992779D01*
X155206467Y-124076443D01*
X155149853Y-124093616D01*
X155036627Y-124127963D01*
X154970443Y-124134481D01*
X154904260Y-124141000D01*
X154815740Y-124141000D01*
X154749557Y-124134481D01*
X154683373Y-124127963D01*
X154570147Y-124093616D01*
X154513533Y-124076443D01*
X154357011Y-123992779D01*
X154357009Y-123992778D01*
X154321271Y-123963448D01*
X154219814Y-123880186D01*
X154136552Y-123778729D01*
X154107222Y-123742991D01*
X154097652Y-123725087D01*
X154023557Y-123586467D01*
X154006384Y-123529853D01*
X153972037Y-123416627D01*
X153954641Y-123240000D01*
X153972037Y-123063373D01*
X154023557Y-122893534D01*
X154023557Y-122893533D01*
X154107221Y-122737011D01*
X154107222Y-122737009D01*
X154136552Y-122701271D01*
X154219814Y-122599814D01*
X154321271Y-122516552D01*
X154357009Y-122487222D01*
X154374913Y-122477652D01*
X154513533Y-122403557D01*
X154570147Y-122386384D01*
X154683373Y-122352037D01*
X154749558Y-122345518D01*
X154815740Y-122339000D01*
X154904260Y-122339000D01*
X154970442Y-122345518D01*
X154970442Y-122345518D01*
G37*
G36*
X157510442Y-122345518D02*
X157576627Y-122352037D01*
X157689853Y-122386384D01*
X157746467Y-122403557D01*
X157885087Y-122477652D01*
X157902991Y-122487222D01*
X157938729Y-122516552D01*
X158040186Y-122599814D01*
X158123448Y-122701271D01*
X158152778Y-122737009D01*
X158152779Y-122737011D01*
X158236443Y-122893533D01*
X158236443Y-122893534D01*
X158287963Y-123063373D01*
X158305359Y-123240000D01*
X158287963Y-123416627D01*
X158253616Y-123529853D01*
X158236443Y-123586467D01*
X158162348Y-123725087D01*
X158152778Y-123742991D01*
X158123448Y-123778729D01*
X158040186Y-123880186D01*
X157938729Y-123963448D01*
X157902991Y-123992778D01*
X157902989Y-123992779D01*
X157746467Y-124076443D01*
X157689853Y-124093616D01*
X157576627Y-124127963D01*
X157510443Y-124134481D01*
X157444260Y-124141000D01*
X157355740Y-124141000D01*
X157289557Y-124134481D01*
X157223373Y-124127963D01*
X157110147Y-124093616D01*
X157053533Y-124076443D01*
X156897011Y-123992779D01*
X156897009Y-123992778D01*
X156861271Y-123963448D01*
X156759814Y-123880186D01*
X156676552Y-123778729D01*
X156647222Y-123742991D01*
X156637652Y-123725087D01*
X156563557Y-123586467D01*
X156546384Y-123529853D01*
X156512037Y-123416627D01*
X156494641Y-123240000D01*
X156512037Y-123063373D01*
X156563557Y-122893534D01*
X156563557Y-122893533D01*
X156647221Y-122737011D01*
X156647222Y-122737009D01*
X156676552Y-122701271D01*
X156759814Y-122599814D01*
X156861271Y-122516552D01*
X156897009Y-122487222D01*
X156914913Y-122477652D01*
X157053533Y-122403557D01*
X157110147Y-122386384D01*
X157223373Y-122352037D01*
X157289558Y-122345518D01*
X157355740Y-122339000D01*
X157444260Y-122339000D01*
X157510442Y-122345518D01*
X157510442Y-122345518D01*
G37*
G36*
X160050442Y-122345518D02*
X160116627Y-122352037D01*
X160229853Y-122386384D01*
X160286467Y-122403557D01*
X160425087Y-122477652D01*
X160442991Y-122487222D01*
X160478729Y-122516552D01*
X160580186Y-122599814D01*
X160663448Y-122701271D01*
X160692778Y-122737009D01*
X160692779Y-122737011D01*
X160776443Y-122893533D01*
X160776443Y-122893534D01*
X160827963Y-123063373D01*
X160845359Y-123240000D01*
X160827963Y-123416627D01*
X160793616Y-123529853D01*
X160776443Y-123586467D01*
X160702348Y-123725087D01*
X160692778Y-123742991D01*
X160663448Y-123778729D01*
X160580186Y-123880186D01*
X160478729Y-123963448D01*
X160442991Y-123992778D01*
X160442989Y-123992779D01*
X160286467Y-124076443D01*
X160229853Y-124093616D01*
X160116627Y-124127963D01*
X160050443Y-124134481D01*
X159984260Y-124141000D01*
X159895740Y-124141000D01*
X159829557Y-124134481D01*
X159763373Y-124127963D01*
X159650147Y-124093616D01*
X159593533Y-124076443D01*
X159437011Y-123992779D01*
X159437009Y-123992778D01*
X159401271Y-123963448D01*
X159299814Y-123880186D01*
X159216552Y-123778729D01*
X159187222Y-123742991D01*
X159177652Y-123725087D01*
X159103557Y-123586467D01*
X159086384Y-123529853D01*
X159052037Y-123416627D01*
X159034641Y-123240000D01*
X159052037Y-123063373D01*
X159103557Y-122893534D01*
X159103557Y-122893533D01*
X159187221Y-122737011D01*
X159187222Y-122737009D01*
X159216552Y-122701271D01*
X159299814Y-122599814D01*
X159401271Y-122516552D01*
X159437009Y-122487222D01*
X159454913Y-122477652D01*
X159593533Y-122403557D01*
X159650147Y-122386384D01*
X159763373Y-122352037D01*
X159829558Y-122345518D01*
X159895740Y-122339000D01*
X159984260Y-122339000D01*
X160050442Y-122345518D01*
X160050442Y-122345518D01*
G37*
G36*
X162590442Y-122345518D02*
X162656627Y-122352037D01*
X162769853Y-122386384D01*
X162826467Y-122403557D01*
X162965087Y-122477652D01*
X162982991Y-122487222D01*
X163018729Y-122516552D01*
X163120186Y-122599814D01*
X163203448Y-122701271D01*
X163232778Y-122737009D01*
X163232779Y-122737011D01*
X163316443Y-122893533D01*
X163316443Y-122893534D01*
X163367963Y-123063373D01*
X163385359Y-123240000D01*
X163367963Y-123416627D01*
X163333616Y-123529853D01*
X163316443Y-123586467D01*
X163242348Y-123725087D01*
X163232778Y-123742991D01*
X163203448Y-123778729D01*
X163120186Y-123880186D01*
X163018729Y-123963448D01*
X162982991Y-123992778D01*
X162982989Y-123992779D01*
X162826467Y-124076443D01*
X162769853Y-124093616D01*
X162656627Y-124127963D01*
X162590443Y-124134481D01*
X162524260Y-124141000D01*
X162435740Y-124141000D01*
X162369557Y-124134481D01*
X162303373Y-124127963D01*
X162190147Y-124093616D01*
X162133533Y-124076443D01*
X161977011Y-123992779D01*
X161977009Y-123992778D01*
X161941271Y-123963448D01*
X161839814Y-123880186D01*
X161756552Y-123778729D01*
X161727222Y-123742991D01*
X161717652Y-123725087D01*
X161643557Y-123586467D01*
X161626384Y-123529853D01*
X161592037Y-123416627D01*
X161574641Y-123240000D01*
X161592037Y-123063373D01*
X161643557Y-122893534D01*
X161643557Y-122893533D01*
X161727221Y-122737011D01*
X161727222Y-122737009D01*
X161756552Y-122701271D01*
X161839814Y-122599814D01*
X161941271Y-122516552D01*
X161977009Y-122487222D01*
X161994913Y-122477652D01*
X162133533Y-122403557D01*
X162190147Y-122386384D01*
X162303373Y-122352037D01*
X162369558Y-122345518D01*
X162435740Y-122339000D01*
X162524260Y-122339000D01*
X162590442Y-122345518D01*
X162590442Y-122345518D01*
G37*
G36*
X165130442Y-122345518D02*
X165196627Y-122352037D01*
X165309853Y-122386384D01*
X165366467Y-122403557D01*
X165505087Y-122477652D01*
X165522991Y-122487222D01*
X165558729Y-122516552D01*
X165660186Y-122599814D01*
X165743448Y-122701271D01*
X165772778Y-122737009D01*
X165772779Y-122737011D01*
X165856443Y-122893533D01*
X165856443Y-122893534D01*
X165907963Y-123063373D01*
X165925359Y-123240000D01*
X165907963Y-123416627D01*
X165873616Y-123529853D01*
X165856443Y-123586467D01*
X165782348Y-123725087D01*
X165772778Y-123742991D01*
X165743448Y-123778729D01*
X165660186Y-123880186D01*
X165558729Y-123963448D01*
X165522991Y-123992778D01*
X165522989Y-123992779D01*
X165366467Y-124076443D01*
X165309853Y-124093616D01*
X165196627Y-124127963D01*
X165130443Y-124134481D01*
X165064260Y-124141000D01*
X164975740Y-124141000D01*
X164909557Y-124134481D01*
X164843373Y-124127963D01*
X164730147Y-124093616D01*
X164673533Y-124076443D01*
X164517011Y-123992779D01*
X164517009Y-123992778D01*
X164481271Y-123963448D01*
X164379814Y-123880186D01*
X164296552Y-123778729D01*
X164267222Y-123742991D01*
X164257652Y-123725087D01*
X164183557Y-123586467D01*
X164166384Y-123529853D01*
X164132037Y-123416627D01*
X164114641Y-123240000D01*
X164132037Y-123063373D01*
X164183557Y-122893534D01*
X164183557Y-122893533D01*
X164267221Y-122737011D01*
X164267222Y-122737009D01*
X164296552Y-122701271D01*
X164379814Y-122599814D01*
X164481271Y-122516552D01*
X164517009Y-122487222D01*
X164534913Y-122477652D01*
X164673533Y-122403557D01*
X164730147Y-122386384D01*
X164843373Y-122352037D01*
X164909558Y-122345518D01*
X164975740Y-122339000D01*
X165064260Y-122339000D01*
X165130442Y-122345518D01*
X165130442Y-122345518D01*
G37*
G36*
X167670442Y-122345518D02*
X167736627Y-122352037D01*
X167849853Y-122386384D01*
X167906467Y-122403557D01*
X168045087Y-122477652D01*
X168062991Y-122487222D01*
X168098729Y-122516552D01*
X168200186Y-122599814D01*
X168283448Y-122701271D01*
X168312778Y-122737009D01*
X168312779Y-122737011D01*
X168396443Y-122893533D01*
X168396443Y-122893534D01*
X168447963Y-123063373D01*
X168465359Y-123240000D01*
X168447963Y-123416627D01*
X168413616Y-123529853D01*
X168396443Y-123586467D01*
X168322348Y-123725087D01*
X168312778Y-123742991D01*
X168283448Y-123778729D01*
X168200186Y-123880186D01*
X168098729Y-123963448D01*
X168062991Y-123992778D01*
X168062989Y-123992779D01*
X167906467Y-124076443D01*
X167849853Y-124093616D01*
X167736627Y-124127963D01*
X167670443Y-124134481D01*
X167604260Y-124141000D01*
X167515740Y-124141000D01*
X167449557Y-124134481D01*
X167383373Y-124127963D01*
X167270147Y-124093616D01*
X167213533Y-124076443D01*
X167057011Y-123992779D01*
X167057009Y-123992778D01*
X167021271Y-123963448D01*
X166919814Y-123880186D01*
X166836552Y-123778729D01*
X166807222Y-123742991D01*
X166797652Y-123725087D01*
X166723557Y-123586467D01*
X166706384Y-123529853D01*
X166672037Y-123416627D01*
X166654641Y-123240000D01*
X166672037Y-123063373D01*
X166723557Y-122893534D01*
X166723557Y-122893533D01*
X166807221Y-122737011D01*
X166807222Y-122737009D01*
X166836552Y-122701271D01*
X166919814Y-122599814D01*
X167021271Y-122516552D01*
X167057009Y-122487222D01*
X167074913Y-122477652D01*
X167213533Y-122403557D01*
X167270147Y-122386384D01*
X167383373Y-122352037D01*
X167449558Y-122345518D01*
X167515740Y-122339000D01*
X167604260Y-122339000D01*
X167670442Y-122345518D01*
X167670442Y-122345518D01*
G37*
G36*
X147350442Y-122345518D02*
X147416627Y-122352037D01*
X147529853Y-122386384D01*
X147586467Y-122403557D01*
X147725087Y-122477652D01*
X147742991Y-122487222D01*
X147778729Y-122516552D01*
X147880186Y-122599814D01*
X147963448Y-122701271D01*
X147992778Y-122737009D01*
X147992779Y-122737011D01*
X148076443Y-122893533D01*
X148076443Y-122893534D01*
X148127963Y-123063373D01*
X148145359Y-123240000D01*
X148127963Y-123416627D01*
X148093616Y-123529853D01*
X148076443Y-123586467D01*
X148002348Y-123725087D01*
X147992778Y-123742991D01*
X147963448Y-123778729D01*
X147880186Y-123880186D01*
X147778729Y-123963448D01*
X147742991Y-123992778D01*
X147742989Y-123992779D01*
X147586467Y-124076443D01*
X147529853Y-124093616D01*
X147416627Y-124127963D01*
X147350443Y-124134481D01*
X147284260Y-124141000D01*
X147195740Y-124141000D01*
X147129557Y-124134481D01*
X147063373Y-124127963D01*
X146950147Y-124093616D01*
X146893533Y-124076443D01*
X146737011Y-123992779D01*
X146737009Y-123992778D01*
X146701271Y-123963448D01*
X146599814Y-123880186D01*
X146516552Y-123778729D01*
X146487222Y-123742991D01*
X146477652Y-123725087D01*
X146403557Y-123586467D01*
X146386384Y-123529853D01*
X146352037Y-123416627D01*
X146334641Y-123240000D01*
X146352037Y-123063373D01*
X146403557Y-122893534D01*
X146403557Y-122893533D01*
X146487221Y-122737011D01*
X146487222Y-122737009D01*
X146516552Y-122701271D01*
X146599814Y-122599814D01*
X146701271Y-122516552D01*
X146737009Y-122487222D01*
X146754913Y-122477652D01*
X146893533Y-122403557D01*
X146950147Y-122386384D01*
X147063373Y-122352037D01*
X147129558Y-122345518D01*
X147195740Y-122339000D01*
X147284260Y-122339000D01*
X147350442Y-122345518D01*
X147350442Y-122345518D01*
G37*
G36*
X175318433Y-120634893D02*
X175408657Y-120652839D01*
X175514267Y-120696585D01*
X175663621Y-120758449D01*
X175893089Y-120911774D01*
X176088226Y-121106911D01*
X176241551Y-121336379D01*
X176347161Y-121591344D01*
X176401000Y-121862012D01*
X176401000Y-122137988D01*
X176347161Y-122408656D01*
X176241551Y-122663621D01*
X176088226Y-122893089D01*
X175893089Y-123088226D01*
X175663621Y-123241551D01*
X175514267Y-123303415D01*
X175408657Y-123347161D01*
X175318433Y-123365107D01*
X175137988Y-123401000D01*
X174862012Y-123401000D01*
X174681567Y-123365107D01*
X174591343Y-123347161D01*
X174485733Y-123303415D01*
X174336379Y-123241551D01*
X174106911Y-123088226D01*
X173911774Y-122893089D01*
X173758449Y-122663621D01*
X173652839Y-122408656D01*
X173599000Y-122137988D01*
X173599000Y-121862012D01*
X173652839Y-121591344D01*
X173758449Y-121336379D01*
X173911774Y-121106911D01*
X174106911Y-120911774D01*
X174336379Y-120758449D01*
X174485733Y-120696585D01*
X174591343Y-120652839D01*
X174681567Y-120634893D01*
X174862012Y-120599000D01*
X175137988Y-120599000D01*
X175318433Y-120634893D01*
X175318433Y-120634893D01*
G37*
G36*
X117318433Y-120634893D02*
X117408657Y-120652839D01*
X117514267Y-120696585D01*
X117663621Y-120758449D01*
X117893089Y-120911774D01*
X118088226Y-121106911D01*
X118241551Y-121336379D01*
X118347161Y-121591344D01*
X118401000Y-121862012D01*
X118401000Y-122137988D01*
X118347161Y-122408656D01*
X118241551Y-122663621D01*
X118088226Y-122893089D01*
X117893089Y-123088226D01*
X117663621Y-123241551D01*
X117514267Y-123303415D01*
X117408657Y-123347161D01*
X117318433Y-123365107D01*
X117137988Y-123401000D01*
X116862012Y-123401000D01*
X116681567Y-123365107D01*
X116591343Y-123347161D01*
X116485733Y-123303415D01*
X116336379Y-123241551D01*
X116106911Y-123088226D01*
X115911774Y-122893089D01*
X115758449Y-122663621D01*
X115652839Y-122408656D01*
X115599000Y-122137988D01*
X115599000Y-121862012D01*
X115652839Y-121591344D01*
X115758449Y-121336379D01*
X115911774Y-121106911D01*
X116106911Y-120911774D01*
X116336379Y-120758449D01*
X116485733Y-120696585D01*
X116591343Y-120652839D01*
X116681567Y-120634893D01*
X116862012Y-120599000D01*
X117137988Y-120599000D01*
X117318433Y-120634893D01*
X117318433Y-120634893D01*
G37*
G36*
X124490442Y-119805518D02*
X124556627Y-119812037D01*
X124669853Y-119846384D01*
X124726467Y-119863557D01*
X124865087Y-119937652D01*
X124882991Y-119947222D01*
X124918729Y-119976552D01*
X125020186Y-120059814D01*
X125103448Y-120161271D01*
X125132778Y-120197009D01*
X125132779Y-120197011D01*
X125216443Y-120353533D01*
X125216443Y-120353534D01*
X125267963Y-120523373D01*
X125285359Y-120700000D01*
X125267963Y-120876627D01*
X125257301Y-120911774D01*
X125216443Y-121046467D01*
X125184133Y-121106914D01*
X125132778Y-121202991D01*
X125103448Y-121238729D01*
X125020186Y-121340186D01*
X124918729Y-121423448D01*
X124882991Y-121452778D01*
X124882989Y-121452779D01*
X124726467Y-121536443D01*
X124669853Y-121553616D01*
X124556627Y-121587963D01*
X124490442Y-121594482D01*
X124424260Y-121601000D01*
X124335740Y-121601000D01*
X124269558Y-121594482D01*
X124203373Y-121587963D01*
X124090147Y-121553616D01*
X124033533Y-121536443D01*
X123877011Y-121452779D01*
X123877009Y-121452778D01*
X123841271Y-121423448D01*
X123739814Y-121340186D01*
X123656552Y-121238729D01*
X123627222Y-121202991D01*
X123575867Y-121106914D01*
X123543557Y-121046467D01*
X123502699Y-120911774D01*
X123492037Y-120876627D01*
X123474641Y-120700000D01*
X123492037Y-120523373D01*
X123543557Y-120353534D01*
X123543557Y-120353533D01*
X123627221Y-120197011D01*
X123627222Y-120197009D01*
X123656552Y-120161271D01*
X123739814Y-120059814D01*
X123841271Y-119976552D01*
X123877009Y-119947222D01*
X123894913Y-119937652D01*
X124033533Y-119863557D01*
X124090147Y-119846384D01*
X124203373Y-119812037D01*
X124269558Y-119805518D01*
X124335740Y-119799000D01*
X124424260Y-119799000D01*
X124490442Y-119805518D01*
X124490442Y-119805518D01*
G37*
G36*
X171001000Y-121601000D02*
X169199000Y-121601000D01*
X169199000Y-119799000D01*
X171001000Y-119799000D01*
X171001000Y-121601000D01*
X171001000Y-121601000D01*
G37*
G36*
X129570442Y-119805518D02*
X129636627Y-119812037D01*
X129749853Y-119846384D01*
X129806467Y-119863557D01*
X129945087Y-119937652D01*
X129962991Y-119947222D01*
X129998729Y-119976552D01*
X130100186Y-120059814D01*
X130183448Y-120161271D01*
X130212778Y-120197009D01*
X130212779Y-120197011D01*
X130296443Y-120353533D01*
X130296443Y-120353534D01*
X130347963Y-120523373D01*
X130365359Y-120700000D01*
X130347963Y-120876627D01*
X130337301Y-120911774D01*
X130296443Y-121046467D01*
X130264133Y-121106914D01*
X130212778Y-121202991D01*
X130183448Y-121238729D01*
X130100186Y-121340186D01*
X129998729Y-121423448D01*
X129962991Y-121452778D01*
X129962989Y-121452779D01*
X129806467Y-121536443D01*
X129749853Y-121553616D01*
X129636627Y-121587963D01*
X129570442Y-121594482D01*
X129504260Y-121601000D01*
X129415740Y-121601000D01*
X129349558Y-121594482D01*
X129283373Y-121587963D01*
X129170147Y-121553616D01*
X129113533Y-121536443D01*
X128957011Y-121452779D01*
X128957009Y-121452778D01*
X128921271Y-121423448D01*
X128819814Y-121340186D01*
X128736552Y-121238729D01*
X128707222Y-121202991D01*
X128655867Y-121106914D01*
X128623557Y-121046467D01*
X128582699Y-120911774D01*
X128572037Y-120876627D01*
X128554641Y-120700000D01*
X128572037Y-120523373D01*
X128623557Y-120353534D01*
X128623557Y-120353533D01*
X128707221Y-120197011D01*
X128707222Y-120197009D01*
X128736552Y-120161271D01*
X128819814Y-120059814D01*
X128921271Y-119976552D01*
X128957009Y-119947222D01*
X128974913Y-119937652D01*
X129113533Y-119863557D01*
X129170147Y-119846384D01*
X129283373Y-119812037D01*
X129349558Y-119805518D01*
X129415740Y-119799000D01*
X129504260Y-119799000D01*
X129570442Y-119805518D01*
X129570442Y-119805518D01*
G37*
G36*
X149890442Y-119805518D02*
X149956627Y-119812037D01*
X150069853Y-119846384D01*
X150126467Y-119863557D01*
X150265087Y-119937652D01*
X150282991Y-119947222D01*
X150318729Y-119976552D01*
X150420186Y-120059814D01*
X150503448Y-120161271D01*
X150532778Y-120197009D01*
X150532779Y-120197011D01*
X150616443Y-120353533D01*
X150616443Y-120353534D01*
X150667963Y-120523373D01*
X150685359Y-120700000D01*
X150667963Y-120876627D01*
X150657301Y-120911774D01*
X150616443Y-121046467D01*
X150584133Y-121106914D01*
X150532778Y-121202991D01*
X150503448Y-121238729D01*
X150420186Y-121340186D01*
X150318729Y-121423448D01*
X150282991Y-121452778D01*
X150282989Y-121452779D01*
X150126467Y-121536443D01*
X150069853Y-121553616D01*
X149956627Y-121587963D01*
X149890442Y-121594482D01*
X149824260Y-121601000D01*
X149735740Y-121601000D01*
X149669558Y-121594482D01*
X149603373Y-121587963D01*
X149490147Y-121553616D01*
X149433533Y-121536443D01*
X149277011Y-121452779D01*
X149277009Y-121452778D01*
X149241271Y-121423448D01*
X149139814Y-121340186D01*
X149056552Y-121238729D01*
X149027222Y-121202991D01*
X148975867Y-121106914D01*
X148943557Y-121046467D01*
X148902699Y-120911774D01*
X148892037Y-120876627D01*
X148874641Y-120700000D01*
X148892037Y-120523373D01*
X148943557Y-120353534D01*
X148943557Y-120353533D01*
X149027221Y-120197011D01*
X149027222Y-120197009D01*
X149056552Y-120161271D01*
X149139814Y-120059814D01*
X149241271Y-119976552D01*
X149277009Y-119947222D01*
X149294913Y-119937652D01*
X149433533Y-119863557D01*
X149490147Y-119846384D01*
X149603373Y-119812037D01*
X149669558Y-119805518D01*
X149735740Y-119799000D01*
X149824260Y-119799000D01*
X149890442Y-119805518D01*
X149890442Y-119805518D01*
G37*
G36*
X127030442Y-119805518D02*
X127096627Y-119812037D01*
X127209853Y-119846384D01*
X127266467Y-119863557D01*
X127405087Y-119937652D01*
X127422991Y-119947222D01*
X127458729Y-119976552D01*
X127560186Y-120059814D01*
X127643448Y-120161271D01*
X127672778Y-120197009D01*
X127672779Y-120197011D01*
X127756443Y-120353533D01*
X127756443Y-120353534D01*
X127807963Y-120523373D01*
X127825359Y-120700000D01*
X127807963Y-120876627D01*
X127797301Y-120911774D01*
X127756443Y-121046467D01*
X127724133Y-121106914D01*
X127672778Y-121202991D01*
X127643448Y-121238729D01*
X127560186Y-121340186D01*
X127458729Y-121423448D01*
X127422991Y-121452778D01*
X127422989Y-121452779D01*
X127266467Y-121536443D01*
X127209853Y-121553616D01*
X127096627Y-121587963D01*
X127030442Y-121594482D01*
X126964260Y-121601000D01*
X126875740Y-121601000D01*
X126809558Y-121594482D01*
X126743373Y-121587963D01*
X126630147Y-121553616D01*
X126573533Y-121536443D01*
X126417011Y-121452779D01*
X126417009Y-121452778D01*
X126381271Y-121423448D01*
X126279814Y-121340186D01*
X126196552Y-121238729D01*
X126167222Y-121202991D01*
X126115867Y-121106914D01*
X126083557Y-121046467D01*
X126042699Y-120911774D01*
X126032037Y-120876627D01*
X126014641Y-120700000D01*
X126032037Y-120523373D01*
X126083557Y-120353534D01*
X126083557Y-120353533D01*
X126167221Y-120197011D01*
X126167222Y-120197009D01*
X126196552Y-120161271D01*
X126279814Y-120059814D01*
X126381271Y-119976552D01*
X126417009Y-119947222D01*
X126434913Y-119937652D01*
X126573533Y-119863557D01*
X126630147Y-119846384D01*
X126743373Y-119812037D01*
X126809558Y-119805518D01*
X126875740Y-119799000D01*
X126964260Y-119799000D01*
X127030442Y-119805518D01*
X127030442Y-119805518D01*
G37*
G36*
X152430442Y-119805518D02*
X152496627Y-119812037D01*
X152609853Y-119846384D01*
X152666467Y-119863557D01*
X152805087Y-119937652D01*
X152822991Y-119947222D01*
X152858729Y-119976552D01*
X152960186Y-120059814D01*
X153043448Y-120161271D01*
X153072778Y-120197009D01*
X153072779Y-120197011D01*
X153156443Y-120353533D01*
X153156443Y-120353534D01*
X153207963Y-120523373D01*
X153225359Y-120700000D01*
X153207963Y-120876627D01*
X153197301Y-120911774D01*
X153156443Y-121046467D01*
X153124133Y-121106914D01*
X153072778Y-121202991D01*
X153043448Y-121238729D01*
X152960186Y-121340186D01*
X152858729Y-121423448D01*
X152822991Y-121452778D01*
X152822989Y-121452779D01*
X152666467Y-121536443D01*
X152609853Y-121553616D01*
X152496627Y-121587963D01*
X152430442Y-121594482D01*
X152364260Y-121601000D01*
X152275740Y-121601000D01*
X152209558Y-121594482D01*
X152143373Y-121587963D01*
X152030147Y-121553616D01*
X151973533Y-121536443D01*
X151817011Y-121452779D01*
X151817009Y-121452778D01*
X151781271Y-121423448D01*
X151679814Y-121340186D01*
X151596552Y-121238729D01*
X151567222Y-121202991D01*
X151515867Y-121106914D01*
X151483557Y-121046467D01*
X151442699Y-120911774D01*
X151432037Y-120876627D01*
X151414641Y-120700000D01*
X151432037Y-120523373D01*
X151483557Y-120353534D01*
X151483557Y-120353533D01*
X151567221Y-120197011D01*
X151567222Y-120197009D01*
X151596552Y-120161271D01*
X151679814Y-120059814D01*
X151781271Y-119976552D01*
X151817009Y-119947222D01*
X151834913Y-119937652D01*
X151973533Y-119863557D01*
X152030147Y-119846384D01*
X152143373Y-119812037D01*
X152209558Y-119805518D01*
X152275740Y-119799000D01*
X152364260Y-119799000D01*
X152430442Y-119805518D01*
X152430442Y-119805518D01*
G37*
G36*
X144810442Y-119805518D02*
X144876627Y-119812037D01*
X144989853Y-119846384D01*
X145046467Y-119863557D01*
X145185087Y-119937652D01*
X145202991Y-119947222D01*
X145238729Y-119976552D01*
X145340186Y-120059814D01*
X145423448Y-120161271D01*
X145452778Y-120197009D01*
X145452779Y-120197011D01*
X145536443Y-120353533D01*
X145536443Y-120353534D01*
X145587963Y-120523373D01*
X145605359Y-120700000D01*
X145587963Y-120876627D01*
X145577301Y-120911774D01*
X145536443Y-121046467D01*
X145504133Y-121106914D01*
X145452778Y-121202991D01*
X145423448Y-121238729D01*
X145340186Y-121340186D01*
X145238729Y-121423448D01*
X145202991Y-121452778D01*
X145202989Y-121452779D01*
X145046467Y-121536443D01*
X144989853Y-121553616D01*
X144876627Y-121587963D01*
X144810442Y-121594482D01*
X144744260Y-121601000D01*
X144655740Y-121601000D01*
X144589558Y-121594482D01*
X144523373Y-121587963D01*
X144410147Y-121553616D01*
X144353533Y-121536443D01*
X144197011Y-121452779D01*
X144197009Y-121452778D01*
X144161271Y-121423448D01*
X144059814Y-121340186D01*
X143976552Y-121238729D01*
X143947222Y-121202991D01*
X143895867Y-121106914D01*
X143863557Y-121046467D01*
X143822699Y-120911774D01*
X143812037Y-120876627D01*
X143794641Y-120700000D01*
X143812037Y-120523373D01*
X143863557Y-120353534D01*
X143863557Y-120353533D01*
X143947221Y-120197011D01*
X143947222Y-120197009D01*
X143976552Y-120161271D01*
X144059814Y-120059814D01*
X144161271Y-119976552D01*
X144197009Y-119947222D01*
X144214913Y-119937652D01*
X144353533Y-119863557D01*
X144410147Y-119846384D01*
X144523373Y-119812037D01*
X144589558Y-119805518D01*
X144655740Y-119799000D01*
X144744260Y-119799000D01*
X144810442Y-119805518D01*
X144810442Y-119805518D01*
G37*
G36*
X154970442Y-119805518D02*
X155036627Y-119812037D01*
X155149853Y-119846384D01*
X155206467Y-119863557D01*
X155345087Y-119937652D01*
X155362991Y-119947222D01*
X155398729Y-119976552D01*
X155500186Y-120059814D01*
X155583448Y-120161271D01*
X155612778Y-120197009D01*
X155612779Y-120197011D01*
X155696443Y-120353533D01*
X155696443Y-120353534D01*
X155747963Y-120523373D01*
X155765359Y-120700000D01*
X155747963Y-120876627D01*
X155737301Y-120911774D01*
X155696443Y-121046467D01*
X155664133Y-121106914D01*
X155612778Y-121202991D01*
X155583448Y-121238729D01*
X155500186Y-121340186D01*
X155398729Y-121423448D01*
X155362991Y-121452778D01*
X155362989Y-121452779D01*
X155206467Y-121536443D01*
X155149853Y-121553616D01*
X155036627Y-121587963D01*
X154970442Y-121594482D01*
X154904260Y-121601000D01*
X154815740Y-121601000D01*
X154749558Y-121594482D01*
X154683373Y-121587963D01*
X154570147Y-121553616D01*
X154513533Y-121536443D01*
X154357011Y-121452779D01*
X154357009Y-121452778D01*
X154321271Y-121423448D01*
X154219814Y-121340186D01*
X154136552Y-121238729D01*
X154107222Y-121202991D01*
X154055867Y-121106914D01*
X154023557Y-121046467D01*
X153982699Y-120911774D01*
X153972037Y-120876627D01*
X153954641Y-120700000D01*
X153972037Y-120523373D01*
X154023557Y-120353534D01*
X154023557Y-120353533D01*
X154107221Y-120197011D01*
X154107222Y-120197009D01*
X154136552Y-120161271D01*
X154219814Y-120059814D01*
X154321271Y-119976552D01*
X154357009Y-119947222D01*
X154374913Y-119937652D01*
X154513533Y-119863557D01*
X154570147Y-119846384D01*
X154683373Y-119812037D01*
X154749558Y-119805518D01*
X154815740Y-119799000D01*
X154904260Y-119799000D01*
X154970442Y-119805518D01*
X154970442Y-119805518D01*
G37*
G36*
X157510442Y-119805518D02*
X157576627Y-119812037D01*
X157689853Y-119846384D01*
X157746467Y-119863557D01*
X157885087Y-119937652D01*
X157902991Y-119947222D01*
X157938729Y-119976552D01*
X158040186Y-120059814D01*
X158123448Y-120161271D01*
X158152778Y-120197009D01*
X158152779Y-120197011D01*
X158236443Y-120353533D01*
X158236443Y-120353534D01*
X158287963Y-120523373D01*
X158305359Y-120700000D01*
X158287963Y-120876627D01*
X158277301Y-120911774D01*
X158236443Y-121046467D01*
X158204133Y-121106914D01*
X158152778Y-121202991D01*
X158123448Y-121238729D01*
X158040186Y-121340186D01*
X157938729Y-121423448D01*
X157902991Y-121452778D01*
X157902989Y-121452779D01*
X157746467Y-121536443D01*
X157689853Y-121553616D01*
X157576627Y-121587963D01*
X157510442Y-121594482D01*
X157444260Y-121601000D01*
X157355740Y-121601000D01*
X157289558Y-121594482D01*
X157223373Y-121587963D01*
X157110147Y-121553616D01*
X157053533Y-121536443D01*
X156897011Y-121452779D01*
X156897009Y-121452778D01*
X156861271Y-121423448D01*
X156759814Y-121340186D01*
X156676552Y-121238729D01*
X156647222Y-121202991D01*
X156595867Y-121106914D01*
X156563557Y-121046467D01*
X156522699Y-120911774D01*
X156512037Y-120876627D01*
X156494641Y-120700000D01*
X156512037Y-120523373D01*
X156563557Y-120353534D01*
X156563557Y-120353533D01*
X156647221Y-120197011D01*
X156647222Y-120197009D01*
X156676552Y-120161271D01*
X156759814Y-120059814D01*
X156861271Y-119976552D01*
X156897009Y-119947222D01*
X156914913Y-119937652D01*
X157053533Y-119863557D01*
X157110147Y-119846384D01*
X157223373Y-119812037D01*
X157289558Y-119805518D01*
X157355740Y-119799000D01*
X157444260Y-119799000D01*
X157510442Y-119805518D01*
X157510442Y-119805518D01*
G37*
G36*
X142270442Y-119805518D02*
X142336627Y-119812037D01*
X142449853Y-119846384D01*
X142506467Y-119863557D01*
X142645087Y-119937652D01*
X142662991Y-119947222D01*
X142698729Y-119976552D01*
X142800186Y-120059814D01*
X142883448Y-120161271D01*
X142912778Y-120197009D01*
X142912779Y-120197011D01*
X142996443Y-120353533D01*
X142996443Y-120353534D01*
X143047963Y-120523373D01*
X143065359Y-120700000D01*
X143047963Y-120876627D01*
X143037301Y-120911774D01*
X142996443Y-121046467D01*
X142964133Y-121106914D01*
X142912778Y-121202991D01*
X142883448Y-121238729D01*
X142800186Y-121340186D01*
X142698729Y-121423448D01*
X142662991Y-121452778D01*
X142662989Y-121452779D01*
X142506467Y-121536443D01*
X142449853Y-121553616D01*
X142336627Y-121587963D01*
X142270442Y-121594482D01*
X142204260Y-121601000D01*
X142115740Y-121601000D01*
X142049558Y-121594482D01*
X141983373Y-121587963D01*
X141870147Y-121553616D01*
X141813533Y-121536443D01*
X141657011Y-121452779D01*
X141657009Y-121452778D01*
X141621271Y-121423448D01*
X141519814Y-121340186D01*
X141436552Y-121238729D01*
X141407222Y-121202991D01*
X141355867Y-121106914D01*
X141323557Y-121046467D01*
X141282699Y-120911774D01*
X141272037Y-120876627D01*
X141254641Y-120700000D01*
X141272037Y-120523373D01*
X141323557Y-120353534D01*
X141323557Y-120353533D01*
X141407221Y-120197011D01*
X141407222Y-120197009D01*
X141436552Y-120161271D01*
X141519814Y-120059814D01*
X141621271Y-119976552D01*
X141657009Y-119947222D01*
X141674913Y-119937652D01*
X141813533Y-119863557D01*
X141870147Y-119846384D01*
X141983373Y-119812037D01*
X142049558Y-119805518D01*
X142115740Y-119799000D01*
X142204260Y-119799000D01*
X142270442Y-119805518D01*
X142270442Y-119805518D01*
G37*
G36*
X121950442Y-119805518D02*
X122016627Y-119812037D01*
X122129853Y-119846384D01*
X122186467Y-119863557D01*
X122325087Y-119937652D01*
X122342991Y-119947222D01*
X122378729Y-119976552D01*
X122480186Y-120059814D01*
X122563448Y-120161271D01*
X122592778Y-120197009D01*
X122592779Y-120197011D01*
X122676443Y-120353533D01*
X122676443Y-120353534D01*
X122727963Y-120523373D01*
X122745359Y-120700000D01*
X122727963Y-120876627D01*
X122717301Y-120911774D01*
X122676443Y-121046467D01*
X122644133Y-121106914D01*
X122592778Y-121202991D01*
X122563448Y-121238729D01*
X122480186Y-121340186D01*
X122378729Y-121423448D01*
X122342991Y-121452778D01*
X122342989Y-121452779D01*
X122186467Y-121536443D01*
X122129853Y-121553616D01*
X122016627Y-121587963D01*
X121950442Y-121594482D01*
X121884260Y-121601000D01*
X121795740Y-121601000D01*
X121729558Y-121594482D01*
X121663373Y-121587963D01*
X121550147Y-121553616D01*
X121493533Y-121536443D01*
X121337011Y-121452779D01*
X121337009Y-121452778D01*
X121301271Y-121423448D01*
X121199814Y-121340186D01*
X121116552Y-121238729D01*
X121087222Y-121202991D01*
X121035867Y-121106914D01*
X121003557Y-121046467D01*
X120962699Y-120911774D01*
X120952037Y-120876627D01*
X120934641Y-120700000D01*
X120952037Y-120523373D01*
X121003557Y-120353534D01*
X121003557Y-120353533D01*
X121087221Y-120197011D01*
X121087222Y-120197009D01*
X121116552Y-120161271D01*
X121199814Y-120059814D01*
X121301271Y-119976552D01*
X121337009Y-119947222D01*
X121354913Y-119937652D01*
X121493533Y-119863557D01*
X121550147Y-119846384D01*
X121663373Y-119812037D01*
X121729558Y-119805518D01*
X121795740Y-119799000D01*
X121884260Y-119799000D01*
X121950442Y-119805518D01*
X121950442Y-119805518D01*
G37*
G36*
X160050442Y-119805518D02*
X160116627Y-119812037D01*
X160229853Y-119846384D01*
X160286467Y-119863557D01*
X160425087Y-119937652D01*
X160442991Y-119947222D01*
X160478729Y-119976552D01*
X160580186Y-120059814D01*
X160663448Y-120161271D01*
X160692778Y-120197009D01*
X160692779Y-120197011D01*
X160776443Y-120353533D01*
X160776443Y-120353534D01*
X160827963Y-120523373D01*
X160845359Y-120700000D01*
X160827963Y-120876627D01*
X160817301Y-120911774D01*
X160776443Y-121046467D01*
X160744133Y-121106914D01*
X160692778Y-121202991D01*
X160663448Y-121238729D01*
X160580186Y-121340186D01*
X160478729Y-121423448D01*
X160442991Y-121452778D01*
X160442989Y-121452779D01*
X160286467Y-121536443D01*
X160229853Y-121553616D01*
X160116627Y-121587963D01*
X160050442Y-121594482D01*
X159984260Y-121601000D01*
X159895740Y-121601000D01*
X159829558Y-121594482D01*
X159763373Y-121587963D01*
X159650147Y-121553616D01*
X159593533Y-121536443D01*
X159437011Y-121452779D01*
X159437009Y-121452778D01*
X159401271Y-121423448D01*
X159299814Y-121340186D01*
X159216552Y-121238729D01*
X159187222Y-121202991D01*
X159135867Y-121106914D01*
X159103557Y-121046467D01*
X159062699Y-120911774D01*
X159052037Y-120876627D01*
X159034641Y-120700000D01*
X159052037Y-120523373D01*
X159103557Y-120353534D01*
X159103557Y-120353533D01*
X159187221Y-120197011D01*
X159187222Y-120197009D01*
X159216552Y-120161271D01*
X159299814Y-120059814D01*
X159401271Y-119976552D01*
X159437009Y-119947222D01*
X159454913Y-119937652D01*
X159593533Y-119863557D01*
X159650147Y-119846384D01*
X159763373Y-119812037D01*
X159829558Y-119805518D01*
X159895740Y-119799000D01*
X159984260Y-119799000D01*
X160050442Y-119805518D01*
X160050442Y-119805518D01*
G37*
G36*
X162590442Y-119805518D02*
X162656627Y-119812037D01*
X162769853Y-119846384D01*
X162826467Y-119863557D01*
X162965087Y-119937652D01*
X162982991Y-119947222D01*
X163018729Y-119976552D01*
X163120186Y-120059814D01*
X163203448Y-120161271D01*
X163232778Y-120197009D01*
X163232779Y-120197011D01*
X163316443Y-120353533D01*
X163316443Y-120353534D01*
X163367963Y-120523373D01*
X163385359Y-120700000D01*
X163367963Y-120876627D01*
X163357301Y-120911774D01*
X163316443Y-121046467D01*
X163284133Y-121106914D01*
X163232778Y-121202991D01*
X163203448Y-121238729D01*
X163120186Y-121340186D01*
X163018729Y-121423448D01*
X162982991Y-121452778D01*
X162982989Y-121452779D01*
X162826467Y-121536443D01*
X162769853Y-121553616D01*
X162656627Y-121587963D01*
X162590442Y-121594482D01*
X162524260Y-121601000D01*
X162435740Y-121601000D01*
X162369558Y-121594482D01*
X162303373Y-121587963D01*
X162190147Y-121553616D01*
X162133533Y-121536443D01*
X161977011Y-121452779D01*
X161977009Y-121452778D01*
X161941271Y-121423448D01*
X161839814Y-121340186D01*
X161756552Y-121238729D01*
X161727222Y-121202991D01*
X161675867Y-121106914D01*
X161643557Y-121046467D01*
X161602699Y-120911774D01*
X161592037Y-120876627D01*
X161574641Y-120700000D01*
X161592037Y-120523373D01*
X161643557Y-120353534D01*
X161643557Y-120353533D01*
X161727221Y-120197011D01*
X161727222Y-120197009D01*
X161756552Y-120161271D01*
X161839814Y-120059814D01*
X161941271Y-119976552D01*
X161977009Y-119947222D01*
X161994913Y-119937652D01*
X162133533Y-119863557D01*
X162190147Y-119846384D01*
X162303373Y-119812037D01*
X162369558Y-119805518D01*
X162435740Y-119799000D01*
X162524260Y-119799000D01*
X162590442Y-119805518D01*
X162590442Y-119805518D01*
G37*
G36*
X165130442Y-119805518D02*
X165196627Y-119812037D01*
X165309853Y-119846384D01*
X165366467Y-119863557D01*
X165505087Y-119937652D01*
X165522991Y-119947222D01*
X165558729Y-119976552D01*
X165660186Y-120059814D01*
X165743448Y-120161271D01*
X165772778Y-120197009D01*
X165772779Y-120197011D01*
X165856443Y-120353533D01*
X165856443Y-120353534D01*
X165907963Y-120523373D01*
X165925359Y-120700000D01*
X165907963Y-120876627D01*
X165897301Y-120911774D01*
X165856443Y-121046467D01*
X165824133Y-121106914D01*
X165772778Y-121202991D01*
X165743448Y-121238729D01*
X165660186Y-121340186D01*
X165558729Y-121423448D01*
X165522991Y-121452778D01*
X165522989Y-121452779D01*
X165366467Y-121536443D01*
X165309853Y-121553616D01*
X165196627Y-121587963D01*
X165130442Y-121594482D01*
X165064260Y-121601000D01*
X164975740Y-121601000D01*
X164909558Y-121594482D01*
X164843373Y-121587963D01*
X164730147Y-121553616D01*
X164673533Y-121536443D01*
X164517011Y-121452779D01*
X164517009Y-121452778D01*
X164481271Y-121423448D01*
X164379814Y-121340186D01*
X164296552Y-121238729D01*
X164267222Y-121202991D01*
X164215867Y-121106914D01*
X164183557Y-121046467D01*
X164142699Y-120911774D01*
X164132037Y-120876627D01*
X164114641Y-120700000D01*
X164132037Y-120523373D01*
X164183557Y-120353534D01*
X164183557Y-120353533D01*
X164267221Y-120197011D01*
X164267222Y-120197009D01*
X164296552Y-120161271D01*
X164379814Y-120059814D01*
X164481271Y-119976552D01*
X164517009Y-119947222D01*
X164534913Y-119937652D01*
X164673533Y-119863557D01*
X164730147Y-119846384D01*
X164843373Y-119812037D01*
X164909558Y-119805518D01*
X164975740Y-119799000D01*
X165064260Y-119799000D01*
X165130442Y-119805518D01*
X165130442Y-119805518D01*
G37*
G36*
X132110442Y-119805518D02*
X132176627Y-119812037D01*
X132289853Y-119846384D01*
X132346467Y-119863557D01*
X132485087Y-119937652D01*
X132502991Y-119947222D01*
X132538729Y-119976552D01*
X132640186Y-120059814D01*
X132723448Y-120161271D01*
X132752778Y-120197009D01*
X132752779Y-120197011D01*
X132836443Y-120353533D01*
X132836443Y-120353534D01*
X132887963Y-120523373D01*
X132905359Y-120700000D01*
X132887963Y-120876627D01*
X132877301Y-120911774D01*
X132836443Y-121046467D01*
X132804133Y-121106914D01*
X132752778Y-121202991D01*
X132723448Y-121238729D01*
X132640186Y-121340186D01*
X132538729Y-121423448D01*
X132502991Y-121452778D01*
X132502989Y-121452779D01*
X132346467Y-121536443D01*
X132289853Y-121553616D01*
X132176627Y-121587963D01*
X132110442Y-121594482D01*
X132044260Y-121601000D01*
X131955740Y-121601000D01*
X131889558Y-121594482D01*
X131823373Y-121587963D01*
X131710147Y-121553616D01*
X131653533Y-121536443D01*
X131497011Y-121452779D01*
X131497009Y-121452778D01*
X131461271Y-121423448D01*
X131359814Y-121340186D01*
X131276552Y-121238729D01*
X131247222Y-121202991D01*
X131195867Y-121106914D01*
X131163557Y-121046467D01*
X131122699Y-120911774D01*
X131112037Y-120876627D01*
X131094641Y-120700000D01*
X131112037Y-120523373D01*
X131163557Y-120353534D01*
X131163557Y-120353533D01*
X131247221Y-120197011D01*
X131247222Y-120197009D01*
X131276552Y-120161271D01*
X131359814Y-120059814D01*
X131461271Y-119976552D01*
X131497009Y-119947222D01*
X131514913Y-119937652D01*
X131653533Y-119863557D01*
X131710147Y-119846384D01*
X131823373Y-119812037D01*
X131889558Y-119805518D01*
X131955740Y-119799000D01*
X132044260Y-119799000D01*
X132110442Y-119805518D01*
X132110442Y-119805518D01*
G37*
G36*
X167670442Y-119805518D02*
X167736627Y-119812037D01*
X167849853Y-119846384D01*
X167906467Y-119863557D01*
X168045087Y-119937652D01*
X168062991Y-119947222D01*
X168098729Y-119976552D01*
X168200186Y-120059814D01*
X168283448Y-120161271D01*
X168312778Y-120197009D01*
X168312779Y-120197011D01*
X168396443Y-120353533D01*
X168396443Y-120353534D01*
X168447963Y-120523373D01*
X168465359Y-120700000D01*
X168447963Y-120876627D01*
X168437301Y-120911774D01*
X168396443Y-121046467D01*
X168364133Y-121106914D01*
X168312778Y-121202991D01*
X168283448Y-121238729D01*
X168200186Y-121340186D01*
X168098729Y-121423448D01*
X168062991Y-121452778D01*
X168062989Y-121452779D01*
X167906467Y-121536443D01*
X167849853Y-121553616D01*
X167736627Y-121587963D01*
X167670442Y-121594482D01*
X167604260Y-121601000D01*
X167515740Y-121601000D01*
X167449558Y-121594482D01*
X167383373Y-121587963D01*
X167270147Y-121553616D01*
X167213533Y-121536443D01*
X167057011Y-121452779D01*
X167057009Y-121452778D01*
X167021271Y-121423448D01*
X166919814Y-121340186D01*
X166836552Y-121238729D01*
X166807222Y-121202991D01*
X166755867Y-121106914D01*
X166723557Y-121046467D01*
X166682699Y-120911774D01*
X166672037Y-120876627D01*
X166654641Y-120700000D01*
X166672037Y-120523373D01*
X166723557Y-120353534D01*
X166723557Y-120353533D01*
X166807221Y-120197011D01*
X166807222Y-120197009D01*
X166836552Y-120161271D01*
X166919814Y-120059814D01*
X167021271Y-119976552D01*
X167057009Y-119947222D01*
X167074913Y-119937652D01*
X167213533Y-119863557D01*
X167270147Y-119846384D01*
X167383373Y-119812037D01*
X167449558Y-119805518D01*
X167515740Y-119799000D01*
X167604260Y-119799000D01*
X167670442Y-119805518D01*
X167670442Y-119805518D01*
G37*
G36*
X139730442Y-119805518D02*
X139796627Y-119812037D01*
X139909853Y-119846384D01*
X139966467Y-119863557D01*
X140105087Y-119937652D01*
X140122991Y-119947222D01*
X140158729Y-119976552D01*
X140260186Y-120059814D01*
X140343448Y-120161271D01*
X140372778Y-120197009D01*
X140372779Y-120197011D01*
X140456443Y-120353533D01*
X140456443Y-120353534D01*
X140507963Y-120523373D01*
X140525359Y-120700000D01*
X140507963Y-120876627D01*
X140497301Y-120911774D01*
X140456443Y-121046467D01*
X140424133Y-121106914D01*
X140372778Y-121202991D01*
X140343448Y-121238729D01*
X140260186Y-121340186D01*
X140158729Y-121423448D01*
X140122991Y-121452778D01*
X140122989Y-121452779D01*
X139966467Y-121536443D01*
X139909853Y-121553616D01*
X139796627Y-121587963D01*
X139730442Y-121594482D01*
X139664260Y-121601000D01*
X139575740Y-121601000D01*
X139509558Y-121594482D01*
X139443373Y-121587963D01*
X139330147Y-121553616D01*
X139273533Y-121536443D01*
X139117011Y-121452779D01*
X139117009Y-121452778D01*
X139081271Y-121423448D01*
X138979814Y-121340186D01*
X138896552Y-121238729D01*
X138867222Y-121202991D01*
X138815867Y-121106914D01*
X138783557Y-121046467D01*
X138742699Y-120911774D01*
X138732037Y-120876627D01*
X138714641Y-120700000D01*
X138732037Y-120523373D01*
X138783557Y-120353534D01*
X138783557Y-120353533D01*
X138867221Y-120197011D01*
X138867222Y-120197009D01*
X138896552Y-120161271D01*
X138979814Y-120059814D01*
X139081271Y-119976552D01*
X139117009Y-119947222D01*
X139134913Y-119937652D01*
X139273533Y-119863557D01*
X139330147Y-119846384D01*
X139443373Y-119812037D01*
X139509558Y-119805518D01*
X139575740Y-119799000D01*
X139664260Y-119799000D01*
X139730442Y-119805518D01*
X139730442Y-119805518D01*
G37*
G36*
X137190442Y-119805518D02*
X137256627Y-119812037D01*
X137369853Y-119846384D01*
X137426467Y-119863557D01*
X137565087Y-119937652D01*
X137582991Y-119947222D01*
X137618729Y-119976552D01*
X137720186Y-120059814D01*
X137803448Y-120161271D01*
X137832778Y-120197009D01*
X137832779Y-120197011D01*
X137916443Y-120353533D01*
X137916443Y-120353534D01*
X137967963Y-120523373D01*
X137985359Y-120700000D01*
X137967963Y-120876627D01*
X137957301Y-120911774D01*
X137916443Y-121046467D01*
X137884133Y-121106914D01*
X137832778Y-121202991D01*
X137803448Y-121238729D01*
X137720186Y-121340186D01*
X137618729Y-121423448D01*
X137582991Y-121452778D01*
X137582989Y-121452779D01*
X137426467Y-121536443D01*
X137369853Y-121553616D01*
X137256627Y-121587963D01*
X137190442Y-121594482D01*
X137124260Y-121601000D01*
X137035740Y-121601000D01*
X136969558Y-121594482D01*
X136903373Y-121587963D01*
X136790147Y-121553616D01*
X136733533Y-121536443D01*
X136577011Y-121452779D01*
X136577009Y-121452778D01*
X136541271Y-121423448D01*
X136439814Y-121340186D01*
X136356552Y-121238729D01*
X136327222Y-121202991D01*
X136275867Y-121106914D01*
X136243557Y-121046467D01*
X136202699Y-120911774D01*
X136192037Y-120876627D01*
X136174641Y-120700000D01*
X136192037Y-120523373D01*
X136243557Y-120353534D01*
X136243557Y-120353533D01*
X136327221Y-120197011D01*
X136327222Y-120197009D01*
X136356552Y-120161271D01*
X136439814Y-120059814D01*
X136541271Y-119976552D01*
X136577009Y-119947222D01*
X136594913Y-119937652D01*
X136733533Y-119863557D01*
X136790147Y-119846384D01*
X136903373Y-119812037D01*
X136969558Y-119805518D01*
X137035740Y-119799000D01*
X137124260Y-119799000D01*
X137190442Y-119805518D01*
X137190442Y-119805518D01*
G37*
G36*
X134650442Y-119805518D02*
X134716627Y-119812037D01*
X134829853Y-119846384D01*
X134886467Y-119863557D01*
X135025087Y-119937652D01*
X135042991Y-119947222D01*
X135078729Y-119976552D01*
X135180186Y-120059814D01*
X135263448Y-120161271D01*
X135292778Y-120197009D01*
X135292779Y-120197011D01*
X135376443Y-120353533D01*
X135376443Y-120353534D01*
X135427963Y-120523373D01*
X135445359Y-120700000D01*
X135427963Y-120876627D01*
X135417301Y-120911774D01*
X135376443Y-121046467D01*
X135344133Y-121106914D01*
X135292778Y-121202991D01*
X135263448Y-121238729D01*
X135180186Y-121340186D01*
X135078729Y-121423448D01*
X135042991Y-121452778D01*
X135042989Y-121452779D01*
X134886467Y-121536443D01*
X134829853Y-121553616D01*
X134716627Y-121587963D01*
X134650442Y-121594482D01*
X134584260Y-121601000D01*
X134495740Y-121601000D01*
X134429558Y-121594482D01*
X134363373Y-121587963D01*
X134250147Y-121553616D01*
X134193533Y-121536443D01*
X134037011Y-121452779D01*
X134037009Y-121452778D01*
X134001271Y-121423448D01*
X133899814Y-121340186D01*
X133816552Y-121238729D01*
X133787222Y-121202991D01*
X133735867Y-121106914D01*
X133703557Y-121046467D01*
X133662699Y-120911774D01*
X133652037Y-120876627D01*
X133634641Y-120700000D01*
X133652037Y-120523373D01*
X133703557Y-120353534D01*
X133703557Y-120353533D01*
X133787221Y-120197011D01*
X133787222Y-120197009D01*
X133816552Y-120161271D01*
X133899814Y-120059814D01*
X134001271Y-119976552D01*
X134037009Y-119947222D01*
X134054913Y-119937652D01*
X134193533Y-119863557D01*
X134250147Y-119846384D01*
X134363373Y-119812037D01*
X134429558Y-119805518D01*
X134495740Y-119799000D01*
X134584260Y-119799000D01*
X134650442Y-119805518D01*
X134650442Y-119805518D01*
G37*
G36*
X147350442Y-119805518D02*
X147416627Y-119812037D01*
X147529853Y-119846384D01*
X147586467Y-119863557D01*
X147725087Y-119937652D01*
X147742991Y-119947222D01*
X147778729Y-119976552D01*
X147880186Y-120059814D01*
X147963448Y-120161271D01*
X147992778Y-120197009D01*
X147992779Y-120197011D01*
X148076443Y-120353533D01*
X148076443Y-120353534D01*
X148127963Y-120523373D01*
X148145359Y-120700000D01*
X148127963Y-120876627D01*
X148117301Y-120911774D01*
X148076443Y-121046467D01*
X148044133Y-121106914D01*
X147992778Y-121202991D01*
X147963448Y-121238729D01*
X147880186Y-121340186D01*
X147778729Y-121423448D01*
X147742991Y-121452778D01*
X147742989Y-121452779D01*
X147586467Y-121536443D01*
X147529853Y-121553616D01*
X147416627Y-121587963D01*
X147350442Y-121594482D01*
X147284260Y-121601000D01*
X147195740Y-121601000D01*
X147129558Y-121594482D01*
X147063373Y-121587963D01*
X146950147Y-121553616D01*
X146893533Y-121536443D01*
X146737011Y-121452779D01*
X146737009Y-121452778D01*
X146701271Y-121423448D01*
X146599814Y-121340186D01*
X146516552Y-121238729D01*
X146487222Y-121202991D01*
X146435867Y-121106914D01*
X146403557Y-121046467D01*
X146362699Y-120911774D01*
X146352037Y-120876627D01*
X146334641Y-120700000D01*
X146352037Y-120523373D01*
X146403557Y-120353534D01*
X146403557Y-120353533D01*
X146487221Y-120197011D01*
X146487222Y-120197009D01*
X146516552Y-120161271D01*
X146599814Y-120059814D01*
X146701271Y-119976552D01*
X146737009Y-119947222D01*
X146754913Y-119937652D01*
X146893533Y-119863557D01*
X146950147Y-119846384D01*
X147063373Y-119812037D01*
X147129558Y-119805518D01*
X147195740Y-119799000D01*
X147284260Y-119799000D01*
X147350442Y-119805518D01*
X147350442Y-119805518D01*
G37*
G36*
X93006565Y-103989389D02*
X93197834Y-104068615D01*
X93369976Y-104183637D01*
X93516363Y-104330024D01*
X93631385Y-104502166D01*
X93710611Y-104693435D01*
X93751000Y-104896484D01*
X93751000Y-105103516D01*
X93710611Y-105306565D01*
X93631385Y-105497834D01*
X93516363Y-105669976D01*
X93369976Y-105816363D01*
X93197834Y-105931385D01*
X93006565Y-106010611D01*
X92803516Y-106051000D01*
X92596484Y-106051000D01*
X92393435Y-106010611D01*
X92202166Y-105931385D01*
X92030024Y-105816363D01*
X91883637Y-105669976D01*
X91768615Y-105497834D01*
X91689389Y-105306565D01*
X91649000Y-105103516D01*
X91649000Y-104896484D01*
X91689389Y-104693435D01*
X91768615Y-104502166D01*
X91883637Y-104330024D01*
X92030024Y-104183637D01*
X92202166Y-104068615D01*
X92393435Y-103989389D01*
X92596484Y-103949000D01*
X92803516Y-103949000D01*
X93006565Y-103989389D01*
X93006565Y-103989389D01*
G37*
G36*
X179756565Y-103989389D02*
X179947834Y-104068615D01*
X180119976Y-104183637D01*
X180266363Y-104330024D01*
X180381385Y-104502166D01*
X180460611Y-104693435D01*
X180501000Y-104896484D01*
X180501000Y-105103516D01*
X180460611Y-105306565D01*
X180381385Y-105497834D01*
X180266363Y-105669976D01*
X180119976Y-105816363D01*
X179947834Y-105931385D01*
X179756565Y-106010611D01*
X179553516Y-106051000D01*
X179346484Y-106051000D01*
X179143435Y-106010611D01*
X178952166Y-105931385D01*
X178780024Y-105816363D01*
X178633637Y-105669976D01*
X178518615Y-105497834D01*
X178439389Y-105306565D01*
X178399000Y-105103516D01*
X178399000Y-104896484D01*
X178439389Y-104693435D01*
X178518615Y-104502166D01*
X178633637Y-104330024D01*
X178780024Y-104183637D01*
X178952166Y-104068615D01*
X179143435Y-103989389D01*
X179346484Y-103949000D01*
X179553516Y-103949000D01*
X179756565Y-103989389D01*
X179756565Y-103989389D01*
G37*
G36*
X101506565Y-103989389D02*
X101697834Y-104068615D01*
X101869976Y-104183637D01*
X102016363Y-104330024D01*
X102131385Y-104502166D01*
X102210611Y-104693435D01*
X102251000Y-104896484D01*
X102251000Y-105103516D01*
X102210611Y-105306565D01*
X102131385Y-105497834D01*
X102016363Y-105669976D01*
X101869976Y-105816363D01*
X101697834Y-105931385D01*
X101506565Y-106010611D01*
X101303516Y-106051000D01*
X101096484Y-106051000D01*
X100893435Y-106010611D01*
X100702166Y-105931385D01*
X100530024Y-105816363D01*
X100383637Y-105669976D01*
X100268615Y-105497834D01*
X100189389Y-105306565D01*
X100149000Y-105103516D01*
X100149000Y-104896484D01*
X100189389Y-104693435D01*
X100268615Y-104502166D01*
X100383637Y-104330024D01*
X100530024Y-104183637D01*
X100702166Y-104068615D01*
X100893435Y-103989389D01*
X101096484Y-103949000D01*
X101303516Y-103949000D01*
X101506565Y-103989389D01*
X101506565Y-103989389D01*
G37*
G36*
X171256565Y-103989389D02*
X171447834Y-104068615D01*
X171619976Y-104183637D01*
X171766363Y-104330024D01*
X171881385Y-104502166D01*
X171960611Y-104693435D01*
X172001000Y-104896484D01*
X172001000Y-105103516D01*
X171960611Y-105306565D01*
X171881385Y-105497834D01*
X171766363Y-105669976D01*
X171619976Y-105816363D01*
X171447834Y-105931385D01*
X171256565Y-106010611D01*
X171053516Y-106051000D01*
X170846484Y-106051000D01*
X170643435Y-106010611D01*
X170452166Y-105931385D01*
X170280024Y-105816363D01*
X170133637Y-105669976D01*
X170018615Y-105497834D01*
X169939389Y-105306565D01*
X169899000Y-105103516D01*
X169899000Y-104896484D01*
X169939389Y-104693435D01*
X170018615Y-104502166D01*
X170133637Y-104330024D01*
X170280024Y-104183637D01*
X170452166Y-104068615D01*
X170643435Y-103989389D01*
X170846484Y-103949000D01*
X171053516Y-103949000D01*
X171256565Y-103989389D01*
X171256565Y-103989389D01*
G37*
G36*
X171256565Y-99739389D02*
X171447834Y-99818615D01*
X171619976Y-99933637D01*
X171766363Y-100080024D01*
X171881385Y-100252166D01*
X171960611Y-100443435D01*
X172001000Y-100646484D01*
X172001000Y-100853516D01*
X171960611Y-101056565D01*
X171881385Y-101247834D01*
X171766363Y-101419976D01*
X171619976Y-101566363D01*
X171447834Y-101681385D01*
X171256565Y-101760611D01*
X171053516Y-101801000D01*
X170846484Y-101801000D01*
X170643435Y-101760611D01*
X170452166Y-101681385D01*
X170280024Y-101566363D01*
X170133637Y-101419976D01*
X170018615Y-101247834D01*
X169939389Y-101056565D01*
X169899000Y-100853516D01*
X169899000Y-100646484D01*
X169939389Y-100443435D01*
X170018615Y-100252166D01*
X170133637Y-100080024D01*
X170280024Y-99933637D01*
X170452166Y-99818615D01*
X170643435Y-99739389D01*
X170846484Y-99699000D01*
X171053516Y-99699000D01*
X171256565Y-99739389D01*
X171256565Y-99739389D01*
G37*
G36*
X93006565Y-99739389D02*
X93197834Y-99818615D01*
X93369976Y-99933637D01*
X93516363Y-100080024D01*
X93631385Y-100252166D01*
X93710611Y-100443435D01*
X93751000Y-100646484D01*
X93751000Y-100853516D01*
X93710611Y-101056565D01*
X93631385Y-101247834D01*
X93516363Y-101419976D01*
X93369976Y-101566363D01*
X93197834Y-101681385D01*
X93006565Y-101760611D01*
X92803516Y-101801000D01*
X92596484Y-101801000D01*
X92393435Y-101760611D01*
X92202166Y-101681385D01*
X92030024Y-101566363D01*
X91883637Y-101419976D01*
X91768615Y-101247834D01*
X91689389Y-101056565D01*
X91649000Y-100853516D01*
X91649000Y-100646484D01*
X91689389Y-100443435D01*
X91768615Y-100252166D01*
X91883637Y-100080024D01*
X92030024Y-99933637D01*
X92202166Y-99818615D01*
X92393435Y-99739389D01*
X92596484Y-99699000D01*
X92803516Y-99699000D01*
X93006565Y-99739389D01*
X93006565Y-99739389D01*
G37*
G36*
X101506565Y-99739389D02*
X101697834Y-99818615D01*
X101869976Y-99933637D01*
X102016363Y-100080024D01*
X102131385Y-100252166D01*
X102210611Y-100443435D01*
X102251000Y-100646484D01*
X102251000Y-100853516D01*
X102210611Y-101056565D01*
X102131385Y-101247834D01*
X102016363Y-101419976D01*
X101869976Y-101566363D01*
X101697834Y-101681385D01*
X101506565Y-101760611D01*
X101303516Y-101801000D01*
X101096484Y-101801000D01*
X100893435Y-101760611D01*
X100702166Y-101681385D01*
X100530024Y-101566363D01*
X100383637Y-101419976D01*
X100268615Y-101247834D01*
X100189389Y-101056565D01*
X100149000Y-100853516D01*
X100149000Y-100646484D01*
X100189389Y-100443435D01*
X100268615Y-100252166D01*
X100383637Y-100080024D01*
X100530024Y-99933637D01*
X100702166Y-99818615D01*
X100893435Y-99739389D01*
X101096484Y-99699000D01*
X101303516Y-99699000D01*
X101506565Y-99739389D01*
X101506565Y-99739389D01*
G37*
G36*
X179756565Y-99739389D02*
X179947834Y-99818615D01*
X180119976Y-99933637D01*
X180266363Y-100080024D01*
X180381385Y-100252166D01*
X180460611Y-100443435D01*
X180501000Y-100646484D01*
X180501000Y-100853516D01*
X180460611Y-101056565D01*
X180381385Y-101247834D01*
X180266363Y-101419976D01*
X180119976Y-101566363D01*
X179947834Y-101681385D01*
X179756565Y-101760611D01*
X179553516Y-101801000D01*
X179346484Y-101801000D01*
X179143435Y-101760611D01*
X178952166Y-101681385D01*
X178780024Y-101566363D01*
X178633637Y-101419976D01*
X178518615Y-101247834D01*
X178439389Y-101056565D01*
X178399000Y-100853516D01*
X178399000Y-100646484D01*
X178439389Y-100443435D01*
X178518615Y-100252166D01*
X178633637Y-100080024D01*
X178780024Y-99933637D01*
X178952166Y-99818615D01*
X179143435Y-99739389D01*
X179346484Y-99699000D01*
X179553516Y-99699000D01*
X179756565Y-99739389D01*
X179756565Y-99739389D01*
G37*
G36*
X181256565Y-96489389D02*
X181447834Y-96568615D01*
X181619976Y-96683637D01*
X181766363Y-96830024D01*
X181881385Y-97002166D01*
X181960611Y-97193435D01*
X182001000Y-97396484D01*
X182001000Y-97603516D01*
X181960611Y-97806565D01*
X181881385Y-97997834D01*
X181766363Y-98169976D01*
X181619976Y-98316363D01*
X181447834Y-98431385D01*
X181256565Y-98510611D01*
X181053516Y-98551000D01*
X180846484Y-98551000D01*
X180643435Y-98510611D01*
X180452166Y-98431385D01*
X180280024Y-98316363D01*
X180133637Y-98169976D01*
X180018615Y-97997834D01*
X179939389Y-97806565D01*
X179899000Y-97603516D01*
X179899000Y-97396484D01*
X179939389Y-97193435D01*
X180018615Y-97002166D01*
X180133637Y-96830024D01*
X180280024Y-96683637D01*
X180452166Y-96568615D01*
X180643435Y-96489389D01*
X180846484Y-96449000D01*
X181053516Y-96449000D01*
X181256565Y-96489389D01*
X181256565Y-96489389D01*
G37*
G36*
X161256565Y-96489389D02*
X161447834Y-96568615D01*
X161619976Y-96683637D01*
X161766363Y-96830024D01*
X161881385Y-97002166D01*
X161960611Y-97193435D01*
X162001000Y-97396484D01*
X162001000Y-97603516D01*
X161960611Y-97806565D01*
X161881385Y-97997834D01*
X161766363Y-98169976D01*
X161619976Y-98316363D01*
X161447834Y-98431385D01*
X161256565Y-98510611D01*
X161053516Y-98551000D01*
X160846484Y-98551000D01*
X160643435Y-98510611D01*
X160452166Y-98431385D01*
X160280024Y-98316363D01*
X160133637Y-98169976D01*
X160018615Y-97997834D01*
X159939389Y-97806565D01*
X159899000Y-97603516D01*
X159899000Y-97396484D01*
X159939389Y-97193435D01*
X160018615Y-97002166D01*
X160133637Y-96830024D01*
X160280024Y-96683637D01*
X160452166Y-96568615D01*
X160643435Y-96489389D01*
X160846484Y-96449000D01*
X161053516Y-96449000D01*
X161256565Y-96489389D01*
X161256565Y-96489389D01*
G37*
G36*
X169756565Y-96489389D02*
X169947834Y-96568615D01*
X170119976Y-96683637D01*
X170266363Y-96830024D01*
X170381385Y-97002166D01*
X170460611Y-97193435D01*
X170501000Y-97396484D01*
X170501000Y-97603516D01*
X170460611Y-97806565D01*
X170381385Y-97997834D01*
X170266363Y-98169976D01*
X170119976Y-98316363D01*
X169947834Y-98431385D01*
X169756565Y-98510611D01*
X169553516Y-98551000D01*
X169346484Y-98551000D01*
X169143435Y-98510611D01*
X168952166Y-98431385D01*
X168780024Y-98316363D01*
X168633637Y-98169976D01*
X168518615Y-97997834D01*
X168439389Y-97806565D01*
X168399000Y-97603516D01*
X168399000Y-97396484D01*
X168439389Y-97193435D01*
X168518615Y-97002166D01*
X168633637Y-96830024D01*
X168780024Y-96683637D01*
X168952166Y-96568615D01*
X169143435Y-96489389D01*
X169346484Y-96449000D01*
X169553516Y-96449000D01*
X169756565Y-96489389D01*
X169756565Y-96489389D01*
G37*
G36*
X122423231Y-96489389D02*
X122614500Y-96568615D01*
X122786642Y-96683637D01*
X122933029Y-96830024D01*
X123048051Y-97002166D01*
X123127277Y-97193435D01*
X123167666Y-97396484D01*
X123167666Y-97603516D01*
X123127277Y-97806565D01*
X123048051Y-97997834D01*
X122933029Y-98169976D01*
X122786642Y-98316363D01*
X122614500Y-98431385D01*
X122423231Y-98510611D01*
X122220182Y-98551000D01*
X122013150Y-98551000D01*
X121810101Y-98510611D01*
X121618832Y-98431385D01*
X121446690Y-98316363D01*
X121300303Y-98169976D01*
X121185281Y-97997834D01*
X121106055Y-97806565D01*
X121065666Y-97603516D01*
X121065666Y-97396484D01*
X121106055Y-97193435D01*
X121185281Y-97002166D01*
X121300303Y-96830024D01*
X121446690Y-96683637D01*
X121618832Y-96568615D01*
X121810101Y-96489389D01*
X122013150Y-96449000D01*
X122220182Y-96449000D01*
X122423231Y-96489389D01*
X122423231Y-96489389D01*
G37*
G36*
X130923231Y-96489389D02*
X131114500Y-96568615D01*
X131286642Y-96683637D01*
X131433029Y-96830024D01*
X131548051Y-97002166D01*
X131627277Y-97193435D01*
X131667666Y-97396484D01*
X131667666Y-97603516D01*
X131627277Y-97806565D01*
X131548051Y-97997834D01*
X131433029Y-98169976D01*
X131286642Y-98316363D01*
X131114500Y-98431385D01*
X130923231Y-98510611D01*
X130720182Y-98551000D01*
X130513150Y-98551000D01*
X130310101Y-98510611D01*
X130118832Y-98431385D01*
X129946690Y-98316363D01*
X129800303Y-98169976D01*
X129685281Y-97997834D01*
X129606055Y-97806565D01*
X129565666Y-97603516D01*
X129565666Y-97396484D01*
X129606055Y-97193435D01*
X129685281Y-97002166D01*
X129800303Y-96830024D01*
X129946690Y-96683637D01*
X130118832Y-96568615D01*
X130310101Y-96489389D01*
X130513150Y-96449000D01*
X130720182Y-96449000D01*
X130923231Y-96489389D01*
X130923231Y-96489389D01*
G37*
G36*
X83006565Y-96489389D02*
X83197834Y-96568615D01*
X83369976Y-96683637D01*
X83516363Y-96830024D01*
X83631385Y-97002166D01*
X83710611Y-97193435D01*
X83751000Y-97396484D01*
X83751000Y-97603516D01*
X83710611Y-97806565D01*
X83631385Y-97997834D01*
X83516363Y-98169976D01*
X83369976Y-98316363D01*
X83197834Y-98431385D01*
X83006565Y-98510611D01*
X82803516Y-98551000D01*
X82596484Y-98551000D01*
X82393435Y-98510611D01*
X82202166Y-98431385D01*
X82030024Y-98316363D01*
X81883637Y-98169976D01*
X81768615Y-97997834D01*
X81689389Y-97806565D01*
X81649000Y-97603516D01*
X81649000Y-97396484D01*
X81689389Y-97193435D01*
X81768615Y-97002166D01*
X81883637Y-96830024D01*
X82030024Y-96683637D01*
X82202166Y-96568615D01*
X82393435Y-96489389D01*
X82596484Y-96449000D01*
X82803516Y-96449000D01*
X83006565Y-96489389D01*
X83006565Y-96489389D01*
G37*
G36*
X91506565Y-96489389D02*
X91697834Y-96568615D01*
X91869976Y-96683637D01*
X92016363Y-96830024D01*
X92131385Y-97002166D01*
X92210611Y-97193435D01*
X92251000Y-97396484D01*
X92251000Y-97603516D01*
X92210611Y-97806565D01*
X92131385Y-97997834D01*
X92016363Y-98169976D01*
X91869976Y-98316363D01*
X91697834Y-98431385D01*
X91506565Y-98510611D01*
X91303516Y-98551000D01*
X91096484Y-98551000D01*
X90893435Y-98510611D01*
X90702166Y-98431385D01*
X90530024Y-98316363D01*
X90383637Y-98169976D01*
X90268615Y-97997834D01*
X90189389Y-97806565D01*
X90149000Y-97603516D01*
X90149000Y-97396484D01*
X90189389Y-97193435D01*
X90268615Y-97002166D01*
X90383637Y-96830024D01*
X90530024Y-96683637D01*
X90702166Y-96568615D01*
X90893435Y-96489389D01*
X91096484Y-96449000D01*
X91303516Y-96449000D01*
X91506565Y-96489389D01*
X91506565Y-96489389D01*
G37*
G36*
X103006565Y-96489389D02*
X103197834Y-96568615D01*
X103369976Y-96683637D01*
X103516363Y-96830024D01*
X103631385Y-97002166D01*
X103710611Y-97193435D01*
X103751000Y-97396484D01*
X103751000Y-97603516D01*
X103710611Y-97806565D01*
X103631385Y-97997834D01*
X103516363Y-98169976D01*
X103369976Y-98316363D01*
X103197834Y-98431385D01*
X103006565Y-98510611D01*
X102803516Y-98551000D01*
X102596484Y-98551000D01*
X102393435Y-98510611D01*
X102202166Y-98431385D01*
X102030024Y-98316363D01*
X101883637Y-98169976D01*
X101768615Y-97997834D01*
X101689389Y-97806565D01*
X101649000Y-97603516D01*
X101649000Y-97396484D01*
X101689389Y-97193435D01*
X101768615Y-97002166D01*
X101883637Y-96830024D01*
X102030024Y-96683637D01*
X102202166Y-96568615D01*
X102393435Y-96489389D01*
X102596484Y-96449000D01*
X102803516Y-96449000D01*
X103006565Y-96489389D01*
X103006565Y-96489389D01*
G37*
G36*
X111506565Y-96489389D02*
X111697834Y-96568615D01*
X111869976Y-96683637D01*
X112016363Y-96830024D01*
X112131385Y-97002166D01*
X112210611Y-97193435D01*
X112251000Y-97396484D01*
X112251000Y-97603516D01*
X112210611Y-97806565D01*
X112131385Y-97997834D01*
X112016363Y-98169976D01*
X111869976Y-98316363D01*
X111697834Y-98431385D01*
X111506565Y-98510611D01*
X111303516Y-98551000D01*
X111096484Y-98551000D01*
X110893435Y-98510611D01*
X110702166Y-98431385D01*
X110530024Y-98316363D01*
X110383637Y-98169976D01*
X110268615Y-97997834D01*
X110189389Y-97806565D01*
X110149000Y-97603516D01*
X110149000Y-97396484D01*
X110189389Y-97193435D01*
X110268615Y-97002166D01*
X110383637Y-96830024D01*
X110530024Y-96683637D01*
X110702166Y-96568615D01*
X110893435Y-96489389D01*
X111096484Y-96449000D01*
X111303516Y-96449000D01*
X111506565Y-96489389D01*
X111506565Y-96489389D01*
G37*
G36*
X141839897Y-96489389D02*
X142031166Y-96568615D01*
X142203308Y-96683637D01*
X142349695Y-96830024D01*
X142464717Y-97002166D01*
X142543943Y-97193435D01*
X142584332Y-97396484D01*
X142584332Y-97603516D01*
X142543943Y-97806565D01*
X142464717Y-97997834D01*
X142349695Y-98169976D01*
X142203308Y-98316363D01*
X142031166Y-98431385D01*
X141839897Y-98510611D01*
X141636848Y-98551000D01*
X141429816Y-98551000D01*
X141226767Y-98510611D01*
X141035498Y-98431385D01*
X140863356Y-98316363D01*
X140716969Y-98169976D01*
X140601947Y-97997834D01*
X140522721Y-97806565D01*
X140482332Y-97603516D01*
X140482332Y-97396484D01*
X140522721Y-97193435D01*
X140601947Y-97002166D01*
X140716969Y-96830024D01*
X140863356Y-96683637D01*
X141035498Y-96568615D01*
X141226767Y-96489389D01*
X141429816Y-96449000D01*
X141636848Y-96449000D01*
X141839897Y-96489389D01*
X141839897Y-96489389D01*
G37*
G36*
X150339897Y-96489389D02*
X150531166Y-96568615D01*
X150703308Y-96683637D01*
X150849695Y-96830024D01*
X150964717Y-97002166D01*
X151043943Y-97193435D01*
X151084332Y-97396484D01*
X151084332Y-97603516D01*
X151043943Y-97806565D01*
X150964717Y-97997834D01*
X150849695Y-98169976D01*
X150703308Y-98316363D01*
X150531166Y-98431385D01*
X150339897Y-98510611D01*
X150136848Y-98551000D01*
X149929816Y-98551000D01*
X149726767Y-98510611D01*
X149535498Y-98431385D01*
X149363356Y-98316363D01*
X149216969Y-98169976D01*
X149101947Y-97997834D01*
X149022721Y-97806565D01*
X148982332Y-97603516D01*
X148982332Y-97396484D01*
X149022721Y-97193435D01*
X149101947Y-97002166D01*
X149216969Y-96830024D01*
X149363356Y-96683637D01*
X149535498Y-96568615D01*
X149726767Y-96489389D01*
X149929816Y-96449000D01*
X150136848Y-96449000D01*
X150339897Y-96489389D01*
X150339897Y-96489389D01*
G37*
G36*
X189756565Y-96489389D02*
X189947834Y-96568615D01*
X190119976Y-96683637D01*
X190266363Y-96830024D01*
X190381385Y-97002166D01*
X190460611Y-97193435D01*
X190501000Y-97396484D01*
X190501000Y-97603516D01*
X190460611Y-97806565D01*
X190381385Y-97997834D01*
X190266363Y-98169976D01*
X190119976Y-98316363D01*
X189947834Y-98431385D01*
X189756565Y-98510611D01*
X189553516Y-98551000D01*
X189346484Y-98551000D01*
X189143435Y-98510611D01*
X188952166Y-98431385D01*
X188780024Y-98316363D01*
X188633637Y-98169976D01*
X188518615Y-97997834D01*
X188439389Y-97806565D01*
X188399000Y-97603516D01*
X188399000Y-97396484D01*
X188439389Y-97193435D01*
X188518615Y-97002166D01*
X188633637Y-96830024D01*
X188780024Y-96683637D01*
X188952166Y-96568615D01*
X189143435Y-96489389D01*
X189346484Y-96449000D01*
X189553516Y-96449000D01*
X189756565Y-96489389D01*
X189756565Y-96489389D01*
G37*
G36*
X141839897Y-92239389D02*
X142031166Y-92318615D01*
X142203308Y-92433637D01*
X142349695Y-92580024D01*
X142464717Y-92752166D01*
X142543943Y-92943435D01*
X142584332Y-93146484D01*
X142584332Y-93353516D01*
X142543943Y-93556565D01*
X142464717Y-93747834D01*
X142349695Y-93919976D01*
X142203308Y-94066363D01*
X142031166Y-94181385D01*
X141839897Y-94260611D01*
X141636848Y-94301000D01*
X141429816Y-94301000D01*
X141226767Y-94260611D01*
X141035498Y-94181385D01*
X140863356Y-94066363D01*
X140716969Y-93919976D01*
X140601947Y-93747834D01*
X140522721Y-93556565D01*
X140482332Y-93353516D01*
X140482332Y-93146484D01*
X140522721Y-92943435D01*
X140601947Y-92752166D01*
X140716969Y-92580024D01*
X140863356Y-92433637D01*
X141035498Y-92318615D01*
X141226767Y-92239389D01*
X141429816Y-92199000D01*
X141636848Y-92199000D01*
X141839897Y-92239389D01*
X141839897Y-92239389D01*
G37*
G36*
X169756565Y-92239389D02*
X169947834Y-92318615D01*
X170119976Y-92433637D01*
X170266363Y-92580024D01*
X170381385Y-92752166D01*
X170460611Y-92943435D01*
X170501000Y-93146484D01*
X170501000Y-93353516D01*
X170460611Y-93556565D01*
X170381385Y-93747834D01*
X170266363Y-93919976D01*
X170119976Y-94066363D01*
X169947834Y-94181385D01*
X169756565Y-94260611D01*
X169553516Y-94301000D01*
X169346484Y-94301000D01*
X169143435Y-94260611D01*
X168952166Y-94181385D01*
X168780024Y-94066363D01*
X168633637Y-93919976D01*
X168518615Y-93747834D01*
X168439389Y-93556565D01*
X168399000Y-93353516D01*
X168399000Y-93146484D01*
X168439389Y-92943435D01*
X168518615Y-92752166D01*
X168633637Y-92580024D01*
X168780024Y-92433637D01*
X168952166Y-92318615D01*
X169143435Y-92239389D01*
X169346484Y-92199000D01*
X169553516Y-92199000D01*
X169756565Y-92239389D01*
X169756565Y-92239389D01*
G37*
G36*
X150339897Y-92239389D02*
X150531166Y-92318615D01*
X150703308Y-92433637D01*
X150849695Y-92580024D01*
X150964717Y-92752166D01*
X151043943Y-92943435D01*
X151084332Y-93146484D01*
X151084332Y-93353516D01*
X151043943Y-93556565D01*
X150964717Y-93747834D01*
X150849695Y-93919976D01*
X150703308Y-94066363D01*
X150531166Y-94181385D01*
X150339897Y-94260611D01*
X150136848Y-94301000D01*
X149929816Y-94301000D01*
X149726767Y-94260611D01*
X149535498Y-94181385D01*
X149363356Y-94066363D01*
X149216969Y-93919976D01*
X149101947Y-93747834D01*
X149022721Y-93556565D01*
X148982332Y-93353516D01*
X148982332Y-93146484D01*
X149022721Y-92943435D01*
X149101947Y-92752166D01*
X149216969Y-92580024D01*
X149363356Y-92433637D01*
X149535498Y-92318615D01*
X149726767Y-92239389D01*
X149929816Y-92199000D01*
X150136848Y-92199000D01*
X150339897Y-92239389D01*
X150339897Y-92239389D01*
G37*
G36*
X161256565Y-92239389D02*
X161447834Y-92318615D01*
X161619976Y-92433637D01*
X161766363Y-92580024D01*
X161881385Y-92752166D01*
X161960611Y-92943435D01*
X162001000Y-93146484D01*
X162001000Y-93353516D01*
X161960611Y-93556565D01*
X161881385Y-93747834D01*
X161766363Y-93919976D01*
X161619976Y-94066363D01*
X161447834Y-94181385D01*
X161256565Y-94260611D01*
X161053516Y-94301000D01*
X160846484Y-94301000D01*
X160643435Y-94260611D01*
X160452166Y-94181385D01*
X160280024Y-94066363D01*
X160133637Y-93919976D01*
X160018615Y-93747834D01*
X159939389Y-93556565D01*
X159899000Y-93353516D01*
X159899000Y-93146484D01*
X159939389Y-92943435D01*
X160018615Y-92752166D01*
X160133637Y-92580024D01*
X160280024Y-92433637D01*
X160452166Y-92318615D01*
X160643435Y-92239389D01*
X160846484Y-92199000D01*
X161053516Y-92199000D01*
X161256565Y-92239389D01*
X161256565Y-92239389D01*
G37*
G36*
X91506565Y-92239389D02*
X91697834Y-92318615D01*
X91869976Y-92433637D01*
X92016363Y-92580024D01*
X92131385Y-92752166D01*
X92210611Y-92943435D01*
X92251000Y-93146484D01*
X92251000Y-93353516D01*
X92210611Y-93556565D01*
X92131385Y-93747834D01*
X92016363Y-93919976D01*
X91869976Y-94066363D01*
X91697834Y-94181385D01*
X91506565Y-94260611D01*
X91303516Y-94301000D01*
X91096484Y-94301000D01*
X90893435Y-94260611D01*
X90702166Y-94181385D01*
X90530024Y-94066363D01*
X90383637Y-93919976D01*
X90268615Y-93747834D01*
X90189389Y-93556565D01*
X90149000Y-93353516D01*
X90149000Y-93146484D01*
X90189389Y-92943435D01*
X90268615Y-92752166D01*
X90383637Y-92580024D01*
X90530024Y-92433637D01*
X90702166Y-92318615D01*
X90893435Y-92239389D01*
X91096484Y-92199000D01*
X91303516Y-92199000D01*
X91506565Y-92239389D01*
X91506565Y-92239389D01*
G37*
G36*
X111506565Y-92239389D02*
X111697834Y-92318615D01*
X111869976Y-92433637D01*
X112016363Y-92580024D01*
X112131385Y-92752166D01*
X112210611Y-92943435D01*
X112251000Y-93146484D01*
X112251000Y-93353516D01*
X112210611Y-93556565D01*
X112131385Y-93747834D01*
X112016363Y-93919976D01*
X111869976Y-94066363D01*
X111697834Y-94181385D01*
X111506565Y-94260611D01*
X111303516Y-94301000D01*
X111096484Y-94301000D01*
X110893435Y-94260611D01*
X110702166Y-94181385D01*
X110530024Y-94066363D01*
X110383637Y-93919976D01*
X110268615Y-93747834D01*
X110189389Y-93556565D01*
X110149000Y-93353516D01*
X110149000Y-93146484D01*
X110189389Y-92943435D01*
X110268615Y-92752166D01*
X110383637Y-92580024D01*
X110530024Y-92433637D01*
X110702166Y-92318615D01*
X110893435Y-92239389D01*
X111096484Y-92199000D01*
X111303516Y-92199000D01*
X111506565Y-92239389D01*
X111506565Y-92239389D01*
G37*
G36*
X103006565Y-92239389D02*
X103197834Y-92318615D01*
X103369976Y-92433637D01*
X103516363Y-92580024D01*
X103631385Y-92752166D01*
X103710611Y-92943435D01*
X103751000Y-93146484D01*
X103751000Y-93353516D01*
X103710611Y-93556565D01*
X103631385Y-93747834D01*
X103516363Y-93919976D01*
X103369976Y-94066363D01*
X103197834Y-94181385D01*
X103006565Y-94260611D01*
X102803516Y-94301000D01*
X102596484Y-94301000D01*
X102393435Y-94260611D01*
X102202166Y-94181385D01*
X102030024Y-94066363D01*
X101883637Y-93919976D01*
X101768615Y-93747834D01*
X101689389Y-93556565D01*
X101649000Y-93353516D01*
X101649000Y-93146484D01*
X101689389Y-92943435D01*
X101768615Y-92752166D01*
X101883637Y-92580024D01*
X102030024Y-92433637D01*
X102202166Y-92318615D01*
X102393435Y-92239389D01*
X102596484Y-92199000D01*
X102803516Y-92199000D01*
X103006565Y-92239389D01*
X103006565Y-92239389D01*
G37*
G36*
X189756565Y-92239389D02*
X189947834Y-92318615D01*
X190119976Y-92433637D01*
X190266363Y-92580024D01*
X190381385Y-92752166D01*
X190460611Y-92943435D01*
X190501000Y-93146484D01*
X190501000Y-93353516D01*
X190460611Y-93556565D01*
X190381385Y-93747834D01*
X190266363Y-93919976D01*
X190119976Y-94066363D01*
X189947834Y-94181385D01*
X189756565Y-94260611D01*
X189553516Y-94301000D01*
X189346484Y-94301000D01*
X189143435Y-94260611D01*
X188952166Y-94181385D01*
X188780024Y-94066363D01*
X188633637Y-93919976D01*
X188518615Y-93747834D01*
X188439389Y-93556565D01*
X188399000Y-93353516D01*
X188399000Y-93146484D01*
X188439389Y-92943435D01*
X188518615Y-92752166D01*
X188633637Y-92580024D01*
X188780024Y-92433637D01*
X188952166Y-92318615D01*
X189143435Y-92239389D01*
X189346484Y-92199000D01*
X189553516Y-92199000D01*
X189756565Y-92239389D01*
X189756565Y-92239389D01*
G37*
G36*
X83006565Y-92239389D02*
X83197834Y-92318615D01*
X83369976Y-92433637D01*
X83516363Y-92580024D01*
X83631385Y-92752166D01*
X83710611Y-92943435D01*
X83751000Y-93146484D01*
X83751000Y-93353516D01*
X83710611Y-93556565D01*
X83631385Y-93747834D01*
X83516363Y-93919976D01*
X83369976Y-94066363D01*
X83197834Y-94181385D01*
X83006565Y-94260611D01*
X82803516Y-94301000D01*
X82596484Y-94301000D01*
X82393435Y-94260611D01*
X82202166Y-94181385D01*
X82030024Y-94066363D01*
X81883637Y-93919976D01*
X81768615Y-93747834D01*
X81689389Y-93556565D01*
X81649000Y-93353516D01*
X81649000Y-93146484D01*
X81689389Y-92943435D01*
X81768615Y-92752166D01*
X81883637Y-92580024D01*
X82030024Y-92433637D01*
X82202166Y-92318615D01*
X82393435Y-92239389D01*
X82596484Y-92199000D01*
X82803516Y-92199000D01*
X83006565Y-92239389D01*
X83006565Y-92239389D01*
G37*
G36*
X130923231Y-92239389D02*
X131114500Y-92318615D01*
X131286642Y-92433637D01*
X131433029Y-92580024D01*
X131548051Y-92752166D01*
X131627277Y-92943435D01*
X131667666Y-93146484D01*
X131667666Y-93353516D01*
X131627277Y-93556565D01*
X131548051Y-93747834D01*
X131433029Y-93919976D01*
X131286642Y-94066363D01*
X131114500Y-94181385D01*
X130923231Y-94260611D01*
X130720182Y-94301000D01*
X130513150Y-94301000D01*
X130310101Y-94260611D01*
X130118832Y-94181385D01*
X129946690Y-94066363D01*
X129800303Y-93919976D01*
X129685281Y-93747834D01*
X129606055Y-93556565D01*
X129565666Y-93353516D01*
X129565666Y-93146484D01*
X129606055Y-92943435D01*
X129685281Y-92752166D01*
X129800303Y-92580024D01*
X129946690Y-92433637D01*
X130118832Y-92318615D01*
X130310101Y-92239389D01*
X130513150Y-92199000D01*
X130720182Y-92199000D01*
X130923231Y-92239389D01*
X130923231Y-92239389D01*
G37*
G36*
X122423231Y-92239389D02*
X122614500Y-92318615D01*
X122786642Y-92433637D01*
X122933029Y-92580024D01*
X123048051Y-92752166D01*
X123127277Y-92943435D01*
X123167666Y-93146484D01*
X123167666Y-93353516D01*
X123127277Y-93556565D01*
X123048051Y-93747834D01*
X122933029Y-93919976D01*
X122786642Y-94066363D01*
X122614500Y-94181385D01*
X122423231Y-94260611D01*
X122220182Y-94301000D01*
X122013150Y-94301000D01*
X121810101Y-94260611D01*
X121618832Y-94181385D01*
X121446690Y-94066363D01*
X121300303Y-93919976D01*
X121185281Y-93747834D01*
X121106055Y-93556565D01*
X121065666Y-93353516D01*
X121065666Y-93146484D01*
X121106055Y-92943435D01*
X121185281Y-92752166D01*
X121300303Y-92580024D01*
X121446690Y-92433637D01*
X121618832Y-92318615D01*
X121810101Y-92239389D01*
X122013150Y-92199000D01*
X122220182Y-92199000D01*
X122423231Y-92239389D01*
X122423231Y-92239389D01*
G37*
G36*
X181256565Y-92239389D02*
X181447834Y-92318615D01*
X181619976Y-92433637D01*
X181766363Y-92580024D01*
X181881385Y-92752166D01*
X181960611Y-92943435D01*
X182001000Y-93146484D01*
X182001000Y-93353516D01*
X181960611Y-93556565D01*
X181881385Y-93747834D01*
X181766363Y-93919976D01*
X181619976Y-94066363D01*
X181447834Y-94181385D01*
X181256565Y-94260611D01*
X181053516Y-94301000D01*
X180846484Y-94301000D01*
X180643435Y-94260611D01*
X180452166Y-94181385D01*
X180280024Y-94066363D01*
X180133637Y-93919976D01*
X180018615Y-93747834D01*
X179939389Y-93556565D01*
X179899000Y-93353516D01*
X179899000Y-93146484D01*
X179939389Y-92943435D01*
X180018615Y-92752166D01*
X180133637Y-92580024D01*
X180280024Y-92433637D01*
X180452166Y-92318615D01*
X180643435Y-92239389D01*
X180846484Y-92199000D01*
X181053516Y-92199000D01*
X181256565Y-92239389D01*
X181256565Y-92239389D01*
G37*
G36*
X179756565Y-88989389D02*
X179947834Y-89068615D01*
X180119976Y-89183637D01*
X180266363Y-89330024D01*
X180381385Y-89502166D01*
X180460611Y-89693435D01*
X180501000Y-89896484D01*
X180501000Y-90103516D01*
X180460611Y-90306565D01*
X180381385Y-90497834D01*
X180266363Y-90669976D01*
X180119976Y-90816363D01*
X179947834Y-90931385D01*
X179756565Y-91010611D01*
X179553516Y-91051000D01*
X179346484Y-91051000D01*
X179143435Y-91010611D01*
X178952166Y-90931385D01*
X178780024Y-90816363D01*
X178633637Y-90669976D01*
X178518615Y-90497834D01*
X178439389Y-90306565D01*
X178399000Y-90103516D01*
X178399000Y-89896484D01*
X178439389Y-89693435D01*
X178518615Y-89502166D01*
X178633637Y-89330024D01*
X178780024Y-89183637D01*
X178952166Y-89068615D01*
X179143435Y-88989389D01*
X179346484Y-88949000D01*
X179553516Y-88949000D01*
X179756565Y-88989389D01*
X179756565Y-88989389D01*
G37*
G36*
X93006565Y-88989389D02*
X93197834Y-89068615D01*
X93369976Y-89183637D01*
X93516363Y-89330024D01*
X93631385Y-89502166D01*
X93710611Y-89693435D01*
X93751000Y-89896484D01*
X93751000Y-90103516D01*
X93710611Y-90306565D01*
X93631385Y-90497834D01*
X93516363Y-90669976D01*
X93369976Y-90816363D01*
X93197834Y-90931385D01*
X93006565Y-91010611D01*
X92803516Y-91051000D01*
X92596484Y-91051000D01*
X92393435Y-91010611D01*
X92202166Y-90931385D01*
X92030024Y-90816363D01*
X91883637Y-90669976D01*
X91768615Y-90497834D01*
X91689389Y-90306565D01*
X91649000Y-90103516D01*
X91649000Y-89896484D01*
X91689389Y-89693435D01*
X91768615Y-89502166D01*
X91883637Y-89330024D01*
X92030024Y-89183637D01*
X92202166Y-89068615D01*
X92393435Y-88989389D01*
X92596484Y-88949000D01*
X92803516Y-88949000D01*
X93006565Y-88989389D01*
X93006565Y-88989389D01*
G37*
G36*
X101506565Y-88989389D02*
X101697834Y-89068615D01*
X101869976Y-89183637D01*
X102016363Y-89330024D01*
X102131385Y-89502166D01*
X102210611Y-89693435D01*
X102251000Y-89896484D01*
X102251000Y-90103516D01*
X102210611Y-90306565D01*
X102131385Y-90497834D01*
X102016363Y-90669976D01*
X101869976Y-90816363D01*
X101697834Y-90931385D01*
X101506565Y-91010611D01*
X101303516Y-91051000D01*
X101096484Y-91051000D01*
X100893435Y-91010611D01*
X100702166Y-90931385D01*
X100530024Y-90816363D01*
X100383637Y-90669976D01*
X100268615Y-90497834D01*
X100189389Y-90306565D01*
X100149000Y-90103516D01*
X100149000Y-89896484D01*
X100189389Y-89693435D01*
X100268615Y-89502166D01*
X100383637Y-89330024D01*
X100530024Y-89183637D01*
X100702166Y-89068615D01*
X100893435Y-88989389D01*
X101096484Y-88949000D01*
X101303516Y-88949000D01*
X101506565Y-88989389D01*
X101506565Y-88989389D01*
G37*
G36*
X171256565Y-88989389D02*
X171447834Y-89068615D01*
X171619976Y-89183637D01*
X171766363Y-89330024D01*
X171881385Y-89502166D01*
X171960611Y-89693435D01*
X172001000Y-89896484D01*
X172001000Y-90103516D01*
X171960611Y-90306565D01*
X171881385Y-90497834D01*
X171766363Y-90669976D01*
X171619976Y-90816363D01*
X171447834Y-90931385D01*
X171256565Y-91010611D01*
X171053516Y-91051000D01*
X170846484Y-91051000D01*
X170643435Y-91010611D01*
X170452166Y-90931385D01*
X170280024Y-90816363D01*
X170133637Y-90669976D01*
X170018615Y-90497834D01*
X169939389Y-90306565D01*
X169899000Y-90103516D01*
X169899000Y-89896484D01*
X169939389Y-89693435D01*
X170018615Y-89502166D01*
X170133637Y-89330024D01*
X170280024Y-89183637D01*
X170452166Y-89068615D01*
X170643435Y-88989389D01*
X170846484Y-88949000D01*
X171053516Y-88949000D01*
X171256565Y-88989389D01*
X171256565Y-88989389D01*
G37*
G36*
X179756565Y-84739389D02*
X179947834Y-84818615D01*
X180119976Y-84933637D01*
X180266363Y-85080024D01*
X180381385Y-85252166D01*
X180460611Y-85443435D01*
X180501000Y-85646484D01*
X180501000Y-85853516D01*
X180460611Y-86056565D01*
X180381385Y-86247834D01*
X180266363Y-86419976D01*
X180119976Y-86566363D01*
X179947834Y-86681385D01*
X179756565Y-86760611D01*
X179553516Y-86801000D01*
X179346484Y-86801000D01*
X179143435Y-86760611D01*
X178952166Y-86681385D01*
X178780024Y-86566363D01*
X178633637Y-86419976D01*
X178518615Y-86247834D01*
X178439389Y-86056565D01*
X178399000Y-85853516D01*
X178399000Y-85646484D01*
X178439389Y-85443435D01*
X178518615Y-85252166D01*
X178633637Y-85080024D01*
X178780024Y-84933637D01*
X178952166Y-84818615D01*
X179143435Y-84739389D01*
X179346484Y-84699000D01*
X179553516Y-84699000D01*
X179756565Y-84739389D01*
X179756565Y-84739389D01*
G37*
G36*
X93006565Y-84739389D02*
X93197834Y-84818615D01*
X93369976Y-84933637D01*
X93516363Y-85080024D01*
X93631385Y-85252166D01*
X93710611Y-85443435D01*
X93751000Y-85646484D01*
X93751000Y-85853516D01*
X93710611Y-86056565D01*
X93631385Y-86247834D01*
X93516363Y-86419976D01*
X93369976Y-86566363D01*
X93197834Y-86681385D01*
X93006565Y-86760611D01*
X92803516Y-86801000D01*
X92596484Y-86801000D01*
X92393435Y-86760611D01*
X92202166Y-86681385D01*
X92030024Y-86566363D01*
X91883637Y-86419976D01*
X91768615Y-86247834D01*
X91689389Y-86056565D01*
X91649000Y-85853516D01*
X91649000Y-85646484D01*
X91689389Y-85443435D01*
X91768615Y-85252166D01*
X91883637Y-85080024D01*
X92030024Y-84933637D01*
X92202166Y-84818615D01*
X92393435Y-84739389D01*
X92596484Y-84699000D01*
X92803516Y-84699000D01*
X93006565Y-84739389D01*
X93006565Y-84739389D01*
G37*
G36*
X101506565Y-84739389D02*
X101697834Y-84818615D01*
X101869976Y-84933637D01*
X102016363Y-85080024D01*
X102131385Y-85252166D01*
X102210611Y-85443435D01*
X102251000Y-85646484D01*
X102251000Y-85853516D01*
X102210611Y-86056565D01*
X102131385Y-86247834D01*
X102016363Y-86419976D01*
X101869976Y-86566363D01*
X101697834Y-86681385D01*
X101506565Y-86760611D01*
X101303516Y-86801000D01*
X101096484Y-86801000D01*
X100893435Y-86760611D01*
X100702166Y-86681385D01*
X100530024Y-86566363D01*
X100383637Y-86419976D01*
X100268615Y-86247834D01*
X100189389Y-86056565D01*
X100149000Y-85853516D01*
X100149000Y-85646484D01*
X100189389Y-85443435D01*
X100268615Y-85252166D01*
X100383637Y-85080024D01*
X100530024Y-84933637D01*
X100702166Y-84818615D01*
X100893435Y-84739389D01*
X101096484Y-84699000D01*
X101303516Y-84699000D01*
X101506565Y-84739389D01*
X101506565Y-84739389D01*
G37*
G36*
X171256565Y-84739389D02*
X171447834Y-84818615D01*
X171619976Y-84933637D01*
X171766363Y-85080024D01*
X171881385Y-85252166D01*
X171960611Y-85443435D01*
X172001000Y-85646484D01*
X172001000Y-85853516D01*
X171960611Y-86056565D01*
X171881385Y-86247834D01*
X171766363Y-86419976D01*
X171619976Y-86566363D01*
X171447834Y-86681385D01*
X171256565Y-86760611D01*
X171053516Y-86801000D01*
X170846484Y-86801000D01*
X170643435Y-86760611D01*
X170452166Y-86681385D01*
X170280024Y-86566363D01*
X170133637Y-86419976D01*
X170018615Y-86247834D01*
X169939389Y-86056565D01*
X169899000Y-85853516D01*
X169899000Y-85646484D01*
X169939389Y-85443435D01*
X170018615Y-85252166D01*
X170133637Y-85080024D01*
X170280024Y-84933637D01*
X170452166Y-84818615D01*
X170643435Y-84739389D01*
X170846484Y-84699000D01*
X171053516Y-84699000D01*
X171256565Y-84739389D01*
X171256565Y-84739389D01*
G37*
G36*
X160050443Y-73345519D02*
X160116627Y-73352037D01*
X160229853Y-73386384D01*
X160286467Y-73403557D01*
X160425087Y-73477652D01*
X160442991Y-73487222D01*
X160478729Y-73516552D01*
X160580186Y-73599814D01*
X160663448Y-73701271D01*
X160692778Y-73737009D01*
X160692779Y-73737011D01*
X160776443Y-73893533D01*
X160776443Y-73893534D01*
X160827963Y-74063373D01*
X160845359Y-74240000D01*
X160827963Y-74416627D01*
X160793616Y-74529853D01*
X160776443Y-74586467D01*
X160702348Y-74725087D01*
X160692778Y-74742991D01*
X160663448Y-74778729D01*
X160580186Y-74880186D01*
X160478729Y-74963448D01*
X160442991Y-74992778D01*
X160442989Y-74992779D01*
X160286467Y-75076443D01*
X160229853Y-75093616D01*
X160116627Y-75127963D01*
X160050443Y-75134481D01*
X159984260Y-75141000D01*
X159895740Y-75141000D01*
X159829557Y-75134481D01*
X159763373Y-75127963D01*
X159650147Y-75093616D01*
X159593533Y-75076443D01*
X159437011Y-74992779D01*
X159437009Y-74992778D01*
X159401271Y-74963448D01*
X159299814Y-74880186D01*
X159216552Y-74778729D01*
X159187222Y-74742991D01*
X159177652Y-74725087D01*
X159103557Y-74586467D01*
X159086384Y-74529853D01*
X159052037Y-74416627D01*
X159034641Y-74240000D01*
X159052037Y-74063373D01*
X159103557Y-73893534D01*
X159103557Y-73893533D01*
X159187221Y-73737011D01*
X159187222Y-73737009D01*
X159216552Y-73701271D01*
X159299814Y-73599814D01*
X159401271Y-73516552D01*
X159437009Y-73487222D01*
X159454913Y-73477652D01*
X159593533Y-73403557D01*
X159650147Y-73386384D01*
X159763373Y-73352037D01*
X159829557Y-73345519D01*
X159895740Y-73339000D01*
X159984260Y-73339000D01*
X160050443Y-73345519D01*
X160050443Y-73345519D01*
G37*
G36*
X162590443Y-73345519D02*
X162656627Y-73352037D01*
X162769853Y-73386384D01*
X162826467Y-73403557D01*
X162965087Y-73477652D01*
X162982991Y-73487222D01*
X163018729Y-73516552D01*
X163120186Y-73599814D01*
X163203448Y-73701271D01*
X163232778Y-73737009D01*
X163232779Y-73737011D01*
X163316443Y-73893533D01*
X163316443Y-73893534D01*
X163367963Y-74063373D01*
X163385359Y-74240000D01*
X163367963Y-74416627D01*
X163333616Y-74529853D01*
X163316443Y-74586467D01*
X163242348Y-74725087D01*
X163232778Y-74742991D01*
X163203448Y-74778729D01*
X163120186Y-74880186D01*
X163018729Y-74963448D01*
X162982991Y-74992778D01*
X162982989Y-74992779D01*
X162826467Y-75076443D01*
X162769853Y-75093616D01*
X162656627Y-75127963D01*
X162590443Y-75134481D01*
X162524260Y-75141000D01*
X162435740Y-75141000D01*
X162369557Y-75134481D01*
X162303373Y-75127963D01*
X162190147Y-75093616D01*
X162133533Y-75076443D01*
X161977011Y-74992779D01*
X161977009Y-74992778D01*
X161941271Y-74963448D01*
X161839814Y-74880186D01*
X161756552Y-74778729D01*
X161727222Y-74742991D01*
X161717652Y-74725087D01*
X161643557Y-74586467D01*
X161626384Y-74529853D01*
X161592037Y-74416627D01*
X161574641Y-74240000D01*
X161592037Y-74063373D01*
X161643557Y-73893534D01*
X161643557Y-73893533D01*
X161727221Y-73737011D01*
X161727222Y-73737009D01*
X161756552Y-73701271D01*
X161839814Y-73599814D01*
X161941271Y-73516552D01*
X161977009Y-73487222D01*
X161994913Y-73477652D01*
X162133533Y-73403557D01*
X162190147Y-73386384D01*
X162303373Y-73352037D01*
X162369557Y-73345519D01*
X162435740Y-73339000D01*
X162524260Y-73339000D01*
X162590443Y-73345519D01*
X162590443Y-73345519D01*
G37*
G36*
X157510443Y-73345519D02*
X157576627Y-73352037D01*
X157689853Y-73386384D01*
X157746467Y-73403557D01*
X157885087Y-73477652D01*
X157902991Y-73487222D01*
X157938729Y-73516552D01*
X158040186Y-73599814D01*
X158123448Y-73701271D01*
X158152778Y-73737009D01*
X158152779Y-73737011D01*
X158236443Y-73893533D01*
X158236443Y-73893534D01*
X158287963Y-74063373D01*
X158305359Y-74240000D01*
X158287963Y-74416627D01*
X158253616Y-74529853D01*
X158236443Y-74586467D01*
X158162348Y-74725087D01*
X158152778Y-74742991D01*
X158123448Y-74778729D01*
X158040186Y-74880186D01*
X157938729Y-74963448D01*
X157902991Y-74992778D01*
X157902989Y-74992779D01*
X157746467Y-75076443D01*
X157689853Y-75093616D01*
X157576627Y-75127963D01*
X157510443Y-75134481D01*
X157444260Y-75141000D01*
X157355740Y-75141000D01*
X157289557Y-75134481D01*
X157223373Y-75127963D01*
X157110147Y-75093616D01*
X157053533Y-75076443D01*
X156897011Y-74992779D01*
X156897009Y-74992778D01*
X156861271Y-74963448D01*
X156759814Y-74880186D01*
X156676552Y-74778729D01*
X156647222Y-74742991D01*
X156637652Y-74725087D01*
X156563557Y-74586467D01*
X156546384Y-74529853D01*
X156512037Y-74416627D01*
X156494641Y-74240000D01*
X156512037Y-74063373D01*
X156563557Y-73893534D01*
X156563557Y-73893533D01*
X156647221Y-73737011D01*
X156647222Y-73737009D01*
X156676552Y-73701271D01*
X156759814Y-73599814D01*
X156861271Y-73516552D01*
X156897009Y-73487222D01*
X156914913Y-73477652D01*
X157053533Y-73403557D01*
X157110147Y-73386384D01*
X157223373Y-73352037D01*
X157289557Y-73345519D01*
X157355740Y-73339000D01*
X157444260Y-73339000D01*
X157510443Y-73345519D01*
X157510443Y-73345519D01*
G37*
G36*
X154970443Y-73345519D02*
X155036627Y-73352037D01*
X155149853Y-73386384D01*
X155206467Y-73403557D01*
X155345087Y-73477652D01*
X155362991Y-73487222D01*
X155398729Y-73516552D01*
X155500186Y-73599814D01*
X155583448Y-73701271D01*
X155612778Y-73737009D01*
X155612779Y-73737011D01*
X155696443Y-73893533D01*
X155696443Y-73893534D01*
X155747963Y-74063373D01*
X155765359Y-74240000D01*
X155747963Y-74416627D01*
X155713616Y-74529853D01*
X155696443Y-74586467D01*
X155622348Y-74725087D01*
X155612778Y-74742991D01*
X155583448Y-74778729D01*
X155500186Y-74880186D01*
X155398729Y-74963448D01*
X155362991Y-74992778D01*
X155362989Y-74992779D01*
X155206467Y-75076443D01*
X155149853Y-75093616D01*
X155036627Y-75127963D01*
X154970443Y-75134481D01*
X154904260Y-75141000D01*
X154815740Y-75141000D01*
X154749557Y-75134481D01*
X154683373Y-75127963D01*
X154570147Y-75093616D01*
X154513533Y-75076443D01*
X154357011Y-74992779D01*
X154357009Y-74992778D01*
X154321271Y-74963448D01*
X154219814Y-74880186D01*
X154136552Y-74778729D01*
X154107222Y-74742991D01*
X154097652Y-74725087D01*
X154023557Y-74586467D01*
X154006384Y-74529853D01*
X153972037Y-74416627D01*
X153954641Y-74240000D01*
X153972037Y-74063373D01*
X154023557Y-73893534D01*
X154023557Y-73893533D01*
X154107221Y-73737011D01*
X154107222Y-73737009D01*
X154136552Y-73701271D01*
X154219814Y-73599814D01*
X154321271Y-73516552D01*
X154357009Y-73487222D01*
X154374913Y-73477652D01*
X154513533Y-73403557D01*
X154570147Y-73386384D01*
X154683373Y-73352037D01*
X154749557Y-73345519D01*
X154815740Y-73339000D01*
X154904260Y-73339000D01*
X154970443Y-73345519D01*
X154970443Y-73345519D01*
G37*
G36*
X167670443Y-73345519D02*
X167736627Y-73352037D01*
X167849853Y-73386384D01*
X167906467Y-73403557D01*
X168045087Y-73477652D01*
X168062991Y-73487222D01*
X168098729Y-73516552D01*
X168200186Y-73599814D01*
X168283448Y-73701271D01*
X168312778Y-73737009D01*
X168312779Y-73737011D01*
X168396443Y-73893533D01*
X168396443Y-73893534D01*
X168447963Y-74063373D01*
X168465359Y-74240000D01*
X168447963Y-74416627D01*
X168413616Y-74529853D01*
X168396443Y-74586467D01*
X168322348Y-74725087D01*
X168312778Y-74742991D01*
X168283448Y-74778729D01*
X168200186Y-74880186D01*
X168098729Y-74963448D01*
X168062991Y-74992778D01*
X168062989Y-74992779D01*
X167906467Y-75076443D01*
X167849853Y-75093616D01*
X167736627Y-75127963D01*
X167670443Y-75134481D01*
X167604260Y-75141000D01*
X167515740Y-75141000D01*
X167449557Y-75134481D01*
X167383373Y-75127963D01*
X167270147Y-75093616D01*
X167213533Y-75076443D01*
X167057011Y-74992779D01*
X167057009Y-74992778D01*
X167021271Y-74963448D01*
X166919814Y-74880186D01*
X166836552Y-74778729D01*
X166807222Y-74742991D01*
X166797652Y-74725087D01*
X166723557Y-74586467D01*
X166706384Y-74529853D01*
X166672037Y-74416627D01*
X166654641Y-74240000D01*
X166672037Y-74063373D01*
X166723557Y-73893534D01*
X166723557Y-73893533D01*
X166807221Y-73737011D01*
X166807222Y-73737009D01*
X166836552Y-73701271D01*
X166919814Y-73599814D01*
X167021271Y-73516552D01*
X167057009Y-73487222D01*
X167074913Y-73477652D01*
X167213533Y-73403557D01*
X167270147Y-73386384D01*
X167383373Y-73352037D01*
X167449557Y-73345519D01*
X167515740Y-73339000D01*
X167604260Y-73339000D01*
X167670443Y-73345519D01*
X167670443Y-73345519D01*
G37*
G36*
X121950443Y-73345519D02*
X122016627Y-73352037D01*
X122129853Y-73386384D01*
X122186467Y-73403557D01*
X122325087Y-73477652D01*
X122342991Y-73487222D01*
X122378729Y-73516552D01*
X122480186Y-73599814D01*
X122563448Y-73701271D01*
X122592778Y-73737009D01*
X122592779Y-73737011D01*
X122676443Y-73893533D01*
X122676443Y-73893534D01*
X122727963Y-74063373D01*
X122745359Y-74240000D01*
X122727963Y-74416627D01*
X122693616Y-74529853D01*
X122676443Y-74586467D01*
X122602348Y-74725087D01*
X122592778Y-74742991D01*
X122563448Y-74778729D01*
X122480186Y-74880186D01*
X122378729Y-74963448D01*
X122342991Y-74992778D01*
X122342989Y-74992779D01*
X122186467Y-75076443D01*
X122129853Y-75093616D01*
X122016627Y-75127963D01*
X121950443Y-75134481D01*
X121884260Y-75141000D01*
X121795740Y-75141000D01*
X121729557Y-75134481D01*
X121663373Y-75127963D01*
X121550147Y-75093616D01*
X121493533Y-75076443D01*
X121337011Y-74992779D01*
X121337009Y-74992778D01*
X121301271Y-74963448D01*
X121199814Y-74880186D01*
X121116552Y-74778729D01*
X121087222Y-74742991D01*
X121077652Y-74725087D01*
X121003557Y-74586467D01*
X120986384Y-74529853D01*
X120952037Y-74416627D01*
X120934641Y-74240000D01*
X120952037Y-74063373D01*
X121003557Y-73893534D01*
X121003557Y-73893533D01*
X121087221Y-73737011D01*
X121087222Y-73737009D01*
X121116552Y-73701271D01*
X121199814Y-73599814D01*
X121301271Y-73516552D01*
X121337009Y-73487222D01*
X121354913Y-73477652D01*
X121493533Y-73403557D01*
X121550147Y-73386384D01*
X121663373Y-73352037D01*
X121729557Y-73345519D01*
X121795740Y-73339000D01*
X121884260Y-73339000D01*
X121950443Y-73345519D01*
X121950443Y-73345519D01*
G37*
G36*
X170210443Y-73345519D02*
X170276627Y-73352037D01*
X170389853Y-73386384D01*
X170446467Y-73403557D01*
X170585087Y-73477652D01*
X170602991Y-73487222D01*
X170638729Y-73516552D01*
X170740186Y-73599814D01*
X170823448Y-73701271D01*
X170852778Y-73737009D01*
X170852779Y-73737011D01*
X170936443Y-73893533D01*
X170936443Y-73893534D01*
X170987963Y-74063373D01*
X171005359Y-74240000D01*
X170987963Y-74416627D01*
X170953616Y-74529853D01*
X170936443Y-74586467D01*
X170862348Y-74725087D01*
X170852778Y-74742991D01*
X170823448Y-74778729D01*
X170740186Y-74880186D01*
X170638729Y-74963448D01*
X170602991Y-74992778D01*
X170602989Y-74992779D01*
X170446467Y-75076443D01*
X170389853Y-75093616D01*
X170276627Y-75127963D01*
X170210443Y-75134481D01*
X170144260Y-75141000D01*
X170055740Y-75141000D01*
X169989557Y-75134481D01*
X169923373Y-75127963D01*
X169810147Y-75093616D01*
X169753533Y-75076443D01*
X169597011Y-74992779D01*
X169597009Y-74992778D01*
X169561271Y-74963448D01*
X169459814Y-74880186D01*
X169376552Y-74778729D01*
X169347222Y-74742991D01*
X169337652Y-74725087D01*
X169263557Y-74586467D01*
X169246384Y-74529853D01*
X169212037Y-74416627D01*
X169194641Y-74240000D01*
X169212037Y-74063373D01*
X169263557Y-73893534D01*
X169263557Y-73893533D01*
X169347221Y-73737011D01*
X169347222Y-73737009D01*
X169376552Y-73701271D01*
X169459814Y-73599814D01*
X169561271Y-73516552D01*
X169597009Y-73487222D01*
X169614913Y-73477652D01*
X169753533Y-73403557D01*
X169810147Y-73386384D01*
X169923373Y-73352037D01*
X169989557Y-73345519D01*
X170055740Y-73339000D01*
X170144260Y-73339000D01*
X170210443Y-73345519D01*
X170210443Y-73345519D01*
G37*
G36*
X152430443Y-73345519D02*
X152496627Y-73352037D01*
X152609853Y-73386384D01*
X152666467Y-73403557D01*
X152805087Y-73477652D01*
X152822991Y-73487222D01*
X152858729Y-73516552D01*
X152960186Y-73599814D01*
X153043448Y-73701271D01*
X153072778Y-73737009D01*
X153072779Y-73737011D01*
X153156443Y-73893533D01*
X153156443Y-73893534D01*
X153207963Y-74063373D01*
X153225359Y-74240000D01*
X153207963Y-74416627D01*
X153173616Y-74529853D01*
X153156443Y-74586467D01*
X153082348Y-74725087D01*
X153072778Y-74742991D01*
X153043448Y-74778729D01*
X152960186Y-74880186D01*
X152858729Y-74963448D01*
X152822991Y-74992778D01*
X152822989Y-74992779D01*
X152666467Y-75076443D01*
X152609853Y-75093616D01*
X152496627Y-75127963D01*
X152430443Y-75134481D01*
X152364260Y-75141000D01*
X152275740Y-75141000D01*
X152209557Y-75134481D01*
X152143373Y-75127963D01*
X152030147Y-75093616D01*
X151973533Y-75076443D01*
X151817011Y-74992779D01*
X151817009Y-74992778D01*
X151781271Y-74963448D01*
X151679814Y-74880186D01*
X151596552Y-74778729D01*
X151567222Y-74742991D01*
X151557652Y-74725087D01*
X151483557Y-74586467D01*
X151466384Y-74529853D01*
X151432037Y-74416627D01*
X151414641Y-74240000D01*
X151432037Y-74063373D01*
X151483557Y-73893534D01*
X151483557Y-73893533D01*
X151567221Y-73737011D01*
X151567222Y-73737009D01*
X151596552Y-73701271D01*
X151679814Y-73599814D01*
X151781271Y-73516552D01*
X151817009Y-73487222D01*
X151834913Y-73477652D01*
X151973533Y-73403557D01*
X152030147Y-73386384D01*
X152143373Y-73352037D01*
X152209557Y-73345519D01*
X152275740Y-73339000D01*
X152364260Y-73339000D01*
X152430443Y-73345519D01*
X152430443Y-73345519D01*
G37*
G36*
X165130443Y-73345519D02*
X165196627Y-73352037D01*
X165309853Y-73386384D01*
X165366467Y-73403557D01*
X165505087Y-73477652D01*
X165522991Y-73487222D01*
X165558729Y-73516552D01*
X165660186Y-73599814D01*
X165743448Y-73701271D01*
X165772778Y-73737009D01*
X165772779Y-73737011D01*
X165856443Y-73893533D01*
X165856443Y-73893534D01*
X165907963Y-74063373D01*
X165925359Y-74240000D01*
X165907963Y-74416627D01*
X165873616Y-74529853D01*
X165856443Y-74586467D01*
X165782348Y-74725087D01*
X165772778Y-74742991D01*
X165743448Y-74778729D01*
X165660186Y-74880186D01*
X165558729Y-74963448D01*
X165522991Y-74992778D01*
X165522989Y-74992779D01*
X165366467Y-75076443D01*
X165309853Y-75093616D01*
X165196627Y-75127963D01*
X165130443Y-75134481D01*
X165064260Y-75141000D01*
X164975740Y-75141000D01*
X164909557Y-75134481D01*
X164843373Y-75127963D01*
X164730147Y-75093616D01*
X164673533Y-75076443D01*
X164517011Y-74992779D01*
X164517009Y-74992778D01*
X164481271Y-74963448D01*
X164379814Y-74880186D01*
X164296552Y-74778729D01*
X164267222Y-74742991D01*
X164257652Y-74725087D01*
X164183557Y-74586467D01*
X164166384Y-74529853D01*
X164132037Y-74416627D01*
X164114641Y-74240000D01*
X164132037Y-74063373D01*
X164183557Y-73893534D01*
X164183557Y-73893533D01*
X164267221Y-73737011D01*
X164267222Y-73737009D01*
X164296552Y-73701271D01*
X164379814Y-73599814D01*
X164481271Y-73516552D01*
X164517009Y-73487222D01*
X164534913Y-73477652D01*
X164673533Y-73403557D01*
X164730147Y-73386384D01*
X164843373Y-73352037D01*
X164909557Y-73345519D01*
X164975740Y-73339000D01*
X165064260Y-73339000D01*
X165130443Y-73345519D01*
X165130443Y-73345519D01*
G37*
G36*
X147350443Y-73345519D02*
X147416627Y-73352037D01*
X147529853Y-73386384D01*
X147586467Y-73403557D01*
X147725087Y-73477652D01*
X147742991Y-73487222D01*
X147778729Y-73516552D01*
X147880186Y-73599814D01*
X147963448Y-73701271D01*
X147992778Y-73737009D01*
X147992779Y-73737011D01*
X148076443Y-73893533D01*
X148076443Y-73893534D01*
X148127963Y-74063373D01*
X148145359Y-74240000D01*
X148127963Y-74416627D01*
X148093616Y-74529853D01*
X148076443Y-74586467D01*
X148002348Y-74725087D01*
X147992778Y-74742991D01*
X147963448Y-74778729D01*
X147880186Y-74880186D01*
X147778729Y-74963448D01*
X147742991Y-74992778D01*
X147742989Y-74992779D01*
X147586467Y-75076443D01*
X147529853Y-75093616D01*
X147416627Y-75127963D01*
X147350443Y-75134481D01*
X147284260Y-75141000D01*
X147195740Y-75141000D01*
X147129557Y-75134481D01*
X147063373Y-75127963D01*
X146950147Y-75093616D01*
X146893533Y-75076443D01*
X146737011Y-74992779D01*
X146737009Y-74992778D01*
X146701271Y-74963448D01*
X146599814Y-74880186D01*
X146516552Y-74778729D01*
X146487222Y-74742991D01*
X146477652Y-74725087D01*
X146403557Y-74586467D01*
X146386384Y-74529853D01*
X146352037Y-74416627D01*
X146334641Y-74240000D01*
X146352037Y-74063373D01*
X146403557Y-73893534D01*
X146403557Y-73893533D01*
X146487221Y-73737011D01*
X146487222Y-73737009D01*
X146516552Y-73701271D01*
X146599814Y-73599814D01*
X146701271Y-73516552D01*
X146737009Y-73487222D01*
X146754913Y-73477652D01*
X146893533Y-73403557D01*
X146950147Y-73386384D01*
X147063373Y-73352037D01*
X147129557Y-73345519D01*
X147195740Y-73339000D01*
X147284260Y-73339000D01*
X147350443Y-73345519D01*
X147350443Y-73345519D01*
G37*
G36*
X142270443Y-73345519D02*
X142336627Y-73352037D01*
X142449853Y-73386384D01*
X142506467Y-73403557D01*
X142645087Y-73477652D01*
X142662991Y-73487222D01*
X142698729Y-73516552D01*
X142800186Y-73599814D01*
X142883448Y-73701271D01*
X142912778Y-73737009D01*
X142912779Y-73737011D01*
X142996443Y-73893533D01*
X142996443Y-73893534D01*
X143047963Y-74063373D01*
X143065359Y-74240000D01*
X143047963Y-74416627D01*
X143013616Y-74529853D01*
X142996443Y-74586467D01*
X142922348Y-74725087D01*
X142912778Y-74742991D01*
X142883448Y-74778729D01*
X142800186Y-74880186D01*
X142698729Y-74963448D01*
X142662991Y-74992778D01*
X142662989Y-74992779D01*
X142506467Y-75076443D01*
X142449853Y-75093616D01*
X142336627Y-75127963D01*
X142270443Y-75134481D01*
X142204260Y-75141000D01*
X142115740Y-75141000D01*
X142049557Y-75134481D01*
X141983373Y-75127963D01*
X141870147Y-75093616D01*
X141813533Y-75076443D01*
X141657011Y-74992779D01*
X141657009Y-74992778D01*
X141621271Y-74963448D01*
X141519814Y-74880186D01*
X141436552Y-74778729D01*
X141407222Y-74742991D01*
X141397652Y-74725087D01*
X141323557Y-74586467D01*
X141306384Y-74529853D01*
X141272037Y-74416627D01*
X141254641Y-74240000D01*
X141272037Y-74063373D01*
X141323557Y-73893534D01*
X141323557Y-73893533D01*
X141407221Y-73737011D01*
X141407222Y-73737009D01*
X141436552Y-73701271D01*
X141519814Y-73599814D01*
X141621271Y-73516552D01*
X141657009Y-73487222D01*
X141674913Y-73477652D01*
X141813533Y-73403557D01*
X141870147Y-73386384D01*
X141983373Y-73352037D01*
X142049557Y-73345519D01*
X142115740Y-73339000D01*
X142204260Y-73339000D01*
X142270443Y-73345519D01*
X142270443Y-73345519D01*
G37*
G36*
X139730443Y-73345519D02*
X139796627Y-73352037D01*
X139909853Y-73386384D01*
X139966467Y-73403557D01*
X140105087Y-73477652D01*
X140122991Y-73487222D01*
X140158729Y-73516552D01*
X140260186Y-73599814D01*
X140343448Y-73701271D01*
X140372778Y-73737009D01*
X140372779Y-73737011D01*
X140456443Y-73893533D01*
X140456443Y-73893534D01*
X140507963Y-74063373D01*
X140525359Y-74240000D01*
X140507963Y-74416627D01*
X140473616Y-74529853D01*
X140456443Y-74586467D01*
X140382348Y-74725087D01*
X140372778Y-74742991D01*
X140343448Y-74778729D01*
X140260186Y-74880186D01*
X140158729Y-74963448D01*
X140122991Y-74992778D01*
X140122989Y-74992779D01*
X139966467Y-75076443D01*
X139909853Y-75093616D01*
X139796627Y-75127963D01*
X139730443Y-75134481D01*
X139664260Y-75141000D01*
X139575740Y-75141000D01*
X139509557Y-75134481D01*
X139443373Y-75127963D01*
X139330147Y-75093616D01*
X139273533Y-75076443D01*
X139117011Y-74992779D01*
X139117009Y-74992778D01*
X139081271Y-74963448D01*
X138979814Y-74880186D01*
X138896552Y-74778729D01*
X138867222Y-74742991D01*
X138857652Y-74725087D01*
X138783557Y-74586467D01*
X138766384Y-74529853D01*
X138732037Y-74416627D01*
X138714641Y-74240000D01*
X138732037Y-74063373D01*
X138783557Y-73893534D01*
X138783557Y-73893533D01*
X138867221Y-73737011D01*
X138867222Y-73737009D01*
X138896552Y-73701271D01*
X138979814Y-73599814D01*
X139081271Y-73516552D01*
X139117009Y-73487222D01*
X139134913Y-73477652D01*
X139273533Y-73403557D01*
X139330147Y-73386384D01*
X139443373Y-73352037D01*
X139509557Y-73345519D01*
X139575740Y-73339000D01*
X139664260Y-73339000D01*
X139730443Y-73345519D01*
X139730443Y-73345519D01*
G37*
G36*
X137190443Y-73345519D02*
X137256627Y-73352037D01*
X137369853Y-73386384D01*
X137426467Y-73403557D01*
X137565087Y-73477652D01*
X137582991Y-73487222D01*
X137618729Y-73516552D01*
X137720186Y-73599814D01*
X137803448Y-73701271D01*
X137832778Y-73737009D01*
X137832779Y-73737011D01*
X137916443Y-73893533D01*
X137916443Y-73893534D01*
X137967963Y-74063373D01*
X137985359Y-74240000D01*
X137967963Y-74416627D01*
X137933616Y-74529853D01*
X137916443Y-74586467D01*
X137842348Y-74725087D01*
X137832778Y-74742991D01*
X137803448Y-74778729D01*
X137720186Y-74880186D01*
X137618729Y-74963448D01*
X137582991Y-74992778D01*
X137582989Y-74992779D01*
X137426467Y-75076443D01*
X137369853Y-75093616D01*
X137256627Y-75127963D01*
X137190443Y-75134481D01*
X137124260Y-75141000D01*
X137035740Y-75141000D01*
X136969557Y-75134481D01*
X136903373Y-75127963D01*
X136790147Y-75093616D01*
X136733533Y-75076443D01*
X136577011Y-74992779D01*
X136577009Y-74992778D01*
X136541271Y-74963448D01*
X136439814Y-74880186D01*
X136356552Y-74778729D01*
X136327222Y-74742991D01*
X136317652Y-74725087D01*
X136243557Y-74586467D01*
X136226384Y-74529853D01*
X136192037Y-74416627D01*
X136174641Y-74240000D01*
X136192037Y-74063373D01*
X136243557Y-73893534D01*
X136243557Y-73893533D01*
X136327221Y-73737011D01*
X136327222Y-73737009D01*
X136356552Y-73701271D01*
X136439814Y-73599814D01*
X136541271Y-73516552D01*
X136577009Y-73487222D01*
X136594913Y-73477652D01*
X136733533Y-73403557D01*
X136790147Y-73386384D01*
X136903373Y-73352037D01*
X136969557Y-73345519D01*
X137035740Y-73339000D01*
X137124260Y-73339000D01*
X137190443Y-73345519D01*
X137190443Y-73345519D01*
G37*
G36*
X134650443Y-73345519D02*
X134716627Y-73352037D01*
X134829853Y-73386384D01*
X134886467Y-73403557D01*
X135025087Y-73477652D01*
X135042991Y-73487222D01*
X135078729Y-73516552D01*
X135180186Y-73599814D01*
X135263448Y-73701271D01*
X135292778Y-73737009D01*
X135292779Y-73737011D01*
X135376443Y-73893533D01*
X135376443Y-73893534D01*
X135427963Y-74063373D01*
X135445359Y-74240000D01*
X135427963Y-74416627D01*
X135393616Y-74529853D01*
X135376443Y-74586467D01*
X135302348Y-74725087D01*
X135292778Y-74742991D01*
X135263448Y-74778729D01*
X135180186Y-74880186D01*
X135078729Y-74963448D01*
X135042991Y-74992778D01*
X135042989Y-74992779D01*
X134886467Y-75076443D01*
X134829853Y-75093616D01*
X134716627Y-75127963D01*
X134650443Y-75134481D01*
X134584260Y-75141000D01*
X134495740Y-75141000D01*
X134429557Y-75134481D01*
X134363373Y-75127963D01*
X134250147Y-75093616D01*
X134193533Y-75076443D01*
X134037011Y-74992779D01*
X134037009Y-74992778D01*
X134001271Y-74963448D01*
X133899814Y-74880186D01*
X133816552Y-74778729D01*
X133787222Y-74742991D01*
X133777652Y-74725087D01*
X133703557Y-74586467D01*
X133686384Y-74529853D01*
X133652037Y-74416627D01*
X133634641Y-74240000D01*
X133652037Y-74063373D01*
X133703557Y-73893534D01*
X133703557Y-73893533D01*
X133787221Y-73737011D01*
X133787222Y-73737009D01*
X133816552Y-73701271D01*
X133899814Y-73599814D01*
X134001271Y-73516552D01*
X134037009Y-73487222D01*
X134054913Y-73477652D01*
X134193533Y-73403557D01*
X134250147Y-73386384D01*
X134363373Y-73352037D01*
X134429557Y-73345519D01*
X134495740Y-73339000D01*
X134584260Y-73339000D01*
X134650443Y-73345519D01*
X134650443Y-73345519D01*
G37*
G36*
X132110443Y-73345519D02*
X132176627Y-73352037D01*
X132289853Y-73386384D01*
X132346467Y-73403557D01*
X132485087Y-73477652D01*
X132502991Y-73487222D01*
X132538729Y-73516552D01*
X132640186Y-73599814D01*
X132723448Y-73701271D01*
X132752778Y-73737009D01*
X132752779Y-73737011D01*
X132836443Y-73893533D01*
X132836443Y-73893534D01*
X132887963Y-74063373D01*
X132905359Y-74240000D01*
X132887963Y-74416627D01*
X132853616Y-74529853D01*
X132836443Y-74586467D01*
X132762348Y-74725087D01*
X132752778Y-74742991D01*
X132723448Y-74778729D01*
X132640186Y-74880186D01*
X132538729Y-74963448D01*
X132502991Y-74992778D01*
X132502989Y-74992779D01*
X132346467Y-75076443D01*
X132289853Y-75093616D01*
X132176627Y-75127963D01*
X132110443Y-75134481D01*
X132044260Y-75141000D01*
X131955740Y-75141000D01*
X131889557Y-75134481D01*
X131823373Y-75127963D01*
X131710147Y-75093616D01*
X131653533Y-75076443D01*
X131497011Y-74992779D01*
X131497009Y-74992778D01*
X131461271Y-74963448D01*
X131359814Y-74880186D01*
X131276552Y-74778729D01*
X131247222Y-74742991D01*
X131237652Y-74725087D01*
X131163557Y-74586467D01*
X131146384Y-74529853D01*
X131112037Y-74416627D01*
X131094641Y-74240000D01*
X131112037Y-74063373D01*
X131163557Y-73893534D01*
X131163557Y-73893533D01*
X131247221Y-73737011D01*
X131247222Y-73737009D01*
X131276552Y-73701271D01*
X131359814Y-73599814D01*
X131461271Y-73516552D01*
X131497009Y-73487222D01*
X131514913Y-73477652D01*
X131653533Y-73403557D01*
X131710147Y-73386384D01*
X131823373Y-73352037D01*
X131889557Y-73345519D01*
X131955740Y-73339000D01*
X132044260Y-73339000D01*
X132110443Y-73345519D01*
X132110443Y-73345519D01*
G37*
G36*
X129570443Y-73345519D02*
X129636627Y-73352037D01*
X129749853Y-73386384D01*
X129806467Y-73403557D01*
X129945087Y-73477652D01*
X129962991Y-73487222D01*
X129998729Y-73516552D01*
X130100186Y-73599814D01*
X130183448Y-73701271D01*
X130212778Y-73737009D01*
X130212779Y-73737011D01*
X130296443Y-73893533D01*
X130296443Y-73893534D01*
X130347963Y-74063373D01*
X130365359Y-74240000D01*
X130347963Y-74416627D01*
X130313616Y-74529853D01*
X130296443Y-74586467D01*
X130222348Y-74725087D01*
X130212778Y-74742991D01*
X130183448Y-74778729D01*
X130100186Y-74880186D01*
X129998729Y-74963448D01*
X129962991Y-74992778D01*
X129962989Y-74992779D01*
X129806467Y-75076443D01*
X129749853Y-75093616D01*
X129636627Y-75127963D01*
X129570443Y-75134481D01*
X129504260Y-75141000D01*
X129415740Y-75141000D01*
X129349557Y-75134481D01*
X129283373Y-75127963D01*
X129170147Y-75093616D01*
X129113533Y-75076443D01*
X128957011Y-74992779D01*
X128957009Y-74992778D01*
X128921271Y-74963448D01*
X128819814Y-74880186D01*
X128736552Y-74778729D01*
X128707222Y-74742991D01*
X128697652Y-74725087D01*
X128623557Y-74586467D01*
X128606384Y-74529853D01*
X128572037Y-74416627D01*
X128554641Y-74240000D01*
X128572037Y-74063373D01*
X128623557Y-73893534D01*
X128623557Y-73893533D01*
X128707221Y-73737011D01*
X128707222Y-73737009D01*
X128736552Y-73701271D01*
X128819814Y-73599814D01*
X128921271Y-73516552D01*
X128957009Y-73487222D01*
X128974913Y-73477652D01*
X129113533Y-73403557D01*
X129170147Y-73386384D01*
X129283373Y-73352037D01*
X129349557Y-73345519D01*
X129415740Y-73339000D01*
X129504260Y-73339000D01*
X129570443Y-73345519D01*
X129570443Y-73345519D01*
G37*
G36*
X127030443Y-73345519D02*
X127096627Y-73352037D01*
X127209853Y-73386384D01*
X127266467Y-73403557D01*
X127405087Y-73477652D01*
X127422991Y-73487222D01*
X127458729Y-73516552D01*
X127560186Y-73599814D01*
X127643448Y-73701271D01*
X127672778Y-73737009D01*
X127672779Y-73737011D01*
X127756443Y-73893533D01*
X127756443Y-73893534D01*
X127807963Y-74063373D01*
X127825359Y-74240000D01*
X127807963Y-74416627D01*
X127773616Y-74529853D01*
X127756443Y-74586467D01*
X127682348Y-74725087D01*
X127672778Y-74742991D01*
X127643448Y-74778729D01*
X127560186Y-74880186D01*
X127458729Y-74963448D01*
X127422991Y-74992778D01*
X127422989Y-74992779D01*
X127266467Y-75076443D01*
X127209853Y-75093616D01*
X127096627Y-75127963D01*
X127030443Y-75134481D01*
X126964260Y-75141000D01*
X126875740Y-75141000D01*
X126809557Y-75134481D01*
X126743373Y-75127963D01*
X126630147Y-75093616D01*
X126573533Y-75076443D01*
X126417011Y-74992779D01*
X126417009Y-74992778D01*
X126381271Y-74963448D01*
X126279814Y-74880186D01*
X126196552Y-74778729D01*
X126167222Y-74742991D01*
X126157652Y-74725087D01*
X126083557Y-74586467D01*
X126066384Y-74529853D01*
X126032037Y-74416627D01*
X126014641Y-74240000D01*
X126032037Y-74063373D01*
X126083557Y-73893534D01*
X126083557Y-73893533D01*
X126167221Y-73737011D01*
X126167222Y-73737009D01*
X126196552Y-73701271D01*
X126279814Y-73599814D01*
X126381271Y-73516552D01*
X126417009Y-73487222D01*
X126434913Y-73477652D01*
X126573533Y-73403557D01*
X126630147Y-73386384D01*
X126743373Y-73352037D01*
X126809557Y-73345519D01*
X126875740Y-73339000D01*
X126964260Y-73339000D01*
X127030443Y-73345519D01*
X127030443Y-73345519D01*
G37*
G36*
X124490443Y-73345519D02*
X124556627Y-73352037D01*
X124669853Y-73386384D01*
X124726467Y-73403557D01*
X124865087Y-73477652D01*
X124882991Y-73487222D01*
X124918729Y-73516552D01*
X125020186Y-73599814D01*
X125103448Y-73701271D01*
X125132778Y-73737009D01*
X125132779Y-73737011D01*
X125216443Y-73893533D01*
X125216443Y-73893534D01*
X125267963Y-74063373D01*
X125285359Y-74240000D01*
X125267963Y-74416627D01*
X125233616Y-74529853D01*
X125216443Y-74586467D01*
X125142348Y-74725087D01*
X125132778Y-74742991D01*
X125103448Y-74778729D01*
X125020186Y-74880186D01*
X124918729Y-74963448D01*
X124882991Y-74992778D01*
X124882989Y-74992779D01*
X124726467Y-75076443D01*
X124669853Y-75093616D01*
X124556627Y-75127963D01*
X124490443Y-75134481D01*
X124424260Y-75141000D01*
X124335740Y-75141000D01*
X124269557Y-75134481D01*
X124203373Y-75127963D01*
X124090147Y-75093616D01*
X124033533Y-75076443D01*
X123877011Y-74992779D01*
X123877009Y-74992778D01*
X123841271Y-74963448D01*
X123739814Y-74880186D01*
X123656552Y-74778729D01*
X123627222Y-74742991D01*
X123617652Y-74725087D01*
X123543557Y-74586467D01*
X123526384Y-74529853D01*
X123492037Y-74416627D01*
X123474641Y-74240000D01*
X123492037Y-74063373D01*
X123543557Y-73893534D01*
X123543557Y-73893533D01*
X123627221Y-73737011D01*
X123627222Y-73737009D01*
X123656552Y-73701271D01*
X123739814Y-73599814D01*
X123841271Y-73516552D01*
X123877009Y-73487222D01*
X123894913Y-73477652D01*
X124033533Y-73403557D01*
X124090147Y-73386384D01*
X124203373Y-73352037D01*
X124269557Y-73345519D01*
X124335740Y-73339000D01*
X124424260Y-73339000D01*
X124490443Y-73345519D01*
X124490443Y-73345519D01*
G37*
G36*
X149890443Y-73345519D02*
X149956627Y-73352037D01*
X150069853Y-73386384D01*
X150126467Y-73403557D01*
X150265087Y-73477652D01*
X150282991Y-73487222D01*
X150318729Y-73516552D01*
X150420186Y-73599814D01*
X150503448Y-73701271D01*
X150532778Y-73737009D01*
X150532779Y-73737011D01*
X150616443Y-73893533D01*
X150616443Y-73893534D01*
X150667963Y-74063373D01*
X150685359Y-74240000D01*
X150667963Y-74416627D01*
X150633616Y-74529853D01*
X150616443Y-74586467D01*
X150542348Y-74725087D01*
X150532778Y-74742991D01*
X150503448Y-74778729D01*
X150420186Y-74880186D01*
X150318729Y-74963448D01*
X150282991Y-74992778D01*
X150282989Y-74992779D01*
X150126467Y-75076443D01*
X150069853Y-75093616D01*
X149956627Y-75127963D01*
X149890443Y-75134481D01*
X149824260Y-75141000D01*
X149735740Y-75141000D01*
X149669557Y-75134481D01*
X149603373Y-75127963D01*
X149490147Y-75093616D01*
X149433533Y-75076443D01*
X149277011Y-74992779D01*
X149277009Y-74992778D01*
X149241271Y-74963448D01*
X149139814Y-74880186D01*
X149056552Y-74778729D01*
X149027222Y-74742991D01*
X149017652Y-74725087D01*
X148943557Y-74586467D01*
X148926384Y-74529853D01*
X148892037Y-74416627D01*
X148874641Y-74240000D01*
X148892037Y-74063373D01*
X148943557Y-73893534D01*
X148943557Y-73893533D01*
X149027221Y-73737011D01*
X149027222Y-73737009D01*
X149056552Y-73701271D01*
X149139814Y-73599814D01*
X149241271Y-73516552D01*
X149277009Y-73487222D01*
X149294913Y-73477652D01*
X149433533Y-73403557D01*
X149490147Y-73386384D01*
X149603373Y-73352037D01*
X149669557Y-73345519D01*
X149735740Y-73339000D01*
X149824260Y-73339000D01*
X149890443Y-73345519D01*
X149890443Y-73345519D01*
G37*
G36*
X144810443Y-73345519D02*
X144876627Y-73352037D01*
X144989853Y-73386384D01*
X145046467Y-73403557D01*
X145185087Y-73477652D01*
X145202991Y-73487222D01*
X145238729Y-73516552D01*
X145340186Y-73599814D01*
X145423448Y-73701271D01*
X145452778Y-73737009D01*
X145452779Y-73737011D01*
X145536443Y-73893533D01*
X145536443Y-73893534D01*
X145587963Y-74063373D01*
X145605359Y-74240000D01*
X145587963Y-74416627D01*
X145553616Y-74529853D01*
X145536443Y-74586467D01*
X145462348Y-74725087D01*
X145452778Y-74742991D01*
X145423448Y-74778729D01*
X145340186Y-74880186D01*
X145238729Y-74963448D01*
X145202991Y-74992778D01*
X145202989Y-74992779D01*
X145046467Y-75076443D01*
X144989853Y-75093616D01*
X144876627Y-75127963D01*
X144810443Y-75134481D01*
X144744260Y-75141000D01*
X144655740Y-75141000D01*
X144589557Y-75134481D01*
X144523373Y-75127963D01*
X144410147Y-75093616D01*
X144353533Y-75076443D01*
X144197011Y-74992779D01*
X144197009Y-74992778D01*
X144161271Y-74963448D01*
X144059814Y-74880186D01*
X143976552Y-74778729D01*
X143947222Y-74742991D01*
X143937652Y-74725087D01*
X143863557Y-74586467D01*
X143846384Y-74529853D01*
X143812037Y-74416627D01*
X143794641Y-74240000D01*
X143812037Y-74063373D01*
X143863557Y-73893534D01*
X143863557Y-73893533D01*
X143947221Y-73737011D01*
X143947222Y-73737009D01*
X143976552Y-73701271D01*
X144059814Y-73599814D01*
X144161271Y-73516552D01*
X144197009Y-73487222D01*
X144214913Y-73477652D01*
X144353533Y-73403557D01*
X144410147Y-73386384D01*
X144523373Y-73352037D01*
X144589557Y-73345519D01*
X144655740Y-73339000D01*
X144744260Y-73339000D01*
X144810443Y-73345519D01*
X144810443Y-73345519D01*
G37*
G36*
X117318433Y-71634893D02*
X117408657Y-71652839D01*
X117514267Y-71696585D01*
X117663621Y-71758449D01*
X117893089Y-71911774D01*
X118088226Y-72106911D01*
X118241551Y-72336379D01*
X118347161Y-72591344D01*
X118401000Y-72862012D01*
X118401000Y-73137988D01*
X118347161Y-73408656D01*
X118241551Y-73663621D01*
X118088226Y-73893089D01*
X117893089Y-74088226D01*
X117663621Y-74241551D01*
X117514267Y-74303415D01*
X117408657Y-74347161D01*
X117318433Y-74365107D01*
X117137988Y-74401000D01*
X116862012Y-74401000D01*
X116681567Y-74365107D01*
X116591343Y-74347161D01*
X116485733Y-74303415D01*
X116336379Y-74241551D01*
X116106911Y-74088226D01*
X115911774Y-73893089D01*
X115758449Y-73663621D01*
X115652839Y-73408656D01*
X115599000Y-73137988D01*
X115599000Y-72862012D01*
X115652839Y-72591344D01*
X115758449Y-72336379D01*
X115911774Y-72106911D01*
X116106911Y-71911774D01*
X116336379Y-71758449D01*
X116485733Y-71696585D01*
X116591343Y-71652839D01*
X116681567Y-71634893D01*
X116862012Y-71599000D01*
X117137988Y-71599000D01*
X117318433Y-71634893D01*
X117318433Y-71634893D01*
G37*
G36*
X97068433Y-71634893D02*
X97158657Y-71652839D01*
X97264267Y-71696585D01*
X97413621Y-71758449D01*
X97643089Y-71911774D01*
X97838226Y-72106911D01*
X97991551Y-72336379D01*
X98097161Y-72591344D01*
X98151000Y-72862012D01*
X98151000Y-73137988D01*
X98097161Y-73408656D01*
X97991551Y-73663621D01*
X97838226Y-73893089D01*
X97643089Y-74088226D01*
X97413621Y-74241551D01*
X97264267Y-74303415D01*
X97158657Y-74347161D01*
X97068433Y-74365107D01*
X96887988Y-74401000D01*
X96612012Y-74401000D01*
X96431567Y-74365107D01*
X96341343Y-74347161D01*
X96235733Y-74303415D01*
X96086379Y-74241551D01*
X95856911Y-74088226D01*
X95661774Y-73893089D01*
X95508449Y-73663621D01*
X95402839Y-73408656D01*
X95349000Y-73137988D01*
X95349000Y-72862012D01*
X95402839Y-72591344D01*
X95508449Y-72336379D01*
X95661774Y-72106911D01*
X95856911Y-71911774D01*
X96086379Y-71758449D01*
X96235733Y-71696585D01*
X96341343Y-71652839D01*
X96431567Y-71634893D01*
X96612012Y-71599000D01*
X96887988Y-71599000D01*
X97068433Y-71634893D01*
X97068433Y-71634893D01*
G37*
G36*
X175318433Y-71634893D02*
X175408657Y-71652839D01*
X175514267Y-71696585D01*
X175663621Y-71758449D01*
X175893089Y-71911774D01*
X176088226Y-72106911D01*
X176241551Y-72336379D01*
X176347161Y-72591344D01*
X176401000Y-72862012D01*
X176401000Y-73137988D01*
X176347161Y-73408656D01*
X176241551Y-73663621D01*
X176088226Y-73893089D01*
X175893089Y-74088226D01*
X175663621Y-74241551D01*
X175514267Y-74303415D01*
X175408657Y-74347161D01*
X175318433Y-74365107D01*
X175137988Y-74401000D01*
X174862012Y-74401000D01*
X174681567Y-74365107D01*
X174591343Y-74347161D01*
X174485733Y-74303415D01*
X174336379Y-74241551D01*
X174106911Y-74088226D01*
X173911774Y-73893089D01*
X173758449Y-73663621D01*
X173652839Y-73408656D01*
X173599000Y-73137988D01*
X173599000Y-72862012D01*
X173652839Y-72591344D01*
X173758449Y-72336379D01*
X173911774Y-72106911D01*
X174106911Y-71911774D01*
X174336379Y-71758449D01*
X174485733Y-71696585D01*
X174591343Y-71652839D01*
X174681567Y-71634893D01*
X174862012Y-71599000D01*
X175137988Y-71599000D01*
X175318433Y-71634893D01*
X175318433Y-71634893D01*
G37*
G36*
X154970443Y-70805519D02*
X155036627Y-70812037D01*
X155149853Y-70846384D01*
X155206467Y-70863557D01*
X155345087Y-70937652D01*
X155362991Y-70947222D01*
X155398729Y-70976552D01*
X155500186Y-71059814D01*
X155583448Y-71161271D01*
X155612778Y-71197009D01*
X155612779Y-71197011D01*
X155696443Y-71353533D01*
X155696443Y-71353534D01*
X155747963Y-71523373D01*
X155765359Y-71700000D01*
X155747963Y-71876627D01*
X155737301Y-71911774D01*
X155696443Y-72046467D01*
X155664133Y-72106914D01*
X155612778Y-72202991D01*
X155583448Y-72238729D01*
X155500186Y-72340186D01*
X155398729Y-72423448D01*
X155362991Y-72452778D01*
X155362989Y-72452779D01*
X155206467Y-72536443D01*
X155149853Y-72553616D01*
X155036627Y-72587963D01*
X154970442Y-72594482D01*
X154904260Y-72601000D01*
X154815740Y-72601000D01*
X154749558Y-72594482D01*
X154683373Y-72587963D01*
X154570147Y-72553616D01*
X154513533Y-72536443D01*
X154357011Y-72452779D01*
X154357009Y-72452778D01*
X154321271Y-72423448D01*
X154219814Y-72340186D01*
X154136552Y-72238729D01*
X154107222Y-72202991D01*
X154055867Y-72106914D01*
X154023557Y-72046467D01*
X153982699Y-71911774D01*
X153972037Y-71876627D01*
X153954641Y-71700000D01*
X153972037Y-71523373D01*
X154023557Y-71353534D01*
X154023557Y-71353533D01*
X154107221Y-71197011D01*
X154107222Y-71197009D01*
X154136552Y-71161271D01*
X154219814Y-71059814D01*
X154321271Y-70976552D01*
X154357009Y-70947222D01*
X154374913Y-70937652D01*
X154513533Y-70863557D01*
X154570147Y-70846384D01*
X154683373Y-70812037D01*
X154749557Y-70805519D01*
X154815740Y-70799000D01*
X154904260Y-70799000D01*
X154970443Y-70805519D01*
X154970443Y-70805519D01*
G37*
G36*
X121950443Y-70805519D02*
X122016627Y-70812037D01*
X122129853Y-70846384D01*
X122186467Y-70863557D01*
X122325087Y-70937652D01*
X122342991Y-70947222D01*
X122378729Y-70976552D01*
X122480186Y-71059814D01*
X122563448Y-71161271D01*
X122592778Y-71197009D01*
X122592779Y-71197011D01*
X122676443Y-71353533D01*
X122676443Y-71353534D01*
X122727963Y-71523373D01*
X122745359Y-71700000D01*
X122727963Y-71876627D01*
X122717301Y-71911774D01*
X122676443Y-72046467D01*
X122644133Y-72106914D01*
X122592778Y-72202991D01*
X122563448Y-72238729D01*
X122480186Y-72340186D01*
X122378729Y-72423448D01*
X122342991Y-72452778D01*
X122342989Y-72452779D01*
X122186467Y-72536443D01*
X122129853Y-72553616D01*
X122016627Y-72587963D01*
X121950442Y-72594482D01*
X121884260Y-72601000D01*
X121795740Y-72601000D01*
X121729558Y-72594482D01*
X121663373Y-72587963D01*
X121550147Y-72553616D01*
X121493533Y-72536443D01*
X121337011Y-72452779D01*
X121337009Y-72452778D01*
X121301271Y-72423448D01*
X121199814Y-72340186D01*
X121116552Y-72238729D01*
X121087222Y-72202991D01*
X121035867Y-72106914D01*
X121003557Y-72046467D01*
X120962699Y-71911774D01*
X120952037Y-71876627D01*
X120934641Y-71700000D01*
X120952037Y-71523373D01*
X121003557Y-71353534D01*
X121003557Y-71353533D01*
X121087221Y-71197011D01*
X121087222Y-71197009D01*
X121116552Y-71161271D01*
X121199814Y-71059814D01*
X121301271Y-70976552D01*
X121337009Y-70947222D01*
X121354913Y-70937652D01*
X121493533Y-70863557D01*
X121550147Y-70846384D01*
X121663373Y-70812037D01*
X121729557Y-70805519D01*
X121795740Y-70799000D01*
X121884260Y-70799000D01*
X121950443Y-70805519D01*
X121950443Y-70805519D01*
G37*
G36*
X127030443Y-70805519D02*
X127096627Y-70812037D01*
X127209853Y-70846384D01*
X127266467Y-70863557D01*
X127405087Y-70937652D01*
X127422991Y-70947222D01*
X127458729Y-70976552D01*
X127560186Y-71059814D01*
X127643448Y-71161271D01*
X127672778Y-71197009D01*
X127672779Y-71197011D01*
X127756443Y-71353533D01*
X127756443Y-71353534D01*
X127807963Y-71523373D01*
X127825359Y-71700000D01*
X127807963Y-71876627D01*
X127797301Y-71911774D01*
X127756443Y-72046467D01*
X127724133Y-72106914D01*
X127672778Y-72202991D01*
X127643448Y-72238729D01*
X127560186Y-72340186D01*
X127458729Y-72423448D01*
X127422991Y-72452778D01*
X127422989Y-72452779D01*
X127266467Y-72536443D01*
X127209853Y-72553616D01*
X127096627Y-72587963D01*
X127030442Y-72594482D01*
X126964260Y-72601000D01*
X126875740Y-72601000D01*
X126809558Y-72594482D01*
X126743373Y-72587963D01*
X126630147Y-72553616D01*
X126573533Y-72536443D01*
X126417011Y-72452779D01*
X126417009Y-72452778D01*
X126381271Y-72423448D01*
X126279814Y-72340186D01*
X126196552Y-72238729D01*
X126167222Y-72202991D01*
X126115867Y-72106914D01*
X126083557Y-72046467D01*
X126042699Y-71911774D01*
X126032037Y-71876627D01*
X126014641Y-71700000D01*
X126032037Y-71523373D01*
X126083557Y-71353534D01*
X126083557Y-71353533D01*
X126167221Y-71197011D01*
X126167222Y-71197009D01*
X126196552Y-71161271D01*
X126279814Y-71059814D01*
X126381271Y-70976552D01*
X126417009Y-70947222D01*
X126434913Y-70937652D01*
X126573533Y-70863557D01*
X126630147Y-70846384D01*
X126743373Y-70812037D01*
X126809557Y-70805519D01*
X126875740Y-70799000D01*
X126964260Y-70799000D01*
X127030443Y-70805519D01*
X127030443Y-70805519D01*
G37*
G36*
X129570443Y-70805519D02*
X129636627Y-70812037D01*
X129749853Y-70846384D01*
X129806467Y-70863557D01*
X129945087Y-70937652D01*
X129962991Y-70947222D01*
X129998729Y-70976552D01*
X130100186Y-71059814D01*
X130183448Y-71161271D01*
X130212778Y-71197009D01*
X130212779Y-71197011D01*
X130296443Y-71353533D01*
X130296443Y-71353534D01*
X130347963Y-71523373D01*
X130365359Y-71700000D01*
X130347963Y-71876627D01*
X130337301Y-71911774D01*
X130296443Y-72046467D01*
X130264133Y-72106914D01*
X130212778Y-72202991D01*
X130183448Y-72238729D01*
X130100186Y-72340186D01*
X129998729Y-72423448D01*
X129962991Y-72452778D01*
X129962989Y-72452779D01*
X129806467Y-72536443D01*
X129749853Y-72553616D01*
X129636627Y-72587963D01*
X129570442Y-72594482D01*
X129504260Y-72601000D01*
X129415740Y-72601000D01*
X129349558Y-72594482D01*
X129283373Y-72587963D01*
X129170147Y-72553616D01*
X129113533Y-72536443D01*
X128957011Y-72452779D01*
X128957009Y-72452778D01*
X128921271Y-72423448D01*
X128819814Y-72340186D01*
X128736552Y-72238729D01*
X128707222Y-72202991D01*
X128655867Y-72106914D01*
X128623557Y-72046467D01*
X128582699Y-71911774D01*
X128572037Y-71876627D01*
X128554641Y-71700000D01*
X128572037Y-71523373D01*
X128623557Y-71353534D01*
X128623557Y-71353533D01*
X128707221Y-71197011D01*
X128707222Y-71197009D01*
X128736552Y-71161271D01*
X128819814Y-71059814D01*
X128921271Y-70976552D01*
X128957009Y-70947222D01*
X128974913Y-70937652D01*
X129113533Y-70863557D01*
X129170147Y-70846384D01*
X129283373Y-70812037D01*
X129349557Y-70805519D01*
X129415740Y-70799000D01*
X129504260Y-70799000D01*
X129570443Y-70805519D01*
X129570443Y-70805519D01*
G37*
G36*
X132110443Y-70805519D02*
X132176627Y-70812037D01*
X132289853Y-70846384D01*
X132346467Y-70863557D01*
X132485087Y-70937652D01*
X132502991Y-70947222D01*
X132538729Y-70976552D01*
X132640186Y-71059814D01*
X132723448Y-71161271D01*
X132752778Y-71197009D01*
X132752779Y-71197011D01*
X132836443Y-71353533D01*
X132836443Y-71353534D01*
X132887963Y-71523373D01*
X132905359Y-71700000D01*
X132887963Y-71876627D01*
X132877301Y-71911774D01*
X132836443Y-72046467D01*
X132804133Y-72106914D01*
X132752778Y-72202991D01*
X132723448Y-72238729D01*
X132640186Y-72340186D01*
X132538729Y-72423448D01*
X132502991Y-72452778D01*
X132502989Y-72452779D01*
X132346467Y-72536443D01*
X132289853Y-72553616D01*
X132176627Y-72587963D01*
X132110442Y-72594482D01*
X132044260Y-72601000D01*
X131955740Y-72601000D01*
X131889558Y-72594482D01*
X131823373Y-72587963D01*
X131710147Y-72553616D01*
X131653533Y-72536443D01*
X131497011Y-72452779D01*
X131497009Y-72452778D01*
X131461271Y-72423448D01*
X131359814Y-72340186D01*
X131276552Y-72238729D01*
X131247222Y-72202991D01*
X131195867Y-72106914D01*
X131163557Y-72046467D01*
X131122699Y-71911774D01*
X131112037Y-71876627D01*
X131094641Y-71700000D01*
X131112037Y-71523373D01*
X131163557Y-71353534D01*
X131163557Y-71353533D01*
X131247221Y-71197011D01*
X131247222Y-71197009D01*
X131276552Y-71161271D01*
X131359814Y-71059814D01*
X131461271Y-70976552D01*
X131497009Y-70947222D01*
X131514913Y-70937652D01*
X131653533Y-70863557D01*
X131710147Y-70846384D01*
X131823373Y-70812037D01*
X131889557Y-70805519D01*
X131955740Y-70799000D01*
X132044260Y-70799000D01*
X132110443Y-70805519D01*
X132110443Y-70805519D01*
G37*
G36*
X134650443Y-70805519D02*
X134716627Y-70812037D01*
X134829853Y-70846384D01*
X134886467Y-70863557D01*
X135025087Y-70937652D01*
X135042991Y-70947222D01*
X135078729Y-70976552D01*
X135180186Y-71059814D01*
X135263448Y-71161271D01*
X135292778Y-71197009D01*
X135292779Y-71197011D01*
X135376443Y-71353533D01*
X135376443Y-71353534D01*
X135427963Y-71523373D01*
X135445359Y-71700000D01*
X135427963Y-71876627D01*
X135417301Y-71911774D01*
X135376443Y-72046467D01*
X135344133Y-72106914D01*
X135292778Y-72202991D01*
X135263448Y-72238729D01*
X135180186Y-72340186D01*
X135078729Y-72423448D01*
X135042991Y-72452778D01*
X135042989Y-72452779D01*
X134886467Y-72536443D01*
X134829853Y-72553616D01*
X134716627Y-72587963D01*
X134650442Y-72594482D01*
X134584260Y-72601000D01*
X134495740Y-72601000D01*
X134429558Y-72594482D01*
X134363373Y-72587963D01*
X134250147Y-72553616D01*
X134193533Y-72536443D01*
X134037011Y-72452779D01*
X134037009Y-72452778D01*
X134001271Y-72423448D01*
X133899814Y-72340186D01*
X133816552Y-72238729D01*
X133787222Y-72202991D01*
X133735867Y-72106914D01*
X133703557Y-72046467D01*
X133662699Y-71911774D01*
X133652037Y-71876627D01*
X133634641Y-71700000D01*
X133652037Y-71523373D01*
X133703557Y-71353534D01*
X133703557Y-71353533D01*
X133787221Y-71197011D01*
X133787222Y-71197009D01*
X133816552Y-71161271D01*
X133899814Y-71059814D01*
X134001271Y-70976552D01*
X134037009Y-70947222D01*
X134054913Y-70937652D01*
X134193533Y-70863557D01*
X134250147Y-70846384D01*
X134363373Y-70812037D01*
X134429557Y-70805519D01*
X134495740Y-70799000D01*
X134584260Y-70799000D01*
X134650443Y-70805519D01*
X134650443Y-70805519D01*
G37*
G36*
X137190443Y-70805519D02*
X137256627Y-70812037D01*
X137369853Y-70846384D01*
X137426467Y-70863557D01*
X137565087Y-70937652D01*
X137582991Y-70947222D01*
X137618729Y-70976552D01*
X137720186Y-71059814D01*
X137803448Y-71161271D01*
X137832778Y-71197009D01*
X137832779Y-71197011D01*
X137916443Y-71353533D01*
X137916443Y-71353534D01*
X137967963Y-71523373D01*
X137985359Y-71700000D01*
X137967963Y-71876627D01*
X137957301Y-71911774D01*
X137916443Y-72046467D01*
X137884133Y-72106914D01*
X137832778Y-72202991D01*
X137803448Y-72238729D01*
X137720186Y-72340186D01*
X137618729Y-72423448D01*
X137582991Y-72452778D01*
X137582989Y-72452779D01*
X137426467Y-72536443D01*
X137369853Y-72553616D01*
X137256627Y-72587963D01*
X137190442Y-72594482D01*
X137124260Y-72601000D01*
X137035740Y-72601000D01*
X136969558Y-72594482D01*
X136903373Y-72587963D01*
X136790147Y-72553616D01*
X136733533Y-72536443D01*
X136577011Y-72452779D01*
X136577009Y-72452778D01*
X136541271Y-72423448D01*
X136439814Y-72340186D01*
X136356552Y-72238729D01*
X136327222Y-72202991D01*
X136275867Y-72106914D01*
X136243557Y-72046467D01*
X136202699Y-71911774D01*
X136192037Y-71876627D01*
X136174641Y-71700000D01*
X136192037Y-71523373D01*
X136243557Y-71353534D01*
X136243557Y-71353533D01*
X136327221Y-71197011D01*
X136327222Y-71197009D01*
X136356552Y-71161271D01*
X136439814Y-71059814D01*
X136541271Y-70976552D01*
X136577009Y-70947222D01*
X136594913Y-70937652D01*
X136733533Y-70863557D01*
X136790147Y-70846384D01*
X136903373Y-70812037D01*
X136969557Y-70805519D01*
X137035740Y-70799000D01*
X137124260Y-70799000D01*
X137190443Y-70805519D01*
X137190443Y-70805519D01*
G37*
G36*
X139730443Y-70805519D02*
X139796627Y-70812037D01*
X139909853Y-70846384D01*
X139966467Y-70863557D01*
X140105087Y-70937652D01*
X140122991Y-70947222D01*
X140158729Y-70976552D01*
X140260186Y-71059814D01*
X140343448Y-71161271D01*
X140372778Y-71197009D01*
X140372779Y-71197011D01*
X140456443Y-71353533D01*
X140456443Y-71353534D01*
X140507963Y-71523373D01*
X140525359Y-71700000D01*
X140507963Y-71876627D01*
X140497301Y-71911774D01*
X140456443Y-72046467D01*
X140424133Y-72106914D01*
X140372778Y-72202991D01*
X140343448Y-72238729D01*
X140260186Y-72340186D01*
X140158729Y-72423448D01*
X140122991Y-72452778D01*
X140122989Y-72452779D01*
X139966467Y-72536443D01*
X139909853Y-72553616D01*
X139796627Y-72587963D01*
X139730442Y-72594482D01*
X139664260Y-72601000D01*
X139575740Y-72601000D01*
X139509558Y-72594482D01*
X139443373Y-72587963D01*
X139330147Y-72553616D01*
X139273533Y-72536443D01*
X139117011Y-72452779D01*
X139117009Y-72452778D01*
X139081271Y-72423448D01*
X138979814Y-72340186D01*
X138896552Y-72238729D01*
X138867222Y-72202991D01*
X138815867Y-72106914D01*
X138783557Y-72046467D01*
X138742699Y-71911774D01*
X138732037Y-71876627D01*
X138714641Y-71700000D01*
X138732037Y-71523373D01*
X138783557Y-71353534D01*
X138783557Y-71353533D01*
X138867221Y-71197011D01*
X138867222Y-71197009D01*
X138896552Y-71161271D01*
X138979814Y-71059814D01*
X139081271Y-70976552D01*
X139117009Y-70947222D01*
X139134913Y-70937652D01*
X139273533Y-70863557D01*
X139330147Y-70846384D01*
X139443373Y-70812037D01*
X139509557Y-70805519D01*
X139575740Y-70799000D01*
X139664260Y-70799000D01*
X139730443Y-70805519D01*
X139730443Y-70805519D01*
G37*
G36*
X142270443Y-70805519D02*
X142336627Y-70812037D01*
X142449853Y-70846384D01*
X142506467Y-70863557D01*
X142645087Y-70937652D01*
X142662991Y-70947222D01*
X142698729Y-70976552D01*
X142800186Y-71059814D01*
X142883448Y-71161271D01*
X142912778Y-71197009D01*
X142912779Y-71197011D01*
X142996443Y-71353533D01*
X142996443Y-71353534D01*
X143047963Y-71523373D01*
X143065359Y-71700000D01*
X143047963Y-71876627D01*
X143037301Y-71911774D01*
X142996443Y-72046467D01*
X142964133Y-72106914D01*
X142912778Y-72202991D01*
X142883448Y-72238729D01*
X142800186Y-72340186D01*
X142698729Y-72423448D01*
X142662991Y-72452778D01*
X142662989Y-72452779D01*
X142506467Y-72536443D01*
X142449853Y-72553616D01*
X142336627Y-72587963D01*
X142270442Y-72594482D01*
X142204260Y-72601000D01*
X142115740Y-72601000D01*
X142049558Y-72594482D01*
X141983373Y-72587963D01*
X141870147Y-72553616D01*
X141813533Y-72536443D01*
X141657011Y-72452779D01*
X141657009Y-72452778D01*
X141621271Y-72423448D01*
X141519814Y-72340186D01*
X141436552Y-72238729D01*
X141407222Y-72202991D01*
X141355867Y-72106914D01*
X141323557Y-72046467D01*
X141282699Y-71911774D01*
X141272037Y-71876627D01*
X141254641Y-71700000D01*
X141272037Y-71523373D01*
X141323557Y-71353534D01*
X141323557Y-71353533D01*
X141407221Y-71197011D01*
X141407222Y-71197009D01*
X141436552Y-71161271D01*
X141519814Y-71059814D01*
X141621271Y-70976552D01*
X141657009Y-70947222D01*
X141674913Y-70937652D01*
X141813533Y-70863557D01*
X141870147Y-70846384D01*
X141983373Y-70812037D01*
X142049557Y-70805519D01*
X142115740Y-70799000D01*
X142204260Y-70799000D01*
X142270443Y-70805519D01*
X142270443Y-70805519D01*
G37*
G36*
X144810443Y-70805519D02*
X144876627Y-70812037D01*
X144989853Y-70846384D01*
X145046467Y-70863557D01*
X145185087Y-70937652D01*
X145202991Y-70947222D01*
X145238729Y-70976552D01*
X145340186Y-71059814D01*
X145423448Y-71161271D01*
X145452778Y-71197009D01*
X145452779Y-71197011D01*
X145536443Y-71353533D01*
X145536443Y-71353534D01*
X145587963Y-71523373D01*
X145605359Y-71700000D01*
X145587963Y-71876627D01*
X145577301Y-71911774D01*
X145536443Y-72046467D01*
X145504133Y-72106914D01*
X145452778Y-72202991D01*
X145423448Y-72238729D01*
X145340186Y-72340186D01*
X145238729Y-72423448D01*
X145202991Y-72452778D01*
X145202989Y-72452779D01*
X145046467Y-72536443D01*
X144989853Y-72553616D01*
X144876627Y-72587963D01*
X144810442Y-72594482D01*
X144744260Y-72601000D01*
X144655740Y-72601000D01*
X144589558Y-72594482D01*
X144523373Y-72587963D01*
X144410147Y-72553616D01*
X144353533Y-72536443D01*
X144197011Y-72452779D01*
X144197009Y-72452778D01*
X144161271Y-72423448D01*
X144059814Y-72340186D01*
X143976552Y-72238729D01*
X143947222Y-72202991D01*
X143895867Y-72106914D01*
X143863557Y-72046467D01*
X143822699Y-71911774D01*
X143812037Y-71876627D01*
X143794641Y-71700000D01*
X143812037Y-71523373D01*
X143863557Y-71353534D01*
X143863557Y-71353533D01*
X143947221Y-71197011D01*
X143947222Y-71197009D01*
X143976552Y-71161271D01*
X144059814Y-71059814D01*
X144161271Y-70976552D01*
X144197009Y-70947222D01*
X144214913Y-70937652D01*
X144353533Y-70863557D01*
X144410147Y-70846384D01*
X144523373Y-70812037D01*
X144589557Y-70805519D01*
X144655740Y-70799000D01*
X144744260Y-70799000D01*
X144810443Y-70805519D01*
X144810443Y-70805519D01*
G37*
G36*
X149890443Y-70805519D02*
X149956627Y-70812037D01*
X150069853Y-70846384D01*
X150126467Y-70863557D01*
X150265087Y-70937652D01*
X150282991Y-70947222D01*
X150318729Y-70976552D01*
X150420186Y-71059814D01*
X150503448Y-71161271D01*
X150532778Y-71197009D01*
X150532779Y-71197011D01*
X150616443Y-71353533D01*
X150616443Y-71353534D01*
X150667963Y-71523373D01*
X150685359Y-71700000D01*
X150667963Y-71876627D01*
X150657301Y-71911774D01*
X150616443Y-72046467D01*
X150584133Y-72106914D01*
X150532778Y-72202991D01*
X150503448Y-72238729D01*
X150420186Y-72340186D01*
X150318729Y-72423448D01*
X150282991Y-72452778D01*
X150282989Y-72452779D01*
X150126467Y-72536443D01*
X150069853Y-72553616D01*
X149956627Y-72587963D01*
X149890442Y-72594482D01*
X149824260Y-72601000D01*
X149735740Y-72601000D01*
X149669558Y-72594482D01*
X149603373Y-72587963D01*
X149490147Y-72553616D01*
X149433533Y-72536443D01*
X149277011Y-72452779D01*
X149277009Y-72452778D01*
X149241271Y-72423448D01*
X149139814Y-72340186D01*
X149056552Y-72238729D01*
X149027222Y-72202991D01*
X148975867Y-72106914D01*
X148943557Y-72046467D01*
X148902699Y-71911774D01*
X148892037Y-71876627D01*
X148874641Y-71700000D01*
X148892037Y-71523373D01*
X148943557Y-71353534D01*
X148943557Y-71353533D01*
X149027221Y-71197011D01*
X149027222Y-71197009D01*
X149056552Y-71161271D01*
X149139814Y-71059814D01*
X149241271Y-70976552D01*
X149277009Y-70947222D01*
X149294913Y-70937652D01*
X149433533Y-70863557D01*
X149490147Y-70846384D01*
X149603373Y-70812037D01*
X149669557Y-70805519D01*
X149735740Y-70799000D01*
X149824260Y-70799000D01*
X149890443Y-70805519D01*
X149890443Y-70805519D01*
G37*
G36*
X124490443Y-70805519D02*
X124556627Y-70812037D01*
X124669853Y-70846384D01*
X124726467Y-70863557D01*
X124865087Y-70937652D01*
X124882991Y-70947222D01*
X124918729Y-70976552D01*
X125020186Y-71059814D01*
X125103448Y-71161271D01*
X125132778Y-71197009D01*
X125132779Y-71197011D01*
X125216443Y-71353533D01*
X125216443Y-71353534D01*
X125267963Y-71523373D01*
X125285359Y-71700000D01*
X125267963Y-71876627D01*
X125257301Y-71911774D01*
X125216443Y-72046467D01*
X125184133Y-72106914D01*
X125132778Y-72202991D01*
X125103448Y-72238729D01*
X125020186Y-72340186D01*
X124918729Y-72423448D01*
X124882991Y-72452778D01*
X124882989Y-72452779D01*
X124726467Y-72536443D01*
X124669853Y-72553616D01*
X124556627Y-72587963D01*
X124490442Y-72594482D01*
X124424260Y-72601000D01*
X124335740Y-72601000D01*
X124269558Y-72594482D01*
X124203373Y-72587963D01*
X124090147Y-72553616D01*
X124033533Y-72536443D01*
X123877011Y-72452779D01*
X123877009Y-72452778D01*
X123841271Y-72423448D01*
X123739814Y-72340186D01*
X123656552Y-72238729D01*
X123627222Y-72202991D01*
X123575867Y-72106914D01*
X123543557Y-72046467D01*
X123502699Y-71911774D01*
X123492037Y-71876627D01*
X123474641Y-71700000D01*
X123492037Y-71523373D01*
X123543557Y-71353534D01*
X123543557Y-71353533D01*
X123627221Y-71197011D01*
X123627222Y-71197009D01*
X123656552Y-71161271D01*
X123739814Y-71059814D01*
X123841271Y-70976552D01*
X123877009Y-70947222D01*
X123894913Y-70937652D01*
X124033533Y-70863557D01*
X124090147Y-70846384D01*
X124203373Y-70812037D01*
X124269557Y-70805519D01*
X124335740Y-70799000D01*
X124424260Y-70799000D01*
X124490443Y-70805519D01*
X124490443Y-70805519D01*
G37*
G36*
X160050443Y-70805519D02*
X160116627Y-70812037D01*
X160229853Y-70846384D01*
X160286467Y-70863557D01*
X160425087Y-70937652D01*
X160442991Y-70947222D01*
X160478729Y-70976552D01*
X160580186Y-71059814D01*
X160663448Y-71161271D01*
X160692778Y-71197009D01*
X160692779Y-71197011D01*
X160776443Y-71353533D01*
X160776443Y-71353534D01*
X160827963Y-71523373D01*
X160845359Y-71700000D01*
X160827963Y-71876627D01*
X160817301Y-71911774D01*
X160776443Y-72046467D01*
X160744133Y-72106914D01*
X160692778Y-72202991D01*
X160663448Y-72238729D01*
X160580186Y-72340186D01*
X160478729Y-72423448D01*
X160442991Y-72452778D01*
X160442989Y-72452779D01*
X160286467Y-72536443D01*
X160229853Y-72553616D01*
X160116627Y-72587963D01*
X160050442Y-72594482D01*
X159984260Y-72601000D01*
X159895740Y-72601000D01*
X159829558Y-72594482D01*
X159763373Y-72587963D01*
X159650147Y-72553616D01*
X159593533Y-72536443D01*
X159437011Y-72452779D01*
X159437009Y-72452778D01*
X159401271Y-72423448D01*
X159299814Y-72340186D01*
X159216552Y-72238729D01*
X159187222Y-72202991D01*
X159135867Y-72106914D01*
X159103557Y-72046467D01*
X159062699Y-71911774D01*
X159052037Y-71876627D01*
X159034641Y-71700000D01*
X159052037Y-71523373D01*
X159103557Y-71353534D01*
X159103557Y-71353533D01*
X159187221Y-71197011D01*
X159187222Y-71197009D01*
X159216552Y-71161271D01*
X159299814Y-71059814D01*
X159401271Y-70976552D01*
X159437009Y-70947222D01*
X159454913Y-70937652D01*
X159593533Y-70863557D01*
X159650147Y-70846384D01*
X159763373Y-70812037D01*
X159829557Y-70805519D01*
X159895740Y-70799000D01*
X159984260Y-70799000D01*
X160050443Y-70805519D01*
X160050443Y-70805519D01*
G37*
G36*
X162590443Y-70805519D02*
X162656627Y-70812037D01*
X162769853Y-70846384D01*
X162826467Y-70863557D01*
X162965087Y-70937652D01*
X162982991Y-70947222D01*
X163018729Y-70976552D01*
X163120186Y-71059814D01*
X163203448Y-71161271D01*
X163232778Y-71197009D01*
X163232779Y-71197011D01*
X163316443Y-71353533D01*
X163316443Y-71353534D01*
X163367963Y-71523373D01*
X163385359Y-71700000D01*
X163367963Y-71876627D01*
X163357301Y-71911774D01*
X163316443Y-72046467D01*
X163284133Y-72106914D01*
X163232778Y-72202991D01*
X163203448Y-72238729D01*
X163120186Y-72340186D01*
X163018729Y-72423448D01*
X162982991Y-72452778D01*
X162982989Y-72452779D01*
X162826467Y-72536443D01*
X162769853Y-72553616D01*
X162656627Y-72587963D01*
X162590442Y-72594482D01*
X162524260Y-72601000D01*
X162435740Y-72601000D01*
X162369558Y-72594482D01*
X162303373Y-72587963D01*
X162190147Y-72553616D01*
X162133533Y-72536443D01*
X161977011Y-72452779D01*
X161977009Y-72452778D01*
X161941271Y-72423448D01*
X161839814Y-72340186D01*
X161756552Y-72238729D01*
X161727222Y-72202991D01*
X161675867Y-72106914D01*
X161643557Y-72046467D01*
X161602699Y-71911774D01*
X161592037Y-71876627D01*
X161574641Y-71700000D01*
X161592037Y-71523373D01*
X161643557Y-71353534D01*
X161643557Y-71353533D01*
X161727221Y-71197011D01*
X161727222Y-71197009D01*
X161756552Y-71161271D01*
X161839814Y-71059814D01*
X161941271Y-70976552D01*
X161977009Y-70947222D01*
X161994913Y-70937652D01*
X162133533Y-70863557D01*
X162190147Y-70846384D01*
X162303373Y-70812037D01*
X162369557Y-70805519D01*
X162435740Y-70799000D01*
X162524260Y-70799000D01*
X162590443Y-70805519D01*
X162590443Y-70805519D01*
G37*
G36*
X165130443Y-70805519D02*
X165196627Y-70812037D01*
X165309853Y-70846384D01*
X165366467Y-70863557D01*
X165505087Y-70937652D01*
X165522991Y-70947222D01*
X165558729Y-70976552D01*
X165660186Y-71059814D01*
X165743448Y-71161271D01*
X165772778Y-71197009D01*
X165772779Y-71197011D01*
X165856443Y-71353533D01*
X165856443Y-71353534D01*
X165907963Y-71523373D01*
X165925359Y-71700000D01*
X165907963Y-71876627D01*
X165897301Y-71911774D01*
X165856443Y-72046467D01*
X165824133Y-72106914D01*
X165772778Y-72202991D01*
X165743448Y-72238729D01*
X165660186Y-72340186D01*
X165558729Y-72423448D01*
X165522991Y-72452778D01*
X165522989Y-72452779D01*
X165366467Y-72536443D01*
X165309853Y-72553616D01*
X165196627Y-72587963D01*
X165130442Y-72594482D01*
X165064260Y-72601000D01*
X164975740Y-72601000D01*
X164909558Y-72594482D01*
X164843373Y-72587963D01*
X164730147Y-72553616D01*
X164673533Y-72536443D01*
X164517011Y-72452779D01*
X164517009Y-72452778D01*
X164481271Y-72423448D01*
X164379814Y-72340186D01*
X164296552Y-72238729D01*
X164267222Y-72202991D01*
X164215867Y-72106914D01*
X164183557Y-72046467D01*
X164142699Y-71911774D01*
X164132037Y-71876627D01*
X164114641Y-71700000D01*
X164132037Y-71523373D01*
X164183557Y-71353534D01*
X164183557Y-71353533D01*
X164267221Y-71197011D01*
X164267222Y-71197009D01*
X164296552Y-71161271D01*
X164379814Y-71059814D01*
X164481271Y-70976552D01*
X164517009Y-70947222D01*
X164534913Y-70937652D01*
X164673533Y-70863557D01*
X164730147Y-70846384D01*
X164843373Y-70812037D01*
X164909557Y-70805519D01*
X164975740Y-70799000D01*
X165064260Y-70799000D01*
X165130443Y-70805519D01*
X165130443Y-70805519D01*
G37*
G36*
X171001000Y-72601000D02*
X169199000Y-72601000D01*
X169199000Y-70799000D01*
X171001000Y-70799000D01*
X171001000Y-72601000D01*
X171001000Y-72601000D01*
G37*
G36*
X167670443Y-70805519D02*
X167736627Y-70812037D01*
X167849853Y-70846384D01*
X167906467Y-70863557D01*
X168045087Y-70937652D01*
X168062991Y-70947222D01*
X168098729Y-70976552D01*
X168200186Y-71059814D01*
X168283448Y-71161271D01*
X168312778Y-71197009D01*
X168312779Y-71197011D01*
X168396443Y-71353533D01*
X168396443Y-71353534D01*
X168447963Y-71523373D01*
X168465359Y-71700000D01*
X168447963Y-71876627D01*
X168437301Y-71911774D01*
X168396443Y-72046467D01*
X168364133Y-72106914D01*
X168312778Y-72202991D01*
X168283448Y-72238729D01*
X168200186Y-72340186D01*
X168098729Y-72423448D01*
X168062991Y-72452778D01*
X168062989Y-72452779D01*
X167906467Y-72536443D01*
X167849853Y-72553616D01*
X167736627Y-72587963D01*
X167670442Y-72594482D01*
X167604260Y-72601000D01*
X167515740Y-72601000D01*
X167449558Y-72594482D01*
X167383373Y-72587963D01*
X167270147Y-72553616D01*
X167213533Y-72536443D01*
X167057011Y-72452779D01*
X167057009Y-72452778D01*
X167021271Y-72423448D01*
X166919814Y-72340186D01*
X166836552Y-72238729D01*
X166807222Y-72202991D01*
X166755867Y-72106914D01*
X166723557Y-72046467D01*
X166682699Y-71911774D01*
X166672037Y-71876627D01*
X166654641Y-71700000D01*
X166672037Y-71523373D01*
X166723557Y-71353534D01*
X166723557Y-71353533D01*
X166807221Y-71197011D01*
X166807222Y-71197009D01*
X166836552Y-71161271D01*
X166919814Y-71059814D01*
X167021271Y-70976552D01*
X167057009Y-70947222D01*
X167074913Y-70937652D01*
X167213533Y-70863557D01*
X167270147Y-70846384D01*
X167383373Y-70812037D01*
X167449557Y-70805519D01*
X167515740Y-70799000D01*
X167604260Y-70799000D01*
X167670443Y-70805519D01*
X167670443Y-70805519D01*
G37*
G36*
X157510443Y-70805519D02*
X157576627Y-70812037D01*
X157689853Y-70846384D01*
X157746467Y-70863557D01*
X157885087Y-70937652D01*
X157902991Y-70947222D01*
X157938729Y-70976552D01*
X158040186Y-71059814D01*
X158123448Y-71161271D01*
X158152778Y-71197009D01*
X158152779Y-71197011D01*
X158236443Y-71353533D01*
X158236443Y-71353534D01*
X158287963Y-71523373D01*
X158305359Y-71700000D01*
X158287963Y-71876627D01*
X158277301Y-71911774D01*
X158236443Y-72046467D01*
X158204133Y-72106914D01*
X158152778Y-72202991D01*
X158123448Y-72238729D01*
X158040186Y-72340186D01*
X157938729Y-72423448D01*
X157902991Y-72452778D01*
X157902989Y-72452779D01*
X157746467Y-72536443D01*
X157689853Y-72553616D01*
X157576627Y-72587963D01*
X157510442Y-72594482D01*
X157444260Y-72601000D01*
X157355740Y-72601000D01*
X157289558Y-72594482D01*
X157223373Y-72587963D01*
X157110147Y-72553616D01*
X157053533Y-72536443D01*
X156897011Y-72452779D01*
X156897009Y-72452778D01*
X156861271Y-72423448D01*
X156759814Y-72340186D01*
X156676552Y-72238729D01*
X156647222Y-72202991D01*
X156595867Y-72106914D01*
X156563557Y-72046467D01*
X156522699Y-71911774D01*
X156512037Y-71876627D01*
X156494641Y-71700000D01*
X156512037Y-71523373D01*
X156563557Y-71353534D01*
X156563557Y-71353533D01*
X156647221Y-71197011D01*
X156647222Y-71197009D01*
X156676552Y-71161271D01*
X156759814Y-71059814D01*
X156861271Y-70976552D01*
X156897009Y-70947222D01*
X156914913Y-70937652D01*
X157053533Y-70863557D01*
X157110147Y-70846384D01*
X157223373Y-70812037D01*
X157289557Y-70805519D01*
X157355740Y-70799000D01*
X157444260Y-70799000D01*
X157510443Y-70805519D01*
X157510443Y-70805519D01*
G37*
G36*
X152430443Y-70805519D02*
X152496627Y-70812037D01*
X152609853Y-70846384D01*
X152666467Y-70863557D01*
X152805087Y-70937652D01*
X152822991Y-70947222D01*
X152858729Y-70976552D01*
X152960186Y-71059814D01*
X153043448Y-71161271D01*
X153072778Y-71197009D01*
X153072779Y-71197011D01*
X153156443Y-71353533D01*
X153156443Y-71353534D01*
X153207963Y-71523373D01*
X153225359Y-71700000D01*
X153207963Y-71876627D01*
X153197301Y-71911774D01*
X153156443Y-72046467D01*
X153124133Y-72106914D01*
X153072778Y-72202991D01*
X153043448Y-72238729D01*
X152960186Y-72340186D01*
X152858729Y-72423448D01*
X152822991Y-72452778D01*
X152822989Y-72452779D01*
X152666467Y-72536443D01*
X152609853Y-72553616D01*
X152496627Y-72587963D01*
X152430442Y-72594482D01*
X152364260Y-72601000D01*
X152275740Y-72601000D01*
X152209558Y-72594482D01*
X152143373Y-72587963D01*
X152030147Y-72553616D01*
X151973533Y-72536443D01*
X151817011Y-72452779D01*
X151817009Y-72452778D01*
X151781271Y-72423448D01*
X151679814Y-72340186D01*
X151596552Y-72238729D01*
X151567222Y-72202991D01*
X151515867Y-72106914D01*
X151483557Y-72046467D01*
X151442699Y-71911774D01*
X151432037Y-71876627D01*
X151414641Y-71700000D01*
X151432037Y-71523373D01*
X151483557Y-71353534D01*
X151483557Y-71353533D01*
X151567221Y-71197011D01*
X151567222Y-71197009D01*
X151596552Y-71161271D01*
X151679814Y-71059814D01*
X151781271Y-70976552D01*
X151817009Y-70947222D01*
X151834913Y-70937652D01*
X151973533Y-70863557D01*
X152030147Y-70846384D01*
X152143373Y-70812037D01*
X152209557Y-70805519D01*
X152275740Y-70799000D01*
X152364260Y-70799000D01*
X152430443Y-70805519D01*
X152430443Y-70805519D01*
G37*
G36*
X147350443Y-70805519D02*
X147416627Y-70812037D01*
X147529853Y-70846384D01*
X147586467Y-70863557D01*
X147725087Y-70937652D01*
X147742991Y-70947222D01*
X147778729Y-70976552D01*
X147880186Y-71059814D01*
X147963448Y-71161271D01*
X147992778Y-71197009D01*
X147992779Y-71197011D01*
X148076443Y-71353533D01*
X148076443Y-71353534D01*
X148127963Y-71523373D01*
X148145359Y-71700000D01*
X148127963Y-71876627D01*
X148117301Y-71911774D01*
X148076443Y-72046467D01*
X148044133Y-72106914D01*
X147992778Y-72202991D01*
X147963448Y-72238729D01*
X147880186Y-72340186D01*
X147778729Y-72423448D01*
X147742991Y-72452778D01*
X147742989Y-72452779D01*
X147586467Y-72536443D01*
X147529853Y-72553616D01*
X147416627Y-72587963D01*
X147350442Y-72594482D01*
X147284260Y-72601000D01*
X147195740Y-72601000D01*
X147129558Y-72594482D01*
X147063373Y-72587963D01*
X146950147Y-72553616D01*
X146893533Y-72536443D01*
X146737011Y-72452779D01*
X146737009Y-72452778D01*
X146701271Y-72423448D01*
X146599814Y-72340186D01*
X146516552Y-72238729D01*
X146487222Y-72202991D01*
X146435867Y-72106914D01*
X146403557Y-72046467D01*
X146362699Y-71911774D01*
X146352037Y-71876627D01*
X146334641Y-71700000D01*
X146352037Y-71523373D01*
X146403557Y-71353534D01*
X146403557Y-71353533D01*
X146487221Y-71197011D01*
X146487222Y-71197009D01*
X146516552Y-71161271D01*
X146599814Y-71059814D01*
X146701271Y-70976552D01*
X146737009Y-70947222D01*
X146754913Y-70937652D01*
X146893533Y-70863557D01*
X146950147Y-70846384D01*
X147063373Y-70812037D01*
X147129557Y-70805519D01*
X147195740Y-70799000D01*
X147284260Y-70799000D01*
X147350443Y-70805519D01*
X147350443Y-70805519D01*
G37*
G36*
X93541981Y-67537468D02*
X93724150Y-67612925D01*
X93888103Y-67722475D01*
X94027525Y-67861897D01*
X94137075Y-68025850D01*
X94212532Y-68208019D01*
X94251000Y-68401410D01*
X94251000Y-68598590D01*
X94212532Y-68791981D01*
X94137075Y-68974150D01*
X94027525Y-69138103D01*
X93888103Y-69277525D01*
X93724150Y-69387075D01*
X93541981Y-69462532D01*
X93348590Y-69501000D01*
X93151410Y-69501000D01*
X92958019Y-69462532D01*
X92775850Y-69387075D01*
X92611897Y-69277525D01*
X92472475Y-69138103D01*
X92362925Y-68974150D01*
X92287468Y-68791981D01*
X92249000Y-68598590D01*
X92249000Y-68401410D01*
X92287468Y-68208019D01*
X92362925Y-68025850D01*
X92472475Y-67861897D01*
X92611897Y-67722475D01*
X92775850Y-67612925D01*
X92958019Y-67537468D01*
X93151410Y-67499000D01*
X93348590Y-67499000D01*
X93541981Y-67537468D01*
X93541981Y-67537468D01*
G37*
G36*
X100541981Y-67537468D02*
X100724150Y-67612925D01*
X100888103Y-67722475D01*
X101027525Y-67861897D01*
X101137075Y-68025850D01*
X101212532Y-68208019D01*
X101251000Y-68401410D01*
X101251000Y-68598590D01*
X101212532Y-68791981D01*
X101137075Y-68974150D01*
X101027525Y-69138103D01*
X100888103Y-69277525D01*
X100724150Y-69387075D01*
X100541981Y-69462532D01*
X100348590Y-69501000D01*
X100151410Y-69501000D01*
X99958019Y-69462532D01*
X99775850Y-69387075D01*
X99611897Y-69277525D01*
X99472475Y-69138103D01*
X99362925Y-68974150D01*
X99287468Y-68791981D01*
X99249000Y-68598590D01*
X99249000Y-68401410D01*
X99287468Y-68208019D01*
X99362925Y-68025850D01*
X99472475Y-67861897D01*
X99611897Y-67722475D01*
X99775850Y-67612925D01*
X99958019Y-67537468D01*
X100151410Y-67499000D01*
X100348590Y-67499000D01*
X100541981Y-67537468D01*
X100541981Y-67537468D01*
G37*
G36*
X171791981Y-67537468D02*
X171974150Y-67612925D01*
X172138103Y-67722475D01*
X172277525Y-67861897D01*
X172387075Y-68025850D01*
X172462532Y-68208019D01*
X172501000Y-68401410D01*
X172501000Y-68598590D01*
X172462532Y-68791981D01*
X172387075Y-68974150D01*
X172277525Y-69138103D01*
X172138103Y-69277525D01*
X171974150Y-69387075D01*
X171791981Y-69462532D01*
X171598590Y-69501000D01*
X171401410Y-69501000D01*
X171208019Y-69462532D01*
X171025850Y-69387075D01*
X170861897Y-69277525D01*
X170722475Y-69138103D01*
X170612925Y-68974150D01*
X170537468Y-68791981D01*
X170499000Y-68598590D01*
X170499000Y-68401410D01*
X170537468Y-68208019D01*
X170612925Y-68025850D01*
X170722475Y-67861897D01*
X170861897Y-67722475D01*
X171025850Y-67612925D01*
X171208019Y-67537468D01*
X171401410Y-67499000D01*
X171598590Y-67499000D01*
X171791981Y-67537468D01*
X171791981Y-67537468D01*
G37*
G36*
X178791981Y-67537468D02*
X178974150Y-67612925D01*
X179138103Y-67722475D01*
X179277525Y-67861897D01*
X179387075Y-68025850D01*
X179462532Y-68208019D01*
X179501000Y-68401410D01*
X179501000Y-68598590D01*
X179462532Y-68791981D01*
X179387075Y-68974150D01*
X179277525Y-69138103D01*
X179138103Y-69277525D01*
X178974150Y-69387075D01*
X178791981Y-69462532D01*
X178598590Y-69501000D01*
X178401410Y-69501000D01*
X178208019Y-69462532D01*
X178025850Y-69387075D01*
X177861897Y-69277525D01*
X177722475Y-69138103D01*
X177612925Y-68974150D01*
X177537468Y-68791981D01*
X177499000Y-68598590D01*
X177499000Y-68401410D01*
X177537468Y-68208019D01*
X177612925Y-68025850D01*
X177722475Y-67861897D01*
X177861897Y-67722475D01*
X178025850Y-67612925D01*
X178208019Y-67537468D01*
X178401410Y-67499000D01*
X178598590Y-67499000D01*
X178791981Y-67537468D01*
X178791981Y-67537468D01*
G37*
G36*
X99248228Y-65181703D02*
X99403100Y-65245853D01*
X99542481Y-65338985D01*
X99661015Y-65457519D01*
X99754147Y-65596900D01*
X99818297Y-65751772D01*
X99851000Y-65916184D01*
X99851000Y-66083816D01*
X99818297Y-66248228D01*
X99754147Y-66403100D01*
X99661015Y-66542481D01*
X99542481Y-66661015D01*
X99403100Y-66754147D01*
X99248228Y-66818297D01*
X99083816Y-66851000D01*
X98916184Y-66851000D01*
X98751772Y-66818297D01*
X98596900Y-66754147D01*
X98457519Y-66661015D01*
X98338985Y-66542481D01*
X98245853Y-66403100D01*
X98181703Y-66248228D01*
X98149000Y-66083816D01*
X98149000Y-65916184D01*
X98181703Y-65751772D01*
X98245853Y-65596900D01*
X98338985Y-65457519D01*
X98457519Y-65338985D01*
X98596900Y-65245853D01*
X98751772Y-65181703D01*
X98916184Y-65149000D01*
X99083816Y-65149000D01*
X99248228Y-65181703D01*
X99248228Y-65181703D01*
G37*
G36*
X94748228Y-65181703D02*
X94903100Y-65245853D01*
X95042481Y-65338985D01*
X95161015Y-65457519D01*
X95254147Y-65596900D01*
X95318297Y-65751772D01*
X95351000Y-65916184D01*
X95351000Y-66083816D01*
X95318297Y-66248228D01*
X95254147Y-66403100D01*
X95161015Y-66542481D01*
X95042481Y-66661015D01*
X94903100Y-66754147D01*
X94748228Y-66818297D01*
X94583816Y-66851000D01*
X94416184Y-66851000D01*
X94251772Y-66818297D01*
X94096900Y-66754147D01*
X93957519Y-66661015D01*
X93838985Y-66542481D01*
X93745853Y-66403100D01*
X93681703Y-66248228D01*
X93649000Y-66083816D01*
X93649000Y-65916184D01*
X93681703Y-65751772D01*
X93745853Y-65596900D01*
X93838985Y-65457519D01*
X93957519Y-65338985D01*
X94096900Y-65245853D01*
X94251772Y-65181703D01*
X94416184Y-65149000D01*
X94583816Y-65149000D01*
X94748228Y-65181703D01*
X94748228Y-65181703D01*
G37*
G36*
X172998228Y-65181703D02*
X173153100Y-65245853D01*
X173292481Y-65338985D01*
X173411015Y-65457519D01*
X173504147Y-65596900D01*
X173568297Y-65751772D01*
X173601000Y-65916184D01*
X173601000Y-66083816D01*
X173568297Y-66248228D01*
X173504147Y-66403100D01*
X173411015Y-66542481D01*
X173292481Y-66661015D01*
X173153100Y-66754147D01*
X172998228Y-66818297D01*
X172833816Y-66851000D01*
X172666184Y-66851000D01*
X172501772Y-66818297D01*
X172346900Y-66754147D01*
X172207519Y-66661015D01*
X172088985Y-66542481D01*
X171995853Y-66403100D01*
X171931703Y-66248228D01*
X171899000Y-66083816D01*
X171899000Y-65916184D01*
X171931703Y-65751772D01*
X171995853Y-65596900D01*
X172088985Y-65457519D01*
X172207519Y-65338985D01*
X172346900Y-65245853D01*
X172501772Y-65181703D01*
X172666184Y-65149000D01*
X172833816Y-65149000D01*
X172998228Y-65181703D01*
X172998228Y-65181703D01*
G37*
G36*
X177498228Y-65181703D02*
X177653100Y-65245853D01*
X177792481Y-65338985D01*
X177911015Y-65457519D01*
X178004147Y-65596900D01*
X178068297Y-65751772D01*
X178101000Y-65916184D01*
X178101000Y-66083816D01*
X178068297Y-66248228D01*
X178004147Y-66403100D01*
X177911015Y-66542481D01*
X177792481Y-66661015D01*
X177653100Y-66754147D01*
X177498228Y-66818297D01*
X177333816Y-66851000D01*
X177166184Y-66851000D01*
X177001772Y-66818297D01*
X176846900Y-66754147D01*
X176707519Y-66661015D01*
X176588985Y-66542481D01*
X176495853Y-66403100D01*
X176431703Y-66248228D01*
X176399000Y-66083816D01*
X176399000Y-65916184D01*
X176431703Y-65751772D01*
X176495853Y-65596900D01*
X176588985Y-65457519D01*
X176707519Y-65338985D01*
X176846900Y-65245853D01*
X177001772Y-65181703D01*
X177166184Y-65149000D01*
X177333816Y-65149000D01*
X177498228Y-65181703D01*
X177498228Y-65181703D01*
G37*
M02*
