G04 #@! TF.GenerationSoftware,KiCad,Pcbnew,(5.0.2)-1*
G04 #@! TF.CreationDate,2019-11-02T01:01:46-04:00*
G04 #@! TF.ProjectId,gamepad,67616d65-7061-4642-9e6b-696361645f70,rev?*
G04 #@! TF.SameCoordinates,Original*
G04 #@! TF.FileFunction,Copper,L1,Top*
G04 #@! TF.FilePolarity,Positive*
%FSLAX46Y46*%
G04 Gerber Fmt 4.6, Leading zero omitted, Abs format (unit mm)*
G04 Created by KiCad (PCBNEW (5.0.2)-1) date 11/2/2019 1:01:46 AM*
%MOMM*%
%LPD*%
G01*
G04 APERTURE LIST*
G04 #@! TA.AperFunction,ComponentPad*
%ADD10C,2.000000*%
G04 #@! TD*
G04 #@! TA.AperFunction,ComponentPad*
%ADD11C,1.900000*%
G04 #@! TD*
G04 #@! TA.AperFunction,ComponentPad*
%ADD12C,1.600000*%
G04 #@! TD*
G04 #@! TA.AperFunction,ComponentPad*
%ADD13O,1.700000X1.700000*%
G04 #@! TD*
G04 #@! TA.AperFunction,ComponentPad*
%ADD14R,1.700000X1.700000*%
G04 #@! TD*
G04 #@! TA.AperFunction,ViaPad*
%ADD15C,1.270000*%
G04 #@! TD*
G04 #@! TA.AperFunction,ViaPad*
%ADD16C,0.800000*%
G04 #@! TD*
G04 #@! TA.AperFunction,Conductor*
%ADD17C,0.250000*%
G04 #@! TD*
G04 #@! TA.AperFunction,Conductor*
%ADD18C,1.016000*%
G04 #@! TD*
G04 APERTURE END LIST*
D10*
G04 #@! TO.P,SW6,1*
G04 #@! TO.N,GND*
X150033332Y-93250000D03*
G04 #@! TO.P,SW6,2*
G04 #@! TO.N,/b*
X150033332Y-97500000D03*
G04 #@! TO.P,SW6,1*
G04 #@! TO.N,GND*
X141533332Y-93250000D03*
G04 #@! TO.P,SW6,2*
G04 #@! TO.N,/b*
X141533332Y-97500000D03*
G04 #@! TD*
G04 #@! TO.P,SW1,1*
G04 #@! TO.N,/up*
X101200000Y-85750000D03*
G04 #@! TO.P,SW1,2*
G04 #@! TO.N,GND*
X101200000Y-90000000D03*
G04 #@! TO.P,SW1,1*
G04 #@! TO.N,/up*
X92700000Y-85750000D03*
G04 #@! TO.P,SW1,2*
G04 #@! TO.N,GND*
X92700000Y-90000000D03*
G04 #@! TD*
G04 #@! TO.P,SW2,1*
G04 #@! TO.N,GND*
X111200000Y-93250000D03*
G04 #@! TO.P,SW2,2*
G04 #@! TO.N,/right*
X111200000Y-97500000D03*
G04 #@! TO.P,SW2,1*
G04 #@! TO.N,GND*
X102700000Y-93250000D03*
G04 #@! TO.P,SW2,2*
G04 #@! TO.N,/right*
X102700000Y-97500000D03*
G04 #@! TD*
G04 #@! TO.P,SW4,1*
G04 #@! TO.N,GND*
X91200000Y-93250000D03*
G04 #@! TO.P,SW4,2*
G04 #@! TO.N,/down*
X91200000Y-97500000D03*
G04 #@! TO.P,SW4,1*
G04 #@! TO.N,GND*
X82700000Y-93250000D03*
G04 #@! TO.P,SW4,2*
G04 #@! TO.N,/down*
X82700000Y-97500000D03*
G04 #@! TD*
G04 #@! TO.P,SW5,1*
G04 #@! TO.N,/x*
X130616666Y-93250000D03*
G04 #@! TO.P,SW5,2*
G04 #@! TO.N,GND*
X130616666Y-97500000D03*
G04 #@! TO.P,SW5,1*
G04 #@! TO.N,/x*
X122116666Y-93250000D03*
G04 #@! TO.P,SW5,2*
G04 #@! TO.N,GND*
X122116666Y-97500000D03*
G04 #@! TD*
G04 #@! TO.P,SW8,1*
G04 #@! TO.N,GND*
X179450000Y-100750000D03*
G04 #@! TO.P,SW8,2*
G04 #@! TO.N,/y*
X179450000Y-105000000D03*
G04 #@! TO.P,SW8,1*
G04 #@! TO.N,GND*
X170950000Y-100750000D03*
G04 #@! TO.P,SW8,2*
G04 #@! TO.N,/y*
X170950000Y-105000000D03*
G04 #@! TD*
G04 #@! TO.P,SW9,1*
G04 #@! TO.N,/start*
X189450000Y-93250000D03*
G04 #@! TO.P,SW9,2*
G04 #@! TO.N,GND*
X189450000Y-97500000D03*
G04 #@! TO.P,SW9,1*
G04 #@! TO.N,/start*
X180950000Y-93250000D03*
G04 #@! TO.P,SW9,2*
G04 #@! TO.N,GND*
X180950000Y-97500000D03*
G04 #@! TD*
G04 #@! TO.P,SW10,1*
G04 #@! TO.N,GND*
X169450000Y-93250000D03*
G04 #@! TO.P,SW10,2*
G04 #@! TO.N,/select*
X169450000Y-97500000D03*
G04 #@! TO.P,SW10,1*
G04 #@! TO.N,GND*
X160950000Y-93250000D03*
G04 #@! TO.P,SW10,2*
G04 #@! TO.N,/select*
X160950000Y-97500000D03*
G04 #@! TD*
G04 #@! TO.P,SW3,1*
G04 #@! TO.N,/left*
X101200000Y-100750000D03*
G04 #@! TO.P,SW3,2*
G04 #@! TO.N,GND*
X101200000Y-105000000D03*
G04 #@! TO.P,SW3,1*
G04 #@! TO.N,/left*
X92700000Y-100750000D03*
G04 #@! TO.P,SW3,2*
G04 #@! TO.N,GND*
X92700000Y-105000000D03*
G04 #@! TD*
G04 #@! TO.P,SW7,1*
G04 #@! TO.N,/a*
X179450000Y-85750000D03*
G04 #@! TO.P,SW7,2*
G04 #@! TO.N,GND*
X179450000Y-90000000D03*
G04 #@! TO.P,SW7,1*
G04 #@! TO.N,/a*
X170950000Y-85750000D03*
G04 #@! TO.P,SW7,2*
G04 #@! TO.N,GND*
X170950000Y-90000000D03*
G04 #@! TD*
D11*
G04 #@! TO.P,SW11,4*
G04 #@! TO.N,N/C*
X100250000Y-68500000D03*
G04 #@! TO.P,SW11,3*
X93250000Y-68500000D03*
D12*
G04 #@! TO.P,SW11,2*
G04 #@! TO.N,GND*
X99000000Y-66000000D03*
G04 #@! TO.P,SW11,1*
G04 #@! TO.N,/lbump*
X94500000Y-66000000D03*
G04 #@! TD*
D11*
G04 #@! TO.P,SW12,4*
G04 #@! TO.N,N/C*
X178500000Y-68500000D03*
G04 #@! TO.P,SW12,3*
X171500000Y-68500000D03*
D12*
G04 #@! TO.P,SW12,2*
G04 #@! TO.N,/rbump*
X177250000Y-66000000D03*
G04 #@! TO.P,SW12,1*
G04 #@! TO.N,GND*
X172750000Y-66000000D03*
G04 #@! TD*
D13*
G04 #@! TO.P,JP2,40*
G04 #@! TO.N,Net-(JP2-Pad40)*
X121840000Y-123240000D03*
G04 #@! TO.P,JP2,39*
G04 #@! TO.N,GND*
X121840000Y-120700000D03*
G04 #@! TO.P,JP2,38*
G04 #@! TO.N,/x*
X124380000Y-123240000D03*
G04 #@! TO.P,JP2,37*
G04 #@! TO.N,/down*
X124380000Y-120700000D03*
G04 #@! TO.P,JP2,36*
G04 #@! TO.N,/up*
X126920000Y-123240000D03*
G04 #@! TO.P,JP2,35*
G04 #@! TO.N,/right*
X126920000Y-120700000D03*
G04 #@! TO.P,JP2,34*
G04 #@! TO.N,GND*
X129460000Y-123240000D03*
G04 #@! TO.P,JP2,33*
G04 #@! TO.N,/rbump*
X129460000Y-120700000D03*
G04 #@! TO.P,JP2,32*
G04 #@! TO.N,/lbump*
X132000000Y-123240000D03*
G04 #@! TO.P,JP2,31*
G04 #@! TO.N,/start*
X132000000Y-120700000D03*
G04 #@! TO.P,JP2,30*
G04 #@! TO.N,GND*
X134540000Y-123240000D03*
G04 #@! TO.P,JP2,29*
G04 #@! TO.N,/select*
X134540000Y-120700000D03*
G04 #@! TO.P,JP2,28*
G04 #@! TO.N,/EECLK*
X137080000Y-123240000D03*
G04 #@! TO.P,JP2,27*
G04 #@! TO.N,/EEDATA*
X137080000Y-120700000D03*
G04 #@! TO.P,JP2,26*
G04 #@! TO.N,/RT_CS*
X139620000Y-123240000D03*
G04 #@! TO.P,JP2,25*
G04 #@! TO.N,GND*
X139620000Y-120700000D03*
G04 #@! TO.P,JP2,24*
G04 #@! TO.N,/TFTCS*
X142160000Y-123240000D03*
G04 #@! TO.P,JP2,23*
G04 #@! TO.N,/SCLK*
X142160000Y-120700000D03*
G04 #@! TO.P,JP2,22*
G04 #@! TO.N,/TFT3V*
X144700000Y-123240000D03*
G04 #@! TO.P,JP2,21*
G04 #@! TO.N,/MISO*
X144700000Y-120700000D03*
G04 #@! TO.P,JP2,20*
G04 #@! TO.N,GND*
X147240000Y-123240000D03*
G04 #@! TO.P,JP2,19*
G04 #@! TO.N,/MOSI*
X147240000Y-120700000D03*
G04 #@! TO.P,JP2,18*
G04 #@! TO.N,/RT_INT*
X149780000Y-123240000D03*
G04 #@! TO.P,JP2,17*
G04 #@! TO.N,/3V3*
X149780000Y-120700000D03*
G04 #@! TO.P,JP2,16*
G04 #@! TO.N,/GPIO23*
X152320000Y-123240000D03*
G04 #@! TO.P,JP2,15*
G04 #@! TO.N,/GPIO22*
X152320000Y-120700000D03*
G04 #@! TO.P,JP2,14*
G04 #@! TO.N,GND*
X154860000Y-123240000D03*
G04 #@! TO.P,JP2,13*
G04 #@! TO.N,/GPIO27*
X154860000Y-120700000D03*
G04 #@! TO.P,JP2,12*
G04 #@! TO.N,/y*
X157400000Y-123240000D03*
G04 #@! TO.P,JP2,11*
G04 #@! TO.N,/GPIO17*
X157400000Y-120700000D03*
G04 #@! TO.P,JP2,10*
G04 #@! TO.N,/b*
X159940000Y-123240000D03*
G04 #@! TO.P,JP2,9*
G04 #@! TO.N,GND*
X159940000Y-120700000D03*
G04 #@! TO.P,JP2,8*
G04 #@! TO.N,/a*
X162480000Y-123240000D03*
G04 #@! TO.P,JP2,7*
G04 #@! TO.N,/left*
X162480000Y-120700000D03*
G04 #@! TO.P,JP2,6*
G04 #@! TO.N,GND*
X165020000Y-123240000D03*
G04 #@! TO.P,JP2,5*
G04 #@! TO.N,/SCK*
X165020000Y-120700000D03*
G04 #@! TO.P,JP2,4*
G04 #@! TO.N,/5V*
X167560000Y-123240000D03*
G04 #@! TO.P,JP2,3*
G04 #@! TO.N,/SDA*
X167560000Y-120700000D03*
G04 #@! TO.P,JP2,2*
G04 #@! TO.N,/5V*
X170100000Y-123240000D03*
D14*
G04 #@! TO.P,JP2,1*
G04 #@! TO.N,/3V3*
X170100000Y-120700000D03*
G04 #@! TD*
D13*
G04 #@! TO.P,JP1,40*
G04 #@! TO.N,Net-(JP1-Pad40)*
X121840000Y-74240000D03*
G04 #@! TO.P,JP1,39*
G04 #@! TO.N,GND*
X121840000Y-71700000D03*
G04 #@! TO.P,JP1,38*
G04 #@! TO.N,Net-(JP1-Pad38)*
X124380000Y-74240000D03*
G04 #@! TO.P,JP1,37*
G04 #@! TO.N,Net-(JP1-Pad37)*
X124380000Y-71700000D03*
G04 #@! TO.P,JP1,36*
G04 #@! TO.N,Net-(JP1-Pad36)*
X126920000Y-74240000D03*
G04 #@! TO.P,JP1,35*
G04 #@! TO.N,Net-(JP1-Pad35)*
X126920000Y-71700000D03*
G04 #@! TO.P,JP1,34*
G04 #@! TO.N,GND*
X129460000Y-74240000D03*
G04 #@! TO.P,JP1,33*
G04 #@! TO.N,Net-(JP1-Pad33)*
X129460000Y-71700000D03*
G04 #@! TO.P,JP1,32*
G04 #@! TO.N,Net-(JP1-Pad32)*
X132000000Y-74240000D03*
G04 #@! TO.P,JP1,31*
G04 #@! TO.N,Net-(JP1-Pad31)*
X132000000Y-71700000D03*
G04 #@! TO.P,JP1,30*
G04 #@! TO.N,GND*
X134540000Y-74240000D03*
G04 #@! TO.P,JP1,29*
G04 #@! TO.N,Net-(JP1-Pad29)*
X134540000Y-71700000D03*
G04 #@! TO.P,JP1,28*
G04 #@! TO.N,/EECLK*
X137080000Y-74240000D03*
G04 #@! TO.P,JP1,27*
G04 #@! TO.N,/EEDATA*
X137080000Y-71700000D03*
G04 #@! TO.P,JP1,26*
G04 #@! TO.N,/RT_CS*
X139620000Y-74240000D03*
G04 #@! TO.P,JP1,25*
G04 #@! TO.N,GND*
X139620000Y-71700000D03*
G04 #@! TO.P,JP1,24*
G04 #@! TO.N,/TFTCS*
X142160000Y-74240000D03*
G04 #@! TO.P,JP1,23*
G04 #@! TO.N,/SCLK*
X142160000Y-71700000D03*
G04 #@! TO.P,JP1,22*
G04 #@! TO.N,/TFT3V*
X144700000Y-74240000D03*
G04 #@! TO.P,JP1,21*
G04 #@! TO.N,/MISO*
X144700000Y-71700000D03*
G04 #@! TO.P,JP1,20*
G04 #@! TO.N,GND*
X147240000Y-74240000D03*
G04 #@! TO.P,JP1,19*
G04 #@! TO.N,/MOSI*
X147240000Y-71700000D03*
G04 #@! TO.P,JP1,18*
G04 #@! TO.N,/RT_INT*
X149780000Y-74240000D03*
G04 #@! TO.P,JP1,17*
G04 #@! TO.N,/3V3*
X149780000Y-71700000D03*
G04 #@! TO.P,JP1,16*
G04 #@! TO.N,/GPIO23*
X152320000Y-74240000D03*
G04 #@! TO.P,JP1,15*
G04 #@! TO.N,/GPIO22*
X152320000Y-71700000D03*
G04 #@! TO.P,JP1,14*
G04 #@! TO.N,GND*
X154860000Y-74240000D03*
G04 #@! TO.P,JP1,13*
G04 #@! TO.N,/GPIO27*
X154860000Y-71700000D03*
G04 #@! TO.P,JP1,12*
G04 #@! TO.N,Net-(JP1-Pad12)*
X157400000Y-74240000D03*
G04 #@! TO.P,JP1,11*
G04 #@! TO.N,/GPIO17*
X157400000Y-71700000D03*
G04 #@! TO.P,JP1,10*
G04 #@! TO.N,Net-(JP1-Pad10)*
X159940000Y-74240000D03*
G04 #@! TO.P,JP1,9*
G04 #@! TO.N,GND*
X159940000Y-71700000D03*
G04 #@! TO.P,JP1,8*
G04 #@! TO.N,Net-(JP1-Pad8)*
X162480000Y-74240000D03*
G04 #@! TO.P,JP1,7*
G04 #@! TO.N,Net-(JP1-Pad7)*
X162480000Y-71700000D03*
G04 #@! TO.P,JP1,6*
G04 #@! TO.N,GND*
X165020000Y-74240000D03*
G04 #@! TO.P,JP1,5*
G04 #@! TO.N,/SCK*
X165020000Y-71700000D03*
G04 #@! TO.P,JP1,4*
G04 #@! TO.N,/5V*
X167560000Y-74240000D03*
G04 #@! TO.P,JP1,3*
G04 #@! TO.N,/SDA*
X167560000Y-71700000D03*
G04 #@! TO.P,JP1,2*
G04 #@! TO.N,/5V*
X170100000Y-74240000D03*
D14*
G04 #@! TO.P,JP1,1*
G04 #@! TO.N,/3V3*
X170100000Y-71700000D03*
G04 #@! TD*
D15*
G04 #@! TO.N,/right*
X120600000Y-99200000D03*
G04 #@! TO.N,/up*
X124000000Y-86000000D03*
G04 #@! TO.N,/down*
X119200000Y-95800000D03*
G04 #@! TO.N,/left*
X162200000Y-101800000D03*
G04 #@! TO.N,/y*
X157200000Y-105200000D03*
G04 #@! TO.N,/b*
X159200000Y-101710000D03*
G04 #@! TO.N,/x*
X116800000Y-93000000D03*
G04 #@! TO.N,/a*
X163600000Y-89400000D03*
G04 #@! TO.N,/3V3*
X170200000Y-117400000D03*
G04 #@! TO.N,/5V*
X172800000Y-76600000D03*
G04 #@! TO.N,/lbump*
X121600000Y-68200000D03*
G04 #@! TO.N,/rbump*
X128600000Y-69800008D03*
D16*
G04 #@! TO.N,/select*
X134800000Y-99800000D03*
G04 #@! TO.N,/start*
X134800000Y-91400000D03*
G04 #@! TD*
D17*
G04 #@! TO.N,GND*
X138770001Y-72549999D02*
X139620000Y-71700000D01*
X138255001Y-73064999D02*
X138770001Y-72549999D01*
X138255001Y-74778591D02*
X138255001Y-73064999D01*
X139620000Y-76143590D02*
X138255001Y-74778591D01*
X139620000Y-120700000D02*
X139620000Y-76143590D01*
G04 #@! TO.N,/right*
X126920000Y-120700000D02*
X120600000Y-114380000D01*
X120600000Y-114380000D02*
X120600000Y-99200000D01*
G04 #@! TO.N,/up*
X124000000Y-116040998D02*
X124000000Y-86000000D01*
X128095001Y-120135999D02*
X124000000Y-116040998D01*
X126920000Y-123240000D02*
X128095001Y-122064999D01*
X128095001Y-122064999D02*
X128095001Y-120135999D01*
G04 #@! TO.N,/down*
X119200000Y-113616410D02*
X119200000Y-95800000D01*
X124380000Y-120700000D02*
X119200000Y-115520000D01*
X119200000Y-115520000D02*
X119200000Y-113616410D01*
G04 #@! TO.N,/left*
X162200000Y-120420000D02*
X162480000Y-120700000D01*
X162200000Y-101800000D02*
X162200000Y-120420000D01*
G04 #@! TO.N,/y*
X156224999Y-106175001D02*
X157200000Y-105200000D01*
X157400000Y-123240000D02*
X156224999Y-122064999D01*
X156224999Y-122064999D02*
X156224999Y-106175001D01*
G04 #@! TO.N,/b*
X159090001Y-122390001D02*
X159940000Y-123240000D01*
X158764999Y-122064999D02*
X159090001Y-122390001D01*
X158764999Y-119946001D02*
X158764999Y-122064999D01*
X159200000Y-119511000D02*
X158764999Y-119946001D01*
X159200000Y-101710000D02*
X159200000Y-119511000D01*
G04 #@! TO.N,/x*
X116800000Y-113756410D02*
X116800000Y-93000000D01*
X123204999Y-120161409D02*
X116800000Y-113756410D01*
X124380000Y-123240000D02*
X123204999Y-122064999D01*
X123204999Y-122064999D02*
X123204999Y-120161409D01*
G04 #@! TO.N,/a*
X163329999Y-122390001D02*
X162480000Y-123240000D01*
X163655001Y-122064999D02*
X163329999Y-122390001D01*
X163655001Y-120135999D02*
X163655001Y-122064999D01*
X163600000Y-120080998D02*
X163655001Y-120135999D01*
X163600000Y-89400000D02*
X163600000Y-120080998D01*
G04 #@! TO.N,/3V3*
X170100000Y-70600000D02*
X170100000Y-71700000D01*
X170024999Y-70524999D02*
X170100000Y-70600000D01*
X150955001Y-70524999D02*
X170024999Y-70524999D01*
X149780000Y-71700000D02*
X150955001Y-70524999D01*
X150629999Y-72549999D02*
X149780000Y-71700000D01*
X149780000Y-120020000D02*
X151358333Y-118441667D01*
X151358333Y-118441667D02*
X151358333Y-75207333D01*
X149780000Y-120700000D02*
X149780000Y-120020000D01*
X151358333Y-75207333D02*
X150955001Y-74804001D01*
X150955001Y-74804001D02*
X150955001Y-72875001D01*
X150955001Y-72875001D02*
X150629999Y-72549999D01*
X170100000Y-120700000D02*
X170100000Y-117500000D01*
X170100000Y-117500000D02*
X170200000Y-117400000D01*
G04 #@! TO.N,/5V*
X168897919Y-74240000D02*
X167560000Y-74240000D01*
X170100000Y-74240000D02*
X168897919Y-74240000D01*
X168762081Y-123240000D02*
X170100000Y-123240000D01*
X167560000Y-123240000D02*
X168762081Y-123240000D01*
D18*
X172800000Y-121742081D02*
X172800000Y-76600000D01*
X170100000Y-123240000D02*
X171302081Y-123240000D01*
X171302081Y-123240000D02*
X172800000Y-121742081D01*
D17*
G04 #@! TO.N,/SDA*
X168409999Y-72549999D02*
X167560000Y-71700000D01*
X168735001Y-72875001D02*
X168409999Y-72549999D01*
X170474003Y-72875001D02*
X168735001Y-72875001D01*
X169624999Y-76454003D02*
X171275001Y-74804001D01*
X169624999Y-90636001D02*
X169624999Y-76454003D01*
X170775001Y-98136001D02*
X170775001Y-91786003D01*
X171275001Y-74804001D02*
X171275001Y-73675999D01*
X168409999Y-100501003D02*
X170775001Y-98136001D01*
X168409999Y-119850001D02*
X168409999Y-100501003D01*
X171275001Y-73675999D02*
X170474003Y-72875001D01*
X170775001Y-91786003D02*
X169624999Y-90636001D01*
X167560000Y-120700000D02*
X168409999Y-119850001D01*
G04 #@! TO.N,/SCK*
X165869999Y-119850001D02*
X165020000Y-120700000D01*
X166195001Y-119524999D02*
X165869999Y-119850001D01*
X166195001Y-72875001D02*
X166195001Y-119524999D01*
X165020000Y-71700000D02*
X166195001Y-72875001D01*
G04 #@! TO.N,/GPIO17*
X158575001Y-72875001D02*
X158249999Y-72549999D01*
X158575001Y-74804001D02*
X158575001Y-72875001D01*
X158200000Y-75179002D02*
X158575001Y-74804001D01*
X158249999Y-72549999D02*
X157400000Y-71700000D01*
X158200000Y-118697919D02*
X158200000Y-75179002D01*
X157400000Y-119497919D02*
X158200000Y-118697919D01*
X157400000Y-120700000D02*
X157400000Y-119497919D01*
G04 #@! TO.N,/GPIO27*
X154860000Y-119497919D02*
X154860000Y-120700000D01*
X154860000Y-106903590D02*
X154860000Y-119497919D01*
X156035001Y-105728589D02*
X154860000Y-106903590D01*
X156035001Y-72875001D02*
X156035001Y-105728589D01*
X154860000Y-71700000D02*
X156035001Y-72875001D01*
G04 #@! TO.N,/GPIO22*
X153169999Y-119850001D02*
X152320000Y-120700000D01*
X153495001Y-119524999D02*
X153169999Y-119850001D01*
X153495001Y-72875001D02*
X153495001Y-119524999D01*
X152320000Y-71700000D02*
X153495001Y-72875001D01*
G04 #@! TO.N,/GPIO23*
X152320000Y-75442081D02*
X152320000Y-74240000D01*
X152320000Y-122920000D02*
X151144999Y-121744999D01*
X151144999Y-121744999D02*
X151144999Y-119855001D01*
X152320000Y-123240000D02*
X152320000Y-122920000D01*
X151144999Y-119855001D02*
X152200000Y-118800000D01*
X152320000Y-97174334D02*
X152320000Y-75442081D01*
X152200000Y-118800000D02*
X152200000Y-97294334D01*
X152200000Y-97294334D02*
X152320000Y-97174334D01*
G04 #@! TO.N,/RT_INT*
X148930001Y-75089999D02*
X149780000Y-74240000D01*
X148604999Y-75415001D02*
X148930001Y-75089999D01*
X148604999Y-122064999D02*
X148604999Y-75415001D01*
X149780000Y-123240000D02*
X148604999Y-122064999D01*
G04 #@! TO.N,/MOSI*
X146390001Y-72549999D02*
X147240000Y-71700000D01*
X146064999Y-72875001D02*
X146390001Y-72549999D01*
X146064999Y-74804001D02*
X146064999Y-72875001D01*
X146325011Y-75064013D02*
X146064999Y-74804001D01*
X146325011Y-119785011D02*
X146325011Y-75064013D01*
X147240000Y-120700000D02*
X146325011Y-119785011D01*
G04 #@! TO.N,/MISO*
X144700000Y-119497919D02*
X144700000Y-120700000D01*
X144700000Y-76143590D02*
X144700000Y-119497919D01*
X143524999Y-74968589D02*
X144700000Y-76143590D01*
X143524999Y-72875001D02*
X143524999Y-74968589D01*
X144700000Y-71700000D02*
X143524999Y-72875001D01*
G04 #@! TO.N,/TFT3V*
X145549999Y-75089999D02*
X144700000Y-74240000D01*
X145875001Y-75415001D02*
X145549999Y-75089999D01*
X145875001Y-122064999D02*
X145875001Y-75415001D01*
X144700000Y-123240000D02*
X145875001Y-122064999D01*
G04 #@! TO.N,/SCLK*
X142160000Y-119497919D02*
X142160000Y-120700000D01*
X142858333Y-118799586D02*
X142160000Y-119497919D01*
X142858333Y-78109103D02*
X142858333Y-118799586D01*
X140984999Y-76235769D02*
X142858333Y-78109103D01*
X140984999Y-72875001D02*
X140984999Y-76235769D01*
X142160000Y-71700000D02*
X140984999Y-72875001D01*
G04 #@! TO.N,/TFTCS*
X143009999Y-75089999D02*
X142160000Y-74240000D01*
X143335001Y-75415001D02*
X143009999Y-75089999D01*
X143335001Y-122064999D02*
X143335001Y-75415001D01*
X142160000Y-123240000D02*
X143335001Y-122064999D01*
G04 #@! TO.N,/RT_CS*
X140469999Y-122390001D02*
X139620000Y-123240000D01*
X140208331Y-98136001D02*
X140800000Y-98727670D01*
X140795001Y-96277329D02*
X140208331Y-96863999D01*
X140795001Y-94472671D02*
X140795001Y-96277329D01*
X139620000Y-75507180D02*
X140795001Y-76682181D01*
X140800000Y-122060000D02*
X140469999Y-122390001D01*
X139620000Y-74240000D02*
X139620000Y-75507180D01*
X140800000Y-98727670D02*
X140800000Y-122060000D01*
X140795001Y-76682181D02*
X140795001Y-92027329D01*
X140795001Y-92027329D02*
X140208331Y-92613999D01*
X140208331Y-96863999D02*
X140208331Y-98136001D01*
X140208331Y-92613999D02*
X140208331Y-93886001D01*
X140208331Y-93886001D02*
X140795001Y-94472671D01*
G04 #@! TO.N,/EEDATA*
X136230001Y-72549999D02*
X137080000Y-71700000D01*
X135904999Y-72875001D02*
X136230001Y-72549999D01*
X135904999Y-119524999D02*
X135904999Y-72875001D01*
X137080000Y-120700000D02*
X135904999Y-119524999D01*
G04 #@! TO.N,/EECLK*
X137929999Y-122390001D02*
X137080000Y-123240000D01*
X138255001Y-122064999D02*
X137929999Y-122390001D01*
X138255001Y-75415001D02*
X138255001Y-122064999D01*
X137080000Y-74240000D02*
X138255001Y-75415001D01*
G04 #@! TO.N,/lbump*
X130824999Y-74804001D02*
X130824999Y-70404195D01*
X130824999Y-70404195D02*
X128620804Y-68200000D01*
X129291665Y-76337335D02*
X130824999Y-74804001D01*
X132000000Y-123240000D02*
X130824999Y-122064999D01*
X122498025Y-68200000D02*
X121600000Y-68200000D01*
X128620804Y-68200000D02*
X122498025Y-68200000D01*
X129291665Y-98136001D02*
X129291665Y-76337335D01*
X130824999Y-122064999D02*
X130824999Y-99669335D01*
X130824999Y-99669335D02*
X129291665Y-98136001D01*
G04 #@! TO.N,/rbump*
X129460000Y-120700000D02*
X128200000Y-119440000D01*
X128200000Y-119440000D02*
X128200000Y-71098033D01*
X128200000Y-71098033D02*
X128600000Y-70698033D01*
X128600000Y-70698033D02*
X128600000Y-69800008D01*
G04 #@! TO.N,/select*
X134540000Y-120700000D02*
X134540000Y-100060000D01*
X134540000Y-100060000D02*
X134800000Y-99800000D01*
G04 #@! TO.N,/start*
X132000000Y-120700000D02*
X132000000Y-94200000D01*
X132000000Y-94200000D02*
X134800000Y-91400000D01*
G04 #@! TD*
M02*
