G04 #@! TF.GenerationSoftware,KiCad,Pcbnew,(5.0.2)-1*
G04 #@! TF.CreationDate,2019-11-02T01:01:46-04:00*
G04 #@! TF.ProjectId,gamepad,67616d65-7061-4642-9e6b-696361645f70,rev?*
G04 #@! TF.SameCoordinates,Original*
G04 #@! TF.FileFunction,Copper,L2,Bot*
G04 #@! TF.FilePolarity,Positive*
%FSLAX46Y46*%
G04 Gerber Fmt 4.6, Leading zero omitted, Abs format (unit mm)*
G04 Created by KiCad (PCBNEW (5.0.2)-1) date 11/2/2019 1:01:46 AM*
%MOMM*%
%LPD*%
G01*
G04 APERTURE LIST*
G04 #@! TA.AperFunction,ComponentPad*
%ADD10C,2.000000*%
G04 #@! TD*
G04 #@! TA.AperFunction,ComponentPad*
%ADD11C,1.900000*%
G04 #@! TD*
G04 #@! TA.AperFunction,ComponentPad*
%ADD12C,1.600000*%
G04 #@! TD*
G04 #@! TA.AperFunction,ComponentPad*
%ADD13O,1.700000X1.700000*%
G04 #@! TD*
G04 #@! TA.AperFunction,ComponentPad*
%ADD14R,1.700000X1.700000*%
G04 #@! TD*
G04 #@! TA.AperFunction,ViaPad*
%ADD15C,1.270000*%
G04 #@! TD*
G04 #@! TA.AperFunction,ViaPad*
%ADD16C,0.800000*%
G04 #@! TD*
G04 #@! TA.AperFunction,Conductor*
%ADD17C,0.250000*%
G04 #@! TD*
G04 #@! TA.AperFunction,Conductor*
%ADD18C,1.016000*%
G04 #@! TD*
G04 #@! TA.AperFunction,Conductor*
%ADD19C,0.254000*%
G04 #@! TD*
G04 APERTURE END LIST*
D10*
G04 #@! TO.P,SW6,1*
G04 #@! TO.N,GND*
X150033332Y-93250000D03*
G04 #@! TO.P,SW6,2*
G04 #@! TO.N,/b*
X150033332Y-97500000D03*
G04 #@! TO.P,SW6,1*
G04 #@! TO.N,GND*
X141533332Y-93250000D03*
G04 #@! TO.P,SW6,2*
G04 #@! TO.N,/b*
X141533332Y-97500000D03*
G04 #@! TD*
G04 #@! TO.P,SW1,1*
G04 #@! TO.N,/up*
X101200000Y-85750000D03*
G04 #@! TO.P,SW1,2*
G04 #@! TO.N,GND*
X101200000Y-90000000D03*
G04 #@! TO.P,SW1,1*
G04 #@! TO.N,/up*
X92700000Y-85750000D03*
G04 #@! TO.P,SW1,2*
G04 #@! TO.N,GND*
X92700000Y-90000000D03*
G04 #@! TD*
G04 #@! TO.P,SW2,1*
G04 #@! TO.N,GND*
X111200000Y-93250000D03*
G04 #@! TO.P,SW2,2*
G04 #@! TO.N,/right*
X111200000Y-97500000D03*
G04 #@! TO.P,SW2,1*
G04 #@! TO.N,GND*
X102700000Y-93250000D03*
G04 #@! TO.P,SW2,2*
G04 #@! TO.N,/right*
X102700000Y-97500000D03*
G04 #@! TD*
G04 #@! TO.P,SW4,1*
G04 #@! TO.N,GND*
X91200000Y-93250000D03*
G04 #@! TO.P,SW4,2*
G04 #@! TO.N,/down*
X91200000Y-97500000D03*
G04 #@! TO.P,SW4,1*
G04 #@! TO.N,GND*
X82700000Y-93250000D03*
G04 #@! TO.P,SW4,2*
G04 #@! TO.N,/down*
X82700000Y-97500000D03*
G04 #@! TD*
G04 #@! TO.P,SW5,1*
G04 #@! TO.N,/x*
X130616666Y-93250000D03*
G04 #@! TO.P,SW5,2*
G04 #@! TO.N,GND*
X130616666Y-97500000D03*
G04 #@! TO.P,SW5,1*
G04 #@! TO.N,/x*
X122116666Y-93250000D03*
G04 #@! TO.P,SW5,2*
G04 #@! TO.N,GND*
X122116666Y-97500000D03*
G04 #@! TD*
G04 #@! TO.P,SW8,1*
G04 #@! TO.N,GND*
X179450000Y-100750000D03*
G04 #@! TO.P,SW8,2*
G04 #@! TO.N,/y*
X179450000Y-105000000D03*
G04 #@! TO.P,SW8,1*
G04 #@! TO.N,GND*
X170950000Y-100750000D03*
G04 #@! TO.P,SW8,2*
G04 #@! TO.N,/y*
X170950000Y-105000000D03*
G04 #@! TD*
G04 #@! TO.P,SW9,1*
G04 #@! TO.N,/start*
X189450000Y-93250000D03*
G04 #@! TO.P,SW9,2*
G04 #@! TO.N,GND*
X189450000Y-97500000D03*
G04 #@! TO.P,SW9,1*
G04 #@! TO.N,/start*
X180950000Y-93250000D03*
G04 #@! TO.P,SW9,2*
G04 #@! TO.N,GND*
X180950000Y-97500000D03*
G04 #@! TD*
G04 #@! TO.P,SW10,1*
G04 #@! TO.N,GND*
X169450000Y-93250000D03*
G04 #@! TO.P,SW10,2*
G04 #@! TO.N,/select*
X169450000Y-97500000D03*
G04 #@! TO.P,SW10,1*
G04 #@! TO.N,GND*
X160950000Y-93250000D03*
G04 #@! TO.P,SW10,2*
G04 #@! TO.N,/select*
X160950000Y-97500000D03*
G04 #@! TD*
G04 #@! TO.P,SW3,1*
G04 #@! TO.N,/left*
X101200000Y-100750000D03*
G04 #@! TO.P,SW3,2*
G04 #@! TO.N,GND*
X101200000Y-105000000D03*
G04 #@! TO.P,SW3,1*
G04 #@! TO.N,/left*
X92700000Y-100750000D03*
G04 #@! TO.P,SW3,2*
G04 #@! TO.N,GND*
X92700000Y-105000000D03*
G04 #@! TD*
G04 #@! TO.P,SW7,1*
G04 #@! TO.N,/a*
X179450000Y-85750000D03*
G04 #@! TO.P,SW7,2*
G04 #@! TO.N,GND*
X179450000Y-90000000D03*
G04 #@! TO.P,SW7,1*
G04 #@! TO.N,/a*
X170950000Y-85750000D03*
G04 #@! TO.P,SW7,2*
G04 #@! TO.N,GND*
X170950000Y-90000000D03*
G04 #@! TD*
D11*
G04 #@! TO.P,SW11,4*
G04 #@! TO.N,N/C*
X100250000Y-68500000D03*
G04 #@! TO.P,SW11,3*
X93250000Y-68500000D03*
D12*
G04 #@! TO.P,SW11,2*
G04 #@! TO.N,GND*
X99000000Y-66000000D03*
G04 #@! TO.P,SW11,1*
G04 #@! TO.N,/lbump*
X94500000Y-66000000D03*
G04 #@! TD*
D11*
G04 #@! TO.P,SW12,4*
G04 #@! TO.N,N/C*
X178500000Y-68500000D03*
G04 #@! TO.P,SW12,3*
X171500000Y-68500000D03*
D12*
G04 #@! TO.P,SW12,2*
G04 #@! TO.N,/rbump*
X177250000Y-66000000D03*
G04 #@! TO.P,SW12,1*
G04 #@! TO.N,GND*
X172750000Y-66000000D03*
G04 #@! TD*
D13*
G04 #@! TO.P,JP2,40*
G04 #@! TO.N,Net-(JP2-Pad40)*
X121840000Y-123240000D03*
G04 #@! TO.P,JP2,39*
G04 #@! TO.N,GND*
X121840000Y-120700000D03*
G04 #@! TO.P,JP2,38*
G04 #@! TO.N,/x*
X124380000Y-123240000D03*
G04 #@! TO.P,JP2,37*
G04 #@! TO.N,/down*
X124380000Y-120700000D03*
G04 #@! TO.P,JP2,36*
G04 #@! TO.N,/up*
X126920000Y-123240000D03*
G04 #@! TO.P,JP2,35*
G04 #@! TO.N,/right*
X126920000Y-120700000D03*
G04 #@! TO.P,JP2,34*
G04 #@! TO.N,GND*
X129460000Y-123240000D03*
G04 #@! TO.P,JP2,33*
G04 #@! TO.N,/rbump*
X129460000Y-120700000D03*
G04 #@! TO.P,JP2,32*
G04 #@! TO.N,/lbump*
X132000000Y-123240000D03*
G04 #@! TO.P,JP2,31*
G04 #@! TO.N,/start*
X132000000Y-120700000D03*
G04 #@! TO.P,JP2,30*
G04 #@! TO.N,GND*
X134540000Y-123240000D03*
G04 #@! TO.P,JP2,29*
G04 #@! TO.N,/select*
X134540000Y-120700000D03*
G04 #@! TO.P,JP2,28*
G04 #@! TO.N,/EECLK*
X137080000Y-123240000D03*
G04 #@! TO.P,JP2,27*
G04 #@! TO.N,/EEDATA*
X137080000Y-120700000D03*
G04 #@! TO.P,JP2,26*
G04 #@! TO.N,/RT_CS*
X139620000Y-123240000D03*
G04 #@! TO.P,JP2,25*
G04 #@! TO.N,GND*
X139620000Y-120700000D03*
G04 #@! TO.P,JP2,24*
G04 #@! TO.N,/TFTCS*
X142160000Y-123240000D03*
G04 #@! TO.P,JP2,23*
G04 #@! TO.N,/SCLK*
X142160000Y-120700000D03*
G04 #@! TO.P,JP2,22*
G04 #@! TO.N,/TFT3V*
X144700000Y-123240000D03*
G04 #@! TO.P,JP2,21*
G04 #@! TO.N,/MISO*
X144700000Y-120700000D03*
G04 #@! TO.P,JP2,20*
G04 #@! TO.N,GND*
X147240000Y-123240000D03*
G04 #@! TO.P,JP2,19*
G04 #@! TO.N,/MOSI*
X147240000Y-120700000D03*
G04 #@! TO.P,JP2,18*
G04 #@! TO.N,/RT_INT*
X149780000Y-123240000D03*
G04 #@! TO.P,JP2,17*
G04 #@! TO.N,/3V3*
X149780000Y-120700000D03*
G04 #@! TO.P,JP2,16*
G04 #@! TO.N,/GPIO23*
X152320000Y-123240000D03*
G04 #@! TO.P,JP2,15*
G04 #@! TO.N,/GPIO22*
X152320000Y-120700000D03*
G04 #@! TO.P,JP2,14*
G04 #@! TO.N,GND*
X154860000Y-123240000D03*
G04 #@! TO.P,JP2,13*
G04 #@! TO.N,/GPIO27*
X154860000Y-120700000D03*
G04 #@! TO.P,JP2,12*
G04 #@! TO.N,/y*
X157400000Y-123240000D03*
G04 #@! TO.P,JP2,11*
G04 #@! TO.N,/GPIO17*
X157400000Y-120700000D03*
G04 #@! TO.P,JP2,10*
G04 #@! TO.N,/b*
X159940000Y-123240000D03*
G04 #@! TO.P,JP2,9*
G04 #@! TO.N,GND*
X159940000Y-120700000D03*
G04 #@! TO.P,JP2,8*
G04 #@! TO.N,/a*
X162480000Y-123240000D03*
G04 #@! TO.P,JP2,7*
G04 #@! TO.N,/left*
X162480000Y-120700000D03*
G04 #@! TO.P,JP2,6*
G04 #@! TO.N,GND*
X165020000Y-123240000D03*
G04 #@! TO.P,JP2,5*
G04 #@! TO.N,/SCK*
X165020000Y-120700000D03*
G04 #@! TO.P,JP2,4*
G04 #@! TO.N,/5V*
X167560000Y-123240000D03*
G04 #@! TO.P,JP2,3*
G04 #@! TO.N,/SDA*
X167560000Y-120700000D03*
G04 #@! TO.P,JP2,2*
G04 #@! TO.N,/5V*
X170100000Y-123240000D03*
D14*
G04 #@! TO.P,JP2,1*
G04 #@! TO.N,/3V3*
X170100000Y-120700000D03*
G04 #@! TD*
D13*
G04 #@! TO.P,JP1,40*
G04 #@! TO.N,Net-(JP1-Pad40)*
X121840000Y-74240000D03*
G04 #@! TO.P,JP1,39*
G04 #@! TO.N,GND*
X121840000Y-71700000D03*
G04 #@! TO.P,JP1,38*
G04 #@! TO.N,Net-(JP1-Pad38)*
X124380000Y-74240000D03*
G04 #@! TO.P,JP1,37*
G04 #@! TO.N,Net-(JP1-Pad37)*
X124380000Y-71700000D03*
G04 #@! TO.P,JP1,36*
G04 #@! TO.N,Net-(JP1-Pad36)*
X126920000Y-74240000D03*
G04 #@! TO.P,JP1,35*
G04 #@! TO.N,Net-(JP1-Pad35)*
X126920000Y-71700000D03*
G04 #@! TO.P,JP1,34*
G04 #@! TO.N,GND*
X129460000Y-74240000D03*
G04 #@! TO.P,JP1,33*
G04 #@! TO.N,Net-(JP1-Pad33)*
X129460000Y-71700000D03*
G04 #@! TO.P,JP1,32*
G04 #@! TO.N,Net-(JP1-Pad32)*
X132000000Y-74240000D03*
G04 #@! TO.P,JP1,31*
G04 #@! TO.N,Net-(JP1-Pad31)*
X132000000Y-71700000D03*
G04 #@! TO.P,JP1,30*
G04 #@! TO.N,GND*
X134540000Y-74240000D03*
G04 #@! TO.P,JP1,29*
G04 #@! TO.N,Net-(JP1-Pad29)*
X134540000Y-71700000D03*
G04 #@! TO.P,JP1,28*
G04 #@! TO.N,/EECLK*
X137080000Y-74240000D03*
G04 #@! TO.P,JP1,27*
G04 #@! TO.N,/EEDATA*
X137080000Y-71700000D03*
G04 #@! TO.P,JP1,26*
G04 #@! TO.N,/RT_CS*
X139620000Y-74240000D03*
G04 #@! TO.P,JP1,25*
G04 #@! TO.N,GND*
X139620000Y-71700000D03*
G04 #@! TO.P,JP1,24*
G04 #@! TO.N,/TFTCS*
X142160000Y-74240000D03*
G04 #@! TO.P,JP1,23*
G04 #@! TO.N,/SCLK*
X142160000Y-71700000D03*
G04 #@! TO.P,JP1,22*
G04 #@! TO.N,/TFT3V*
X144700000Y-74240000D03*
G04 #@! TO.P,JP1,21*
G04 #@! TO.N,/MISO*
X144700000Y-71700000D03*
G04 #@! TO.P,JP1,20*
G04 #@! TO.N,GND*
X147240000Y-74240000D03*
G04 #@! TO.P,JP1,19*
G04 #@! TO.N,/MOSI*
X147240000Y-71700000D03*
G04 #@! TO.P,JP1,18*
G04 #@! TO.N,/RT_INT*
X149780000Y-74240000D03*
G04 #@! TO.P,JP1,17*
G04 #@! TO.N,/3V3*
X149780000Y-71700000D03*
G04 #@! TO.P,JP1,16*
G04 #@! TO.N,/GPIO23*
X152320000Y-74240000D03*
G04 #@! TO.P,JP1,15*
G04 #@! TO.N,/GPIO22*
X152320000Y-71700000D03*
G04 #@! TO.P,JP1,14*
G04 #@! TO.N,GND*
X154860000Y-74240000D03*
G04 #@! TO.P,JP1,13*
G04 #@! TO.N,/GPIO27*
X154860000Y-71700000D03*
G04 #@! TO.P,JP1,12*
G04 #@! TO.N,Net-(JP1-Pad12)*
X157400000Y-74240000D03*
G04 #@! TO.P,JP1,11*
G04 #@! TO.N,/GPIO17*
X157400000Y-71700000D03*
G04 #@! TO.P,JP1,10*
G04 #@! TO.N,Net-(JP1-Pad10)*
X159940000Y-74240000D03*
G04 #@! TO.P,JP1,9*
G04 #@! TO.N,GND*
X159940000Y-71700000D03*
G04 #@! TO.P,JP1,8*
G04 #@! TO.N,Net-(JP1-Pad8)*
X162480000Y-74240000D03*
G04 #@! TO.P,JP1,7*
G04 #@! TO.N,Net-(JP1-Pad7)*
X162480000Y-71700000D03*
G04 #@! TO.P,JP1,6*
G04 #@! TO.N,GND*
X165020000Y-74240000D03*
G04 #@! TO.P,JP1,5*
G04 #@! TO.N,/SCK*
X165020000Y-71700000D03*
G04 #@! TO.P,JP1,4*
G04 #@! TO.N,/5V*
X167560000Y-74240000D03*
G04 #@! TO.P,JP1,3*
G04 #@! TO.N,/SDA*
X167560000Y-71700000D03*
G04 #@! TO.P,JP1,2*
G04 #@! TO.N,/5V*
X170100000Y-74240000D03*
D14*
G04 #@! TO.P,JP1,1*
G04 #@! TO.N,/3V3*
X170100000Y-71700000D03*
G04 #@! TD*
D15*
G04 #@! TO.N,/right*
X120600000Y-99200000D03*
G04 #@! TO.N,/up*
X124000000Y-86000000D03*
G04 #@! TO.N,/down*
X119200000Y-95800000D03*
G04 #@! TO.N,/left*
X162200000Y-101800000D03*
G04 #@! TO.N,/y*
X157200000Y-105200000D03*
G04 #@! TO.N,/b*
X159200000Y-101710000D03*
G04 #@! TO.N,/x*
X116800000Y-93000000D03*
G04 #@! TO.N,/a*
X163600000Y-89400000D03*
G04 #@! TO.N,/3V3*
X170200000Y-117400000D03*
G04 #@! TO.N,/5V*
X172800000Y-76600000D03*
G04 #@! TO.N,/lbump*
X121600000Y-68200000D03*
G04 #@! TO.N,/rbump*
X128600000Y-69800008D03*
D16*
G04 #@! TO.N,/select*
X134800000Y-99800000D03*
G04 #@! TO.N,/start*
X134800000Y-91400000D03*
G04 #@! TD*
D17*
G04 #@! TO.N,GND*
X122116666Y-97500000D02*
X123530879Y-97500000D01*
X122689999Y-70850001D02*
X121840000Y-71700000D01*
X122689999Y-67869197D02*
X122689999Y-70850001D01*
X120820802Y-66000000D02*
X122689999Y-67869197D01*
X99000000Y-66000000D02*
X120820802Y-66000000D01*
X127540000Y-66000000D02*
X121840000Y-71700000D01*
X172750000Y-66000000D02*
X127540000Y-66000000D01*
X164170001Y-73390001D02*
X165020000Y-74240000D01*
X163844999Y-73064999D02*
X164170001Y-73390001D01*
X161304999Y-73064999D02*
X163844999Y-73064999D01*
X159940000Y-71700000D02*
X161304999Y-73064999D01*
G04 #@! TO.N,/right*
X112900000Y-99200000D02*
X111200000Y-97500000D01*
X120600000Y-99200000D02*
X112900000Y-99200000D01*
X111200000Y-97500000D02*
X102700000Y-97500000D01*
G04 #@! TO.N,/up*
X101450000Y-86000000D02*
X101200000Y-85750000D01*
X124000000Y-86000000D02*
X101450000Y-86000000D01*
X94114213Y-85750000D02*
X101200000Y-85750000D01*
X92700000Y-85750000D02*
X94114213Y-85750000D01*
G04 #@! TO.N,/down*
X92900000Y-95800000D02*
X91200000Y-97500000D01*
X119200000Y-95800000D02*
X92900000Y-95800000D01*
X91200000Y-97500000D02*
X82700000Y-97500000D01*
G04 #@! TO.N,/left*
X99785787Y-100750000D02*
X92700000Y-100750000D01*
X101200000Y-100750000D02*
X99785787Y-100750000D01*
X101200000Y-100750000D02*
X161150000Y-100750000D01*
X161150000Y-100750000D02*
X162200000Y-101800000D01*
G04 #@! TO.N,/y*
X170750000Y-105200000D02*
X170950000Y-105000000D01*
X157200000Y-105200000D02*
X170750000Y-105200000D01*
X170950000Y-105000000D02*
X179450000Y-105000000D01*
G04 #@! TO.N,/b*
X148619119Y-97500000D02*
X141533332Y-97500000D01*
X150033332Y-97500000D02*
X148619119Y-97500000D01*
X160690000Y-103200000D02*
X159200000Y-101710000D01*
X151733332Y-95800000D02*
X170200000Y-95800000D01*
X150033332Y-97500000D02*
X151733332Y-95800000D01*
X170200000Y-95800000D02*
X171200000Y-96800000D01*
X171200000Y-96800000D02*
X171200000Y-98200000D01*
X171200000Y-98200000D02*
X166200000Y-103200000D01*
X166200000Y-103200000D02*
X160690000Y-103200000D01*
G04 #@! TO.N,/x*
X121866666Y-93000000D02*
X122116666Y-93250000D01*
X116800000Y-93000000D02*
X121866666Y-93000000D01*
X122116666Y-93250000D02*
X130616666Y-93250000D01*
G04 #@! TO.N,/a*
X179450000Y-85750000D02*
X170950000Y-85750000D01*
X170950000Y-85750000D02*
X167250000Y-85750000D01*
X167250000Y-85750000D02*
X163600000Y-89400000D01*
G04 #@! TO.N,/3V3*
X153080000Y-117400000D02*
X149780000Y-120700000D01*
X170200000Y-117400000D02*
X153080000Y-117400000D01*
D18*
G04 #@! TO.N,/5V*
X172460000Y-76600000D02*
X170100000Y-74240000D01*
X172800000Y-76600000D02*
X172460000Y-76600000D01*
D17*
G04 #@! TO.N,/lbump*
X94500000Y-66000000D02*
X99024999Y-70524999D01*
X119275001Y-70524999D02*
X120965001Y-68834999D01*
X120965001Y-68834999D02*
X121600000Y-68200000D01*
X99024999Y-70524999D02*
X119275001Y-70524999D01*
G04 #@! TO.N,/rbump*
X173449992Y-69800008D02*
X129498025Y-69800008D01*
X177250000Y-66000000D02*
X173449992Y-69800008D01*
X129498025Y-69800008D02*
X128600000Y-69800008D01*
G04 #@! TO.N,/select*
X158650000Y-99800000D02*
X160950000Y-97500000D01*
X134800000Y-99800000D02*
X158650000Y-99800000D01*
X162364213Y-97500000D02*
X169450000Y-97500000D01*
X160950000Y-97500000D02*
X162364213Y-97500000D01*
G04 #@! TO.N,/start*
X179100000Y-91400000D02*
X180950000Y-93250000D01*
X134800000Y-91400000D02*
X179100000Y-91400000D01*
X182364213Y-93250000D02*
X189450000Y-93250000D01*
X180950000Y-93250000D02*
X182364213Y-93250000D01*
G04 #@! TD*
D19*
G04 #@! TO.N,GND*
G36*
X171496136Y-65245995D02*
X171303035Y-65783223D01*
X171330222Y-66353454D01*
X171496136Y-66754005D01*
X171742253Y-66828139D01*
X171655392Y-66915000D01*
X171184724Y-66915000D01*
X170602170Y-67156302D01*
X170156302Y-67602170D01*
X169915000Y-68184724D01*
X169915000Y-68815276D01*
X170008087Y-69040008D01*
X129636051Y-69040008D01*
X129319397Y-68723354D01*
X128852619Y-68530008D01*
X128347381Y-68530008D01*
X127880603Y-68723354D01*
X127523346Y-69080611D01*
X127330000Y-69547389D01*
X127330000Y-70052627D01*
X127426978Y-70286752D01*
X127066256Y-70215000D01*
X126773744Y-70215000D01*
X126340582Y-70301161D01*
X125849375Y-70629375D01*
X125650000Y-70927761D01*
X125450625Y-70629375D01*
X124959418Y-70301161D01*
X124526256Y-70215000D01*
X124233744Y-70215000D01*
X123800582Y-70301161D01*
X123309375Y-70629375D01*
X123096157Y-70948478D01*
X123035183Y-70818642D01*
X122606924Y-70428355D01*
X122196890Y-70258524D01*
X121967000Y-70379845D01*
X121967000Y-71573000D01*
X121987000Y-71573000D01*
X121987000Y-71827000D01*
X121967000Y-71827000D01*
X121967000Y-71847000D01*
X121713000Y-71847000D01*
X121713000Y-71827000D01*
X120519181Y-71827000D01*
X120398514Y-72056892D01*
X120644817Y-72581358D01*
X121069786Y-72968647D01*
X120769375Y-73169375D01*
X120441161Y-73660582D01*
X120325908Y-74240000D01*
X120441161Y-74819418D01*
X120769375Y-75310625D01*
X121260582Y-75638839D01*
X121693744Y-75725000D01*
X121986256Y-75725000D01*
X122419418Y-75638839D01*
X122910625Y-75310625D01*
X123110000Y-75012239D01*
X123309375Y-75310625D01*
X123800582Y-75638839D01*
X124233744Y-75725000D01*
X124526256Y-75725000D01*
X124959418Y-75638839D01*
X125450625Y-75310625D01*
X125650000Y-75012239D01*
X125849375Y-75310625D01*
X126340582Y-75638839D01*
X126773744Y-75725000D01*
X127066256Y-75725000D01*
X127499418Y-75638839D01*
X127990625Y-75310625D01*
X128203843Y-74991522D01*
X128264817Y-75121358D01*
X128693076Y-75511645D01*
X129103110Y-75681476D01*
X129333000Y-75560155D01*
X129333000Y-74367000D01*
X129313000Y-74367000D01*
X129313000Y-74113000D01*
X129333000Y-74113000D01*
X129333000Y-74093000D01*
X129587000Y-74093000D01*
X129587000Y-74113000D01*
X129607000Y-74113000D01*
X129607000Y-74367000D01*
X129587000Y-74367000D01*
X129587000Y-75560155D01*
X129816890Y-75681476D01*
X130226924Y-75511645D01*
X130655183Y-75121358D01*
X130716157Y-74991522D01*
X130929375Y-75310625D01*
X131420582Y-75638839D01*
X131853744Y-75725000D01*
X132146256Y-75725000D01*
X132579418Y-75638839D01*
X133070625Y-75310625D01*
X133283843Y-74991522D01*
X133344817Y-75121358D01*
X133773076Y-75511645D01*
X134183110Y-75681476D01*
X134413000Y-75560155D01*
X134413000Y-74367000D01*
X134393000Y-74367000D01*
X134393000Y-74113000D01*
X134413000Y-74113000D01*
X134413000Y-74093000D01*
X134667000Y-74093000D01*
X134667000Y-74113000D01*
X134687000Y-74113000D01*
X134687000Y-74367000D01*
X134667000Y-74367000D01*
X134667000Y-75560155D01*
X134896890Y-75681476D01*
X135306924Y-75511645D01*
X135735183Y-75121358D01*
X135796157Y-74991522D01*
X136009375Y-75310625D01*
X136500582Y-75638839D01*
X136933744Y-75725000D01*
X137226256Y-75725000D01*
X137659418Y-75638839D01*
X138150625Y-75310625D01*
X138350000Y-75012239D01*
X138549375Y-75310625D01*
X139040582Y-75638839D01*
X139473744Y-75725000D01*
X139766256Y-75725000D01*
X140199418Y-75638839D01*
X140690625Y-75310625D01*
X140890000Y-75012239D01*
X141089375Y-75310625D01*
X141580582Y-75638839D01*
X142013744Y-75725000D01*
X142306256Y-75725000D01*
X142739418Y-75638839D01*
X143230625Y-75310625D01*
X143430000Y-75012239D01*
X143629375Y-75310625D01*
X144120582Y-75638839D01*
X144553744Y-75725000D01*
X144846256Y-75725000D01*
X145279418Y-75638839D01*
X145770625Y-75310625D01*
X145983843Y-74991522D01*
X146044817Y-75121358D01*
X146473076Y-75511645D01*
X146883110Y-75681476D01*
X147113000Y-75560155D01*
X147113000Y-74367000D01*
X147093000Y-74367000D01*
X147093000Y-74113000D01*
X147113000Y-74113000D01*
X147113000Y-74093000D01*
X147367000Y-74093000D01*
X147367000Y-74113000D01*
X147387000Y-74113000D01*
X147387000Y-74367000D01*
X147367000Y-74367000D01*
X147367000Y-75560155D01*
X147596890Y-75681476D01*
X148006924Y-75511645D01*
X148435183Y-75121358D01*
X148496157Y-74991522D01*
X148709375Y-75310625D01*
X149200582Y-75638839D01*
X149633744Y-75725000D01*
X149926256Y-75725000D01*
X150359418Y-75638839D01*
X150850625Y-75310625D01*
X151050000Y-75012239D01*
X151249375Y-75310625D01*
X151740582Y-75638839D01*
X152173744Y-75725000D01*
X152466256Y-75725000D01*
X152899418Y-75638839D01*
X153390625Y-75310625D01*
X153603843Y-74991522D01*
X153664817Y-75121358D01*
X154093076Y-75511645D01*
X154503110Y-75681476D01*
X154733000Y-75560155D01*
X154733000Y-74367000D01*
X154713000Y-74367000D01*
X154713000Y-74113000D01*
X154733000Y-74113000D01*
X154733000Y-74093000D01*
X154987000Y-74093000D01*
X154987000Y-74113000D01*
X155007000Y-74113000D01*
X155007000Y-74367000D01*
X154987000Y-74367000D01*
X154987000Y-75560155D01*
X155216890Y-75681476D01*
X155626924Y-75511645D01*
X156055183Y-75121358D01*
X156116157Y-74991522D01*
X156329375Y-75310625D01*
X156820582Y-75638839D01*
X157253744Y-75725000D01*
X157546256Y-75725000D01*
X157979418Y-75638839D01*
X158470625Y-75310625D01*
X158670000Y-75012239D01*
X158869375Y-75310625D01*
X159360582Y-75638839D01*
X159793744Y-75725000D01*
X160086256Y-75725000D01*
X160519418Y-75638839D01*
X161010625Y-75310625D01*
X161210000Y-75012239D01*
X161409375Y-75310625D01*
X161900582Y-75638839D01*
X162333744Y-75725000D01*
X162626256Y-75725000D01*
X163059418Y-75638839D01*
X163550625Y-75310625D01*
X163763843Y-74991522D01*
X163824817Y-75121358D01*
X164253076Y-75511645D01*
X164663110Y-75681476D01*
X164893000Y-75560155D01*
X164893000Y-74367000D01*
X164873000Y-74367000D01*
X164873000Y-74113000D01*
X164893000Y-74113000D01*
X164893000Y-74093000D01*
X165147000Y-74093000D01*
X165147000Y-74113000D01*
X165167000Y-74113000D01*
X165167000Y-74367000D01*
X165147000Y-74367000D01*
X165147000Y-75560155D01*
X165376890Y-75681476D01*
X165786924Y-75511645D01*
X166215183Y-75121358D01*
X166276157Y-74991522D01*
X166489375Y-75310625D01*
X166980582Y-75638839D01*
X167413744Y-75725000D01*
X167706256Y-75725000D01*
X168139418Y-75638839D01*
X168630625Y-75310625D01*
X168830000Y-75012239D01*
X169029375Y-75310625D01*
X169520582Y-75638839D01*
X169953744Y-75725000D01*
X169968555Y-75725000D01*
X171572174Y-77328620D01*
X171635943Y-77424057D01*
X172014024Y-77676682D01*
X172142244Y-77702186D01*
X172547381Y-77870000D01*
X173052619Y-77870000D01*
X173519397Y-77676654D01*
X173876654Y-77319397D01*
X174070000Y-76852619D01*
X174070000Y-76347381D01*
X173876654Y-75880603D01*
X173519397Y-75523346D01*
X173052619Y-75330000D01*
X172806446Y-75330000D01*
X171588677Y-74112232D01*
X171498839Y-73660582D01*
X171170625Y-73169375D01*
X171152381Y-73157184D01*
X171197765Y-73148157D01*
X171407809Y-73007809D01*
X171548157Y-72797765D01*
X171586468Y-72605159D01*
X173015000Y-72605159D01*
X173015000Y-73394841D01*
X173317199Y-74124412D01*
X173875588Y-74682801D01*
X174605159Y-74985000D01*
X175394841Y-74985000D01*
X176124412Y-74682801D01*
X176682801Y-74124412D01*
X176985000Y-73394841D01*
X176985000Y-72605159D01*
X176682801Y-71875588D01*
X176124412Y-71317199D01*
X175394841Y-71015000D01*
X174605159Y-71015000D01*
X173875588Y-71317199D01*
X173317199Y-71875588D01*
X173015000Y-72605159D01*
X171586468Y-72605159D01*
X171597440Y-72550000D01*
X171597440Y-70850000D01*
X171548157Y-70602235D01*
X171519942Y-70560008D01*
X173375145Y-70560008D01*
X173449992Y-70574896D01*
X173524839Y-70560008D01*
X173524844Y-70560008D01*
X173746529Y-70515912D01*
X173997921Y-70347937D01*
X174040323Y-70284478D01*
X176911698Y-67413104D01*
X176964561Y-67435000D01*
X177323472Y-67435000D01*
X177156302Y-67602170D01*
X176915000Y-68184724D01*
X176915000Y-68815276D01*
X177156302Y-69397830D01*
X177602170Y-69843698D01*
X178184724Y-70085000D01*
X178815276Y-70085000D01*
X179397830Y-69843698D01*
X179843698Y-69397830D01*
X180085000Y-68815276D01*
X180085000Y-68184724D01*
X179843698Y-67602170D01*
X179397830Y-67156302D01*
X178815276Y-66915000D01*
X178364396Y-66915000D01*
X178466534Y-66812862D01*
X178685000Y-66285439D01*
X178685000Y-65714561D01*
X178583160Y-65468699D01*
X179265438Y-65542687D01*
X181360640Y-65923042D01*
X183423288Y-66452225D01*
X185442822Y-67127528D01*
X187408912Y-67945497D01*
X189311476Y-68901938D01*
X191140793Y-69991961D01*
X192887493Y-71209985D01*
X194542647Y-72549785D01*
X196097769Y-74004493D01*
X197544892Y-75566651D01*
X198876639Y-77228299D01*
X200086163Y-78980897D01*
X201167285Y-80815487D01*
X202114473Y-82722682D01*
X202922878Y-84692716D01*
X203588363Y-86715512D01*
X204107517Y-88780704D01*
X204477690Y-90877749D01*
X204696980Y-92995863D01*
X204764270Y-95124263D01*
X204679213Y-97251999D01*
X204442245Y-99368228D01*
X204054576Y-101462104D01*
X203518198Y-103522887D01*
X202835849Y-105540056D01*
X202011026Y-107503267D01*
X201047947Y-109402488D01*
X199951544Y-111227990D01*
X198727426Y-112970434D01*
X197381857Y-114620900D01*
X195921739Y-116170924D01*
X194354518Y-117612603D01*
X192688246Y-118938529D01*
X190931441Y-120141926D01*
X189093082Y-121216641D01*
X187182586Y-122157169D01*
X185209761Y-122958683D01*
X183184638Y-123617109D01*
X181117650Y-124129051D01*
X179019343Y-124491899D01*
X176899056Y-124703936D01*
X174988257Y-124765000D01*
X97013162Y-124765000D01*
X94871908Y-124688355D01*
X92754716Y-124460223D01*
X90659253Y-124081302D01*
X88596237Y-123553528D01*
X86576250Y-122879610D01*
X84609593Y-122062982D01*
X83697332Y-121605159D01*
X115015000Y-121605159D01*
X115015000Y-122394841D01*
X115317199Y-123124412D01*
X115875588Y-123682801D01*
X116605159Y-123985000D01*
X117394841Y-123985000D01*
X118124412Y-123682801D01*
X118567213Y-123240000D01*
X120325908Y-123240000D01*
X120441161Y-123819418D01*
X120769375Y-124310625D01*
X121260582Y-124638839D01*
X121693744Y-124725000D01*
X121986256Y-124725000D01*
X122419418Y-124638839D01*
X122910625Y-124310625D01*
X123110000Y-124012239D01*
X123309375Y-124310625D01*
X123800582Y-124638839D01*
X124233744Y-124725000D01*
X124526256Y-124725000D01*
X124959418Y-124638839D01*
X125450625Y-124310625D01*
X125650000Y-124012239D01*
X125849375Y-124310625D01*
X126340582Y-124638839D01*
X126773744Y-124725000D01*
X127066256Y-124725000D01*
X127499418Y-124638839D01*
X127990625Y-124310625D01*
X128203843Y-123991522D01*
X128264817Y-124121358D01*
X128693076Y-124511645D01*
X129103110Y-124681476D01*
X129333000Y-124560155D01*
X129333000Y-123367000D01*
X129313000Y-123367000D01*
X129313000Y-123113000D01*
X129333000Y-123113000D01*
X129333000Y-123093000D01*
X129587000Y-123093000D01*
X129587000Y-123113000D01*
X129607000Y-123113000D01*
X129607000Y-123367000D01*
X129587000Y-123367000D01*
X129587000Y-124560155D01*
X129816890Y-124681476D01*
X130226924Y-124511645D01*
X130655183Y-124121358D01*
X130716157Y-123991522D01*
X130929375Y-124310625D01*
X131420582Y-124638839D01*
X131853744Y-124725000D01*
X132146256Y-124725000D01*
X132579418Y-124638839D01*
X133070625Y-124310625D01*
X133283843Y-123991522D01*
X133344817Y-124121358D01*
X133773076Y-124511645D01*
X134183110Y-124681476D01*
X134413000Y-124560155D01*
X134413000Y-123367000D01*
X134393000Y-123367000D01*
X134393000Y-123113000D01*
X134413000Y-123113000D01*
X134413000Y-123093000D01*
X134667000Y-123093000D01*
X134667000Y-123113000D01*
X134687000Y-123113000D01*
X134687000Y-123367000D01*
X134667000Y-123367000D01*
X134667000Y-124560155D01*
X134896890Y-124681476D01*
X135306924Y-124511645D01*
X135735183Y-124121358D01*
X135796157Y-123991522D01*
X136009375Y-124310625D01*
X136500582Y-124638839D01*
X136933744Y-124725000D01*
X137226256Y-124725000D01*
X137659418Y-124638839D01*
X138150625Y-124310625D01*
X138350000Y-124012239D01*
X138549375Y-124310625D01*
X139040582Y-124638839D01*
X139473744Y-124725000D01*
X139766256Y-124725000D01*
X140199418Y-124638839D01*
X140690625Y-124310625D01*
X140890000Y-124012239D01*
X141089375Y-124310625D01*
X141580582Y-124638839D01*
X142013744Y-124725000D01*
X142306256Y-124725000D01*
X142739418Y-124638839D01*
X143230625Y-124310625D01*
X143430000Y-124012239D01*
X143629375Y-124310625D01*
X144120582Y-124638839D01*
X144553744Y-124725000D01*
X144846256Y-124725000D01*
X145279418Y-124638839D01*
X145770625Y-124310625D01*
X145983843Y-123991522D01*
X146044817Y-124121358D01*
X146473076Y-124511645D01*
X146883110Y-124681476D01*
X147113000Y-124560155D01*
X147113000Y-123367000D01*
X147093000Y-123367000D01*
X147093000Y-123113000D01*
X147113000Y-123113000D01*
X147113000Y-123093000D01*
X147367000Y-123093000D01*
X147367000Y-123113000D01*
X147387000Y-123113000D01*
X147387000Y-123367000D01*
X147367000Y-123367000D01*
X147367000Y-124560155D01*
X147596890Y-124681476D01*
X148006924Y-124511645D01*
X148435183Y-124121358D01*
X148496157Y-123991522D01*
X148709375Y-124310625D01*
X149200582Y-124638839D01*
X149633744Y-124725000D01*
X149926256Y-124725000D01*
X150359418Y-124638839D01*
X150850625Y-124310625D01*
X151050000Y-124012239D01*
X151249375Y-124310625D01*
X151740582Y-124638839D01*
X152173744Y-124725000D01*
X152466256Y-124725000D01*
X152899418Y-124638839D01*
X153390625Y-124310625D01*
X153603843Y-123991522D01*
X153664817Y-124121358D01*
X154093076Y-124511645D01*
X154503110Y-124681476D01*
X154733000Y-124560155D01*
X154733000Y-123367000D01*
X154713000Y-123367000D01*
X154713000Y-123113000D01*
X154733000Y-123113000D01*
X154733000Y-123093000D01*
X154987000Y-123093000D01*
X154987000Y-123113000D01*
X155007000Y-123113000D01*
X155007000Y-123367000D01*
X154987000Y-123367000D01*
X154987000Y-124560155D01*
X155216890Y-124681476D01*
X155626924Y-124511645D01*
X156055183Y-124121358D01*
X156116157Y-123991522D01*
X156329375Y-124310625D01*
X156820582Y-124638839D01*
X157253744Y-124725000D01*
X157546256Y-124725000D01*
X157979418Y-124638839D01*
X158470625Y-124310625D01*
X158670000Y-124012239D01*
X158869375Y-124310625D01*
X159360582Y-124638839D01*
X159793744Y-124725000D01*
X160086256Y-124725000D01*
X160519418Y-124638839D01*
X161010625Y-124310625D01*
X161210000Y-124012239D01*
X161409375Y-124310625D01*
X161900582Y-124638839D01*
X162333744Y-124725000D01*
X162626256Y-124725000D01*
X163059418Y-124638839D01*
X163550625Y-124310625D01*
X163763843Y-123991522D01*
X163824817Y-124121358D01*
X164253076Y-124511645D01*
X164663110Y-124681476D01*
X164893000Y-124560155D01*
X164893000Y-123367000D01*
X164873000Y-123367000D01*
X164873000Y-123113000D01*
X164893000Y-123113000D01*
X164893000Y-123093000D01*
X165147000Y-123093000D01*
X165147000Y-123113000D01*
X165167000Y-123113000D01*
X165167000Y-123367000D01*
X165147000Y-123367000D01*
X165147000Y-124560155D01*
X165376890Y-124681476D01*
X165786924Y-124511645D01*
X166215183Y-124121358D01*
X166276157Y-123991522D01*
X166489375Y-124310625D01*
X166980582Y-124638839D01*
X167413744Y-124725000D01*
X167706256Y-124725000D01*
X168139418Y-124638839D01*
X168630625Y-124310625D01*
X168830000Y-124012239D01*
X169029375Y-124310625D01*
X169520582Y-124638839D01*
X169953744Y-124725000D01*
X170246256Y-124725000D01*
X170679418Y-124638839D01*
X171170625Y-124310625D01*
X171498839Y-123819418D01*
X171614092Y-123240000D01*
X171498839Y-122660582D01*
X171170625Y-122169375D01*
X171152381Y-122157184D01*
X171197765Y-122148157D01*
X171407809Y-122007809D01*
X171548157Y-121797765D01*
X171586468Y-121605159D01*
X173015000Y-121605159D01*
X173015000Y-122394841D01*
X173317199Y-123124412D01*
X173875588Y-123682801D01*
X174605159Y-123985000D01*
X175394841Y-123985000D01*
X176124412Y-123682801D01*
X176682801Y-123124412D01*
X176985000Y-122394841D01*
X176985000Y-121605159D01*
X176682801Y-120875588D01*
X176124412Y-120317199D01*
X175394841Y-120015000D01*
X174605159Y-120015000D01*
X173875588Y-120317199D01*
X173317199Y-120875588D01*
X173015000Y-121605159D01*
X171586468Y-121605159D01*
X171597440Y-121550000D01*
X171597440Y-119850000D01*
X171548157Y-119602235D01*
X171407809Y-119392191D01*
X171197765Y-119251843D01*
X170950000Y-119202560D01*
X169250000Y-119202560D01*
X169002235Y-119251843D01*
X168792191Y-119392191D01*
X168651843Y-119602235D01*
X168642816Y-119647619D01*
X168630625Y-119629375D01*
X168139418Y-119301161D01*
X167706256Y-119215000D01*
X167413744Y-119215000D01*
X166980582Y-119301161D01*
X166489375Y-119629375D01*
X166290000Y-119927761D01*
X166090625Y-119629375D01*
X165599418Y-119301161D01*
X165166256Y-119215000D01*
X164873744Y-119215000D01*
X164440582Y-119301161D01*
X163949375Y-119629375D01*
X163750000Y-119927761D01*
X163550625Y-119629375D01*
X163059418Y-119301161D01*
X162626256Y-119215000D01*
X162333744Y-119215000D01*
X161900582Y-119301161D01*
X161409375Y-119629375D01*
X161196157Y-119948478D01*
X161135183Y-119818642D01*
X160706924Y-119428355D01*
X160296890Y-119258524D01*
X160067000Y-119379845D01*
X160067000Y-120573000D01*
X160087000Y-120573000D01*
X160087000Y-120827000D01*
X160067000Y-120827000D01*
X160067000Y-120847000D01*
X159813000Y-120847000D01*
X159813000Y-120827000D01*
X159793000Y-120827000D01*
X159793000Y-120573000D01*
X159813000Y-120573000D01*
X159813000Y-119379845D01*
X159583110Y-119258524D01*
X159173076Y-119428355D01*
X158744817Y-119818642D01*
X158683843Y-119948478D01*
X158470625Y-119629375D01*
X157979418Y-119301161D01*
X157546256Y-119215000D01*
X157253744Y-119215000D01*
X156820582Y-119301161D01*
X156329375Y-119629375D01*
X156130000Y-119927761D01*
X155930625Y-119629375D01*
X155439418Y-119301161D01*
X155006256Y-119215000D01*
X154713744Y-119215000D01*
X154280582Y-119301161D01*
X153789375Y-119629375D01*
X153590000Y-119927761D01*
X153390625Y-119629375D01*
X152899418Y-119301161D01*
X152466256Y-119215000D01*
X152339802Y-119215000D01*
X153394802Y-118160000D01*
X169163949Y-118160000D01*
X169480603Y-118476654D01*
X169947381Y-118670000D01*
X170452619Y-118670000D01*
X170919397Y-118476654D01*
X171276654Y-118119397D01*
X171470000Y-117652619D01*
X171470000Y-117147381D01*
X171276654Y-116680603D01*
X170919397Y-116323346D01*
X170452619Y-116130000D01*
X169947381Y-116130000D01*
X169480603Y-116323346D01*
X169163949Y-116640000D01*
X153154848Y-116640000D01*
X153080000Y-116625112D01*
X153005152Y-116640000D01*
X153005148Y-116640000D01*
X152850171Y-116670827D01*
X152783462Y-116684096D01*
X152597164Y-116808577D01*
X152532071Y-116852071D01*
X152489671Y-116915527D01*
X150146408Y-119258791D01*
X149926256Y-119215000D01*
X149633744Y-119215000D01*
X149200582Y-119301161D01*
X148709375Y-119629375D01*
X148510000Y-119927761D01*
X148310625Y-119629375D01*
X147819418Y-119301161D01*
X147386256Y-119215000D01*
X147093744Y-119215000D01*
X146660582Y-119301161D01*
X146169375Y-119629375D01*
X145970000Y-119927761D01*
X145770625Y-119629375D01*
X145279418Y-119301161D01*
X144846256Y-119215000D01*
X144553744Y-119215000D01*
X144120582Y-119301161D01*
X143629375Y-119629375D01*
X143430000Y-119927761D01*
X143230625Y-119629375D01*
X142739418Y-119301161D01*
X142306256Y-119215000D01*
X142013744Y-119215000D01*
X141580582Y-119301161D01*
X141089375Y-119629375D01*
X140876157Y-119948478D01*
X140815183Y-119818642D01*
X140386924Y-119428355D01*
X139976890Y-119258524D01*
X139747000Y-119379845D01*
X139747000Y-120573000D01*
X139767000Y-120573000D01*
X139767000Y-120827000D01*
X139747000Y-120827000D01*
X139747000Y-120847000D01*
X139493000Y-120847000D01*
X139493000Y-120827000D01*
X139473000Y-120827000D01*
X139473000Y-120573000D01*
X139493000Y-120573000D01*
X139493000Y-119379845D01*
X139263110Y-119258524D01*
X138853076Y-119428355D01*
X138424817Y-119818642D01*
X138363843Y-119948478D01*
X138150625Y-119629375D01*
X137659418Y-119301161D01*
X137226256Y-119215000D01*
X136933744Y-119215000D01*
X136500582Y-119301161D01*
X136009375Y-119629375D01*
X135810000Y-119927761D01*
X135610625Y-119629375D01*
X135119418Y-119301161D01*
X134686256Y-119215000D01*
X134393744Y-119215000D01*
X133960582Y-119301161D01*
X133469375Y-119629375D01*
X133270000Y-119927761D01*
X133070625Y-119629375D01*
X132579418Y-119301161D01*
X132146256Y-119215000D01*
X131853744Y-119215000D01*
X131420582Y-119301161D01*
X130929375Y-119629375D01*
X130730000Y-119927761D01*
X130530625Y-119629375D01*
X130039418Y-119301161D01*
X129606256Y-119215000D01*
X129313744Y-119215000D01*
X128880582Y-119301161D01*
X128389375Y-119629375D01*
X128190000Y-119927761D01*
X127990625Y-119629375D01*
X127499418Y-119301161D01*
X127066256Y-119215000D01*
X126773744Y-119215000D01*
X126340582Y-119301161D01*
X125849375Y-119629375D01*
X125650000Y-119927761D01*
X125450625Y-119629375D01*
X124959418Y-119301161D01*
X124526256Y-119215000D01*
X124233744Y-119215000D01*
X123800582Y-119301161D01*
X123309375Y-119629375D01*
X123096157Y-119948478D01*
X123035183Y-119818642D01*
X122606924Y-119428355D01*
X122196890Y-119258524D01*
X121967000Y-119379845D01*
X121967000Y-120573000D01*
X121987000Y-120573000D01*
X121987000Y-120827000D01*
X121967000Y-120827000D01*
X121967000Y-120847000D01*
X121713000Y-120847000D01*
X121713000Y-120827000D01*
X120519181Y-120827000D01*
X120398514Y-121056892D01*
X120644817Y-121581358D01*
X121069786Y-121968647D01*
X120769375Y-122169375D01*
X120441161Y-122660582D01*
X120325908Y-123240000D01*
X118567213Y-123240000D01*
X118682801Y-123124412D01*
X118985000Y-122394841D01*
X118985000Y-121605159D01*
X118682801Y-120875588D01*
X118150321Y-120343108D01*
X120398514Y-120343108D01*
X120519181Y-120573000D01*
X121713000Y-120573000D01*
X121713000Y-119379845D01*
X121483110Y-119258524D01*
X121073076Y-119428355D01*
X120644817Y-119818642D01*
X120398514Y-120343108D01*
X118150321Y-120343108D01*
X118124412Y-120317199D01*
X117394841Y-120015000D01*
X116605159Y-120015000D01*
X115875588Y-120317199D01*
X115317199Y-120875588D01*
X115015000Y-121605159D01*
X83697332Y-121605159D01*
X82706375Y-121107843D01*
X80876301Y-120019062D01*
X79128782Y-118802243D01*
X77472709Y-117463572D01*
X75916604Y-116009941D01*
X74468395Y-114448751D01*
X73135527Y-112788032D01*
X71924801Y-111036259D01*
X70842422Y-109202405D01*
X69893932Y-107295864D01*
X69423851Y-106152532D01*
X91727073Y-106152532D01*
X91825736Y-106419387D01*
X92435461Y-106645908D01*
X93085460Y-106621856D01*
X93574264Y-106419387D01*
X93672927Y-106152532D01*
X100227073Y-106152532D01*
X100325736Y-106419387D01*
X100935461Y-106645908D01*
X101585460Y-106621856D01*
X102074264Y-106419387D01*
X102172927Y-106152532D01*
X101200000Y-105179605D01*
X100227073Y-106152532D01*
X93672927Y-106152532D01*
X92700000Y-105179605D01*
X91727073Y-106152532D01*
X69423851Y-106152532D01*
X69084178Y-105326380D01*
X68889323Y-104735461D01*
X91054092Y-104735461D01*
X91078144Y-105385460D01*
X91280613Y-105874264D01*
X91547468Y-105972927D01*
X92520395Y-105000000D01*
X92879605Y-105000000D01*
X93852532Y-105972927D01*
X94119387Y-105874264D01*
X94345908Y-105264539D01*
X94326331Y-104735461D01*
X99554092Y-104735461D01*
X99578144Y-105385460D01*
X99780613Y-105874264D01*
X100047468Y-105972927D01*
X101020395Y-105000000D01*
X101379605Y-105000000D01*
X102352532Y-105972927D01*
X102619387Y-105874264D01*
X102845908Y-105264539D01*
X102834173Y-104947381D01*
X155930000Y-104947381D01*
X155930000Y-105452619D01*
X156123346Y-105919397D01*
X156480603Y-106276654D01*
X156947381Y-106470000D01*
X157452619Y-106470000D01*
X157919397Y-106276654D01*
X158236051Y-105960000D01*
X169597761Y-105960000D01*
X170023847Y-106386086D01*
X170624778Y-106635000D01*
X171275222Y-106635000D01*
X171876153Y-106386086D01*
X172336086Y-105926153D01*
X172404909Y-105760000D01*
X177995091Y-105760000D01*
X178063914Y-105926153D01*
X178523847Y-106386086D01*
X179124778Y-106635000D01*
X179775222Y-106635000D01*
X180376153Y-106386086D01*
X180836086Y-105926153D01*
X181085000Y-105325222D01*
X181085000Y-104674778D01*
X180836086Y-104073847D01*
X180376153Y-103613914D01*
X179775222Y-103365000D01*
X179124778Y-103365000D01*
X178523847Y-103613914D01*
X178063914Y-104073847D01*
X177995091Y-104240000D01*
X172404909Y-104240000D01*
X172336086Y-104073847D01*
X171876153Y-103613914D01*
X171275222Y-103365000D01*
X170624778Y-103365000D01*
X170023847Y-103613914D01*
X169563914Y-104073847D01*
X169412248Y-104440000D01*
X158236051Y-104440000D01*
X157919397Y-104123346D01*
X157452619Y-103930000D01*
X156947381Y-103930000D01*
X156480603Y-104123346D01*
X156123346Y-104480603D01*
X155930000Y-104947381D01*
X102834173Y-104947381D01*
X102821856Y-104614540D01*
X102619387Y-104125736D01*
X102352532Y-104027073D01*
X101379605Y-105000000D01*
X101020395Y-105000000D01*
X100047468Y-104027073D01*
X99780613Y-104125736D01*
X99554092Y-104735461D01*
X94326331Y-104735461D01*
X94321856Y-104614540D01*
X94119387Y-104125736D01*
X93852532Y-104027073D01*
X92879605Y-105000000D01*
X92520395Y-105000000D01*
X91547468Y-104027073D01*
X91280613Y-104125736D01*
X91054092Y-104735461D01*
X68889323Y-104735461D01*
X68596507Y-103847468D01*
X91727073Y-103847468D01*
X92700000Y-104820395D01*
X93672927Y-103847468D01*
X100227073Y-103847468D01*
X101200000Y-104820395D01*
X102172927Y-103847468D01*
X102074264Y-103580613D01*
X101464539Y-103354092D01*
X100814540Y-103378144D01*
X100325736Y-103580613D01*
X100227073Y-103847468D01*
X93672927Y-103847468D01*
X93574264Y-103580613D01*
X92964539Y-103354092D01*
X92314540Y-103378144D01*
X91825736Y-103580613D01*
X91727073Y-103847468D01*
X68596507Y-103847468D01*
X68417309Y-103304034D01*
X67896743Y-101239203D01*
X67525136Y-99142419D01*
X67320065Y-97174778D01*
X81065000Y-97174778D01*
X81065000Y-97825222D01*
X81313914Y-98426153D01*
X81773847Y-98886086D01*
X82374778Y-99135000D01*
X83025222Y-99135000D01*
X83626153Y-98886086D01*
X84086086Y-98426153D01*
X84154909Y-98260000D01*
X89745091Y-98260000D01*
X89813914Y-98426153D01*
X90273847Y-98886086D01*
X90874778Y-99135000D01*
X91525222Y-99135000D01*
X92126153Y-98886086D01*
X92586086Y-98426153D01*
X92835000Y-97825222D01*
X92835000Y-97174778D01*
X92766177Y-97008625D01*
X93214802Y-96560000D01*
X101327761Y-96560000D01*
X101313914Y-96573847D01*
X101065000Y-97174778D01*
X101065000Y-97825222D01*
X101313914Y-98426153D01*
X101773847Y-98886086D01*
X102374778Y-99135000D01*
X103025222Y-99135000D01*
X103626153Y-98886086D01*
X104086086Y-98426153D01*
X104154909Y-98260000D01*
X109745091Y-98260000D01*
X109813914Y-98426153D01*
X110273847Y-98886086D01*
X110874778Y-99135000D01*
X111525222Y-99135000D01*
X111691375Y-99066177D01*
X112309671Y-99684473D01*
X112352071Y-99747929D01*
X112603463Y-99915904D01*
X112825148Y-99960000D01*
X112825152Y-99960000D01*
X112899999Y-99974888D01*
X112974846Y-99960000D01*
X119563949Y-99960000D01*
X119593949Y-99990000D01*
X102654909Y-99990000D01*
X102586086Y-99823847D01*
X102126153Y-99363914D01*
X101525222Y-99115000D01*
X100874778Y-99115000D01*
X100273847Y-99363914D01*
X99813914Y-99823847D01*
X99745091Y-99990000D01*
X94154909Y-99990000D01*
X94086086Y-99823847D01*
X93626153Y-99363914D01*
X93025222Y-99115000D01*
X92374778Y-99115000D01*
X91773847Y-99363914D01*
X91313914Y-99823847D01*
X91065000Y-100424778D01*
X91065000Y-101075222D01*
X91313914Y-101676153D01*
X91773847Y-102136086D01*
X92374778Y-102385000D01*
X93025222Y-102385000D01*
X93626153Y-102136086D01*
X94086086Y-101676153D01*
X94154909Y-101510000D01*
X99745091Y-101510000D01*
X99813914Y-101676153D01*
X100273847Y-102136086D01*
X100874778Y-102385000D01*
X101525222Y-102385000D01*
X102126153Y-102136086D01*
X102586086Y-101676153D01*
X102654909Y-101510000D01*
X157930000Y-101510000D01*
X157930000Y-101962619D01*
X158123346Y-102429397D01*
X158480603Y-102786654D01*
X158947381Y-102980000D01*
X159395199Y-102980000D01*
X160099671Y-103684473D01*
X160142071Y-103747929D01*
X160393463Y-103915904D01*
X160615148Y-103960000D01*
X160615152Y-103960000D01*
X160689999Y-103974888D01*
X160764846Y-103960000D01*
X166125153Y-103960000D01*
X166200000Y-103974888D01*
X166274847Y-103960000D01*
X166274852Y-103960000D01*
X166496537Y-103915904D01*
X166747929Y-103747929D01*
X166790331Y-103684470D01*
X168572269Y-101902532D01*
X169977073Y-101902532D01*
X170075736Y-102169387D01*
X170685461Y-102395908D01*
X171335460Y-102371856D01*
X171824264Y-102169387D01*
X171922927Y-101902532D01*
X178477073Y-101902532D01*
X178575736Y-102169387D01*
X179185461Y-102395908D01*
X179835460Y-102371856D01*
X180324264Y-102169387D01*
X180422927Y-101902532D01*
X179450000Y-100929605D01*
X178477073Y-101902532D01*
X171922927Y-101902532D01*
X170950000Y-100929605D01*
X169977073Y-101902532D01*
X168572269Y-101902532D01*
X169331424Y-101143378D01*
X169530613Y-101624264D01*
X169797468Y-101722927D01*
X170770395Y-100750000D01*
X171129605Y-100750000D01*
X172102532Y-101722927D01*
X172369387Y-101624264D01*
X172595908Y-101014539D01*
X172576331Y-100485461D01*
X177804092Y-100485461D01*
X177828144Y-101135460D01*
X178030613Y-101624264D01*
X178297468Y-101722927D01*
X179270395Y-100750000D01*
X179629605Y-100750000D01*
X180602532Y-101722927D01*
X180869387Y-101624264D01*
X181095908Y-101014539D01*
X181071856Y-100364540D01*
X180869387Y-99875736D01*
X180602532Y-99777073D01*
X179629605Y-100750000D01*
X179270395Y-100750000D01*
X178297468Y-99777073D01*
X178030613Y-99875736D01*
X177804092Y-100485461D01*
X172576331Y-100485461D01*
X172571856Y-100364540D01*
X172369387Y-99875736D01*
X172102532Y-99777073D01*
X171129605Y-100750000D01*
X170770395Y-100750000D01*
X170756253Y-100735858D01*
X170935858Y-100556253D01*
X170950000Y-100570395D01*
X171922927Y-99597468D01*
X178477073Y-99597468D01*
X179450000Y-100570395D01*
X180422927Y-99597468D01*
X180324264Y-99330613D01*
X179714539Y-99104092D01*
X179064540Y-99128144D01*
X178575736Y-99330613D01*
X178477073Y-99597468D01*
X171922927Y-99597468D01*
X171824264Y-99330613D01*
X171328407Y-99146395D01*
X171684473Y-98790329D01*
X171747929Y-98747929D01*
X171811671Y-98652532D01*
X179977073Y-98652532D01*
X180075736Y-98919387D01*
X180685461Y-99145908D01*
X181335460Y-99121856D01*
X181824264Y-98919387D01*
X181922927Y-98652532D01*
X188477073Y-98652532D01*
X188575736Y-98919387D01*
X189185461Y-99145908D01*
X189835460Y-99121856D01*
X190324264Y-98919387D01*
X190422927Y-98652532D01*
X189450000Y-97679605D01*
X188477073Y-98652532D01*
X181922927Y-98652532D01*
X180950000Y-97679605D01*
X179977073Y-98652532D01*
X171811671Y-98652532D01*
X171838008Y-98613117D01*
X171915904Y-98496538D01*
X171929904Y-98426153D01*
X171960000Y-98274852D01*
X171960000Y-98274848D01*
X171974888Y-98200000D01*
X171960000Y-98125152D01*
X171960000Y-97235461D01*
X179304092Y-97235461D01*
X179328144Y-97885460D01*
X179530613Y-98374264D01*
X179797468Y-98472927D01*
X180770395Y-97500000D01*
X181129605Y-97500000D01*
X182102532Y-98472927D01*
X182369387Y-98374264D01*
X182595908Y-97764539D01*
X182576331Y-97235461D01*
X187804092Y-97235461D01*
X187828144Y-97885460D01*
X188030613Y-98374264D01*
X188297468Y-98472927D01*
X189270395Y-97500000D01*
X189629605Y-97500000D01*
X190602532Y-98472927D01*
X190869387Y-98374264D01*
X191095908Y-97764539D01*
X191071856Y-97114540D01*
X190869387Y-96625736D01*
X190602532Y-96527073D01*
X189629605Y-97500000D01*
X189270395Y-97500000D01*
X188297468Y-96527073D01*
X188030613Y-96625736D01*
X187804092Y-97235461D01*
X182576331Y-97235461D01*
X182571856Y-97114540D01*
X182369387Y-96625736D01*
X182102532Y-96527073D01*
X181129605Y-97500000D01*
X180770395Y-97500000D01*
X179797468Y-96527073D01*
X179530613Y-96625736D01*
X179304092Y-97235461D01*
X171960000Y-97235461D01*
X171960000Y-96874848D01*
X171974888Y-96800000D01*
X171960000Y-96725152D01*
X171960000Y-96725148D01*
X171915904Y-96503463D01*
X171811672Y-96347468D01*
X179977073Y-96347468D01*
X180950000Y-97320395D01*
X181922927Y-96347468D01*
X188477073Y-96347468D01*
X189450000Y-97320395D01*
X190422927Y-96347468D01*
X190324264Y-96080613D01*
X189714539Y-95854092D01*
X189064540Y-95878144D01*
X188575736Y-96080613D01*
X188477073Y-96347468D01*
X181922927Y-96347468D01*
X181824264Y-96080613D01*
X181214539Y-95854092D01*
X180564540Y-95878144D01*
X180075736Y-96080613D01*
X179977073Y-96347468D01*
X171811672Y-96347468D01*
X171747929Y-96252071D01*
X171684473Y-96209671D01*
X170790331Y-95315530D01*
X170747929Y-95252071D01*
X170496537Y-95084096D01*
X170274852Y-95040000D01*
X170274847Y-95040000D01*
X170200000Y-95025112D01*
X170125153Y-95040000D01*
X151808178Y-95040000D01*
X151733331Y-95025112D01*
X151658484Y-95040000D01*
X151658480Y-95040000D01*
X151436795Y-95084096D01*
X151185403Y-95252071D01*
X151143003Y-95315527D01*
X150524707Y-95933823D01*
X150358554Y-95865000D01*
X149708110Y-95865000D01*
X149107179Y-96113914D01*
X148647246Y-96573847D01*
X148578423Y-96740000D01*
X142988241Y-96740000D01*
X142919418Y-96573847D01*
X142459485Y-96113914D01*
X141858554Y-95865000D01*
X141208110Y-95865000D01*
X140607179Y-96113914D01*
X140147246Y-96573847D01*
X139898332Y-97174778D01*
X139898332Y-97825222D01*
X140147246Y-98426153D01*
X140607179Y-98886086D01*
X140978760Y-99040000D01*
X135503711Y-99040000D01*
X135386280Y-98922569D01*
X135005874Y-98765000D01*
X134594126Y-98765000D01*
X134213720Y-98922569D01*
X133922569Y-99213720D01*
X133765000Y-99594126D01*
X133765000Y-99990000D01*
X121606051Y-99990000D01*
X121676654Y-99919397D01*
X121870000Y-99452619D01*
X121870000Y-99145247D01*
X122502126Y-99121856D01*
X122990930Y-98919387D01*
X123089593Y-98652532D01*
X129643739Y-98652532D01*
X129742402Y-98919387D01*
X130352127Y-99145908D01*
X131002126Y-99121856D01*
X131490930Y-98919387D01*
X131589593Y-98652532D01*
X130616666Y-97679605D01*
X129643739Y-98652532D01*
X123089593Y-98652532D01*
X122116666Y-97679605D01*
X122102524Y-97693748D01*
X121922919Y-97514143D01*
X121937061Y-97500000D01*
X122296271Y-97500000D01*
X123269198Y-98472927D01*
X123536053Y-98374264D01*
X123762574Y-97764539D01*
X123742997Y-97235461D01*
X128970758Y-97235461D01*
X128994810Y-97885460D01*
X129197279Y-98374264D01*
X129464134Y-98472927D01*
X130437061Y-97500000D01*
X130796271Y-97500000D01*
X131769198Y-98472927D01*
X132036053Y-98374264D01*
X132262574Y-97764539D01*
X132238522Y-97114540D01*
X132036053Y-96625736D01*
X131769198Y-96527073D01*
X130796271Y-97500000D01*
X130437061Y-97500000D01*
X129464134Y-96527073D01*
X129197279Y-96625736D01*
X128970758Y-97235461D01*
X123742997Y-97235461D01*
X123738522Y-97114540D01*
X123536053Y-96625736D01*
X123269198Y-96527073D01*
X122296271Y-97500000D01*
X121937061Y-97500000D01*
X120964134Y-96527073D01*
X120697279Y-96625736D01*
X120470758Y-97235461D01*
X120494810Y-97885460D01*
X120513259Y-97930000D01*
X120347381Y-97930000D01*
X119880603Y-98123346D01*
X119563949Y-98440000D01*
X113214802Y-98440000D01*
X112766177Y-97991375D01*
X112835000Y-97825222D01*
X112835000Y-97174778D01*
X112586086Y-96573847D01*
X112572239Y-96560000D01*
X118163949Y-96560000D01*
X118480603Y-96876654D01*
X118947381Y-97070000D01*
X119452619Y-97070000D01*
X119919397Y-96876654D01*
X120276654Y-96519397D01*
X120347869Y-96347468D01*
X121143739Y-96347468D01*
X122116666Y-97320395D01*
X123089593Y-96347468D01*
X129643739Y-96347468D01*
X130616666Y-97320395D01*
X131589593Y-96347468D01*
X131490930Y-96080613D01*
X130881205Y-95854092D01*
X130231206Y-95878144D01*
X129742402Y-96080613D01*
X129643739Y-96347468D01*
X123089593Y-96347468D01*
X122990930Y-96080613D01*
X122381205Y-95854092D01*
X121731206Y-95878144D01*
X121242402Y-96080613D01*
X121143739Y-96347468D01*
X120347869Y-96347468D01*
X120470000Y-96052619D01*
X120470000Y-95547381D01*
X120276654Y-95080603D01*
X119919397Y-94723346D01*
X119452619Y-94530000D01*
X118947381Y-94530000D01*
X118480603Y-94723346D01*
X118163949Y-95040000D01*
X92974846Y-95040000D01*
X92899999Y-95025112D01*
X92825152Y-95040000D01*
X92825148Y-95040000D01*
X92603463Y-95084096D01*
X92352071Y-95252071D01*
X92309671Y-95315527D01*
X91691375Y-95933823D01*
X91525222Y-95865000D01*
X90874778Y-95865000D01*
X90273847Y-96113914D01*
X89813914Y-96573847D01*
X89745091Y-96740000D01*
X84154909Y-96740000D01*
X84086086Y-96573847D01*
X83626153Y-96113914D01*
X83025222Y-95865000D01*
X82374778Y-95865000D01*
X81773847Y-96113914D01*
X81313914Y-96573847D01*
X81065000Y-97174778D01*
X67320065Y-97174778D01*
X67304397Y-97024449D01*
X67235652Y-94896096D01*
X67255043Y-94402532D01*
X81727073Y-94402532D01*
X81825736Y-94669387D01*
X82435461Y-94895908D01*
X83085460Y-94871856D01*
X83574264Y-94669387D01*
X83672927Y-94402532D01*
X90227073Y-94402532D01*
X90325736Y-94669387D01*
X90935461Y-94895908D01*
X91585460Y-94871856D01*
X92074264Y-94669387D01*
X92172927Y-94402532D01*
X101727073Y-94402532D01*
X101825736Y-94669387D01*
X102435461Y-94895908D01*
X103085460Y-94871856D01*
X103574264Y-94669387D01*
X103672927Y-94402532D01*
X110227073Y-94402532D01*
X110325736Y-94669387D01*
X110935461Y-94895908D01*
X111585460Y-94871856D01*
X112074264Y-94669387D01*
X112172927Y-94402532D01*
X111200000Y-93429605D01*
X110227073Y-94402532D01*
X103672927Y-94402532D01*
X102700000Y-93429605D01*
X101727073Y-94402532D01*
X92172927Y-94402532D01*
X91200000Y-93429605D01*
X90227073Y-94402532D01*
X83672927Y-94402532D01*
X82700000Y-93429605D01*
X81727073Y-94402532D01*
X67255043Y-94402532D01*
X67310720Y-92985461D01*
X81054092Y-92985461D01*
X81078144Y-93635460D01*
X81280613Y-94124264D01*
X81547468Y-94222927D01*
X82520395Y-93250000D01*
X82879605Y-93250000D01*
X83852532Y-94222927D01*
X84119387Y-94124264D01*
X84345908Y-93514539D01*
X84326331Y-92985461D01*
X89554092Y-92985461D01*
X89578144Y-93635460D01*
X89780613Y-94124264D01*
X90047468Y-94222927D01*
X91020395Y-93250000D01*
X91379605Y-93250000D01*
X92352532Y-94222927D01*
X92619387Y-94124264D01*
X92845908Y-93514539D01*
X92826331Y-92985461D01*
X101054092Y-92985461D01*
X101078144Y-93635460D01*
X101280613Y-94124264D01*
X101547468Y-94222927D01*
X102520395Y-93250000D01*
X102879605Y-93250000D01*
X103852532Y-94222927D01*
X104119387Y-94124264D01*
X104345908Y-93514539D01*
X104326331Y-92985461D01*
X109554092Y-92985461D01*
X109578144Y-93635460D01*
X109780613Y-94124264D01*
X110047468Y-94222927D01*
X111020395Y-93250000D01*
X111379605Y-93250000D01*
X112352532Y-94222927D01*
X112619387Y-94124264D01*
X112845908Y-93514539D01*
X112821856Y-92864540D01*
X112773328Y-92747381D01*
X115530000Y-92747381D01*
X115530000Y-93252619D01*
X115723346Y-93719397D01*
X116080603Y-94076654D01*
X116547381Y-94270000D01*
X117052619Y-94270000D01*
X117519397Y-94076654D01*
X117836051Y-93760000D01*
X120558204Y-93760000D01*
X120730580Y-94176153D01*
X121190513Y-94636086D01*
X121791444Y-94885000D01*
X122441888Y-94885000D01*
X123042819Y-94636086D01*
X123502752Y-94176153D01*
X123571575Y-94010000D01*
X129161757Y-94010000D01*
X129230580Y-94176153D01*
X129690513Y-94636086D01*
X130291444Y-94885000D01*
X130941888Y-94885000D01*
X131542819Y-94636086D01*
X131776373Y-94402532D01*
X140560405Y-94402532D01*
X140659068Y-94669387D01*
X141268793Y-94895908D01*
X141918792Y-94871856D01*
X142407596Y-94669387D01*
X142506259Y-94402532D01*
X149060405Y-94402532D01*
X149159068Y-94669387D01*
X149768793Y-94895908D01*
X150418792Y-94871856D01*
X150907596Y-94669387D01*
X151006259Y-94402532D01*
X159977073Y-94402532D01*
X160075736Y-94669387D01*
X160685461Y-94895908D01*
X161335460Y-94871856D01*
X161824264Y-94669387D01*
X161922927Y-94402532D01*
X168477073Y-94402532D01*
X168575736Y-94669387D01*
X169185461Y-94895908D01*
X169835460Y-94871856D01*
X170324264Y-94669387D01*
X170422927Y-94402532D01*
X169450000Y-93429605D01*
X168477073Y-94402532D01*
X161922927Y-94402532D01*
X160950000Y-93429605D01*
X159977073Y-94402532D01*
X151006259Y-94402532D01*
X150033332Y-93429605D01*
X149060405Y-94402532D01*
X142506259Y-94402532D01*
X141533332Y-93429605D01*
X140560405Y-94402532D01*
X131776373Y-94402532D01*
X132002752Y-94176153D01*
X132251666Y-93575222D01*
X132251666Y-92924778D01*
X132002752Y-92323847D01*
X131542819Y-91863914D01*
X130941888Y-91615000D01*
X130291444Y-91615000D01*
X129690513Y-91863914D01*
X129230580Y-92323847D01*
X129161757Y-92490000D01*
X123571575Y-92490000D01*
X123502752Y-92323847D01*
X123042819Y-91863914D01*
X122441888Y-91615000D01*
X121791444Y-91615000D01*
X121190513Y-91863914D01*
X120814427Y-92240000D01*
X117836051Y-92240000D01*
X117519397Y-91923346D01*
X117052619Y-91730000D01*
X116547381Y-91730000D01*
X116080603Y-91923346D01*
X115723346Y-92280603D01*
X115530000Y-92747381D01*
X112773328Y-92747381D01*
X112619387Y-92375736D01*
X112352532Y-92277073D01*
X111379605Y-93250000D01*
X111020395Y-93250000D01*
X110047468Y-92277073D01*
X109780613Y-92375736D01*
X109554092Y-92985461D01*
X104326331Y-92985461D01*
X104321856Y-92864540D01*
X104119387Y-92375736D01*
X103852532Y-92277073D01*
X102879605Y-93250000D01*
X102520395Y-93250000D01*
X101547468Y-92277073D01*
X101280613Y-92375736D01*
X101054092Y-92985461D01*
X92826331Y-92985461D01*
X92821856Y-92864540D01*
X92619387Y-92375736D01*
X92352532Y-92277073D01*
X91379605Y-93250000D01*
X91020395Y-93250000D01*
X90047468Y-92277073D01*
X89780613Y-92375736D01*
X89554092Y-92985461D01*
X84326331Y-92985461D01*
X84321856Y-92864540D01*
X84119387Y-92375736D01*
X83852532Y-92277073D01*
X82879605Y-93250000D01*
X82520395Y-93250000D01*
X81547468Y-92277073D01*
X81280613Y-92375736D01*
X81054092Y-92985461D01*
X67310720Y-92985461D01*
X67319253Y-92768303D01*
X67393906Y-92097468D01*
X81727073Y-92097468D01*
X82700000Y-93070395D01*
X83672927Y-92097468D01*
X90227073Y-92097468D01*
X91200000Y-93070395D01*
X92172927Y-92097468D01*
X101727073Y-92097468D01*
X102700000Y-93070395D01*
X103672927Y-92097468D01*
X110227073Y-92097468D01*
X111200000Y-93070395D01*
X112172927Y-92097468D01*
X112074264Y-91830613D01*
X111464539Y-91604092D01*
X110814540Y-91628144D01*
X110325736Y-91830613D01*
X110227073Y-92097468D01*
X103672927Y-92097468D01*
X103574264Y-91830613D01*
X102964539Y-91604092D01*
X102314540Y-91628144D01*
X101825736Y-91830613D01*
X101727073Y-92097468D01*
X92172927Y-92097468D01*
X92074264Y-91830613D01*
X91464539Y-91604092D01*
X90814540Y-91628144D01*
X90325736Y-91830613D01*
X90227073Y-92097468D01*
X83672927Y-92097468D01*
X83574264Y-91830613D01*
X82964539Y-91604092D01*
X82314540Y-91628144D01*
X81825736Y-91830613D01*
X81727073Y-92097468D01*
X67393906Y-92097468D01*
X67499063Y-91152532D01*
X91727073Y-91152532D01*
X91825736Y-91419387D01*
X92435461Y-91645908D01*
X93085460Y-91621856D01*
X93574264Y-91419387D01*
X93672927Y-91152532D01*
X100227073Y-91152532D01*
X100325736Y-91419387D01*
X100935461Y-91645908D01*
X101585460Y-91621856D01*
X102074264Y-91419387D01*
X102157548Y-91194126D01*
X133765000Y-91194126D01*
X133765000Y-91605874D01*
X133922569Y-91986280D01*
X134213720Y-92277431D01*
X134594126Y-92435000D01*
X135005874Y-92435000D01*
X135386280Y-92277431D01*
X135503711Y-92160000D01*
X140269312Y-92160000D01*
X140266518Y-92162794D01*
X140380798Y-92277074D01*
X140113945Y-92375736D01*
X139887424Y-92985461D01*
X139911476Y-93635460D01*
X140113945Y-94124264D01*
X140380800Y-94222927D01*
X141353727Y-93250000D01*
X141339585Y-93235858D01*
X141519190Y-93056253D01*
X141533332Y-93070395D01*
X141547475Y-93056253D01*
X141727080Y-93235858D01*
X141712937Y-93250000D01*
X142685864Y-94222927D01*
X142952719Y-94124264D01*
X143179240Y-93514539D01*
X143155188Y-92864540D01*
X142952719Y-92375736D01*
X142685866Y-92277074D01*
X142800146Y-92162794D01*
X142797352Y-92160000D01*
X148769312Y-92160000D01*
X148766518Y-92162794D01*
X148880798Y-92277074D01*
X148613945Y-92375736D01*
X148387424Y-92985461D01*
X148411476Y-93635460D01*
X148613945Y-94124264D01*
X148880800Y-94222927D01*
X149853727Y-93250000D01*
X149839585Y-93235858D01*
X150019190Y-93056253D01*
X150033332Y-93070395D01*
X150047475Y-93056253D01*
X150227080Y-93235858D01*
X150212937Y-93250000D01*
X151185864Y-94222927D01*
X151452719Y-94124264D01*
X151679240Y-93514539D01*
X151655188Y-92864540D01*
X151452719Y-92375736D01*
X151185866Y-92277074D01*
X151300146Y-92162794D01*
X151297352Y-92160000D01*
X159685980Y-92160000D01*
X159683186Y-92162794D01*
X159797466Y-92277074D01*
X159530613Y-92375736D01*
X159304092Y-92985461D01*
X159328144Y-93635460D01*
X159530613Y-94124264D01*
X159797468Y-94222927D01*
X160770395Y-93250000D01*
X160756253Y-93235858D01*
X160935858Y-93056253D01*
X160950000Y-93070395D01*
X160964143Y-93056253D01*
X161143748Y-93235858D01*
X161129605Y-93250000D01*
X162102532Y-94222927D01*
X162369387Y-94124264D01*
X162595908Y-93514539D01*
X162571856Y-92864540D01*
X162369387Y-92375736D01*
X162102534Y-92277074D01*
X162216814Y-92162794D01*
X162214020Y-92160000D01*
X168185980Y-92160000D01*
X168183186Y-92162794D01*
X168297466Y-92277074D01*
X168030613Y-92375736D01*
X167804092Y-92985461D01*
X167828144Y-93635460D01*
X168030613Y-94124264D01*
X168297468Y-94222927D01*
X169270395Y-93250000D01*
X169256253Y-93235858D01*
X169435858Y-93056253D01*
X169450000Y-93070395D01*
X169464143Y-93056253D01*
X169643748Y-93235858D01*
X169629605Y-93250000D01*
X170602532Y-94222927D01*
X170869387Y-94124264D01*
X171095908Y-93514539D01*
X171071856Y-92864540D01*
X170869387Y-92375736D01*
X170602534Y-92277074D01*
X170716814Y-92162794D01*
X170714020Y-92160000D01*
X178785199Y-92160000D01*
X179383823Y-92758625D01*
X179315000Y-92924778D01*
X179315000Y-93575222D01*
X179563914Y-94176153D01*
X180023847Y-94636086D01*
X180624778Y-94885000D01*
X181275222Y-94885000D01*
X181876153Y-94636086D01*
X182336086Y-94176153D01*
X182404909Y-94010000D01*
X187995091Y-94010000D01*
X188063914Y-94176153D01*
X188523847Y-94636086D01*
X189124778Y-94885000D01*
X189775222Y-94885000D01*
X190376153Y-94636086D01*
X190836086Y-94176153D01*
X191085000Y-93575222D01*
X191085000Y-92924778D01*
X190836086Y-92323847D01*
X190376153Y-91863914D01*
X189775222Y-91615000D01*
X189124778Y-91615000D01*
X188523847Y-91863914D01*
X188063914Y-92323847D01*
X187995091Y-92490000D01*
X182404909Y-92490000D01*
X182336086Y-92323847D01*
X181876153Y-91863914D01*
X181275222Y-91615000D01*
X180624778Y-91615000D01*
X180458625Y-91683823D01*
X180232287Y-91457485D01*
X180324264Y-91419387D01*
X180422927Y-91152532D01*
X179450000Y-90179605D01*
X179435858Y-90193748D01*
X179256253Y-90014143D01*
X179270395Y-90000000D01*
X179629605Y-90000000D01*
X180602532Y-90972927D01*
X180869387Y-90874264D01*
X181095908Y-90264539D01*
X181071856Y-89614540D01*
X180869387Y-89125736D01*
X180602532Y-89027073D01*
X179629605Y-90000000D01*
X179270395Y-90000000D01*
X178297468Y-89027073D01*
X178030613Y-89125736D01*
X177804092Y-89735461D01*
X177828144Y-90385460D01*
X177933578Y-90640000D01*
X172456419Y-90640000D01*
X172595908Y-90264539D01*
X172571856Y-89614540D01*
X172369387Y-89125736D01*
X172102532Y-89027073D01*
X171129605Y-90000000D01*
X171143748Y-90014143D01*
X170964143Y-90193748D01*
X170950000Y-90179605D01*
X170935858Y-90193748D01*
X170756253Y-90014143D01*
X170770395Y-90000000D01*
X169797468Y-89027073D01*
X169530613Y-89125736D01*
X169304092Y-89735461D01*
X169328144Y-90385460D01*
X169433578Y-90640000D01*
X163925045Y-90640000D01*
X164319397Y-90476654D01*
X164676654Y-90119397D01*
X164870000Y-89652619D01*
X164870000Y-89204801D01*
X165227333Y-88847468D01*
X169977073Y-88847468D01*
X170950000Y-89820395D01*
X171922927Y-88847468D01*
X178477073Y-88847468D01*
X179450000Y-89820395D01*
X180422927Y-88847468D01*
X180324264Y-88580613D01*
X179714539Y-88354092D01*
X179064540Y-88378144D01*
X178575736Y-88580613D01*
X178477073Y-88847468D01*
X171922927Y-88847468D01*
X171824264Y-88580613D01*
X171214539Y-88354092D01*
X170564540Y-88378144D01*
X170075736Y-88580613D01*
X169977073Y-88847468D01*
X165227333Y-88847468D01*
X167564802Y-86510000D01*
X169495091Y-86510000D01*
X169563914Y-86676153D01*
X170023847Y-87136086D01*
X170624778Y-87385000D01*
X171275222Y-87385000D01*
X171876153Y-87136086D01*
X172336086Y-86676153D01*
X172404909Y-86510000D01*
X177995091Y-86510000D01*
X178063914Y-86676153D01*
X178523847Y-87136086D01*
X179124778Y-87385000D01*
X179775222Y-87385000D01*
X180376153Y-87136086D01*
X180836086Y-86676153D01*
X181085000Y-86075222D01*
X181085000Y-85424778D01*
X180836086Y-84823847D01*
X180376153Y-84363914D01*
X179775222Y-84115000D01*
X179124778Y-84115000D01*
X178523847Y-84363914D01*
X178063914Y-84823847D01*
X177995091Y-84990000D01*
X172404909Y-84990000D01*
X172336086Y-84823847D01*
X171876153Y-84363914D01*
X171275222Y-84115000D01*
X170624778Y-84115000D01*
X170023847Y-84363914D01*
X169563914Y-84823847D01*
X169495091Y-84990000D01*
X167324848Y-84990000D01*
X167250000Y-84975112D01*
X167175152Y-84990000D01*
X167175148Y-84990000D01*
X166953463Y-85034096D01*
X166702071Y-85202071D01*
X166659671Y-85265527D01*
X163795199Y-88130000D01*
X163347381Y-88130000D01*
X162880603Y-88323346D01*
X162523346Y-88680603D01*
X162330000Y-89147381D01*
X162330000Y-89652619D01*
X162523346Y-90119397D01*
X162880603Y-90476654D01*
X163274955Y-90640000D01*
X135503711Y-90640000D01*
X135386280Y-90522569D01*
X135005874Y-90365000D01*
X134594126Y-90365000D01*
X134213720Y-90522569D01*
X133922569Y-90813720D01*
X133765000Y-91194126D01*
X102157548Y-91194126D01*
X102172927Y-91152532D01*
X101200000Y-90179605D01*
X100227073Y-91152532D01*
X93672927Y-91152532D01*
X92700000Y-90179605D01*
X91727073Y-91152532D01*
X67499063Y-91152532D01*
X67554776Y-90651901D01*
X67723800Y-89735461D01*
X91054092Y-89735461D01*
X91078144Y-90385460D01*
X91280613Y-90874264D01*
X91547468Y-90972927D01*
X92520395Y-90000000D01*
X92879605Y-90000000D01*
X93852532Y-90972927D01*
X94119387Y-90874264D01*
X94345908Y-90264539D01*
X94326331Y-89735461D01*
X99554092Y-89735461D01*
X99578144Y-90385460D01*
X99780613Y-90874264D01*
X100047468Y-90972927D01*
X101020395Y-90000000D01*
X101379605Y-90000000D01*
X102352532Y-90972927D01*
X102619387Y-90874264D01*
X102845908Y-90264539D01*
X102821856Y-89614540D01*
X102619387Y-89125736D01*
X102352532Y-89027073D01*
X101379605Y-90000000D01*
X101020395Y-90000000D01*
X100047468Y-89027073D01*
X99780613Y-89125736D01*
X99554092Y-89735461D01*
X94326331Y-89735461D01*
X94321856Y-89614540D01*
X94119387Y-89125736D01*
X93852532Y-89027073D01*
X92879605Y-90000000D01*
X92520395Y-90000000D01*
X91547468Y-89027073D01*
X91280613Y-89125736D01*
X91054092Y-89735461D01*
X67723800Y-89735461D01*
X67887578Y-88847468D01*
X91727073Y-88847468D01*
X92700000Y-89820395D01*
X93672927Y-88847468D01*
X100227073Y-88847468D01*
X101200000Y-89820395D01*
X102172927Y-88847468D01*
X102074264Y-88580613D01*
X101464539Y-88354092D01*
X100814540Y-88378144D01*
X100325736Y-88580613D01*
X100227073Y-88847468D01*
X93672927Y-88847468D01*
X93574264Y-88580613D01*
X92964539Y-88354092D01*
X92314540Y-88378144D01*
X91825736Y-88580613D01*
X91727073Y-88847468D01*
X67887578Y-88847468D01*
X67941008Y-88557781D01*
X68475980Y-86496618D01*
X68837735Y-85424778D01*
X91065000Y-85424778D01*
X91065000Y-86075222D01*
X91313914Y-86676153D01*
X91773847Y-87136086D01*
X92374778Y-87385000D01*
X93025222Y-87385000D01*
X93626153Y-87136086D01*
X94086086Y-86676153D01*
X94154909Y-86510000D01*
X99745091Y-86510000D01*
X99813914Y-86676153D01*
X100273847Y-87136086D01*
X100874778Y-87385000D01*
X101525222Y-87385000D01*
X102126153Y-87136086D01*
X102502239Y-86760000D01*
X122963949Y-86760000D01*
X123280603Y-87076654D01*
X123747381Y-87270000D01*
X124252619Y-87270000D01*
X124719397Y-87076654D01*
X125076654Y-86719397D01*
X125270000Y-86252619D01*
X125270000Y-85747381D01*
X125076654Y-85280603D01*
X124719397Y-84923346D01*
X124252619Y-84730000D01*
X123747381Y-84730000D01*
X123280603Y-84923346D01*
X122963949Y-85240000D01*
X102758462Y-85240000D01*
X102586086Y-84823847D01*
X102126153Y-84363914D01*
X101525222Y-84115000D01*
X100874778Y-84115000D01*
X100273847Y-84363914D01*
X99813914Y-84823847D01*
X99745091Y-84990000D01*
X94154909Y-84990000D01*
X94086086Y-84823847D01*
X93626153Y-84363914D01*
X93025222Y-84115000D01*
X92374778Y-84115000D01*
X91773847Y-84363914D01*
X91313914Y-84823847D01*
X91065000Y-85424778D01*
X68837735Y-85424778D01*
X69156947Y-84478992D01*
X69980433Y-82515201D01*
X70942212Y-80615324D01*
X72037362Y-78789080D01*
X73260297Y-77045789D01*
X74604728Y-75394414D01*
X76063793Y-73843384D01*
X77407995Y-72605159D01*
X94765000Y-72605159D01*
X94765000Y-73394841D01*
X95067199Y-74124412D01*
X95625588Y-74682801D01*
X96355159Y-74985000D01*
X97144841Y-74985000D01*
X97874412Y-74682801D01*
X98432801Y-74124412D01*
X98735000Y-73394841D01*
X98735000Y-72605159D01*
X98432801Y-71875588D01*
X97874412Y-71317199D01*
X97144841Y-71015000D01*
X96355159Y-71015000D01*
X95625588Y-71317199D01*
X95067199Y-71875588D01*
X94765000Y-72605159D01*
X77407995Y-72605159D01*
X77630009Y-72400649D01*
X79295372Y-71073585D01*
X81051372Y-69868974D01*
X82888987Y-68793007D01*
X84798827Y-67851176D01*
X86771133Y-67048300D01*
X88795785Y-66388497D01*
X90862430Y-65875140D01*
X92960483Y-65510858D01*
X93157598Y-65491009D01*
X93065000Y-65714561D01*
X93065000Y-66285439D01*
X93283466Y-66812862D01*
X93385604Y-66915000D01*
X92934724Y-66915000D01*
X92352170Y-67156302D01*
X91906302Y-67602170D01*
X91665000Y-68184724D01*
X91665000Y-68815276D01*
X91906302Y-69397830D01*
X92352170Y-69843698D01*
X92934724Y-70085000D01*
X93565276Y-70085000D01*
X94147830Y-69843698D01*
X94593698Y-69397830D01*
X94835000Y-68815276D01*
X94835000Y-68184724D01*
X94593698Y-67602170D01*
X94426528Y-67435000D01*
X94785439Y-67435000D01*
X94838302Y-67413103D01*
X98434670Y-71009472D01*
X98477070Y-71072928D01*
X98728462Y-71240903D01*
X98950147Y-71284999D01*
X98950152Y-71284999D01*
X99024999Y-71299887D01*
X99099846Y-71284999D01*
X115953325Y-71284999D01*
X115875588Y-71317199D01*
X115317199Y-71875588D01*
X115015000Y-72605159D01*
X115015000Y-73394841D01*
X115317199Y-74124412D01*
X115875588Y-74682801D01*
X116605159Y-74985000D01*
X117394841Y-74985000D01*
X118124412Y-74682801D01*
X118682801Y-74124412D01*
X118985000Y-73394841D01*
X118985000Y-72605159D01*
X118682801Y-71875588D01*
X118150321Y-71343108D01*
X120398514Y-71343108D01*
X120519181Y-71573000D01*
X121713000Y-71573000D01*
X121713000Y-70379845D01*
X121483110Y-70258524D01*
X121073076Y-70428355D01*
X120644817Y-70818642D01*
X120398514Y-71343108D01*
X118150321Y-71343108D01*
X118124412Y-71317199D01*
X118046675Y-71284999D01*
X119200154Y-71284999D01*
X119275001Y-71299887D01*
X119349848Y-71284999D01*
X119349853Y-71284999D01*
X119571538Y-71240903D01*
X119822930Y-71072928D01*
X119865332Y-71009469D01*
X121404802Y-69470000D01*
X121852619Y-69470000D01*
X122319397Y-69276654D01*
X122676654Y-68919397D01*
X122870000Y-68452619D01*
X122870000Y-67947381D01*
X122676654Y-67480603D01*
X122319397Y-67123346D01*
X121852619Y-66930000D01*
X121347381Y-66930000D01*
X120880603Y-67123346D01*
X120523346Y-67480603D01*
X120330000Y-67947381D01*
X120330000Y-68395198D01*
X118960200Y-69764999D01*
X101226529Y-69764999D01*
X101593698Y-69397830D01*
X101835000Y-68815276D01*
X101835000Y-68184724D01*
X101593698Y-67602170D01*
X101147830Y-67156302D01*
X100565276Y-66915000D01*
X100094608Y-66915000D01*
X100007747Y-66828139D01*
X100253864Y-66754005D01*
X100446965Y-66216777D01*
X100419778Y-65646546D01*
X100253864Y-65245995D01*
X100203783Y-65230910D01*
X171546217Y-65230910D01*
X171496136Y-65245995D01*
X171496136Y-65245995D01*
G37*
X171496136Y-65245995D02*
X171303035Y-65783223D01*
X171330222Y-66353454D01*
X171496136Y-66754005D01*
X171742253Y-66828139D01*
X171655392Y-66915000D01*
X171184724Y-66915000D01*
X170602170Y-67156302D01*
X170156302Y-67602170D01*
X169915000Y-68184724D01*
X169915000Y-68815276D01*
X170008087Y-69040008D01*
X129636051Y-69040008D01*
X129319397Y-68723354D01*
X128852619Y-68530008D01*
X128347381Y-68530008D01*
X127880603Y-68723354D01*
X127523346Y-69080611D01*
X127330000Y-69547389D01*
X127330000Y-70052627D01*
X127426978Y-70286752D01*
X127066256Y-70215000D01*
X126773744Y-70215000D01*
X126340582Y-70301161D01*
X125849375Y-70629375D01*
X125650000Y-70927761D01*
X125450625Y-70629375D01*
X124959418Y-70301161D01*
X124526256Y-70215000D01*
X124233744Y-70215000D01*
X123800582Y-70301161D01*
X123309375Y-70629375D01*
X123096157Y-70948478D01*
X123035183Y-70818642D01*
X122606924Y-70428355D01*
X122196890Y-70258524D01*
X121967000Y-70379845D01*
X121967000Y-71573000D01*
X121987000Y-71573000D01*
X121987000Y-71827000D01*
X121967000Y-71827000D01*
X121967000Y-71847000D01*
X121713000Y-71847000D01*
X121713000Y-71827000D01*
X120519181Y-71827000D01*
X120398514Y-72056892D01*
X120644817Y-72581358D01*
X121069786Y-72968647D01*
X120769375Y-73169375D01*
X120441161Y-73660582D01*
X120325908Y-74240000D01*
X120441161Y-74819418D01*
X120769375Y-75310625D01*
X121260582Y-75638839D01*
X121693744Y-75725000D01*
X121986256Y-75725000D01*
X122419418Y-75638839D01*
X122910625Y-75310625D01*
X123110000Y-75012239D01*
X123309375Y-75310625D01*
X123800582Y-75638839D01*
X124233744Y-75725000D01*
X124526256Y-75725000D01*
X124959418Y-75638839D01*
X125450625Y-75310625D01*
X125650000Y-75012239D01*
X125849375Y-75310625D01*
X126340582Y-75638839D01*
X126773744Y-75725000D01*
X127066256Y-75725000D01*
X127499418Y-75638839D01*
X127990625Y-75310625D01*
X128203843Y-74991522D01*
X128264817Y-75121358D01*
X128693076Y-75511645D01*
X129103110Y-75681476D01*
X129333000Y-75560155D01*
X129333000Y-74367000D01*
X129313000Y-74367000D01*
X129313000Y-74113000D01*
X129333000Y-74113000D01*
X129333000Y-74093000D01*
X129587000Y-74093000D01*
X129587000Y-74113000D01*
X129607000Y-74113000D01*
X129607000Y-74367000D01*
X129587000Y-74367000D01*
X129587000Y-75560155D01*
X129816890Y-75681476D01*
X130226924Y-75511645D01*
X130655183Y-75121358D01*
X130716157Y-74991522D01*
X130929375Y-75310625D01*
X131420582Y-75638839D01*
X131853744Y-75725000D01*
X132146256Y-75725000D01*
X132579418Y-75638839D01*
X133070625Y-75310625D01*
X133283843Y-74991522D01*
X133344817Y-75121358D01*
X133773076Y-75511645D01*
X134183110Y-75681476D01*
X134413000Y-75560155D01*
X134413000Y-74367000D01*
X134393000Y-74367000D01*
X134393000Y-74113000D01*
X134413000Y-74113000D01*
X134413000Y-74093000D01*
X134667000Y-74093000D01*
X134667000Y-74113000D01*
X134687000Y-74113000D01*
X134687000Y-74367000D01*
X134667000Y-74367000D01*
X134667000Y-75560155D01*
X134896890Y-75681476D01*
X135306924Y-75511645D01*
X135735183Y-75121358D01*
X135796157Y-74991522D01*
X136009375Y-75310625D01*
X136500582Y-75638839D01*
X136933744Y-75725000D01*
X137226256Y-75725000D01*
X137659418Y-75638839D01*
X138150625Y-75310625D01*
X138350000Y-75012239D01*
X138549375Y-75310625D01*
X139040582Y-75638839D01*
X139473744Y-75725000D01*
X139766256Y-75725000D01*
X140199418Y-75638839D01*
X140690625Y-75310625D01*
X140890000Y-75012239D01*
X141089375Y-75310625D01*
X141580582Y-75638839D01*
X142013744Y-75725000D01*
X142306256Y-75725000D01*
X142739418Y-75638839D01*
X143230625Y-75310625D01*
X143430000Y-75012239D01*
X143629375Y-75310625D01*
X144120582Y-75638839D01*
X144553744Y-75725000D01*
X144846256Y-75725000D01*
X145279418Y-75638839D01*
X145770625Y-75310625D01*
X145983843Y-74991522D01*
X146044817Y-75121358D01*
X146473076Y-75511645D01*
X146883110Y-75681476D01*
X147113000Y-75560155D01*
X147113000Y-74367000D01*
X147093000Y-74367000D01*
X147093000Y-74113000D01*
X147113000Y-74113000D01*
X147113000Y-74093000D01*
X147367000Y-74093000D01*
X147367000Y-74113000D01*
X147387000Y-74113000D01*
X147387000Y-74367000D01*
X147367000Y-74367000D01*
X147367000Y-75560155D01*
X147596890Y-75681476D01*
X148006924Y-75511645D01*
X148435183Y-75121358D01*
X148496157Y-74991522D01*
X148709375Y-75310625D01*
X149200582Y-75638839D01*
X149633744Y-75725000D01*
X149926256Y-75725000D01*
X150359418Y-75638839D01*
X150850625Y-75310625D01*
X151050000Y-75012239D01*
X151249375Y-75310625D01*
X151740582Y-75638839D01*
X152173744Y-75725000D01*
X152466256Y-75725000D01*
X152899418Y-75638839D01*
X153390625Y-75310625D01*
X153603843Y-74991522D01*
X153664817Y-75121358D01*
X154093076Y-75511645D01*
X154503110Y-75681476D01*
X154733000Y-75560155D01*
X154733000Y-74367000D01*
X154713000Y-74367000D01*
X154713000Y-74113000D01*
X154733000Y-74113000D01*
X154733000Y-74093000D01*
X154987000Y-74093000D01*
X154987000Y-74113000D01*
X155007000Y-74113000D01*
X155007000Y-74367000D01*
X154987000Y-74367000D01*
X154987000Y-75560155D01*
X155216890Y-75681476D01*
X155626924Y-75511645D01*
X156055183Y-75121358D01*
X156116157Y-74991522D01*
X156329375Y-75310625D01*
X156820582Y-75638839D01*
X157253744Y-75725000D01*
X157546256Y-75725000D01*
X157979418Y-75638839D01*
X158470625Y-75310625D01*
X158670000Y-75012239D01*
X158869375Y-75310625D01*
X159360582Y-75638839D01*
X159793744Y-75725000D01*
X160086256Y-75725000D01*
X160519418Y-75638839D01*
X161010625Y-75310625D01*
X161210000Y-75012239D01*
X161409375Y-75310625D01*
X161900582Y-75638839D01*
X162333744Y-75725000D01*
X162626256Y-75725000D01*
X163059418Y-75638839D01*
X163550625Y-75310625D01*
X163763843Y-74991522D01*
X163824817Y-75121358D01*
X164253076Y-75511645D01*
X164663110Y-75681476D01*
X164893000Y-75560155D01*
X164893000Y-74367000D01*
X164873000Y-74367000D01*
X164873000Y-74113000D01*
X164893000Y-74113000D01*
X164893000Y-74093000D01*
X165147000Y-74093000D01*
X165147000Y-74113000D01*
X165167000Y-74113000D01*
X165167000Y-74367000D01*
X165147000Y-74367000D01*
X165147000Y-75560155D01*
X165376890Y-75681476D01*
X165786924Y-75511645D01*
X166215183Y-75121358D01*
X166276157Y-74991522D01*
X166489375Y-75310625D01*
X166980582Y-75638839D01*
X167413744Y-75725000D01*
X167706256Y-75725000D01*
X168139418Y-75638839D01*
X168630625Y-75310625D01*
X168830000Y-75012239D01*
X169029375Y-75310625D01*
X169520582Y-75638839D01*
X169953744Y-75725000D01*
X169968555Y-75725000D01*
X171572174Y-77328620D01*
X171635943Y-77424057D01*
X172014024Y-77676682D01*
X172142244Y-77702186D01*
X172547381Y-77870000D01*
X173052619Y-77870000D01*
X173519397Y-77676654D01*
X173876654Y-77319397D01*
X174070000Y-76852619D01*
X174070000Y-76347381D01*
X173876654Y-75880603D01*
X173519397Y-75523346D01*
X173052619Y-75330000D01*
X172806446Y-75330000D01*
X171588677Y-74112232D01*
X171498839Y-73660582D01*
X171170625Y-73169375D01*
X171152381Y-73157184D01*
X171197765Y-73148157D01*
X171407809Y-73007809D01*
X171548157Y-72797765D01*
X171586468Y-72605159D01*
X173015000Y-72605159D01*
X173015000Y-73394841D01*
X173317199Y-74124412D01*
X173875588Y-74682801D01*
X174605159Y-74985000D01*
X175394841Y-74985000D01*
X176124412Y-74682801D01*
X176682801Y-74124412D01*
X176985000Y-73394841D01*
X176985000Y-72605159D01*
X176682801Y-71875588D01*
X176124412Y-71317199D01*
X175394841Y-71015000D01*
X174605159Y-71015000D01*
X173875588Y-71317199D01*
X173317199Y-71875588D01*
X173015000Y-72605159D01*
X171586468Y-72605159D01*
X171597440Y-72550000D01*
X171597440Y-70850000D01*
X171548157Y-70602235D01*
X171519942Y-70560008D01*
X173375145Y-70560008D01*
X173449992Y-70574896D01*
X173524839Y-70560008D01*
X173524844Y-70560008D01*
X173746529Y-70515912D01*
X173997921Y-70347937D01*
X174040323Y-70284478D01*
X176911698Y-67413104D01*
X176964561Y-67435000D01*
X177323472Y-67435000D01*
X177156302Y-67602170D01*
X176915000Y-68184724D01*
X176915000Y-68815276D01*
X177156302Y-69397830D01*
X177602170Y-69843698D01*
X178184724Y-70085000D01*
X178815276Y-70085000D01*
X179397830Y-69843698D01*
X179843698Y-69397830D01*
X180085000Y-68815276D01*
X180085000Y-68184724D01*
X179843698Y-67602170D01*
X179397830Y-67156302D01*
X178815276Y-66915000D01*
X178364396Y-66915000D01*
X178466534Y-66812862D01*
X178685000Y-66285439D01*
X178685000Y-65714561D01*
X178583160Y-65468699D01*
X179265438Y-65542687D01*
X181360640Y-65923042D01*
X183423288Y-66452225D01*
X185442822Y-67127528D01*
X187408912Y-67945497D01*
X189311476Y-68901938D01*
X191140793Y-69991961D01*
X192887493Y-71209985D01*
X194542647Y-72549785D01*
X196097769Y-74004493D01*
X197544892Y-75566651D01*
X198876639Y-77228299D01*
X200086163Y-78980897D01*
X201167285Y-80815487D01*
X202114473Y-82722682D01*
X202922878Y-84692716D01*
X203588363Y-86715512D01*
X204107517Y-88780704D01*
X204477690Y-90877749D01*
X204696980Y-92995863D01*
X204764270Y-95124263D01*
X204679213Y-97251999D01*
X204442245Y-99368228D01*
X204054576Y-101462104D01*
X203518198Y-103522887D01*
X202835849Y-105540056D01*
X202011026Y-107503267D01*
X201047947Y-109402488D01*
X199951544Y-111227990D01*
X198727426Y-112970434D01*
X197381857Y-114620900D01*
X195921739Y-116170924D01*
X194354518Y-117612603D01*
X192688246Y-118938529D01*
X190931441Y-120141926D01*
X189093082Y-121216641D01*
X187182586Y-122157169D01*
X185209761Y-122958683D01*
X183184638Y-123617109D01*
X181117650Y-124129051D01*
X179019343Y-124491899D01*
X176899056Y-124703936D01*
X174988257Y-124765000D01*
X97013162Y-124765000D01*
X94871908Y-124688355D01*
X92754716Y-124460223D01*
X90659253Y-124081302D01*
X88596237Y-123553528D01*
X86576250Y-122879610D01*
X84609593Y-122062982D01*
X83697332Y-121605159D01*
X115015000Y-121605159D01*
X115015000Y-122394841D01*
X115317199Y-123124412D01*
X115875588Y-123682801D01*
X116605159Y-123985000D01*
X117394841Y-123985000D01*
X118124412Y-123682801D01*
X118567213Y-123240000D01*
X120325908Y-123240000D01*
X120441161Y-123819418D01*
X120769375Y-124310625D01*
X121260582Y-124638839D01*
X121693744Y-124725000D01*
X121986256Y-124725000D01*
X122419418Y-124638839D01*
X122910625Y-124310625D01*
X123110000Y-124012239D01*
X123309375Y-124310625D01*
X123800582Y-124638839D01*
X124233744Y-124725000D01*
X124526256Y-124725000D01*
X124959418Y-124638839D01*
X125450625Y-124310625D01*
X125650000Y-124012239D01*
X125849375Y-124310625D01*
X126340582Y-124638839D01*
X126773744Y-124725000D01*
X127066256Y-124725000D01*
X127499418Y-124638839D01*
X127990625Y-124310625D01*
X128203843Y-123991522D01*
X128264817Y-124121358D01*
X128693076Y-124511645D01*
X129103110Y-124681476D01*
X129333000Y-124560155D01*
X129333000Y-123367000D01*
X129313000Y-123367000D01*
X129313000Y-123113000D01*
X129333000Y-123113000D01*
X129333000Y-123093000D01*
X129587000Y-123093000D01*
X129587000Y-123113000D01*
X129607000Y-123113000D01*
X129607000Y-123367000D01*
X129587000Y-123367000D01*
X129587000Y-124560155D01*
X129816890Y-124681476D01*
X130226924Y-124511645D01*
X130655183Y-124121358D01*
X130716157Y-123991522D01*
X130929375Y-124310625D01*
X131420582Y-124638839D01*
X131853744Y-124725000D01*
X132146256Y-124725000D01*
X132579418Y-124638839D01*
X133070625Y-124310625D01*
X133283843Y-123991522D01*
X133344817Y-124121358D01*
X133773076Y-124511645D01*
X134183110Y-124681476D01*
X134413000Y-124560155D01*
X134413000Y-123367000D01*
X134393000Y-123367000D01*
X134393000Y-123113000D01*
X134413000Y-123113000D01*
X134413000Y-123093000D01*
X134667000Y-123093000D01*
X134667000Y-123113000D01*
X134687000Y-123113000D01*
X134687000Y-123367000D01*
X134667000Y-123367000D01*
X134667000Y-124560155D01*
X134896890Y-124681476D01*
X135306924Y-124511645D01*
X135735183Y-124121358D01*
X135796157Y-123991522D01*
X136009375Y-124310625D01*
X136500582Y-124638839D01*
X136933744Y-124725000D01*
X137226256Y-124725000D01*
X137659418Y-124638839D01*
X138150625Y-124310625D01*
X138350000Y-124012239D01*
X138549375Y-124310625D01*
X139040582Y-124638839D01*
X139473744Y-124725000D01*
X139766256Y-124725000D01*
X140199418Y-124638839D01*
X140690625Y-124310625D01*
X140890000Y-124012239D01*
X141089375Y-124310625D01*
X141580582Y-124638839D01*
X142013744Y-124725000D01*
X142306256Y-124725000D01*
X142739418Y-124638839D01*
X143230625Y-124310625D01*
X143430000Y-124012239D01*
X143629375Y-124310625D01*
X144120582Y-124638839D01*
X144553744Y-124725000D01*
X144846256Y-124725000D01*
X145279418Y-124638839D01*
X145770625Y-124310625D01*
X145983843Y-123991522D01*
X146044817Y-124121358D01*
X146473076Y-124511645D01*
X146883110Y-124681476D01*
X147113000Y-124560155D01*
X147113000Y-123367000D01*
X147093000Y-123367000D01*
X147093000Y-123113000D01*
X147113000Y-123113000D01*
X147113000Y-123093000D01*
X147367000Y-123093000D01*
X147367000Y-123113000D01*
X147387000Y-123113000D01*
X147387000Y-123367000D01*
X147367000Y-123367000D01*
X147367000Y-124560155D01*
X147596890Y-124681476D01*
X148006924Y-124511645D01*
X148435183Y-124121358D01*
X148496157Y-123991522D01*
X148709375Y-124310625D01*
X149200582Y-124638839D01*
X149633744Y-124725000D01*
X149926256Y-124725000D01*
X150359418Y-124638839D01*
X150850625Y-124310625D01*
X151050000Y-124012239D01*
X151249375Y-124310625D01*
X151740582Y-124638839D01*
X152173744Y-124725000D01*
X152466256Y-124725000D01*
X152899418Y-124638839D01*
X153390625Y-124310625D01*
X153603843Y-123991522D01*
X153664817Y-124121358D01*
X154093076Y-124511645D01*
X154503110Y-124681476D01*
X154733000Y-124560155D01*
X154733000Y-123367000D01*
X154713000Y-123367000D01*
X154713000Y-123113000D01*
X154733000Y-123113000D01*
X154733000Y-123093000D01*
X154987000Y-123093000D01*
X154987000Y-123113000D01*
X155007000Y-123113000D01*
X155007000Y-123367000D01*
X154987000Y-123367000D01*
X154987000Y-124560155D01*
X155216890Y-124681476D01*
X155626924Y-124511645D01*
X156055183Y-124121358D01*
X156116157Y-123991522D01*
X156329375Y-124310625D01*
X156820582Y-124638839D01*
X157253744Y-124725000D01*
X157546256Y-124725000D01*
X157979418Y-124638839D01*
X158470625Y-124310625D01*
X158670000Y-124012239D01*
X158869375Y-124310625D01*
X159360582Y-124638839D01*
X159793744Y-124725000D01*
X160086256Y-124725000D01*
X160519418Y-124638839D01*
X161010625Y-124310625D01*
X161210000Y-124012239D01*
X161409375Y-124310625D01*
X161900582Y-124638839D01*
X162333744Y-124725000D01*
X162626256Y-124725000D01*
X163059418Y-124638839D01*
X163550625Y-124310625D01*
X163763843Y-123991522D01*
X163824817Y-124121358D01*
X164253076Y-124511645D01*
X164663110Y-124681476D01*
X164893000Y-124560155D01*
X164893000Y-123367000D01*
X164873000Y-123367000D01*
X164873000Y-123113000D01*
X164893000Y-123113000D01*
X164893000Y-123093000D01*
X165147000Y-123093000D01*
X165147000Y-123113000D01*
X165167000Y-123113000D01*
X165167000Y-123367000D01*
X165147000Y-123367000D01*
X165147000Y-124560155D01*
X165376890Y-124681476D01*
X165786924Y-124511645D01*
X166215183Y-124121358D01*
X166276157Y-123991522D01*
X166489375Y-124310625D01*
X166980582Y-124638839D01*
X167413744Y-124725000D01*
X167706256Y-124725000D01*
X168139418Y-124638839D01*
X168630625Y-124310625D01*
X168830000Y-124012239D01*
X169029375Y-124310625D01*
X169520582Y-124638839D01*
X169953744Y-124725000D01*
X170246256Y-124725000D01*
X170679418Y-124638839D01*
X171170625Y-124310625D01*
X171498839Y-123819418D01*
X171614092Y-123240000D01*
X171498839Y-122660582D01*
X171170625Y-122169375D01*
X171152381Y-122157184D01*
X171197765Y-122148157D01*
X171407809Y-122007809D01*
X171548157Y-121797765D01*
X171586468Y-121605159D01*
X173015000Y-121605159D01*
X173015000Y-122394841D01*
X173317199Y-123124412D01*
X173875588Y-123682801D01*
X174605159Y-123985000D01*
X175394841Y-123985000D01*
X176124412Y-123682801D01*
X176682801Y-123124412D01*
X176985000Y-122394841D01*
X176985000Y-121605159D01*
X176682801Y-120875588D01*
X176124412Y-120317199D01*
X175394841Y-120015000D01*
X174605159Y-120015000D01*
X173875588Y-120317199D01*
X173317199Y-120875588D01*
X173015000Y-121605159D01*
X171586468Y-121605159D01*
X171597440Y-121550000D01*
X171597440Y-119850000D01*
X171548157Y-119602235D01*
X171407809Y-119392191D01*
X171197765Y-119251843D01*
X170950000Y-119202560D01*
X169250000Y-119202560D01*
X169002235Y-119251843D01*
X168792191Y-119392191D01*
X168651843Y-119602235D01*
X168642816Y-119647619D01*
X168630625Y-119629375D01*
X168139418Y-119301161D01*
X167706256Y-119215000D01*
X167413744Y-119215000D01*
X166980582Y-119301161D01*
X166489375Y-119629375D01*
X166290000Y-119927761D01*
X166090625Y-119629375D01*
X165599418Y-119301161D01*
X165166256Y-119215000D01*
X164873744Y-119215000D01*
X164440582Y-119301161D01*
X163949375Y-119629375D01*
X163750000Y-119927761D01*
X163550625Y-119629375D01*
X163059418Y-119301161D01*
X162626256Y-119215000D01*
X162333744Y-119215000D01*
X161900582Y-119301161D01*
X161409375Y-119629375D01*
X161196157Y-119948478D01*
X161135183Y-119818642D01*
X160706924Y-119428355D01*
X160296890Y-119258524D01*
X160067000Y-119379845D01*
X160067000Y-120573000D01*
X160087000Y-120573000D01*
X160087000Y-120827000D01*
X160067000Y-120827000D01*
X160067000Y-120847000D01*
X159813000Y-120847000D01*
X159813000Y-120827000D01*
X159793000Y-120827000D01*
X159793000Y-120573000D01*
X159813000Y-120573000D01*
X159813000Y-119379845D01*
X159583110Y-119258524D01*
X159173076Y-119428355D01*
X158744817Y-119818642D01*
X158683843Y-119948478D01*
X158470625Y-119629375D01*
X157979418Y-119301161D01*
X157546256Y-119215000D01*
X157253744Y-119215000D01*
X156820582Y-119301161D01*
X156329375Y-119629375D01*
X156130000Y-119927761D01*
X155930625Y-119629375D01*
X155439418Y-119301161D01*
X155006256Y-119215000D01*
X154713744Y-119215000D01*
X154280582Y-119301161D01*
X153789375Y-119629375D01*
X153590000Y-119927761D01*
X153390625Y-119629375D01*
X152899418Y-119301161D01*
X152466256Y-119215000D01*
X152339802Y-119215000D01*
X153394802Y-118160000D01*
X169163949Y-118160000D01*
X169480603Y-118476654D01*
X169947381Y-118670000D01*
X170452619Y-118670000D01*
X170919397Y-118476654D01*
X171276654Y-118119397D01*
X171470000Y-117652619D01*
X171470000Y-117147381D01*
X171276654Y-116680603D01*
X170919397Y-116323346D01*
X170452619Y-116130000D01*
X169947381Y-116130000D01*
X169480603Y-116323346D01*
X169163949Y-116640000D01*
X153154848Y-116640000D01*
X153080000Y-116625112D01*
X153005152Y-116640000D01*
X153005148Y-116640000D01*
X152850171Y-116670827D01*
X152783462Y-116684096D01*
X152597164Y-116808577D01*
X152532071Y-116852071D01*
X152489671Y-116915527D01*
X150146408Y-119258791D01*
X149926256Y-119215000D01*
X149633744Y-119215000D01*
X149200582Y-119301161D01*
X148709375Y-119629375D01*
X148510000Y-119927761D01*
X148310625Y-119629375D01*
X147819418Y-119301161D01*
X147386256Y-119215000D01*
X147093744Y-119215000D01*
X146660582Y-119301161D01*
X146169375Y-119629375D01*
X145970000Y-119927761D01*
X145770625Y-119629375D01*
X145279418Y-119301161D01*
X144846256Y-119215000D01*
X144553744Y-119215000D01*
X144120582Y-119301161D01*
X143629375Y-119629375D01*
X143430000Y-119927761D01*
X143230625Y-119629375D01*
X142739418Y-119301161D01*
X142306256Y-119215000D01*
X142013744Y-119215000D01*
X141580582Y-119301161D01*
X141089375Y-119629375D01*
X140876157Y-119948478D01*
X140815183Y-119818642D01*
X140386924Y-119428355D01*
X139976890Y-119258524D01*
X139747000Y-119379845D01*
X139747000Y-120573000D01*
X139767000Y-120573000D01*
X139767000Y-120827000D01*
X139747000Y-120827000D01*
X139747000Y-120847000D01*
X139493000Y-120847000D01*
X139493000Y-120827000D01*
X139473000Y-120827000D01*
X139473000Y-120573000D01*
X139493000Y-120573000D01*
X139493000Y-119379845D01*
X139263110Y-119258524D01*
X138853076Y-119428355D01*
X138424817Y-119818642D01*
X138363843Y-119948478D01*
X138150625Y-119629375D01*
X137659418Y-119301161D01*
X137226256Y-119215000D01*
X136933744Y-119215000D01*
X136500582Y-119301161D01*
X136009375Y-119629375D01*
X135810000Y-119927761D01*
X135610625Y-119629375D01*
X135119418Y-119301161D01*
X134686256Y-119215000D01*
X134393744Y-119215000D01*
X133960582Y-119301161D01*
X133469375Y-119629375D01*
X133270000Y-119927761D01*
X133070625Y-119629375D01*
X132579418Y-119301161D01*
X132146256Y-119215000D01*
X131853744Y-119215000D01*
X131420582Y-119301161D01*
X130929375Y-119629375D01*
X130730000Y-119927761D01*
X130530625Y-119629375D01*
X130039418Y-119301161D01*
X129606256Y-119215000D01*
X129313744Y-119215000D01*
X128880582Y-119301161D01*
X128389375Y-119629375D01*
X128190000Y-119927761D01*
X127990625Y-119629375D01*
X127499418Y-119301161D01*
X127066256Y-119215000D01*
X126773744Y-119215000D01*
X126340582Y-119301161D01*
X125849375Y-119629375D01*
X125650000Y-119927761D01*
X125450625Y-119629375D01*
X124959418Y-119301161D01*
X124526256Y-119215000D01*
X124233744Y-119215000D01*
X123800582Y-119301161D01*
X123309375Y-119629375D01*
X123096157Y-119948478D01*
X123035183Y-119818642D01*
X122606924Y-119428355D01*
X122196890Y-119258524D01*
X121967000Y-119379845D01*
X121967000Y-120573000D01*
X121987000Y-120573000D01*
X121987000Y-120827000D01*
X121967000Y-120827000D01*
X121967000Y-120847000D01*
X121713000Y-120847000D01*
X121713000Y-120827000D01*
X120519181Y-120827000D01*
X120398514Y-121056892D01*
X120644817Y-121581358D01*
X121069786Y-121968647D01*
X120769375Y-122169375D01*
X120441161Y-122660582D01*
X120325908Y-123240000D01*
X118567213Y-123240000D01*
X118682801Y-123124412D01*
X118985000Y-122394841D01*
X118985000Y-121605159D01*
X118682801Y-120875588D01*
X118150321Y-120343108D01*
X120398514Y-120343108D01*
X120519181Y-120573000D01*
X121713000Y-120573000D01*
X121713000Y-119379845D01*
X121483110Y-119258524D01*
X121073076Y-119428355D01*
X120644817Y-119818642D01*
X120398514Y-120343108D01*
X118150321Y-120343108D01*
X118124412Y-120317199D01*
X117394841Y-120015000D01*
X116605159Y-120015000D01*
X115875588Y-120317199D01*
X115317199Y-120875588D01*
X115015000Y-121605159D01*
X83697332Y-121605159D01*
X82706375Y-121107843D01*
X80876301Y-120019062D01*
X79128782Y-118802243D01*
X77472709Y-117463572D01*
X75916604Y-116009941D01*
X74468395Y-114448751D01*
X73135527Y-112788032D01*
X71924801Y-111036259D01*
X70842422Y-109202405D01*
X69893932Y-107295864D01*
X69423851Y-106152532D01*
X91727073Y-106152532D01*
X91825736Y-106419387D01*
X92435461Y-106645908D01*
X93085460Y-106621856D01*
X93574264Y-106419387D01*
X93672927Y-106152532D01*
X100227073Y-106152532D01*
X100325736Y-106419387D01*
X100935461Y-106645908D01*
X101585460Y-106621856D01*
X102074264Y-106419387D01*
X102172927Y-106152532D01*
X101200000Y-105179605D01*
X100227073Y-106152532D01*
X93672927Y-106152532D01*
X92700000Y-105179605D01*
X91727073Y-106152532D01*
X69423851Y-106152532D01*
X69084178Y-105326380D01*
X68889323Y-104735461D01*
X91054092Y-104735461D01*
X91078144Y-105385460D01*
X91280613Y-105874264D01*
X91547468Y-105972927D01*
X92520395Y-105000000D01*
X92879605Y-105000000D01*
X93852532Y-105972927D01*
X94119387Y-105874264D01*
X94345908Y-105264539D01*
X94326331Y-104735461D01*
X99554092Y-104735461D01*
X99578144Y-105385460D01*
X99780613Y-105874264D01*
X100047468Y-105972927D01*
X101020395Y-105000000D01*
X101379605Y-105000000D01*
X102352532Y-105972927D01*
X102619387Y-105874264D01*
X102845908Y-105264539D01*
X102834173Y-104947381D01*
X155930000Y-104947381D01*
X155930000Y-105452619D01*
X156123346Y-105919397D01*
X156480603Y-106276654D01*
X156947381Y-106470000D01*
X157452619Y-106470000D01*
X157919397Y-106276654D01*
X158236051Y-105960000D01*
X169597761Y-105960000D01*
X170023847Y-106386086D01*
X170624778Y-106635000D01*
X171275222Y-106635000D01*
X171876153Y-106386086D01*
X172336086Y-105926153D01*
X172404909Y-105760000D01*
X177995091Y-105760000D01*
X178063914Y-105926153D01*
X178523847Y-106386086D01*
X179124778Y-106635000D01*
X179775222Y-106635000D01*
X180376153Y-106386086D01*
X180836086Y-105926153D01*
X181085000Y-105325222D01*
X181085000Y-104674778D01*
X180836086Y-104073847D01*
X180376153Y-103613914D01*
X179775222Y-103365000D01*
X179124778Y-103365000D01*
X178523847Y-103613914D01*
X178063914Y-104073847D01*
X177995091Y-104240000D01*
X172404909Y-104240000D01*
X172336086Y-104073847D01*
X171876153Y-103613914D01*
X171275222Y-103365000D01*
X170624778Y-103365000D01*
X170023847Y-103613914D01*
X169563914Y-104073847D01*
X169412248Y-104440000D01*
X158236051Y-104440000D01*
X157919397Y-104123346D01*
X157452619Y-103930000D01*
X156947381Y-103930000D01*
X156480603Y-104123346D01*
X156123346Y-104480603D01*
X155930000Y-104947381D01*
X102834173Y-104947381D01*
X102821856Y-104614540D01*
X102619387Y-104125736D01*
X102352532Y-104027073D01*
X101379605Y-105000000D01*
X101020395Y-105000000D01*
X100047468Y-104027073D01*
X99780613Y-104125736D01*
X99554092Y-104735461D01*
X94326331Y-104735461D01*
X94321856Y-104614540D01*
X94119387Y-104125736D01*
X93852532Y-104027073D01*
X92879605Y-105000000D01*
X92520395Y-105000000D01*
X91547468Y-104027073D01*
X91280613Y-104125736D01*
X91054092Y-104735461D01*
X68889323Y-104735461D01*
X68596507Y-103847468D01*
X91727073Y-103847468D01*
X92700000Y-104820395D01*
X93672927Y-103847468D01*
X100227073Y-103847468D01*
X101200000Y-104820395D01*
X102172927Y-103847468D01*
X102074264Y-103580613D01*
X101464539Y-103354092D01*
X100814540Y-103378144D01*
X100325736Y-103580613D01*
X100227073Y-103847468D01*
X93672927Y-103847468D01*
X93574264Y-103580613D01*
X92964539Y-103354092D01*
X92314540Y-103378144D01*
X91825736Y-103580613D01*
X91727073Y-103847468D01*
X68596507Y-103847468D01*
X68417309Y-103304034D01*
X67896743Y-101239203D01*
X67525136Y-99142419D01*
X67320065Y-97174778D01*
X81065000Y-97174778D01*
X81065000Y-97825222D01*
X81313914Y-98426153D01*
X81773847Y-98886086D01*
X82374778Y-99135000D01*
X83025222Y-99135000D01*
X83626153Y-98886086D01*
X84086086Y-98426153D01*
X84154909Y-98260000D01*
X89745091Y-98260000D01*
X89813914Y-98426153D01*
X90273847Y-98886086D01*
X90874778Y-99135000D01*
X91525222Y-99135000D01*
X92126153Y-98886086D01*
X92586086Y-98426153D01*
X92835000Y-97825222D01*
X92835000Y-97174778D01*
X92766177Y-97008625D01*
X93214802Y-96560000D01*
X101327761Y-96560000D01*
X101313914Y-96573847D01*
X101065000Y-97174778D01*
X101065000Y-97825222D01*
X101313914Y-98426153D01*
X101773847Y-98886086D01*
X102374778Y-99135000D01*
X103025222Y-99135000D01*
X103626153Y-98886086D01*
X104086086Y-98426153D01*
X104154909Y-98260000D01*
X109745091Y-98260000D01*
X109813914Y-98426153D01*
X110273847Y-98886086D01*
X110874778Y-99135000D01*
X111525222Y-99135000D01*
X111691375Y-99066177D01*
X112309671Y-99684473D01*
X112352071Y-99747929D01*
X112603463Y-99915904D01*
X112825148Y-99960000D01*
X112825152Y-99960000D01*
X112899999Y-99974888D01*
X112974846Y-99960000D01*
X119563949Y-99960000D01*
X119593949Y-99990000D01*
X102654909Y-99990000D01*
X102586086Y-99823847D01*
X102126153Y-99363914D01*
X101525222Y-99115000D01*
X100874778Y-99115000D01*
X100273847Y-99363914D01*
X99813914Y-99823847D01*
X99745091Y-99990000D01*
X94154909Y-99990000D01*
X94086086Y-99823847D01*
X93626153Y-99363914D01*
X93025222Y-99115000D01*
X92374778Y-99115000D01*
X91773847Y-99363914D01*
X91313914Y-99823847D01*
X91065000Y-100424778D01*
X91065000Y-101075222D01*
X91313914Y-101676153D01*
X91773847Y-102136086D01*
X92374778Y-102385000D01*
X93025222Y-102385000D01*
X93626153Y-102136086D01*
X94086086Y-101676153D01*
X94154909Y-101510000D01*
X99745091Y-101510000D01*
X99813914Y-101676153D01*
X100273847Y-102136086D01*
X100874778Y-102385000D01*
X101525222Y-102385000D01*
X102126153Y-102136086D01*
X102586086Y-101676153D01*
X102654909Y-101510000D01*
X157930000Y-101510000D01*
X157930000Y-101962619D01*
X158123346Y-102429397D01*
X158480603Y-102786654D01*
X158947381Y-102980000D01*
X159395199Y-102980000D01*
X160099671Y-103684473D01*
X160142071Y-103747929D01*
X160393463Y-103915904D01*
X160615148Y-103960000D01*
X160615152Y-103960000D01*
X160689999Y-103974888D01*
X160764846Y-103960000D01*
X166125153Y-103960000D01*
X166200000Y-103974888D01*
X166274847Y-103960000D01*
X166274852Y-103960000D01*
X166496537Y-103915904D01*
X166747929Y-103747929D01*
X166790331Y-103684470D01*
X168572269Y-101902532D01*
X169977073Y-101902532D01*
X170075736Y-102169387D01*
X170685461Y-102395908D01*
X171335460Y-102371856D01*
X171824264Y-102169387D01*
X171922927Y-101902532D01*
X178477073Y-101902532D01*
X178575736Y-102169387D01*
X179185461Y-102395908D01*
X179835460Y-102371856D01*
X180324264Y-102169387D01*
X180422927Y-101902532D01*
X179450000Y-100929605D01*
X178477073Y-101902532D01*
X171922927Y-101902532D01*
X170950000Y-100929605D01*
X169977073Y-101902532D01*
X168572269Y-101902532D01*
X169331424Y-101143378D01*
X169530613Y-101624264D01*
X169797468Y-101722927D01*
X170770395Y-100750000D01*
X171129605Y-100750000D01*
X172102532Y-101722927D01*
X172369387Y-101624264D01*
X172595908Y-101014539D01*
X172576331Y-100485461D01*
X177804092Y-100485461D01*
X177828144Y-101135460D01*
X178030613Y-101624264D01*
X178297468Y-101722927D01*
X179270395Y-100750000D01*
X179629605Y-100750000D01*
X180602532Y-101722927D01*
X180869387Y-101624264D01*
X181095908Y-101014539D01*
X181071856Y-100364540D01*
X180869387Y-99875736D01*
X180602532Y-99777073D01*
X179629605Y-100750000D01*
X179270395Y-100750000D01*
X178297468Y-99777073D01*
X178030613Y-99875736D01*
X177804092Y-100485461D01*
X172576331Y-100485461D01*
X172571856Y-100364540D01*
X172369387Y-99875736D01*
X172102532Y-99777073D01*
X171129605Y-100750000D01*
X170770395Y-100750000D01*
X170756253Y-100735858D01*
X170935858Y-100556253D01*
X170950000Y-100570395D01*
X171922927Y-99597468D01*
X178477073Y-99597468D01*
X179450000Y-100570395D01*
X180422927Y-99597468D01*
X180324264Y-99330613D01*
X179714539Y-99104092D01*
X179064540Y-99128144D01*
X178575736Y-99330613D01*
X178477073Y-99597468D01*
X171922927Y-99597468D01*
X171824264Y-99330613D01*
X171328407Y-99146395D01*
X171684473Y-98790329D01*
X171747929Y-98747929D01*
X171811671Y-98652532D01*
X179977073Y-98652532D01*
X180075736Y-98919387D01*
X180685461Y-99145908D01*
X181335460Y-99121856D01*
X181824264Y-98919387D01*
X181922927Y-98652532D01*
X188477073Y-98652532D01*
X188575736Y-98919387D01*
X189185461Y-99145908D01*
X189835460Y-99121856D01*
X190324264Y-98919387D01*
X190422927Y-98652532D01*
X189450000Y-97679605D01*
X188477073Y-98652532D01*
X181922927Y-98652532D01*
X180950000Y-97679605D01*
X179977073Y-98652532D01*
X171811671Y-98652532D01*
X171838008Y-98613117D01*
X171915904Y-98496538D01*
X171929904Y-98426153D01*
X171960000Y-98274852D01*
X171960000Y-98274848D01*
X171974888Y-98200000D01*
X171960000Y-98125152D01*
X171960000Y-97235461D01*
X179304092Y-97235461D01*
X179328144Y-97885460D01*
X179530613Y-98374264D01*
X179797468Y-98472927D01*
X180770395Y-97500000D01*
X181129605Y-97500000D01*
X182102532Y-98472927D01*
X182369387Y-98374264D01*
X182595908Y-97764539D01*
X182576331Y-97235461D01*
X187804092Y-97235461D01*
X187828144Y-97885460D01*
X188030613Y-98374264D01*
X188297468Y-98472927D01*
X189270395Y-97500000D01*
X189629605Y-97500000D01*
X190602532Y-98472927D01*
X190869387Y-98374264D01*
X191095908Y-97764539D01*
X191071856Y-97114540D01*
X190869387Y-96625736D01*
X190602532Y-96527073D01*
X189629605Y-97500000D01*
X189270395Y-97500000D01*
X188297468Y-96527073D01*
X188030613Y-96625736D01*
X187804092Y-97235461D01*
X182576331Y-97235461D01*
X182571856Y-97114540D01*
X182369387Y-96625736D01*
X182102532Y-96527073D01*
X181129605Y-97500000D01*
X180770395Y-97500000D01*
X179797468Y-96527073D01*
X179530613Y-96625736D01*
X179304092Y-97235461D01*
X171960000Y-97235461D01*
X171960000Y-96874848D01*
X171974888Y-96800000D01*
X171960000Y-96725152D01*
X171960000Y-96725148D01*
X171915904Y-96503463D01*
X171811672Y-96347468D01*
X179977073Y-96347468D01*
X180950000Y-97320395D01*
X181922927Y-96347468D01*
X188477073Y-96347468D01*
X189450000Y-97320395D01*
X190422927Y-96347468D01*
X190324264Y-96080613D01*
X189714539Y-95854092D01*
X189064540Y-95878144D01*
X188575736Y-96080613D01*
X188477073Y-96347468D01*
X181922927Y-96347468D01*
X181824264Y-96080613D01*
X181214539Y-95854092D01*
X180564540Y-95878144D01*
X180075736Y-96080613D01*
X179977073Y-96347468D01*
X171811672Y-96347468D01*
X171747929Y-96252071D01*
X171684473Y-96209671D01*
X170790331Y-95315530D01*
X170747929Y-95252071D01*
X170496537Y-95084096D01*
X170274852Y-95040000D01*
X170274847Y-95040000D01*
X170200000Y-95025112D01*
X170125153Y-95040000D01*
X151808178Y-95040000D01*
X151733331Y-95025112D01*
X151658484Y-95040000D01*
X151658480Y-95040000D01*
X151436795Y-95084096D01*
X151185403Y-95252071D01*
X151143003Y-95315527D01*
X150524707Y-95933823D01*
X150358554Y-95865000D01*
X149708110Y-95865000D01*
X149107179Y-96113914D01*
X148647246Y-96573847D01*
X148578423Y-96740000D01*
X142988241Y-96740000D01*
X142919418Y-96573847D01*
X142459485Y-96113914D01*
X141858554Y-95865000D01*
X141208110Y-95865000D01*
X140607179Y-96113914D01*
X140147246Y-96573847D01*
X139898332Y-97174778D01*
X139898332Y-97825222D01*
X140147246Y-98426153D01*
X140607179Y-98886086D01*
X140978760Y-99040000D01*
X135503711Y-99040000D01*
X135386280Y-98922569D01*
X135005874Y-98765000D01*
X134594126Y-98765000D01*
X134213720Y-98922569D01*
X133922569Y-99213720D01*
X133765000Y-99594126D01*
X133765000Y-99990000D01*
X121606051Y-99990000D01*
X121676654Y-99919397D01*
X121870000Y-99452619D01*
X121870000Y-99145247D01*
X122502126Y-99121856D01*
X122990930Y-98919387D01*
X123089593Y-98652532D01*
X129643739Y-98652532D01*
X129742402Y-98919387D01*
X130352127Y-99145908D01*
X131002126Y-99121856D01*
X131490930Y-98919387D01*
X131589593Y-98652532D01*
X130616666Y-97679605D01*
X129643739Y-98652532D01*
X123089593Y-98652532D01*
X122116666Y-97679605D01*
X122102524Y-97693748D01*
X121922919Y-97514143D01*
X121937061Y-97500000D01*
X122296271Y-97500000D01*
X123269198Y-98472927D01*
X123536053Y-98374264D01*
X123762574Y-97764539D01*
X123742997Y-97235461D01*
X128970758Y-97235461D01*
X128994810Y-97885460D01*
X129197279Y-98374264D01*
X129464134Y-98472927D01*
X130437061Y-97500000D01*
X130796271Y-97500000D01*
X131769198Y-98472927D01*
X132036053Y-98374264D01*
X132262574Y-97764539D01*
X132238522Y-97114540D01*
X132036053Y-96625736D01*
X131769198Y-96527073D01*
X130796271Y-97500000D01*
X130437061Y-97500000D01*
X129464134Y-96527073D01*
X129197279Y-96625736D01*
X128970758Y-97235461D01*
X123742997Y-97235461D01*
X123738522Y-97114540D01*
X123536053Y-96625736D01*
X123269198Y-96527073D01*
X122296271Y-97500000D01*
X121937061Y-97500000D01*
X120964134Y-96527073D01*
X120697279Y-96625736D01*
X120470758Y-97235461D01*
X120494810Y-97885460D01*
X120513259Y-97930000D01*
X120347381Y-97930000D01*
X119880603Y-98123346D01*
X119563949Y-98440000D01*
X113214802Y-98440000D01*
X112766177Y-97991375D01*
X112835000Y-97825222D01*
X112835000Y-97174778D01*
X112586086Y-96573847D01*
X112572239Y-96560000D01*
X118163949Y-96560000D01*
X118480603Y-96876654D01*
X118947381Y-97070000D01*
X119452619Y-97070000D01*
X119919397Y-96876654D01*
X120276654Y-96519397D01*
X120347869Y-96347468D01*
X121143739Y-96347468D01*
X122116666Y-97320395D01*
X123089593Y-96347468D01*
X129643739Y-96347468D01*
X130616666Y-97320395D01*
X131589593Y-96347468D01*
X131490930Y-96080613D01*
X130881205Y-95854092D01*
X130231206Y-95878144D01*
X129742402Y-96080613D01*
X129643739Y-96347468D01*
X123089593Y-96347468D01*
X122990930Y-96080613D01*
X122381205Y-95854092D01*
X121731206Y-95878144D01*
X121242402Y-96080613D01*
X121143739Y-96347468D01*
X120347869Y-96347468D01*
X120470000Y-96052619D01*
X120470000Y-95547381D01*
X120276654Y-95080603D01*
X119919397Y-94723346D01*
X119452619Y-94530000D01*
X118947381Y-94530000D01*
X118480603Y-94723346D01*
X118163949Y-95040000D01*
X92974846Y-95040000D01*
X92899999Y-95025112D01*
X92825152Y-95040000D01*
X92825148Y-95040000D01*
X92603463Y-95084096D01*
X92352071Y-95252071D01*
X92309671Y-95315527D01*
X91691375Y-95933823D01*
X91525222Y-95865000D01*
X90874778Y-95865000D01*
X90273847Y-96113914D01*
X89813914Y-96573847D01*
X89745091Y-96740000D01*
X84154909Y-96740000D01*
X84086086Y-96573847D01*
X83626153Y-96113914D01*
X83025222Y-95865000D01*
X82374778Y-95865000D01*
X81773847Y-96113914D01*
X81313914Y-96573847D01*
X81065000Y-97174778D01*
X67320065Y-97174778D01*
X67304397Y-97024449D01*
X67235652Y-94896096D01*
X67255043Y-94402532D01*
X81727073Y-94402532D01*
X81825736Y-94669387D01*
X82435461Y-94895908D01*
X83085460Y-94871856D01*
X83574264Y-94669387D01*
X83672927Y-94402532D01*
X90227073Y-94402532D01*
X90325736Y-94669387D01*
X90935461Y-94895908D01*
X91585460Y-94871856D01*
X92074264Y-94669387D01*
X92172927Y-94402532D01*
X101727073Y-94402532D01*
X101825736Y-94669387D01*
X102435461Y-94895908D01*
X103085460Y-94871856D01*
X103574264Y-94669387D01*
X103672927Y-94402532D01*
X110227073Y-94402532D01*
X110325736Y-94669387D01*
X110935461Y-94895908D01*
X111585460Y-94871856D01*
X112074264Y-94669387D01*
X112172927Y-94402532D01*
X111200000Y-93429605D01*
X110227073Y-94402532D01*
X103672927Y-94402532D01*
X102700000Y-93429605D01*
X101727073Y-94402532D01*
X92172927Y-94402532D01*
X91200000Y-93429605D01*
X90227073Y-94402532D01*
X83672927Y-94402532D01*
X82700000Y-93429605D01*
X81727073Y-94402532D01*
X67255043Y-94402532D01*
X67310720Y-92985461D01*
X81054092Y-92985461D01*
X81078144Y-93635460D01*
X81280613Y-94124264D01*
X81547468Y-94222927D01*
X82520395Y-93250000D01*
X82879605Y-93250000D01*
X83852532Y-94222927D01*
X84119387Y-94124264D01*
X84345908Y-93514539D01*
X84326331Y-92985461D01*
X89554092Y-92985461D01*
X89578144Y-93635460D01*
X89780613Y-94124264D01*
X90047468Y-94222927D01*
X91020395Y-93250000D01*
X91379605Y-93250000D01*
X92352532Y-94222927D01*
X92619387Y-94124264D01*
X92845908Y-93514539D01*
X92826331Y-92985461D01*
X101054092Y-92985461D01*
X101078144Y-93635460D01*
X101280613Y-94124264D01*
X101547468Y-94222927D01*
X102520395Y-93250000D01*
X102879605Y-93250000D01*
X103852532Y-94222927D01*
X104119387Y-94124264D01*
X104345908Y-93514539D01*
X104326331Y-92985461D01*
X109554092Y-92985461D01*
X109578144Y-93635460D01*
X109780613Y-94124264D01*
X110047468Y-94222927D01*
X111020395Y-93250000D01*
X111379605Y-93250000D01*
X112352532Y-94222927D01*
X112619387Y-94124264D01*
X112845908Y-93514539D01*
X112821856Y-92864540D01*
X112773328Y-92747381D01*
X115530000Y-92747381D01*
X115530000Y-93252619D01*
X115723346Y-93719397D01*
X116080603Y-94076654D01*
X116547381Y-94270000D01*
X117052619Y-94270000D01*
X117519397Y-94076654D01*
X117836051Y-93760000D01*
X120558204Y-93760000D01*
X120730580Y-94176153D01*
X121190513Y-94636086D01*
X121791444Y-94885000D01*
X122441888Y-94885000D01*
X123042819Y-94636086D01*
X123502752Y-94176153D01*
X123571575Y-94010000D01*
X129161757Y-94010000D01*
X129230580Y-94176153D01*
X129690513Y-94636086D01*
X130291444Y-94885000D01*
X130941888Y-94885000D01*
X131542819Y-94636086D01*
X131776373Y-94402532D01*
X140560405Y-94402532D01*
X140659068Y-94669387D01*
X141268793Y-94895908D01*
X141918792Y-94871856D01*
X142407596Y-94669387D01*
X142506259Y-94402532D01*
X149060405Y-94402532D01*
X149159068Y-94669387D01*
X149768793Y-94895908D01*
X150418792Y-94871856D01*
X150907596Y-94669387D01*
X151006259Y-94402532D01*
X159977073Y-94402532D01*
X160075736Y-94669387D01*
X160685461Y-94895908D01*
X161335460Y-94871856D01*
X161824264Y-94669387D01*
X161922927Y-94402532D01*
X168477073Y-94402532D01*
X168575736Y-94669387D01*
X169185461Y-94895908D01*
X169835460Y-94871856D01*
X170324264Y-94669387D01*
X170422927Y-94402532D01*
X169450000Y-93429605D01*
X168477073Y-94402532D01*
X161922927Y-94402532D01*
X160950000Y-93429605D01*
X159977073Y-94402532D01*
X151006259Y-94402532D01*
X150033332Y-93429605D01*
X149060405Y-94402532D01*
X142506259Y-94402532D01*
X141533332Y-93429605D01*
X140560405Y-94402532D01*
X131776373Y-94402532D01*
X132002752Y-94176153D01*
X132251666Y-93575222D01*
X132251666Y-92924778D01*
X132002752Y-92323847D01*
X131542819Y-91863914D01*
X130941888Y-91615000D01*
X130291444Y-91615000D01*
X129690513Y-91863914D01*
X129230580Y-92323847D01*
X129161757Y-92490000D01*
X123571575Y-92490000D01*
X123502752Y-92323847D01*
X123042819Y-91863914D01*
X122441888Y-91615000D01*
X121791444Y-91615000D01*
X121190513Y-91863914D01*
X120814427Y-92240000D01*
X117836051Y-92240000D01*
X117519397Y-91923346D01*
X117052619Y-91730000D01*
X116547381Y-91730000D01*
X116080603Y-91923346D01*
X115723346Y-92280603D01*
X115530000Y-92747381D01*
X112773328Y-92747381D01*
X112619387Y-92375736D01*
X112352532Y-92277073D01*
X111379605Y-93250000D01*
X111020395Y-93250000D01*
X110047468Y-92277073D01*
X109780613Y-92375736D01*
X109554092Y-92985461D01*
X104326331Y-92985461D01*
X104321856Y-92864540D01*
X104119387Y-92375736D01*
X103852532Y-92277073D01*
X102879605Y-93250000D01*
X102520395Y-93250000D01*
X101547468Y-92277073D01*
X101280613Y-92375736D01*
X101054092Y-92985461D01*
X92826331Y-92985461D01*
X92821856Y-92864540D01*
X92619387Y-92375736D01*
X92352532Y-92277073D01*
X91379605Y-93250000D01*
X91020395Y-93250000D01*
X90047468Y-92277073D01*
X89780613Y-92375736D01*
X89554092Y-92985461D01*
X84326331Y-92985461D01*
X84321856Y-92864540D01*
X84119387Y-92375736D01*
X83852532Y-92277073D01*
X82879605Y-93250000D01*
X82520395Y-93250000D01*
X81547468Y-92277073D01*
X81280613Y-92375736D01*
X81054092Y-92985461D01*
X67310720Y-92985461D01*
X67319253Y-92768303D01*
X67393906Y-92097468D01*
X81727073Y-92097468D01*
X82700000Y-93070395D01*
X83672927Y-92097468D01*
X90227073Y-92097468D01*
X91200000Y-93070395D01*
X92172927Y-92097468D01*
X101727073Y-92097468D01*
X102700000Y-93070395D01*
X103672927Y-92097468D01*
X110227073Y-92097468D01*
X111200000Y-93070395D01*
X112172927Y-92097468D01*
X112074264Y-91830613D01*
X111464539Y-91604092D01*
X110814540Y-91628144D01*
X110325736Y-91830613D01*
X110227073Y-92097468D01*
X103672927Y-92097468D01*
X103574264Y-91830613D01*
X102964539Y-91604092D01*
X102314540Y-91628144D01*
X101825736Y-91830613D01*
X101727073Y-92097468D01*
X92172927Y-92097468D01*
X92074264Y-91830613D01*
X91464539Y-91604092D01*
X90814540Y-91628144D01*
X90325736Y-91830613D01*
X90227073Y-92097468D01*
X83672927Y-92097468D01*
X83574264Y-91830613D01*
X82964539Y-91604092D01*
X82314540Y-91628144D01*
X81825736Y-91830613D01*
X81727073Y-92097468D01*
X67393906Y-92097468D01*
X67499063Y-91152532D01*
X91727073Y-91152532D01*
X91825736Y-91419387D01*
X92435461Y-91645908D01*
X93085460Y-91621856D01*
X93574264Y-91419387D01*
X93672927Y-91152532D01*
X100227073Y-91152532D01*
X100325736Y-91419387D01*
X100935461Y-91645908D01*
X101585460Y-91621856D01*
X102074264Y-91419387D01*
X102157548Y-91194126D01*
X133765000Y-91194126D01*
X133765000Y-91605874D01*
X133922569Y-91986280D01*
X134213720Y-92277431D01*
X134594126Y-92435000D01*
X135005874Y-92435000D01*
X135386280Y-92277431D01*
X135503711Y-92160000D01*
X140269312Y-92160000D01*
X140266518Y-92162794D01*
X140380798Y-92277074D01*
X140113945Y-92375736D01*
X139887424Y-92985461D01*
X139911476Y-93635460D01*
X140113945Y-94124264D01*
X140380800Y-94222927D01*
X141353727Y-93250000D01*
X141339585Y-93235858D01*
X141519190Y-93056253D01*
X141533332Y-93070395D01*
X141547475Y-93056253D01*
X141727080Y-93235858D01*
X141712937Y-93250000D01*
X142685864Y-94222927D01*
X142952719Y-94124264D01*
X143179240Y-93514539D01*
X143155188Y-92864540D01*
X142952719Y-92375736D01*
X142685866Y-92277074D01*
X142800146Y-92162794D01*
X142797352Y-92160000D01*
X148769312Y-92160000D01*
X148766518Y-92162794D01*
X148880798Y-92277074D01*
X148613945Y-92375736D01*
X148387424Y-92985461D01*
X148411476Y-93635460D01*
X148613945Y-94124264D01*
X148880800Y-94222927D01*
X149853727Y-93250000D01*
X149839585Y-93235858D01*
X150019190Y-93056253D01*
X150033332Y-93070395D01*
X150047475Y-93056253D01*
X150227080Y-93235858D01*
X150212937Y-93250000D01*
X151185864Y-94222927D01*
X151452719Y-94124264D01*
X151679240Y-93514539D01*
X151655188Y-92864540D01*
X151452719Y-92375736D01*
X151185866Y-92277074D01*
X151300146Y-92162794D01*
X151297352Y-92160000D01*
X159685980Y-92160000D01*
X159683186Y-92162794D01*
X159797466Y-92277074D01*
X159530613Y-92375736D01*
X159304092Y-92985461D01*
X159328144Y-93635460D01*
X159530613Y-94124264D01*
X159797468Y-94222927D01*
X160770395Y-93250000D01*
X160756253Y-93235858D01*
X160935858Y-93056253D01*
X160950000Y-93070395D01*
X160964143Y-93056253D01*
X161143748Y-93235858D01*
X161129605Y-93250000D01*
X162102532Y-94222927D01*
X162369387Y-94124264D01*
X162595908Y-93514539D01*
X162571856Y-92864540D01*
X162369387Y-92375736D01*
X162102534Y-92277074D01*
X162216814Y-92162794D01*
X162214020Y-92160000D01*
X168185980Y-92160000D01*
X168183186Y-92162794D01*
X168297466Y-92277074D01*
X168030613Y-92375736D01*
X167804092Y-92985461D01*
X167828144Y-93635460D01*
X168030613Y-94124264D01*
X168297468Y-94222927D01*
X169270395Y-93250000D01*
X169256253Y-93235858D01*
X169435858Y-93056253D01*
X169450000Y-93070395D01*
X169464143Y-93056253D01*
X169643748Y-93235858D01*
X169629605Y-93250000D01*
X170602532Y-94222927D01*
X170869387Y-94124264D01*
X171095908Y-93514539D01*
X171071856Y-92864540D01*
X170869387Y-92375736D01*
X170602534Y-92277074D01*
X170716814Y-92162794D01*
X170714020Y-92160000D01*
X178785199Y-92160000D01*
X179383823Y-92758625D01*
X179315000Y-92924778D01*
X179315000Y-93575222D01*
X179563914Y-94176153D01*
X180023847Y-94636086D01*
X180624778Y-94885000D01*
X181275222Y-94885000D01*
X181876153Y-94636086D01*
X182336086Y-94176153D01*
X182404909Y-94010000D01*
X187995091Y-94010000D01*
X188063914Y-94176153D01*
X188523847Y-94636086D01*
X189124778Y-94885000D01*
X189775222Y-94885000D01*
X190376153Y-94636086D01*
X190836086Y-94176153D01*
X191085000Y-93575222D01*
X191085000Y-92924778D01*
X190836086Y-92323847D01*
X190376153Y-91863914D01*
X189775222Y-91615000D01*
X189124778Y-91615000D01*
X188523847Y-91863914D01*
X188063914Y-92323847D01*
X187995091Y-92490000D01*
X182404909Y-92490000D01*
X182336086Y-92323847D01*
X181876153Y-91863914D01*
X181275222Y-91615000D01*
X180624778Y-91615000D01*
X180458625Y-91683823D01*
X180232287Y-91457485D01*
X180324264Y-91419387D01*
X180422927Y-91152532D01*
X179450000Y-90179605D01*
X179435858Y-90193748D01*
X179256253Y-90014143D01*
X179270395Y-90000000D01*
X179629605Y-90000000D01*
X180602532Y-90972927D01*
X180869387Y-90874264D01*
X181095908Y-90264539D01*
X181071856Y-89614540D01*
X180869387Y-89125736D01*
X180602532Y-89027073D01*
X179629605Y-90000000D01*
X179270395Y-90000000D01*
X178297468Y-89027073D01*
X178030613Y-89125736D01*
X177804092Y-89735461D01*
X177828144Y-90385460D01*
X177933578Y-90640000D01*
X172456419Y-90640000D01*
X172595908Y-90264539D01*
X172571856Y-89614540D01*
X172369387Y-89125736D01*
X172102532Y-89027073D01*
X171129605Y-90000000D01*
X171143748Y-90014143D01*
X170964143Y-90193748D01*
X170950000Y-90179605D01*
X170935858Y-90193748D01*
X170756253Y-90014143D01*
X170770395Y-90000000D01*
X169797468Y-89027073D01*
X169530613Y-89125736D01*
X169304092Y-89735461D01*
X169328144Y-90385460D01*
X169433578Y-90640000D01*
X163925045Y-90640000D01*
X164319397Y-90476654D01*
X164676654Y-90119397D01*
X164870000Y-89652619D01*
X164870000Y-89204801D01*
X165227333Y-88847468D01*
X169977073Y-88847468D01*
X170950000Y-89820395D01*
X171922927Y-88847468D01*
X178477073Y-88847468D01*
X179450000Y-89820395D01*
X180422927Y-88847468D01*
X180324264Y-88580613D01*
X179714539Y-88354092D01*
X179064540Y-88378144D01*
X178575736Y-88580613D01*
X178477073Y-88847468D01*
X171922927Y-88847468D01*
X171824264Y-88580613D01*
X171214539Y-88354092D01*
X170564540Y-88378144D01*
X170075736Y-88580613D01*
X169977073Y-88847468D01*
X165227333Y-88847468D01*
X167564802Y-86510000D01*
X169495091Y-86510000D01*
X169563914Y-86676153D01*
X170023847Y-87136086D01*
X170624778Y-87385000D01*
X171275222Y-87385000D01*
X171876153Y-87136086D01*
X172336086Y-86676153D01*
X172404909Y-86510000D01*
X177995091Y-86510000D01*
X178063914Y-86676153D01*
X178523847Y-87136086D01*
X179124778Y-87385000D01*
X179775222Y-87385000D01*
X180376153Y-87136086D01*
X180836086Y-86676153D01*
X181085000Y-86075222D01*
X181085000Y-85424778D01*
X180836086Y-84823847D01*
X180376153Y-84363914D01*
X179775222Y-84115000D01*
X179124778Y-84115000D01*
X178523847Y-84363914D01*
X178063914Y-84823847D01*
X177995091Y-84990000D01*
X172404909Y-84990000D01*
X172336086Y-84823847D01*
X171876153Y-84363914D01*
X171275222Y-84115000D01*
X170624778Y-84115000D01*
X170023847Y-84363914D01*
X169563914Y-84823847D01*
X169495091Y-84990000D01*
X167324848Y-84990000D01*
X167250000Y-84975112D01*
X167175152Y-84990000D01*
X167175148Y-84990000D01*
X166953463Y-85034096D01*
X166702071Y-85202071D01*
X166659671Y-85265527D01*
X163795199Y-88130000D01*
X163347381Y-88130000D01*
X162880603Y-88323346D01*
X162523346Y-88680603D01*
X162330000Y-89147381D01*
X162330000Y-89652619D01*
X162523346Y-90119397D01*
X162880603Y-90476654D01*
X163274955Y-90640000D01*
X135503711Y-90640000D01*
X135386280Y-90522569D01*
X135005874Y-90365000D01*
X134594126Y-90365000D01*
X134213720Y-90522569D01*
X133922569Y-90813720D01*
X133765000Y-91194126D01*
X102157548Y-91194126D01*
X102172927Y-91152532D01*
X101200000Y-90179605D01*
X100227073Y-91152532D01*
X93672927Y-91152532D01*
X92700000Y-90179605D01*
X91727073Y-91152532D01*
X67499063Y-91152532D01*
X67554776Y-90651901D01*
X67723800Y-89735461D01*
X91054092Y-89735461D01*
X91078144Y-90385460D01*
X91280613Y-90874264D01*
X91547468Y-90972927D01*
X92520395Y-90000000D01*
X92879605Y-90000000D01*
X93852532Y-90972927D01*
X94119387Y-90874264D01*
X94345908Y-90264539D01*
X94326331Y-89735461D01*
X99554092Y-89735461D01*
X99578144Y-90385460D01*
X99780613Y-90874264D01*
X100047468Y-90972927D01*
X101020395Y-90000000D01*
X101379605Y-90000000D01*
X102352532Y-90972927D01*
X102619387Y-90874264D01*
X102845908Y-90264539D01*
X102821856Y-89614540D01*
X102619387Y-89125736D01*
X102352532Y-89027073D01*
X101379605Y-90000000D01*
X101020395Y-90000000D01*
X100047468Y-89027073D01*
X99780613Y-89125736D01*
X99554092Y-89735461D01*
X94326331Y-89735461D01*
X94321856Y-89614540D01*
X94119387Y-89125736D01*
X93852532Y-89027073D01*
X92879605Y-90000000D01*
X92520395Y-90000000D01*
X91547468Y-89027073D01*
X91280613Y-89125736D01*
X91054092Y-89735461D01*
X67723800Y-89735461D01*
X67887578Y-88847468D01*
X91727073Y-88847468D01*
X92700000Y-89820395D01*
X93672927Y-88847468D01*
X100227073Y-88847468D01*
X101200000Y-89820395D01*
X102172927Y-88847468D01*
X102074264Y-88580613D01*
X101464539Y-88354092D01*
X100814540Y-88378144D01*
X100325736Y-88580613D01*
X100227073Y-88847468D01*
X93672927Y-88847468D01*
X93574264Y-88580613D01*
X92964539Y-88354092D01*
X92314540Y-88378144D01*
X91825736Y-88580613D01*
X91727073Y-88847468D01*
X67887578Y-88847468D01*
X67941008Y-88557781D01*
X68475980Y-86496618D01*
X68837735Y-85424778D01*
X91065000Y-85424778D01*
X91065000Y-86075222D01*
X91313914Y-86676153D01*
X91773847Y-87136086D01*
X92374778Y-87385000D01*
X93025222Y-87385000D01*
X93626153Y-87136086D01*
X94086086Y-86676153D01*
X94154909Y-86510000D01*
X99745091Y-86510000D01*
X99813914Y-86676153D01*
X100273847Y-87136086D01*
X100874778Y-87385000D01*
X101525222Y-87385000D01*
X102126153Y-87136086D01*
X102502239Y-86760000D01*
X122963949Y-86760000D01*
X123280603Y-87076654D01*
X123747381Y-87270000D01*
X124252619Y-87270000D01*
X124719397Y-87076654D01*
X125076654Y-86719397D01*
X125270000Y-86252619D01*
X125270000Y-85747381D01*
X125076654Y-85280603D01*
X124719397Y-84923346D01*
X124252619Y-84730000D01*
X123747381Y-84730000D01*
X123280603Y-84923346D01*
X122963949Y-85240000D01*
X102758462Y-85240000D01*
X102586086Y-84823847D01*
X102126153Y-84363914D01*
X101525222Y-84115000D01*
X100874778Y-84115000D01*
X100273847Y-84363914D01*
X99813914Y-84823847D01*
X99745091Y-84990000D01*
X94154909Y-84990000D01*
X94086086Y-84823847D01*
X93626153Y-84363914D01*
X93025222Y-84115000D01*
X92374778Y-84115000D01*
X91773847Y-84363914D01*
X91313914Y-84823847D01*
X91065000Y-85424778D01*
X68837735Y-85424778D01*
X69156947Y-84478992D01*
X69980433Y-82515201D01*
X70942212Y-80615324D01*
X72037362Y-78789080D01*
X73260297Y-77045789D01*
X74604728Y-75394414D01*
X76063793Y-73843384D01*
X77407995Y-72605159D01*
X94765000Y-72605159D01*
X94765000Y-73394841D01*
X95067199Y-74124412D01*
X95625588Y-74682801D01*
X96355159Y-74985000D01*
X97144841Y-74985000D01*
X97874412Y-74682801D01*
X98432801Y-74124412D01*
X98735000Y-73394841D01*
X98735000Y-72605159D01*
X98432801Y-71875588D01*
X97874412Y-71317199D01*
X97144841Y-71015000D01*
X96355159Y-71015000D01*
X95625588Y-71317199D01*
X95067199Y-71875588D01*
X94765000Y-72605159D01*
X77407995Y-72605159D01*
X77630009Y-72400649D01*
X79295372Y-71073585D01*
X81051372Y-69868974D01*
X82888987Y-68793007D01*
X84798827Y-67851176D01*
X86771133Y-67048300D01*
X88795785Y-66388497D01*
X90862430Y-65875140D01*
X92960483Y-65510858D01*
X93157598Y-65491009D01*
X93065000Y-65714561D01*
X93065000Y-66285439D01*
X93283466Y-66812862D01*
X93385604Y-66915000D01*
X92934724Y-66915000D01*
X92352170Y-67156302D01*
X91906302Y-67602170D01*
X91665000Y-68184724D01*
X91665000Y-68815276D01*
X91906302Y-69397830D01*
X92352170Y-69843698D01*
X92934724Y-70085000D01*
X93565276Y-70085000D01*
X94147830Y-69843698D01*
X94593698Y-69397830D01*
X94835000Y-68815276D01*
X94835000Y-68184724D01*
X94593698Y-67602170D01*
X94426528Y-67435000D01*
X94785439Y-67435000D01*
X94838302Y-67413103D01*
X98434670Y-71009472D01*
X98477070Y-71072928D01*
X98728462Y-71240903D01*
X98950147Y-71284999D01*
X98950152Y-71284999D01*
X99024999Y-71299887D01*
X99099846Y-71284999D01*
X115953325Y-71284999D01*
X115875588Y-71317199D01*
X115317199Y-71875588D01*
X115015000Y-72605159D01*
X115015000Y-73394841D01*
X115317199Y-74124412D01*
X115875588Y-74682801D01*
X116605159Y-74985000D01*
X117394841Y-74985000D01*
X118124412Y-74682801D01*
X118682801Y-74124412D01*
X118985000Y-73394841D01*
X118985000Y-72605159D01*
X118682801Y-71875588D01*
X118150321Y-71343108D01*
X120398514Y-71343108D01*
X120519181Y-71573000D01*
X121713000Y-71573000D01*
X121713000Y-70379845D01*
X121483110Y-70258524D01*
X121073076Y-70428355D01*
X120644817Y-70818642D01*
X120398514Y-71343108D01*
X118150321Y-71343108D01*
X118124412Y-71317199D01*
X118046675Y-71284999D01*
X119200154Y-71284999D01*
X119275001Y-71299887D01*
X119349848Y-71284999D01*
X119349853Y-71284999D01*
X119571538Y-71240903D01*
X119822930Y-71072928D01*
X119865332Y-71009469D01*
X121404802Y-69470000D01*
X121852619Y-69470000D01*
X122319397Y-69276654D01*
X122676654Y-68919397D01*
X122870000Y-68452619D01*
X122870000Y-67947381D01*
X122676654Y-67480603D01*
X122319397Y-67123346D01*
X121852619Y-66930000D01*
X121347381Y-66930000D01*
X120880603Y-67123346D01*
X120523346Y-67480603D01*
X120330000Y-67947381D01*
X120330000Y-68395198D01*
X118960200Y-69764999D01*
X101226529Y-69764999D01*
X101593698Y-69397830D01*
X101835000Y-68815276D01*
X101835000Y-68184724D01*
X101593698Y-67602170D01*
X101147830Y-67156302D01*
X100565276Y-66915000D01*
X100094608Y-66915000D01*
X100007747Y-66828139D01*
X100253864Y-66754005D01*
X100446965Y-66216777D01*
X100419778Y-65646546D01*
X100253864Y-65245995D01*
X100203783Y-65230910D01*
X171546217Y-65230910D01*
X171496136Y-65245995D01*
G36*
X163949375Y-72770625D02*
X164249786Y-72971353D01*
X163824817Y-73358642D01*
X163763843Y-73488478D01*
X163550625Y-73169375D01*
X163252239Y-72970000D01*
X163550625Y-72770625D01*
X163750000Y-72472239D01*
X163949375Y-72770625D01*
X163949375Y-72770625D01*
G37*
X163949375Y-72770625D02*
X164249786Y-72971353D01*
X163824817Y-73358642D01*
X163763843Y-73488478D01*
X163550625Y-73169375D01*
X163252239Y-72970000D01*
X163550625Y-72770625D01*
X163750000Y-72472239D01*
X163949375Y-72770625D01*
G36*
X161409375Y-72770625D02*
X161707761Y-72970000D01*
X161409375Y-73169375D01*
X161210000Y-73467761D01*
X161010625Y-73169375D01*
X160710214Y-72968647D01*
X161135183Y-72581358D01*
X161196157Y-72451522D01*
X161409375Y-72770625D01*
X161409375Y-72770625D01*
G37*
X161409375Y-72770625D02*
X161707761Y-72970000D01*
X161409375Y-73169375D01*
X161210000Y-73467761D01*
X161010625Y-73169375D01*
X160710214Y-72968647D01*
X161135183Y-72581358D01*
X161196157Y-72451522D01*
X161409375Y-72770625D01*
G36*
X160067000Y-71573000D02*
X160087000Y-71573000D01*
X160087000Y-71827000D01*
X160067000Y-71827000D01*
X160067000Y-71847000D01*
X159813000Y-71847000D01*
X159813000Y-71827000D01*
X159793000Y-71827000D01*
X159793000Y-71573000D01*
X159813000Y-71573000D01*
X159813000Y-71553000D01*
X160067000Y-71553000D01*
X160067000Y-71573000D01*
X160067000Y-71573000D01*
G37*
X160067000Y-71573000D02*
X160087000Y-71573000D01*
X160087000Y-71827000D01*
X160067000Y-71827000D01*
X160067000Y-71847000D01*
X159813000Y-71847000D01*
X159813000Y-71827000D01*
X159793000Y-71827000D01*
X159793000Y-71573000D01*
X159813000Y-71573000D01*
X159813000Y-71553000D01*
X160067000Y-71553000D01*
X160067000Y-71573000D01*
G36*
X139747000Y-71573000D02*
X139767000Y-71573000D01*
X139767000Y-71827000D01*
X139747000Y-71827000D01*
X139747000Y-71847000D01*
X139493000Y-71847000D01*
X139493000Y-71827000D01*
X139473000Y-71827000D01*
X139473000Y-71573000D01*
X139493000Y-71573000D01*
X139493000Y-71553000D01*
X139747000Y-71553000D01*
X139747000Y-71573000D01*
X139747000Y-71573000D01*
G37*
X139747000Y-71573000D02*
X139767000Y-71573000D01*
X139767000Y-71827000D01*
X139747000Y-71827000D01*
X139747000Y-71847000D01*
X139493000Y-71847000D01*
X139493000Y-71827000D01*
X139473000Y-71827000D01*
X139473000Y-71573000D01*
X139493000Y-71573000D01*
X139493000Y-71553000D01*
X139747000Y-71553000D01*
X139747000Y-71573000D01*
G36*
X97746136Y-65245995D02*
X97553035Y-65783223D01*
X97580222Y-66353454D01*
X97746136Y-66754005D01*
X97992255Y-66828139D01*
X98820395Y-66000000D01*
X98806252Y-65985858D01*
X98985858Y-65806252D01*
X99000000Y-65820395D01*
X99014142Y-65806252D01*
X99193748Y-65985858D01*
X99179605Y-66000000D01*
X99193748Y-66014142D01*
X99014142Y-66193748D01*
X99000000Y-66179605D01*
X98171861Y-67007745D01*
X98245995Y-67253864D01*
X98783223Y-67446965D01*
X99075439Y-67433033D01*
X98906302Y-67602170D01*
X98665000Y-68184724D01*
X98665000Y-68815276D01*
X98859400Y-69284598D01*
X95913103Y-66338302D01*
X95935000Y-66285439D01*
X95935000Y-65714561D01*
X95753101Y-65275420D01*
X97003118Y-65234616D01*
X97055580Y-65231021D01*
X97056368Y-65230910D01*
X97796217Y-65230910D01*
X97746136Y-65245995D01*
X97746136Y-65245995D01*
G37*
X97746136Y-65245995D02*
X97553035Y-65783223D01*
X97580222Y-66353454D01*
X97746136Y-66754005D01*
X97992255Y-66828139D01*
X98820395Y-66000000D01*
X98806252Y-65985858D01*
X98985858Y-65806252D01*
X99000000Y-65820395D01*
X99014142Y-65806252D01*
X99193748Y-65985858D01*
X99179605Y-66000000D01*
X99193748Y-66014142D01*
X99014142Y-66193748D01*
X99000000Y-66179605D01*
X98171861Y-67007745D01*
X98245995Y-67253864D01*
X98783223Y-67446965D01*
X99075439Y-67433033D01*
X98906302Y-67602170D01*
X98665000Y-68184724D01*
X98665000Y-68815276D01*
X98859400Y-69284598D01*
X95913103Y-66338302D01*
X95935000Y-66285439D01*
X95935000Y-65714561D01*
X95753101Y-65275420D01*
X97003118Y-65234616D01*
X97055580Y-65231021D01*
X97056368Y-65230910D01*
X97796217Y-65230910D01*
X97746136Y-65245995D01*
G36*
X174946723Y-65231258D02*
X174994066Y-65234518D01*
X175998661Y-65271165D01*
X175815000Y-65714561D01*
X175815000Y-66285439D01*
X175836896Y-66338302D01*
X173135191Y-69040008D01*
X172991913Y-69040008D01*
X173085000Y-68815276D01*
X173085000Y-68184724D01*
X172843698Y-67602170D01*
X172681427Y-67439899D01*
X173103454Y-67419778D01*
X173504005Y-67253864D01*
X173578139Y-67007745D01*
X172750000Y-66179605D01*
X172735858Y-66193748D01*
X172556252Y-66014142D01*
X172570395Y-66000000D01*
X172556252Y-65985858D01*
X172735858Y-65806252D01*
X172750000Y-65820395D01*
X172764142Y-65806252D01*
X172943748Y-65985858D01*
X172929605Y-66000000D01*
X173757745Y-66828139D01*
X174003864Y-66754005D01*
X174196965Y-66216777D01*
X174169778Y-65646546D01*
X174003864Y-65245995D01*
X173953783Y-65230910D01*
X174944195Y-65230910D01*
X174946723Y-65231258D01*
X174946723Y-65231258D01*
G37*
X174946723Y-65231258D02*
X174994066Y-65234518D01*
X175998661Y-65271165D01*
X175815000Y-65714561D01*
X175815000Y-66285439D01*
X175836896Y-66338302D01*
X173135191Y-69040008D01*
X172991913Y-69040008D01*
X173085000Y-68815276D01*
X173085000Y-68184724D01*
X172843698Y-67602170D01*
X172681427Y-67439899D01*
X173103454Y-67419778D01*
X173504005Y-67253864D01*
X173578139Y-67007745D01*
X172750000Y-66179605D01*
X172735858Y-66193748D01*
X172556252Y-66014142D01*
X172570395Y-66000000D01*
X172556252Y-65985858D01*
X172735858Y-65806252D01*
X172750000Y-65820395D01*
X172764142Y-65806252D01*
X172943748Y-65985858D01*
X172929605Y-66000000D01*
X173757745Y-66828139D01*
X174003864Y-66754005D01*
X174196965Y-66216777D01*
X174169778Y-65646546D01*
X174003864Y-65245995D01*
X173953783Y-65230910D01*
X174944195Y-65230910D01*
X174946723Y-65231258D01*
G04 #@! TD*
M02*
