G04 #@! TF.GenerationSoftware,KiCad,Pcbnew,(5.0.2)-1*
G04 #@! TF.CreationDate,2019-10-01T23:20:30-04:00*
G04 #@! TF.ProjectId,gamepad,67616d65-7061-4642-9e6b-696361645f70,rev?*
G04 #@! TF.SameCoordinates,Original*
G04 #@! TF.FileFunction,Soldermask,Bot*
G04 #@! TF.FilePolarity,Negative*
%FSLAX46Y46*%
G04 Gerber Fmt 4.6, Leading zero omitted, Abs format (unit mm)*
G04 Created by KiCad (PCBNEW (5.0.2)-1) date 10/1/2019 11:20:30 PM*
%MOMM*%
%LPD*%
G01*
G04 APERTURE LIST*
%ADD10C,0.100000*%
G04 APERTURE END LIST*
D10*
G36*
X160210442Y-120345518D02*
X160276627Y-120352037D01*
X160389853Y-120386384D01*
X160446467Y-120403557D01*
X160585087Y-120477652D01*
X160602991Y-120487222D01*
X160638729Y-120516552D01*
X160740186Y-120599814D01*
X160823448Y-120701271D01*
X160852778Y-120737009D01*
X160852779Y-120737011D01*
X160936443Y-120893533D01*
X160936443Y-120893534D01*
X160987963Y-121063373D01*
X161005359Y-121240000D01*
X160987963Y-121416627D01*
X160953616Y-121529853D01*
X160936443Y-121586467D01*
X160862348Y-121725087D01*
X160852778Y-121742991D01*
X160823448Y-121778729D01*
X160740186Y-121880186D01*
X160638729Y-121963448D01*
X160602991Y-121992778D01*
X160602989Y-121992779D01*
X160446467Y-122076443D01*
X160389853Y-122093616D01*
X160276627Y-122127963D01*
X160210442Y-122134482D01*
X160144260Y-122141000D01*
X160055740Y-122141000D01*
X159989558Y-122134482D01*
X159923373Y-122127963D01*
X159810147Y-122093616D01*
X159753533Y-122076443D01*
X159597011Y-121992779D01*
X159597009Y-121992778D01*
X159561271Y-121963448D01*
X159459814Y-121880186D01*
X159376552Y-121778729D01*
X159347222Y-121742991D01*
X159337652Y-121725087D01*
X159263557Y-121586467D01*
X159246384Y-121529853D01*
X159212037Y-121416627D01*
X159194641Y-121240000D01*
X159212037Y-121063373D01*
X159263557Y-120893534D01*
X159263557Y-120893533D01*
X159347221Y-120737011D01*
X159347222Y-120737009D01*
X159376552Y-120701271D01*
X159459814Y-120599814D01*
X159561271Y-120516552D01*
X159597009Y-120487222D01*
X159614913Y-120477652D01*
X159753533Y-120403557D01*
X159810147Y-120386384D01*
X159923373Y-120352037D01*
X159989558Y-120345518D01*
X160055740Y-120339000D01*
X160144260Y-120339000D01*
X160210442Y-120345518D01*
X160210442Y-120345518D01*
G37*
G36*
X152590442Y-120345518D02*
X152656627Y-120352037D01*
X152769853Y-120386384D01*
X152826467Y-120403557D01*
X152965087Y-120477652D01*
X152982991Y-120487222D01*
X153018729Y-120516552D01*
X153120186Y-120599814D01*
X153203448Y-120701271D01*
X153232778Y-120737009D01*
X153232779Y-120737011D01*
X153316443Y-120893533D01*
X153316443Y-120893534D01*
X153367963Y-121063373D01*
X153385359Y-121240000D01*
X153367963Y-121416627D01*
X153333616Y-121529853D01*
X153316443Y-121586467D01*
X153242348Y-121725087D01*
X153232778Y-121742991D01*
X153203448Y-121778729D01*
X153120186Y-121880186D01*
X153018729Y-121963448D01*
X152982991Y-121992778D01*
X152982989Y-121992779D01*
X152826467Y-122076443D01*
X152769853Y-122093616D01*
X152656627Y-122127963D01*
X152590442Y-122134482D01*
X152524260Y-122141000D01*
X152435740Y-122141000D01*
X152369558Y-122134482D01*
X152303373Y-122127963D01*
X152190147Y-122093616D01*
X152133533Y-122076443D01*
X151977011Y-121992779D01*
X151977009Y-121992778D01*
X151941271Y-121963448D01*
X151839814Y-121880186D01*
X151756552Y-121778729D01*
X151727222Y-121742991D01*
X151717652Y-121725087D01*
X151643557Y-121586467D01*
X151626384Y-121529853D01*
X151592037Y-121416627D01*
X151574641Y-121240000D01*
X151592037Y-121063373D01*
X151643557Y-120893534D01*
X151643557Y-120893533D01*
X151727221Y-120737011D01*
X151727222Y-120737009D01*
X151756552Y-120701271D01*
X151839814Y-120599814D01*
X151941271Y-120516552D01*
X151977009Y-120487222D01*
X151994913Y-120477652D01*
X152133533Y-120403557D01*
X152190147Y-120386384D01*
X152303373Y-120352037D01*
X152369558Y-120345518D01*
X152435740Y-120339000D01*
X152524260Y-120339000D01*
X152590442Y-120345518D01*
X152590442Y-120345518D01*
G37*
G36*
X127190442Y-120345518D02*
X127256627Y-120352037D01*
X127369853Y-120386384D01*
X127426467Y-120403557D01*
X127565087Y-120477652D01*
X127582991Y-120487222D01*
X127618729Y-120516552D01*
X127720186Y-120599814D01*
X127803448Y-120701271D01*
X127832778Y-120737009D01*
X127832779Y-120737011D01*
X127916443Y-120893533D01*
X127916443Y-120893534D01*
X127967963Y-121063373D01*
X127985359Y-121240000D01*
X127967963Y-121416627D01*
X127933616Y-121529853D01*
X127916443Y-121586467D01*
X127842348Y-121725087D01*
X127832778Y-121742991D01*
X127803448Y-121778729D01*
X127720186Y-121880186D01*
X127618729Y-121963448D01*
X127582991Y-121992778D01*
X127582989Y-121992779D01*
X127426467Y-122076443D01*
X127369853Y-122093616D01*
X127256627Y-122127963D01*
X127190442Y-122134482D01*
X127124260Y-122141000D01*
X127035740Y-122141000D01*
X126969558Y-122134482D01*
X126903373Y-122127963D01*
X126790147Y-122093616D01*
X126733533Y-122076443D01*
X126577011Y-121992779D01*
X126577009Y-121992778D01*
X126541271Y-121963448D01*
X126439814Y-121880186D01*
X126356552Y-121778729D01*
X126327222Y-121742991D01*
X126317652Y-121725087D01*
X126243557Y-121586467D01*
X126226384Y-121529853D01*
X126192037Y-121416627D01*
X126174641Y-121240000D01*
X126192037Y-121063373D01*
X126243557Y-120893534D01*
X126243557Y-120893533D01*
X126327221Y-120737011D01*
X126327222Y-120737009D01*
X126356552Y-120701271D01*
X126439814Y-120599814D01*
X126541271Y-120516552D01*
X126577009Y-120487222D01*
X126594913Y-120477652D01*
X126733533Y-120403557D01*
X126790147Y-120386384D01*
X126903373Y-120352037D01*
X126969558Y-120345518D01*
X127035740Y-120339000D01*
X127124260Y-120339000D01*
X127190442Y-120345518D01*
X127190442Y-120345518D01*
G37*
G36*
X129730442Y-120345518D02*
X129796627Y-120352037D01*
X129909853Y-120386384D01*
X129966467Y-120403557D01*
X130105087Y-120477652D01*
X130122991Y-120487222D01*
X130158729Y-120516552D01*
X130260186Y-120599814D01*
X130343448Y-120701271D01*
X130372778Y-120737009D01*
X130372779Y-120737011D01*
X130456443Y-120893533D01*
X130456443Y-120893534D01*
X130507963Y-121063373D01*
X130525359Y-121240000D01*
X130507963Y-121416627D01*
X130473616Y-121529853D01*
X130456443Y-121586467D01*
X130382348Y-121725087D01*
X130372778Y-121742991D01*
X130343448Y-121778729D01*
X130260186Y-121880186D01*
X130158729Y-121963448D01*
X130122991Y-121992778D01*
X130122989Y-121992779D01*
X129966467Y-122076443D01*
X129909853Y-122093616D01*
X129796627Y-122127963D01*
X129730442Y-122134482D01*
X129664260Y-122141000D01*
X129575740Y-122141000D01*
X129509558Y-122134482D01*
X129443373Y-122127963D01*
X129330147Y-122093616D01*
X129273533Y-122076443D01*
X129117011Y-121992779D01*
X129117009Y-121992778D01*
X129081271Y-121963448D01*
X128979814Y-121880186D01*
X128896552Y-121778729D01*
X128867222Y-121742991D01*
X128857652Y-121725087D01*
X128783557Y-121586467D01*
X128766384Y-121529853D01*
X128732037Y-121416627D01*
X128714641Y-121240000D01*
X128732037Y-121063373D01*
X128783557Y-120893534D01*
X128783557Y-120893533D01*
X128867221Y-120737011D01*
X128867222Y-120737009D01*
X128896552Y-120701271D01*
X128979814Y-120599814D01*
X129081271Y-120516552D01*
X129117009Y-120487222D01*
X129134913Y-120477652D01*
X129273533Y-120403557D01*
X129330147Y-120386384D01*
X129443373Y-120352037D01*
X129509558Y-120345518D01*
X129575740Y-120339000D01*
X129664260Y-120339000D01*
X129730442Y-120345518D01*
X129730442Y-120345518D01*
G37*
G36*
X132270442Y-120345518D02*
X132336627Y-120352037D01*
X132449853Y-120386384D01*
X132506467Y-120403557D01*
X132645087Y-120477652D01*
X132662991Y-120487222D01*
X132698729Y-120516552D01*
X132800186Y-120599814D01*
X132883448Y-120701271D01*
X132912778Y-120737009D01*
X132912779Y-120737011D01*
X132996443Y-120893533D01*
X132996443Y-120893534D01*
X133047963Y-121063373D01*
X133065359Y-121240000D01*
X133047963Y-121416627D01*
X133013616Y-121529853D01*
X132996443Y-121586467D01*
X132922348Y-121725087D01*
X132912778Y-121742991D01*
X132883448Y-121778729D01*
X132800186Y-121880186D01*
X132698729Y-121963448D01*
X132662991Y-121992778D01*
X132662989Y-121992779D01*
X132506467Y-122076443D01*
X132449853Y-122093616D01*
X132336627Y-122127963D01*
X132270442Y-122134482D01*
X132204260Y-122141000D01*
X132115740Y-122141000D01*
X132049558Y-122134482D01*
X131983373Y-122127963D01*
X131870147Y-122093616D01*
X131813533Y-122076443D01*
X131657011Y-121992779D01*
X131657009Y-121992778D01*
X131621271Y-121963448D01*
X131519814Y-121880186D01*
X131436552Y-121778729D01*
X131407222Y-121742991D01*
X131397652Y-121725087D01*
X131323557Y-121586467D01*
X131306384Y-121529853D01*
X131272037Y-121416627D01*
X131254641Y-121240000D01*
X131272037Y-121063373D01*
X131323557Y-120893534D01*
X131323557Y-120893533D01*
X131407221Y-120737011D01*
X131407222Y-120737009D01*
X131436552Y-120701271D01*
X131519814Y-120599814D01*
X131621271Y-120516552D01*
X131657009Y-120487222D01*
X131674913Y-120477652D01*
X131813533Y-120403557D01*
X131870147Y-120386384D01*
X131983373Y-120352037D01*
X132049558Y-120345518D01*
X132115740Y-120339000D01*
X132204260Y-120339000D01*
X132270442Y-120345518D01*
X132270442Y-120345518D01*
G37*
G36*
X134810442Y-120345518D02*
X134876627Y-120352037D01*
X134989853Y-120386384D01*
X135046467Y-120403557D01*
X135185087Y-120477652D01*
X135202991Y-120487222D01*
X135238729Y-120516552D01*
X135340186Y-120599814D01*
X135423448Y-120701271D01*
X135452778Y-120737009D01*
X135452779Y-120737011D01*
X135536443Y-120893533D01*
X135536443Y-120893534D01*
X135587963Y-121063373D01*
X135605359Y-121240000D01*
X135587963Y-121416627D01*
X135553616Y-121529853D01*
X135536443Y-121586467D01*
X135462348Y-121725087D01*
X135452778Y-121742991D01*
X135423448Y-121778729D01*
X135340186Y-121880186D01*
X135238729Y-121963448D01*
X135202991Y-121992778D01*
X135202989Y-121992779D01*
X135046467Y-122076443D01*
X134989853Y-122093616D01*
X134876627Y-122127963D01*
X134810442Y-122134482D01*
X134744260Y-122141000D01*
X134655740Y-122141000D01*
X134589558Y-122134482D01*
X134523373Y-122127963D01*
X134410147Y-122093616D01*
X134353533Y-122076443D01*
X134197011Y-121992779D01*
X134197009Y-121992778D01*
X134161271Y-121963448D01*
X134059814Y-121880186D01*
X133976552Y-121778729D01*
X133947222Y-121742991D01*
X133937652Y-121725087D01*
X133863557Y-121586467D01*
X133846384Y-121529853D01*
X133812037Y-121416627D01*
X133794641Y-121240000D01*
X133812037Y-121063373D01*
X133863557Y-120893534D01*
X133863557Y-120893533D01*
X133947221Y-120737011D01*
X133947222Y-120737009D01*
X133976552Y-120701271D01*
X134059814Y-120599814D01*
X134161271Y-120516552D01*
X134197009Y-120487222D01*
X134214913Y-120477652D01*
X134353533Y-120403557D01*
X134410147Y-120386384D01*
X134523373Y-120352037D01*
X134589558Y-120345518D01*
X134655740Y-120339000D01*
X134744260Y-120339000D01*
X134810442Y-120345518D01*
X134810442Y-120345518D01*
G37*
G36*
X137350442Y-120345518D02*
X137416627Y-120352037D01*
X137529853Y-120386384D01*
X137586467Y-120403557D01*
X137725087Y-120477652D01*
X137742991Y-120487222D01*
X137778729Y-120516552D01*
X137880186Y-120599814D01*
X137963448Y-120701271D01*
X137992778Y-120737009D01*
X137992779Y-120737011D01*
X138076443Y-120893533D01*
X138076443Y-120893534D01*
X138127963Y-121063373D01*
X138145359Y-121240000D01*
X138127963Y-121416627D01*
X138093616Y-121529853D01*
X138076443Y-121586467D01*
X138002348Y-121725087D01*
X137992778Y-121742991D01*
X137963448Y-121778729D01*
X137880186Y-121880186D01*
X137778729Y-121963448D01*
X137742991Y-121992778D01*
X137742989Y-121992779D01*
X137586467Y-122076443D01*
X137529853Y-122093616D01*
X137416627Y-122127963D01*
X137350442Y-122134482D01*
X137284260Y-122141000D01*
X137195740Y-122141000D01*
X137129558Y-122134482D01*
X137063373Y-122127963D01*
X136950147Y-122093616D01*
X136893533Y-122076443D01*
X136737011Y-121992779D01*
X136737009Y-121992778D01*
X136701271Y-121963448D01*
X136599814Y-121880186D01*
X136516552Y-121778729D01*
X136487222Y-121742991D01*
X136477652Y-121725087D01*
X136403557Y-121586467D01*
X136386384Y-121529853D01*
X136352037Y-121416627D01*
X136334641Y-121240000D01*
X136352037Y-121063373D01*
X136403557Y-120893534D01*
X136403557Y-120893533D01*
X136487221Y-120737011D01*
X136487222Y-120737009D01*
X136516552Y-120701271D01*
X136599814Y-120599814D01*
X136701271Y-120516552D01*
X136737009Y-120487222D01*
X136754913Y-120477652D01*
X136893533Y-120403557D01*
X136950147Y-120386384D01*
X137063373Y-120352037D01*
X137129558Y-120345518D01*
X137195740Y-120339000D01*
X137284260Y-120339000D01*
X137350442Y-120345518D01*
X137350442Y-120345518D01*
G37*
G36*
X139890442Y-120345518D02*
X139956627Y-120352037D01*
X140069853Y-120386384D01*
X140126467Y-120403557D01*
X140265087Y-120477652D01*
X140282991Y-120487222D01*
X140318729Y-120516552D01*
X140420186Y-120599814D01*
X140503448Y-120701271D01*
X140532778Y-120737009D01*
X140532779Y-120737011D01*
X140616443Y-120893533D01*
X140616443Y-120893534D01*
X140667963Y-121063373D01*
X140685359Y-121240000D01*
X140667963Y-121416627D01*
X140633616Y-121529853D01*
X140616443Y-121586467D01*
X140542348Y-121725087D01*
X140532778Y-121742991D01*
X140503448Y-121778729D01*
X140420186Y-121880186D01*
X140318729Y-121963448D01*
X140282991Y-121992778D01*
X140282989Y-121992779D01*
X140126467Y-122076443D01*
X140069853Y-122093616D01*
X139956627Y-122127963D01*
X139890442Y-122134482D01*
X139824260Y-122141000D01*
X139735740Y-122141000D01*
X139669558Y-122134482D01*
X139603373Y-122127963D01*
X139490147Y-122093616D01*
X139433533Y-122076443D01*
X139277011Y-121992779D01*
X139277009Y-121992778D01*
X139241271Y-121963448D01*
X139139814Y-121880186D01*
X139056552Y-121778729D01*
X139027222Y-121742991D01*
X139017652Y-121725087D01*
X138943557Y-121586467D01*
X138926384Y-121529853D01*
X138892037Y-121416627D01*
X138874641Y-121240000D01*
X138892037Y-121063373D01*
X138943557Y-120893534D01*
X138943557Y-120893533D01*
X139027221Y-120737011D01*
X139027222Y-120737009D01*
X139056552Y-120701271D01*
X139139814Y-120599814D01*
X139241271Y-120516552D01*
X139277009Y-120487222D01*
X139294913Y-120477652D01*
X139433533Y-120403557D01*
X139490147Y-120386384D01*
X139603373Y-120352037D01*
X139669558Y-120345518D01*
X139735740Y-120339000D01*
X139824260Y-120339000D01*
X139890442Y-120345518D01*
X139890442Y-120345518D01*
G37*
G36*
X142430442Y-120345518D02*
X142496627Y-120352037D01*
X142609853Y-120386384D01*
X142666467Y-120403557D01*
X142805087Y-120477652D01*
X142822991Y-120487222D01*
X142858729Y-120516552D01*
X142960186Y-120599814D01*
X143043448Y-120701271D01*
X143072778Y-120737009D01*
X143072779Y-120737011D01*
X143156443Y-120893533D01*
X143156443Y-120893534D01*
X143207963Y-121063373D01*
X143225359Y-121240000D01*
X143207963Y-121416627D01*
X143173616Y-121529853D01*
X143156443Y-121586467D01*
X143082348Y-121725087D01*
X143072778Y-121742991D01*
X143043448Y-121778729D01*
X142960186Y-121880186D01*
X142858729Y-121963448D01*
X142822991Y-121992778D01*
X142822989Y-121992779D01*
X142666467Y-122076443D01*
X142609853Y-122093616D01*
X142496627Y-122127963D01*
X142430442Y-122134482D01*
X142364260Y-122141000D01*
X142275740Y-122141000D01*
X142209558Y-122134482D01*
X142143373Y-122127963D01*
X142030147Y-122093616D01*
X141973533Y-122076443D01*
X141817011Y-121992779D01*
X141817009Y-121992778D01*
X141781271Y-121963448D01*
X141679814Y-121880186D01*
X141596552Y-121778729D01*
X141567222Y-121742991D01*
X141557652Y-121725087D01*
X141483557Y-121586467D01*
X141466384Y-121529853D01*
X141432037Y-121416627D01*
X141414641Y-121240000D01*
X141432037Y-121063373D01*
X141483557Y-120893534D01*
X141483557Y-120893533D01*
X141567221Y-120737011D01*
X141567222Y-120737009D01*
X141596552Y-120701271D01*
X141679814Y-120599814D01*
X141781271Y-120516552D01*
X141817009Y-120487222D01*
X141834913Y-120477652D01*
X141973533Y-120403557D01*
X142030147Y-120386384D01*
X142143373Y-120352037D01*
X142209558Y-120345518D01*
X142275740Y-120339000D01*
X142364260Y-120339000D01*
X142430442Y-120345518D01*
X142430442Y-120345518D01*
G37*
G36*
X144970442Y-120345518D02*
X145036627Y-120352037D01*
X145149853Y-120386384D01*
X145206467Y-120403557D01*
X145345087Y-120477652D01*
X145362991Y-120487222D01*
X145398729Y-120516552D01*
X145500186Y-120599814D01*
X145583448Y-120701271D01*
X145612778Y-120737009D01*
X145612779Y-120737011D01*
X145696443Y-120893533D01*
X145696443Y-120893534D01*
X145747963Y-121063373D01*
X145765359Y-121240000D01*
X145747963Y-121416627D01*
X145713616Y-121529853D01*
X145696443Y-121586467D01*
X145622348Y-121725087D01*
X145612778Y-121742991D01*
X145583448Y-121778729D01*
X145500186Y-121880186D01*
X145398729Y-121963448D01*
X145362991Y-121992778D01*
X145362989Y-121992779D01*
X145206467Y-122076443D01*
X145149853Y-122093616D01*
X145036627Y-122127963D01*
X144970442Y-122134482D01*
X144904260Y-122141000D01*
X144815740Y-122141000D01*
X144749558Y-122134482D01*
X144683373Y-122127963D01*
X144570147Y-122093616D01*
X144513533Y-122076443D01*
X144357011Y-121992779D01*
X144357009Y-121992778D01*
X144321271Y-121963448D01*
X144219814Y-121880186D01*
X144136552Y-121778729D01*
X144107222Y-121742991D01*
X144097652Y-121725087D01*
X144023557Y-121586467D01*
X144006384Y-121529853D01*
X143972037Y-121416627D01*
X143954641Y-121240000D01*
X143972037Y-121063373D01*
X144023557Y-120893534D01*
X144023557Y-120893533D01*
X144107221Y-120737011D01*
X144107222Y-120737009D01*
X144136552Y-120701271D01*
X144219814Y-120599814D01*
X144321271Y-120516552D01*
X144357009Y-120487222D01*
X144374913Y-120477652D01*
X144513533Y-120403557D01*
X144570147Y-120386384D01*
X144683373Y-120352037D01*
X144749558Y-120345518D01*
X144815740Y-120339000D01*
X144904260Y-120339000D01*
X144970442Y-120345518D01*
X144970442Y-120345518D01*
G37*
G36*
X147510442Y-120345518D02*
X147576627Y-120352037D01*
X147689853Y-120386384D01*
X147746467Y-120403557D01*
X147885087Y-120477652D01*
X147902991Y-120487222D01*
X147938729Y-120516552D01*
X148040186Y-120599814D01*
X148123448Y-120701271D01*
X148152778Y-120737009D01*
X148152779Y-120737011D01*
X148236443Y-120893533D01*
X148236443Y-120893534D01*
X148287963Y-121063373D01*
X148305359Y-121240000D01*
X148287963Y-121416627D01*
X148253616Y-121529853D01*
X148236443Y-121586467D01*
X148162348Y-121725087D01*
X148152778Y-121742991D01*
X148123448Y-121778729D01*
X148040186Y-121880186D01*
X147938729Y-121963448D01*
X147902991Y-121992778D01*
X147902989Y-121992779D01*
X147746467Y-122076443D01*
X147689853Y-122093616D01*
X147576627Y-122127963D01*
X147510442Y-122134482D01*
X147444260Y-122141000D01*
X147355740Y-122141000D01*
X147289558Y-122134482D01*
X147223373Y-122127963D01*
X147110147Y-122093616D01*
X147053533Y-122076443D01*
X146897011Y-121992779D01*
X146897009Y-121992778D01*
X146861271Y-121963448D01*
X146759814Y-121880186D01*
X146676552Y-121778729D01*
X146647222Y-121742991D01*
X146637652Y-121725087D01*
X146563557Y-121586467D01*
X146546384Y-121529853D01*
X146512037Y-121416627D01*
X146494641Y-121240000D01*
X146512037Y-121063373D01*
X146563557Y-120893534D01*
X146563557Y-120893533D01*
X146647221Y-120737011D01*
X146647222Y-120737009D01*
X146676552Y-120701271D01*
X146759814Y-120599814D01*
X146861271Y-120516552D01*
X146897009Y-120487222D01*
X146914913Y-120477652D01*
X147053533Y-120403557D01*
X147110147Y-120386384D01*
X147223373Y-120352037D01*
X147289558Y-120345518D01*
X147355740Y-120339000D01*
X147444260Y-120339000D01*
X147510442Y-120345518D01*
X147510442Y-120345518D01*
G37*
G36*
X155130442Y-120345518D02*
X155196627Y-120352037D01*
X155309853Y-120386384D01*
X155366467Y-120403557D01*
X155505087Y-120477652D01*
X155522991Y-120487222D01*
X155558729Y-120516552D01*
X155660186Y-120599814D01*
X155743448Y-120701271D01*
X155772778Y-120737009D01*
X155772779Y-120737011D01*
X155856443Y-120893533D01*
X155856443Y-120893534D01*
X155907963Y-121063373D01*
X155925359Y-121240000D01*
X155907963Y-121416627D01*
X155873616Y-121529853D01*
X155856443Y-121586467D01*
X155782348Y-121725087D01*
X155772778Y-121742991D01*
X155743448Y-121778729D01*
X155660186Y-121880186D01*
X155558729Y-121963448D01*
X155522991Y-121992778D01*
X155522989Y-121992779D01*
X155366467Y-122076443D01*
X155309853Y-122093616D01*
X155196627Y-122127963D01*
X155130442Y-122134482D01*
X155064260Y-122141000D01*
X154975740Y-122141000D01*
X154909558Y-122134482D01*
X154843373Y-122127963D01*
X154730147Y-122093616D01*
X154673533Y-122076443D01*
X154517011Y-121992779D01*
X154517009Y-121992778D01*
X154481271Y-121963448D01*
X154379814Y-121880186D01*
X154296552Y-121778729D01*
X154267222Y-121742991D01*
X154257652Y-121725087D01*
X154183557Y-121586467D01*
X154166384Y-121529853D01*
X154132037Y-121416627D01*
X154114641Y-121240000D01*
X154132037Y-121063373D01*
X154183557Y-120893534D01*
X154183557Y-120893533D01*
X154267221Y-120737011D01*
X154267222Y-120737009D01*
X154296552Y-120701271D01*
X154379814Y-120599814D01*
X154481271Y-120516552D01*
X154517009Y-120487222D01*
X154534913Y-120477652D01*
X154673533Y-120403557D01*
X154730147Y-120386384D01*
X154843373Y-120352037D01*
X154909558Y-120345518D01*
X154975740Y-120339000D01*
X155064260Y-120339000D01*
X155130442Y-120345518D01*
X155130442Y-120345518D01*
G37*
G36*
X157670442Y-120345518D02*
X157736627Y-120352037D01*
X157849853Y-120386384D01*
X157906467Y-120403557D01*
X158045087Y-120477652D01*
X158062991Y-120487222D01*
X158098729Y-120516552D01*
X158200186Y-120599814D01*
X158283448Y-120701271D01*
X158312778Y-120737009D01*
X158312779Y-120737011D01*
X158396443Y-120893533D01*
X158396443Y-120893534D01*
X158447963Y-121063373D01*
X158465359Y-121240000D01*
X158447963Y-121416627D01*
X158413616Y-121529853D01*
X158396443Y-121586467D01*
X158322348Y-121725087D01*
X158312778Y-121742991D01*
X158283448Y-121778729D01*
X158200186Y-121880186D01*
X158098729Y-121963448D01*
X158062991Y-121992778D01*
X158062989Y-121992779D01*
X157906467Y-122076443D01*
X157849853Y-122093616D01*
X157736627Y-122127963D01*
X157670442Y-122134482D01*
X157604260Y-122141000D01*
X157515740Y-122141000D01*
X157449558Y-122134482D01*
X157383373Y-122127963D01*
X157270147Y-122093616D01*
X157213533Y-122076443D01*
X157057011Y-121992779D01*
X157057009Y-121992778D01*
X157021271Y-121963448D01*
X156919814Y-121880186D01*
X156836552Y-121778729D01*
X156807222Y-121742991D01*
X156797652Y-121725087D01*
X156723557Y-121586467D01*
X156706384Y-121529853D01*
X156672037Y-121416627D01*
X156654641Y-121240000D01*
X156672037Y-121063373D01*
X156723557Y-120893534D01*
X156723557Y-120893533D01*
X156807221Y-120737011D01*
X156807222Y-120737009D01*
X156836552Y-120701271D01*
X156919814Y-120599814D01*
X157021271Y-120516552D01*
X157057009Y-120487222D01*
X157074913Y-120477652D01*
X157213533Y-120403557D01*
X157270147Y-120386384D01*
X157383373Y-120352037D01*
X157449558Y-120345518D01*
X157515740Y-120339000D01*
X157604260Y-120339000D01*
X157670442Y-120345518D01*
X157670442Y-120345518D01*
G37*
G36*
X124650442Y-120345518D02*
X124716627Y-120352037D01*
X124829853Y-120386384D01*
X124886467Y-120403557D01*
X125025087Y-120477652D01*
X125042991Y-120487222D01*
X125078729Y-120516552D01*
X125180186Y-120599814D01*
X125263448Y-120701271D01*
X125292778Y-120737009D01*
X125292779Y-120737011D01*
X125376443Y-120893533D01*
X125376443Y-120893534D01*
X125427963Y-121063373D01*
X125445359Y-121240000D01*
X125427963Y-121416627D01*
X125393616Y-121529853D01*
X125376443Y-121586467D01*
X125302348Y-121725087D01*
X125292778Y-121742991D01*
X125263448Y-121778729D01*
X125180186Y-121880186D01*
X125078729Y-121963448D01*
X125042991Y-121992778D01*
X125042989Y-121992779D01*
X124886467Y-122076443D01*
X124829853Y-122093616D01*
X124716627Y-122127963D01*
X124650442Y-122134482D01*
X124584260Y-122141000D01*
X124495740Y-122141000D01*
X124429558Y-122134482D01*
X124363373Y-122127963D01*
X124250147Y-122093616D01*
X124193533Y-122076443D01*
X124037011Y-121992779D01*
X124037009Y-121992778D01*
X124001271Y-121963448D01*
X123899814Y-121880186D01*
X123816552Y-121778729D01*
X123787222Y-121742991D01*
X123777652Y-121725087D01*
X123703557Y-121586467D01*
X123686384Y-121529853D01*
X123652037Y-121416627D01*
X123634641Y-121240000D01*
X123652037Y-121063373D01*
X123703557Y-120893534D01*
X123703557Y-120893533D01*
X123787221Y-120737011D01*
X123787222Y-120737009D01*
X123816552Y-120701271D01*
X123899814Y-120599814D01*
X124001271Y-120516552D01*
X124037009Y-120487222D01*
X124054913Y-120477652D01*
X124193533Y-120403557D01*
X124250147Y-120386384D01*
X124363373Y-120352037D01*
X124429558Y-120345518D01*
X124495740Y-120339000D01*
X124584260Y-120339000D01*
X124650442Y-120345518D01*
X124650442Y-120345518D01*
G37*
G36*
X122110442Y-120345518D02*
X122176627Y-120352037D01*
X122289853Y-120386384D01*
X122346467Y-120403557D01*
X122485087Y-120477652D01*
X122502991Y-120487222D01*
X122538729Y-120516552D01*
X122640186Y-120599814D01*
X122723448Y-120701271D01*
X122752778Y-120737009D01*
X122752779Y-120737011D01*
X122836443Y-120893533D01*
X122836443Y-120893534D01*
X122887963Y-121063373D01*
X122905359Y-121240000D01*
X122887963Y-121416627D01*
X122853616Y-121529853D01*
X122836443Y-121586467D01*
X122762348Y-121725087D01*
X122752778Y-121742991D01*
X122723448Y-121778729D01*
X122640186Y-121880186D01*
X122538729Y-121963448D01*
X122502991Y-121992778D01*
X122502989Y-121992779D01*
X122346467Y-122076443D01*
X122289853Y-122093616D01*
X122176627Y-122127963D01*
X122110442Y-122134482D01*
X122044260Y-122141000D01*
X121955740Y-122141000D01*
X121889558Y-122134482D01*
X121823373Y-122127963D01*
X121710147Y-122093616D01*
X121653533Y-122076443D01*
X121497011Y-121992779D01*
X121497009Y-121992778D01*
X121461271Y-121963448D01*
X121359814Y-121880186D01*
X121276552Y-121778729D01*
X121247222Y-121742991D01*
X121237652Y-121725087D01*
X121163557Y-121586467D01*
X121146384Y-121529853D01*
X121112037Y-121416627D01*
X121094641Y-121240000D01*
X121112037Y-121063373D01*
X121163557Y-120893534D01*
X121163557Y-120893533D01*
X121247221Y-120737011D01*
X121247222Y-120737009D01*
X121276552Y-120701271D01*
X121359814Y-120599814D01*
X121461271Y-120516552D01*
X121497009Y-120487222D01*
X121514913Y-120477652D01*
X121653533Y-120403557D01*
X121710147Y-120386384D01*
X121823373Y-120352037D01*
X121889558Y-120345518D01*
X121955740Y-120339000D01*
X122044260Y-120339000D01*
X122110442Y-120345518D01*
X122110442Y-120345518D01*
G37*
G36*
X119570442Y-120345518D02*
X119636627Y-120352037D01*
X119749853Y-120386384D01*
X119806467Y-120403557D01*
X119945087Y-120477652D01*
X119962991Y-120487222D01*
X119998729Y-120516552D01*
X120100186Y-120599814D01*
X120183448Y-120701271D01*
X120212778Y-120737009D01*
X120212779Y-120737011D01*
X120296443Y-120893533D01*
X120296443Y-120893534D01*
X120347963Y-121063373D01*
X120365359Y-121240000D01*
X120347963Y-121416627D01*
X120313616Y-121529853D01*
X120296443Y-121586467D01*
X120222348Y-121725087D01*
X120212778Y-121742991D01*
X120183448Y-121778729D01*
X120100186Y-121880186D01*
X119998729Y-121963448D01*
X119962991Y-121992778D01*
X119962989Y-121992779D01*
X119806467Y-122076443D01*
X119749853Y-122093616D01*
X119636627Y-122127963D01*
X119570442Y-122134482D01*
X119504260Y-122141000D01*
X119415740Y-122141000D01*
X119349558Y-122134482D01*
X119283373Y-122127963D01*
X119170147Y-122093616D01*
X119113533Y-122076443D01*
X118957011Y-121992779D01*
X118957009Y-121992778D01*
X118921271Y-121963448D01*
X118819814Y-121880186D01*
X118736552Y-121778729D01*
X118707222Y-121742991D01*
X118697652Y-121725087D01*
X118623557Y-121586467D01*
X118606384Y-121529853D01*
X118572037Y-121416627D01*
X118554641Y-121240000D01*
X118572037Y-121063373D01*
X118623557Y-120893534D01*
X118623557Y-120893533D01*
X118707221Y-120737011D01*
X118707222Y-120737009D01*
X118736552Y-120701271D01*
X118819814Y-120599814D01*
X118921271Y-120516552D01*
X118957009Y-120487222D01*
X118974913Y-120477652D01*
X119113533Y-120403557D01*
X119170147Y-120386384D01*
X119283373Y-120352037D01*
X119349558Y-120345518D01*
X119415740Y-120339000D01*
X119504260Y-120339000D01*
X119570442Y-120345518D01*
X119570442Y-120345518D01*
G37*
G36*
X117030442Y-120345518D02*
X117096627Y-120352037D01*
X117209853Y-120386384D01*
X117266467Y-120403557D01*
X117405087Y-120477652D01*
X117422991Y-120487222D01*
X117458729Y-120516552D01*
X117560186Y-120599814D01*
X117643448Y-120701271D01*
X117672778Y-120737009D01*
X117672779Y-120737011D01*
X117756443Y-120893533D01*
X117756443Y-120893534D01*
X117807963Y-121063373D01*
X117825359Y-121240000D01*
X117807963Y-121416627D01*
X117773616Y-121529853D01*
X117756443Y-121586467D01*
X117682348Y-121725087D01*
X117672778Y-121742991D01*
X117643448Y-121778729D01*
X117560186Y-121880186D01*
X117458729Y-121963448D01*
X117422991Y-121992778D01*
X117422989Y-121992779D01*
X117266467Y-122076443D01*
X117209853Y-122093616D01*
X117096627Y-122127963D01*
X117030442Y-122134482D01*
X116964260Y-122141000D01*
X116875740Y-122141000D01*
X116809558Y-122134482D01*
X116743373Y-122127963D01*
X116630147Y-122093616D01*
X116573533Y-122076443D01*
X116417011Y-121992779D01*
X116417009Y-121992778D01*
X116381271Y-121963448D01*
X116279814Y-121880186D01*
X116196552Y-121778729D01*
X116167222Y-121742991D01*
X116157652Y-121725087D01*
X116083557Y-121586467D01*
X116066384Y-121529853D01*
X116032037Y-121416627D01*
X116014641Y-121240000D01*
X116032037Y-121063373D01*
X116083557Y-120893534D01*
X116083557Y-120893533D01*
X116167221Y-120737011D01*
X116167222Y-120737009D01*
X116196552Y-120701271D01*
X116279814Y-120599814D01*
X116381271Y-120516552D01*
X116417009Y-120487222D01*
X116434913Y-120477652D01*
X116573533Y-120403557D01*
X116630147Y-120386384D01*
X116743373Y-120352037D01*
X116809558Y-120345518D01*
X116875740Y-120339000D01*
X116964260Y-120339000D01*
X117030442Y-120345518D01*
X117030442Y-120345518D01*
G37*
G36*
X114490442Y-120345518D02*
X114556627Y-120352037D01*
X114669853Y-120386384D01*
X114726467Y-120403557D01*
X114865087Y-120477652D01*
X114882991Y-120487222D01*
X114918729Y-120516552D01*
X115020186Y-120599814D01*
X115103448Y-120701271D01*
X115132778Y-120737009D01*
X115132779Y-120737011D01*
X115216443Y-120893533D01*
X115216443Y-120893534D01*
X115267963Y-121063373D01*
X115285359Y-121240000D01*
X115267963Y-121416627D01*
X115233616Y-121529853D01*
X115216443Y-121586467D01*
X115142348Y-121725087D01*
X115132778Y-121742991D01*
X115103448Y-121778729D01*
X115020186Y-121880186D01*
X114918729Y-121963448D01*
X114882991Y-121992778D01*
X114882989Y-121992779D01*
X114726467Y-122076443D01*
X114669853Y-122093616D01*
X114556627Y-122127963D01*
X114490442Y-122134482D01*
X114424260Y-122141000D01*
X114335740Y-122141000D01*
X114269558Y-122134482D01*
X114203373Y-122127963D01*
X114090147Y-122093616D01*
X114033533Y-122076443D01*
X113877011Y-121992779D01*
X113877009Y-121992778D01*
X113841271Y-121963448D01*
X113739814Y-121880186D01*
X113656552Y-121778729D01*
X113627222Y-121742991D01*
X113617652Y-121725087D01*
X113543557Y-121586467D01*
X113526384Y-121529853D01*
X113492037Y-121416627D01*
X113474641Y-121240000D01*
X113492037Y-121063373D01*
X113543557Y-120893534D01*
X113543557Y-120893533D01*
X113627221Y-120737011D01*
X113627222Y-120737009D01*
X113656552Y-120701271D01*
X113739814Y-120599814D01*
X113841271Y-120516552D01*
X113877009Y-120487222D01*
X113894913Y-120477652D01*
X114033533Y-120403557D01*
X114090147Y-120386384D01*
X114203373Y-120352037D01*
X114269558Y-120345518D01*
X114335740Y-120339000D01*
X114424260Y-120339000D01*
X114490442Y-120345518D01*
X114490442Y-120345518D01*
G37*
G36*
X111950442Y-120345518D02*
X112016627Y-120352037D01*
X112129853Y-120386384D01*
X112186467Y-120403557D01*
X112325087Y-120477652D01*
X112342991Y-120487222D01*
X112378729Y-120516552D01*
X112480186Y-120599814D01*
X112563448Y-120701271D01*
X112592778Y-120737009D01*
X112592779Y-120737011D01*
X112676443Y-120893533D01*
X112676443Y-120893534D01*
X112727963Y-121063373D01*
X112745359Y-121240000D01*
X112727963Y-121416627D01*
X112693616Y-121529853D01*
X112676443Y-121586467D01*
X112602348Y-121725087D01*
X112592778Y-121742991D01*
X112563448Y-121778729D01*
X112480186Y-121880186D01*
X112378729Y-121963448D01*
X112342991Y-121992778D01*
X112342989Y-121992779D01*
X112186467Y-122076443D01*
X112129853Y-122093616D01*
X112016627Y-122127963D01*
X111950442Y-122134482D01*
X111884260Y-122141000D01*
X111795740Y-122141000D01*
X111729558Y-122134482D01*
X111663373Y-122127963D01*
X111550147Y-122093616D01*
X111493533Y-122076443D01*
X111337011Y-121992779D01*
X111337009Y-121992778D01*
X111301271Y-121963448D01*
X111199814Y-121880186D01*
X111116552Y-121778729D01*
X111087222Y-121742991D01*
X111077652Y-121725087D01*
X111003557Y-121586467D01*
X110986384Y-121529853D01*
X110952037Y-121416627D01*
X110934641Y-121240000D01*
X110952037Y-121063373D01*
X111003557Y-120893534D01*
X111003557Y-120893533D01*
X111087221Y-120737011D01*
X111087222Y-120737009D01*
X111116552Y-120701271D01*
X111199814Y-120599814D01*
X111301271Y-120516552D01*
X111337009Y-120487222D01*
X111354913Y-120477652D01*
X111493533Y-120403557D01*
X111550147Y-120386384D01*
X111663373Y-120352037D01*
X111729558Y-120345518D01*
X111795740Y-120339000D01*
X111884260Y-120339000D01*
X111950442Y-120345518D01*
X111950442Y-120345518D01*
G37*
G36*
X150050442Y-120345518D02*
X150116627Y-120352037D01*
X150229853Y-120386384D01*
X150286467Y-120403557D01*
X150425087Y-120477652D01*
X150442991Y-120487222D01*
X150478729Y-120516552D01*
X150580186Y-120599814D01*
X150663448Y-120701271D01*
X150692778Y-120737009D01*
X150692779Y-120737011D01*
X150776443Y-120893533D01*
X150776443Y-120893534D01*
X150827963Y-121063373D01*
X150845359Y-121240000D01*
X150827963Y-121416627D01*
X150793616Y-121529853D01*
X150776443Y-121586467D01*
X150702348Y-121725087D01*
X150692778Y-121742991D01*
X150663448Y-121778729D01*
X150580186Y-121880186D01*
X150478729Y-121963448D01*
X150442991Y-121992778D01*
X150442989Y-121992779D01*
X150286467Y-122076443D01*
X150229853Y-122093616D01*
X150116627Y-122127963D01*
X150050442Y-122134482D01*
X149984260Y-122141000D01*
X149895740Y-122141000D01*
X149829558Y-122134482D01*
X149763373Y-122127963D01*
X149650147Y-122093616D01*
X149593533Y-122076443D01*
X149437011Y-121992779D01*
X149437009Y-121992778D01*
X149401271Y-121963448D01*
X149299814Y-121880186D01*
X149216552Y-121778729D01*
X149187222Y-121742991D01*
X149177652Y-121725087D01*
X149103557Y-121586467D01*
X149086384Y-121529853D01*
X149052037Y-121416627D01*
X149034641Y-121240000D01*
X149052037Y-121063373D01*
X149103557Y-120893534D01*
X149103557Y-120893533D01*
X149187221Y-120737011D01*
X149187222Y-120737009D01*
X149216552Y-120701271D01*
X149299814Y-120599814D01*
X149401271Y-120516552D01*
X149437009Y-120487222D01*
X149454913Y-120477652D01*
X149593533Y-120403557D01*
X149650147Y-120386384D01*
X149763373Y-120352037D01*
X149829558Y-120345518D01*
X149895740Y-120339000D01*
X149984260Y-120339000D01*
X150050442Y-120345518D01*
X150050442Y-120345518D01*
G37*
G36*
X107318433Y-118634893D02*
X107408657Y-118652839D01*
X107514267Y-118696585D01*
X107663621Y-118758449D01*
X107893089Y-118911774D01*
X108088226Y-119106911D01*
X108241551Y-119336379D01*
X108347161Y-119591344D01*
X108401000Y-119862012D01*
X108401000Y-120137988D01*
X108347161Y-120408656D01*
X108241551Y-120663621D01*
X108088226Y-120893089D01*
X107893089Y-121088226D01*
X107663621Y-121241551D01*
X107514267Y-121303415D01*
X107408657Y-121347161D01*
X107318433Y-121365107D01*
X107137988Y-121401000D01*
X106862012Y-121401000D01*
X106681567Y-121365107D01*
X106591343Y-121347161D01*
X106485733Y-121303415D01*
X106336379Y-121241551D01*
X106106911Y-121088226D01*
X105911774Y-120893089D01*
X105758449Y-120663621D01*
X105652839Y-120408656D01*
X105599000Y-120137988D01*
X105599000Y-119862012D01*
X105652839Y-119591344D01*
X105758449Y-119336379D01*
X105911774Y-119106911D01*
X106106911Y-118911774D01*
X106336379Y-118758449D01*
X106485733Y-118696585D01*
X106591343Y-118652839D01*
X106681567Y-118634893D01*
X106862012Y-118599000D01*
X107137988Y-118599000D01*
X107318433Y-118634893D01*
X107318433Y-118634893D01*
G37*
G36*
X165318433Y-118634893D02*
X165408657Y-118652839D01*
X165514267Y-118696585D01*
X165663621Y-118758449D01*
X165893089Y-118911774D01*
X166088226Y-119106911D01*
X166241551Y-119336379D01*
X166347161Y-119591344D01*
X166401000Y-119862012D01*
X166401000Y-120137988D01*
X166347161Y-120408656D01*
X166241551Y-120663621D01*
X166088226Y-120893089D01*
X165893089Y-121088226D01*
X165663621Y-121241551D01*
X165514267Y-121303415D01*
X165408657Y-121347161D01*
X165318433Y-121365107D01*
X165137988Y-121401000D01*
X164862012Y-121401000D01*
X164681567Y-121365107D01*
X164591343Y-121347161D01*
X164485733Y-121303415D01*
X164336379Y-121241551D01*
X164106911Y-121088226D01*
X163911774Y-120893089D01*
X163758449Y-120663621D01*
X163652839Y-120408656D01*
X163599000Y-120137988D01*
X163599000Y-119862012D01*
X163652839Y-119591344D01*
X163758449Y-119336379D01*
X163911774Y-119106911D01*
X164106911Y-118911774D01*
X164336379Y-118758449D01*
X164485733Y-118696585D01*
X164591343Y-118652839D01*
X164681567Y-118634893D01*
X164862012Y-118599000D01*
X165137988Y-118599000D01*
X165318433Y-118634893D01*
X165318433Y-118634893D01*
G37*
G36*
X144970443Y-117805519D02*
X145036627Y-117812037D01*
X145149853Y-117846384D01*
X145206467Y-117863557D01*
X145345087Y-117937652D01*
X145362991Y-117947222D01*
X145398729Y-117976552D01*
X145500186Y-118059814D01*
X145583448Y-118161271D01*
X145612778Y-118197009D01*
X145612779Y-118197011D01*
X145696443Y-118353533D01*
X145696443Y-118353534D01*
X145747963Y-118523373D01*
X145765359Y-118700000D01*
X145747963Y-118876627D01*
X145737301Y-118911774D01*
X145696443Y-119046467D01*
X145664133Y-119106914D01*
X145612778Y-119202991D01*
X145583448Y-119238729D01*
X145500186Y-119340186D01*
X145398729Y-119423448D01*
X145362991Y-119452778D01*
X145362989Y-119452779D01*
X145206467Y-119536443D01*
X145149853Y-119553616D01*
X145036627Y-119587963D01*
X144970443Y-119594481D01*
X144904260Y-119601000D01*
X144815740Y-119601000D01*
X144749557Y-119594481D01*
X144683373Y-119587963D01*
X144570147Y-119553616D01*
X144513533Y-119536443D01*
X144357011Y-119452779D01*
X144357009Y-119452778D01*
X144321271Y-119423448D01*
X144219814Y-119340186D01*
X144136552Y-119238729D01*
X144107222Y-119202991D01*
X144055867Y-119106914D01*
X144023557Y-119046467D01*
X143982699Y-118911774D01*
X143972037Y-118876627D01*
X143954641Y-118700000D01*
X143972037Y-118523373D01*
X144023557Y-118353534D01*
X144023557Y-118353533D01*
X144107221Y-118197011D01*
X144107222Y-118197009D01*
X144136552Y-118161271D01*
X144219814Y-118059814D01*
X144321271Y-117976552D01*
X144357009Y-117947222D01*
X144374913Y-117937652D01*
X144513533Y-117863557D01*
X144570147Y-117846384D01*
X144683373Y-117812037D01*
X144749557Y-117805519D01*
X144815740Y-117799000D01*
X144904260Y-117799000D01*
X144970443Y-117805519D01*
X144970443Y-117805519D01*
G37*
G36*
X127190443Y-117805519D02*
X127256627Y-117812037D01*
X127369853Y-117846384D01*
X127426467Y-117863557D01*
X127565087Y-117937652D01*
X127582991Y-117947222D01*
X127618729Y-117976552D01*
X127720186Y-118059814D01*
X127803448Y-118161271D01*
X127832778Y-118197009D01*
X127832779Y-118197011D01*
X127916443Y-118353533D01*
X127916443Y-118353534D01*
X127967963Y-118523373D01*
X127985359Y-118700000D01*
X127967963Y-118876627D01*
X127957301Y-118911774D01*
X127916443Y-119046467D01*
X127884133Y-119106914D01*
X127832778Y-119202991D01*
X127803448Y-119238729D01*
X127720186Y-119340186D01*
X127618729Y-119423448D01*
X127582991Y-119452778D01*
X127582989Y-119452779D01*
X127426467Y-119536443D01*
X127369853Y-119553616D01*
X127256627Y-119587963D01*
X127190443Y-119594481D01*
X127124260Y-119601000D01*
X127035740Y-119601000D01*
X126969557Y-119594481D01*
X126903373Y-119587963D01*
X126790147Y-119553616D01*
X126733533Y-119536443D01*
X126577011Y-119452779D01*
X126577009Y-119452778D01*
X126541271Y-119423448D01*
X126439814Y-119340186D01*
X126356552Y-119238729D01*
X126327222Y-119202991D01*
X126275867Y-119106914D01*
X126243557Y-119046467D01*
X126202699Y-118911774D01*
X126192037Y-118876627D01*
X126174641Y-118700000D01*
X126192037Y-118523373D01*
X126243557Y-118353534D01*
X126243557Y-118353533D01*
X126327221Y-118197011D01*
X126327222Y-118197009D01*
X126356552Y-118161271D01*
X126439814Y-118059814D01*
X126541271Y-117976552D01*
X126577009Y-117947222D01*
X126594913Y-117937652D01*
X126733533Y-117863557D01*
X126790147Y-117846384D01*
X126903373Y-117812037D01*
X126969557Y-117805519D01*
X127035740Y-117799000D01*
X127124260Y-117799000D01*
X127190443Y-117805519D01*
X127190443Y-117805519D01*
G37*
G36*
X129730443Y-117805519D02*
X129796627Y-117812037D01*
X129909853Y-117846384D01*
X129966467Y-117863557D01*
X130105087Y-117937652D01*
X130122991Y-117947222D01*
X130158729Y-117976552D01*
X130260186Y-118059814D01*
X130343448Y-118161271D01*
X130372778Y-118197009D01*
X130372779Y-118197011D01*
X130456443Y-118353533D01*
X130456443Y-118353534D01*
X130507963Y-118523373D01*
X130525359Y-118700000D01*
X130507963Y-118876627D01*
X130497301Y-118911774D01*
X130456443Y-119046467D01*
X130424133Y-119106914D01*
X130372778Y-119202991D01*
X130343448Y-119238729D01*
X130260186Y-119340186D01*
X130158729Y-119423448D01*
X130122991Y-119452778D01*
X130122989Y-119452779D01*
X129966467Y-119536443D01*
X129909853Y-119553616D01*
X129796627Y-119587963D01*
X129730443Y-119594481D01*
X129664260Y-119601000D01*
X129575740Y-119601000D01*
X129509557Y-119594481D01*
X129443373Y-119587963D01*
X129330147Y-119553616D01*
X129273533Y-119536443D01*
X129117011Y-119452779D01*
X129117009Y-119452778D01*
X129081271Y-119423448D01*
X128979814Y-119340186D01*
X128896552Y-119238729D01*
X128867222Y-119202991D01*
X128815867Y-119106914D01*
X128783557Y-119046467D01*
X128742699Y-118911774D01*
X128732037Y-118876627D01*
X128714641Y-118700000D01*
X128732037Y-118523373D01*
X128783557Y-118353534D01*
X128783557Y-118353533D01*
X128867221Y-118197011D01*
X128867222Y-118197009D01*
X128896552Y-118161271D01*
X128979814Y-118059814D01*
X129081271Y-117976552D01*
X129117009Y-117947222D01*
X129134913Y-117937652D01*
X129273533Y-117863557D01*
X129330147Y-117846384D01*
X129443373Y-117812037D01*
X129509557Y-117805519D01*
X129575740Y-117799000D01*
X129664260Y-117799000D01*
X129730443Y-117805519D01*
X129730443Y-117805519D01*
G37*
G36*
X132270443Y-117805519D02*
X132336627Y-117812037D01*
X132449853Y-117846384D01*
X132506467Y-117863557D01*
X132645087Y-117937652D01*
X132662991Y-117947222D01*
X132698729Y-117976552D01*
X132800186Y-118059814D01*
X132883448Y-118161271D01*
X132912778Y-118197009D01*
X132912779Y-118197011D01*
X132996443Y-118353533D01*
X132996443Y-118353534D01*
X133047963Y-118523373D01*
X133065359Y-118700000D01*
X133047963Y-118876627D01*
X133037301Y-118911774D01*
X132996443Y-119046467D01*
X132964133Y-119106914D01*
X132912778Y-119202991D01*
X132883448Y-119238729D01*
X132800186Y-119340186D01*
X132698729Y-119423448D01*
X132662991Y-119452778D01*
X132662989Y-119452779D01*
X132506467Y-119536443D01*
X132449853Y-119553616D01*
X132336627Y-119587963D01*
X132270443Y-119594481D01*
X132204260Y-119601000D01*
X132115740Y-119601000D01*
X132049557Y-119594481D01*
X131983373Y-119587963D01*
X131870147Y-119553616D01*
X131813533Y-119536443D01*
X131657011Y-119452779D01*
X131657009Y-119452778D01*
X131621271Y-119423448D01*
X131519814Y-119340186D01*
X131436552Y-119238729D01*
X131407222Y-119202991D01*
X131355867Y-119106914D01*
X131323557Y-119046467D01*
X131282699Y-118911774D01*
X131272037Y-118876627D01*
X131254641Y-118700000D01*
X131272037Y-118523373D01*
X131323557Y-118353534D01*
X131323557Y-118353533D01*
X131407221Y-118197011D01*
X131407222Y-118197009D01*
X131436552Y-118161271D01*
X131519814Y-118059814D01*
X131621271Y-117976552D01*
X131657009Y-117947222D01*
X131674913Y-117937652D01*
X131813533Y-117863557D01*
X131870147Y-117846384D01*
X131983373Y-117812037D01*
X132049557Y-117805519D01*
X132115740Y-117799000D01*
X132204260Y-117799000D01*
X132270443Y-117805519D01*
X132270443Y-117805519D01*
G37*
G36*
X134810443Y-117805519D02*
X134876627Y-117812037D01*
X134989853Y-117846384D01*
X135046467Y-117863557D01*
X135185087Y-117937652D01*
X135202991Y-117947222D01*
X135238729Y-117976552D01*
X135340186Y-118059814D01*
X135423448Y-118161271D01*
X135452778Y-118197009D01*
X135452779Y-118197011D01*
X135536443Y-118353533D01*
X135536443Y-118353534D01*
X135587963Y-118523373D01*
X135605359Y-118700000D01*
X135587963Y-118876627D01*
X135577301Y-118911774D01*
X135536443Y-119046467D01*
X135504133Y-119106914D01*
X135452778Y-119202991D01*
X135423448Y-119238729D01*
X135340186Y-119340186D01*
X135238729Y-119423448D01*
X135202991Y-119452778D01*
X135202989Y-119452779D01*
X135046467Y-119536443D01*
X134989853Y-119553616D01*
X134876627Y-119587963D01*
X134810443Y-119594481D01*
X134744260Y-119601000D01*
X134655740Y-119601000D01*
X134589557Y-119594481D01*
X134523373Y-119587963D01*
X134410147Y-119553616D01*
X134353533Y-119536443D01*
X134197011Y-119452779D01*
X134197009Y-119452778D01*
X134161271Y-119423448D01*
X134059814Y-119340186D01*
X133976552Y-119238729D01*
X133947222Y-119202991D01*
X133895867Y-119106914D01*
X133863557Y-119046467D01*
X133822699Y-118911774D01*
X133812037Y-118876627D01*
X133794641Y-118700000D01*
X133812037Y-118523373D01*
X133863557Y-118353534D01*
X133863557Y-118353533D01*
X133947221Y-118197011D01*
X133947222Y-118197009D01*
X133976552Y-118161271D01*
X134059814Y-118059814D01*
X134161271Y-117976552D01*
X134197009Y-117947222D01*
X134214913Y-117937652D01*
X134353533Y-117863557D01*
X134410147Y-117846384D01*
X134523373Y-117812037D01*
X134589557Y-117805519D01*
X134655740Y-117799000D01*
X134744260Y-117799000D01*
X134810443Y-117805519D01*
X134810443Y-117805519D01*
G37*
G36*
X137350443Y-117805519D02*
X137416627Y-117812037D01*
X137529853Y-117846384D01*
X137586467Y-117863557D01*
X137725087Y-117937652D01*
X137742991Y-117947222D01*
X137778729Y-117976552D01*
X137880186Y-118059814D01*
X137963448Y-118161271D01*
X137992778Y-118197009D01*
X137992779Y-118197011D01*
X138076443Y-118353533D01*
X138076443Y-118353534D01*
X138127963Y-118523373D01*
X138145359Y-118700000D01*
X138127963Y-118876627D01*
X138117301Y-118911774D01*
X138076443Y-119046467D01*
X138044133Y-119106914D01*
X137992778Y-119202991D01*
X137963448Y-119238729D01*
X137880186Y-119340186D01*
X137778729Y-119423448D01*
X137742991Y-119452778D01*
X137742989Y-119452779D01*
X137586467Y-119536443D01*
X137529853Y-119553616D01*
X137416627Y-119587963D01*
X137350443Y-119594481D01*
X137284260Y-119601000D01*
X137195740Y-119601000D01*
X137129557Y-119594481D01*
X137063373Y-119587963D01*
X136950147Y-119553616D01*
X136893533Y-119536443D01*
X136737011Y-119452779D01*
X136737009Y-119452778D01*
X136701271Y-119423448D01*
X136599814Y-119340186D01*
X136516552Y-119238729D01*
X136487222Y-119202991D01*
X136435867Y-119106914D01*
X136403557Y-119046467D01*
X136362699Y-118911774D01*
X136352037Y-118876627D01*
X136334641Y-118700000D01*
X136352037Y-118523373D01*
X136403557Y-118353534D01*
X136403557Y-118353533D01*
X136487221Y-118197011D01*
X136487222Y-118197009D01*
X136516552Y-118161271D01*
X136599814Y-118059814D01*
X136701271Y-117976552D01*
X136737009Y-117947222D01*
X136754913Y-117937652D01*
X136893533Y-117863557D01*
X136950147Y-117846384D01*
X137063373Y-117812037D01*
X137129557Y-117805519D01*
X137195740Y-117799000D01*
X137284260Y-117799000D01*
X137350443Y-117805519D01*
X137350443Y-117805519D01*
G37*
G36*
X139890443Y-117805519D02*
X139956627Y-117812037D01*
X140069853Y-117846384D01*
X140126467Y-117863557D01*
X140265087Y-117937652D01*
X140282991Y-117947222D01*
X140318729Y-117976552D01*
X140420186Y-118059814D01*
X140503448Y-118161271D01*
X140532778Y-118197009D01*
X140532779Y-118197011D01*
X140616443Y-118353533D01*
X140616443Y-118353534D01*
X140667963Y-118523373D01*
X140685359Y-118700000D01*
X140667963Y-118876627D01*
X140657301Y-118911774D01*
X140616443Y-119046467D01*
X140584133Y-119106914D01*
X140532778Y-119202991D01*
X140503448Y-119238729D01*
X140420186Y-119340186D01*
X140318729Y-119423448D01*
X140282991Y-119452778D01*
X140282989Y-119452779D01*
X140126467Y-119536443D01*
X140069853Y-119553616D01*
X139956627Y-119587963D01*
X139890443Y-119594481D01*
X139824260Y-119601000D01*
X139735740Y-119601000D01*
X139669557Y-119594481D01*
X139603373Y-119587963D01*
X139490147Y-119553616D01*
X139433533Y-119536443D01*
X139277011Y-119452779D01*
X139277009Y-119452778D01*
X139241271Y-119423448D01*
X139139814Y-119340186D01*
X139056552Y-119238729D01*
X139027222Y-119202991D01*
X138975867Y-119106914D01*
X138943557Y-119046467D01*
X138902699Y-118911774D01*
X138892037Y-118876627D01*
X138874641Y-118700000D01*
X138892037Y-118523373D01*
X138943557Y-118353534D01*
X138943557Y-118353533D01*
X139027221Y-118197011D01*
X139027222Y-118197009D01*
X139056552Y-118161271D01*
X139139814Y-118059814D01*
X139241271Y-117976552D01*
X139277009Y-117947222D01*
X139294913Y-117937652D01*
X139433533Y-117863557D01*
X139490147Y-117846384D01*
X139603373Y-117812037D01*
X139669557Y-117805519D01*
X139735740Y-117799000D01*
X139824260Y-117799000D01*
X139890443Y-117805519D01*
X139890443Y-117805519D01*
G37*
G36*
X142430443Y-117805519D02*
X142496627Y-117812037D01*
X142609853Y-117846384D01*
X142666467Y-117863557D01*
X142805087Y-117937652D01*
X142822991Y-117947222D01*
X142858729Y-117976552D01*
X142960186Y-118059814D01*
X143043448Y-118161271D01*
X143072778Y-118197009D01*
X143072779Y-118197011D01*
X143156443Y-118353533D01*
X143156443Y-118353534D01*
X143207963Y-118523373D01*
X143225359Y-118700000D01*
X143207963Y-118876627D01*
X143197301Y-118911774D01*
X143156443Y-119046467D01*
X143124133Y-119106914D01*
X143072778Y-119202991D01*
X143043448Y-119238729D01*
X142960186Y-119340186D01*
X142858729Y-119423448D01*
X142822991Y-119452778D01*
X142822989Y-119452779D01*
X142666467Y-119536443D01*
X142609853Y-119553616D01*
X142496627Y-119587963D01*
X142430443Y-119594481D01*
X142364260Y-119601000D01*
X142275740Y-119601000D01*
X142209557Y-119594481D01*
X142143373Y-119587963D01*
X142030147Y-119553616D01*
X141973533Y-119536443D01*
X141817011Y-119452779D01*
X141817009Y-119452778D01*
X141781271Y-119423448D01*
X141679814Y-119340186D01*
X141596552Y-119238729D01*
X141567222Y-119202991D01*
X141515867Y-119106914D01*
X141483557Y-119046467D01*
X141442699Y-118911774D01*
X141432037Y-118876627D01*
X141414641Y-118700000D01*
X141432037Y-118523373D01*
X141483557Y-118353534D01*
X141483557Y-118353533D01*
X141567221Y-118197011D01*
X141567222Y-118197009D01*
X141596552Y-118161271D01*
X141679814Y-118059814D01*
X141781271Y-117976552D01*
X141817009Y-117947222D01*
X141834913Y-117937652D01*
X141973533Y-117863557D01*
X142030147Y-117846384D01*
X142143373Y-117812037D01*
X142209557Y-117805519D01*
X142275740Y-117799000D01*
X142364260Y-117799000D01*
X142430443Y-117805519D01*
X142430443Y-117805519D01*
G37*
G36*
X147510443Y-117805519D02*
X147576627Y-117812037D01*
X147689853Y-117846384D01*
X147746467Y-117863557D01*
X147885087Y-117937652D01*
X147902991Y-117947222D01*
X147938729Y-117976552D01*
X148040186Y-118059814D01*
X148123448Y-118161271D01*
X148152778Y-118197009D01*
X148152779Y-118197011D01*
X148236443Y-118353533D01*
X148236443Y-118353534D01*
X148287963Y-118523373D01*
X148305359Y-118700000D01*
X148287963Y-118876627D01*
X148277301Y-118911774D01*
X148236443Y-119046467D01*
X148204133Y-119106914D01*
X148152778Y-119202991D01*
X148123448Y-119238729D01*
X148040186Y-119340186D01*
X147938729Y-119423448D01*
X147902991Y-119452778D01*
X147902989Y-119452779D01*
X147746467Y-119536443D01*
X147689853Y-119553616D01*
X147576627Y-119587963D01*
X147510443Y-119594481D01*
X147444260Y-119601000D01*
X147355740Y-119601000D01*
X147289557Y-119594481D01*
X147223373Y-119587963D01*
X147110147Y-119553616D01*
X147053533Y-119536443D01*
X146897011Y-119452779D01*
X146897009Y-119452778D01*
X146861271Y-119423448D01*
X146759814Y-119340186D01*
X146676552Y-119238729D01*
X146647222Y-119202991D01*
X146595867Y-119106914D01*
X146563557Y-119046467D01*
X146522699Y-118911774D01*
X146512037Y-118876627D01*
X146494641Y-118700000D01*
X146512037Y-118523373D01*
X146563557Y-118353534D01*
X146563557Y-118353533D01*
X146647221Y-118197011D01*
X146647222Y-118197009D01*
X146676552Y-118161271D01*
X146759814Y-118059814D01*
X146861271Y-117976552D01*
X146897009Y-117947222D01*
X146914913Y-117937652D01*
X147053533Y-117863557D01*
X147110147Y-117846384D01*
X147223373Y-117812037D01*
X147289557Y-117805519D01*
X147355740Y-117799000D01*
X147444260Y-117799000D01*
X147510443Y-117805519D01*
X147510443Y-117805519D01*
G37*
G36*
X150050443Y-117805519D02*
X150116627Y-117812037D01*
X150229853Y-117846384D01*
X150286467Y-117863557D01*
X150425087Y-117937652D01*
X150442991Y-117947222D01*
X150478729Y-117976552D01*
X150580186Y-118059814D01*
X150663448Y-118161271D01*
X150692778Y-118197009D01*
X150692779Y-118197011D01*
X150776443Y-118353533D01*
X150776443Y-118353534D01*
X150827963Y-118523373D01*
X150845359Y-118700000D01*
X150827963Y-118876627D01*
X150817301Y-118911774D01*
X150776443Y-119046467D01*
X150744133Y-119106914D01*
X150692778Y-119202991D01*
X150663448Y-119238729D01*
X150580186Y-119340186D01*
X150478729Y-119423448D01*
X150442991Y-119452778D01*
X150442989Y-119452779D01*
X150286467Y-119536443D01*
X150229853Y-119553616D01*
X150116627Y-119587963D01*
X150050443Y-119594481D01*
X149984260Y-119601000D01*
X149895740Y-119601000D01*
X149829557Y-119594481D01*
X149763373Y-119587963D01*
X149650147Y-119553616D01*
X149593533Y-119536443D01*
X149437011Y-119452779D01*
X149437009Y-119452778D01*
X149401271Y-119423448D01*
X149299814Y-119340186D01*
X149216552Y-119238729D01*
X149187222Y-119202991D01*
X149135867Y-119106914D01*
X149103557Y-119046467D01*
X149062699Y-118911774D01*
X149052037Y-118876627D01*
X149034641Y-118700000D01*
X149052037Y-118523373D01*
X149103557Y-118353534D01*
X149103557Y-118353533D01*
X149187221Y-118197011D01*
X149187222Y-118197009D01*
X149216552Y-118161271D01*
X149299814Y-118059814D01*
X149401271Y-117976552D01*
X149437009Y-117947222D01*
X149454913Y-117937652D01*
X149593533Y-117863557D01*
X149650147Y-117846384D01*
X149763373Y-117812037D01*
X149829557Y-117805519D01*
X149895740Y-117799000D01*
X149984260Y-117799000D01*
X150050443Y-117805519D01*
X150050443Y-117805519D01*
G37*
G36*
X157670443Y-117805519D02*
X157736627Y-117812037D01*
X157849853Y-117846384D01*
X157906467Y-117863557D01*
X158045087Y-117937652D01*
X158062991Y-117947222D01*
X158098729Y-117976552D01*
X158200186Y-118059814D01*
X158283448Y-118161271D01*
X158312778Y-118197009D01*
X158312779Y-118197011D01*
X158396443Y-118353533D01*
X158396443Y-118353534D01*
X158447963Y-118523373D01*
X158465359Y-118700000D01*
X158447963Y-118876627D01*
X158437301Y-118911774D01*
X158396443Y-119046467D01*
X158364133Y-119106914D01*
X158312778Y-119202991D01*
X158283448Y-119238729D01*
X158200186Y-119340186D01*
X158098729Y-119423448D01*
X158062991Y-119452778D01*
X158062989Y-119452779D01*
X157906467Y-119536443D01*
X157849853Y-119553616D01*
X157736627Y-119587963D01*
X157670443Y-119594481D01*
X157604260Y-119601000D01*
X157515740Y-119601000D01*
X157449557Y-119594481D01*
X157383373Y-119587963D01*
X157270147Y-119553616D01*
X157213533Y-119536443D01*
X157057011Y-119452779D01*
X157057009Y-119452778D01*
X157021271Y-119423448D01*
X156919814Y-119340186D01*
X156836552Y-119238729D01*
X156807222Y-119202991D01*
X156755867Y-119106914D01*
X156723557Y-119046467D01*
X156682699Y-118911774D01*
X156672037Y-118876627D01*
X156654641Y-118700000D01*
X156672037Y-118523373D01*
X156723557Y-118353534D01*
X156723557Y-118353533D01*
X156807221Y-118197011D01*
X156807222Y-118197009D01*
X156836552Y-118161271D01*
X156919814Y-118059814D01*
X157021271Y-117976552D01*
X157057009Y-117947222D01*
X157074913Y-117937652D01*
X157213533Y-117863557D01*
X157270147Y-117846384D01*
X157383373Y-117812037D01*
X157449557Y-117805519D01*
X157515740Y-117799000D01*
X157604260Y-117799000D01*
X157670443Y-117805519D01*
X157670443Y-117805519D01*
G37*
G36*
X161001000Y-119601000D02*
X159199000Y-119601000D01*
X159199000Y-117799000D01*
X161001000Y-117799000D01*
X161001000Y-119601000D01*
X161001000Y-119601000D01*
G37*
G36*
X124650443Y-117805519D02*
X124716627Y-117812037D01*
X124829853Y-117846384D01*
X124886467Y-117863557D01*
X125025087Y-117937652D01*
X125042991Y-117947222D01*
X125078729Y-117976552D01*
X125180186Y-118059814D01*
X125263448Y-118161271D01*
X125292778Y-118197009D01*
X125292779Y-118197011D01*
X125376443Y-118353533D01*
X125376443Y-118353534D01*
X125427963Y-118523373D01*
X125445359Y-118700000D01*
X125427963Y-118876627D01*
X125417301Y-118911774D01*
X125376443Y-119046467D01*
X125344133Y-119106914D01*
X125292778Y-119202991D01*
X125263448Y-119238729D01*
X125180186Y-119340186D01*
X125078729Y-119423448D01*
X125042991Y-119452778D01*
X125042989Y-119452779D01*
X124886467Y-119536443D01*
X124829853Y-119553616D01*
X124716627Y-119587963D01*
X124650443Y-119594481D01*
X124584260Y-119601000D01*
X124495740Y-119601000D01*
X124429557Y-119594481D01*
X124363373Y-119587963D01*
X124250147Y-119553616D01*
X124193533Y-119536443D01*
X124037011Y-119452779D01*
X124037009Y-119452778D01*
X124001271Y-119423448D01*
X123899814Y-119340186D01*
X123816552Y-119238729D01*
X123787222Y-119202991D01*
X123735867Y-119106914D01*
X123703557Y-119046467D01*
X123662699Y-118911774D01*
X123652037Y-118876627D01*
X123634641Y-118700000D01*
X123652037Y-118523373D01*
X123703557Y-118353534D01*
X123703557Y-118353533D01*
X123787221Y-118197011D01*
X123787222Y-118197009D01*
X123816552Y-118161271D01*
X123899814Y-118059814D01*
X124001271Y-117976552D01*
X124037009Y-117947222D01*
X124054913Y-117937652D01*
X124193533Y-117863557D01*
X124250147Y-117846384D01*
X124363373Y-117812037D01*
X124429557Y-117805519D01*
X124495740Y-117799000D01*
X124584260Y-117799000D01*
X124650443Y-117805519D01*
X124650443Y-117805519D01*
G37*
G36*
X122110443Y-117805519D02*
X122176627Y-117812037D01*
X122289853Y-117846384D01*
X122346467Y-117863557D01*
X122485087Y-117937652D01*
X122502991Y-117947222D01*
X122538729Y-117976552D01*
X122640186Y-118059814D01*
X122723448Y-118161271D01*
X122752778Y-118197009D01*
X122752779Y-118197011D01*
X122836443Y-118353533D01*
X122836443Y-118353534D01*
X122887963Y-118523373D01*
X122905359Y-118700000D01*
X122887963Y-118876627D01*
X122877301Y-118911774D01*
X122836443Y-119046467D01*
X122804133Y-119106914D01*
X122752778Y-119202991D01*
X122723448Y-119238729D01*
X122640186Y-119340186D01*
X122538729Y-119423448D01*
X122502991Y-119452778D01*
X122502989Y-119452779D01*
X122346467Y-119536443D01*
X122289853Y-119553616D01*
X122176627Y-119587963D01*
X122110443Y-119594481D01*
X122044260Y-119601000D01*
X121955740Y-119601000D01*
X121889557Y-119594481D01*
X121823373Y-119587963D01*
X121710147Y-119553616D01*
X121653533Y-119536443D01*
X121497011Y-119452779D01*
X121497009Y-119452778D01*
X121461271Y-119423448D01*
X121359814Y-119340186D01*
X121276552Y-119238729D01*
X121247222Y-119202991D01*
X121195867Y-119106914D01*
X121163557Y-119046467D01*
X121122699Y-118911774D01*
X121112037Y-118876627D01*
X121094641Y-118700000D01*
X121112037Y-118523373D01*
X121163557Y-118353534D01*
X121163557Y-118353533D01*
X121247221Y-118197011D01*
X121247222Y-118197009D01*
X121276552Y-118161271D01*
X121359814Y-118059814D01*
X121461271Y-117976552D01*
X121497009Y-117947222D01*
X121514913Y-117937652D01*
X121653533Y-117863557D01*
X121710147Y-117846384D01*
X121823373Y-117812037D01*
X121889557Y-117805519D01*
X121955740Y-117799000D01*
X122044260Y-117799000D01*
X122110443Y-117805519D01*
X122110443Y-117805519D01*
G37*
G36*
X119570443Y-117805519D02*
X119636627Y-117812037D01*
X119749853Y-117846384D01*
X119806467Y-117863557D01*
X119945087Y-117937652D01*
X119962991Y-117947222D01*
X119998729Y-117976552D01*
X120100186Y-118059814D01*
X120183448Y-118161271D01*
X120212778Y-118197009D01*
X120212779Y-118197011D01*
X120296443Y-118353533D01*
X120296443Y-118353534D01*
X120347963Y-118523373D01*
X120365359Y-118700000D01*
X120347963Y-118876627D01*
X120337301Y-118911774D01*
X120296443Y-119046467D01*
X120264133Y-119106914D01*
X120212778Y-119202991D01*
X120183448Y-119238729D01*
X120100186Y-119340186D01*
X119998729Y-119423448D01*
X119962991Y-119452778D01*
X119962989Y-119452779D01*
X119806467Y-119536443D01*
X119749853Y-119553616D01*
X119636627Y-119587963D01*
X119570443Y-119594481D01*
X119504260Y-119601000D01*
X119415740Y-119601000D01*
X119349557Y-119594481D01*
X119283373Y-119587963D01*
X119170147Y-119553616D01*
X119113533Y-119536443D01*
X118957011Y-119452779D01*
X118957009Y-119452778D01*
X118921271Y-119423448D01*
X118819814Y-119340186D01*
X118736552Y-119238729D01*
X118707222Y-119202991D01*
X118655867Y-119106914D01*
X118623557Y-119046467D01*
X118582699Y-118911774D01*
X118572037Y-118876627D01*
X118554641Y-118700000D01*
X118572037Y-118523373D01*
X118623557Y-118353534D01*
X118623557Y-118353533D01*
X118707221Y-118197011D01*
X118707222Y-118197009D01*
X118736552Y-118161271D01*
X118819814Y-118059814D01*
X118921271Y-117976552D01*
X118957009Y-117947222D01*
X118974913Y-117937652D01*
X119113533Y-117863557D01*
X119170147Y-117846384D01*
X119283373Y-117812037D01*
X119349557Y-117805519D01*
X119415740Y-117799000D01*
X119504260Y-117799000D01*
X119570443Y-117805519D01*
X119570443Y-117805519D01*
G37*
G36*
X117030443Y-117805519D02*
X117096627Y-117812037D01*
X117209853Y-117846384D01*
X117266467Y-117863557D01*
X117405087Y-117937652D01*
X117422991Y-117947222D01*
X117458729Y-117976552D01*
X117560186Y-118059814D01*
X117643448Y-118161271D01*
X117672778Y-118197009D01*
X117672779Y-118197011D01*
X117756443Y-118353533D01*
X117756443Y-118353534D01*
X117807963Y-118523373D01*
X117825359Y-118700000D01*
X117807963Y-118876627D01*
X117797301Y-118911774D01*
X117756443Y-119046467D01*
X117724133Y-119106914D01*
X117672778Y-119202991D01*
X117643448Y-119238729D01*
X117560186Y-119340186D01*
X117458729Y-119423448D01*
X117422991Y-119452778D01*
X117422989Y-119452779D01*
X117266467Y-119536443D01*
X117209853Y-119553616D01*
X117096627Y-119587963D01*
X117030443Y-119594481D01*
X116964260Y-119601000D01*
X116875740Y-119601000D01*
X116809557Y-119594481D01*
X116743373Y-119587963D01*
X116630147Y-119553616D01*
X116573533Y-119536443D01*
X116417011Y-119452779D01*
X116417009Y-119452778D01*
X116381271Y-119423448D01*
X116279814Y-119340186D01*
X116196552Y-119238729D01*
X116167222Y-119202991D01*
X116115867Y-119106914D01*
X116083557Y-119046467D01*
X116042699Y-118911774D01*
X116032037Y-118876627D01*
X116014641Y-118700000D01*
X116032037Y-118523373D01*
X116083557Y-118353534D01*
X116083557Y-118353533D01*
X116167221Y-118197011D01*
X116167222Y-118197009D01*
X116196552Y-118161271D01*
X116279814Y-118059814D01*
X116381271Y-117976552D01*
X116417009Y-117947222D01*
X116434913Y-117937652D01*
X116573533Y-117863557D01*
X116630147Y-117846384D01*
X116743373Y-117812037D01*
X116809557Y-117805519D01*
X116875740Y-117799000D01*
X116964260Y-117799000D01*
X117030443Y-117805519D01*
X117030443Y-117805519D01*
G37*
G36*
X111950443Y-117805519D02*
X112016627Y-117812037D01*
X112129853Y-117846384D01*
X112186467Y-117863557D01*
X112325087Y-117937652D01*
X112342991Y-117947222D01*
X112378729Y-117976552D01*
X112480186Y-118059814D01*
X112563448Y-118161271D01*
X112592778Y-118197009D01*
X112592779Y-118197011D01*
X112676443Y-118353533D01*
X112676443Y-118353534D01*
X112727963Y-118523373D01*
X112745359Y-118700000D01*
X112727963Y-118876627D01*
X112717301Y-118911774D01*
X112676443Y-119046467D01*
X112644133Y-119106914D01*
X112592778Y-119202991D01*
X112563448Y-119238729D01*
X112480186Y-119340186D01*
X112378729Y-119423448D01*
X112342991Y-119452778D01*
X112342989Y-119452779D01*
X112186467Y-119536443D01*
X112129853Y-119553616D01*
X112016627Y-119587963D01*
X111950443Y-119594481D01*
X111884260Y-119601000D01*
X111795740Y-119601000D01*
X111729557Y-119594481D01*
X111663373Y-119587963D01*
X111550147Y-119553616D01*
X111493533Y-119536443D01*
X111337011Y-119452779D01*
X111337009Y-119452778D01*
X111301271Y-119423448D01*
X111199814Y-119340186D01*
X111116552Y-119238729D01*
X111087222Y-119202991D01*
X111035867Y-119106914D01*
X111003557Y-119046467D01*
X110962699Y-118911774D01*
X110952037Y-118876627D01*
X110934641Y-118700000D01*
X110952037Y-118523373D01*
X111003557Y-118353534D01*
X111003557Y-118353533D01*
X111087221Y-118197011D01*
X111087222Y-118197009D01*
X111116552Y-118161271D01*
X111199814Y-118059814D01*
X111301271Y-117976552D01*
X111337009Y-117947222D01*
X111354913Y-117937652D01*
X111493533Y-117863557D01*
X111550147Y-117846384D01*
X111663373Y-117812037D01*
X111729557Y-117805519D01*
X111795740Y-117799000D01*
X111884260Y-117799000D01*
X111950443Y-117805519D01*
X111950443Y-117805519D01*
G37*
G36*
X152590443Y-117805519D02*
X152656627Y-117812037D01*
X152769853Y-117846384D01*
X152826467Y-117863557D01*
X152965087Y-117937652D01*
X152982991Y-117947222D01*
X153018729Y-117976552D01*
X153120186Y-118059814D01*
X153203448Y-118161271D01*
X153232778Y-118197009D01*
X153232779Y-118197011D01*
X153316443Y-118353533D01*
X153316443Y-118353534D01*
X153367963Y-118523373D01*
X153385359Y-118700000D01*
X153367963Y-118876627D01*
X153357301Y-118911774D01*
X153316443Y-119046467D01*
X153284133Y-119106914D01*
X153232778Y-119202991D01*
X153203448Y-119238729D01*
X153120186Y-119340186D01*
X153018729Y-119423448D01*
X152982991Y-119452778D01*
X152982989Y-119452779D01*
X152826467Y-119536443D01*
X152769853Y-119553616D01*
X152656627Y-119587963D01*
X152590443Y-119594481D01*
X152524260Y-119601000D01*
X152435740Y-119601000D01*
X152369557Y-119594481D01*
X152303373Y-119587963D01*
X152190147Y-119553616D01*
X152133533Y-119536443D01*
X151977011Y-119452779D01*
X151977009Y-119452778D01*
X151941271Y-119423448D01*
X151839814Y-119340186D01*
X151756552Y-119238729D01*
X151727222Y-119202991D01*
X151675867Y-119106914D01*
X151643557Y-119046467D01*
X151602699Y-118911774D01*
X151592037Y-118876627D01*
X151574641Y-118700000D01*
X151592037Y-118523373D01*
X151643557Y-118353534D01*
X151643557Y-118353533D01*
X151727221Y-118197011D01*
X151727222Y-118197009D01*
X151756552Y-118161271D01*
X151839814Y-118059814D01*
X151941271Y-117976552D01*
X151977009Y-117947222D01*
X151994913Y-117937652D01*
X152133533Y-117863557D01*
X152190147Y-117846384D01*
X152303373Y-117812037D01*
X152369557Y-117805519D01*
X152435740Y-117799000D01*
X152524260Y-117799000D01*
X152590443Y-117805519D01*
X152590443Y-117805519D01*
G37*
G36*
X114490443Y-117805519D02*
X114556627Y-117812037D01*
X114669853Y-117846384D01*
X114726467Y-117863557D01*
X114865087Y-117937652D01*
X114882991Y-117947222D01*
X114918729Y-117976552D01*
X115020186Y-118059814D01*
X115103448Y-118161271D01*
X115132778Y-118197009D01*
X115132779Y-118197011D01*
X115216443Y-118353533D01*
X115216443Y-118353534D01*
X115267963Y-118523373D01*
X115285359Y-118700000D01*
X115267963Y-118876627D01*
X115257301Y-118911774D01*
X115216443Y-119046467D01*
X115184133Y-119106914D01*
X115132778Y-119202991D01*
X115103448Y-119238729D01*
X115020186Y-119340186D01*
X114918729Y-119423448D01*
X114882991Y-119452778D01*
X114882989Y-119452779D01*
X114726467Y-119536443D01*
X114669853Y-119553616D01*
X114556627Y-119587963D01*
X114490443Y-119594481D01*
X114424260Y-119601000D01*
X114335740Y-119601000D01*
X114269557Y-119594481D01*
X114203373Y-119587963D01*
X114090147Y-119553616D01*
X114033533Y-119536443D01*
X113877011Y-119452779D01*
X113877009Y-119452778D01*
X113841271Y-119423448D01*
X113739814Y-119340186D01*
X113656552Y-119238729D01*
X113627222Y-119202991D01*
X113575867Y-119106914D01*
X113543557Y-119046467D01*
X113502699Y-118911774D01*
X113492037Y-118876627D01*
X113474641Y-118700000D01*
X113492037Y-118523373D01*
X113543557Y-118353534D01*
X113543557Y-118353533D01*
X113627221Y-118197011D01*
X113627222Y-118197009D01*
X113656552Y-118161271D01*
X113739814Y-118059814D01*
X113841271Y-117976552D01*
X113877009Y-117947222D01*
X113894913Y-117937652D01*
X114033533Y-117863557D01*
X114090147Y-117846384D01*
X114203373Y-117812037D01*
X114269557Y-117805519D01*
X114335740Y-117799000D01*
X114424260Y-117799000D01*
X114490443Y-117805519D01*
X114490443Y-117805519D01*
G37*
G36*
X155130443Y-117805519D02*
X155196627Y-117812037D01*
X155309853Y-117846384D01*
X155366467Y-117863557D01*
X155505087Y-117937652D01*
X155522991Y-117947222D01*
X155558729Y-117976552D01*
X155660186Y-118059814D01*
X155743448Y-118161271D01*
X155772778Y-118197009D01*
X155772779Y-118197011D01*
X155856443Y-118353533D01*
X155856443Y-118353534D01*
X155907963Y-118523373D01*
X155925359Y-118700000D01*
X155907963Y-118876627D01*
X155897301Y-118911774D01*
X155856443Y-119046467D01*
X155824133Y-119106914D01*
X155772778Y-119202991D01*
X155743448Y-119238729D01*
X155660186Y-119340186D01*
X155558729Y-119423448D01*
X155522991Y-119452778D01*
X155522989Y-119452779D01*
X155366467Y-119536443D01*
X155309853Y-119553616D01*
X155196627Y-119587963D01*
X155130443Y-119594481D01*
X155064260Y-119601000D01*
X154975740Y-119601000D01*
X154909557Y-119594481D01*
X154843373Y-119587963D01*
X154730147Y-119553616D01*
X154673533Y-119536443D01*
X154517011Y-119452779D01*
X154517009Y-119452778D01*
X154481271Y-119423448D01*
X154379814Y-119340186D01*
X154296552Y-119238729D01*
X154267222Y-119202991D01*
X154215867Y-119106914D01*
X154183557Y-119046467D01*
X154142699Y-118911774D01*
X154132037Y-118876627D01*
X154114641Y-118700000D01*
X154132037Y-118523373D01*
X154183557Y-118353534D01*
X154183557Y-118353533D01*
X154267221Y-118197011D01*
X154267222Y-118197009D01*
X154296552Y-118161271D01*
X154379814Y-118059814D01*
X154481271Y-117976552D01*
X154517009Y-117947222D01*
X154534913Y-117937652D01*
X154673533Y-117863557D01*
X154730147Y-117846384D01*
X154843373Y-117812037D01*
X154909557Y-117805519D01*
X154975740Y-117799000D01*
X155064260Y-117799000D01*
X155130443Y-117805519D01*
X155130443Y-117805519D01*
G37*
G36*
X184579986Y-103832788D02*
X184579988Y-103832789D01*
X184579989Y-103832789D01*
X184844054Y-103942168D01*
X185078502Y-104098822D01*
X185081710Y-104100965D01*
X185283811Y-104303066D01*
X185283813Y-104303069D01*
X185442608Y-104540722D01*
X185544607Y-104786970D01*
X185551988Y-104804790D01*
X185607748Y-105085116D01*
X185607748Y-105370940D01*
X185555533Y-105633446D01*
X185551987Y-105651269D01*
X185442608Y-105915334D01*
X185442607Y-105915335D01*
X185283811Y-106152990D01*
X185081710Y-106355091D01*
X185081707Y-106355093D01*
X184844054Y-106513888D01*
X184579989Y-106623267D01*
X184579988Y-106623267D01*
X184579986Y-106623268D01*
X184299660Y-106679028D01*
X184013836Y-106679028D01*
X183733510Y-106623268D01*
X183733508Y-106623267D01*
X183733507Y-106623267D01*
X183469442Y-106513888D01*
X183231789Y-106355093D01*
X183231786Y-106355091D01*
X183029685Y-106152990D01*
X182870889Y-105915335D01*
X182870888Y-105915334D01*
X182761509Y-105651269D01*
X182757964Y-105633446D01*
X182705748Y-105370940D01*
X182705748Y-105085116D01*
X182761508Y-104804790D01*
X182768889Y-104786970D01*
X182870888Y-104540722D01*
X183029683Y-104303069D01*
X183029685Y-104303066D01*
X183231786Y-104100965D01*
X183234994Y-104098822D01*
X183469442Y-103942168D01*
X183733507Y-103832789D01*
X183733508Y-103832789D01*
X183733510Y-103832788D01*
X184013836Y-103777028D01*
X184299660Y-103777028D01*
X184579986Y-103832788D01*
X184579986Y-103832788D01*
G37*
G36*
X106597806Y-103814968D02*
X106597808Y-103814969D01*
X106597809Y-103814969D01*
X106861874Y-103924348D01*
X106861875Y-103924349D01*
X107099530Y-104083145D01*
X107301631Y-104285246D01*
X107301633Y-104285249D01*
X107460428Y-104522902D01*
X107562164Y-104768516D01*
X107569808Y-104786970D01*
X107625568Y-105067296D01*
X107625568Y-105353120D01*
X107622024Y-105370939D01*
X107569807Y-105633449D01*
X107460428Y-105897514D01*
X107460427Y-105897515D01*
X107301631Y-106135170D01*
X107099530Y-106337271D01*
X107099527Y-106337273D01*
X106861874Y-106496068D01*
X106597809Y-106605447D01*
X106597808Y-106605447D01*
X106597806Y-106605448D01*
X106317480Y-106661208D01*
X106031656Y-106661208D01*
X105751330Y-106605448D01*
X105751328Y-106605447D01*
X105751327Y-106605447D01*
X105487262Y-106496068D01*
X105249609Y-106337273D01*
X105249606Y-106337271D01*
X105047505Y-106135170D01*
X104888709Y-105897515D01*
X104888708Y-105897514D01*
X104779329Y-105633449D01*
X104727113Y-105370939D01*
X104723568Y-105353120D01*
X104723568Y-105067296D01*
X104779328Y-104786970D01*
X104786972Y-104768516D01*
X104888708Y-104522902D01*
X105047503Y-104285249D01*
X105047505Y-104285246D01*
X105249606Y-104083145D01*
X105487261Y-103924349D01*
X105487262Y-103924348D01*
X105751327Y-103814969D01*
X105751328Y-103814969D01*
X105751330Y-103814968D01*
X106031656Y-103759208D01*
X106317480Y-103759208D01*
X106597806Y-103814968D01*
X106597806Y-103814968D01*
G37*
G36*
X143456259Y-103071915D02*
X143456261Y-103071916D01*
X143456262Y-103071916D01*
X143633882Y-103145488D01*
X143633883Y-103145489D01*
X143793739Y-103252302D01*
X143929679Y-103388242D01*
X143929681Y-103388245D01*
X144036493Y-103548099D01*
X144110065Y-103725719D01*
X144110066Y-103725722D01*
X144131363Y-103832788D01*
X144147573Y-103914280D01*
X144147573Y-104106536D01*
X144110065Y-104295097D01*
X144036493Y-104472717D01*
X144036492Y-104472718D01*
X143929679Y-104632574D01*
X143793739Y-104768514D01*
X143793736Y-104768516D01*
X143633882Y-104875328D01*
X143456262Y-104948900D01*
X143456261Y-104948900D01*
X143456259Y-104948901D01*
X143267702Y-104986408D01*
X143075444Y-104986408D01*
X142886887Y-104948901D01*
X142886885Y-104948900D01*
X142886884Y-104948900D01*
X142709264Y-104875328D01*
X142549410Y-104768516D01*
X142549407Y-104768514D01*
X142413467Y-104632574D01*
X142306654Y-104472718D01*
X142306653Y-104472717D01*
X142233081Y-104295097D01*
X142195573Y-104106536D01*
X142195573Y-103914280D01*
X142211783Y-103832788D01*
X142233080Y-103725722D01*
X142233081Y-103725719D01*
X142306653Y-103548099D01*
X142413465Y-103388245D01*
X142413467Y-103388242D01*
X142549407Y-103252302D01*
X142709263Y-103145489D01*
X142709264Y-103145488D01*
X142886884Y-103071916D01*
X142886885Y-103071916D01*
X142886887Y-103071915D01*
X143075444Y-103034408D01*
X143267702Y-103034408D01*
X143456259Y-103071915D01*
X143456259Y-103071915D01*
G37*
G36*
X123456259Y-103071915D02*
X123456261Y-103071916D01*
X123456262Y-103071916D01*
X123633882Y-103145488D01*
X123633883Y-103145489D01*
X123793739Y-103252302D01*
X123929679Y-103388242D01*
X123929681Y-103388245D01*
X124036493Y-103548099D01*
X124110065Y-103725719D01*
X124110066Y-103725722D01*
X124131363Y-103832788D01*
X124147573Y-103914280D01*
X124147573Y-104106536D01*
X124110065Y-104295097D01*
X124036493Y-104472717D01*
X124036492Y-104472718D01*
X123929679Y-104632574D01*
X123793739Y-104768514D01*
X123793736Y-104768516D01*
X123633882Y-104875328D01*
X123456262Y-104948900D01*
X123456261Y-104948900D01*
X123456259Y-104948901D01*
X123267702Y-104986408D01*
X123075444Y-104986408D01*
X122886887Y-104948901D01*
X122886885Y-104948900D01*
X122886884Y-104948900D01*
X122709264Y-104875328D01*
X122549410Y-104768516D01*
X122549407Y-104768514D01*
X122413467Y-104632574D01*
X122306654Y-104472718D01*
X122306653Y-104472717D01*
X122233081Y-104295097D01*
X122195573Y-104106536D01*
X122195573Y-103914280D01*
X122211783Y-103832788D01*
X122233080Y-103725722D01*
X122233081Y-103725719D01*
X122306653Y-103548099D01*
X122413465Y-103388245D01*
X122413467Y-103388242D01*
X122549407Y-103252302D01*
X122709263Y-103145489D01*
X122709264Y-103145488D01*
X122886884Y-103071916D01*
X122886885Y-103071916D01*
X122886887Y-103071915D01*
X123075444Y-103034408D01*
X123267702Y-103034408D01*
X123456259Y-103071915D01*
X123456259Y-103071915D01*
G37*
G36*
X149459377Y-100267527D02*
X149632447Y-100339215D01*
X149788211Y-100443293D01*
X149920669Y-100575751D01*
X150024747Y-100731515D01*
X150096435Y-100904585D01*
X150132981Y-101088314D01*
X150132981Y-101275648D01*
X150096435Y-101459377D01*
X150024747Y-101632447D01*
X149920669Y-101788211D01*
X149788211Y-101920669D01*
X149632447Y-102024747D01*
X149459377Y-102096435D01*
X149275648Y-102132981D01*
X149088314Y-102132981D01*
X148904585Y-102096435D01*
X148731515Y-102024747D01*
X148575751Y-101920669D01*
X148443293Y-101788211D01*
X148339215Y-101632447D01*
X148267527Y-101459377D01*
X148230981Y-101275648D01*
X148230981Y-101088314D01*
X148267527Y-100904585D01*
X148339215Y-100731515D01*
X148443293Y-100575751D01*
X148575751Y-100443293D01*
X148731515Y-100339215D01*
X148904585Y-100267527D01*
X149088314Y-100230981D01*
X149275648Y-100230981D01*
X149459377Y-100267527D01*
X149459377Y-100267527D01*
G37*
G36*
X129459377Y-100267527D02*
X129632447Y-100339215D01*
X129788211Y-100443293D01*
X129920669Y-100575751D01*
X130024747Y-100731515D01*
X130096435Y-100904585D01*
X130132981Y-101088314D01*
X130132981Y-101275648D01*
X130096435Y-101459377D01*
X130024747Y-101632447D01*
X129920669Y-101788211D01*
X129788211Y-101920669D01*
X129632447Y-102024747D01*
X129459377Y-102096435D01*
X129275648Y-102132981D01*
X129088314Y-102132981D01*
X128904585Y-102096435D01*
X128731515Y-102024747D01*
X128575751Y-101920669D01*
X128443293Y-101788211D01*
X128339215Y-101632447D01*
X128267527Y-101459377D01*
X128230981Y-101275648D01*
X128230981Y-101088314D01*
X128267527Y-100904585D01*
X128339215Y-100731515D01*
X128443293Y-100575751D01*
X128575751Y-100443293D01*
X128731515Y-100339215D01*
X128904585Y-100267527D01*
X129088314Y-100230981D01*
X129275648Y-100230981D01*
X129459377Y-100267527D01*
X129459377Y-100267527D01*
G37*
G36*
X140274278Y-99889934D02*
X140274280Y-99889935D01*
X140274281Y-99889935D01*
X140451901Y-99963507D01*
X140451902Y-99963508D01*
X140611758Y-100070321D01*
X140747698Y-100206261D01*
X140747700Y-100206264D01*
X140854512Y-100366118D01*
X140928084Y-100543738D01*
X140928085Y-100543741D01*
X140965592Y-100732298D01*
X140965592Y-100924556D01*
X140933018Y-101088316D01*
X140928084Y-101113116D01*
X140854512Y-101290736D01*
X140854511Y-101290737D01*
X140747698Y-101450593D01*
X140611758Y-101586533D01*
X140611755Y-101586535D01*
X140451901Y-101693347D01*
X140274281Y-101766919D01*
X140274280Y-101766919D01*
X140274278Y-101766920D01*
X140085721Y-101804427D01*
X139893463Y-101804427D01*
X139704906Y-101766920D01*
X139704904Y-101766919D01*
X139704903Y-101766919D01*
X139527283Y-101693347D01*
X139367429Y-101586535D01*
X139367426Y-101586533D01*
X139231486Y-101450593D01*
X139124673Y-101290737D01*
X139124672Y-101290736D01*
X139051100Y-101113116D01*
X139046167Y-101088316D01*
X139013592Y-100924556D01*
X139013592Y-100732298D01*
X139051099Y-100543741D01*
X139051100Y-100543738D01*
X139124672Y-100366118D01*
X139231484Y-100206264D01*
X139231486Y-100206261D01*
X139367426Y-100070321D01*
X139527282Y-99963508D01*
X139527283Y-99963507D01*
X139704903Y-99889935D01*
X139704904Y-99889935D01*
X139704906Y-99889934D01*
X139893463Y-99852427D01*
X140085721Y-99852427D01*
X140274278Y-99889934D01*
X140274278Y-99889934D01*
G37*
G36*
X120274278Y-99889934D02*
X120274280Y-99889935D01*
X120274281Y-99889935D01*
X120451901Y-99963507D01*
X120451902Y-99963508D01*
X120611758Y-100070321D01*
X120747698Y-100206261D01*
X120747700Y-100206264D01*
X120854512Y-100366118D01*
X120928084Y-100543738D01*
X120928085Y-100543741D01*
X120965592Y-100732298D01*
X120965592Y-100924556D01*
X120933018Y-101088316D01*
X120928084Y-101113116D01*
X120854512Y-101290736D01*
X120854511Y-101290737D01*
X120747698Y-101450593D01*
X120611758Y-101586533D01*
X120611755Y-101586535D01*
X120451901Y-101693347D01*
X120274281Y-101766919D01*
X120274280Y-101766919D01*
X120274278Y-101766920D01*
X120085721Y-101804427D01*
X119893463Y-101804427D01*
X119704906Y-101766920D01*
X119704904Y-101766919D01*
X119704903Y-101766919D01*
X119527283Y-101693347D01*
X119367429Y-101586535D01*
X119367426Y-101586533D01*
X119231486Y-101450593D01*
X119124673Y-101290737D01*
X119124672Y-101290736D01*
X119051100Y-101113116D01*
X119046167Y-101088316D01*
X119013592Y-100924556D01*
X119013592Y-100732298D01*
X119051099Y-100543741D01*
X119051100Y-100543738D01*
X119124672Y-100366118D01*
X119231484Y-100206264D01*
X119231486Y-100206261D01*
X119367426Y-100070321D01*
X119527282Y-99963508D01*
X119527283Y-99963507D01*
X119704903Y-99889935D01*
X119704904Y-99889935D01*
X119704906Y-99889934D01*
X119893463Y-99852427D01*
X120085721Y-99852427D01*
X120274278Y-99889934D01*
X120274278Y-99889934D01*
G37*
G36*
X175270925Y-95025029D02*
X175462194Y-95104255D01*
X175634336Y-95219277D01*
X175780723Y-95365664D01*
X175895745Y-95537806D01*
X175974971Y-95729075D01*
X176015360Y-95932124D01*
X176015360Y-96139156D01*
X175974971Y-96342205D01*
X175895745Y-96533474D01*
X175780723Y-96705616D01*
X175634336Y-96852003D01*
X175462194Y-96967025D01*
X175270925Y-97046251D01*
X175067876Y-97086640D01*
X174860844Y-97086640D01*
X174657795Y-97046251D01*
X174466526Y-96967025D01*
X174294384Y-96852003D01*
X174147997Y-96705616D01*
X174032975Y-96533474D01*
X173953749Y-96342205D01*
X173913360Y-96139156D01*
X173913360Y-95932124D01*
X173953749Y-95729075D01*
X174032975Y-95537806D01*
X174147997Y-95365664D01*
X174294384Y-95219277D01*
X174466526Y-95104255D01*
X174657795Y-95025029D01*
X174860844Y-94984640D01*
X175067876Y-94984640D01*
X175270925Y-95025029D01*
X175270925Y-95025029D01*
G37*
G36*
X97288745Y-95007209D02*
X97480014Y-95086435D01*
X97652156Y-95201457D01*
X97798543Y-95347844D01*
X97913565Y-95519986D01*
X97992791Y-95711255D01*
X98033180Y-95914304D01*
X98033180Y-96121336D01*
X97992791Y-96324385D01*
X97913565Y-96515654D01*
X97798543Y-96687796D01*
X97652156Y-96834183D01*
X97480014Y-96949205D01*
X97288745Y-97028431D01*
X97085696Y-97068820D01*
X96878664Y-97068820D01*
X96675615Y-97028431D01*
X96484346Y-96949205D01*
X96312204Y-96834183D01*
X96165817Y-96687796D01*
X96050795Y-96515654D01*
X95971569Y-96324385D01*
X95931180Y-96121336D01*
X95931180Y-95914304D01*
X95971569Y-95711255D01*
X96050795Y-95519986D01*
X96165817Y-95347844D01*
X96312204Y-95201457D01*
X96484346Y-95086435D01*
X96675615Y-95007209D01*
X96878664Y-94966820D01*
X97085696Y-94966820D01*
X97288745Y-95007209D01*
X97288745Y-95007209D01*
G37*
G36*
X132295094Y-94233080D02*
X132295096Y-94233081D01*
X132295097Y-94233081D01*
X132472717Y-94306653D01*
X132472718Y-94306654D01*
X132632574Y-94413467D01*
X132768514Y-94549407D01*
X132768516Y-94549410D01*
X132875328Y-94709264D01*
X132881578Y-94724354D01*
X132948901Y-94886887D01*
X132986408Y-95075444D01*
X132986408Y-95267702D01*
X132966922Y-95365664D01*
X132948900Y-95456262D01*
X132875328Y-95633882D01*
X132769960Y-95791575D01*
X132768514Y-95793739D01*
X132632574Y-95929679D01*
X132632571Y-95929681D01*
X132472717Y-96036493D01*
X132295097Y-96110065D01*
X132295096Y-96110065D01*
X132295094Y-96110066D01*
X132106537Y-96147573D01*
X131914279Y-96147573D01*
X131725722Y-96110066D01*
X131725720Y-96110065D01*
X131725719Y-96110065D01*
X131548099Y-96036493D01*
X131388245Y-95929681D01*
X131388242Y-95929679D01*
X131252302Y-95793739D01*
X131250856Y-95791575D01*
X131145488Y-95633882D01*
X131071916Y-95456262D01*
X131053895Y-95365664D01*
X131034408Y-95267702D01*
X131034408Y-95075444D01*
X131071915Y-94886887D01*
X131139238Y-94724354D01*
X131145488Y-94709264D01*
X131252300Y-94549410D01*
X131252302Y-94549407D01*
X131388242Y-94413467D01*
X131548098Y-94306654D01*
X131548099Y-94306653D01*
X131725719Y-94233081D01*
X131725720Y-94233081D01*
X131725722Y-94233080D01*
X131914279Y-94195573D01*
X132106537Y-94195573D01*
X132295094Y-94233080D01*
X132295094Y-94233080D01*
G37*
G36*
X152295094Y-94233080D02*
X152295096Y-94233081D01*
X152295097Y-94233081D01*
X152472717Y-94306653D01*
X152472718Y-94306654D01*
X152632574Y-94413467D01*
X152768514Y-94549407D01*
X152768516Y-94549410D01*
X152875328Y-94709264D01*
X152881578Y-94724354D01*
X152948901Y-94886887D01*
X152986408Y-95075444D01*
X152986408Y-95267702D01*
X152966922Y-95365664D01*
X152948900Y-95456262D01*
X152875328Y-95633882D01*
X152769960Y-95791575D01*
X152768514Y-95793739D01*
X152632574Y-95929679D01*
X152632571Y-95929681D01*
X152472717Y-96036493D01*
X152295097Y-96110065D01*
X152295096Y-96110065D01*
X152295094Y-96110066D01*
X152106537Y-96147573D01*
X151914279Y-96147573D01*
X151725722Y-96110066D01*
X151725720Y-96110065D01*
X151725719Y-96110065D01*
X151548099Y-96036493D01*
X151388245Y-95929681D01*
X151388242Y-95929679D01*
X151252302Y-95793739D01*
X151250856Y-95791575D01*
X151145488Y-95633882D01*
X151071916Y-95456262D01*
X151053895Y-95365664D01*
X151034408Y-95267702D01*
X151034408Y-95075444D01*
X151071915Y-94886887D01*
X151139238Y-94724354D01*
X151145488Y-94709264D01*
X151252300Y-94549410D01*
X151252302Y-94549407D01*
X151388242Y-94413467D01*
X151548098Y-94306654D01*
X151548099Y-94306653D01*
X151725719Y-94233081D01*
X151725720Y-94233081D01*
X151725722Y-94233080D01*
X151914279Y-94195573D01*
X152106537Y-94195573D01*
X152295094Y-94233080D01*
X152295094Y-94233080D01*
G37*
G36*
X123095415Y-93903565D02*
X123268485Y-93975253D01*
X123424249Y-94079331D01*
X123556707Y-94211789D01*
X123660785Y-94367553D01*
X123732473Y-94540623D01*
X123769019Y-94724352D01*
X123769019Y-94911686D01*
X123732473Y-95095415D01*
X123660785Y-95268485D01*
X123556707Y-95424249D01*
X123424249Y-95556707D01*
X123268485Y-95660785D01*
X123095415Y-95732473D01*
X122911686Y-95769019D01*
X122724352Y-95769019D01*
X122540623Y-95732473D01*
X122367553Y-95660785D01*
X122211789Y-95556707D01*
X122079331Y-95424249D01*
X121975253Y-95268485D01*
X121903565Y-95095415D01*
X121867019Y-94911686D01*
X121867019Y-94724352D01*
X121903565Y-94540623D01*
X121975253Y-94367553D01*
X122079331Y-94211789D01*
X122211789Y-94079331D01*
X122367553Y-93975253D01*
X122540623Y-93903565D01*
X122724352Y-93867019D01*
X122911686Y-93867019D01*
X123095415Y-93903565D01*
X123095415Y-93903565D01*
G37*
G36*
X143095415Y-93903565D02*
X143268485Y-93975253D01*
X143424249Y-94079331D01*
X143556707Y-94211789D01*
X143660785Y-94367553D01*
X143732473Y-94540623D01*
X143769019Y-94724352D01*
X143769019Y-94911686D01*
X143732473Y-95095415D01*
X143660785Y-95268485D01*
X143556707Y-95424249D01*
X143424249Y-95556707D01*
X143268485Y-95660785D01*
X143095415Y-95732473D01*
X142911686Y-95769019D01*
X142724352Y-95769019D01*
X142540623Y-95732473D01*
X142367553Y-95660785D01*
X142211789Y-95556707D01*
X142079331Y-95424249D01*
X141975253Y-95268485D01*
X141903565Y-95095415D01*
X141867019Y-94911686D01*
X141867019Y-94724352D01*
X141903565Y-94540623D01*
X141975253Y-94367553D01*
X142079331Y-94211789D01*
X142211789Y-94079331D01*
X142367553Y-93975253D01*
X142540623Y-93903565D01*
X142724352Y-93867019D01*
X142911686Y-93867019D01*
X143095415Y-93903565D01*
X143095415Y-93903565D01*
G37*
G36*
X149113113Y-91051099D02*
X149113115Y-91051100D01*
X149113116Y-91051100D01*
X149290736Y-91124672D01*
X149290737Y-91124673D01*
X149450593Y-91231486D01*
X149586533Y-91367426D01*
X149586535Y-91367429D01*
X149693347Y-91527283D01*
X149766919Y-91704903D01*
X149804427Y-91893464D01*
X149804427Y-92085720D01*
X149766919Y-92274281D01*
X149693347Y-92451901D01*
X149693346Y-92451902D01*
X149586533Y-92611758D01*
X149450593Y-92747698D01*
X149450590Y-92747700D01*
X149290736Y-92854512D01*
X149113116Y-92928084D01*
X149113115Y-92928084D01*
X149113113Y-92928085D01*
X148924556Y-92965592D01*
X148732298Y-92965592D01*
X148543741Y-92928085D01*
X148543739Y-92928084D01*
X148543738Y-92928084D01*
X148366118Y-92854512D01*
X148206264Y-92747700D01*
X148206261Y-92747698D01*
X148070321Y-92611758D01*
X147963508Y-92451902D01*
X147963507Y-92451901D01*
X147889935Y-92274281D01*
X147852427Y-92085720D01*
X147852427Y-91893464D01*
X147889935Y-91704903D01*
X147963507Y-91527283D01*
X148070319Y-91367429D01*
X148070321Y-91367426D01*
X148206261Y-91231486D01*
X148366117Y-91124673D01*
X148366118Y-91124672D01*
X148543738Y-91051100D01*
X148543739Y-91051100D01*
X148543741Y-91051099D01*
X148732298Y-91013592D01*
X148924556Y-91013592D01*
X149113113Y-91051099D01*
X149113113Y-91051099D01*
G37*
G36*
X129113113Y-91051099D02*
X129113115Y-91051100D01*
X129113116Y-91051100D01*
X129290736Y-91124672D01*
X129290737Y-91124673D01*
X129450593Y-91231486D01*
X129586533Y-91367426D01*
X129586535Y-91367429D01*
X129693347Y-91527283D01*
X129766919Y-91704903D01*
X129804427Y-91893464D01*
X129804427Y-92085720D01*
X129766919Y-92274281D01*
X129693347Y-92451901D01*
X129693346Y-92451902D01*
X129586533Y-92611758D01*
X129450593Y-92747698D01*
X129450590Y-92747700D01*
X129290736Y-92854512D01*
X129113116Y-92928084D01*
X129113115Y-92928084D01*
X129113113Y-92928085D01*
X128924556Y-92965592D01*
X128732298Y-92965592D01*
X128543741Y-92928085D01*
X128543739Y-92928084D01*
X128543738Y-92928084D01*
X128366118Y-92854512D01*
X128206264Y-92747700D01*
X128206261Y-92747698D01*
X128070321Y-92611758D01*
X127963508Y-92451902D01*
X127963507Y-92451901D01*
X127889935Y-92274281D01*
X127852427Y-92085720D01*
X127852427Y-91893464D01*
X127889935Y-91704903D01*
X127963507Y-91527283D01*
X128070319Y-91367429D01*
X128070321Y-91367426D01*
X128206261Y-91231486D01*
X128366117Y-91124673D01*
X128366118Y-91124672D01*
X128543738Y-91051100D01*
X128543739Y-91051100D01*
X128543741Y-91051099D01*
X128732298Y-91013592D01*
X128924556Y-91013592D01*
X129113113Y-91051099D01*
X129113113Y-91051099D01*
G37*
G36*
X166195210Y-85448012D02*
X166195212Y-85448013D01*
X166195213Y-85448013D01*
X166459278Y-85557392D01*
X166693726Y-85714046D01*
X166696934Y-85716189D01*
X166899035Y-85918290D01*
X166899037Y-85918293D01*
X167057832Y-86155946D01*
X167159831Y-86402194D01*
X167167212Y-86420014D01*
X167222972Y-86700340D01*
X167222972Y-86986164D01*
X167170757Y-87248670D01*
X167167211Y-87266493D01*
X167057832Y-87530558D01*
X167057831Y-87530559D01*
X166899035Y-87768214D01*
X166696934Y-87970315D01*
X166696931Y-87970317D01*
X166459278Y-88129112D01*
X166195213Y-88238491D01*
X166195212Y-88238491D01*
X166195210Y-88238492D01*
X165914884Y-88294252D01*
X165629060Y-88294252D01*
X165348734Y-88238492D01*
X165348732Y-88238491D01*
X165348731Y-88238491D01*
X165084666Y-88129112D01*
X164847013Y-87970317D01*
X164847010Y-87970315D01*
X164644909Y-87768214D01*
X164486113Y-87530559D01*
X164486112Y-87530558D01*
X164376733Y-87266493D01*
X164373188Y-87248670D01*
X164320972Y-86986164D01*
X164320972Y-86700340D01*
X164376732Y-86420014D01*
X164384113Y-86402194D01*
X164486112Y-86155946D01*
X164644907Y-85918293D01*
X164644909Y-85918290D01*
X164847010Y-85716189D01*
X164850218Y-85714046D01*
X165084666Y-85557392D01*
X165348731Y-85448013D01*
X165348732Y-85448013D01*
X165348734Y-85448012D01*
X165629060Y-85392252D01*
X165914884Y-85392252D01*
X166195210Y-85448012D01*
X166195210Y-85448012D01*
G37*
G36*
X88213030Y-85430192D02*
X88213032Y-85430193D01*
X88213033Y-85430193D01*
X88477098Y-85539572D01*
X88477099Y-85539573D01*
X88714754Y-85698369D01*
X88916855Y-85900470D01*
X88916857Y-85900473D01*
X89075652Y-86138126D01*
X89083033Y-86155946D01*
X89185032Y-86402194D01*
X89240792Y-86682520D01*
X89240792Y-86968344D01*
X89237248Y-86986163D01*
X89185031Y-87248673D01*
X89075652Y-87512738D01*
X89075651Y-87512739D01*
X88916855Y-87750394D01*
X88714754Y-87952495D01*
X88714751Y-87952497D01*
X88477098Y-88111292D01*
X88213033Y-88220671D01*
X88213032Y-88220671D01*
X88213030Y-88220672D01*
X87932704Y-88276432D01*
X87646880Y-88276432D01*
X87366554Y-88220672D01*
X87366552Y-88220671D01*
X87366551Y-88220671D01*
X87102486Y-88111292D01*
X86864833Y-87952497D01*
X86864830Y-87952495D01*
X86662729Y-87750394D01*
X86503933Y-87512739D01*
X86503932Y-87512738D01*
X86394553Y-87248673D01*
X86342337Y-86986163D01*
X86338792Y-86968344D01*
X86338792Y-86682520D01*
X86394552Y-86402194D01*
X86496551Y-86155946D01*
X86503932Y-86138126D01*
X86662727Y-85900473D01*
X86662729Y-85900470D01*
X86864830Y-85698369D01*
X87102485Y-85539573D01*
X87102486Y-85539572D01*
X87366551Y-85430193D01*
X87366552Y-85430193D01*
X87366554Y-85430192D01*
X87646880Y-85374432D01*
X87932704Y-85374432D01*
X88213030Y-85430192D01*
X88213030Y-85430192D01*
G37*
G36*
X175125081Y-76131088D02*
X175225355Y-76172623D01*
X175315605Y-76232926D01*
X175392348Y-76309669D01*
X175452651Y-76399919D01*
X175494186Y-76500193D01*
X175515360Y-76606644D01*
X175515360Y-76715184D01*
X175494186Y-76821635D01*
X175452651Y-76921909D01*
X175392348Y-77012159D01*
X175315605Y-77088902D01*
X175225355Y-77149205D01*
X175125081Y-77190740D01*
X175018630Y-77211914D01*
X174910090Y-77211914D01*
X174803639Y-77190740D01*
X174703365Y-77149205D01*
X174613115Y-77088902D01*
X174536372Y-77012159D01*
X174476069Y-76921909D01*
X174434534Y-76821635D01*
X174413360Y-76715184D01*
X174413360Y-76606644D01*
X174434534Y-76500193D01*
X174476069Y-76399919D01*
X174536372Y-76309669D01*
X174613115Y-76232926D01*
X174703365Y-76172623D01*
X174803639Y-76131088D01*
X174910090Y-76109914D01*
X175018630Y-76109914D01*
X175125081Y-76131088D01*
X175125081Y-76131088D01*
G37*
G36*
X97142901Y-76113268D02*
X97243175Y-76154803D01*
X97333425Y-76215106D01*
X97410168Y-76291849D01*
X97470471Y-76382099D01*
X97512006Y-76482373D01*
X97533180Y-76588824D01*
X97533180Y-76697364D01*
X97512006Y-76803815D01*
X97470471Y-76904089D01*
X97410168Y-76994339D01*
X97333425Y-77071082D01*
X97243175Y-77131385D01*
X97142901Y-77172920D01*
X97036450Y-77194094D01*
X96927910Y-77194094D01*
X96821459Y-77172920D01*
X96721185Y-77131385D01*
X96630935Y-77071082D01*
X96554192Y-76994339D01*
X96493889Y-76904089D01*
X96452354Y-76803815D01*
X96431180Y-76697364D01*
X96431180Y-76588824D01*
X96452354Y-76482373D01*
X96493889Y-76382099D01*
X96554192Y-76291849D01*
X96630935Y-76215106D01*
X96721185Y-76154803D01*
X96821459Y-76113268D01*
X96927910Y-76092094D01*
X97036450Y-76092094D01*
X97142901Y-76113268D01*
X97142901Y-76113268D01*
G37*
G36*
X149890443Y-73095519D02*
X149956627Y-73102037D01*
X150069853Y-73136384D01*
X150126467Y-73153557D01*
X150265087Y-73227652D01*
X150282991Y-73237222D01*
X150318729Y-73266552D01*
X150420186Y-73349814D01*
X150503448Y-73451271D01*
X150532778Y-73487009D01*
X150532779Y-73487011D01*
X150616443Y-73643533D01*
X150616443Y-73643534D01*
X150667963Y-73813373D01*
X150685359Y-73990000D01*
X150667963Y-74166627D01*
X150633616Y-74279853D01*
X150616443Y-74336467D01*
X150542348Y-74475087D01*
X150532778Y-74492991D01*
X150503448Y-74528729D01*
X150420186Y-74630186D01*
X150318729Y-74713448D01*
X150282991Y-74742778D01*
X150282989Y-74742779D01*
X150126467Y-74826443D01*
X150069853Y-74843616D01*
X149956627Y-74877963D01*
X149890443Y-74884481D01*
X149824260Y-74891000D01*
X149735740Y-74891000D01*
X149669557Y-74884481D01*
X149603373Y-74877963D01*
X149490147Y-74843616D01*
X149433533Y-74826443D01*
X149277011Y-74742779D01*
X149277009Y-74742778D01*
X149241271Y-74713448D01*
X149139814Y-74630186D01*
X149056552Y-74528729D01*
X149027222Y-74492991D01*
X149017652Y-74475087D01*
X148943557Y-74336467D01*
X148926384Y-74279853D01*
X148892037Y-74166627D01*
X148874641Y-73990000D01*
X148892037Y-73813373D01*
X148943557Y-73643534D01*
X148943557Y-73643533D01*
X149027221Y-73487011D01*
X149027222Y-73487009D01*
X149056552Y-73451271D01*
X149139814Y-73349814D01*
X149241271Y-73266552D01*
X149277009Y-73237222D01*
X149294913Y-73227652D01*
X149433533Y-73153557D01*
X149490147Y-73136384D01*
X149603373Y-73102037D01*
X149669557Y-73095519D01*
X149735740Y-73089000D01*
X149824260Y-73089000D01*
X149890443Y-73095519D01*
X149890443Y-73095519D01*
G37*
G36*
X127030443Y-73095519D02*
X127096627Y-73102037D01*
X127209853Y-73136384D01*
X127266467Y-73153557D01*
X127405087Y-73227652D01*
X127422991Y-73237222D01*
X127458729Y-73266552D01*
X127560186Y-73349814D01*
X127643448Y-73451271D01*
X127672778Y-73487009D01*
X127672779Y-73487011D01*
X127756443Y-73643533D01*
X127756443Y-73643534D01*
X127807963Y-73813373D01*
X127825359Y-73990000D01*
X127807963Y-74166627D01*
X127773616Y-74279853D01*
X127756443Y-74336467D01*
X127682348Y-74475087D01*
X127672778Y-74492991D01*
X127643448Y-74528729D01*
X127560186Y-74630186D01*
X127458729Y-74713448D01*
X127422991Y-74742778D01*
X127422989Y-74742779D01*
X127266467Y-74826443D01*
X127209853Y-74843616D01*
X127096627Y-74877963D01*
X127030443Y-74884481D01*
X126964260Y-74891000D01*
X126875740Y-74891000D01*
X126809557Y-74884481D01*
X126743373Y-74877963D01*
X126630147Y-74843616D01*
X126573533Y-74826443D01*
X126417011Y-74742779D01*
X126417009Y-74742778D01*
X126381271Y-74713448D01*
X126279814Y-74630186D01*
X126196552Y-74528729D01*
X126167222Y-74492991D01*
X126157652Y-74475087D01*
X126083557Y-74336467D01*
X126066384Y-74279853D01*
X126032037Y-74166627D01*
X126014641Y-73990000D01*
X126032037Y-73813373D01*
X126083557Y-73643534D01*
X126083557Y-73643533D01*
X126167221Y-73487011D01*
X126167222Y-73487009D01*
X126196552Y-73451271D01*
X126279814Y-73349814D01*
X126381271Y-73266552D01*
X126417009Y-73237222D01*
X126434913Y-73227652D01*
X126573533Y-73153557D01*
X126630147Y-73136384D01*
X126743373Y-73102037D01*
X126809557Y-73095519D01*
X126875740Y-73089000D01*
X126964260Y-73089000D01*
X127030443Y-73095519D01*
X127030443Y-73095519D01*
G37*
G36*
X170210443Y-73095519D02*
X170276627Y-73102037D01*
X170389853Y-73136384D01*
X170446467Y-73153557D01*
X170585087Y-73227652D01*
X170602991Y-73237222D01*
X170638729Y-73266552D01*
X170740186Y-73349814D01*
X170823448Y-73451271D01*
X170852778Y-73487009D01*
X170852779Y-73487011D01*
X170936443Y-73643533D01*
X170936443Y-73643534D01*
X170987963Y-73813373D01*
X171005359Y-73990000D01*
X170987963Y-74166627D01*
X170953616Y-74279853D01*
X170936443Y-74336467D01*
X170862348Y-74475087D01*
X170852778Y-74492991D01*
X170823448Y-74528729D01*
X170740186Y-74630186D01*
X170638729Y-74713448D01*
X170602991Y-74742778D01*
X170602989Y-74742779D01*
X170446467Y-74826443D01*
X170389853Y-74843616D01*
X170276627Y-74877963D01*
X170210443Y-74884481D01*
X170144260Y-74891000D01*
X170055740Y-74891000D01*
X169989557Y-74884481D01*
X169923373Y-74877963D01*
X169810147Y-74843616D01*
X169753533Y-74826443D01*
X169597011Y-74742779D01*
X169597009Y-74742778D01*
X169561271Y-74713448D01*
X169459814Y-74630186D01*
X169376552Y-74528729D01*
X169347222Y-74492991D01*
X169337652Y-74475087D01*
X169263557Y-74336467D01*
X169246384Y-74279853D01*
X169212037Y-74166627D01*
X169194641Y-73990000D01*
X169212037Y-73813373D01*
X169263557Y-73643534D01*
X169263557Y-73643533D01*
X169347221Y-73487011D01*
X169347222Y-73487009D01*
X169376552Y-73451271D01*
X169459814Y-73349814D01*
X169561271Y-73266552D01*
X169597009Y-73237222D01*
X169614913Y-73227652D01*
X169753533Y-73153557D01*
X169810147Y-73136384D01*
X169923373Y-73102037D01*
X169989557Y-73095519D01*
X170055740Y-73089000D01*
X170144260Y-73089000D01*
X170210443Y-73095519D01*
X170210443Y-73095519D01*
G37*
G36*
X167670443Y-73095519D02*
X167736627Y-73102037D01*
X167849853Y-73136384D01*
X167906467Y-73153557D01*
X168045087Y-73227652D01*
X168062991Y-73237222D01*
X168098729Y-73266552D01*
X168200186Y-73349814D01*
X168283448Y-73451271D01*
X168312778Y-73487009D01*
X168312779Y-73487011D01*
X168396443Y-73643533D01*
X168396443Y-73643534D01*
X168447963Y-73813373D01*
X168465359Y-73990000D01*
X168447963Y-74166627D01*
X168413616Y-74279853D01*
X168396443Y-74336467D01*
X168322348Y-74475087D01*
X168312778Y-74492991D01*
X168283448Y-74528729D01*
X168200186Y-74630186D01*
X168098729Y-74713448D01*
X168062991Y-74742778D01*
X168062989Y-74742779D01*
X167906467Y-74826443D01*
X167849853Y-74843616D01*
X167736627Y-74877963D01*
X167670443Y-74884481D01*
X167604260Y-74891000D01*
X167515740Y-74891000D01*
X167449557Y-74884481D01*
X167383373Y-74877963D01*
X167270147Y-74843616D01*
X167213533Y-74826443D01*
X167057011Y-74742779D01*
X167057009Y-74742778D01*
X167021271Y-74713448D01*
X166919814Y-74630186D01*
X166836552Y-74528729D01*
X166807222Y-74492991D01*
X166797652Y-74475087D01*
X166723557Y-74336467D01*
X166706384Y-74279853D01*
X166672037Y-74166627D01*
X166654641Y-73990000D01*
X166672037Y-73813373D01*
X166723557Y-73643534D01*
X166723557Y-73643533D01*
X166807221Y-73487011D01*
X166807222Y-73487009D01*
X166836552Y-73451271D01*
X166919814Y-73349814D01*
X167021271Y-73266552D01*
X167057009Y-73237222D01*
X167074913Y-73227652D01*
X167213533Y-73153557D01*
X167270147Y-73136384D01*
X167383373Y-73102037D01*
X167449557Y-73095519D01*
X167515740Y-73089000D01*
X167604260Y-73089000D01*
X167670443Y-73095519D01*
X167670443Y-73095519D01*
G37*
G36*
X165130443Y-73095519D02*
X165196627Y-73102037D01*
X165309853Y-73136384D01*
X165366467Y-73153557D01*
X165505087Y-73227652D01*
X165522991Y-73237222D01*
X165558729Y-73266552D01*
X165660186Y-73349814D01*
X165743448Y-73451271D01*
X165772778Y-73487009D01*
X165772779Y-73487011D01*
X165856443Y-73643533D01*
X165856443Y-73643534D01*
X165907963Y-73813373D01*
X165925359Y-73990000D01*
X165907963Y-74166627D01*
X165873616Y-74279853D01*
X165856443Y-74336467D01*
X165782348Y-74475087D01*
X165772778Y-74492991D01*
X165743448Y-74528729D01*
X165660186Y-74630186D01*
X165558729Y-74713448D01*
X165522991Y-74742778D01*
X165522989Y-74742779D01*
X165366467Y-74826443D01*
X165309853Y-74843616D01*
X165196627Y-74877963D01*
X165130443Y-74884481D01*
X165064260Y-74891000D01*
X164975740Y-74891000D01*
X164909557Y-74884481D01*
X164843373Y-74877963D01*
X164730147Y-74843616D01*
X164673533Y-74826443D01*
X164517011Y-74742779D01*
X164517009Y-74742778D01*
X164481271Y-74713448D01*
X164379814Y-74630186D01*
X164296552Y-74528729D01*
X164267222Y-74492991D01*
X164257652Y-74475087D01*
X164183557Y-74336467D01*
X164166384Y-74279853D01*
X164132037Y-74166627D01*
X164114641Y-73990000D01*
X164132037Y-73813373D01*
X164183557Y-73643534D01*
X164183557Y-73643533D01*
X164267221Y-73487011D01*
X164267222Y-73487009D01*
X164296552Y-73451271D01*
X164379814Y-73349814D01*
X164481271Y-73266552D01*
X164517009Y-73237222D01*
X164534913Y-73227652D01*
X164673533Y-73153557D01*
X164730147Y-73136384D01*
X164843373Y-73102037D01*
X164909557Y-73095519D01*
X164975740Y-73089000D01*
X165064260Y-73089000D01*
X165130443Y-73095519D01*
X165130443Y-73095519D01*
G37*
G36*
X162590443Y-73095519D02*
X162656627Y-73102037D01*
X162769853Y-73136384D01*
X162826467Y-73153557D01*
X162965087Y-73227652D01*
X162982991Y-73237222D01*
X163018729Y-73266552D01*
X163120186Y-73349814D01*
X163203448Y-73451271D01*
X163232778Y-73487009D01*
X163232779Y-73487011D01*
X163316443Y-73643533D01*
X163316443Y-73643534D01*
X163367963Y-73813373D01*
X163385359Y-73990000D01*
X163367963Y-74166627D01*
X163333616Y-74279853D01*
X163316443Y-74336467D01*
X163242348Y-74475087D01*
X163232778Y-74492991D01*
X163203448Y-74528729D01*
X163120186Y-74630186D01*
X163018729Y-74713448D01*
X162982991Y-74742778D01*
X162982989Y-74742779D01*
X162826467Y-74826443D01*
X162769853Y-74843616D01*
X162656627Y-74877963D01*
X162590443Y-74884481D01*
X162524260Y-74891000D01*
X162435740Y-74891000D01*
X162369557Y-74884481D01*
X162303373Y-74877963D01*
X162190147Y-74843616D01*
X162133533Y-74826443D01*
X161977011Y-74742779D01*
X161977009Y-74742778D01*
X161941271Y-74713448D01*
X161839814Y-74630186D01*
X161756552Y-74528729D01*
X161727222Y-74492991D01*
X161717652Y-74475087D01*
X161643557Y-74336467D01*
X161626384Y-74279853D01*
X161592037Y-74166627D01*
X161574641Y-73990000D01*
X161592037Y-73813373D01*
X161643557Y-73643534D01*
X161643557Y-73643533D01*
X161727221Y-73487011D01*
X161727222Y-73487009D01*
X161756552Y-73451271D01*
X161839814Y-73349814D01*
X161941271Y-73266552D01*
X161977009Y-73237222D01*
X161994913Y-73227652D01*
X162133533Y-73153557D01*
X162190147Y-73136384D01*
X162303373Y-73102037D01*
X162369557Y-73095519D01*
X162435740Y-73089000D01*
X162524260Y-73089000D01*
X162590443Y-73095519D01*
X162590443Y-73095519D01*
G37*
G36*
X160050443Y-73095519D02*
X160116627Y-73102037D01*
X160229853Y-73136384D01*
X160286467Y-73153557D01*
X160425087Y-73227652D01*
X160442991Y-73237222D01*
X160478729Y-73266552D01*
X160580186Y-73349814D01*
X160663448Y-73451271D01*
X160692778Y-73487009D01*
X160692779Y-73487011D01*
X160776443Y-73643533D01*
X160776443Y-73643534D01*
X160827963Y-73813373D01*
X160845359Y-73990000D01*
X160827963Y-74166627D01*
X160793616Y-74279853D01*
X160776443Y-74336467D01*
X160702348Y-74475087D01*
X160692778Y-74492991D01*
X160663448Y-74528729D01*
X160580186Y-74630186D01*
X160478729Y-74713448D01*
X160442991Y-74742778D01*
X160442989Y-74742779D01*
X160286467Y-74826443D01*
X160229853Y-74843616D01*
X160116627Y-74877963D01*
X160050443Y-74884481D01*
X159984260Y-74891000D01*
X159895740Y-74891000D01*
X159829557Y-74884481D01*
X159763373Y-74877963D01*
X159650147Y-74843616D01*
X159593533Y-74826443D01*
X159437011Y-74742779D01*
X159437009Y-74742778D01*
X159401271Y-74713448D01*
X159299814Y-74630186D01*
X159216552Y-74528729D01*
X159187222Y-74492991D01*
X159177652Y-74475087D01*
X159103557Y-74336467D01*
X159086384Y-74279853D01*
X159052037Y-74166627D01*
X159034641Y-73990000D01*
X159052037Y-73813373D01*
X159103557Y-73643534D01*
X159103557Y-73643533D01*
X159187221Y-73487011D01*
X159187222Y-73487009D01*
X159216552Y-73451271D01*
X159299814Y-73349814D01*
X159401271Y-73266552D01*
X159437009Y-73237222D01*
X159454913Y-73227652D01*
X159593533Y-73153557D01*
X159650147Y-73136384D01*
X159763373Y-73102037D01*
X159829557Y-73095519D01*
X159895740Y-73089000D01*
X159984260Y-73089000D01*
X160050443Y-73095519D01*
X160050443Y-73095519D01*
G37*
G36*
X157510443Y-73095519D02*
X157576627Y-73102037D01*
X157689853Y-73136384D01*
X157746467Y-73153557D01*
X157885087Y-73227652D01*
X157902991Y-73237222D01*
X157938729Y-73266552D01*
X158040186Y-73349814D01*
X158123448Y-73451271D01*
X158152778Y-73487009D01*
X158152779Y-73487011D01*
X158236443Y-73643533D01*
X158236443Y-73643534D01*
X158287963Y-73813373D01*
X158305359Y-73990000D01*
X158287963Y-74166627D01*
X158253616Y-74279853D01*
X158236443Y-74336467D01*
X158162348Y-74475087D01*
X158152778Y-74492991D01*
X158123448Y-74528729D01*
X158040186Y-74630186D01*
X157938729Y-74713448D01*
X157902991Y-74742778D01*
X157902989Y-74742779D01*
X157746467Y-74826443D01*
X157689853Y-74843616D01*
X157576627Y-74877963D01*
X157510443Y-74884481D01*
X157444260Y-74891000D01*
X157355740Y-74891000D01*
X157289557Y-74884481D01*
X157223373Y-74877963D01*
X157110147Y-74843616D01*
X157053533Y-74826443D01*
X156897011Y-74742779D01*
X156897009Y-74742778D01*
X156861271Y-74713448D01*
X156759814Y-74630186D01*
X156676552Y-74528729D01*
X156647222Y-74492991D01*
X156637652Y-74475087D01*
X156563557Y-74336467D01*
X156546384Y-74279853D01*
X156512037Y-74166627D01*
X156494641Y-73990000D01*
X156512037Y-73813373D01*
X156563557Y-73643534D01*
X156563557Y-73643533D01*
X156647221Y-73487011D01*
X156647222Y-73487009D01*
X156676552Y-73451271D01*
X156759814Y-73349814D01*
X156861271Y-73266552D01*
X156897009Y-73237222D01*
X156914913Y-73227652D01*
X157053533Y-73153557D01*
X157110147Y-73136384D01*
X157223373Y-73102037D01*
X157289557Y-73095519D01*
X157355740Y-73089000D01*
X157444260Y-73089000D01*
X157510443Y-73095519D01*
X157510443Y-73095519D01*
G37*
G36*
X154970443Y-73095519D02*
X155036627Y-73102037D01*
X155149853Y-73136384D01*
X155206467Y-73153557D01*
X155345087Y-73227652D01*
X155362991Y-73237222D01*
X155398729Y-73266552D01*
X155500186Y-73349814D01*
X155583448Y-73451271D01*
X155612778Y-73487009D01*
X155612779Y-73487011D01*
X155696443Y-73643533D01*
X155696443Y-73643534D01*
X155747963Y-73813373D01*
X155765359Y-73990000D01*
X155747963Y-74166627D01*
X155713616Y-74279853D01*
X155696443Y-74336467D01*
X155622348Y-74475087D01*
X155612778Y-74492991D01*
X155583448Y-74528729D01*
X155500186Y-74630186D01*
X155398729Y-74713448D01*
X155362991Y-74742778D01*
X155362989Y-74742779D01*
X155206467Y-74826443D01*
X155149853Y-74843616D01*
X155036627Y-74877963D01*
X154970443Y-74884481D01*
X154904260Y-74891000D01*
X154815740Y-74891000D01*
X154749557Y-74884481D01*
X154683373Y-74877963D01*
X154570147Y-74843616D01*
X154513533Y-74826443D01*
X154357011Y-74742779D01*
X154357009Y-74742778D01*
X154321271Y-74713448D01*
X154219814Y-74630186D01*
X154136552Y-74528729D01*
X154107222Y-74492991D01*
X154097652Y-74475087D01*
X154023557Y-74336467D01*
X154006384Y-74279853D01*
X153972037Y-74166627D01*
X153954641Y-73990000D01*
X153972037Y-73813373D01*
X154023557Y-73643534D01*
X154023557Y-73643533D01*
X154107221Y-73487011D01*
X154107222Y-73487009D01*
X154136552Y-73451271D01*
X154219814Y-73349814D01*
X154321271Y-73266552D01*
X154357009Y-73237222D01*
X154374913Y-73227652D01*
X154513533Y-73153557D01*
X154570147Y-73136384D01*
X154683373Y-73102037D01*
X154749557Y-73095519D01*
X154815740Y-73089000D01*
X154904260Y-73089000D01*
X154970443Y-73095519D01*
X154970443Y-73095519D01*
G37*
G36*
X124490443Y-73095519D02*
X124556627Y-73102037D01*
X124669853Y-73136384D01*
X124726467Y-73153557D01*
X124865087Y-73227652D01*
X124882991Y-73237222D01*
X124918729Y-73266552D01*
X125020186Y-73349814D01*
X125103448Y-73451271D01*
X125132778Y-73487009D01*
X125132779Y-73487011D01*
X125216443Y-73643533D01*
X125216443Y-73643534D01*
X125267963Y-73813373D01*
X125285359Y-73990000D01*
X125267963Y-74166627D01*
X125233616Y-74279853D01*
X125216443Y-74336467D01*
X125142348Y-74475087D01*
X125132778Y-74492991D01*
X125103448Y-74528729D01*
X125020186Y-74630186D01*
X124918729Y-74713448D01*
X124882991Y-74742778D01*
X124882989Y-74742779D01*
X124726467Y-74826443D01*
X124669853Y-74843616D01*
X124556627Y-74877963D01*
X124490443Y-74884481D01*
X124424260Y-74891000D01*
X124335740Y-74891000D01*
X124269557Y-74884481D01*
X124203373Y-74877963D01*
X124090147Y-74843616D01*
X124033533Y-74826443D01*
X123877011Y-74742779D01*
X123877009Y-74742778D01*
X123841271Y-74713448D01*
X123739814Y-74630186D01*
X123656552Y-74528729D01*
X123627222Y-74492991D01*
X123617652Y-74475087D01*
X123543557Y-74336467D01*
X123526384Y-74279853D01*
X123492037Y-74166627D01*
X123474641Y-73990000D01*
X123492037Y-73813373D01*
X123543557Y-73643534D01*
X123543557Y-73643533D01*
X123627221Y-73487011D01*
X123627222Y-73487009D01*
X123656552Y-73451271D01*
X123739814Y-73349814D01*
X123841271Y-73266552D01*
X123877009Y-73237222D01*
X123894913Y-73227652D01*
X124033533Y-73153557D01*
X124090147Y-73136384D01*
X124203373Y-73102037D01*
X124269557Y-73095519D01*
X124335740Y-73089000D01*
X124424260Y-73089000D01*
X124490443Y-73095519D01*
X124490443Y-73095519D01*
G37*
G36*
X147350443Y-73095519D02*
X147416627Y-73102037D01*
X147529853Y-73136384D01*
X147586467Y-73153557D01*
X147725087Y-73227652D01*
X147742991Y-73237222D01*
X147778729Y-73266552D01*
X147880186Y-73349814D01*
X147963448Y-73451271D01*
X147992778Y-73487009D01*
X147992779Y-73487011D01*
X148076443Y-73643533D01*
X148076443Y-73643534D01*
X148127963Y-73813373D01*
X148145359Y-73990000D01*
X148127963Y-74166627D01*
X148093616Y-74279853D01*
X148076443Y-74336467D01*
X148002348Y-74475087D01*
X147992778Y-74492991D01*
X147963448Y-74528729D01*
X147880186Y-74630186D01*
X147778729Y-74713448D01*
X147742991Y-74742778D01*
X147742989Y-74742779D01*
X147586467Y-74826443D01*
X147529853Y-74843616D01*
X147416627Y-74877963D01*
X147350443Y-74884481D01*
X147284260Y-74891000D01*
X147195740Y-74891000D01*
X147129557Y-74884481D01*
X147063373Y-74877963D01*
X146950147Y-74843616D01*
X146893533Y-74826443D01*
X146737011Y-74742779D01*
X146737009Y-74742778D01*
X146701271Y-74713448D01*
X146599814Y-74630186D01*
X146516552Y-74528729D01*
X146487222Y-74492991D01*
X146477652Y-74475087D01*
X146403557Y-74336467D01*
X146386384Y-74279853D01*
X146352037Y-74166627D01*
X146334641Y-73990000D01*
X146352037Y-73813373D01*
X146403557Y-73643534D01*
X146403557Y-73643533D01*
X146487221Y-73487011D01*
X146487222Y-73487009D01*
X146516552Y-73451271D01*
X146599814Y-73349814D01*
X146701271Y-73266552D01*
X146737009Y-73237222D01*
X146754913Y-73227652D01*
X146893533Y-73153557D01*
X146950147Y-73136384D01*
X147063373Y-73102037D01*
X147129557Y-73095519D01*
X147195740Y-73089000D01*
X147284260Y-73089000D01*
X147350443Y-73095519D01*
X147350443Y-73095519D01*
G37*
G36*
X144810443Y-73095519D02*
X144876627Y-73102037D01*
X144989853Y-73136384D01*
X145046467Y-73153557D01*
X145185087Y-73227652D01*
X145202991Y-73237222D01*
X145238729Y-73266552D01*
X145340186Y-73349814D01*
X145423448Y-73451271D01*
X145452778Y-73487009D01*
X145452779Y-73487011D01*
X145536443Y-73643533D01*
X145536443Y-73643534D01*
X145587963Y-73813373D01*
X145605359Y-73990000D01*
X145587963Y-74166627D01*
X145553616Y-74279853D01*
X145536443Y-74336467D01*
X145462348Y-74475087D01*
X145452778Y-74492991D01*
X145423448Y-74528729D01*
X145340186Y-74630186D01*
X145238729Y-74713448D01*
X145202991Y-74742778D01*
X145202989Y-74742779D01*
X145046467Y-74826443D01*
X144989853Y-74843616D01*
X144876627Y-74877963D01*
X144810443Y-74884481D01*
X144744260Y-74891000D01*
X144655740Y-74891000D01*
X144589557Y-74884481D01*
X144523373Y-74877963D01*
X144410147Y-74843616D01*
X144353533Y-74826443D01*
X144197011Y-74742779D01*
X144197009Y-74742778D01*
X144161271Y-74713448D01*
X144059814Y-74630186D01*
X143976552Y-74528729D01*
X143947222Y-74492991D01*
X143937652Y-74475087D01*
X143863557Y-74336467D01*
X143846384Y-74279853D01*
X143812037Y-74166627D01*
X143794641Y-73990000D01*
X143812037Y-73813373D01*
X143863557Y-73643534D01*
X143863557Y-73643533D01*
X143947221Y-73487011D01*
X143947222Y-73487009D01*
X143976552Y-73451271D01*
X144059814Y-73349814D01*
X144161271Y-73266552D01*
X144197009Y-73237222D01*
X144214913Y-73227652D01*
X144353533Y-73153557D01*
X144410147Y-73136384D01*
X144523373Y-73102037D01*
X144589557Y-73095519D01*
X144655740Y-73089000D01*
X144744260Y-73089000D01*
X144810443Y-73095519D01*
X144810443Y-73095519D01*
G37*
G36*
X142270443Y-73095519D02*
X142336627Y-73102037D01*
X142449853Y-73136384D01*
X142506467Y-73153557D01*
X142645087Y-73227652D01*
X142662991Y-73237222D01*
X142698729Y-73266552D01*
X142800186Y-73349814D01*
X142883448Y-73451271D01*
X142912778Y-73487009D01*
X142912779Y-73487011D01*
X142996443Y-73643533D01*
X142996443Y-73643534D01*
X143047963Y-73813373D01*
X143065359Y-73990000D01*
X143047963Y-74166627D01*
X143013616Y-74279853D01*
X142996443Y-74336467D01*
X142922348Y-74475087D01*
X142912778Y-74492991D01*
X142883448Y-74528729D01*
X142800186Y-74630186D01*
X142698729Y-74713448D01*
X142662991Y-74742778D01*
X142662989Y-74742779D01*
X142506467Y-74826443D01*
X142449853Y-74843616D01*
X142336627Y-74877963D01*
X142270443Y-74884481D01*
X142204260Y-74891000D01*
X142115740Y-74891000D01*
X142049557Y-74884481D01*
X141983373Y-74877963D01*
X141870147Y-74843616D01*
X141813533Y-74826443D01*
X141657011Y-74742779D01*
X141657009Y-74742778D01*
X141621271Y-74713448D01*
X141519814Y-74630186D01*
X141436552Y-74528729D01*
X141407222Y-74492991D01*
X141397652Y-74475087D01*
X141323557Y-74336467D01*
X141306384Y-74279853D01*
X141272037Y-74166627D01*
X141254641Y-73990000D01*
X141272037Y-73813373D01*
X141323557Y-73643534D01*
X141323557Y-73643533D01*
X141407221Y-73487011D01*
X141407222Y-73487009D01*
X141436552Y-73451271D01*
X141519814Y-73349814D01*
X141621271Y-73266552D01*
X141657009Y-73237222D01*
X141674913Y-73227652D01*
X141813533Y-73153557D01*
X141870147Y-73136384D01*
X141983373Y-73102037D01*
X142049557Y-73095519D01*
X142115740Y-73089000D01*
X142204260Y-73089000D01*
X142270443Y-73095519D01*
X142270443Y-73095519D01*
G37*
G36*
X139730443Y-73095519D02*
X139796627Y-73102037D01*
X139909853Y-73136384D01*
X139966467Y-73153557D01*
X140105087Y-73227652D01*
X140122991Y-73237222D01*
X140158729Y-73266552D01*
X140260186Y-73349814D01*
X140343448Y-73451271D01*
X140372778Y-73487009D01*
X140372779Y-73487011D01*
X140456443Y-73643533D01*
X140456443Y-73643534D01*
X140507963Y-73813373D01*
X140525359Y-73990000D01*
X140507963Y-74166627D01*
X140473616Y-74279853D01*
X140456443Y-74336467D01*
X140382348Y-74475087D01*
X140372778Y-74492991D01*
X140343448Y-74528729D01*
X140260186Y-74630186D01*
X140158729Y-74713448D01*
X140122991Y-74742778D01*
X140122989Y-74742779D01*
X139966467Y-74826443D01*
X139909853Y-74843616D01*
X139796627Y-74877963D01*
X139730443Y-74884481D01*
X139664260Y-74891000D01*
X139575740Y-74891000D01*
X139509557Y-74884481D01*
X139443373Y-74877963D01*
X139330147Y-74843616D01*
X139273533Y-74826443D01*
X139117011Y-74742779D01*
X139117009Y-74742778D01*
X139081271Y-74713448D01*
X138979814Y-74630186D01*
X138896552Y-74528729D01*
X138867222Y-74492991D01*
X138857652Y-74475087D01*
X138783557Y-74336467D01*
X138766384Y-74279853D01*
X138732037Y-74166627D01*
X138714641Y-73990000D01*
X138732037Y-73813373D01*
X138783557Y-73643534D01*
X138783557Y-73643533D01*
X138867221Y-73487011D01*
X138867222Y-73487009D01*
X138896552Y-73451271D01*
X138979814Y-73349814D01*
X139081271Y-73266552D01*
X139117009Y-73237222D01*
X139134913Y-73227652D01*
X139273533Y-73153557D01*
X139330147Y-73136384D01*
X139443373Y-73102037D01*
X139509557Y-73095519D01*
X139575740Y-73089000D01*
X139664260Y-73089000D01*
X139730443Y-73095519D01*
X139730443Y-73095519D01*
G37*
G36*
X137190443Y-73095519D02*
X137256627Y-73102037D01*
X137369853Y-73136384D01*
X137426467Y-73153557D01*
X137565087Y-73227652D01*
X137582991Y-73237222D01*
X137618729Y-73266552D01*
X137720186Y-73349814D01*
X137803448Y-73451271D01*
X137832778Y-73487009D01*
X137832779Y-73487011D01*
X137916443Y-73643533D01*
X137916443Y-73643534D01*
X137967963Y-73813373D01*
X137985359Y-73990000D01*
X137967963Y-74166627D01*
X137933616Y-74279853D01*
X137916443Y-74336467D01*
X137842348Y-74475087D01*
X137832778Y-74492991D01*
X137803448Y-74528729D01*
X137720186Y-74630186D01*
X137618729Y-74713448D01*
X137582991Y-74742778D01*
X137582989Y-74742779D01*
X137426467Y-74826443D01*
X137369853Y-74843616D01*
X137256627Y-74877963D01*
X137190443Y-74884481D01*
X137124260Y-74891000D01*
X137035740Y-74891000D01*
X136969557Y-74884481D01*
X136903373Y-74877963D01*
X136790147Y-74843616D01*
X136733533Y-74826443D01*
X136577011Y-74742779D01*
X136577009Y-74742778D01*
X136541271Y-74713448D01*
X136439814Y-74630186D01*
X136356552Y-74528729D01*
X136327222Y-74492991D01*
X136317652Y-74475087D01*
X136243557Y-74336467D01*
X136226384Y-74279853D01*
X136192037Y-74166627D01*
X136174641Y-73990000D01*
X136192037Y-73813373D01*
X136243557Y-73643534D01*
X136243557Y-73643533D01*
X136327221Y-73487011D01*
X136327222Y-73487009D01*
X136356552Y-73451271D01*
X136439814Y-73349814D01*
X136541271Y-73266552D01*
X136577009Y-73237222D01*
X136594913Y-73227652D01*
X136733533Y-73153557D01*
X136790147Y-73136384D01*
X136903373Y-73102037D01*
X136969557Y-73095519D01*
X137035740Y-73089000D01*
X137124260Y-73089000D01*
X137190443Y-73095519D01*
X137190443Y-73095519D01*
G37*
G36*
X134650443Y-73095519D02*
X134716627Y-73102037D01*
X134829853Y-73136384D01*
X134886467Y-73153557D01*
X135025087Y-73227652D01*
X135042991Y-73237222D01*
X135078729Y-73266552D01*
X135180186Y-73349814D01*
X135263448Y-73451271D01*
X135292778Y-73487009D01*
X135292779Y-73487011D01*
X135376443Y-73643533D01*
X135376443Y-73643534D01*
X135427963Y-73813373D01*
X135445359Y-73990000D01*
X135427963Y-74166627D01*
X135393616Y-74279853D01*
X135376443Y-74336467D01*
X135302348Y-74475087D01*
X135292778Y-74492991D01*
X135263448Y-74528729D01*
X135180186Y-74630186D01*
X135078729Y-74713448D01*
X135042991Y-74742778D01*
X135042989Y-74742779D01*
X134886467Y-74826443D01*
X134829853Y-74843616D01*
X134716627Y-74877963D01*
X134650443Y-74884481D01*
X134584260Y-74891000D01*
X134495740Y-74891000D01*
X134429557Y-74884481D01*
X134363373Y-74877963D01*
X134250147Y-74843616D01*
X134193533Y-74826443D01*
X134037011Y-74742779D01*
X134037009Y-74742778D01*
X134001271Y-74713448D01*
X133899814Y-74630186D01*
X133816552Y-74528729D01*
X133787222Y-74492991D01*
X133777652Y-74475087D01*
X133703557Y-74336467D01*
X133686384Y-74279853D01*
X133652037Y-74166627D01*
X133634641Y-73990000D01*
X133652037Y-73813373D01*
X133703557Y-73643534D01*
X133703557Y-73643533D01*
X133787221Y-73487011D01*
X133787222Y-73487009D01*
X133816552Y-73451271D01*
X133899814Y-73349814D01*
X134001271Y-73266552D01*
X134037009Y-73237222D01*
X134054913Y-73227652D01*
X134193533Y-73153557D01*
X134250147Y-73136384D01*
X134363373Y-73102037D01*
X134429557Y-73095519D01*
X134495740Y-73089000D01*
X134584260Y-73089000D01*
X134650443Y-73095519D01*
X134650443Y-73095519D01*
G37*
G36*
X132110443Y-73095519D02*
X132176627Y-73102037D01*
X132289853Y-73136384D01*
X132346467Y-73153557D01*
X132485087Y-73227652D01*
X132502991Y-73237222D01*
X132538729Y-73266552D01*
X132640186Y-73349814D01*
X132723448Y-73451271D01*
X132752778Y-73487009D01*
X132752779Y-73487011D01*
X132836443Y-73643533D01*
X132836443Y-73643534D01*
X132887963Y-73813373D01*
X132905359Y-73990000D01*
X132887963Y-74166627D01*
X132853616Y-74279853D01*
X132836443Y-74336467D01*
X132762348Y-74475087D01*
X132752778Y-74492991D01*
X132723448Y-74528729D01*
X132640186Y-74630186D01*
X132538729Y-74713448D01*
X132502991Y-74742778D01*
X132502989Y-74742779D01*
X132346467Y-74826443D01*
X132289853Y-74843616D01*
X132176627Y-74877963D01*
X132110443Y-74884481D01*
X132044260Y-74891000D01*
X131955740Y-74891000D01*
X131889557Y-74884481D01*
X131823373Y-74877963D01*
X131710147Y-74843616D01*
X131653533Y-74826443D01*
X131497011Y-74742779D01*
X131497009Y-74742778D01*
X131461271Y-74713448D01*
X131359814Y-74630186D01*
X131276552Y-74528729D01*
X131247222Y-74492991D01*
X131237652Y-74475087D01*
X131163557Y-74336467D01*
X131146384Y-74279853D01*
X131112037Y-74166627D01*
X131094641Y-73990000D01*
X131112037Y-73813373D01*
X131163557Y-73643534D01*
X131163557Y-73643533D01*
X131247221Y-73487011D01*
X131247222Y-73487009D01*
X131276552Y-73451271D01*
X131359814Y-73349814D01*
X131461271Y-73266552D01*
X131497009Y-73237222D01*
X131514913Y-73227652D01*
X131653533Y-73153557D01*
X131710147Y-73136384D01*
X131823373Y-73102037D01*
X131889557Y-73095519D01*
X131955740Y-73089000D01*
X132044260Y-73089000D01*
X132110443Y-73095519D01*
X132110443Y-73095519D01*
G37*
G36*
X152430443Y-73095519D02*
X152496627Y-73102037D01*
X152609853Y-73136384D01*
X152666467Y-73153557D01*
X152805087Y-73227652D01*
X152822991Y-73237222D01*
X152858729Y-73266552D01*
X152960186Y-73349814D01*
X153043448Y-73451271D01*
X153072778Y-73487009D01*
X153072779Y-73487011D01*
X153156443Y-73643533D01*
X153156443Y-73643534D01*
X153207963Y-73813373D01*
X153225359Y-73990000D01*
X153207963Y-74166627D01*
X153173616Y-74279853D01*
X153156443Y-74336467D01*
X153082348Y-74475087D01*
X153072778Y-74492991D01*
X153043448Y-74528729D01*
X152960186Y-74630186D01*
X152858729Y-74713448D01*
X152822991Y-74742778D01*
X152822989Y-74742779D01*
X152666467Y-74826443D01*
X152609853Y-74843616D01*
X152496627Y-74877963D01*
X152430443Y-74884481D01*
X152364260Y-74891000D01*
X152275740Y-74891000D01*
X152209557Y-74884481D01*
X152143373Y-74877963D01*
X152030147Y-74843616D01*
X151973533Y-74826443D01*
X151817011Y-74742779D01*
X151817009Y-74742778D01*
X151781271Y-74713448D01*
X151679814Y-74630186D01*
X151596552Y-74528729D01*
X151567222Y-74492991D01*
X151557652Y-74475087D01*
X151483557Y-74336467D01*
X151466384Y-74279853D01*
X151432037Y-74166627D01*
X151414641Y-73990000D01*
X151432037Y-73813373D01*
X151483557Y-73643534D01*
X151483557Y-73643533D01*
X151567221Y-73487011D01*
X151567222Y-73487009D01*
X151596552Y-73451271D01*
X151679814Y-73349814D01*
X151781271Y-73266552D01*
X151817009Y-73237222D01*
X151834913Y-73227652D01*
X151973533Y-73153557D01*
X152030147Y-73136384D01*
X152143373Y-73102037D01*
X152209557Y-73095519D01*
X152275740Y-73089000D01*
X152364260Y-73089000D01*
X152430443Y-73095519D01*
X152430443Y-73095519D01*
G37*
G36*
X129570443Y-73095519D02*
X129636627Y-73102037D01*
X129749853Y-73136384D01*
X129806467Y-73153557D01*
X129945087Y-73227652D01*
X129962991Y-73237222D01*
X129998729Y-73266552D01*
X130100186Y-73349814D01*
X130183448Y-73451271D01*
X130212778Y-73487009D01*
X130212779Y-73487011D01*
X130296443Y-73643533D01*
X130296443Y-73643534D01*
X130347963Y-73813373D01*
X130365359Y-73990000D01*
X130347963Y-74166627D01*
X130313616Y-74279853D01*
X130296443Y-74336467D01*
X130222348Y-74475087D01*
X130212778Y-74492991D01*
X130183448Y-74528729D01*
X130100186Y-74630186D01*
X129998729Y-74713448D01*
X129962991Y-74742778D01*
X129962989Y-74742779D01*
X129806467Y-74826443D01*
X129749853Y-74843616D01*
X129636627Y-74877963D01*
X129570443Y-74884481D01*
X129504260Y-74891000D01*
X129415740Y-74891000D01*
X129349557Y-74884481D01*
X129283373Y-74877963D01*
X129170147Y-74843616D01*
X129113533Y-74826443D01*
X128957011Y-74742779D01*
X128957009Y-74742778D01*
X128921271Y-74713448D01*
X128819814Y-74630186D01*
X128736552Y-74528729D01*
X128707222Y-74492991D01*
X128697652Y-74475087D01*
X128623557Y-74336467D01*
X128606384Y-74279853D01*
X128572037Y-74166627D01*
X128554641Y-73990000D01*
X128572037Y-73813373D01*
X128623557Y-73643534D01*
X128623557Y-73643533D01*
X128707221Y-73487011D01*
X128707222Y-73487009D01*
X128736552Y-73451271D01*
X128819814Y-73349814D01*
X128921271Y-73266552D01*
X128957009Y-73237222D01*
X128974913Y-73227652D01*
X129113533Y-73153557D01*
X129170147Y-73136384D01*
X129283373Y-73102037D01*
X129349557Y-73095519D01*
X129415740Y-73089000D01*
X129504260Y-73089000D01*
X129570443Y-73095519D01*
X129570443Y-73095519D01*
G37*
G36*
X121950443Y-73095519D02*
X122016627Y-73102037D01*
X122129853Y-73136384D01*
X122186467Y-73153557D01*
X122325087Y-73227652D01*
X122342991Y-73237222D01*
X122378729Y-73266552D01*
X122480186Y-73349814D01*
X122563448Y-73451271D01*
X122592778Y-73487009D01*
X122592779Y-73487011D01*
X122676443Y-73643533D01*
X122676443Y-73643534D01*
X122727963Y-73813373D01*
X122745359Y-73990000D01*
X122727963Y-74166627D01*
X122693616Y-74279853D01*
X122676443Y-74336467D01*
X122602348Y-74475087D01*
X122592778Y-74492991D01*
X122563448Y-74528729D01*
X122480186Y-74630186D01*
X122378729Y-74713448D01*
X122342991Y-74742778D01*
X122342989Y-74742779D01*
X122186467Y-74826443D01*
X122129853Y-74843616D01*
X122016627Y-74877963D01*
X121950443Y-74884481D01*
X121884260Y-74891000D01*
X121795740Y-74891000D01*
X121729557Y-74884481D01*
X121663373Y-74877963D01*
X121550147Y-74843616D01*
X121493533Y-74826443D01*
X121337011Y-74742779D01*
X121337009Y-74742778D01*
X121301271Y-74713448D01*
X121199814Y-74630186D01*
X121116552Y-74528729D01*
X121087222Y-74492991D01*
X121077652Y-74475087D01*
X121003557Y-74336467D01*
X120986384Y-74279853D01*
X120952037Y-74166627D01*
X120934641Y-73990000D01*
X120952037Y-73813373D01*
X121003557Y-73643534D01*
X121003557Y-73643533D01*
X121087221Y-73487011D01*
X121087222Y-73487009D01*
X121116552Y-73451271D01*
X121199814Y-73349814D01*
X121301271Y-73266552D01*
X121337009Y-73237222D01*
X121354913Y-73227652D01*
X121493533Y-73153557D01*
X121550147Y-73136384D01*
X121663373Y-73102037D01*
X121729557Y-73095519D01*
X121795740Y-73089000D01*
X121884260Y-73089000D01*
X121950443Y-73095519D01*
X121950443Y-73095519D01*
G37*
G36*
X117318433Y-71384893D02*
X117408657Y-71402839D01*
X117514267Y-71446585D01*
X117663621Y-71508449D01*
X117893089Y-71661774D01*
X118088226Y-71856911D01*
X118241551Y-72086379D01*
X118347161Y-72341344D01*
X118401000Y-72612012D01*
X118401000Y-72887988D01*
X118347161Y-73158656D01*
X118241551Y-73413621D01*
X118088226Y-73643089D01*
X117893089Y-73838226D01*
X117663621Y-73991551D01*
X117514267Y-74053415D01*
X117408657Y-74097161D01*
X117318433Y-74115107D01*
X117137988Y-74151000D01*
X116862012Y-74151000D01*
X116681567Y-74115107D01*
X116591343Y-74097161D01*
X116485733Y-74053415D01*
X116336379Y-73991551D01*
X116106911Y-73838226D01*
X115911774Y-73643089D01*
X115758449Y-73413621D01*
X115652839Y-73158656D01*
X115599000Y-72887988D01*
X115599000Y-72612012D01*
X115652839Y-72341344D01*
X115758449Y-72086379D01*
X115911774Y-71856911D01*
X116106911Y-71661774D01*
X116336379Y-71508449D01*
X116485733Y-71446585D01*
X116591343Y-71402839D01*
X116681567Y-71384893D01*
X116862012Y-71349000D01*
X117137988Y-71349000D01*
X117318433Y-71384893D01*
X117318433Y-71384893D01*
G37*
G36*
X175318433Y-71384893D02*
X175408657Y-71402839D01*
X175514267Y-71446585D01*
X175663621Y-71508449D01*
X175893089Y-71661774D01*
X176088226Y-71856911D01*
X176241551Y-72086379D01*
X176347161Y-72341344D01*
X176401000Y-72612012D01*
X176401000Y-72887988D01*
X176347161Y-73158656D01*
X176241551Y-73413621D01*
X176088226Y-73643089D01*
X175893089Y-73838226D01*
X175663621Y-73991551D01*
X175514267Y-74053415D01*
X175408657Y-74097161D01*
X175318433Y-74115107D01*
X175137988Y-74151000D01*
X174862012Y-74151000D01*
X174681567Y-74115107D01*
X174591343Y-74097161D01*
X174485733Y-74053415D01*
X174336379Y-73991551D01*
X174106911Y-73838226D01*
X173911774Y-73643089D01*
X173758449Y-73413621D01*
X173652839Y-73158656D01*
X173599000Y-72887988D01*
X173599000Y-72612012D01*
X173652839Y-72341344D01*
X173758449Y-72086379D01*
X173911774Y-71856911D01*
X174106911Y-71661774D01*
X174336379Y-71508449D01*
X174485733Y-71446585D01*
X174591343Y-71402839D01*
X174681567Y-71384893D01*
X174862012Y-71349000D01*
X175137988Y-71349000D01*
X175318433Y-71384893D01*
X175318433Y-71384893D01*
G37*
G36*
X97318433Y-71384893D02*
X97408657Y-71402839D01*
X97514267Y-71446585D01*
X97663621Y-71508449D01*
X97893089Y-71661774D01*
X98088226Y-71856911D01*
X98241551Y-72086379D01*
X98347161Y-72341344D01*
X98401000Y-72612012D01*
X98401000Y-72887988D01*
X98347161Y-73158656D01*
X98241551Y-73413621D01*
X98088226Y-73643089D01*
X97893089Y-73838226D01*
X97663621Y-73991551D01*
X97514267Y-74053415D01*
X97408657Y-74097161D01*
X97318433Y-74115107D01*
X97137988Y-74151000D01*
X96862012Y-74151000D01*
X96681567Y-74115107D01*
X96591343Y-74097161D01*
X96485733Y-74053415D01*
X96336379Y-73991551D01*
X96106911Y-73838226D01*
X95911774Y-73643089D01*
X95758449Y-73413621D01*
X95652839Y-73158656D01*
X95599000Y-72887988D01*
X95599000Y-72612012D01*
X95652839Y-72341344D01*
X95758449Y-72086379D01*
X95911774Y-71856911D01*
X96106911Y-71661774D01*
X96336379Y-71508449D01*
X96485733Y-71446585D01*
X96591343Y-71402839D01*
X96681567Y-71384893D01*
X96862012Y-71349000D01*
X97137988Y-71349000D01*
X97318433Y-71384893D01*
X97318433Y-71384893D01*
G37*
G36*
X107318433Y-69634893D02*
X107408657Y-69652839D01*
X107514267Y-69696585D01*
X107663621Y-69758449D01*
X107893089Y-69911774D01*
X108088226Y-70106911D01*
X108241551Y-70336379D01*
X108303415Y-70485733D01*
X108347161Y-70591343D01*
X108365107Y-70681567D01*
X108401000Y-70862012D01*
X108401000Y-71137988D01*
X108347161Y-71408656D01*
X108241551Y-71663621D01*
X108088226Y-71893089D01*
X107893089Y-72088226D01*
X107663621Y-72241551D01*
X107555242Y-72286443D01*
X107408657Y-72347161D01*
X107318433Y-72365107D01*
X107137988Y-72401000D01*
X106862012Y-72401000D01*
X106681567Y-72365107D01*
X106591343Y-72347161D01*
X106444758Y-72286443D01*
X106336379Y-72241551D01*
X106106911Y-72088226D01*
X105911774Y-71893089D01*
X105758449Y-71663621D01*
X105652839Y-71408656D01*
X105599000Y-71137988D01*
X105599000Y-70862012D01*
X105634893Y-70681567D01*
X105652839Y-70591343D01*
X105696585Y-70485733D01*
X105758449Y-70336379D01*
X105911774Y-70106911D01*
X106106911Y-69911774D01*
X106336379Y-69758449D01*
X106485733Y-69696585D01*
X106591343Y-69652839D01*
X106681567Y-69634893D01*
X106862012Y-69599000D01*
X107137988Y-69599000D01*
X107318433Y-69634893D01*
X107318433Y-69634893D01*
G37*
G36*
X157510442Y-70555518D02*
X157576627Y-70562037D01*
X157673236Y-70591343D01*
X157746467Y-70613557D01*
X157885087Y-70687652D01*
X157902991Y-70697222D01*
X157938729Y-70726552D01*
X158040186Y-70809814D01*
X158123448Y-70911271D01*
X158152778Y-70947009D01*
X158152779Y-70947011D01*
X158236443Y-71103533D01*
X158253616Y-71160147D01*
X158287963Y-71273373D01*
X158305359Y-71450000D01*
X158287963Y-71626627D01*
X158253616Y-71739853D01*
X158236443Y-71796467D01*
X158204133Y-71856914D01*
X158152778Y-71952991D01*
X158123448Y-71988729D01*
X158040186Y-72090186D01*
X157938729Y-72173448D01*
X157902991Y-72202778D01*
X157902989Y-72202779D01*
X157746467Y-72286443D01*
X157689853Y-72303616D01*
X157576627Y-72337963D01*
X157510443Y-72344481D01*
X157444260Y-72351000D01*
X157355740Y-72351000D01*
X157289557Y-72344481D01*
X157223373Y-72337963D01*
X157110147Y-72303616D01*
X157053533Y-72286443D01*
X156897011Y-72202779D01*
X156897009Y-72202778D01*
X156861271Y-72173448D01*
X156759814Y-72090186D01*
X156676552Y-71988729D01*
X156647222Y-71952991D01*
X156595867Y-71856914D01*
X156563557Y-71796467D01*
X156546384Y-71739853D01*
X156512037Y-71626627D01*
X156494641Y-71450000D01*
X156512037Y-71273373D01*
X156546384Y-71160147D01*
X156563557Y-71103533D01*
X156647221Y-70947011D01*
X156647222Y-70947009D01*
X156676552Y-70911271D01*
X156759814Y-70809814D01*
X156861271Y-70726552D01*
X156897009Y-70697222D01*
X156914913Y-70687652D01*
X157053533Y-70613557D01*
X157126764Y-70591343D01*
X157223373Y-70562037D01*
X157289558Y-70555518D01*
X157355740Y-70549000D01*
X157444260Y-70549000D01*
X157510442Y-70555518D01*
X157510442Y-70555518D01*
G37*
G36*
X171001000Y-72351000D02*
X169199000Y-72351000D01*
X169199000Y-70549000D01*
X171001000Y-70549000D01*
X171001000Y-72351000D01*
X171001000Y-72351000D01*
G37*
G36*
X167670442Y-70555518D02*
X167736627Y-70562037D01*
X167833236Y-70591343D01*
X167906467Y-70613557D01*
X168045087Y-70687652D01*
X168062991Y-70697222D01*
X168098729Y-70726552D01*
X168200186Y-70809814D01*
X168283448Y-70911271D01*
X168312778Y-70947009D01*
X168312779Y-70947011D01*
X168396443Y-71103533D01*
X168413616Y-71160147D01*
X168447963Y-71273373D01*
X168465359Y-71450000D01*
X168447963Y-71626627D01*
X168413616Y-71739853D01*
X168396443Y-71796467D01*
X168364133Y-71856914D01*
X168312778Y-71952991D01*
X168283448Y-71988729D01*
X168200186Y-72090186D01*
X168098729Y-72173448D01*
X168062991Y-72202778D01*
X168062989Y-72202779D01*
X167906467Y-72286443D01*
X167849853Y-72303616D01*
X167736627Y-72337963D01*
X167670443Y-72344481D01*
X167604260Y-72351000D01*
X167515740Y-72351000D01*
X167449557Y-72344481D01*
X167383373Y-72337963D01*
X167270147Y-72303616D01*
X167213533Y-72286443D01*
X167057011Y-72202779D01*
X167057009Y-72202778D01*
X167021271Y-72173448D01*
X166919814Y-72090186D01*
X166836552Y-71988729D01*
X166807222Y-71952991D01*
X166755867Y-71856914D01*
X166723557Y-71796467D01*
X166706384Y-71739853D01*
X166672037Y-71626627D01*
X166654641Y-71450000D01*
X166672037Y-71273373D01*
X166706384Y-71160147D01*
X166723557Y-71103533D01*
X166807221Y-70947011D01*
X166807222Y-70947009D01*
X166836552Y-70911271D01*
X166919814Y-70809814D01*
X167021271Y-70726552D01*
X167057009Y-70697222D01*
X167074913Y-70687652D01*
X167213533Y-70613557D01*
X167286764Y-70591343D01*
X167383373Y-70562037D01*
X167449558Y-70555518D01*
X167515740Y-70549000D01*
X167604260Y-70549000D01*
X167670442Y-70555518D01*
X167670442Y-70555518D01*
G37*
G36*
X165130442Y-70555518D02*
X165196627Y-70562037D01*
X165293236Y-70591343D01*
X165366467Y-70613557D01*
X165505087Y-70687652D01*
X165522991Y-70697222D01*
X165558729Y-70726552D01*
X165660186Y-70809814D01*
X165743448Y-70911271D01*
X165772778Y-70947009D01*
X165772779Y-70947011D01*
X165856443Y-71103533D01*
X165873616Y-71160147D01*
X165907963Y-71273373D01*
X165925359Y-71450000D01*
X165907963Y-71626627D01*
X165873616Y-71739853D01*
X165856443Y-71796467D01*
X165824133Y-71856914D01*
X165772778Y-71952991D01*
X165743448Y-71988729D01*
X165660186Y-72090186D01*
X165558729Y-72173448D01*
X165522991Y-72202778D01*
X165522989Y-72202779D01*
X165366467Y-72286443D01*
X165309853Y-72303616D01*
X165196627Y-72337963D01*
X165130443Y-72344481D01*
X165064260Y-72351000D01*
X164975740Y-72351000D01*
X164909557Y-72344481D01*
X164843373Y-72337963D01*
X164730147Y-72303616D01*
X164673533Y-72286443D01*
X164517011Y-72202779D01*
X164517009Y-72202778D01*
X164481271Y-72173448D01*
X164379814Y-72090186D01*
X164296552Y-71988729D01*
X164267222Y-71952991D01*
X164215867Y-71856914D01*
X164183557Y-71796467D01*
X164166384Y-71739853D01*
X164132037Y-71626627D01*
X164114641Y-71450000D01*
X164132037Y-71273373D01*
X164166384Y-71160147D01*
X164183557Y-71103533D01*
X164267221Y-70947011D01*
X164267222Y-70947009D01*
X164296552Y-70911271D01*
X164379814Y-70809814D01*
X164481271Y-70726552D01*
X164517009Y-70697222D01*
X164534913Y-70687652D01*
X164673533Y-70613557D01*
X164746764Y-70591343D01*
X164843373Y-70562037D01*
X164909558Y-70555518D01*
X164975740Y-70549000D01*
X165064260Y-70549000D01*
X165130442Y-70555518D01*
X165130442Y-70555518D01*
G37*
G36*
X162590442Y-70555518D02*
X162656627Y-70562037D01*
X162753236Y-70591343D01*
X162826467Y-70613557D01*
X162965087Y-70687652D01*
X162982991Y-70697222D01*
X163018729Y-70726552D01*
X163120186Y-70809814D01*
X163203448Y-70911271D01*
X163232778Y-70947009D01*
X163232779Y-70947011D01*
X163316443Y-71103533D01*
X163333616Y-71160147D01*
X163367963Y-71273373D01*
X163385359Y-71450000D01*
X163367963Y-71626627D01*
X163333616Y-71739853D01*
X163316443Y-71796467D01*
X163284133Y-71856914D01*
X163232778Y-71952991D01*
X163203448Y-71988729D01*
X163120186Y-72090186D01*
X163018729Y-72173448D01*
X162982991Y-72202778D01*
X162982989Y-72202779D01*
X162826467Y-72286443D01*
X162769853Y-72303616D01*
X162656627Y-72337963D01*
X162590443Y-72344481D01*
X162524260Y-72351000D01*
X162435740Y-72351000D01*
X162369557Y-72344481D01*
X162303373Y-72337963D01*
X162190147Y-72303616D01*
X162133533Y-72286443D01*
X161977011Y-72202779D01*
X161977009Y-72202778D01*
X161941271Y-72173448D01*
X161839814Y-72090186D01*
X161756552Y-71988729D01*
X161727222Y-71952991D01*
X161675867Y-71856914D01*
X161643557Y-71796467D01*
X161626384Y-71739853D01*
X161592037Y-71626627D01*
X161574641Y-71450000D01*
X161592037Y-71273373D01*
X161626384Y-71160147D01*
X161643557Y-71103533D01*
X161727221Y-70947011D01*
X161727222Y-70947009D01*
X161756552Y-70911271D01*
X161839814Y-70809814D01*
X161941271Y-70726552D01*
X161977009Y-70697222D01*
X161994913Y-70687652D01*
X162133533Y-70613557D01*
X162206764Y-70591343D01*
X162303373Y-70562037D01*
X162369558Y-70555518D01*
X162435740Y-70549000D01*
X162524260Y-70549000D01*
X162590442Y-70555518D01*
X162590442Y-70555518D01*
G37*
G36*
X139730442Y-70555518D02*
X139796627Y-70562037D01*
X139893236Y-70591343D01*
X139966467Y-70613557D01*
X140105087Y-70687652D01*
X140122991Y-70697222D01*
X140158729Y-70726552D01*
X140260186Y-70809814D01*
X140343448Y-70911271D01*
X140372778Y-70947009D01*
X140372779Y-70947011D01*
X140456443Y-71103533D01*
X140473616Y-71160147D01*
X140507963Y-71273373D01*
X140525359Y-71450000D01*
X140507963Y-71626627D01*
X140473616Y-71739853D01*
X140456443Y-71796467D01*
X140424133Y-71856914D01*
X140372778Y-71952991D01*
X140343448Y-71988729D01*
X140260186Y-72090186D01*
X140158729Y-72173448D01*
X140122991Y-72202778D01*
X140122989Y-72202779D01*
X139966467Y-72286443D01*
X139909853Y-72303616D01*
X139796627Y-72337963D01*
X139730443Y-72344481D01*
X139664260Y-72351000D01*
X139575740Y-72351000D01*
X139509557Y-72344481D01*
X139443373Y-72337963D01*
X139330147Y-72303616D01*
X139273533Y-72286443D01*
X139117011Y-72202779D01*
X139117009Y-72202778D01*
X139081271Y-72173448D01*
X138979814Y-72090186D01*
X138896552Y-71988729D01*
X138867222Y-71952991D01*
X138815867Y-71856914D01*
X138783557Y-71796467D01*
X138766384Y-71739853D01*
X138732037Y-71626627D01*
X138714641Y-71450000D01*
X138732037Y-71273373D01*
X138766384Y-71160147D01*
X138783557Y-71103533D01*
X138867221Y-70947011D01*
X138867222Y-70947009D01*
X138896552Y-70911271D01*
X138979814Y-70809814D01*
X139081271Y-70726552D01*
X139117009Y-70697222D01*
X139134913Y-70687652D01*
X139273533Y-70613557D01*
X139346764Y-70591343D01*
X139443373Y-70562037D01*
X139509558Y-70555518D01*
X139575740Y-70549000D01*
X139664260Y-70549000D01*
X139730442Y-70555518D01*
X139730442Y-70555518D01*
G37*
G36*
X142270442Y-70555518D02*
X142336627Y-70562037D01*
X142433236Y-70591343D01*
X142506467Y-70613557D01*
X142645087Y-70687652D01*
X142662991Y-70697222D01*
X142698729Y-70726552D01*
X142800186Y-70809814D01*
X142883448Y-70911271D01*
X142912778Y-70947009D01*
X142912779Y-70947011D01*
X142996443Y-71103533D01*
X143013616Y-71160147D01*
X143047963Y-71273373D01*
X143065359Y-71450000D01*
X143047963Y-71626627D01*
X143013616Y-71739853D01*
X142996443Y-71796467D01*
X142964133Y-71856914D01*
X142912778Y-71952991D01*
X142883448Y-71988729D01*
X142800186Y-72090186D01*
X142698729Y-72173448D01*
X142662991Y-72202778D01*
X142662989Y-72202779D01*
X142506467Y-72286443D01*
X142449853Y-72303616D01*
X142336627Y-72337963D01*
X142270443Y-72344481D01*
X142204260Y-72351000D01*
X142115740Y-72351000D01*
X142049557Y-72344481D01*
X141983373Y-72337963D01*
X141870147Y-72303616D01*
X141813533Y-72286443D01*
X141657011Y-72202779D01*
X141657009Y-72202778D01*
X141621271Y-72173448D01*
X141519814Y-72090186D01*
X141436552Y-71988729D01*
X141407222Y-71952991D01*
X141355867Y-71856914D01*
X141323557Y-71796467D01*
X141306384Y-71739853D01*
X141272037Y-71626627D01*
X141254641Y-71450000D01*
X141272037Y-71273373D01*
X141306384Y-71160147D01*
X141323557Y-71103533D01*
X141407221Y-70947011D01*
X141407222Y-70947009D01*
X141436552Y-70911271D01*
X141519814Y-70809814D01*
X141621271Y-70726552D01*
X141657009Y-70697222D01*
X141674913Y-70687652D01*
X141813533Y-70613557D01*
X141886764Y-70591343D01*
X141983373Y-70562037D01*
X142049558Y-70555518D01*
X142115740Y-70549000D01*
X142204260Y-70549000D01*
X142270442Y-70555518D01*
X142270442Y-70555518D01*
G37*
G36*
X121950442Y-70555518D02*
X122016627Y-70562037D01*
X122113236Y-70591343D01*
X122186467Y-70613557D01*
X122325087Y-70687652D01*
X122342991Y-70697222D01*
X122378729Y-70726552D01*
X122480186Y-70809814D01*
X122563448Y-70911271D01*
X122592778Y-70947009D01*
X122592779Y-70947011D01*
X122676443Y-71103533D01*
X122693616Y-71160147D01*
X122727963Y-71273373D01*
X122745359Y-71450000D01*
X122727963Y-71626627D01*
X122693616Y-71739853D01*
X122676443Y-71796467D01*
X122644133Y-71856914D01*
X122592778Y-71952991D01*
X122563448Y-71988729D01*
X122480186Y-72090186D01*
X122378729Y-72173448D01*
X122342991Y-72202778D01*
X122342989Y-72202779D01*
X122186467Y-72286443D01*
X122129853Y-72303616D01*
X122016627Y-72337963D01*
X121950443Y-72344481D01*
X121884260Y-72351000D01*
X121795740Y-72351000D01*
X121729557Y-72344481D01*
X121663373Y-72337963D01*
X121550147Y-72303616D01*
X121493533Y-72286443D01*
X121337011Y-72202779D01*
X121337009Y-72202778D01*
X121301271Y-72173448D01*
X121199814Y-72090186D01*
X121116552Y-71988729D01*
X121087222Y-71952991D01*
X121035867Y-71856914D01*
X121003557Y-71796467D01*
X120986384Y-71739853D01*
X120952037Y-71626627D01*
X120934641Y-71450000D01*
X120952037Y-71273373D01*
X120986384Y-71160147D01*
X121003557Y-71103533D01*
X121087221Y-70947011D01*
X121087222Y-70947009D01*
X121116552Y-70911271D01*
X121199814Y-70809814D01*
X121301271Y-70726552D01*
X121337009Y-70697222D01*
X121354913Y-70687652D01*
X121493533Y-70613557D01*
X121566764Y-70591343D01*
X121663373Y-70562037D01*
X121729558Y-70555518D01*
X121795740Y-70549000D01*
X121884260Y-70549000D01*
X121950442Y-70555518D01*
X121950442Y-70555518D01*
G37*
G36*
X144810442Y-70555518D02*
X144876627Y-70562037D01*
X144973236Y-70591343D01*
X145046467Y-70613557D01*
X145185087Y-70687652D01*
X145202991Y-70697222D01*
X145238729Y-70726552D01*
X145340186Y-70809814D01*
X145423448Y-70911271D01*
X145452778Y-70947009D01*
X145452779Y-70947011D01*
X145536443Y-71103533D01*
X145553616Y-71160147D01*
X145587963Y-71273373D01*
X145605359Y-71450000D01*
X145587963Y-71626627D01*
X145553616Y-71739853D01*
X145536443Y-71796467D01*
X145504133Y-71856914D01*
X145452778Y-71952991D01*
X145423448Y-71988729D01*
X145340186Y-72090186D01*
X145238729Y-72173448D01*
X145202991Y-72202778D01*
X145202989Y-72202779D01*
X145046467Y-72286443D01*
X144989853Y-72303616D01*
X144876627Y-72337963D01*
X144810443Y-72344481D01*
X144744260Y-72351000D01*
X144655740Y-72351000D01*
X144589557Y-72344481D01*
X144523373Y-72337963D01*
X144410147Y-72303616D01*
X144353533Y-72286443D01*
X144197011Y-72202779D01*
X144197009Y-72202778D01*
X144161271Y-72173448D01*
X144059814Y-72090186D01*
X143976552Y-71988729D01*
X143947222Y-71952991D01*
X143895867Y-71856914D01*
X143863557Y-71796467D01*
X143846384Y-71739853D01*
X143812037Y-71626627D01*
X143794641Y-71450000D01*
X143812037Y-71273373D01*
X143846384Y-71160147D01*
X143863557Y-71103533D01*
X143947221Y-70947011D01*
X143947222Y-70947009D01*
X143976552Y-70911271D01*
X144059814Y-70809814D01*
X144161271Y-70726552D01*
X144197009Y-70697222D01*
X144214913Y-70687652D01*
X144353533Y-70613557D01*
X144426764Y-70591343D01*
X144523373Y-70562037D01*
X144589558Y-70555518D01*
X144655740Y-70549000D01*
X144744260Y-70549000D01*
X144810442Y-70555518D01*
X144810442Y-70555518D01*
G37*
G36*
X124490442Y-70555518D02*
X124556627Y-70562037D01*
X124653236Y-70591343D01*
X124726467Y-70613557D01*
X124865087Y-70687652D01*
X124882991Y-70697222D01*
X124918729Y-70726552D01*
X125020186Y-70809814D01*
X125103448Y-70911271D01*
X125132778Y-70947009D01*
X125132779Y-70947011D01*
X125216443Y-71103533D01*
X125233616Y-71160147D01*
X125267963Y-71273373D01*
X125285359Y-71450000D01*
X125267963Y-71626627D01*
X125233616Y-71739853D01*
X125216443Y-71796467D01*
X125184133Y-71856914D01*
X125132778Y-71952991D01*
X125103448Y-71988729D01*
X125020186Y-72090186D01*
X124918729Y-72173448D01*
X124882991Y-72202778D01*
X124882989Y-72202779D01*
X124726467Y-72286443D01*
X124669853Y-72303616D01*
X124556627Y-72337963D01*
X124490443Y-72344481D01*
X124424260Y-72351000D01*
X124335740Y-72351000D01*
X124269557Y-72344481D01*
X124203373Y-72337963D01*
X124090147Y-72303616D01*
X124033533Y-72286443D01*
X123877011Y-72202779D01*
X123877009Y-72202778D01*
X123841271Y-72173448D01*
X123739814Y-72090186D01*
X123656552Y-71988729D01*
X123627222Y-71952991D01*
X123575867Y-71856914D01*
X123543557Y-71796467D01*
X123526384Y-71739853D01*
X123492037Y-71626627D01*
X123474641Y-71450000D01*
X123492037Y-71273373D01*
X123526384Y-71160147D01*
X123543557Y-71103533D01*
X123627221Y-70947011D01*
X123627222Y-70947009D01*
X123656552Y-70911271D01*
X123739814Y-70809814D01*
X123841271Y-70726552D01*
X123877009Y-70697222D01*
X123894913Y-70687652D01*
X124033533Y-70613557D01*
X124106764Y-70591343D01*
X124203373Y-70562037D01*
X124269558Y-70555518D01*
X124335740Y-70549000D01*
X124424260Y-70549000D01*
X124490442Y-70555518D01*
X124490442Y-70555518D01*
G37*
G36*
X127030442Y-70555518D02*
X127096627Y-70562037D01*
X127193236Y-70591343D01*
X127266467Y-70613557D01*
X127405087Y-70687652D01*
X127422991Y-70697222D01*
X127458729Y-70726552D01*
X127560186Y-70809814D01*
X127643448Y-70911271D01*
X127672778Y-70947009D01*
X127672779Y-70947011D01*
X127756443Y-71103533D01*
X127773616Y-71160147D01*
X127807963Y-71273373D01*
X127825359Y-71450000D01*
X127807963Y-71626627D01*
X127773616Y-71739853D01*
X127756443Y-71796467D01*
X127724133Y-71856914D01*
X127672778Y-71952991D01*
X127643448Y-71988729D01*
X127560186Y-72090186D01*
X127458729Y-72173448D01*
X127422991Y-72202778D01*
X127422989Y-72202779D01*
X127266467Y-72286443D01*
X127209853Y-72303616D01*
X127096627Y-72337963D01*
X127030443Y-72344481D01*
X126964260Y-72351000D01*
X126875740Y-72351000D01*
X126809557Y-72344481D01*
X126743373Y-72337963D01*
X126630147Y-72303616D01*
X126573533Y-72286443D01*
X126417011Y-72202779D01*
X126417009Y-72202778D01*
X126381271Y-72173448D01*
X126279814Y-72090186D01*
X126196552Y-71988729D01*
X126167222Y-71952991D01*
X126115867Y-71856914D01*
X126083557Y-71796467D01*
X126066384Y-71739853D01*
X126032037Y-71626627D01*
X126014641Y-71450000D01*
X126032037Y-71273373D01*
X126066384Y-71160147D01*
X126083557Y-71103533D01*
X126167221Y-70947011D01*
X126167222Y-70947009D01*
X126196552Y-70911271D01*
X126279814Y-70809814D01*
X126381271Y-70726552D01*
X126417009Y-70697222D01*
X126434913Y-70687652D01*
X126573533Y-70613557D01*
X126646764Y-70591343D01*
X126743373Y-70562037D01*
X126809558Y-70555518D01*
X126875740Y-70549000D01*
X126964260Y-70549000D01*
X127030442Y-70555518D01*
X127030442Y-70555518D01*
G37*
G36*
X160050442Y-70555518D02*
X160116627Y-70562037D01*
X160213236Y-70591343D01*
X160286467Y-70613557D01*
X160425087Y-70687652D01*
X160442991Y-70697222D01*
X160478729Y-70726552D01*
X160580186Y-70809814D01*
X160663448Y-70911271D01*
X160692778Y-70947009D01*
X160692779Y-70947011D01*
X160776443Y-71103533D01*
X160793616Y-71160147D01*
X160827963Y-71273373D01*
X160845359Y-71450000D01*
X160827963Y-71626627D01*
X160793616Y-71739853D01*
X160776443Y-71796467D01*
X160744133Y-71856914D01*
X160692778Y-71952991D01*
X160663448Y-71988729D01*
X160580186Y-72090186D01*
X160478729Y-72173448D01*
X160442991Y-72202778D01*
X160442989Y-72202779D01*
X160286467Y-72286443D01*
X160229853Y-72303616D01*
X160116627Y-72337963D01*
X160050443Y-72344481D01*
X159984260Y-72351000D01*
X159895740Y-72351000D01*
X159829557Y-72344481D01*
X159763373Y-72337963D01*
X159650147Y-72303616D01*
X159593533Y-72286443D01*
X159437011Y-72202779D01*
X159437009Y-72202778D01*
X159401271Y-72173448D01*
X159299814Y-72090186D01*
X159216552Y-71988729D01*
X159187222Y-71952991D01*
X159135867Y-71856914D01*
X159103557Y-71796467D01*
X159086384Y-71739853D01*
X159052037Y-71626627D01*
X159034641Y-71450000D01*
X159052037Y-71273373D01*
X159086384Y-71160147D01*
X159103557Y-71103533D01*
X159187221Y-70947011D01*
X159187222Y-70947009D01*
X159216552Y-70911271D01*
X159299814Y-70809814D01*
X159401271Y-70726552D01*
X159437009Y-70697222D01*
X159454913Y-70687652D01*
X159593533Y-70613557D01*
X159666764Y-70591343D01*
X159763373Y-70562037D01*
X159829558Y-70555518D01*
X159895740Y-70549000D01*
X159984260Y-70549000D01*
X160050442Y-70555518D01*
X160050442Y-70555518D01*
G37*
G36*
X137190442Y-70555518D02*
X137256627Y-70562037D01*
X137353236Y-70591343D01*
X137426467Y-70613557D01*
X137565087Y-70687652D01*
X137582991Y-70697222D01*
X137618729Y-70726552D01*
X137720186Y-70809814D01*
X137803448Y-70911271D01*
X137832778Y-70947009D01*
X137832779Y-70947011D01*
X137916443Y-71103533D01*
X137933616Y-71160147D01*
X137967963Y-71273373D01*
X137985359Y-71450000D01*
X137967963Y-71626627D01*
X137933616Y-71739853D01*
X137916443Y-71796467D01*
X137884133Y-71856914D01*
X137832778Y-71952991D01*
X137803448Y-71988729D01*
X137720186Y-72090186D01*
X137618729Y-72173448D01*
X137582991Y-72202778D01*
X137582989Y-72202779D01*
X137426467Y-72286443D01*
X137369853Y-72303616D01*
X137256627Y-72337963D01*
X137190443Y-72344481D01*
X137124260Y-72351000D01*
X137035740Y-72351000D01*
X136969557Y-72344481D01*
X136903373Y-72337963D01*
X136790147Y-72303616D01*
X136733533Y-72286443D01*
X136577011Y-72202779D01*
X136577009Y-72202778D01*
X136541271Y-72173448D01*
X136439814Y-72090186D01*
X136356552Y-71988729D01*
X136327222Y-71952991D01*
X136275867Y-71856914D01*
X136243557Y-71796467D01*
X136226384Y-71739853D01*
X136192037Y-71626627D01*
X136174641Y-71450000D01*
X136192037Y-71273373D01*
X136226384Y-71160147D01*
X136243557Y-71103533D01*
X136327221Y-70947011D01*
X136327222Y-70947009D01*
X136356552Y-70911271D01*
X136439814Y-70809814D01*
X136541271Y-70726552D01*
X136577009Y-70697222D01*
X136594913Y-70687652D01*
X136733533Y-70613557D01*
X136806764Y-70591343D01*
X136903373Y-70562037D01*
X136969558Y-70555518D01*
X137035740Y-70549000D01*
X137124260Y-70549000D01*
X137190442Y-70555518D01*
X137190442Y-70555518D01*
G37*
G36*
X134650442Y-70555518D02*
X134716627Y-70562037D01*
X134813236Y-70591343D01*
X134886467Y-70613557D01*
X135025087Y-70687652D01*
X135042991Y-70697222D01*
X135078729Y-70726552D01*
X135180186Y-70809814D01*
X135263448Y-70911271D01*
X135292778Y-70947009D01*
X135292779Y-70947011D01*
X135376443Y-71103533D01*
X135393616Y-71160147D01*
X135427963Y-71273373D01*
X135445359Y-71450000D01*
X135427963Y-71626627D01*
X135393616Y-71739853D01*
X135376443Y-71796467D01*
X135344133Y-71856914D01*
X135292778Y-71952991D01*
X135263448Y-71988729D01*
X135180186Y-72090186D01*
X135078729Y-72173448D01*
X135042991Y-72202778D01*
X135042989Y-72202779D01*
X134886467Y-72286443D01*
X134829853Y-72303616D01*
X134716627Y-72337963D01*
X134650443Y-72344481D01*
X134584260Y-72351000D01*
X134495740Y-72351000D01*
X134429557Y-72344481D01*
X134363373Y-72337963D01*
X134250147Y-72303616D01*
X134193533Y-72286443D01*
X134037011Y-72202779D01*
X134037009Y-72202778D01*
X134001271Y-72173448D01*
X133899814Y-72090186D01*
X133816552Y-71988729D01*
X133787222Y-71952991D01*
X133735867Y-71856914D01*
X133703557Y-71796467D01*
X133686384Y-71739853D01*
X133652037Y-71626627D01*
X133634641Y-71450000D01*
X133652037Y-71273373D01*
X133686384Y-71160147D01*
X133703557Y-71103533D01*
X133787221Y-70947011D01*
X133787222Y-70947009D01*
X133816552Y-70911271D01*
X133899814Y-70809814D01*
X134001271Y-70726552D01*
X134037009Y-70697222D01*
X134054913Y-70687652D01*
X134193533Y-70613557D01*
X134266764Y-70591343D01*
X134363373Y-70562037D01*
X134429558Y-70555518D01*
X134495740Y-70549000D01*
X134584260Y-70549000D01*
X134650442Y-70555518D01*
X134650442Y-70555518D01*
G37*
G36*
X154970442Y-70555518D02*
X155036627Y-70562037D01*
X155133236Y-70591343D01*
X155206467Y-70613557D01*
X155345087Y-70687652D01*
X155362991Y-70697222D01*
X155398729Y-70726552D01*
X155500186Y-70809814D01*
X155583448Y-70911271D01*
X155612778Y-70947009D01*
X155612779Y-70947011D01*
X155696443Y-71103533D01*
X155713616Y-71160147D01*
X155747963Y-71273373D01*
X155765359Y-71450000D01*
X155747963Y-71626627D01*
X155713616Y-71739853D01*
X155696443Y-71796467D01*
X155664133Y-71856914D01*
X155612778Y-71952991D01*
X155583448Y-71988729D01*
X155500186Y-72090186D01*
X155398729Y-72173448D01*
X155362991Y-72202778D01*
X155362989Y-72202779D01*
X155206467Y-72286443D01*
X155149853Y-72303616D01*
X155036627Y-72337963D01*
X154970443Y-72344481D01*
X154904260Y-72351000D01*
X154815740Y-72351000D01*
X154749557Y-72344481D01*
X154683373Y-72337963D01*
X154570147Y-72303616D01*
X154513533Y-72286443D01*
X154357011Y-72202779D01*
X154357009Y-72202778D01*
X154321271Y-72173448D01*
X154219814Y-72090186D01*
X154136552Y-71988729D01*
X154107222Y-71952991D01*
X154055867Y-71856914D01*
X154023557Y-71796467D01*
X154006384Y-71739853D01*
X153972037Y-71626627D01*
X153954641Y-71450000D01*
X153972037Y-71273373D01*
X154006384Y-71160147D01*
X154023557Y-71103533D01*
X154107221Y-70947011D01*
X154107222Y-70947009D01*
X154136552Y-70911271D01*
X154219814Y-70809814D01*
X154321271Y-70726552D01*
X154357009Y-70697222D01*
X154374913Y-70687652D01*
X154513533Y-70613557D01*
X154586764Y-70591343D01*
X154683373Y-70562037D01*
X154749558Y-70555518D01*
X154815740Y-70549000D01*
X154904260Y-70549000D01*
X154970442Y-70555518D01*
X154970442Y-70555518D01*
G37*
G36*
X132110442Y-70555518D02*
X132176627Y-70562037D01*
X132273236Y-70591343D01*
X132346467Y-70613557D01*
X132485087Y-70687652D01*
X132502991Y-70697222D01*
X132538729Y-70726552D01*
X132640186Y-70809814D01*
X132723448Y-70911271D01*
X132752778Y-70947009D01*
X132752779Y-70947011D01*
X132836443Y-71103533D01*
X132853616Y-71160147D01*
X132887963Y-71273373D01*
X132905359Y-71450000D01*
X132887963Y-71626627D01*
X132853616Y-71739853D01*
X132836443Y-71796467D01*
X132804133Y-71856914D01*
X132752778Y-71952991D01*
X132723448Y-71988729D01*
X132640186Y-72090186D01*
X132538729Y-72173448D01*
X132502991Y-72202778D01*
X132502989Y-72202779D01*
X132346467Y-72286443D01*
X132289853Y-72303616D01*
X132176627Y-72337963D01*
X132110443Y-72344481D01*
X132044260Y-72351000D01*
X131955740Y-72351000D01*
X131889557Y-72344481D01*
X131823373Y-72337963D01*
X131710147Y-72303616D01*
X131653533Y-72286443D01*
X131497011Y-72202779D01*
X131497009Y-72202778D01*
X131461271Y-72173448D01*
X131359814Y-72090186D01*
X131276552Y-71988729D01*
X131247222Y-71952991D01*
X131195867Y-71856914D01*
X131163557Y-71796467D01*
X131146384Y-71739853D01*
X131112037Y-71626627D01*
X131094641Y-71450000D01*
X131112037Y-71273373D01*
X131146384Y-71160147D01*
X131163557Y-71103533D01*
X131247221Y-70947011D01*
X131247222Y-70947009D01*
X131276552Y-70911271D01*
X131359814Y-70809814D01*
X131461271Y-70726552D01*
X131497009Y-70697222D01*
X131514913Y-70687652D01*
X131653533Y-70613557D01*
X131726764Y-70591343D01*
X131823373Y-70562037D01*
X131889558Y-70555518D01*
X131955740Y-70549000D01*
X132044260Y-70549000D01*
X132110442Y-70555518D01*
X132110442Y-70555518D01*
G37*
G36*
X152430442Y-70555518D02*
X152496627Y-70562037D01*
X152593236Y-70591343D01*
X152666467Y-70613557D01*
X152805087Y-70687652D01*
X152822991Y-70697222D01*
X152858729Y-70726552D01*
X152960186Y-70809814D01*
X153043448Y-70911271D01*
X153072778Y-70947009D01*
X153072779Y-70947011D01*
X153156443Y-71103533D01*
X153173616Y-71160147D01*
X153207963Y-71273373D01*
X153225359Y-71450000D01*
X153207963Y-71626627D01*
X153173616Y-71739853D01*
X153156443Y-71796467D01*
X153124133Y-71856914D01*
X153072778Y-71952991D01*
X153043448Y-71988729D01*
X152960186Y-72090186D01*
X152858729Y-72173448D01*
X152822991Y-72202778D01*
X152822989Y-72202779D01*
X152666467Y-72286443D01*
X152609853Y-72303616D01*
X152496627Y-72337963D01*
X152430443Y-72344481D01*
X152364260Y-72351000D01*
X152275740Y-72351000D01*
X152209557Y-72344481D01*
X152143373Y-72337963D01*
X152030147Y-72303616D01*
X151973533Y-72286443D01*
X151817011Y-72202779D01*
X151817009Y-72202778D01*
X151781271Y-72173448D01*
X151679814Y-72090186D01*
X151596552Y-71988729D01*
X151567222Y-71952991D01*
X151515867Y-71856914D01*
X151483557Y-71796467D01*
X151466384Y-71739853D01*
X151432037Y-71626627D01*
X151414641Y-71450000D01*
X151432037Y-71273373D01*
X151466384Y-71160147D01*
X151483557Y-71103533D01*
X151567221Y-70947011D01*
X151567222Y-70947009D01*
X151596552Y-70911271D01*
X151679814Y-70809814D01*
X151781271Y-70726552D01*
X151817009Y-70697222D01*
X151834913Y-70687652D01*
X151973533Y-70613557D01*
X152046764Y-70591343D01*
X152143373Y-70562037D01*
X152209558Y-70555518D01*
X152275740Y-70549000D01*
X152364260Y-70549000D01*
X152430442Y-70555518D01*
X152430442Y-70555518D01*
G37*
G36*
X129570442Y-70555518D02*
X129636627Y-70562037D01*
X129733236Y-70591343D01*
X129806467Y-70613557D01*
X129945087Y-70687652D01*
X129962991Y-70697222D01*
X129998729Y-70726552D01*
X130100186Y-70809814D01*
X130183448Y-70911271D01*
X130212778Y-70947009D01*
X130212779Y-70947011D01*
X130296443Y-71103533D01*
X130313616Y-71160147D01*
X130347963Y-71273373D01*
X130365359Y-71450000D01*
X130347963Y-71626627D01*
X130313616Y-71739853D01*
X130296443Y-71796467D01*
X130264133Y-71856914D01*
X130212778Y-71952991D01*
X130183448Y-71988729D01*
X130100186Y-72090186D01*
X129998729Y-72173448D01*
X129962991Y-72202778D01*
X129962989Y-72202779D01*
X129806467Y-72286443D01*
X129749853Y-72303616D01*
X129636627Y-72337963D01*
X129570443Y-72344481D01*
X129504260Y-72351000D01*
X129415740Y-72351000D01*
X129349557Y-72344481D01*
X129283373Y-72337963D01*
X129170147Y-72303616D01*
X129113533Y-72286443D01*
X128957011Y-72202779D01*
X128957009Y-72202778D01*
X128921271Y-72173448D01*
X128819814Y-72090186D01*
X128736552Y-71988729D01*
X128707222Y-71952991D01*
X128655867Y-71856914D01*
X128623557Y-71796467D01*
X128606384Y-71739853D01*
X128572037Y-71626627D01*
X128554641Y-71450000D01*
X128572037Y-71273373D01*
X128606384Y-71160147D01*
X128623557Y-71103533D01*
X128707221Y-70947011D01*
X128707222Y-70947009D01*
X128736552Y-70911271D01*
X128819814Y-70809814D01*
X128921271Y-70726552D01*
X128957009Y-70697222D01*
X128974913Y-70687652D01*
X129113533Y-70613557D01*
X129186764Y-70591343D01*
X129283373Y-70562037D01*
X129349558Y-70555518D01*
X129415740Y-70549000D01*
X129504260Y-70549000D01*
X129570442Y-70555518D01*
X129570442Y-70555518D01*
G37*
G36*
X149890442Y-70555518D02*
X149956627Y-70562037D01*
X150053236Y-70591343D01*
X150126467Y-70613557D01*
X150265087Y-70687652D01*
X150282991Y-70697222D01*
X150318729Y-70726552D01*
X150420186Y-70809814D01*
X150503448Y-70911271D01*
X150532778Y-70947009D01*
X150532779Y-70947011D01*
X150616443Y-71103533D01*
X150633616Y-71160147D01*
X150667963Y-71273373D01*
X150685359Y-71450000D01*
X150667963Y-71626627D01*
X150633616Y-71739853D01*
X150616443Y-71796467D01*
X150584133Y-71856914D01*
X150532778Y-71952991D01*
X150503448Y-71988729D01*
X150420186Y-72090186D01*
X150318729Y-72173448D01*
X150282991Y-72202778D01*
X150282989Y-72202779D01*
X150126467Y-72286443D01*
X150069853Y-72303616D01*
X149956627Y-72337963D01*
X149890443Y-72344481D01*
X149824260Y-72351000D01*
X149735740Y-72351000D01*
X149669557Y-72344481D01*
X149603373Y-72337963D01*
X149490147Y-72303616D01*
X149433533Y-72286443D01*
X149277011Y-72202779D01*
X149277009Y-72202778D01*
X149241271Y-72173448D01*
X149139814Y-72090186D01*
X149056552Y-71988729D01*
X149027222Y-71952991D01*
X148975867Y-71856914D01*
X148943557Y-71796467D01*
X148926384Y-71739853D01*
X148892037Y-71626627D01*
X148874641Y-71450000D01*
X148892037Y-71273373D01*
X148926384Y-71160147D01*
X148943557Y-71103533D01*
X149027221Y-70947011D01*
X149027222Y-70947009D01*
X149056552Y-70911271D01*
X149139814Y-70809814D01*
X149241271Y-70726552D01*
X149277009Y-70697222D01*
X149294913Y-70687652D01*
X149433533Y-70613557D01*
X149506764Y-70591343D01*
X149603373Y-70562037D01*
X149669558Y-70555518D01*
X149735740Y-70549000D01*
X149824260Y-70549000D01*
X149890442Y-70555518D01*
X149890442Y-70555518D01*
G37*
G36*
X147350442Y-70555518D02*
X147416627Y-70562037D01*
X147513236Y-70591343D01*
X147586467Y-70613557D01*
X147725087Y-70687652D01*
X147742991Y-70697222D01*
X147778729Y-70726552D01*
X147880186Y-70809814D01*
X147963448Y-70911271D01*
X147992778Y-70947009D01*
X147992779Y-70947011D01*
X148076443Y-71103533D01*
X148093616Y-71160147D01*
X148127963Y-71273373D01*
X148145359Y-71450000D01*
X148127963Y-71626627D01*
X148093616Y-71739853D01*
X148076443Y-71796467D01*
X148044133Y-71856914D01*
X147992778Y-71952991D01*
X147963448Y-71988729D01*
X147880186Y-72090186D01*
X147778729Y-72173448D01*
X147742991Y-72202778D01*
X147742989Y-72202779D01*
X147586467Y-72286443D01*
X147529853Y-72303616D01*
X147416627Y-72337963D01*
X147350443Y-72344481D01*
X147284260Y-72351000D01*
X147195740Y-72351000D01*
X147129557Y-72344481D01*
X147063373Y-72337963D01*
X146950147Y-72303616D01*
X146893533Y-72286443D01*
X146737011Y-72202779D01*
X146737009Y-72202778D01*
X146701271Y-72173448D01*
X146599814Y-72090186D01*
X146516552Y-71988729D01*
X146487222Y-71952991D01*
X146435867Y-71856914D01*
X146403557Y-71796467D01*
X146386384Y-71739853D01*
X146352037Y-71626627D01*
X146334641Y-71450000D01*
X146352037Y-71273373D01*
X146386384Y-71160147D01*
X146403557Y-71103533D01*
X146487221Y-70947011D01*
X146487222Y-70947009D01*
X146516552Y-70911271D01*
X146599814Y-70809814D01*
X146701271Y-70726552D01*
X146737009Y-70697222D01*
X146754913Y-70687652D01*
X146893533Y-70613557D01*
X146966764Y-70591343D01*
X147063373Y-70562037D01*
X147129558Y-70555518D01*
X147195740Y-70549000D01*
X147284260Y-70549000D01*
X147350442Y-70555518D01*
X147350442Y-70555518D01*
G37*
G36*
X178541981Y-67787468D02*
X178724150Y-67862925D01*
X178888103Y-67972475D01*
X179027525Y-68111897D01*
X179137075Y-68275850D01*
X179212532Y-68458019D01*
X179251000Y-68651410D01*
X179251000Y-68848590D01*
X179212532Y-69041981D01*
X179137075Y-69224150D01*
X179027525Y-69388103D01*
X178888103Y-69527525D01*
X178724150Y-69637075D01*
X178541981Y-69712532D01*
X178348590Y-69751000D01*
X178151410Y-69751000D01*
X177958019Y-69712532D01*
X177775850Y-69637075D01*
X177611897Y-69527525D01*
X177472475Y-69388103D01*
X177362925Y-69224150D01*
X177287468Y-69041981D01*
X177249000Y-68848590D01*
X177249000Y-68651410D01*
X177287468Y-68458019D01*
X177362925Y-68275850D01*
X177472475Y-68111897D01*
X177611897Y-67972475D01*
X177775850Y-67862925D01*
X177958019Y-67787468D01*
X178151410Y-67749000D01*
X178348590Y-67749000D01*
X178541981Y-67787468D01*
X178541981Y-67787468D01*
G37*
G36*
X171541981Y-67787468D02*
X171724150Y-67862925D01*
X171888103Y-67972475D01*
X172027525Y-68111897D01*
X172137075Y-68275850D01*
X172212532Y-68458019D01*
X172251000Y-68651410D01*
X172251000Y-68848590D01*
X172212532Y-69041981D01*
X172137075Y-69224150D01*
X172027525Y-69388103D01*
X171888103Y-69527525D01*
X171724150Y-69637075D01*
X171541981Y-69712532D01*
X171348590Y-69751000D01*
X171151410Y-69751000D01*
X170958019Y-69712532D01*
X170775850Y-69637075D01*
X170611897Y-69527525D01*
X170472475Y-69388103D01*
X170362925Y-69224150D01*
X170287468Y-69041981D01*
X170249000Y-68848590D01*
X170249000Y-68651410D01*
X170287468Y-68458019D01*
X170362925Y-68275850D01*
X170472475Y-68111897D01*
X170611897Y-67972475D01*
X170775850Y-67862925D01*
X170958019Y-67787468D01*
X171151410Y-67749000D01*
X171348590Y-67749000D01*
X171541981Y-67787468D01*
X171541981Y-67787468D01*
G37*
G36*
X93541981Y-67787468D02*
X93724150Y-67862925D01*
X93888103Y-67972475D01*
X94027525Y-68111897D01*
X94137075Y-68275850D01*
X94212532Y-68458019D01*
X94251000Y-68651410D01*
X94251000Y-68848590D01*
X94212532Y-69041981D01*
X94137075Y-69224150D01*
X94027525Y-69388103D01*
X93888103Y-69527525D01*
X93724150Y-69637075D01*
X93541981Y-69712532D01*
X93348590Y-69751000D01*
X93151410Y-69751000D01*
X92958019Y-69712532D01*
X92775850Y-69637075D01*
X92611897Y-69527525D01*
X92472475Y-69388103D01*
X92362925Y-69224150D01*
X92287468Y-69041981D01*
X92249000Y-68848590D01*
X92249000Y-68651410D01*
X92287468Y-68458019D01*
X92362925Y-68275850D01*
X92472475Y-68111897D01*
X92611897Y-67972475D01*
X92775850Y-67862925D01*
X92958019Y-67787468D01*
X93151410Y-67749000D01*
X93348590Y-67749000D01*
X93541981Y-67787468D01*
X93541981Y-67787468D01*
G37*
G36*
X100541981Y-67787468D02*
X100724150Y-67862925D01*
X100888103Y-67972475D01*
X101027525Y-68111897D01*
X101137075Y-68275850D01*
X101212532Y-68458019D01*
X101251000Y-68651410D01*
X101251000Y-68848590D01*
X101212532Y-69041981D01*
X101137075Y-69224150D01*
X101027525Y-69388103D01*
X100888103Y-69527525D01*
X100724150Y-69637075D01*
X100541981Y-69712532D01*
X100348590Y-69751000D01*
X100151410Y-69751000D01*
X99958019Y-69712532D01*
X99775850Y-69637075D01*
X99611897Y-69527525D01*
X99472475Y-69388103D01*
X99362925Y-69224150D01*
X99287468Y-69041981D01*
X99249000Y-68848590D01*
X99249000Y-68651410D01*
X99287468Y-68458019D01*
X99362925Y-68275850D01*
X99472475Y-68111897D01*
X99611897Y-67972475D01*
X99775850Y-67862925D01*
X99958019Y-67787468D01*
X100151410Y-67749000D01*
X100348590Y-67749000D01*
X100541981Y-67787468D01*
X100541981Y-67787468D01*
G37*
G36*
X99248228Y-65431703D02*
X99403100Y-65495853D01*
X99542481Y-65588985D01*
X99661015Y-65707519D01*
X99754147Y-65846900D01*
X99818297Y-66001772D01*
X99851000Y-66166184D01*
X99851000Y-66333816D01*
X99818297Y-66498228D01*
X99754147Y-66653100D01*
X99661015Y-66792481D01*
X99542481Y-66911015D01*
X99403100Y-67004147D01*
X99248228Y-67068297D01*
X99083816Y-67101000D01*
X98916184Y-67101000D01*
X98751772Y-67068297D01*
X98596900Y-67004147D01*
X98457519Y-66911015D01*
X98338985Y-66792481D01*
X98245853Y-66653100D01*
X98181703Y-66498228D01*
X98149000Y-66333816D01*
X98149000Y-66166184D01*
X98181703Y-66001772D01*
X98245853Y-65846900D01*
X98338985Y-65707519D01*
X98457519Y-65588985D01*
X98596900Y-65495853D01*
X98751772Y-65431703D01*
X98916184Y-65399000D01*
X99083816Y-65399000D01*
X99248228Y-65431703D01*
X99248228Y-65431703D01*
G37*
G36*
X94748228Y-65431703D02*
X94903100Y-65495853D01*
X95042481Y-65588985D01*
X95161015Y-65707519D01*
X95254147Y-65846900D01*
X95318297Y-66001772D01*
X95351000Y-66166184D01*
X95351000Y-66333816D01*
X95318297Y-66498228D01*
X95254147Y-66653100D01*
X95161015Y-66792481D01*
X95042481Y-66911015D01*
X94903100Y-67004147D01*
X94748228Y-67068297D01*
X94583816Y-67101000D01*
X94416184Y-67101000D01*
X94251772Y-67068297D01*
X94096900Y-67004147D01*
X93957519Y-66911015D01*
X93838985Y-66792481D01*
X93745853Y-66653100D01*
X93681703Y-66498228D01*
X93649000Y-66333816D01*
X93649000Y-66166184D01*
X93681703Y-66001772D01*
X93745853Y-65846900D01*
X93838985Y-65707519D01*
X93957519Y-65588985D01*
X94096900Y-65495853D01*
X94251772Y-65431703D01*
X94416184Y-65399000D01*
X94583816Y-65399000D01*
X94748228Y-65431703D01*
X94748228Y-65431703D01*
G37*
G36*
X177248228Y-65431703D02*
X177403100Y-65495853D01*
X177542481Y-65588985D01*
X177661015Y-65707519D01*
X177754147Y-65846900D01*
X177818297Y-66001772D01*
X177851000Y-66166184D01*
X177851000Y-66333816D01*
X177818297Y-66498228D01*
X177754147Y-66653100D01*
X177661015Y-66792481D01*
X177542481Y-66911015D01*
X177403100Y-67004147D01*
X177248228Y-67068297D01*
X177083816Y-67101000D01*
X176916184Y-67101000D01*
X176751772Y-67068297D01*
X176596900Y-67004147D01*
X176457519Y-66911015D01*
X176338985Y-66792481D01*
X176245853Y-66653100D01*
X176181703Y-66498228D01*
X176149000Y-66333816D01*
X176149000Y-66166184D01*
X176181703Y-66001772D01*
X176245853Y-65846900D01*
X176338985Y-65707519D01*
X176457519Y-65588985D01*
X176596900Y-65495853D01*
X176751772Y-65431703D01*
X176916184Y-65399000D01*
X177083816Y-65399000D01*
X177248228Y-65431703D01*
X177248228Y-65431703D01*
G37*
G36*
X172748228Y-65431703D02*
X172903100Y-65495853D01*
X173042481Y-65588985D01*
X173161015Y-65707519D01*
X173254147Y-65846900D01*
X173318297Y-66001772D01*
X173351000Y-66166184D01*
X173351000Y-66333816D01*
X173318297Y-66498228D01*
X173254147Y-66653100D01*
X173161015Y-66792481D01*
X173042481Y-66911015D01*
X172903100Y-67004147D01*
X172748228Y-67068297D01*
X172583816Y-67101000D01*
X172416184Y-67101000D01*
X172251772Y-67068297D01*
X172096900Y-67004147D01*
X171957519Y-66911015D01*
X171838985Y-66792481D01*
X171745853Y-66653100D01*
X171681703Y-66498228D01*
X171649000Y-66333816D01*
X171649000Y-66166184D01*
X171681703Y-66001772D01*
X171745853Y-65846900D01*
X171838985Y-65707519D01*
X171957519Y-65588985D01*
X172096900Y-65495853D01*
X172251772Y-65431703D01*
X172416184Y-65399000D01*
X172583816Y-65399000D01*
X172748228Y-65431703D01*
X172748228Y-65431703D01*
G37*
M02*
