M48
;DRILL file {KiCad (5.0.2)-1} date 11/2/2019 1:01:49 AM
;FORMAT={-:-/ absolute / inch / decimal}
FMAT,2
INCH,TZ
T1C0.0157
T2C0.0394
T3C0.0400
T4C0.0433
T5C0.0591
%
G90
G05
T1
X5.3071Y-3.5984
X5.3071Y-3.9291
T2
X6.8012Y-2.5984
X6.9783Y-2.5984
X3.7205Y-2.5984
X3.8976Y-2.5984
X4.7969Y-2.8228
X4.7969Y-2.9228
X4.8969Y-2.8228
X4.8969Y-2.9228
X4.9969Y-2.8228
X4.9969Y-2.9228
X5.0969Y-2.8228
X5.0969Y-2.9228
X5.1969Y-2.8228
X5.1969Y-2.9228
X5.2969Y-2.8228
X5.2969Y-2.9228
X5.3969Y-2.8228
X5.3969Y-2.9228
X5.4969Y-2.8228
X5.4969Y-2.9228
X5.5969Y-2.8228
X5.5969Y-2.9228
X5.6969Y-2.8228
X5.6969Y-2.9228
X5.7969Y-2.8228
X5.7969Y-2.9228
X5.8969Y-2.8228
X5.8969Y-2.9228
X5.9969Y-2.8228
X5.9969Y-2.9228
X6.0969Y-2.8228
X6.0969Y-2.9228
X6.1969Y-2.8228
X6.1969Y-2.9228
X6.2969Y-2.8228
X6.2969Y-2.9228
X6.3969Y-2.8228
X6.3969Y-2.9228
X6.4969Y-2.8228
X6.4969Y-2.9228
X6.5969Y-2.8228
X6.5969Y-2.9228
X6.6969Y-2.8228
X6.6969Y-2.9228
X4.7969Y-4.752
X4.7969Y-4.852
X4.8969Y-4.752
X4.8969Y-4.852
X4.9969Y-4.752
X4.9969Y-4.852
X5.0969Y-4.752
X5.0969Y-4.852
X5.1969Y-4.752
X5.1969Y-4.852
X5.2969Y-4.752
X5.2969Y-4.852
X5.3969Y-4.752
X5.3969Y-4.852
X5.4969Y-4.752
X5.4969Y-4.852
X5.5969Y-4.752
X5.5969Y-4.852
X5.6969Y-4.752
X5.6969Y-4.852
X5.7969Y-4.752
X5.7969Y-4.852
X5.8969Y-4.752
X5.8969Y-4.852
X5.9969Y-4.752
X5.9969Y-4.852
X6.0969Y-4.752
X6.0969Y-4.852
X6.1969Y-4.752
X6.1969Y-4.852
X6.2969Y-4.752
X6.2969Y-4.852
X6.3969Y-4.752
X6.3969Y-4.852
X6.4969Y-4.752
X6.4969Y-4.852
X6.5969Y-4.752
X6.5969Y-4.852
X6.6969Y-4.752
X6.6969Y-4.852
T3
X4.5984Y-3.6614
X4.6929Y-3.7717
X4.748Y-3.9055
X4.7874Y-2.685
X4.8819Y-3.3858
X5.063Y-2.748
X6.189Y-4.1417
X6.2677Y-4.0043
X6.3858Y-4.0079
X6.4409Y-3.5197
X6.7008Y-4.622
X6.8031Y-3.0157
T4
X7.124Y-3.6713
X7.124Y-3.8386
X7.4587Y-3.6713
X7.4587Y-3.8386
X4.8077Y-3.6713
X4.8077Y-3.8386
X5.1424Y-3.6713
X5.1424Y-3.8386
X3.2559Y-3.6713
X3.2559Y-3.8386
X3.5906Y-3.6713
X3.5906Y-3.8386
X6.3366Y-3.6713
X6.3366Y-3.8386
X6.6713Y-3.6713
X6.6713Y-3.8386
X3.6496Y-3.376
X3.6496Y-3.5433
X3.9843Y-3.376
X3.9843Y-3.5433
X6.7303Y-3.9665
X6.7303Y-4.1339
X7.065Y-3.9665
X7.065Y-4.1339
X4.0433Y-3.6713
X4.0433Y-3.8386
X4.378Y-3.6713
X4.378Y-3.8386
X3.6496Y-3.9665
X3.6496Y-4.1339
X3.9843Y-3.9665
X3.9843Y-4.1339
X6.7303Y-3.376
X6.7303Y-3.5433
X7.065Y-3.376
X7.065Y-3.5433
X5.5722Y-3.6713
X5.5722Y-3.8386
X5.9068Y-3.6713
X5.9068Y-3.8386
T5
X6.752Y-2.6969
X7.0276Y-2.6969
X3.6713Y-2.6969
X3.9469Y-2.6969
T0
M30
