G04 #@! TF.GenerationSoftware,KiCad,Pcbnew,(5.0.2)-1*
G04 #@! TF.CreationDate,2019-10-01T23:20:30-04:00*
G04 #@! TF.ProjectId,gamepad,67616d65-7061-4642-9e6b-696361645f70,rev?*
G04 #@! TF.SameCoordinates,Original*
G04 #@! TF.FileFunction,Legend,Bot*
G04 #@! TF.FilePolarity,Positive*
%FSLAX46Y46*%
G04 Gerber Fmt 4.6, Leading zero omitted, Abs format (unit mm)*
G04 Created by KiCad (PCBNEW (5.0.2)-1) date 10/1/2019 11:20:30 PM*
%MOMM*%
%LPD*%
G01*
G04 APERTURE LIST*
%ADD10C,0.120000*%
%ADD11C,0.150000*%
G04 APERTURE END LIST*
D10*
G04 #@! TO.C,JP2*
X161430000Y-122570000D02*
X161430000Y-119970000D01*
X161430000Y-122570000D02*
X110510000Y-122570000D01*
X110510000Y-122570000D02*
X110510000Y-117370000D01*
X158830000Y-117370000D02*
X110510000Y-117370000D01*
X158830000Y-119970000D02*
X158830000Y-117370000D01*
X161430000Y-119970000D02*
X158830000Y-119970000D01*
X161430000Y-117370000D02*
X160100000Y-117370000D01*
X161430000Y-118700000D02*
X161430000Y-117370000D01*
D11*
G04 #@! TO.C,SW5*
X93050000Y-64150000D02*
X100450000Y-64150000D01*
X93050000Y-64150000D02*
X93050000Y-67650000D01*
X100450000Y-64150000D02*
X100450000Y-67650000D01*
X93750000Y-67550000D02*
X99750000Y-67550000D01*
X99750000Y-67550000D02*
X99750000Y-67650000D01*
X93750000Y-67550000D02*
X93750000Y-67650000D01*
G04 #@! TO.C,SW6*
X171750000Y-67550000D02*
X171750000Y-67650000D01*
X177750000Y-67550000D02*
X177750000Y-67650000D01*
X171750000Y-67550000D02*
X177750000Y-67550000D01*
X178450000Y-64150000D02*
X178450000Y-67650000D01*
X171050000Y-64150000D02*
X171050000Y-67650000D01*
X171050000Y-64150000D02*
X178450000Y-64150000D01*
G04 #@! TO.C,JP2*
X162322380Y-119136666D02*
X163036666Y-119136666D01*
X163179523Y-119089047D01*
X163274761Y-118993809D01*
X163322380Y-118850952D01*
X163322380Y-118755714D01*
X163322380Y-119612857D02*
X162322380Y-119612857D01*
X162322380Y-119993809D01*
X162370000Y-120089047D01*
X162417619Y-120136666D01*
X162512857Y-120184285D01*
X162655714Y-120184285D01*
X162750952Y-120136666D01*
X162798571Y-120089047D01*
X162846190Y-119993809D01*
X162846190Y-119612857D01*
X162417619Y-120565238D02*
X162370000Y-120612857D01*
X162322380Y-120708095D01*
X162322380Y-120946190D01*
X162370000Y-121041428D01*
X162417619Y-121089047D01*
X162512857Y-121136666D01*
X162608095Y-121136666D01*
X162750952Y-121089047D01*
X163322380Y-120517619D01*
X163322380Y-121136666D01*
G04 #@! TO.C,SW5*
X98083333Y-69254761D02*
X97940476Y-69302380D01*
X97702380Y-69302380D01*
X97607142Y-69254761D01*
X97559523Y-69207142D01*
X97511904Y-69111904D01*
X97511904Y-69016666D01*
X97559523Y-68921428D01*
X97607142Y-68873809D01*
X97702380Y-68826190D01*
X97892857Y-68778571D01*
X97988095Y-68730952D01*
X98035714Y-68683333D01*
X98083333Y-68588095D01*
X98083333Y-68492857D01*
X98035714Y-68397619D01*
X97988095Y-68350000D01*
X97892857Y-68302380D01*
X97654761Y-68302380D01*
X97511904Y-68350000D01*
X97178571Y-68302380D02*
X96940476Y-69302380D01*
X96750000Y-68588095D01*
X96559523Y-69302380D01*
X96321428Y-68302380D01*
X95464285Y-68302380D02*
X95940476Y-68302380D01*
X95988095Y-68778571D01*
X95940476Y-68730952D01*
X95845238Y-68683333D01*
X95607142Y-68683333D01*
X95511904Y-68730952D01*
X95464285Y-68778571D01*
X95416666Y-68873809D01*
X95416666Y-69111904D01*
X95464285Y-69207142D01*
X95511904Y-69254761D01*
X95607142Y-69302380D01*
X95845238Y-69302380D01*
X95940476Y-69254761D01*
X95988095Y-69207142D01*
G04 #@! TO.C,SW6*
X176083333Y-69254761D02*
X175940476Y-69302380D01*
X175702380Y-69302380D01*
X175607142Y-69254761D01*
X175559523Y-69207142D01*
X175511904Y-69111904D01*
X175511904Y-69016666D01*
X175559523Y-68921428D01*
X175607142Y-68873809D01*
X175702380Y-68826190D01*
X175892857Y-68778571D01*
X175988095Y-68730952D01*
X176035714Y-68683333D01*
X176083333Y-68588095D01*
X176083333Y-68492857D01*
X176035714Y-68397619D01*
X175988095Y-68350000D01*
X175892857Y-68302380D01*
X175654761Y-68302380D01*
X175511904Y-68350000D01*
X175178571Y-68302380D02*
X174940476Y-69302380D01*
X174750000Y-68588095D01*
X174559523Y-69302380D01*
X174321428Y-68302380D01*
X173511904Y-68302380D02*
X173702380Y-68302380D01*
X173797619Y-68350000D01*
X173845238Y-68397619D01*
X173940476Y-68540476D01*
X173988095Y-68730952D01*
X173988095Y-69111904D01*
X173940476Y-69207142D01*
X173892857Y-69254761D01*
X173797619Y-69302380D01*
X173607142Y-69302380D01*
X173511904Y-69254761D01*
X173464285Y-69207142D01*
X173416666Y-69111904D01*
X173416666Y-68873809D01*
X173464285Y-68778571D01*
X173511904Y-68730952D01*
X173607142Y-68683333D01*
X173797619Y-68683333D01*
X173892857Y-68730952D01*
X173940476Y-68778571D01*
X173988095Y-68873809D01*
G04 #@! TD*
M02*
