G04 #@! TF.GenerationSoftware,KiCad,Pcbnew,(5.0.2)-1*
G04 #@! TF.CreationDate,2019-10-01T23:20:30-04:00*
G04 #@! TF.ProjectId,gamepad,67616d65-7061-4642-9e6b-696361645f70,rev?*
G04 #@! TF.SameCoordinates,Original*
G04 #@! TF.FileFunction,Legend,Top*
G04 #@! TF.FilePolarity,Positive*
%FSLAX46Y46*%
G04 Gerber Fmt 4.6, Leading zero omitted, Abs format (unit mm)*
G04 Created by KiCad (PCBNEW (5.0.2)-1) date 10/1/2019 11:20:30 PM*
%MOMM*%
%LPD*%
G01*
G04 APERTURE LIST*
%ADD10C,0.381000*%
%ADD11C,0.200000*%
%ADD12C,0.120000*%
%ADD13C,0.010000*%
%ADD14C,0.150000*%
%ADD15C,0.254000*%
G04 APERTURE END LIST*
D10*
X115519019Y-112669238D02*
X115773019Y-110637238D01*
X116256829Y-110637238D01*
X116535019Y-110734000D01*
X116704353Y-110927523D01*
X116776924Y-111121047D01*
X116825305Y-111508095D01*
X116789019Y-111798380D01*
X116643877Y-112185428D01*
X116522924Y-112378952D01*
X116305210Y-112572476D01*
X116002829Y-112669238D01*
X115519019Y-112669238D01*
X118337210Y-112572476D02*
X118131591Y-112669238D01*
X117744543Y-112669238D01*
X117563115Y-112572476D01*
X117490543Y-112378952D01*
X117587305Y-111604857D01*
X117708258Y-111411333D01*
X117913877Y-111314571D01*
X118300924Y-111314571D01*
X118482353Y-111411333D01*
X118554924Y-111604857D01*
X118530734Y-111798380D01*
X117538924Y-111991904D01*
X119208067Y-112572476D02*
X119389496Y-112669238D01*
X119776543Y-112669238D01*
X119982162Y-112572476D01*
X120103115Y-112378952D01*
X120115210Y-112282190D01*
X120042638Y-112088666D01*
X119861210Y-111991904D01*
X119570924Y-111991904D01*
X119389496Y-111895142D01*
X119316924Y-111701619D01*
X119329019Y-111604857D01*
X119449972Y-111411333D01*
X119655591Y-111314571D01*
X119945877Y-111314571D01*
X120127305Y-111411333D01*
X120937686Y-112669238D02*
X121107019Y-111314571D01*
X121191686Y-110637238D02*
X121082829Y-110734000D01*
X121167496Y-110830761D01*
X121276353Y-110734000D01*
X121191686Y-110637238D01*
X121167496Y-110830761D01*
X122945496Y-111314571D02*
X122739877Y-112959523D01*
X122618924Y-113153047D01*
X122510067Y-113249809D01*
X122304448Y-113346571D01*
X122014162Y-113346571D01*
X121832734Y-113249809D01*
X122788258Y-112572476D02*
X122582638Y-112669238D01*
X122195591Y-112669238D01*
X122014162Y-112572476D01*
X121929496Y-112475714D01*
X121856924Y-112282190D01*
X121929496Y-111701619D01*
X122050448Y-111508095D01*
X122159305Y-111411333D01*
X122364924Y-111314571D01*
X122751972Y-111314571D01*
X122933400Y-111411333D01*
X123913115Y-111314571D02*
X123743781Y-112669238D01*
X123888924Y-111508095D02*
X123997781Y-111411333D01*
X124203400Y-111314571D01*
X124493686Y-111314571D01*
X124675115Y-111411333D01*
X124747686Y-111604857D01*
X124614638Y-112669238D01*
X126368448Y-112572476D02*
X126162829Y-112669238D01*
X125775781Y-112669238D01*
X125594353Y-112572476D01*
X125521781Y-112378952D01*
X125618543Y-111604857D01*
X125739496Y-111411333D01*
X125945115Y-111314571D01*
X126332162Y-111314571D01*
X126513591Y-111411333D01*
X126586162Y-111604857D01*
X126561972Y-111798380D01*
X125570162Y-111991904D01*
X128194829Y-112669238D02*
X128448829Y-110637238D01*
X128206924Y-112572476D02*
X128001305Y-112669238D01*
X127614258Y-112669238D01*
X127432829Y-112572476D01*
X127348162Y-112475714D01*
X127275591Y-112282190D01*
X127348162Y-111701619D01*
X127469115Y-111508095D01*
X127577972Y-111411333D01*
X127783591Y-111314571D01*
X128170638Y-111314571D01*
X128352067Y-111411333D01*
X130710638Y-112669238D02*
X130964638Y-110637238D01*
X130867877Y-111411333D02*
X131073496Y-111314571D01*
X131460543Y-111314571D01*
X131641972Y-111411333D01*
X131726638Y-111508095D01*
X131799210Y-111701619D01*
X131726638Y-112282190D01*
X131605686Y-112475714D01*
X131496829Y-112572476D01*
X131291210Y-112669238D01*
X130904162Y-112669238D01*
X130722734Y-112572476D01*
X132524924Y-111314571D02*
X132839400Y-112669238D01*
X133492543Y-111314571D02*
X132839400Y-112669238D01*
X132585400Y-113153047D01*
X132476543Y-113249809D01*
X132270924Y-113346571D01*
X136480067Y-110637238D02*
X136298638Y-112088666D01*
X136165591Y-112378952D01*
X135947877Y-112572476D01*
X135645496Y-112669238D01*
X135451972Y-112669238D01*
X137483972Y-112669238D02*
X137302543Y-112572476D01*
X137217877Y-112475714D01*
X137145305Y-112282190D01*
X137217877Y-111701619D01*
X137338829Y-111508095D01*
X137447686Y-111411333D01*
X137653305Y-111314571D01*
X137943591Y-111314571D01*
X138125019Y-111411333D01*
X138209686Y-111508095D01*
X138282258Y-111701619D01*
X138209686Y-112282190D01*
X138088734Y-112475714D01*
X137979877Y-112572476D01*
X137774258Y-112669238D01*
X137483972Y-112669238D01*
X139032162Y-112669238D02*
X139286162Y-110637238D01*
X139903019Y-112669238D02*
X140036067Y-111604857D01*
X139963496Y-111411333D01*
X139782067Y-111314571D01*
X139491781Y-111314571D01*
X139286162Y-111411333D01*
X139177305Y-111508095D01*
X141039972Y-111314571D02*
X140870638Y-112669238D01*
X141015781Y-111508095D02*
X141124638Y-111411333D01*
X141330258Y-111314571D01*
X141620543Y-111314571D01*
X141801972Y-111411333D01*
X141874543Y-111604857D01*
X141741496Y-112669238D01*
X144172638Y-112572476D02*
X144450829Y-112669238D01*
X144934638Y-112669238D01*
X145140258Y-112572476D01*
X145249115Y-112475714D01*
X145370067Y-112282190D01*
X145394258Y-112088666D01*
X145321686Y-111895142D01*
X145237019Y-111798380D01*
X145055591Y-111701619D01*
X144680638Y-111604857D01*
X144499210Y-111508095D01*
X144414543Y-111411333D01*
X144341972Y-111217809D01*
X144366162Y-111024285D01*
X144487115Y-110830761D01*
X144595972Y-110734000D01*
X144801591Y-110637238D01*
X145285400Y-110637238D01*
X145563591Y-110734000D01*
X147075496Y-112572476D02*
X146869877Y-112669238D01*
X146482829Y-112669238D01*
X146301400Y-112572476D01*
X146216734Y-112475714D01*
X146144162Y-112282190D01*
X146216734Y-111701619D01*
X146337686Y-111508095D01*
X146446543Y-111411333D01*
X146652162Y-111314571D01*
X147039210Y-111314571D01*
X147220638Y-111411333D01*
X147934258Y-112669238D02*
X148103591Y-111314571D01*
X148188258Y-110637238D02*
X148079400Y-110734000D01*
X148164067Y-110830761D01*
X148272924Y-110734000D01*
X148188258Y-110637238D01*
X148164067Y-110830761D01*
X148901877Y-112669238D02*
X149071210Y-111314571D01*
X149047019Y-111508095D02*
X149155877Y-111411333D01*
X149361496Y-111314571D01*
X149651781Y-111314571D01*
X149833210Y-111411333D01*
X149905781Y-111604857D01*
X149772734Y-112669238D01*
X149905781Y-111604857D02*
X150026734Y-111411333D01*
X150232353Y-111314571D01*
X150522638Y-111314571D01*
X150704067Y-111411333D01*
X150776638Y-111604857D01*
X150643591Y-112669238D01*
X151901496Y-112669238D02*
X151720067Y-112572476D01*
X151635400Y-112475714D01*
X151562829Y-112282190D01*
X151635400Y-111701619D01*
X151756353Y-111508095D01*
X151865210Y-111411333D01*
X152070829Y-111314571D01*
X152361115Y-111314571D01*
X152542543Y-111411333D01*
X152627210Y-111508095D01*
X152699781Y-111701619D01*
X152627210Y-112282190D01*
X152506258Y-112475714D01*
X152397400Y-112572476D01*
X152191781Y-112669238D01*
X151901496Y-112669238D01*
X153619019Y-111314571D02*
X153449686Y-112669238D01*
X153594829Y-111508095D02*
X153703686Y-111411333D01*
X153909305Y-111314571D01*
X154199591Y-111314571D01*
X154381019Y-111411333D01*
X154453591Y-111604857D01*
X154320543Y-112669238D01*
X156074353Y-112572476D02*
X155868734Y-112669238D01*
X155481686Y-112669238D01*
X155300258Y-112572476D01*
X155227686Y-112378952D01*
X155324448Y-111604857D01*
X155445400Y-111411333D01*
X155651019Y-111314571D01*
X156038067Y-111314571D01*
X156219496Y-111411333D01*
X156292067Y-111604857D01*
X156267877Y-111798380D01*
X155276067Y-111991904D01*
D11*
G04 #@! TO.C,SW3*
X117514719Y-98000000D02*
X126000000Y-89514719D01*
X134485281Y-98000000D02*
X126000000Y-106485281D01*
X126000000Y-106485281D02*
X124161522Y-104646804D01*
X117514719Y-98000000D02*
X119353196Y-99838478D01*
X121032575Y-101517856D02*
X122482144Y-102967425D01*
X126000000Y-89514719D02*
X127838478Y-91353196D01*
X129517856Y-93032575D02*
X130967425Y-94482144D01*
X134485281Y-98000000D02*
X132646804Y-96161522D01*
X133316077Y-94096063D02*
G75*
G03X133316077Y-94096063I-102881J0D01*
G01*
G04 #@! TO.C,SW4*
X153316077Y-94096063D02*
G75*
G03X153316077Y-94096063I-102881J0D01*
G01*
X154485281Y-98000000D02*
X152646804Y-96161522D01*
X149517856Y-93032575D02*
X150967425Y-94482144D01*
X146000000Y-89514719D02*
X147838478Y-91353196D01*
X141032575Y-101517856D02*
X142482144Y-102967425D01*
X137514719Y-98000000D02*
X139353196Y-99838478D01*
X146000000Y-106485281D02*
X144161522Y-104646804D01*
X154485281Y-98000000D02*
X146000000Y-106485281D01*
X137514719Y-98000000D02*
X146000000Y-89514719D01*
D12*
G04 #@! TO.C,JP1*
X120510000Y-70120000D02*
X120510000Y-75320000D01*
X168830000Y-70120000D02*
X120510000Y-70120000D01*
X171430000Y-75320000D02*
X120510000Y-75320000D01*
X168830000Y-70120000D02*
X168830000Y-72720000D01*
X168830000Y-72720000D02*
X171430000Y-72720000D01*
X171430000Y-72720000D02*
X171430000Y-75320000D01*
X170100000Y-70120000D02*
X171430000Y-70120000D01*
X171430000Y-70120000D02*
X171430000Y-71450000D01*
D13*
G04 #@! TO.C,REF\002A\002A*
G36*
X123476957Y-78526571D02*
X123573232Y-78550809D01*
X123659816Y-78593641D01*
X123734627Y-78653419D01*
X123795582Y-78728494D01*
X123840601Y-78817220D01*
X123866864Y-78913530D01*
X123872714Y-79010795D01*
X123857860Y-79104654D01*
X123824160Y-79192511D01*
X123773472Y-79271770D01*
X123707655Y-79339836D01*
X123628566Y-79394112D01*
X123538066Y-79432002D01*
X123486800Y-79444426D01*
X123442302Y-79451947D01*
X123408001Y-79454919D01*
X123375040Y-79453094D01*
X123334566Y-79446225D01*
X123301469Y-79439250D01*
X123208053Y-79407741D01*
X123124381Y-79356617D01*
X123052335Y-79287429D01*
X122993800Y-79201728D01*
X122979852Y-79174489D01*
X122963414Y-79138122D01*
X122953106Y-79107582D01*
X122947540Y-79075450D01*
X122945331Y-79034307D01*
X122945052Y-78988222D01*
X122949139Y-78903865D01*
X122962554Y-78834586D01*
X122987744Y-78773961D01*
X123027154Y-78715567D01*
X123065702Y-78671302D01*
X123137594Y-78605484D01*
X123212687Y-78560053D01*
X123295438Y-78532850D01*
X123373072Y-78522576D01*
X123476957Y-78526571D01*
X123476957Y-78526571D01*
G37*
X123476957Y-78526571D02*
X123573232Y-78550809D01*
X123659816Y-78593641D01*
X123734627Y-78653419D01*
X123795582Y-78728494D01*
X123840601Y-78817220D01*
X123866864Y-78913530D01*
X123872714Y-79010795D01*
X123857860Y-79104654D01*
X123824160Y-79192511D01*
X123773472Y-79271770D01*
X123707655Y-79339836D01*
X123628566Y-79394112D01*
X123538066Y-79432002D01*
X123486800Y-79444426D01*
X123442302Y-79451947D01*
X123408001Y-79454919D01*
X123375040Y-79453094D01*
X123334566Y-79446225D01*
X123301469Y-79439250D01*
X123208053Y-79407741D01*
X123124381Y-79356617D01*
X123052335Y-79287429D01*
X122993800Y-79201728D01*
X122979852Y-79174489D01*
X122963414Y-79138122D01*
X122953106Y-79107582D01*
X122947540Y-79075450D01*
X122945331Y-79034307D01*
X122945052Y-78988222D01*
X122949139Y-78903865D01*
X122962554Y-78834586D01*
X122987744Y-78773961D01*
X123027154Y-78715567D01*
X123065702Y-78671302D01*
X123137594Y-78605484D01*
X123212687Y-78560053D01*
X123295438Y-78532850D01*
X123373072Y-78522576D01*
X123476957Y-78526571D01*
G36*
X131936507Y-80972245D02*
X131936526Y-81206662D01*
X131936552Y-81419603D01*
X131936625Y-81612168D01*
X131936782Y-81785459D01*
X131937064Y-81940576D01*
X131937509Y-82078620D01*
X131938156Y-82200692D01*
X131939045Y-82307894D01*
X131940213Y-82401326D01*
X131941701Y-82482090D01*
X131943546Y-82551286D01*
X131945789Y-82610015D01*
X131948469Y-82659379D01*
X131951623Y-82700478D01*
X131955292Y-82734413D01*
X131959513Y-82762286D01*
X131964327Y-82785198D01*
X131969773Y-82804249D01*
X131975888Y-82820540D01*
X131982712Y-82835173D01*
X131990285Y-82849249D01*
X131998645Y-82863868D01*
X132003839Y-82872974D01*
X132038104Y-82933689D01*
X131179955Y-82933689D01*
X131179955Y-82837733D01*
X131179224Y-82794370D01*
X131177272Y-82761205D01*
X131174463Y-82743424D01*
X131173221Y-82741778D01*
X131161799Y-82748662D01*
X131139084Y-82766505D01*
X131116385Y-82785879D01*
X131061800Y-82826614D01*
X130992321Y-82867617D01*
X130915270Y-82905123D01*
X130837965Y-82935364D01*
X130807113Y-82945012D01*
X130738616Y-82959578D01*
X130655764Y-82969539D01*
X130566371Y-82974583D01*
X130478248Y-82974396D01*
X130399207Y-82968666D01*
X130361511Y-82962858D01*
X130223414Y-82924797D01*
X130096113Y-82867073D01*
X129980292Y-82790211D01*
X129876637Y-82694739D01*
X129785833Y-82581179D01*
X129719031Y-82470381D01*
X129664164Y-82353625D01*
X129622163Y-82234276D01*
X129592167Y-82108283D01*
X129573311Y-81971594D01*
X129564732Y-81820158D01*
X129564006Y-81742711D01*
X129566100Y-81685934D01*
X130395217Y-81685934D01*
X130395424Y-81779002D01*
X130398337Y-81866692D01*
X130404000Y-81943772D01*
X130412455Y-82005009D01*
X130415038Y-82017350D01*
X130446840Y-82124633D01*
X130488498Y-82211658D01*
X130540363Y-82278642D01*
X130602781Y-82325805D01*
X130676100Y-82353365D01*
X130760669Y-82361541D01*
X130856835Y-82350551D01*
X130920311Y-82334829D01*
X130969454Y-82316639D01*
X131023583Y-82290791D01*
X131064244Y-82267089D01*
X131134800Y-82220721D01*
X131134800Y-81070530D01*
X131067392Y-81026962D01*
X130988867Y-80986040D01*
X130904681Y-80959389D01*
X130819557Y-80947465D01*
X130738216Y-80950722D01*
X130665380Y-80969615D01*
X130633426Y-80985184D01*
X130575501Y-81028181D01*
X130526544Y-81084953D01*
X130485390Y-81157575D01*
X130450874Y-81248121D01*
X130421833Y-81358666D01*
X130420552Y-81364533D01*
X130410381Y-81426788D01*
X130402739Y-81504594D01*
X130397670Y-81592720D01*
X130395217Y-81685934D01*
X129566100Y-81685934D01*
X129571857Y-81529895D01*
X129593802Y-81334059D01*
X129629786Y-81155332D01*
X129679759Y-80993845D01*
X129743668Y-80849726D01*
X129821462Y-80723106D01*
X129913089Y-80614115D01*
X130018497Y-80522883D01*
X130063662Y-80491932D01*
X130164611Y-80435785D01*
X130267901Y-80396174D01*
X130377989Y-80372014D01*
X130499330Y-80362219D01*
X130591836Y-80363265D01*
X130721490Y-80374231D01*
X130834084Y-80396046D01*
X130932875Y-80429714D01*
X131021121Y-80476236D01*
X131069986Y-80510448D01*
X131099353Y-80532362D01*
X131121043Y-80547333D01*
X131129253Y-80551733D01*
X131130868Y-80540904D01*
X131132159Y-80510251D01*
X131133138Y-80462526D01*
X131133817Y-80400479D01*
X131134210Y-80326862D01*
X131134330Y-80244427D01*
X131134188Y-80155925D01*
X131133797Y-80064107D01*
X131133171Y-79971724D01*
X131132320Y-79881528D01*
X131131260Y-79796271D01*
X131130001Y-79718703D01*
X131128556Y-79651576D01*
X131126938Y-79597641D01*
X131125161Y-79559650D01*
X131124669Y-79552667D01*
X131117092Y-79482251D01*
X131105531Y-79427102D01*
X131087792Y-79379981D01*
X131061682Y-79333647D01*
X131055415Y-79324067D01*
X131030983Y-79287378D01*
X131936311Y-79287378D01*
X131936507Y-80972245D01*
X131936507Y-80972245D01*
G37*
X131936507Y-80972245D02*
X131936526Y-81206662D01*
X131936552Y-81419603D01*
X131936625Y-81612168D01*
X131936782Y-81785459D01*
X131937064Y-81940576D01*
X131937509Y-82078620D01*
X131938156Y-82200692D01*
X131939045Y-82307894D01*
X131940213Y-82401326D01*
X131941701Y-82482090D01*
X131943546Y-82551286D01*
X131945789Y-82610015D01*
X131948469Y-82659379D01*
X131951623Y-82700478D01*
X131955292Y-82734413D01*
X131959513Y-82762286D01*
X131964327Y-82785198D01*
X131969773Y-82804249D01*
X131975888Y-82820540D01*
X131982712Y-82835173D01*
X131990285Y-82849249D01*
X131998645Y-82863868D01*
X132003839Y-82872974D01*
X132038104Y-82933689D01*
X131179955Y-82933689D01*
X131179955Y-82837733D01*
X131179224Y-82794370D01*
X131177272Y-82761205D01*
X131174463Y-82743424D01*
X131173221Y-82741778D01*
X131161799Y-82748662D01*
X131139084Y-82766505D01*
X131116385Y-82785879D01*
X131061800Y-82826614D01*
X130992321Y-82867617D01*
X130915270Y-82905123D01*
X130837965Y-82935364D01*
X130807113Y-82945012D01*
X130738616Y-82959578D01*
X130655764Y-82969539D01*
X130566371Y-82974583D01*
X130478248Y-82974396D01*
X130399207Y-82968666D01*
X130361511Y-82962858D01*
X130223414Y-82924797D01*
X130096113Y-82867073D01*
X129980292Y-82790211D01*
X129876637Y-82694739D01*
X129785833Y-82581179D01*
X129719031Y-82470381D01*
X129664164Y-82353625D01*
X129622163Y-82234276D01*
X129592167Y-82108283D01*
X129573311Y-81971594D01*
X129564732Y-81820158D01*
X129564006Y-81742711D01*
X129566100Y-81685934D01*
X130395217Y-81685934D01*
X130395424Y-81779002D01*
X130398337Y-81866692D01*
X130404000Y-81943772D01*
X130412455Y-82005009D01*
X130415038Y-82017350D01*
X130446840Y-82124633D01*
X130488498Y-82211658D01*
X130540363Y-82278642D01*
X130602781Y-82325805D01*
X130676100Y-82353365D01*
X130760669Y-82361541D01*
X130856835Y-82350551D01*
X130920311Y-82334829D01*
X130969454Y-82316639D01*
X131023583Y-82290791D01*
X131064244Y-82267089D01*
X131134800Y-82220721D01*
X131134800Y-81070530D01*
X131067392Y-81026962D01*
X130988867Y-80986040D01*
X130904681Y-80959389D01*
X130819557Y-80947465D01*
X130738216Y-80950722D01*
X130665380Y-80969615D01*
X130633426Y-80985184D01*
X130575501Y-81028181D01*
X130526544Y-81084953D01*
X130485390Y-81157575D01*
X130450874Y-81248121D01*
X130421833Y-81358666D01*
X130420552Y-81364533D01*
X130410381Y-81426788D01*
X130402739Y-81504594D01*
X130397670Y-81592720D01*
X130395217Y-81685934D01*
X129566100Y-81685934D01*
X129571857Y-81529895D01*
X129593802Y-81334059D01*
X129629786Y-81155332D01*
X129679759Y-80993845D01*
X129743668Y-80849726D01*
X129821462Y-80723106D01*
X129913089Y-80614115D01*
X130018497Y-80522883D01*
X130063662Y-80491932D01*
X130164611Y-80435785D01*
X130267901Y-80396174D01*
X130377989Y-80372014D01*
X130499330Y-80362219D01*
X130591836Y-80363265D01*
X130721490Y-80374231D01*
X130834084Y-80396046D01*
X130932875Y-80429714D01*
X131021121Y-80476236D01*
X131069986Y-80510448D01*
X131099353Y-80532362D01*
X131121043Y-80547333D01*
X131129253Y-80551733D01*
X131130868Y-80540904D01*
X131132159Y-80510251D01*
X131133138Y-80462526D01*
X131133817Y-80400479D01*
X131134210Y-80326862D01*
X131134330Y-80244427D01*
X131134188Y-80155925D01*
X131133797Y-80064107D01*
X131133171Y-79971724D01*
X131132320Y-79881528D01*
X131131260Y-79796271D01*
X131130001Y-79718703D01*
X131128556Y-79651576D01*
X131126938Y-79597641D01*
X131125161Y-79559650D01*
X131124669Y-79552667D01*
X131117092Y-79482251D01*
X131105531Y-79427102D01*
X131087792Y-79379981D01*
X131061682Y-79333647D01*
X131055415Y-79324067D01*
X131030983Y-79287378D01*
X131936311Y-79287378D01*
X131936507Y-80972245D01*
G36*
X128423574Y-80366552D02*
X128575492Y-80386567D01*
X128710756Y-80420202D01*
X128830239Y-80467725D01*
X128934815Y-80529405D01*
X129012424Y-80592965D01*
X129081265Y-80667099D01*
X129135006Y-80746871D01*
X129177910Y-80839091D01*
X129193384Y-80882161D01*
X129206244Y-80921142D01*
X129217446Y-80957289D01*
X129227120Y-80992434D01*
X129235396Y-81028410D01*
X129242403Y-81067050D01*
X129248272Y-81110185D01*
X129253131Y-81159649D01*
X129257110Y-81217273D01*
X129260340Y-81284891D01*
X129262949Y-81364334D01*
X129265067Y-81457436D01*
X129266824Y-81566027D01*
X129268349Y-81691942D01*
X129269772Y-81837012D01*
X129271025Y-81979778D01*
X129272351Y-82135968D01*
X129273556Y-82271239D01*
X129274766Y-82387246D01*
X129276106Y-82485645D01*
X129277700Y-82568093D01*
X129279675Y-82636246D01*
X129282156Y-82691760D01*
X129285269Y-82736292D01*
X129289138Y-82771498D01*
X129293889Y-82799034D01*
X129299648Y-82820556D01*
X129306539Y-82837722D01*
X129314689Y-82852186D01*
X129324223Y-82865606D01*
X129335266Y-82879638D01*
X129339566Y-82885071D01*
X129355386Y-82907910D01*
X129362422Y-82923463D01*
X129362444Y-82923922D01*
X129351567Y-82926121D01*
X129320582Y-82928147D01*
X129271957Y-82929942D01*
X129208163Y-82931451D01*
X129131669Y-82932616D01*
X129044944Y-82933380D01*
X128950457Y-82933686D01*
X128939550Y-82933689D01*
X128516657Y-82933689D01*
X128513395Y-82837622D01*
X128510133Y-82741556D01*
X128448044Y-82792543D01*
X128350714Y-82860057D01*
X128240813Y-82914749D01*
X128154349Y-82944978D01*
X128085278Y-82959666D01*
X128001925Y-82969659D01*
X127912159Y-82974646D01*
X127823845Y-82974313D01*
X127744851Y-82968351D01*
X127708622Y-82962638D01*
X127568603Y-82924776D01*
X127442178Y-82869932D01*
X127330260Y-82798924D01*
X127233762Y-82712568D01*
X127153600Y-82611679D01*
X127090687Y-82497076D01*
X127046312Y-82370984D01*
X127033978Y-82314401D01*
X127026368Y-82252202D01*
X127022739Y-82177363D01*
X127022245Y-82143467D01*
X127022310Y-82140282D01*
X127782248Y-82140282D01*
X127791541Y-82215333D01*
X127819728Y-82279160D01*
X127868197Y-82334798D01*
X127873254Y-82339211D01*
X127921548Y-82374037D01*
X127973257Y-82396620D01*
X128033989Y-82408540D01*
X128109352Y-82411383D01*
X128127459Y-82410978D01*
X128181278Y-82408325D01*
X128221308Y-82402909D01*
X128256324Y-82392745D01*
X128295103Y-82375850D01*
X128305745Y-82370672D01*
X128366396Y-82334844D01*
X128413215Y-82292212D01*
X128425952Y-82276973D01*
X128470622Y-82220462D01*
X128470622Y-82024586D01*
X128470086Y-81945939D01*
X128468396Y-81887988D01*
X128465428Y-81848875D01*
X128461057Y-81826741D01*
X128456972Y-81820274D01*
X128441047Y-81817111D01*
X128407264Y-81814488D01*
X128360340Y-81812655D01*
X128304993Y-81811857D01*
X128296106Y-81811842D01*
X128175330Y-81817096D01*
X128072660Y-81833263D01*
X127986106Y-81860961D01*
X127913681Y-81900808D01*
X127858751Y-81947758D01*
X127814204Y-82005645D01*
X127789480Y-82068693D01*
X127782248Y-82140282D01*
X127022310Y-82140282D01*
X127024178Y-82049712D01*
X127032522Y-81970812D01*
X127048768Y-81899590D01*
X127074405Y-81828864D01*
X127098401Y-81776493D01*
X127157020Y-81681196D01*
X127235117Y-81593170D01*
X127330315Y-81514017D01*
X127440238Y-81445340D01*
X127562510Y-81388741D01*
X127694755Y-81345821D01*
X127759422Y-81330882D01*
X127895604Y-81308777D01*
X128044049Y-81294194D01*
X128195505Y-81287813D01*
X128322064Y-81289445D01*
X128483950Y-81296224D01*
X128476530Y-81237245D01*
X128457238Y-81138092D01*
X128426104Y-81057372D01*
X128382269Y-80994466D01*
X128324871Y-80948756D01*
X128253048Y-80919622D01*
X128165941Y-80906447D01*
X128062686Y-80908611D01*
X128024711Y-80912612D01*
X127883520Y-80937780D01*
X127746707Y-80978814D01*
X127652178Y-81016815D01*
X127607018Y-81036190D01*
X127568585Y-81051760D01*
X127542234Y-81061405D01*
X127534546Y-81063452D01*
X127524802Y-81054374D01*
X127508083Y-81025405D01*
X127484232Y-80976217D01*
X127453093Y-80906484D01*
X127414507Y-80815879D01*
X127407910Y-80800089D01*
X127377853Y-80727772D01*
X127350874Y-80662425D01*
X127328136Y-80606906D01*
X127310806Y-80564072D01*
X127300048Y-80536781D01*
X127296941Y-80527942D01*
X127306940Y-80523187D01*
X127333217Y-80517910D01*
X127361489Y-80514231D01*
X127391646Y-80509474D01*
X127439433Y-80500028D01*
X127500612Y-80486820D01*
X127570946Y-80470776D01*
X127646194Y-80452820D01*
X127674755Y-80445797D01*
X127779816Y-80420209D01*
X127867480Y-80400147D01*
X127942068Y-80384969D01*
X128007903Y-80374035D01*
X128069307Y-80366704D01*
X128130602Y-80362335D01*
X128196110Y-80360287D01*
X128254128Y-80359889D01*
X128423574Y-80366552D01*
X128423574Y-80366552D01*
G37*
X128423574Y-80366552D02*
X128575492Y-80386567D01*
X128710756Y-80420202D01*
X128830239Y-80467725D01*
X128934815Y-80529405D01*
X129012424Y-80592965D01*
X129081265Y-80667099D01*
X129135006Y-80746871D01*
X129177910Y-80839091D01*
X129193384Y-80882161D01*
X129206244Y-80921142D01*
X129217446Y-80957289D01*
X129227120Y-80992434D01*
X129235396Y-81028410D01*
X129242403Y-81067050D01*
X129248272Y-81110185D01*
X129253131Y-81159649D01*
X129257110Y-81217273D01*
X129260340Y-81284891D01*
X129262949Y-81364334D01*
X129265067Y-81457436D01*
X129266824Y-81566027D01*
X129268349Y-81691942D01*
X129269772Y-81837012D01*
X129271025Y-81979778D01*
X129272351Y-82135968D01*
X129273556Y-82271239D01*
X129274766Y-82387246D01*
X129276106Y-82485645D01*
X129277700Y-82568093D01*
X129279675Y-82636246D01*
X129282156Y-82691760D01*
X129285269Y-82736292D01*
X129289138Y-82771498D01*
X129293889Y-82799034D01*
X129299648Y-82820556D01*
X129306539Y-82837722D01*
X129314689Y-82852186D01*
X129324223Y-82865606D01*
X129335266Y-82879638D01*
X129339566Y-82885071D01*
X129355386Y-82907910D01*
X129362422Y-82923463D01*
X129362444Y-82923922D01*
X129351567Y-82926121D01*
X129320582Y-82928147D01*
X129271957Y-82929942D01*
X129208163Y-82931451D01*
X129131669Y-82932616D01*
X129044944Y-82933380D01*
X128950457Y-82933686D01*
X128939550Y-82933689D01*
X128516657Y-82933689D01*
X128513395Y-82837622D01*
X128510133Y-82741556D01*
X128448044Y-82792543D01*
X128350714Y-82860057D01*
X128240813Y-82914749D01*
X128154349Y-82944978D01*
X128085278Y-82959666D01*
X128001925Y-82969659D01*
X127912159Y-82974646D01*
X127823845Y-82974313D01*
X127744851Y-82968351D01*
X127708622Y-82962638D01*
X127568603Y-82924776D01*
X127442178Y-82869932D01*
X127330260Y-82798924D01*
X127233762Y-82712568D01*
X127153600Y-82611679D01*
X127090687Y-82497076D01*
X127046312Y-82370984D01*
X127033978Y-82314401D01*
X127026368Y-82252202D01*
X127022739Y-82177363D01*
X127022245Y-82143467D01*
X127022310Y-82140282D01*
X127782248Y-82140282D01*
X127791541Y-82215333D01*
X127819728Y-82279160D01*
X127868197Y-82334798D01*
X127873254Y-82339211D01*
X127921548Y-82374037D01*
X127973257Y-82396620D01*
X128033989Y-82408540D01*
X128109352Y-82411383D01*
X128127459Y-82410978D01*
X128181278Y-82408325D01*
X128221308Y-82402909D01*
X128256324Y-82392745D01*
X128295103Y-82375850D01*
X128305745Y-82370672D01*
X128366396Y-82334844D01*
X128413215Y-82292212D01*
X128425952Y-82276973D01*
X128470622Y-82220462D01*
X128470622Y-82024586D01*
X128470086Y-81945939D01*
X128468396Y-81887988D01*
X128465428Y-81848875D01*
X128461057Y-81826741D01*
X128456972Y-81820274D01*
X128441047Y-81817111D01*
X128407264Y-81814488D01*
X128360340Y-81812655D01*
X128304993Y-81811857D01*
X128296106Y-81811842D01*
X128175330Y-81817096D01*
X128072660Y-81833263D01*
X127986106Y-81860961D01*
X127913681Y-81900808D01*
X127858751Y-81947758D01*
X127814204Y-82005645D01*
X127789480Y-82068693D01*
X127782248Y-82140282D01*
X127022310Y-82140282D01*
X127024178Y-82049712D01*
X127032522Y-81970812D01*
X127048768Y-81899590D01*
X127074405Y-81828864D01*
X127098401Y-81776493D01*
X127157020Y-81681196D01*
X127235117Y-81593170D01*
X127330315Y-81514017D01*
X127440238Y-81445340D01*
X127562510Y-81388741D01*
X127694755Y-81345821D01*
X127759422Y-81330882D01*
X127895604Y-81308777D01*
X128044049Y-81294194D01*
X128195505Y-81287813D01*
X128322064Y-81289445D01*
X128483950Y-81296224D01*
X128476530Y-81237245D01*
X128457238Y-81138092D01*
X128426104Y-81057372D01*
X128382269Y-80994466D01*
X128324871Y-80948756D01*
X128253048Y-80919622D01*
X128165941Y-80906447D01*
X128062686Y-80908611D01*
X128024711Y-80912612D01*
X127883520Y-80937780D01*
X127746707Y-80978814D01*
X127652178Y-81016815D01*
X127607018Y-81036190D01*
X127568585Y-81051760D01*
X127542234Y-81061405D01*
X127534546Y-81063452D01*
X127524802Y-81054374D01*
X127508083Y-81025405D01*
X127484232Y-80976217D01*
X127453093Y-80906484D01*
X127414507Y-80815879D01*
X127407910Y-80800089D01*
X127377853Y-80727772D01*
X127350874Y-80662425D01*
X127328136Y-80606906D01*
X127310806Y-80564072D01*
X127300048Y-80536781D01*
X127296941Y-80527942D01*
X127306940Y-80523187D01*
X127333217Y-80517910D01*
X127361489Y-80514231D01*
X127391646Y-80509474D01*
X127439433Y-80500028D01*
X127500612Y-80486820D01*
X127570946Y-80470776D01*
X127646194Y-80452820D01*
X127674755Y-80445797D01*
X127779816Y-80420209D01*
X127867480Y-80400147D01*
X127942068Y-80384969D01*
X128007903Y-80374035D01*
X128069307Y-80366704D01*
X128130602Y-80362335D01*
X128196110Y-80360287D01*
X128254128Y-80359889D01*
X128423574Y-80366552D01*
G36*
X126078429Y-79449071D02*
X126238570Y-79470245D01*
X126402510Y-79510385D01*
X126572313Y-79569889D01*
X126750043Y-79649154D01*
X126761310Y-79654699D01*
X126819005Y-79682725D01*
X126870552Y-79706802D01*
X126912191Y-79725249D01*
X126940162Y-79736386D01*
X126949733Y-79738933D01*
X126968950Y-79743941D01*
X126973561Y-79748147D01*
X126968458Y-79758580D01*
X126952418Y-79784868D01*
X126927288Y-79824257D01*
X126894914Y-79873991D01*
X126857143Y-79931315D01*
X126815822Y-79993476D01*
X126772798Y-80057718D01*
X126729917Y-80121285D01*
X126689026Y-80181425D01*
X126651971Y-80235380D01*
X126620600Y-80280397D01*
X126596759Y-80313721D01*
X126582294Y-80332597D01*
X126580309Y-80334787D01*
X126570191Y-80330138D01*
X126547850Y-80312962D01*
X126517280Y-80286440D01*
X126501536Y-80271964D01*
X126405047Y-80196682D01*
X126298336Y-80141241D01*
X126182832Y-80106141D01*
X126059962Y-80091880D01*
X125990561Y-80093051D01*
X125869423Y-80110212D01*
X125760205Y-80146094D01*
X125662582Y-80200959D01*
X125576228Y-80275070D01*
X125500815Y-80368688D01*
X125436018Y-80482076D01*
X125398601Y-80568667D01*
X125354748Y-80704366D01*
X125322428Y-80851850D01*
X125301557Y-81007314D01*
X125292051Y-81166956D01*
X125293827Y-81326973D01*
X125306803Y-81483561D01*
X125330894Y-81632918D01*
X125366018Y-81771240D01*
X125412092Y-81894724D01*
X125428373Y-81928978D01*
X125496620Y-82043064D01*
X125577079Y-82139557D01*
X125668570Y-82217670D01*
X125769911Y-82276617D01*
X125879920Y-82315612D01*
X125997415Y-82333868D01*
X126038883Y-82335211D01*
X126160441Y-82324290D01*
X126280878Y-82291474D01*
X126398666Y-82237439D01*
X126512277Y-82162865D01*
X126603685Y-82084539D01*
X126650215Y-82040008D01*
X126831483Y-82337271D01*
X126876580Y-82411433D01*
X126917819Y-82479646D01*
X126953735Y-82539459D01*
X126982866Y-82588420D01*
X127003750Y-82624079D01*
X127014924Y-82643984D01*
X127016375Y-82647079D01*
X127008146Y-82656718D01*
X126982567Y-82673999D01*
X126942873Y-82697283D01*
X126892297Y-82724934D01*
X126834074Y-82755315D01*
X126771437Y-82786790D01*
X126707621Y-82817722D01*
X126645860Y-82846473D01*
X126589388Y-82871408D01*
X126541438Y-82890889D01*
X126517986Y-82899318D01*
X126384221Y-82937133D01*
X126246327Y-82962136D01*
X126098622Y-82975140D01*
X125971833Y-82977468D01*
X125903878Y-82976373D01*
X125838277Y-82974275D01*
X125780847Y-82971434D01*
X125737403Y-82968106D01*
X125723298Y-82966422D01*
X125584284Y-82937587D01*
X125442757Y-82892468D01*
X125305275Y-82833750D01*
X125178394Y-82764120D01*
X125100889Y-82711441D01*
X124973481Y-82603239D01*
X124855178Y-82476671D01*
X124748172Y-82334866D01*
X124654652Y-82180951D01*
X124576810Y-82018053D01*
X124532956Y-81900756D01*
X124482708Y-81717128D01*
X124449209Y-81522581D01*
X124432449Y-81321325D01*
X124432416Y-81117568D01*
X124449101Y-80915521D01*
X124482493Y-80719392D01*
X124532580Y-80533391D01*
X124536397Y-80521803D01*
X124599281Y-80359750D01*
X124676028Y-80211832D01*
X124769242Y-80073865D01*
X124881527Y-79941661D01*
X124925392Y-79896399D01*
X125061534Y-79772457D01*
X125201491Y-79669915D01*
X125347411Y-79587656D01*
X125501442Y-79524564D01*
X125665732Y-79479523D01*
X125761289Y-79462033D01*
X125920023Y-79446466D01*
X126078429Y-79449071D01*
X126078429Y-79449071D01*
G37*
X126078429Y-79449071D02*
X126238570Y-79470245D01*
X126402510Y-79510385D01*
X126572313Y-79569889D01*
X126750043Y-79649154D01*
X126761310Y-79654699D01*
X126819005Y-79682725D01*
X126870552Y-79706802D01*
X126912191Y-79725249D01*
X126940162Y-79736386D01*
X126949733Y-79738933D01*
X126968950Y-79743941D01*
X126973561Y-79748147D01*
X126968458Y-79758580D01*
X126952418Y-79784868D01*
X126927288Y-79824257D01*
X126894914Y-79873991D01*
X126857143Y-79931315D01*
X126815822Y-79993476D01*
X126772798Y-80057718D01*
X126729917Y-80121285D01*
X126689026Y-80181425D01*
X126651971Y-80235380D01*
X126620600Y-80280397D01*
X126596759Y-80313721D01*
X126582294Y-80332597D01*
X126580309Y-80334787D01*
X126570191Y-80330138D01*
X126547850Y-80312962D01*
X126517280Y-80286440D01*
X126501536Y-80271964D01*
X126405047Y-80196682D01*
X126298336Y-80141241D01*
X126182832Y-80106141D01*
X126059962Y-80091880D01*
X125990561Y-80093051D01*
X125869423Y-80110212D01*
X125760205Y-80146094D01*
X125662582Y-80200959D01*
X125576228Y-80275070D01*
X125500815Y-80368688D01*
X125436018Y-80482076D01*
X125398601Y-80568667D01*
X125354748Y-80704366D01*
X125322428Y-80851850D01*
X125301557Y-81007314D01*
X125292051Y-81166956D01*
X125293827Y-81326973D01*
X125306803Y-81483561D01*
X125330894Y-81632918D01*
X125366018Y-81771240D01*
X125412092Y-81894724D01*
X125428373Y-81928978D01*
X125496620Y-82043064D01*
X125577079Y-82139557D01*
X125668570Y-82217670D01*
X125769911Y-82276617D01*
X125879920Y-82315612D01*
X125997415Y-82333868D01*
X126038883Y-82335211D01*
X126160441Y-82324290D01*
X126280878Y-82291474D01*
X126398666Y-82237439D01*
X126512277Y-82162865D01*
X126603685Y-82084539D01*
X126650215Y-82040008D01*
X126831483Y-82337271D01*
X126876580Y-82411433D01*
X126917819Y-82479646D01*
X126953735Y-82539459D01*
X126982866Y-82588420D01*
X127003750Y-82624079D01*
X127014924Y-82643984D01*
X127016375Y-82647079D01*
X127008146Y-82656718D01*
X126982567Y-82673999D01*
X126942873Y-82697283D01*
X126892297Y-82724934D01*
X126834074Y-82755315D01*
X126771437Y-82786790D01*
X126707621Y-82817722D01*
X126645860Y-82846473D01*
X126589388Y-82871408D01*
X126541438Y-82890889D01*
X126517986Y-82899318D01*
X126384221Y-82937133D01*
X126246327Y-82962136D01*
X126098622Y-82975140D01*
X125971833Y-82977468D01*
X125903878Y-82976373D01*
X125838277Y-82974275D01*
X125780847Y-82971434D01*
X125737403Y-82968106D01*
X125723298Y-82966422D01*
X125584284Y-82937587D01*
X125442757Y-82892468D01*
X125305275Y-82833750D01*
X125178394Y-82764120D01*
X125100889Y-82711441D01*
X124973481Y-82603239D01*
X124855178Y-82476671D01*
X124748172Y-82334866D01*
X124654652Y-82180951D01*
X124576810Y-82018053D01*
X124532956Y-81900756D01*
X124482708Y-81717128D01*
X124449209Y-81522581D01*
X124432449Y-81321325D01*
X124432416Y-81117568D01*
X124449101Y-80915521D01*
X124482493Y-80719392D01*
X124532580Y-80533391D01*
X124536397Y-80521803D01*
X124599281Y-80359750D01*
X124676028Y-80211832D01*
X124769242Y-80073865D01*
X124881527Y-79941661D01*
X124925392Y-79896399D01*
X125061534Y-79772457D01*
X125201491Y-79669915D01*
X125347411Y-79587656D01*
X125501442Y-79524564D01*
X125665732Y-79479523D01*
X125761289Y-79462033D01*
X125920023Y-79446466D01*
X126078429Y-79449071D01*
G36*
X122803600Y-78989054D02*
X122814465Y-79102993D01*
X122846082Y-79210616D01*
X122896985Y-79309615D01*
X122965707Y-79397684D01*
X123050781Y-79472516D01*
X123147768Y-79530384D01*
X123254036Y-79570005D01*
X123361050Y-79588573D01*
X123466700Y-79587434D01*
X123568875Y-79567930D01*
X123665466Y-79531406D01*
X123754362Y-79479205D01*
X123833454Y-79412673D01*
X123900631Y-79333152D01*
X123953783Y-79241987D01*
X123990801Y-79140523D01*
X124009573Y-79030102D01*
X124011511Y-78980206D01*
X124011511Y-78892267D01*
X124063440Y-78892267D01*
X124099747Y-78895111D01*
X124126645Y-78906911D01*
X124153751Y-78930649D01*
X124192133Y-78969031D01*
X124192133Y-81160602D01*
X124192124Y-81422739D01*
X124192092Y-81663241D01*
X124192028Y-81883048D01*
X124191924Y-82083101D01*
X124191773Y-82264344D01*
X124191566Y-82427716D01*
X124191294Y-82574160D01*
X124190950Y-82704617D01*
X124190526Y-82820029D01*
X124190013Y-82921338D01*
X124189403Y-83009484D01*
X124188688Y-83085410D01*
X124187860Y-83150057D01*
X124186911Y-83204367D01*
X124185833Y-83249280D01*
X124184617Y-83285740D01*
X124183255Y-83314687D01*
X124181739Y-83337063D01*
X124180062Y-83353809D01*
X124178214Y-83365868D01*
X124176187Y-83374180D01*
X124173975Y-83379687D01*
X124172892Y-83381537D01*
X124168729Y-83388549D01*
X124165195Y-83394996D01*
X124161365Y-83400900D01*
X124156318Y-83406286D01*
X124149129Y-83411178D01*
X124138877Y-83415598D01*
X124124636Y-83419572D01*
X124105486Y-83423121D01*
X124080501Y-83426270D01*
X124048760Y-83429042D01*
X124009338Y-83431461D01*
X123961314Y-83433551D01*
X123903763Y-83435335D01*
X123835763Y-83436837D01*
X123756390Y-83438080D01*
X123664721Y-83439089D01*
X123559834Y-83439885D01*
X123440804Y-83440494D01*
X123306710Y-83440939D01*
X123156627Y-83441243D01*
X122989633Y-83441430D01*
X122804804Y-83441524D01*
X122601217Y-83441548D01*
X122377950Y-83441525D01*
X122134078Y-83441480D01*
X121868679Y-83441437D01*
X121830296Y-83441432D01*
X121563318Y-83441389D01*
X121317998Y-83441318D01*
X121093417Y-83441213D01*
X120888655Y-83441066D01*
X120702794Y-83440869D01*
X120534912Y-83440616D01*
X120384092Y-83440300D01*
X120249413Y-83439913D01*
X120129956Y-83439447D01*
X120024801Y-83438897D01*
X119933029Y-83438253D01*
X119853721Y-83437511D01*
X119785957Y-83436661D01*
X119728818Y-83435697D01*
X119681383Y-83434611D01*
X119642734Y-83433397D01*
X119611951Y-83432047D01*
X119588115Y-83430555D01*
X119570306Y-83428911D01*
X119557605Y-83427111D01*
X119549092Y-83425145D01*
X119544734Y-83423477D01*
X119536272Y-83419906D01*
X119528503Y-83417270D01*
X119521398Y-83414634D01*
X119514927Y-83411062D01*
X119509061Y-83405621D01*
X119503771Y-83397375D01*
X119499026Y-83385390D01*
X119494798Y-83368731D01*
X119491057Y-83346463D01*
X119487773Y-83317652D01*
X119484917Y-83281363D01*
X119482460Y-83236661D01*
X119480371Y-83182611D01*
X119478622Y-83118279D01*
X119477183Y-83042730D01*
X119476024Y-82955030D01*
X119475117Y-82854243D01*
X119474431Y-82739434D01*
X119473937Y-82609670D01*
X119473605Y-82464015D01*
X119473407Y-82301535D01*
X119473313Y-82121295D01*
X119473292Y-81922360D01*
X119473315Y-81703796D01*
X119473354Y-81464668D01*
X119473378Y-81204040D01*
X119473378Y-81161889D01*
X119473364Y-80898992D01*
X119473339Y-80657732D01*
X119473329Y-80437165D01*
X119473358Y-80236352D01*
X119473452Y-80054349D01*
X119473638Y-79890216D01*
X119473941Y-79743011D01*
X119474386Y-79611792D01*
X119474966Y-79501867D01*
X119777803Y-79501867D01*
X119817593Y-79559711D01*
X119828764Y-79575479D01*
X119838834Y-79589441D01*
X119847862Y-79602784D01*
X119855903Y-79616693D01*
X119863014Y-79632356D01*
X119869253Y-79650958D01*
X119874675Y-79673686D01*
X119879338Y-79701727D01*
X119883299Y-79736267D01*
X119886615Y-79778492D01*
X119889341Y-79829589D01*
X119891536Y-79890744D01*
X119893255Y-79963144D01*
X119894556Y-80047975D01*
X119895495Y-80146422D01*
X119896130Y-80259674D01*
X119896516Y-80388916D01*
X119896712Y-80535334D01*
X119896773Y-80700116D01*
X119896757Y-80884447D01*
X119896720Y-81089513D01*
X119896711Y-81212133D01*
X119896735Y-81429082D01*
X119896769Y-81624642D01*
X119896757Y-81799999D01*
X119896642Y-81956341D01*
X119896370Y-82094857D01*
X119895882Y-82216734D01*
X119895124Y-82323160D01*
X119894038Y-82415322D01*
X119892569Y-82494409D01*
X119890660Y-82561608D01*
X119888256Y-82618107D01*
X119885299Y-82665093D01*
X119881734Y-82703755D01*
X119877505Y-82735280D01*
X119872554Y-82760855D01*
X119866827Y-82781670D01*
X119860267Y-82798911D01*
X119852817Y-82813765D01*
X119844421Y-82827422D01*
X119835024Y-82841069D01*
X119824568Y-82855893D01*
X119818477Y-82864783D01*
X119779704Y-82922400D01*
X120311268Y-82922400D01*
X120434517Y-82922365D01*
X120537013Y-82922215D01*
X120620580Y-82921878D01*
X120687044Y-82921286D01*
X120738229Y-82920367D01*
X120775959Y-82919051D01*
X120802060Y-82917269D01*
X120818356Y-82914951D01*
X120826672Y-82912026D01*
X120828832Y-82908424D01*
X120826661Y-82904075D01*
X120825465Y-82902645D01*
X120800315Y-82865573D01*
X120774417Y-82812772D01*
X120750808Y-82750770D01*
X120742539Y-82724357D01*
X120737922Y-82706416D01*
X120734021Y-82685355D01*
X120730752Y-82659089D01*
X120728034Y-82625532D01*
X120725785Y-82582599D01*
X120723923Y-82528204D01*
X120722364Y-82460262D01*
X120721028Y-82376688D01*
X120719831Y-82275395D01*
X120718692Y-82154300D01*
X120718315Y-82109600D01*
X120717298Y-81984449D01*
X120716540Y-81880082D01*
X120716097Y-81794707D01*
X120716030Y-81726533D01*
X120716395Y-81673765D01*
X120717252Y-81634614D01*
X120718659Y-81607285D01*
X120720675Y-81589986D01*
X120723357Y-81580926D01*
X120726764Y-81578312D01*
X120730956Y-81580351D01*
X120735429Y-81584667D01*
X120745784Y-81597602D01*
X120767842Y-81626676D01*
X120800043Y-81669759D01*
X120840826Y-81724718D01*
X120888630Y-81789423D01*
X120941895Y-81861742D01*
X120999060Y-81939544D01*
X121058563Y-82020698D01*
X121118845Y-82103072D01*
X121178345Y-82184536D01*
X121235502Y-82262957D01*
X121288755Y-82336204D01*
X121336543Y-82402147D01*
X121377307Y-82458654D01*
X121409484Y-82503593D01*
X121431515Y-82534834D01*
X121436083Y-82541466D01*
X121459004Y-82578369D01*
X121485812Y-82626359D01*
X121511211Y-82675897D01*
X121514432Y-82682577D01*
X121536110Y-82730772D01*
X121548696Y-82768334D01*
X121554426Y-82804160D01*
X121555544Y-82846200D01*
X121554910Y-82922400D01*
X122709349Y-82922400D01*
X122618185Y-82828669D01*
X122571388Y-82778775D01*
X122521101Y-82722295D01*
X122475056Y-82668026D01*
X122454631Y-82642673D01*
X122424193Y-82603128D01*
X122384138Y-82549916D01*
X122335639Y-82484667D01*
X122279865Y-82409011D01*
X122217989Y-82324577D01*
X122151181Y-82232994D01*
X122080613Y-82135892D01*
X122007455Y-82034901D01*
X121932879Y-81931650D01*
X121858056Y-81827768D01*
X121784157Y-81724885D01*
X121712354Y-81624631D01*
X121643816Y-81528636D01*
X121579716Y-81438527D01*
X121521225Y-81355936D01*
X121469514Y-81282492D01*
X121425753Y-81219824D01*
X121391115Y-81169561D01*
X121366770Y-81133334D01*
X121353889Y-81112771D01*
X121352131Y-81108668D01*
X121360090Y-81097342D01*
X121380885Y-81070162D01*
X121413153Y-81028829D01*
X121455530Y-80975044D01*
X121506653Y-80910506D01*
X121565159Y-80836918D01*
X121629686Y-80755978D01*
X121698869Y-80669388D01*
X121771347Y-80578848D01*
X121845754Y-80486060D01*
X121905483Y-80411702D01*
X122916489Y-80411702D01*
X122922398Y-80424659D01*
X122936728Y-80446908D01*
X122937775Y-80448391D01*
X122956562Y-80478544D01*
X122976209Y-80515375D01*
X122980108Y-80523511D01*
X122983644Y-80531940D01*
X122986770Y-80542059D01*
X122989514Y-80555260D01*
X122991908Y-80572938D01*
X122993981Y-80596484D01*
X122995765Y-80627293D01*
X122997288Y-80666757D01*
X122998581Y-80716269D01*
X122999674Y-80777223D01*
X123000597Y-80851011D01*
X123001381Y-80939028D01*
X123002055Y-81042665D01*
X123002650Y-81163316D01*
X123003195Y-81302374D01*
X123003721Y-81461232D01*
X123004255Y-81640089D01*
X123004794Y-81825207D01*
X123005228Y-81989145D01*
X123005491Y-82133303D01*
X123005516Y-82259079D01*
X123005235Y-82367871D01*
X123004581Y-82461077D01*
X123003486Y-82540097D01*
X123001882Y-82606328D01*
X122999703Y-82661170D01*
X122996881Y-82706021D01*
X122993349Y-82742278D01*
X122989039Y-82771341D01*
X122983883Y-82794609D01*
X122977815Y-82813479D01*
X122970767Y-82829351D01*
X122962671Y-82843622D01*
X122953460Y-82857691D01*
X122944960Y-82870158D01*
X122927824Y-82896452D01*
X122917678Y-82914037D01*
X122916489Y-82917257D01*
X122927396Y-82918334D01*
X122958589Y-82919335D01*
X123007777Y-82920235D01*
X123072667Y-82921010D01*
X123150970Y-82921637D01*
X123240393Y-82922091D01*
X123338644Y-82922349D01*
X123407555Y-82922400D01*
X123512548Y-82922180D01*
X123609390Y-82921548D01*
X123695893Y-82920549D01*
X123769868Y-82919227D01*
X123829126Y-82917626D01*
X123871480Y-82915791D01*
X123894740Y-82913765D01*
X123898622Y-82912493D01*
X123890924Y-82897591D01*
X123882926Y-82889560D01*
X123869754Y-82872434D01*
X123852515Y-82842183D01*
X123840593Y-82817622D01*
X123813955Y-82758711D01*
X123810880Y-81581845D01*
X123807805Y-80404978D01*
X123362147Y-80404978D01*
X123264330Y-80405142D01*
X123173936Y-80405611D01*
X123093370Y-80406347D01*
X123025038Y-80407316D01*
X122971344Y-80408480D01*
X122934695Y-80409803D01*
X122917496Y-80411249D01*
X122916489Y-80411702D01*
X121905483Y-80411702D01*
X121920730Y-80392722D01*
X121994910Y-80300537D01*
X122066931Y-80211204D01*
X122135431Y-80126424D01*
X122199045Y-80047898D01*
X122256412Y-79977326D01*
X122306167Y-79916409D01*
X122346948Y-79866847D01*
X122364112Y-79846178D01*
X122450404Y-79745516D01*
X122527003Y-79662259D01*
X122595817Y-79594438D01*
X122658752Y-79540089D01*
X122668133Y-79532722D01*
X122707644Y-79502117D01*
X121575884Y-79501867D01*
X121581173Y-79549844D01*
X121577870Y-79607188D01*
X121556339Y-79675463D01*
X121516365Y-79755212D01*
X121471057Y-79827495D01*
X121454839Y-79850140D01*
X121426786Y-79887696D01*
X121388570Y-79938021D01*
X121341863Y-79998973D01*
X121288339Y-80068411D01*
X121229669Y-80144194D01*
X121167525Y-80224180D01*
X121103579Y-80306228D01*
X121039505Y-80388196D01*
X120976973Y-80467943D01*
X120917657Y-80543327D01*
X120863229Y-80612207D01*
X120815361Y-80672442D01*
X120775725Y-80721889D01*
X120745994Y-80758408D01*
X120727839Y-80779858D01*
X120724780Y-80783156D01*
X120721921Y-80775149D01*
X120719707Y-80744855D01*
X120718143Y-80692556D01*
X120717233Y-80618531D01*
X120716980Y-80523063D01*
X120717387Y-80406434D01*
X120718296Y-80286445D01*
X120719618Y-80154333D01*
X120721143Y-80042594D01*
X120723119Y-79949025D01*
X120725794Y-79871419D01*
X120729418Y-79807574D01*
X120734239Y-79755283D01*
X120740506Y-79712344D01*
X120748468Y-79676551D01*
X120758373Y-79645700D01*
X120770469Y-79617586D01*
X120785007Y-79590005D01*
X120799689Y-79564966D01*
X120837686Y-79501867D01*
X119777803Y-79501867D01*
X119474966Y-79501867D01*
X119474999Y-79495617D01*
X119475805Y-79393544D01*
X119476830Y-79304633D01*
X119478100Y-79227941D01*
X119479640Y-79162527D01*
X119481476Y-79107449D01*
X119483633Y-79061765D01*
X119486137Y-79024534D01*
X119489013Y-78994813D01*
X119492287Y-78971662D01*
X119495985Y-78954139D01*
X119500131Y-78941301D01*
X119504753Y-78932208D01*
X119509874Y-78925918D01*
X119515522Y-78921488D01*
X119521721Y-78917978D01*
X119528496Y-78914445D01*
X119534492Y-78910876D01*
X119539725Y-78908300D01*
X119547901Y-78905972D01*
X119560114Y-78903878D01*
X119577459Y-78902007D01*
X119601031Y-78900347D01*
X119631923Y-78898884D01*
X119671232Y-78897608D01*
X119720050Y-78896504D01*
X119779473Y-78895561D01*
X119850596Y-78894767D01*
X119934512Y-78894109D01*
X120032317Y-78893575D01*
X120145106Y-78893153D01*
X120273971Y-78892829D01*
X120420009Y-78892592D01*
X120584314Y-78892430D01*
X120767980Y-78892330D01*
X120972103Y-78892280D01*
X121183247Y-78892267D01*
X122803600Y-78892267D01*
X122803600Y-78989054D01*
X122803600Y-78989054D01*
G37*
X122803600Y-78989054D02*
X122814465Y-79102993D01*
X122846082Y-79210616D01*
X122896985Y-79309615D01*
X122965707Y-79397684D01*
X123050781Y-79472516D01*
X123147768Y-79530384D01*
X123254036Y-79570005D01*
X123361050Y-79588573D01*
X123466700Y-79587434D01*
X123568875Y-79567930D01*
X123665466Y-79531406D01*
X123754362Y-79479205D01*
X123833454Y-79412673D01*
X123900631Y-79333152D01*
X123953783Y-79241987D01*
X123990801Y-79140523D01*
X124009573Y-79030102D01*
X124011511Y-78980206D01*
X124011511Y-78892267D01*
X124063440Y-78892267D01*
X124099747Y-78895111D01*
X124126645Y-78906911D01*
X124153751Y-78930649D01*
X124192133Y-78969031D01*
X124192133Y-81160602D01*
X124192124Y-81422739D01*
X124192092Y-81663241D01*
X124192028Y-81883048D01*
X124191924Y-82083101D01*
X124191773Y-82264344D01*
X124191566Y-82427716D01*
X124191294Y-82574160D01*
X124190950Y-82704617D01*
X124190526Y-82820029D01*
X124190013Y-82921338D01*
X124189403Y-83009484D01*
X124188688Y-83085410D01*
X124187860Y-83150057D01*
X124186911Y-83204367D01*
X124185833Y-83249280D01*
X124184617Y-83285740D01*
X124183255Y-83314687D01*
X124181739Y-83337063D01*
X124180062Y-83353809D01*
X124178214Y-83365868D01*
X124176187Y-83374180D01*
X124173975Y-83379687D01*
X124172892Y-83381537D01*
X124168729Y-83388549D01*
X124165195Y-83394996D01*
X124161365Y-83400900D01*
X124156318Y-83406286D01*
X124149129Y-83411178D01*
X124138877Y-83415598D01*
X124124636Y-83419572D01*
X124105486Y-83423121D01*
X124080501Y-83426270D01*
X124048760Y-83429042D01*
X124009338Y-83431461D01*
X123961314Y-83433551D01*
X123903763Y-83435335D01*
X123835763Y-83436837D01*
X123756390Y-83438080D01*
X123664721Y-83439089D01*
X123559834Y-83439885D01*
X123440804Y-83440494D01*
X123306710Y-83440939D01*
X123156627Y-83441243D01*
X122989633Y-83441430D01*
X122804804Y-83441524D01*
X122601217Y-83441548D01*
X122377950Y-83441525D01*
X122134078Y-83441480D01*
X121868679Y-83441437D01*
X121830296Y-83441432D01*
X121563318Y-83441389D01*
X121317998Y-83441318D01*
X121093417Y-83441213D01*
X120888655Y-83441066D01*
X120702794Y-83440869D01*
X120534912Y-83440616D01*
X120384092Y-83440300D01*
X120249413Y-83439913D01*
X120129956Y-83439447D01*
X120024801Y-83438897D01*
X119933029Y-83438253D01*
X119853721Y-83437511D01*
X119785957Y-83436661D01*
X119728818Y-83435697D01*
X119681383Y-83434611D01*
X119642734Y-83433397D01*
X119611951Y-83432047D01*
X119588115Y-83430555D01*
X119570306Y-83428911D01*
X119557605Y-83427111D01*
X119549092Y-83425145D01*
X119544734Y-83423477D01*
X119536272Y-83419906D01*
X119528503Y-83417270D01*
X119521398Y-83414634D01*
X119514927Y-83411062D01*
X119509061Y-83405621D01*
X119503771Y-83397375D01*
X119499026Y-83385390D01*
X119494798Y-83368731D01*
X119491057Y-83346463D01*
X119487773Y-83317652D01*
X119484917Y-83281363D01*
X119482460Y-83236661D01*
X119480371Y-83182611D01*
X119478622Y-83118279D01*
X119477183Y-83042730D01*
X119476024Y-82955030D01*
X119475117Y-82854243D01*
X119474431Y-82739434D01*
X119473937Y-82609670D01*
X119473605Y-82464015D01*
X119473407Y-82301535D01*
X119473313Y-82121295D01*
X119473292Y-81922360D01*
X119473315Y-81703796D01*
X119473354Y-81464668D01*
X119473378Y-81204040D01*
X119473378Y-81161889D01*
X119473364Y-80898992D01*
X119473339Y-80657732D01*
X119473329Y-80437165D01*
X119473358Y-80236352D01*
X119473452Y-80054349D01*
X119473638Y-79890216D01*
X119473941Y-79743011D01*
X119474386Y-79611792D01*
X119474966Y-79501867D01*
X119777803Y-79501867D01*
X119817593Y-79559711D01*
X119828764Y-79575479D01*
X119838834Y-79589441D01*
X119847862Y-79602784D01*
X119855903Y-79616693D01*
X119863014Y-79632356D01*
X119869253Y-79650958D01*
X119874675Y-79673686D01*
X119879338Y-79701727D01*
X119883299Y-79736267D01*
X119886615Y-79778492D01*
X119889341Y-79829589D01*
X119891536Y-79890744D01*
X119893255Y-79963144D01*
X119894556Y-80047975D01*
X119895495Y-80146422D01*
X119896130Y-80259674D01*
X119896516Y-80388916D01*
X119896712Y-80535334D01*
X119896773Y-80700116D01*
X119896757Y-80884447D01*
X119896720Y-81089513D01*
X119896711Y-81212133D01*
X119896735Y-81429082D01*
X119896769Y-81624642D01*
X119896757Y-81799999D01*
X119896642Y-81956341D01*
X119896370Y-82094857D01*
X119895882Y-82216734D01*
X119895124Y-82323160D01*
X119894038Y-82415322D01*
X119892569Y-82494409D01*
X119890660Y-82561608D01*
X119888256Y-82618107D01*
X119885299Y-82665093D01*
X119881734Y-82703755D01*
X119877505Y-82735280D01*
X119872554Y-82760855D01*
X119866827Y-82781670D01*
X119860267Y-82798911D01*
X119852817Y-82813765D01*
X119844421Y-82827422D01*
X119835024Y-82841069D01*
X119824568Y-82855893D01*
X119818477Y-82864783D01*
X119779704Y-82922400D01*
X120311268Y-82922400D01*
X120434517Y-82922365D01*
X120537013Y-82922215D01*
X120620580Y-82921878D01*
X120687044Y-82921286D01*
X120738229Y-82920367D01*
X120775959Y-82919051D01*
X120802060Y-82917269D01*
X120818356Y-82914951D01*
X120826672Y-82912026D01*
X120828832Y-82908424D01*
X120826661Y-82904075D01*
X120825465Y-82902645D01*
X120800315Y-82865573D01*
X120774417Y-82812772D01*
X120750808Y-82750770D01*
X120742539Y-82724357D01*
X120737922Y-82706416D01*
X120734021Y-82685355D01*
X120730752Y-82659089D01*
X120728034Y-82625532D01*
X120725785Y-82582599D01*
X120723923Y-82528204D01*
X120722364Y-82460262D01*
X120721028Y-82376688D01*
X120719831Y-82275395D01*
X120718692Y-82154300D01*
X120718315Y-82109600D01*
X120717298Y-81984449D01*
X120716540Y-81880082D01*
X120716097Y-81794707D01*
X120716030Y-81726533D01*
X120716395Y-81673765D01*
X120717252Y-81634614D01*
X120718659Y-81607285D01*
X120720675Y-81589986D01*
X120723357Y-81580926D01*
X120726764Y-81578312D01*
X120730956Y-81580351D01*
X120735429Y-81584667D01*
X120745784Y-81597602D01*
X120767842Y-81626676D01*
X120800043Y-81669759D01*
X120840826Y-81724718D01*
X120888630Y-81789423D01*
X120941895Y-81861742D01*
X120999060Y-81939544D01*
X121058563Y-82020698D01*
X121118845Y-82103072D01*
X121178345Y-82184536D01*
X121235502Y-82262957D01*
X121288755Y-82336204D01*
X121336543Y-82402147D01*
X121377307Y-82458654D01*
X121409484Y-82503593D01*
X121431515Y-82534834D01*
X121436083Y-82541466D01*
X121459004Y-82578369D01*
X121485812Y-82626359D01*
X121511211Y-82675897D01*
X121514432Y-82682577D01*
X121536110Y-82730772D01*
X121548696Y-82768334D01*
X121554426Y-82804160D01*
X121555544Y-82846200D01*
X121554910Y-82922400D01*
X122709349Y-82922400D01*
X122618185Y-82828669D01*
X122571388Y-82778775D01*
X122521101Y-82722295D01*
X122475056Y-82668026D01*
X122454631Y-82642673D01*
X122424193Y-82603128D01*
X122384138Y-82549916D01*
X122335639Y-82484667D01*
X122279865Y-82409011D01*
X122217989Y-82324577D01*
X122151181Y-82232994D01*
X122080613Y-82135892D01*
X122007455Y-82034901D01*
X121932879Y-81931650D01*
X121858056Y-81827768D01*
X121784157Y-81724885D01*
X121712354Y-81624631D01*
X121643816Y-81528636D01*
X121579716Y-81438527D01*
X121521225Y-81355936D01*
X121469514Y-81282492D01*
X121425753Y-81219824D01*
X121391115Y-81169561D01*
X121366770Y-81133334D01*
X121353889Y-81112771D01*
X121352131Y-81108668D01*
X121360090Y-81097342D01*
X121380885Y-81070162D01*
X121413153Y-81028829D01*
X121455530Y-80975044D01*
X121506653Y-80910506D01*
X121565159Y-80836918D01*
X121629686Y-80755978D01*
X121698869Y-80669388D01*
X121771347Y-80578848D01*
X121845754Y-80486060D01*
X121905483Y-80411702D01*
X122916489Y-80411702D01*
X122922398Y-80424659D01*
X122936728Y-80446908D01*
X122937775Y-80448391D01*
X122956562Y-80478544D01*
X122976209Y-80515375D01*
X122980108Y-80523511D01*
X122983644Y-80531940D01*
X122986770Y-80542059D01*
X122989514Y-80555260D01*
X122991908Y-80572938D01*
X122993981Y-80596484D01*
X122995765Y-80627293D01*
X122997288Y-80666757D01*
X122998581Y-80716269D01*
X122999674Y-80777223D01*
X123000597Y-80851011D01*
X123001381Y-80939028D01*
X123002055Y-81042665D01*
X123002650Y-81163316D01*
X123003195Y-81302374D01*
X123003721Y-81461232D01*
X123004255Y-81640089D01*
X123004794Y-81825207D01*
X123005228Y-81989145D01*
X123005491Y-82133303D01*
X123005516Y-82259079D01*
X123005235Y-82367871D01*
X123004581Y-82461077D01*
X123003486Y-82540097D01*
X123001882Y-82606328D01*
X122999703Y-82661170D01*
X122996881Y-82706021D01*
X122993349Y-82742278D01*
X122989039Y-82771341D01*
X122983883Y-82794609D01*
X122977815Y-82813479D01*
X122970767Y-82829351D01*
X122962671Y-82843622D01*
X122953460Y-82857691D01*
X122944960Y-82870158D01*
X122927824Y-82896452D01*
X122917678Y-82914037D01*
X122916489Y-82917257D01*
X122927396Y-82918334D01*
X122958589Y-82919335D01*
X123007777Y-82920235D01*
X123072667Y-82921010D01*
X123150970Y-82921637D01*
X123240393Y-82922091D01*
X123338644Y-82922349D01*
X123407555Y-82922400D01*
X123512548Y-82922180D01*
X123609390Y-82921548D01*
X123695893Y-82920549D01*
X123769868Y-82919227D01*
X123829126Y-82917626D01*
X123871480Y-82915791D01*
X123894740Y-82913765D01*
X123898622Y-82912493D01*
X123890924Y-82897591D01*
X123882926Y-82889560D01*
X123869754Y-82872434D01*
X123852515Y-82842183D01*
X123840593Y-82817622D01*
X123813955Y-82758711D01*
X123810880Y-81581845D01*
X123807805Y-80404978D01*
X123362147Y-80404978D01*
X123264330Y-80405142D01*
X123173936Y-80405611D01*
X123093370Y-80406347D01*
X123025038Y-80407316D01*
X122971344Y-80408480D01*
X122934695Y-80409803D01*
X122917496Y-80411249D01*
X122916489Y-80411702D01*
X121905483Y-80411702D01*
X121920730Y-80392722D01*
X121994910Y-80300537D01*
X122066931Y-80211204D01*
X122135431Y-80126424D01*
X122199045Y-80047898D01*
X122256412Y-79977326D01*
X122306167Y-79916409D01*
X122346948Y-79866847D01*
X122364112Y-79846178D01*
X122450404Y-79745516D01*
X122527003Y-79662259D01*
X122595817Y-79594438D01*
X122658752Y-79540089D01*
X122668133Y-79532722D01*
X122707644Y-79502117D01*
X121575884Y-79501867D01*
X121581173Y-79549844D01*
X121577870Y-79607188D01*
X121556339Y-79675463D01*
X121516365Y-79755212D01*
X121471057Y-79827495D01*
X121454839Y-79850140D01*
X121426786Y-79887696D01*
X121388570Y-79938021D01*
X121341863Y-79998973D01*
X121288339Y-80068411D01*
X121229669Y-80144194D01*
X121167525Y-80224180D01*
X121103579Y-80306228D01*
X121039505Y-80388196D01*
X120976973Y-80467943D01*
X120917657Y-80543327D01*
X120863229Y-80612207D01*
X120815361Y-80672442D01*
X120775725Y-80721889D01*
X120745994Y-80758408D01*
X120727839Y-80779858D01*
X120724780Y-80783156D01*
X120721921Y-80775149D01*
X120719707Y-80744855D01*
X120718143Y-80692556D01*
X120717233Y-80618531D01*
X120716980Y-80523063D01*
X120717387Y-80406434D01*
X120718296Y-80286445D01*
X120719618Y-80154333D01*
X120721143Y-80042594D01*
X120723119Y-79949025D01*
X120725794Y-79871419D01*
X120729418Y-79807574D01*
X120734239Y-79755283D01*
X120740506Y-79712344D01*
X120748468Y-79676551D01*
X120758373Y-79645700D01*
X120770469Y-79617586D01*
X120785007Y-79590005D01*
X120799689Y-79564966D01*
X120837686Y-79501867D01*
X119777803Y-79501867D01*
X119474966Y-79501867D01*
X119474999Y-79495617D01*
X119475805Y-79393544D01*
X119476830Y-79304633D01*
X119478100Y-79227941D01*
X119479640Y-79162527D01*
X119481476Y-79107449D01*
X119483633Y-79061765D01*
X119486137Y-79024534D01*
X119489013Y-78994813D01*
X119492287Y-78971662D01*
X119495985Y-78954139D01*
X119500131Y-78941301D01*
X119504753Y-78932208D01*
X119509874Y-78925918D01*
X119515522Y-78921488D01*
X119521721Y-78917978D01*
X119528496Y-78914445D01*
X119534492Y-78910876D01*
X119539725Y-78908300D01*
X119547901Y-78905972D01*
X119560114Y-78903878D01*
X119577459Y-78902007D01*
X119601031Y-78900347D01*
X119631923Y-78898884D01*
X119671232Y-78897608D01*
X119720050Y-78896504D01*
X119779473Y-78895561D01*
X119850596Y-78894767D01*
X119934512Y-78894109D01*
X120032317Y-78893575D01*
X120145106Y-78893153D01*
X120273971Y-78892829D01*
X120420009Y-78892592D01*
X120584314Y-78892430D01*
X120767980Y-78892330D01*
X120972103Y-78892280D01*
X121183247Y-78892267D01*
X122803600Y-78892267D01*
X122803600Y-78989054D01*
G36*
X131978823Y-83774533D02*
X132010202Y-83796776D01*
X132037911Y-83824485D01*
X132037911Y-84133920D01*
X132037838Y-84225799D01*
X132037495Y-84297840D01*
X132036692Y-84352780D01*
X132035241Y-84393360D01*
X132032952Y-84422317D01*
X132029636Y-84442391D01*
X132025105Y-84456321D01*
X132019169Y-84466845D01*
X132014514Y-84473100D01*
X131983783Y-84497673D01*
X131948496Y-84500341D01*
X131916245Y-84485271D01*
X131905588Y-84476374D01*
X131898464Y-84464557D01*
X131894167Y-84445526D01*
X131891991Y-84414992D01*
X131891228Y-84368662D01*
X131891155Y-84332871D01*
X131891155Y-84198045D01*
X131394444Y-84198045D01*
X131394444Y-84320700D01*
X131393931Y-84376787D01*
X131391876Y-84415333D01*
X131387508Y-84441361D01*
X131380056Y-84459897D01*
X131371047Y-84473100D01*
X131340144Y-84497604D01*
X131305196Y-84500506D01*
X131271738Y-84483089D01*
X131262604Y-84473959D01*
X131256152Y-84461855D01*
X131251897Y-84443001D01*
X131249352Y-84413620D01*
X131248029Y-84369937D01*
X131247443Y-84308175D01*
X131247375Y-84294000D01*
X131246891Y-84177631D01*
X131246641Y-84081727D01*
X131246723Y-84004177D01*
X131247231Y-83942869D01*
X131248262Y-83895690D01*
X131249913Y-83860530D01*
X131252279Y-83835276D01*
X131255457Y-83817817D01*
X131259544Y-83806041D01*
X131264634Y-83797835D01*
X131270266Y-83791645D01*
X131302128Y-83771844D01*
X131335357Y-83774533D01*
X131366735Y-83796776D01*
X131379433Y-83811126D01*
X131387526Y-83826978D01*
X131392042Y-83849554D01*
X131394006Y-83884078D01*
X131394444Y-83935776D01*
X131394444Y-84051289D01*
X131891155Y-84051289D01*
X131891155Y-83932756D01*
X131891662Y-83878148D01*
X131893698Y-83841275D01*
X131898035Y-83817307D01*
X131905447Y-83801415D01*
X131913733Y-83791645D01*
X131945594Y-83771844D01*
X131978823Y-83774533D01*
X131978823Y-83774533D01*
G37*
X131978823Y-83774533D02*
X132010202Y-83796776D01*
X132037911Y-83824485D01*
X132037911Y-84133920D01*
X132037838Y-84225799D01*
X132037495Y-84297840D01*
X132036692Y-84352780D01*
X132035241Y-84393360D01*
X132032952Y-84422317D01*
X132029636Y-84442391D01*
X132025105Y-84456321D01*
X132019169Y-84466845D01*
X132014514Y-84473100D01*
X131983783Y-84497673D01*
X131948496Y-84500341D01*
X131916245Y-84485271D01*
X131905588Y-84476374D01*
X131898464Y-84464557D01*
X131894167Y-84445526D01*
X131891991Y-84414992D01*
X131891228Y-84368662D01*
X131891155Y-84332871D01*
X131891155Y-84198045D01*
X131394444Y-84198045D01*
X131394444Y-84320700D01*
X131393931Y-84376787D01*
X131391876Y-84415333D01*
X131387508Y-84441361D01*
X131380056Y-84459897D01*
X131371047Y-84473100D01*
X131340144Y-84497604D01*
X131305196Y-84500506D01*
X131271738Y-84483089D01*
X131262604Y-84473959D01*
X131256152Y-84461855D01*
X131251897Y-84443001D01*
X131249352Y-84413620D01*
X131248029Y-84369937D01*
X131247443Y-84308175D01*
X131247375Y-84294000D01*
X131246891Y-84177631D01*
X131246641Y-84081727D01*
X131246723Y-84004177D01*
X131247231Y-83942869D01*
X131248262Y-83895690D01*
X131249913Y-83860530D01*
X131252279Y-83835276D01*
X131255457Y-83817817D01*
X131259544Y-83806041D01*
X131264634Y-83797835D01*
X131270266Y-83791645D01*
X131302128Y-83771844D01*
X131335357Y-83774533D01*
X131366735Y-83796776D01*
X131379433Y-83811126D01*
X131387526Y-83826978D01*
X131392042Y-83849554D01*
X131394006Y-83884078D01*
X131394444Y-83935776D01*
X131394444Y-84051289D01*
X131891155Y-84051289D01*
X131891155Y-83932756D01*
X131891662Y-83878148D01*
X131893698Y-83841275D01*
X131898035Y-83817307D01*
X131905447Y-83801415D01*
X131913733Y-83791645D01*
X131945594Y-83771844D01*
X131978823Y-83774533D01*
G36*
X130713065Y-83769163D02*
X130791772Y-83769542D01*
X130852863Y-83770333D01*
X130898817Y-83771670D01*
X130932114Y-83773683D01*
X130955236Y-83776506D01*
X130970662Y-83780269D01*
X130980871Y-83785105D01*
X130985813Y-83788822D01*
X131011457Y-83821358D01*
X131014559Y-83855138D01*
X130998711Y-83885826D01*
X130988348Y-83898089D01*
X130977196Y-83906450D01*
X130961035Y-83911657D01*
X130935642Y-83914457D01*
X130896798Y-83915596D01*
X130840280Y-83915821D01*
X130829180Y-83915822D01*
X130683244Y-83915822D01*
X130683244Y-84186756D01*
X130683148Y-84272154D01*
X130682711Y-84337864D01*
X130681712Y-84386774D01*
X130679928Y-84421773D01*
X130677137Y-84445749D01*
X130673117Y-84461593D01*
X130667645Y-84472191D01*
X130660666Y-84480267D01*
X130627734Y-84500112D01*
X130593354Y-84498548D01*
X130562176Y-84475906D01*
X130559886Y-84473100D01*
X130552429Y-84462492D01*
X130546747Y-84450081D01*
X130542601Y-84432850D01*
X130539750Y-84407784D01*
X130537954Y-84371867D01*
X130536972Y-84322083D01*
X130536564Y-84255417D01*
X130536489Y-84179589D01*
X130536489Y-83915822D01*
X130397127Y-83915822D01*
X130337322Y-83915418D01*
X130295918Y-83913840D01*
X130268748Y-83910547D01*
X130251646Y-83904992D01*
X130240443Y-83896631D01*
X130239083Y-83895178D01*
X130222725Y-83861939D01*
X130224172Y-83824362D01*
X130242978Y-83791645D01*
X130250250Y-83785298D01*
X130259627Y-83780266D01*
X130273609Y-83776396D01*
X130294696Y-83773537D01*
X130325389Y-83771535D01*
X130368189Y-83770239D01*
X130425595Y-83769498D01*
X130500110Y-83769158D01*
X130594233Y-83769068D01*
X130614260Y-83769067D01*
X130713065Y-83769163D01*
X130713065Y-83769163D01*
G37*
X130713065Y-83769163D02*
X130791772Y-83769542D01*
X130852863Y-83770333D01*
X130898817Y-83771670D01*
X130932114Y-83773683D01*
X130955236Y-83776506D01*
X130970662Y-83780269D01*
X130980871Y-83785105D01*
X130985813Y-83788822D01*
X131011457Y-83821358D01*
X131014559Y-83855138D01*
X130998711Y-83885826D01*
X130988348Y-83898089D01*
X130977196Y-83906450D01*
X130961035Y-83911657D01*
X130935642Y-83914457D01*
X130896798Y-83915596D01*
X130840280Y-83915821D01*
X130829180Y-83915822D01*
X130683244Y-83915822D01*
X130683244Y-84186756D01*
X130683148Y-84272154D01*
X130682711Y-84337864D01*
X130681712Y-84386774D01*
X130679928Y-84421773D01*
X130677137Y-84445749D01*
X130673117Y-84461593D01*
X130667645Y-84472191D01*
X130660666Y-84480267D01*
X130627734Y-84500112D01*
X130593354Y-84498548D01*
X130562176Y-84475906D01*
X130559886Y-84473100D01*
X130552429Y-84462492D01*
X130546747Y-84450081D01*
X130542601Y-84432850D01*
X130539750Y-84407784D01*
X130537954Y-84371867D01*
X130536972Y-84322083D01*
X130536564Y-84255417D01*
X130536489Y-84179589D01*
X130536489Y-83915822D01*
X130397127Y-83915822D01*
X130337322Y-83915418D01*
X130295918Y-83913840D01*
X130268748Y-83910547D01*
X130251646Y-83904992D01*
X130240443Y-83896631D01*
X130239083Y-83895178D01*
X130222725Y-83861939D01*
X130224172Y-83824362D01*
X130242978Y-83791645D01*
X130250250Y-83785298D01*
X130259627Y-83780266D01*
X130273609Y-83776396D01*
X130294696Y-83773537D01*
X130325389Y-83771535D01*
X130368189Y-83770239D01*
X130425595Y-83769498D01*
X130500110Y-83769158D01*
X130594233Y-83769068D01*
X130614260Y-83769067D01*
X130713065Y-83769163D01*
G36*
X129938614Y-83775877D02*
X129962327Y-83790647D01*
X129988978Y-83812227D01*
X129988978Y-84133773D01*
X129988893Y-84227830D01*
X129988529Y-84301932D01*
X129987724Y-84358704D01*
X129986313Y-84400768D01*
X129984133Y-84430748D01*
X129981021Y-84451267D01*
X129976814Y-84464949D01*
X129971348Y-84474416D01*
X129967472Y-84479082D01*
X129936034Y-84499575D01*
X129900233Y-84498739D01*
X129868873Y-84481264D01*
X129842222Y-84459684D01*
X129842222Y-83812227D01*
X129868873Y-83790647D01*
X129894594Y-83774949D01*
X129915600Y-83769067D01*
X129938614Y-83775877D01*
X129938614Y-83775877D01*
G37*
X129938614Y-83775877D02*
X129962327Y-83790647D01*
X129988978Y-83812227D01*
X129988978Y-84133773D01*
X129988893Y-84227830D01*
X129988529Y-84301932D01*
X129987724Y-84358704D01*
X129986313Y-84400768D01*
X129984133Y-84430748D01*
X129981021Y-84451267D01*
X129976814Y-84464949D01*
X129971348Y-84474416D01*
X129967472Y-84479082D01*
X129936034Y-84499575D01*
X129900233Y-84498739D01*
X129868873Y-84481264D01*
X129842222Y-84459684D01*
X129842222Y-83812227D01*
X129868873Y-83790647D01*
X129894594Y-83774949D01*
X129915600Y-83769067D01*
X129938614Y-83775877D01*
G36*
X129494665Y-83771034D02*
X129514255Y-83778035D01*
X129515010Y-83778377D01*
X129541613Y-83798678D01*
X129556270Y-83819561D01*
X129559138Y-83829352D01*
X129558996Y-83842361D01*
X129554961Y-83860895D01*
X129546146Y-83887257D01*
X129531669Y-83923752D01*
X129510645Y-83972687D01*
X129482188Y-84036365D01*
X129445415Y-84117093D01*
X129425175Y-84161216D01*
X129388625Y-84239985D01*
X129354315Y-84312423D01*
X129323552Y-84375880D01*
X129297648Y-84427708D01*
X129277910Y-84465259D01*
X129265650Y-84485884D01*
X129263224Y-84488733D01*
X129232183Y-84501302D01*
X129197121Y-84499619D01*
X129169000Y-84484332D01*
X129167854Y-84483089D01*
X129156668Y-84466154D01*
X129137904Y-84433170D01*
X129113875Y-84388380D01*
X129086897Y-84336032D01*
X129077201Y-84316742D01*
X129004014Y-84170150D01*
X128924240Y-84329393D01*
X128895767Y-84384415D01*
X128869350Y-84432132D01*
X128847148Y-84468893D01*
X128831319Y-84491044D01*
X128825954Y-84495741D01*
X128784257Y-84502102D01*
X128749849Y-84488733D01*
X128739728Y-84474446D01*
X128722214Y-84442692D01*
X128698735Y-84396597D01*
X128670720Y-84339285D01*
X128639599Y-84273880D01*
X128606799Y-84203507D01*
X128573750Y-84131291D01*
X128541881Y-84060355D01*
X128512619Y-83993825D01*
X128487395Y-83934826D01*
X128467636Y-83886481D01*
X128454772Y-83851915D01*
X128450231Y-83834253D01*
X128450277Y-83833613D01*
X128461326Y-83811388D01*
X128483410Y-83788753D01*
X128484710Y-83787768D01*
X128511853Y-83772425D01*
X128536958Y-83772574D01*
X128546368Y-83775466D01*
X128557834Y-83781718D01*
X128570010Y-83794014D01*
X128584357Y-83814908D01*
X128602336Y-83846949D01*
X128625407Y-83892688D01*
X128655030Y-83954677D01*
X128681745Y-84011898D01*
X128712480Y-84078226D01*
X128740021Y-84137874D01*
X128762938Y-84187725D01*
X128779798Y-84224664D01*
X128789173Y-84245573D01*
X128790540Y-84248845D01*
X128796689Y-84243497D01*
X128810822Y-84221109D01*
X128831057Y-84184946D01*
X128855515Y-84138277D01*
X128865248Y-84119022D01*
X128898217Y-84054004D01*
X128923643Y-84006654D01*
X128943612Y-83974219D01*
X128960210Y-83953946D01*
X128975524Y-83943082D01*
X128991640Y-83938875D01*
X129002143Y-83938400D01*
X129020670Y-83940042D01*
X129036904Y-83946831D01*
X129053035Y-83961566D01*
X129071251Y-83987044D01*
X129093739Y-84026061D01*
X129122689Y-84081414D01*
X129138662Y-84112903D01*
X129164570Y-84163087D01*
X129187167Y-84204704D01*
X129204458Y-84234242D01*
X129214450Y-84248189D01*
X129215809Y-84248770D01*
X129222261Y-84237793D01*
X129236708Y-84209290D01*
X129257703Y-84166244D01*
X129283797Y-84111638D01*
X129313546Y-84048454D01*
X129328180Y-84017071D01*
X129366250Y-83936078D01*
X129396905Y-83873756D01*
X129421737Y-83828071D01*
X129442337Y-83796989D01*
X129460298Y-83778478D01*
X129477210Y-83770504D01*
X129494665Y-83771034D01*
X129494665Y-83771034D01*
G37*
X129494665Y-83771034D02*
X129514255Y-83778035D01*
X129515010Y-83778377D01*
X129541613Y-83798678D01*
X129556270Y-83819561D01*
X129559138Y-83829352D01*
X129558996Y-83842361D01*
X129554961Y-83860895D01*
X129546146Y-83887257D01*
X129531669Y-83923752D01*
X129510645Y-83972687D01*
X129482188Y-84036365D01*
X129445415Y-84117093D01*
X129425175Y-84161216D01*
X129388625Y-84239985D01*
X129354315Y-84312423D01*
X129323552Y-84375880D01*
X129297648Y-84427708D01*
X129277910Y-84465259D01*
X129265650Y-84485884D01*
X129263224Y-84488733D01*
X129232183Y-84501302D01*
X129197121Y-84499619D01*
X129169000Y-84484332D01*
X129167854Y-84483089D01*
X129156668Y-84466154D01*
X129137904Y-84433170D01*
X129113875Y-84388380D01*
X129086897Y-84336032D01*
X129077201Y-84316742D01*
X129004014Y-84170150D01*
X128924240Y-84329393D01*
X128895767Y-84384415D01*
X128869350Y-84432132D01*
X128847148Y-84468893D01*
X128831319Y-84491044D01*
X128825954Y-84495741D01*
X128784257Y-84502102D01*
X128749849Y-84488733D01*
X128739728Y-84474446D01*
X128722214Y-84442692D01*
X128698735Y-84396597D01*
X128670720Y-84339285D01*
X128639599Y-84273880D01*
X128606799Y-84203507D01*
X128573750Y-84131291D01*
X128541881Y-84060355D01*
X128512619Y-83993825D01*
X128487395Y-83934826D01*
X128467636Y-83886481D01*
X128454772Y-83851915D01*
X128450231Y-83834253D01*
X128450277Y-83833613D01*
X128461326Y-83811388D01*
X128483410Y-83788753D01*
X128484710Y-83787768D01*
X128511853Y-83772425D01*
X128536958Y-83772574D01*
X128546368Y-83775466D01*
X128557834Y-83781718D01*
X128570010Y-83794014D01*
X128584357Y-83814908D01*
X128602336Y-83846949D01*
X128625407Y-83892688D01*
X128655030Y-83954677D01*
X128681745Y-84011898D01*
X128712480Y-84078226D01*
X128740021Y-84137874D01*
X128762938Y-84187725D01*
X128779798Y-84224664D01*
X128789173Y-84245573D01*
X128790540Y-84248845D01*
X128796689Y-84243497D01*
X128810822Y-84221109D01*
X128831057Y-84184946D01*
X128855515Y-84138277D01*
X128865248Y-84119022D01*
X128898217Y-84054004D01*
X128923643Y-84006654D01*
X128943612Y-83974219D01*
X128960210Y-83953946D01*
X128975524Y-83943082D01*
X128991640Y-83938875D01*
X129002143Y-83938400D01*
X129020670Y-83940042D01*
X129036904Y-83946831D01*
X129053035Y-83961566D01*
X129071251Y-83987044D01*
X129093739Y-84026061D01*
X129122689Y-84081414D01*
X129138662Y-84112903D01*
X129164570Y-84163087D01*
X129187167Y-84204704D01*
X129204458Y-84234242D01*
X129214450Y-84248189D01*
X129215809Y-84248770D01*
X129222261Y-84237793D01*
X129236708Y-84209290D01*
X129257703Y-84166244D01*
X129283797Y-84111638D01*
X129313546Y-84048454D01*
X129328180Y-84017071D01*
X129366250Y-83936078D01*
X129396905Y-83873756D01*
X129421737Y-83828071D01*
X129442337Y-83796989D01*
X129460298Y-83778478D01*
X129477210Y-83770504D01*
X129494665Y-83771034D01*
G36*
X126768309Y-83769275D02*
X126897288Y-83773636D01*
X127006991Y-83786861D01*
X127099226Y-83809741D01*
X127175802Y-83843070D01*
X127238527Y-83887638D01*
X127289212Y-83944236D01*
X127329663Y-84013658D01*
X127330459Y-84015351D01*
X127354601Y-84077483D01*
X127363203Y-84132509D01*
X127356231Y-84187887D01*
X127333654Y-84251073D01*
X127329372Y-84260689D01*
X127300172Y-84316966D01*
X127267356Y-84360451D01*
X127225002Y-84397417D01*
X127167190Y-84434135D01*
X127163831Y-84436052D01*
X127113504Y-84460227D01*
X127056621Y-84478282D01*
X126989527Y-84490839D01*
X126908565Y-84498522D01*
X126810082Y-84501953D01*
X126775286Y-84502251D01*
X126609594Y-84502845D01*
X126586197Y-84473100D01*
X126579257Y-84463319D01*
X126573842Y-84451897D01*
X126569765Y-84436095D01*
X126566837Y-84413175D01*
X126564867Y-84380396D01*
X126564225Y-84356089D01*
X126720844Y-84356089D01*
X126814726Y-84356089D01*
X126869664Y-84354483D01*
X126926060Y-84350255D01*
X126972345Y-84344292D01*
X126975139Y-84343790D01*
X127057348Y-84321736D01*
X127121114Y-84288600D01*
X127168452Y-84242847D01*
X127201382Y-84182939D01*
X127207108Y-84167061D01*
X127212721Y-84142333D01*
X127210291Y-84117902D01*
X127198467Y-84085400D01*
X127191340Y-84069434D01*
X127168000Y-84027006D01*
X127139880Y-83997240D01*
X127108940Y-83976511D01*
X127046966Y-83949537D01*
X126967651Y-83929998D01*
X126875253Y-83918746D01*
X126808333Y-83916270D01*
X126720844Y-83915822D01*
X126720844Y-84356089D01*
X126564225Y-84356089D01*
X126563668Y-84335021D01*
X126563050Y-84274311D01*
X126562825Y-84195526D01*
X126562800Y-84133920D01*
X126562800Y-83824485D01*
X126590509Y-83796776D01*
X126602806Y-83785544D01*
X126616103Y-83777853D01*
X126634672Y-83773040D01*
X126662786Y-83770446D01*
X126704717Y-83769410D01*
X126764737Y-83769270D01*
X126768309Y-83769275D01*
X126768309Y-83769275D01*
G37*
X126768309Y-83769275D02*
X126897288Y-83773636D01*
X127006991Y-83786861D01*
X127099226Y-83809741D01*
X127175802Y-83843070D01*
X127238527Y-83887638D01*
X127289212Y-83944236D01*
X127329663Y-84013658D01*
X127330459Y-84015351D01*
X127354601Y-84077483D01*
X127363203Y-84132509D01*
X127356231Y-84187887D01*
X127333654Y-84251073D01*
X127329372Y-84260689D01*
X127300172Y-84316966D01*
X127267356Y-84360451D01*
X127225002Y-84397417D01*
X127167190Y-84434135D01*
X127163831Y-84436052D01*
X127113504Y-84460227D01*
X127056621Y-84478282D01*
X126989527Y-84490839D01*
X126908565Y-84498522D01*
X126810082Y-84501953D01*
X126775286Y-84502251D01*
X126609594Y-84502845D01*
X126586197Y-84473100D01*
X126579257Y-84463319D01*
X126573842Y-84451897D01*
X126569765Y-84436095D01*
X126566837Y-84413175D01*
X126564867Y-84380396D01*
X126564225Y-84356089D01*
X126720844Y-84356089D01*
X126814726Y-84356089D01*
X126869664Y-84354483D01*
X126926060Y-84350255D01*
X126972345Y-84344292D01*
X126975139Y-84343790D01*
X127057348Y-84321736D01*
X127121114Y-84288600D01*
X127168452Y-84242847D01*
X127201382Y-84182939D01*
X127207108Y-84167061D01*
X127212721Y-84142333D01*
X127210291Y-84117902D01*
X127198467Y-84085400D01*
X127191340Y-84069434D01*
X127168000Y-84027006D01*
X127139880Y-83997240D01*
X127108940Y-83976511D01*
X127046966Y-83949537D01*
X126967651Y-83929998D01*
X126875253Y-83918746D01*
X126808333Y-83916270D01*
X126720844Y-83915822D01*
X126720844Y-84356089D01*
X126564225Y-84356089D01*
X126563668Y-84335021D01*
X126563050Y-84274311D01*
X126562825Y-84195526D01*
X126562800Y-84133920D01*
X126562800Y-83824485D01*
X126590509Y-83796776D01*
X126602806Y-83785544D01*
X126616103Y-83777853D01*
X126634672Y-83773040D01*
X126662786Y-83770446D01*
X126704717Y-83769410D01*
X126764737Y-83769270D01*
X126768309Y-83769275D01*
G36*
X125980343Y-83769260D02*
X126056701Y-83770174D01*
X126115217Y-83772311D01*
X126158255Y-83776175D01*
X126188183Y-83782267D01*
X126207368Y-83791090D01*
X126218176Y-83803146D01*
X126222973Y-83818939D01*
X126224127Y-83838970D01*
X126224133Y-83841335D01*
X126223131Y-83863992D01*
X126218396Y-83881503D01*
X126207333Y-83894574D01*
X126187348Y-83903913D01*
X126155846Y-83910227D01*
X126110232Y-83914222D01*
X126047913Y-83916606D01*
X125966293Y-83918086D01*
X125941277Y-83918414D01*
X125699200Y-83921467D01*
X125695814Y-83986378D01*
X125692429Y-84051289D01*
X125860576Y-84051289D01*
X125926266Y-84051531D01*
X125973172Y-84052556D01*
X126005083Y-84054811D01*
X126025791Y-84058742D01*
X126039084Y-84064798D01*
X126048755Y-84073424D01*
X126048817Y-84073493D01*
X126066356Y-84107112D01*
X126065722Y-84143448D01*
X126047314Y-84174423D01*
X126043671Y-84177607D01*
X126030741Y-84185812D01*
X126013024Y-84191521D01*
X125986570Y-84195162D01*
X125947432Y-84197167D01*
X125891662Y-84197964D01*
X125855994Y-84198045D01*
X125693555Y-84198045D01*
X125693555Y-84356089D01*
X125940161Y-84356089D01*
X126021580Y-84356231D01*
X126083410Y-84356814D01*
X126128637Y-84358068D01*
X126160248Y-84360227D01*
X126181231Y-84363523D01*
X126194573Y-84368189D01*
X126203261Y-84374457D01*
X126205450Y-84376733D01*
X126221614Y-84408280D01*
X126222797Y-84444168D01*
X126209536Y-84475285D01*
X126199043Y-84485271D01*
X126188129Y-84490769D01*
X126171217Y-84495022D01*
X126145633Y-84498180D01*
X126108701Y-84500392D01*
X126057746Y-84501806D01*
X125990094Y-84502572D01*
X125903069Y-84502838D01*
X125883394Y-84502845D01*
X125794911Y-84502787D01*
X125726227Y-84502467D01*
X125674564Y-84501667D01*
X125637145Y-84500167D01*
X125611190Y-84497749D01*
X125593922Y-84494194D01*
X125582562Y-84489282D01*
X125574332Y-84482795D01*
X125569817Y-84478138D01*
X125563021Y-84469889D01*
X125557712Y-84459669D01*
X125553706Y-84444800D01*
X125550821Y-84422602D01*
X125548874Y-84390393D01*
X125547681Y-84345496D01*
X125547061Y-84285228D01*
X125546829Y-84206911D01*
X125546800Y-84140994D01*
X125546871Y-84048628D01*
X125547208Y-83976117D01*
X125547998Y-83920737D01*
X125549426Y-83879765D01*
X125551679Y-83850478D01*
X125554943Y-83830153D01*
X125559404Y-83816066D01*
X125565248Y-83805495D01*
X125570197Y-83798811D01*
X125593594Y-83769067D01*
X125883774Y-83769067D01*
X125980343Y-83769260D01*
X125980343Y-83769260D01*
G37*
X125980343Y-83769260D02*
X126056701Y-83770174D01*
X126115217Y-83772311D01*
X126158255Y-83776175D01*
X126188183Y-83782267D01*
X126207368Y-83791090D01*
X126218176Y-83803146D01*
X126222973Y-83818939D01*
X126224127Y-83838970D01*
X126224133Y-83841335D01*
X126223131Y-83863992D01*
X126218396Y-83881503D01*
X126207333Y-83894574D01*
X126187348Y-83903913D01*
X126155846Y-83910227D01*
X126110232Y-83914222D01*
X126047913Y-83916606D01*
X125966293Y-83918086D01*
X125941277Y-83918414D01*
X125699200Y-83921467D01*
X125695814Y-83986378D01*
X125692429Y-84051289D01*
X125860576Y-84051289D01*
X125926266Y-84051531D01*
X125973172Y-84052556D01*
X126005083Y-84054811D01*
X126025791Y-84058742D01*
X126039084Y-84064798D01*
X126048755Y-84073424D01*
X126048817Y-84073493D01*
X126066356Y-84107112D01*
X126065722Y-84143448D01*
X126047314Y-84174423D01*
X126043671Y-84177607D01*
X126030741Y-84185812D01*
X126013024Y-84191521D01*
X125986570Y-84195162D01*
X125947432Y-84197167D01*
X125891662Y-84197964D01*
X125855994Y-84198045D01*
X125693555Y-84198045D01*
X125693555Y-84356089D01*
X125940161Y-84356089D01*
X126021580Y-84356231D01*
X126083410Y-84356814D01*
X126128637Y-84358068D01*
X126160248Y-84360227D01*
X126181231Y-84363523D01*
X126194573Y-84368189D01*
X126203261Y-84374457D01*
X126205450Y-84376733D01*
X126221614Y-84408280D01*
X126222797Y-84444168D01*
X126209536Y-84475285D01*
X126199043Y-84485271D01*
X126188129Y-84490769D01*
X126171217Y-84495022D01*
X126145633Y-84498180D01*
X126108701Y-84500392D01*
X126057746Y-84501806D01*
X125990094Y-84502572D01*
X125903069Y-84502838D01*
X125883394Y-84502845D01*
X125794911Y-84502787D01*
X125726227Y-84502467D01*
X125674564Y-84501667D01*
X125637145Y-84500167D01*
X125611190Y-84497749D01*
X125593922Y-84494194D01*
X125582562Y-84489282D01*
X125574332Y-84482795D01*
X125569817Y-84478138D01*
X125563021Y-84469889D01*
X125557712Y-84459669D01*
X125553706Y-84444800D01*
X125550821Y-84422602D01*
X125548874Y-84390393D01*
X125547681Y-84345496D01*
X125547061Y-84285228D01*
X125546829Y-84206911D01*
X125546800Y-84140994D01*
X125546871Y-84048628D01*
X125547208Y-83976117D01*
X125547998Y-83920737D01*
X125549426Y-83879765D01*
X125551679Y-83850478D01*
X125554943Y-83830153D01*
X125559404Y-83816066D01*
X125565248Y-83805495D01*
X125570197Y-83798811D01*
X125593594Y-83769067D01*
X125883774Y-83769067D01*
X125980343Y-83769260D01*
G36*
X124449886Y-83773448D02*
X124473452Y-83787273D01*
X124504265Y-83809881D01*
X124543922Y-83842338D01*
X124594020Y-83885708D01*
X124656157Y-83941058D01*
X124731928Y-84009451D01*
X124818666Y-84088084D01*
X124999289Y-84251878D01*
X125004933Y-84032029D01*
X125006971Y-83956351D01*
X125008937Y-83899994D01*
X125011266Y-83859706D01*
X125014394Y-83832235D01*
X125018755Y-83814329D01*
X125024784Y-83802737D01*
X125032916Y-83794208D01*
X125037228Y-83790623D01*
X125071759Y-83771670D01*
X125104617Y-83774441D01*
X125130682Y-83790633D01*
X125157333Y-83812199D01*
X125160648Y-84127151D01*
X125161565Y-84219779D01*
X125162032Y-84292544D01*
X125161887Y-84348161D01*
X125160968Y-84389342D01*
X125159113Y-84418803D01*
X125156161Y-84439255D01*
X125151950Y-84453413D01*
X125146318Y-84463991D01*
X125140073Y-84472474D01*
X125126561Y-84488207D01*
X125113117Y-84498636D01*
X125097876Y-84502639D01*
X125078974Y-84499094D01*
X125054545Y-84486879D01*
X125022727Y-84464871D01*
X124981652Y-84431949D01*
X124929458Y-84386991D01*
X124864278Y-84328875D01*
X124790444Y-84262099D01*
X124525155Y-84021458D01*
X124519511Y-84240589D01*
X124517469Y-84316128D01*
X124515498Y-84372354D01*
X124513161Y-84412524D01*
X124510019Y-84439896D01*
X124505636Y-84457728D01*
X124499576Y-84469279D01*
X124491400Y-84477807D01*
X124487216Y-84481282D01*
X124450235Y-84500372D01*
X124415292Y-84497493D01*
X124384864Y-84473100D01*
X124377903Y-84463286D01*
X124372477Y-84451826D01*
X124368397Y-84435968D01*
X124365471Y-84412963D01*
X124363508Y-84380062D01*
X124362317Y-84334516D01*
X124361708Y-84273573D01*
X124361489Y-84194486D01*
X124361466Y-84135956D01*
X124361540Y-84044407D01*
X124361887Y-83972687D01*
X124362699Y-83918045D01*
X124364167Y-83877732D01*
X124366481Y-83848998D01*
X124369833Y-83829093D01*
X124374412Y-83815268D01*
X124380411Y-83804772D01*
X124384864Y-83798811D01*
X124396150Y-83784691D01*
X124406699Y-83774029D01*
X124418107Y-83767892D01*
X124431970Y-83767343D01*
X124449886Y-83773448D01*
X124449886Y-83773448D01*
G37*
X124449886Y-83773448D02*
X124473452Y-83787273D01*
X124504265Y-83809881D01*
X124543922Y-83842338D01*
X124594020Y-83885708D01*
X124656157Y-83941058D01*
X124731928Y-84009451D01*
X124818666Y-84088084D01*
X124999289Y-84251878D01*
X125004933Y-84032029D01*
X125006971Y-83956351D01*
X125008937Y-83899994D01*
X125011266Y-83859706D01*
X125014394Y-83832235D01*
X125018755Y-83814329D01*
X125024784Y-83802737D01*
X125032916Y-83794208D01*
X125037228Y-83790623D01*
X125071759Y-83771670D01*
X125104617Y-83774441D01*
X125130682Y-83790633D01*
X125157333Y-83812199D01*
X125160648Y-84127151D01*
X125161565Y-84219779D01*
X125162032Y-84292544D01*
X125161887Y-84348161D01*
X125160968Y-84389342D01*
X125159113Y-84418803D01*
X125156161Y-84439255D01*
X125151950Y-84453413D01*
X125146318Y-84463991D01*
X125140073Y-84472474D01*
X125126561Y-84488207D01*
X125113117Y-84498636D01*
X125097876Y-84502639D01*
X125078974Y-84499094D01*
X125054545Y-84486879D01*
X125022727Y-84464871D01*
X124981652Y-84431949D01*
X124929458Y-84386991D01*
X124864278Y-84328875D01*
X124790444Y-84262099D01*
X124525155Y-84021458D01*
X124519511Y-84240589D01*
X124517469Y-84316128D01*
X124515498Y-84372354D01*
X124513161Y-84412524D01*
X124510019Y-84439896D01*
X124505636Y-84457728D01*
X124499576Y-84469279D01*
X124491400Y-84477807D01*
X124487216Y-84481282D01*
X124450235Y-84500372D01*
X124415292Y-84497493D01*
X124384864Y-84473100D01*
X124377903Y-84463286D01*
X124372477Y-84451826D01*
X124368397Y-84435968D01*
X124365471Y-84412963D01*
X124363508Y-84380062D01*
X124362317Y-84334516D01*
X124361708Y-84273573D01*
X124361489Y-84194486D01*
X124361466Y-84135956D01*
X124361540Y-84044407D01*
X124361887Y-83972687D01*
X124362699Y-83918045D01*
X124364167Y-83877732D01*
X124366481Y-83848998D01*
X124369833Y-83829093D01*
X124374412Y-83815268D01*
X124380411Y-83804772D01*
X124384864Y-83798811D01*
X124396150Y-83784691D01*
X124406699Y-83774029D01*
X124418107Y-83767892D01*
X124431970Y-83767343D01*
X124449886Y-83773448D01*
G36*
X123799919Y-83774599D02*
X123868435Y-83786095D01*
X123921057Y-83803967D01*
X123955292Y-83827499D01*
X123964621Y-83840924D01*
X123974107Y-83872148D01*
X123967723Y-83900395D01*
X123947570Y-83927182D01*
X123916255Y-83939713D01*
X123870817Y-83938696D01*
X123835674Y-83931906D01*
X123757581Y-83918971D01*
X123677774Y-83917742D01*
X123588445Y-83928241D01*
X123563771Y-83932690D01*
X123480709Y-83956108D01*
X123415727Y-83990945D01*
X123369539Y-84036604D01*
X123342855Y-84092494D01*
X123337337Y-84121388D01*
X123340949Y-84180012D01*
X123364271Y-84231879D01*
X123405176Y-84275978D01*
X123461541Y-84311299D01*
X123531240Y-84336829D01*
X123612148Y-84351559D01*
X123702140Y-84354478D01*
X123799090Y-84344575D01*
X123804564Y-84343641D01*
X123843125Y-84336459D01*
X123864506Y-84329521D01*
X123873773Y-84319227D01*
X123875994Y-84301976D01*
X123876044Y-84292841D01*
X123876044Y-84254489D01*
X123807569Y-84254489D01*
X123747100Y-84250347D01*
X123705835Y-84237147D01*
X123681825Y-84213730D01*
X123673123Y-84178936D01*
X123673017Y-84174394D01*
X123678108Y-84144654D01*
X123695567Y-84123419D01*
X123728061Y-84109366D01*
X123778257Y-84101173D01*
X123826877Y-84098161D01*
X123897544Y-84096433D01*
X123948802Y-84099070D01*
X123983761Y-84108800D01*
X124005530Y-84128353D01*
X124017220Y-84160456D01*
X124021940Y-84207838D01*
X124022800Y-84270071D01*
X124021391Y-84339535D01*
X124017152Y-84386786D01*
X124010064Y-84412012D01*
X124008689Y-84413988D01*
X123969772Y-84445508D01*
X123912714Y-84470470D01*
X123841131Y-84488340D01*
X123758642Y-84498586D01*
X123668861Y-84500673D01*
X123575408Y-84494068D01*
X123520444Y-84485956D01*
X123434234Y-84461554D01*
X123354108Y-84421662D01*
X123287023Y-84369887D01*
X123276827Y-84359539D01*
X123243698Y-84316035D01*
X123213806Y-84262118D01*
X123190643Y-84205592D01*
X123177702Y-84154259D01*
X123176142Y-84134544D01*
X123182782Y-84093419D01*
X123200432Y-84042252D01*
X123225703Y-83988394D01*
X123255211Y-83939195D01*
X123281281Y-83906334D01*
X123342235Y-83857452D01*
X123421031Y-83818545D01*
X123514843Y-83790494D01*
X123620850Y-83774179D01*
X123718000Y-83770192D01*
X123799919Y-83774599D01*
X123799919Y-83774599D01*
G37*
X123799919Y-83774599D02*
X123868435Y-83786095D01*
X123921057Y-83803967D01*
X123955292Y-83827499D01*
X123964621Y-83840924D01*
X123974107Y-83872148D01*
X123967723Y-83900395D01*
X123947570Y-83927182D01*
X123916255Y-83939713D01*
X123870817Y-83938696D01*
X123835674Y-83931906D01*
X123757581Y-83918971D01*
X123677774Y-83917742D01*
X123588445Y-83928241D01*
X123563771Y-83932690D01*
X123480709Y-83956108D01*
X123415727Y-83990945D01*
X123369539Y-84036604D01*
X123342855Y-84092494D01*
X123337337Y-84121388D01*
X123340949Y-84180012D01*
X123364271Y-84231879D01*
X123405176Y-84275978D01*
X123461541Y-84311299D01*
X123531240Y-84336829D01*
X123612148Y-84351559D01*
X123702140Y-84354478D01*
X123799090Y-84344575D01*
X123804564Y-84343641D01*
X123843125Y-84336459D01*
X123864506Y-84329521D01*
X123873773Y-84319227D01*
X123875994Y-84301976D01*
X123876044Y-84292841D01*
X123876044Y-84254489D01*
X123807569Y-84254489D01*
X123747100Y-84250347D01*
X123705835Y-84237147D01*
X123681825Y-84213730D01*
X123673123Y-84178936D01*
X123673017Y-84174394D01*
X123678108Y-84144654D01*
X123695567Y-84123419D01*
X123728061Y-84109366D01*
X123778257Y-84101173D01*
X123826877Y-84098161D01*
X123897544Y-84096433D01*
X123948802Y-84099070D01*
X123983761Y-84108800D01*
X124005530Y-84128353D01*
X124017220Y-84160456D01*
X124021940Y-84207838D01*
X124022800Y-84270071D01*
X124021391Y-84339535D01*
X124017152Y-84386786D01*
X124010064Y-84412012D01*
X124008689Y-84413988D01*
X123969772Y-84445508D01*
X123912714Y-84470470D01*
X123841131Y-84488340D01*
X123758642Y-84498586D01*
X123668861Y-84500673D01*
X123575408Y-84494068D01*
X123520444Y-84485956D01*
X123434234Y-84461554D01*
X123354108Y-84421662D01*
X123287023Y-84369887D01*
X123276827Y-84359539D01*
X123243698Y-84316035D01*
X123213806Y-84262118D01*
X123190643Y-84205592D01*
X123177702Y-84154259D01*
X123176142Y-84134544D01*
X123182782Y-84093419D01*
X123200432Y-84042252D01*
X123225703Y-83988394D01*
X123255211Y-83939195D01*
X123281281Y-83906334D01*
X123342235Y-83857452D01*
X123421031Y-83818545D01*
X123514843Y-83790494D01*
X123620850Y-83774179D01*
X123718000Y-83770192D01*
X123799919Y-83774599D01*
G36*
X122826178Y-83791645D02*
X122832758Y-83799218D01*
X122837921Y-83808987D01*
X122841836Y-83823571D01*
X122844676Y-83845585D01*
X122846613Y-83877648D01*
X122847817Y-83922375D01*
X122848461Y-83982385D01*
X122848716Y-84060294D01*
X122848755Y-84135956D01*
X122848686Y-84229802D01*
X122848362Y-84303689D01*
X122847614Y-84360232D01*
X122846268Y-84402049D01*
X122844154Y-84431757D01*
X122841100Y-84451973D01*
X122836934Y-84465314D01*
X122831484Y-84474398D01*
X122826178Y-84480267D01*
X122793174Y-84499947D01*
X122758009Y-84498181D01*
X122726545Y-84476717D01*
X122719316Y-84468337D01*
X122713666Y-84458614D01*
X122709401Y-84444861D01*
X122706327Y-84424389D01*
X122704248Y-84394512D01*
X122702970Y-84352541D01*
X122702299Y-84295789D01*
X122702041Y-84221567D01*
X122702000Y-84137537D01*
X122702000Y-83824485D01*
X122729709Y-83796776D01*
X122763863Y-83773463D01*
X122796994Y-83772623D01*
X122826178Y-83791645D01*
X122826178Y-83791645D01*
G37*
X122826178Y-83791645D02*
X122832758Y-83799218D01*
X122837921Y-83808987D01*
X122841836Y-83823571D01*
X122844676Y-83845585D01*
X122846613Y-83877648D01*
X122847817Y-83922375D01*
X122848461Y-83982385D01*
X122848716Y-84060294D01*
X122848755Y-84135956D01*
X122848686Y-84229802D01*
X122848362Y-84303689D01*
X122847614Y-84360232D01*
X122846268Y-84402049D01*
X122844154Y-84431757D01*
X122841100Y-84451973D01*
X122836934Y-84465314D01*
X122831484Y-84474398D01*
X122826178Y-84480267D01*
X122793174Y-84499947D01*
X122758009Y-84498181D01*
X122726545Y-84476717D01*
X122719316Y-84468337D01*
X122713666Y-84458614D01*
X122709401Y-84444861D01*
X122706327Y-84424389D01*
X122704248Y-84394512D01*
X122702970Y-84352541D01*
X122702299Y-84295789D01*
X122702041Y-84221567D01*
X122702000Y-84137537D01*
X122702000Y-83824485D01*
X122729709Y-83796776D01*
X122763863Y-83773463D01*
X122796994Y-83772623D01*
X122826178Y-83791645D01*
G36*
X122058297Y-83770351D02*
X122133112Y-83775581D01*
X122202694Y-83783750D01*
X122262998Y-83794550D01*
X122309980Y-83807673D01*
X122339594Y-83822813D01*
X122344140Y-83827269D01*
X122359946Y-83861850D01*
X122355153Y-83897351D01*
X122330636Y-83927725D01*
X122329466Y-83928596D01*
X122315046Y-83937954D01*
X122299992Y-83942876D01*
X122278995Y-83943473D01*
X122246743Y-83939861D01*
X122197927Y-83932154D01*
X122194000Y-83931505D01*
X122121261Y-83922569D01*
X122042783Y-83918161D01*
X121964073Y-83918119D01*
X121890639Y-83922279D01*
X121827989Y-83930479D01*
X121781630Y-83942557D01*
X121778584Y-83943771D01*
X121744952Y-83962615D01*
X121733136Y-83981685D01*
X121742386Y-84000439D01*
X121771953Y-84018337D01*
X121821089Y-84034837D01*
X121889043Y-84049396D01*
X121934355Y-84056406D01*
X122028544Y-84069889D01*
X122103456Y-84082214D01*
X122162283Y-84094449D01*
X122208215Y-84107661D01*
X122244445Y-84122917D01*
X122274162Y-84141285D01*
X122300558Y-84163831D01*
X122321770Y-84185971D01*
X122346935Y-84216819D01*
X122359319Y-84243345D01*
X122363192Y-84276026D01*
X122363333Y-84287995D01*
X122360424Y-84327712D01*
X122348798Y-84357259D01*
X122328677Y-84383486D01*
X122287784Y-84423576D01*
X122242183Y-84454149D01*
X122188487Y-84476203D01*
X122123308Y-84490735D01*
X122043256Y-84498741D01*
X121944943Y-84501218D01*
X121928711Y-84501177D01*
X121863151Y-84499818D01*
X121798134Y-84496730D01*
X121740748Y-84492356D01*
X121698078Y-84487140D01*
X121694628Y-84486541D01*
X121652204Y-84476491D01*
X121616220Y-84463796D01*
X121595850Y-84452190D01*
X121576893Y-84421572D01*
X121575573Y-84385918D01*
X121591915Y-84354144D01*
X121595571Y-84350551D01*
X121610685Y-84339876D01*
X121629585Y-84335276D01*
X121658838Y-84336059D01*
X121694349Y-84340127D01*
X121734030Y-84343762D01*
X121789655Y-84346828D01*
X121854594Y-84349053D01*
X121922215Y-84350164D01*
X121940000Y-84350237D01*
X122007872Y-84349964D01*
X122057546Y-84348646D01*
X122093390Y-84345827D01*
X122119776Y-84341050D01*
X122141074Y-84333857D01*
X122153874Y-84327867D01*
X122182000Y-84311233D01*
X122199932Y-84296168D01*
X122202553Y-84291897D01*
X122197024Y-84274263D01*
X122170740Y-84257192D01*
X122125522Y-84241458D01*
X122063192Y-84227838D01*
X122044829Y-84224804D01*
X121948910Y-84209738D01*
X121872359Y-84197146D01*
X121812220Y-84186111D01*
X121765540Y-84175720D01*
X121729363Y-84165056D01*
X121700735Y-84153205D01*
X121676702Y-84139251D01*
X121654308Y-84122281D01*
X121630598Y-84101378D01*
X121622620Y-84094049D01*
X121594647Y-84066699D01*
X121579840Y-84045029D01*
X121574048Y-84020232D01*
X121573111Y-83988983D01*
X121583425Y-83927705D01*
X121614248Y-83875640D01*
X121665405Y-83832958D01*
X121736717Y-83799825D01*
X121787600Y-83784964D01*
X121842900Y-83775366D01*
X121909147Y-83769936D01*
X121982294Y-83768367D01*
X122058297Y-83770351D01*
X122058297Y-83770351D01*
G37*
X122058297Y-83770351D02*
X122133112Y-83775581D01*
X122202694Y-83783750D01*
X122262998Y-83794550D01*
X122309980Y-83807673D01*
X122339594Y-83822813D01*
X122344140Y-83827269D01*
X122359946Y-83861850D01*
X122355153Y-83897351D01*
X122330636Y-83927725D01*
X122329466Y-83928596D01*
X122315046Y-83937954D01*
X122299992Y-83942876D01*
X122278995Y-83943473D01*
X122246743Y-83939861D01*
X122197927Y-83932154D01*
X122194000Y-83931505D01*
X122121261Y-83922569D01*
X122042783Y-83918161D01*
X121964073Y-83918119D01*
X121890639Y-83922279D01*
X121827989Y-83930479D01*
X121781630Y-83942557D01*
X121778584Y-83943771D01*
X121744952Y-83962615D01*
X121733136Y-83981685D01*
X121742386Y-84000439D01*
X121771953Y-84018337D01*
X121821089Y-84034837D01*
X121889043Y-84049396D01*
X121934355Y-84056406D01*
X122028544Y-84069889D01*
X122103456Y-84082214D01*
X122162283Y-84094449D01*
X122208215Y-84107661D01*
X122244445Y-84122917D01*
X122274162Y-84141285D01*
X122300558Y-84163831D01*
X122321770Y-84185971D01*
X122346935Y-84216819D01*
X122359319Y-84243345D01*
X122363192Y-84276026D01*
X122363333Y-84287995D01*
X122360424Y-84327712D01*
X122348798Y-84357259D01*
X122328677Y-84383486D01*
X122287784Y-84423576D01*
X122242183Y-84454149D01*
X122188487Y-84476203D01*
X122123308Y-84490735D01*
X122043256Y-84498741D01*
X121944943Y-84501218D01*
X121928711Y-84501177D01*
X121863151Y-84499818D01*
X121798134Y-84496730D01*
X121740748Y-84492356D01*
X121698078Y-84487140D01*
X121694628Y-84486541D01*
X121652204Y-84476491D01*
X121616220Y-84463796D01*
X121595850Y-84452190D01*
X121576893Y-84421572D01*
X121575573Y-84385918D01*
X121591915Y-84354144D01*
X121595571Y-84350551D01*
X121610685Y-84339876D01*
X121629585Y-84335276D01*
X121658838Y-84336059D01*
X121694349Y-84340127D01*
X121734030Y-84343762D01*
X121789655Y-84346828D01*
X121854594Y-84349053D01*
X121922215Y-84350164D01*
X121940000Y-84350237D01*
X122007872Y-84349964D01*
X122057546Y-84348646D01*
X122093390Y-84345827D01*
X122119776Y-84341050D01*
X122141074Y-84333857D01*
X122153874Y-84327867D01*
X122182000Y-84311233D01*
X122199932Y-84296168D01*
X122202553Y-84291897D01*
X122197024Y-84274263D01*
X122170740Y-84257192D01*
X122125522Y-84241458D01*
X122063192Y-84227838D01*
X122044829Y-84224804D01*
X121948910Y-84209738D01*
X121872359Y-84197146D01*
X121812220Y-84186111D01*
X121765540Y-84175720D01*
X121729363Y-84165056D01*
X121700735Y-84153205D01*
X121676702Y-84139251D01*
X121654308Y-84122281D01*
X121630598Y-84101378D01*
X121622620Y-84094049D01*
X121594647Y-84066699D01*
X121579840Y-84045029D01*
X121574048Y-84020232D01*
X121573111Y-83988983D01*
X121583425Y-83927705D01*
X121614248Y-83875640D01*
X121665405Y-83832958D01*
X121736717Y-83799825D01*
X121787600Y-83784964D01*
X121842900Y-83775366D01*
X121909147Y-83769936D01*
X121982294Y-83768367D01*
X122058297Y-83770351D01*
G36*
X121037206Y-83769146D02*
X121106614Y-83769518D01*
X121159003Y-83770385D01*
X121197153Y-83771946D01*
X121223841Y-83774403D01*
X121241847Y-83777957D01*
X121253951Y-83782810D01*
X121262931Y-83789161D01*
X121266182Y-83792084D01*
X121285957Y-83823142D01*
X121289518Y-83858828D01*
X121276509Y-83890510D01*
X121270494Y-83896913D01*
X121260765Y-83903121D01*
X121245099Y-83907910D01*
X121220592Y-83911514D01*
X121184339Y-83914164D01*
X121133435Y-83916095D01*
X121064974Y-83917539D01*
X121002383Y-83918418D01*
X120754666Y-83921467D01*
X120751281Y-83986378D01*
X120747895Y-84051289D01*
X120916042Y-84051289D01*
X120989041Y-84051919D01*
X121042483Y-84054553D01*
X121079372Y-84060309D01*
X121102712Y-84070304D01*
X121115506Y-84085656D01*
X121120758Y-84107482D01*
X121121555Y-84127738D01*
X121119077Y-84152592D01*
X121109723Y-84170906D01*
X121090617Y-84183637D01*
X121058882Y-84191741D01*
X121011641Y-84196176D01*
X120946017Y-84197899D01*
X120910199Y-84198045D01*
X120749022Y-84198045D01*
X120749022Y-84356089D01*
X120997378Y-84356089D01*
X121078787Y-84356202D01*
X121140658Y-84356712D01*
X121186032Y-84357870D01*
X121217946Y-84359930D01*
X121239441Y-84363146D01*
X121253557Y-84367772D01*
X121263332Y-84374059D01*
X121268311Y-84378667D01*
X121285390Y-84405560D01*
X121290889Y-84429467D01*
X121283037Y-84458667D01*
X121268311Y-84480267D01*
X121260454Y-84487066D01*
X121250312Y-84492346D01*
X121235156Y-84496298D01*
X121212259Y-84499113D01*
X121178891Y-84500982D01*
X121132325Y-84502098D01*
X121069833Y-84502651D01*
X120988686Y-84502833D01*
X120946578Y-84502845D01*
X120856402Y-84502765D01*
X120786076Y-84502398D01*
X120732871Y-84501552D01*
X120694060Y-84500036D01*
X120666913Y-84497659D01*
X120648702Y-84494229D01*
X120636700Y-84489554D01*
X120628178Y-84483444D01*
X120624844Y-84480267D01*
X120618245Y-84472670D01*
X120613073Y-84462870D01*
X120609154Y-84448239D01*
X120606316Y-84426152D01*
X120604385Y-84393982D01*
X120603188Y-84349103D01*
X120602552Y-84288889D01*
X120602303Y-84210713D01*
X120602266Y-84137923D01*
X120602300Y-84044707D01*
X120602535Y-83971431D01*
X120603170Y-83915458D01*
X120604406Y-83874151D01*
X120606444Y-83844872D01*
X120609483Y-83824984D01*
X120613723Y-83811850D01*
X120619365Y-83802832D01*
X120626609Y-83795293D01*
X120628394Y-83793612D01*
X120637055Y-83786172D01*
X120647118Y-83780409D01*
X120661375Y-83776112D01*
X120682617Y-83773064D01*
X120713636Y-83771051D01*
X120757223Y-83769860D01*
X120816169Y-83769275D01*
X120893266Y-83769083D01*
X120947999Y-83769067D01*
X121037206Y-83769146D01*
X121037206Y-83769146D01*
G37*
X121037206Y-83769146D02*
X121106614Y-83769518D01*
X121159003Y-83770385D01*
X121197153Y-83771946D01*
X121223841Y-83774403D01*
X121241847Y-83777957D01*
X121253951Y-83782810D01*
X121262931Y-83789161D01*
X121266182Y-83792084D01*
X121285957Y-83823142D01*
X121289518Y-83858828D01*
X121276509Y-83890510D01*
X121270494Y-83896913D01*
X121260765Y-83903121D01*
X121245099Y-83907910D01*
X121220592Y-83911514D01*
X121184339Y-83914164D01*
X121133435Y-83916095D01*
X121064974Y-83917539D01*
X121002383Y-83918418D01*
X120754666Y-83921467D01*
X120751281Y-83986378D01*
X120747895Y-84051289D01*
X120916042Y-84051289D01*
X120989041Y-84051919D01*
X121042483Y-84054553D01*
X121079372Y-84060309D01*
X121102712Y-84070304D01*
X121115506Y-84085656D01*
X121120758Y-84107482D01*
X121121555Y-84127738D01*
X121119077Y-84152592D01*
X121109723Y-84170906D01*
X121090617Y-84183637D01*
X121058882Y-84191741D01*
X121011641Y-84196176D01*
X120946017Y-84197899D01*
X120910199Y-84198045D01*
X120749022Y-84198045D01*
X120749022Y-84356089D01*
X120997378Y-84356089D01*
X121078787Y-84356202D01*
X121140658Y-84356712D01*
X121186032Y-84357870D01*
X121217946Y-84359930D01*
X121239441Y-84363146D01*
X121253557Y-84367772D01*
X121263332Y-84374059D01*
X121268311Y-84378667D01*
X121285390Y-84405560D01*
X121290889Y-84429467D01*
X121283037Y-84458667D01*
X121268311Y-84480267D01*
X121260454Y-84487066D01*
X121250312Y-84492346D01*
X121235156Y-84496298D01*
X121212259Y-84499113D01*
X121178891Y-84500982D01*
X121132325Y-84502098D01*
X121069833Y-84502651D01*
X120988686Y-84502833D01*
X120946578Y-84502845D01*
X120856402Y-84502765D01*
X120786076Y-84502398D01*
X120732871Y-84501552D01*
X120694060Y-84500036D01*
X120666913Y-84497659D01*
X120648702Y-84494229D01*
X120636700Y-84489554D01*
X120628178Y-84483444D01*
X120624844Y-84480267D01*
X120618245Y-84472670D01*
X120613073Y-84462870D01*
X120609154Y-84448239D01*
X120606316Y-84426152D01*
X120604385Y-84393982D01*
X120603188Y-84349103D01*
X120602552Y-84288889D01*
X120602303Y-84210713D01*
X120602266Y-84137923D01*
X120602300Y-84044707D01*
X120602535Y-83971431D01*
X120603170Y-83915458D01*
X120604406Y-83874151D01*
X120606444Y-83844872D01*
X120609483Y-83824984D01*
X120613723Y-83811850D01*
X120619365Y-83802832D01*
X120626609Y-83795293D01*
X120628394Y-83793612D01*
X120637055Y-83786172D01*
X120647118Y-83780409D01*
X120661375Y-83776112D01*
X120682617Y-83773064D01*
X120713636Y-83771051D01*
X120757223Y-83769860D01*
X120816169Y-83769275D01*
X120893266Y-83769083D01*
X120947999Y-83769067D01*
X121037206Y-83769146D01*
G36*
X119628629Y-83769066D02*
X119668111Y-83769467D01*
X119783800Y-83772259D01*
X119880689Y-83780550D01*
X119962081Y-83795232D01*
X120031277Y-83817193D01*
X120091580Y-83847322D01*
X120146292Y-83886510D01*
X120165833Y-83903532D01*
X120198250Y-83943363D01*
X120227480Y-83997413D01*
X120250009Y-84057323D01*
X120262321Y-84114739D01*
X120263600Y-84135956D01*
X120255583Y-84194769D01*
X120234101Y-84259013D01*
X120203001Y-84319821D01*
X120166134Y-84368330D01*
X120160146Y-84374182D01*
X120109421Y-84415321D01*
X120053875Y-84447435D01*
X119990304Y-84471365D01*
X119915506Y-84487953D01*
X119826278Y-84498041D01*
X119719418Y-84502469D01*
X119670472Y-84502845D01*
X119608238Y-84502545D01*
X119564472Y-84501292D01*
X119535069Y-84498554D01*
X119515921Y-84493801D01*
X119502923Y-84486501D01*
X119495955Y-84480267D01*
X119489374Y-84472694D01*
X119484212Y-84462924D01*
X119480297Y-84448340D01*
X119477457Y-84426326D01*
X119475520Y-84394264D01*
X119474316Y-84349536D01*
X119473672Y-84289526D01*
X119473417Y-84211617D01*
X119473378Y-84135956D01*
X119473130Y-84035041D01*
X119473183Y-83954427D01*
X119474143Y-83915822D01*
X119620133Y-83915822D01*
X119620133Y-84356089D01*
X119713266Y-84356004D01*
X119769307Y-84354396D01*
X119828001Y-84350256D01*
X119876972Y-84344464D01*
X119878462Y-84344226D01*
X119957608Y-84325090D01*
X120018998Y-84295287D01*
X120065695Y-84252878D01*
X120095365Y-84206961D01*
X120113647Y-84156026D01*
X120112229Y-84108200D01*
X120091012Y-84056933D01*
X120049511Y-84003899D01*
X119992002Y-83964600D01*
X119917250Y-83938331D01*
X119867292Y-83929035D01*
X119810584Y-83922507D01*
X119750481Y-83917782D01*
X119699361Y-83915817D01*
X119696333Y-83915808D01*
X119620133Y-83915822D01*
X119474143Y-83915822D01*
X119474740Y-83891851D01*
X119479002Y-83845055D01*
X119487170Y-83811778D01*
X119500444Y-83789759D01*
X119520026Y-83776739D01*
X119547117Y-83770457D01*
X119582918Y-83768653D01*
X119628629Y-83769066D01*
X119628629Y-83769066D01*
G37*
X119628629Y-83769066D02*
X119668111Y-83769467D01*
X119783800Y-83772259D01*
X119880689Y-83780550D01*
X119962081Y-83795232D01*
X120031277Y-83817193D01*
X120091580Y-83847322D01*
X120146292Y-83886510D01*
X120165833Y-83903532D01*
X120198250Y-83943363D01*
X120227480Y-83997413D01*
X120250009Y-84057323D01*
X120262321Y-84114739D01*
X120263600Y-84135956D01*
X120255583Y-84194769D01*
X120234101Y-84259013D01*
X120203001Y-84319821D01*
X120166134Y-84368330D01*
X120160146Y-84374182D01*
X120109421Y-84415321D01*
X120053875Y-84447435D01*
X119990304Y-84471365D01*
X119915506Y-84487953D01*
X119826278Y-84498041D01*
X119719418Y-84502469D01*
X119670472Y-84502845D01*
X119608238Y-84502545D01*
X119564472Y-84501292D01*
X119535069Y-84498554D01*
X119515921Y-84493801D01*
X119502923Y-84486501D01*
X119495955Y-84480267D01*
X119489374Y-84472694D01*
X119484212Y-84462924D01*
X119480297Y-84448340D01*
X119477457Y-84426326D01*
X119475520Y-84394264D01*
X119474316Y-84349536D01*
X119473672Y-84289526D01*
X119473417Y-84211617D01*
X119473378Y-84135956D01*
X119473130Y-84035041D01*
X119473183Y-83954427D01*
X119474143Y-83915822D01*
X119620133Y-83915822D01*
X119620133Y-84356089D01*
X119713266Y-84356004D01*
X119769307Y-84354396D01*
X119828001Y-84350256D01*
X119876972Y-84344464D01*
X119878462Y-84344226D01*
X119957608Y-84325090D01*
X120018998Y-84295287D01*
X120065695Y-84252878D01*
X120095365Y-84206961D01*
X120113647Y-84156026D01*
X120112229Y-84108200D01*
X120091012Y-84056933D01*
X120049511Y-84003899D01*
X119992002Y-83964600D01*
X119917250Y-83938331D01*
X119867292Y-83929035D01*
X119810584Y-83922507D01*
X119750481Y-83917782D01*
X119699361Y-83915817D01*
X119696333Y-83915808D01*
X119620133Y-83915822D01*
X119474143Y-83915822D01*
X119474740Y-83891851D01*
X119479002Y-83845055D01*
X119487170Y-83811778D01*
X119500444Y-83789759D01*
X119520026Y-83776739D01*
X119547117Y-83770457D01*
X119582918Y-83768653D01*
X119628629Y-83769066D01*
G04 #@! TO.C,SW1*
D14*
X92987085Y-96864774D02*
X93072611Y-97035827D01*
X93286427Y-97249643D01*
X93414716Y-97292406D01*
X93500242Y-97292406D01*
X93628532Y-97249643D01*
X93714058Y-97164116D01*
X93756821Y-97035827D01*
X93756821Y-96950301D01*
X93714058Y-96822011D01*
X93585769Y-96608196D01*
X93543005Y-96479906D01*
X93543005Y-96394380D01*
X93585769Y-96266091D01*
X93671295Y-96180564D01*
X93799584Y-96137801D01*
X93885110Y-96137801D01*
X94013400Y-96180564D01*
X94227215Y-96394380D01*
X94312742Y-96565433D01*
X94654847Y-96822011D02*
X93970637Y-97933853D01*
X94783136Y-97463458D01*
X94312742Y-98275958D01*
X95424583Y-97591748D01*
X95339057Y-99302273D02*
X94825899Y-98789115D01*
X95082478Y-99045694D02*
X95980503Y-98147668D01*
X95766688Y-98190431D01*
X95595635Y-98190431D01*
X95467346Y-98147668D01*
X96713790Y-85342890D02*
X97050507Y-85679607D01*
X96444416Y-85477577D02*
X97387225Y-85006172D01*
X96915820Y-85948981D01*
X107636906Y-95929289D02*
X107704249Y-96063976D01*
X107704249Y-96131319D01*
X107670578Y-96232334D01*
X107569562Y-96333350D01*
X107468547Y-96367021D01*
X107401203Y-96367021D01*
X107300188Y-96333350D01*
X107030814Y-96063976D01*
X107737921Y-95356869D01*
X107973623Y-95592571D01*
X108007295Y-95693586D01*
X108007295Y-95760930D01*
X107973623Y-95861945D01*
X107906280Y-95929289D01*
X107805265Y-95962960D01*
X107737921Y-95962960D01*
X107636906Y-95929289D01*
X107401203Y-95693586D01*
X96966328Y-107078006D02*
X96898984Y-107078006D01*
X96764297Y-107010663D01*
X96696954Y-106943319D01*
X96629610Y-106808632D01*
X96629610Y-106673945D01*
X96663282Y-106572930D01*
X96764297Y-106404571D01*
X96865312Y-106303556D01*
X97033671Y-106202540D01*
X97134687Y-106168869D01*
X97269374Y-106168869D01*
X97404061Y-106236212D01*
X97471404Y-106303556D01*
X97538748Y-106438243D01*
X97538748Y-106505586D01*
X85959032Y-96063976D02*
X86666139Y-95356869D01*
X86834498Y-95525227D01*
X86901841Y-95659914D01*
X86901841Y-95794601D01*
X86868170Y-95895617D01*
X86767154Y-96063976D01*
X86666139Y-96164991D01*
X86497780Y-96266006D01*
X86396765Y-96299678D01*
X86262078Y-96299678D01*
X86127391Y-96232334D01*
X85959032Y-96063976D01*
G04 #@! TO.C,SW2*
X170969265Y-96882594D02*
X171054791Y-97053647D01*
X171268607Y-97267463D01*
X171396896Y-97310226D01*
X171482422Y-97310226D01*
X171610712Y-97267463D01*
X171696238Y-97181936D01*
X171739001Y-97053647D01*
X171739001Y-96968121D01*
X171696238Y-96839831D01*
X171567949Y-96626016D01*
X171525185Y-96497726D01*
X171525185Y-96412200D01*
X171567949Y-96283911D01*
X171653475Y-96198384D01*
X171781764Y-96155621D01*
X171867290Y-96155621D01*
X171995580Y-96198384D01*
X172209395Y-96412200D01*
X172294922Y-96583253D01*
X172637027Y-96839831D02*
X171952817Y-97951673D01*
X172765316Y-97481278D01*
X172294922Y-98293778D01*
X173406763Y-97609568D01*
X173620578Y-97994436D02*
X173706105Y-97994436D01*
X173834394Y-98037199D01*
X174048210Y-98251014D01*
X174090973Y-98379304D01*
X174090973Y-98464830D01*
X174048210Y-98593119D01*
X173962683Y-98678646D01*
X173791631Y-98764172D01*
X172765316Y-98764172D01*
X173321237Y-99320093D01*
X174695970Y-85360710D02*
X175032687Y-85697427D01*
X174426596Y-85495397D02*
X175369405Y-85023992D01*
X174898000Y-85966801D01*
X185619086Y-95947109D02*
X185686429Y-96081796D01*
X185686429Y-96149139D01*
X185652758Y-96250154D01*
X185551742Y-96351170D01*
X185450727Y-96384841D01*
X185383383Y-96384841D01*
X185282368Y-96351170D01*
X185012994Y-96081796D01*
X185720101Y-95374689D01*
X185955803Y-95610391D01*
X185989475Y-95711406D01*
X185989475Y-95778750D01*
X185955803Y-95879765D01*
X185888460Y-95947109D01*
X185787445Y-95980780D01*
X185720101Y-95980780D01*
X185619086Y-95947109D01*
X185383383Y-95711406D01*
X174948508Y-107095826D02*
X174881164Y-107095826D01*
X174746477Y-107028483D01*
X174679134Y-106961139D01*
X174611790Y-106826452D01*
X174611790Y-106691765D01*
X174645462Y-106590750D01*
X174746477Y-106422391D01*
X174847492Y-106321376D01*
X175015851Y-106220360D01*
X175116867Y-106186689D01*
X175251554Y-106186689D01*
X175386241Y-106254032D01*
X175453584Y-106321376D01*
X175520928Y-106456063D01*
X175520928Y-106523406D01*
X163941212Y-96081796D02*
X164648319Y-95374689D01*
X164816678Y-95543047D01*
X164884021Y-95677734D01*
X164884021Y-95812421D01*
X164850350Y-95913437D01*
X164749334Y-96081796D01*
X164648319Y-96182811D01*
X164479960Y-96283826D01*
X164378945Y-96317498D01*
X164244258Y-96317498D01*
X164109571Y-96250154D01*
X163941212Y-96081796D01*
G04 #@! TO.C,SW3*
D15*
X116916119Y-97560853D02*
X117087171Y-97475326D01*
X117300987Y-97261511D01*
X117343750Y-97133221D01*
X117343750Y-97047695D01*
X117300987Y-96919406D01*
X117215460Y-96833879D01*
X117087171Y-96791116D01*
X117001645Y-96791116D01*
X116873355Y-96833879D01*
X116659540Y-96962169D01*
X116531250Y-97004932D01*
X116445724Y-97004932D01*
X116317435Y-96962169D01*
X116231909Y-96876643D01*
X116189145Y-96748353D01*
X116189145Y-96662827D01*
X116231909Y-96534538D01*
X116445724Y-96320722D01*
X116616777Y-96235196D01*
X116873355Y-95893091D02*
X117985197Y-96577301D01*
X117514802Y-95764801D01*
X118327302Y-96235196D01*
X117643092Y-95123354D01*
X117899670Y-94866776D02*
X118455591Y-94310855D01*
X118498354Y-94952302D01*
X118626644Y-94824013D01*
X118754933Y-94781249D01*
X118840459Y-94781249D01*
X118968749Y-94824013D01*
X119182564Y-95037828D01*
X119225327Y-95166118D01*
X119225327Y-95251644D01*
X119182564Y-95379933D01*
X118925985Y-95636512D01*
X118797696Y-95679275D01*
X118712170Y-95679275D01*
G04 #@! TO.C,SW4*
X146666119Y-108310854D02*
X146837171Y-108225327D01*
X147050987Y-108011512D01*
X147093750Y-107883222D01*
X147093750Y-107797696D01*
X147050987Y-107669407D01*
X146965460Y-107583880D01*
X146837171Y-107541117D01*
X146751645Y-107541117D01*
X146623355Y-107583880D01*
X146409540Y-107712170D01*
X146281250Y-107754933D01*
X146195724Y-107754933D01*
X146067435Y-107712170D01*
X145981909Y-107626644D01*
X145939145Y-107498354D01*
X145939145Y-107412828D01*
X145981909Y-107284539D01*
X146195724Y-107070723D01*
X146366777Y-106985197D01*
X146623355Y-106643092D02*
X147735197Y-107327302D01*
X147264802Y-106514802D01*
X148077302Y-106985197D01*
X147393092Y-105873355D01*
X148419407Y-105445724D02*
X149018090Y-106044408D01*
X147863486Y-105317435D02*
X148291117Y-106172697D01*
X148847038Y-105616777D01*
G04 #@! TO.C,JP1*
D14*
X171882380Y-73553333D02*
X172596666Y-73553333D01*
X172739523Y-73600952D01*
X172834761Y-73696190D01*
X172882380Y-73839047D01*
X172882380Y-73934285D01*
X172882380Y-73077142D02*
X171882380Y-73077142D01*
X171882380Y-72696190D01*
X171930000Y-72600952D01*
X171977619Y-72553333D01*
X172072857Y-72505714D01*
X172215714Y-72505714D01*
X172310952Y-72553333D01*
X172358571Y-72600952D01*
X172406190Y-72696190D01*
X172406190Y-73077142D01*
X172882380Y-71553333D02*
X172882380Y-72124761D01*
X172882380Y-71839047D02*
X171882380Y-71839047D01*
X172025238Y-71934285D01*
X172120476Y-72029523D01*
X172168095Y-72124761D01*
G04 #@! TD*
M02*
