G04 #@! TF.GenerationSoftware,KiCad,Pcbnew,(5.0.2)-1*
G04 #@! TF.CreationDate,2019-11-02T01:01:46-04:00*
G04 #@! TF.ProjectId,gamepad,67616d65-7061-4642-9e6b-696361645f70,rev?*
G04 #@! TF.SameCoordinates,Original*
G04 #@! TF.FileFunction,Legend,Top*
G04 #@! TF.FilePolarity,Positive*
%FSLAX46Y46*%
G04 Gerber Fmt 4.6, Leading zero omitted, Abs format (unit mm)*
G04 Created by KiCad (PCBNEW (5.0.2)-1) date 11/2/2019 1:01:46 AM*
%MOMM*%
%LPD*%
G01*
G04 APERTURE LIST*
%ADD10C,0.120000*%
G04 APERTURE END LIST*
D10*
G04 #@! TO.C,SW6*
X150283332Y-96250000D02*
X150283332Y-94750000D01*
X149033332Y-92250000D02*
X142533332Y-92250000D01*
X141283332Y-94750000D02*
X141283332Y-96250000D01*
X142533332Y-98750000D02*
X149033332Y-98750000D01*
G04 #@! TO.C,SW1*
X101450000Y-88750000D02*
X101450000Y-87250000D01*
X100200000Y-84750000D02*
X93700000Y-84750000D01*
X92450000Y-87250000D02*
X92450000Y-88750000D01*
X93700000Y-91250000D02*
X100200000Y-91250000D01*
G04 #@! TO.C,SW2*
X111450000Y-96250000D02*
X111450000Y-94750000D01*
X110200000Y-92250000D02*
X103700000Y-92250000D01*
X102450000Y-94750000D02*
X102450000Y-96250000D01*
X103700000Y-98750000D02*
X110200000Y-98750000D01*
G04 #@! TO.C,SW4*
X91450000Y-96250000D02*
X91450000Y-94750000D01*
X90200000Y-92250000D02*
X83700000Y-92250000D01*
X82450000Y-94750000D02*
X82450000Y-96250000D01*
X83700000Y-98750000D02*
X90200000Y-98750000D01*
G04 #@! TO.C,SW5*
X130866666Y-96250000D02*
X130866666Y-94750000D01*
X129616666Y-92250000D02*
X123116666Y-92250000D01*
X121866666Y-94750000D02*
X121866666Y-96250000D01*
X123116666Y-98750000D02*
X129616666Y-98750000D01*
G04 #@! TO.C,SW8*
X179700000Y-103750000D02*
X179700000Y-102250000D01*
X178450000Y-99750000D02*
X171950000Y-99750000D01*
X170700000Y-102250000D02*
X170700000Y-103750000D01*
X171950000Y-106250000D02*
X178450000Y-106250000D01*
G04 #@! TO.C,SW9*
X189700000Y-96250000D02*
X189700000Y-94750000D01*
X188450000Y-92250000D02*
X181950000Y-92250000D01*
X180700000Y-94750000D02*
X180700000Y-96250000D01*
X181950000Y-98750000D02*
X188450000Y-98750000D01*
G04 #@! TO.C,SW10*
X169700000Y-96250000D02*
X169700000Y-94750000D01*
X168450000Y-92250000D02*
X161950000Y-92250000D01*
X160700000Y-94750000D02*
X160700000Y-96250000D01*
X161950000Y-98750000D02*
X168450000Y-98750000D01*
G04 #@! TO.C,SW3*
X101450000Y-103750000D02*
X101450000Y-102250000D01*
X100200000Y-99750000D02*
X93700000Y-99750000D01*
X92450000Y-102250000D02*
X92450000Y-103750000D01*
X93700000Y-106250000D02*
X100200000Y-106250000D01*
G04 #@! TO.C,SW7*
X179700000Y-88750000D02*
X179700000Y-87250000D01*
X178450000Y-84750000D02*
X171950000Y-84750000D01*
X170700000Y-87250000D02*
X170700000Y-88750000D01*
X171950000Y-91250000D02*
X178450000Y-91250000D01*
G04 #@! TO.C,JP1*
X171430000Y-70370000D02*
X171430000Y-71700000D01*
X170100000Y-70370000D02*
X171430000Y-70370000D01*
X171430000Y-72970000D02*
X171430000Y-75570000D01*
X168830000Y-72970000D02*
X171430000Y-72970000D01*
X168830000Y-70370000D02*
X168830000Y-72970000D01*
X171430000Y-75570000D02*
X120510000Y-75570000D01*
X168830000Y-70370000D02*
X120510000Y-70370000D01*
X120510000Y-70370000D02*
X120510000Y-75570000D01*
G04 #@! TD*
M02*
