M48
;DRILL file {KiCad (5.0.2)-1} date 10/1/2019 11:20:33 PM
;FORMAT={-:-/ absolute / inch / decimal}
FMAT,2
INCH,TZ
T1C0.0157
T2C0.0394
T3C0.0400
T4C0.0492
T5C0.0591
%
G90
G05
T1
X3.5433Y-3.9764
X3.9961Y-3.5433
X4.0157Y-4.3898
X4.4094Y-3.9567
X4.6063Y-4.4882
X5.9646Y-3.0709
X6.6535Y-3.9567
X7.0669Y-3.5433
X7.0669Y-4.3701
X7.4803Y-3.9567
T2
X3.7205Y-2.6083
X3.8976Y-2.6083
X4.7969Y-2.813
X4.7969Y-2.913
X4.8969Y-2.813
X4.8969Y-2.913
X4.9969Y-2.813
X4.9969Y-2.913
X5.0969Y-2.813
X5.0969Y-2.913
X5.1969Y-2.813
X5.1969Y-2.913
X5.2969Y-2.813
X5.2969Y-2.913
X5.3969Y-2.813
X5.3969Y-2.913
X5.4969Y-2.813
X5.4969Y-2.913
X5.5969Y-2.813
X5.5969Y-2.913
X5.6969Y-2.813
X5.6969Y-2.913
X5.7969Y-2.813
X5.7969Y-2.913
X5.8969Y-2.813
X5.8969Y-2.913
X5.9969Y-2.813
X5.9969Y-2.913
X6.0969Y-2.813
X6.0969Y-2.913
X6.1969Y-2.813
X6.1969Y-2.913
X6.2969Y-2.813
X6.2969Y-2.913
X6.3969Y-2.813
X6.3969Y-2.913
X6.4969Y-2.813
X6.4969Y-2.913
X6.5969Y-2.813
X6.5969Y-2.913
X6.6969Y-2.813
X6.6969Y-2.913
X6.7913Y-2.6083
X6.9685Y-2.6083
X4.4031Y-4.6732
X4.4031Y-4.7732
X4.5031Y-4.6732
X4.5031Y-4.7732
X4.6031Y-4.6732
X4.6031Y-4.7732
X4.7031Y-4.6732
X4.7031Y-4.7732
X4.8031Y-4.6732
X4.8031Y-4.7732
X4.9031Y-4.6732
X4.9031Y-4.7732
X5.0031Y-4.6732
X5.0031Y-4.7732
X5.1031Y-4.6732
X5.1031Y-4.7732
X5.2031Y-4.6732
X5.2031Y-4.7732
X5.3031Y-4.6732
X5.3031Y-4.7732
X5.4031Y-4.6732
X5.4031Y-4.7732
X5.5031Y-4.6732
X5.5031Y-4.7732
X5.6031Y-4.6732
X5.6031Y-4.7732
X5.7031Y-4.6732
X5.7031Y-4.7732
X5.8031Y-4.6732
X5.8031Y-4.7732
X5.9031Y-4.6732
X5.9031Y-4.7732
X6.0031Y-4.6732
X6.0031Y-4.7732
X6.1031Y-4.6732
X6.1031Y-4.7732
X6.2031Y-4.6732
X6.2031Y-4.7732
X6.3031Y-4.6732
X6.3031Y-4.7732
T3
X6.6437Y-3.0217
T4
X5.5114Y-3.9696
X5.6367Y-4.0949
X5.8594Y-3.6216
X5.9847Y-3.7469
X4.724Y-3.9696
X4.8493Y-4.0949
X5.072Y-3.6216
X5.1973Y-3.7469
T5
X3.6713Y-2.7067
X3.9469Y-2.7067
X6.7421Y-2.7067
X7.0177Y-2.7067
T0
M30
